<svg xmlns="http://www.w3.org/2000/svg" width="200" height="188" fill="none"><g fill="#44C144" clip-path="url(#a)"><path d="M.724 1.957v130.687c69.274 32.239 154.434 12.307 198.954-48.877V1.957zm50.062 70.89c-5.542 0-9.606-3.813-9.606-9.013s4.803-9.706 10.345-9.706 10.345 4.506 10.345 9.706c-.74 5.027-4.803 9.013-11.084 9.013m98.83 0c-5.542 0-10.345-4.507-10.345-9.706 0-5.2 4.803-9.707 10.345-9.707s10.345 4.507 10.345 9.707c-.739 5.72-4.803 9.706-10.345 9.706"/><path d="M.724 160.377v27.039h198.954v-67.597C125.601 195.042 31.574 169.91.724 160.377"/></g><defs><clipPath id="a"><path fill="#fff" d="M0 .939h200v186.885H0z"/></clipPath></defs></svg>