<svg xmlns="http://www.w3.org/2000/svg" width="200" height="188" fill="none"><g fill="#44C144" clip-path="url(#a)"><path d="M.72 1.87v130.69C70 164.8 155.16 144.86 199.68 83.68V1.87zM50.8 72.76c-5.55 0-9.61-3.81-9.61-9.01s4.8-9.71 10.34-9.71 10.35 4.5 10.35 9.7c-.74 5.03-4.8 9.02-11.08 9.02m98.83 0c-5.55 0-10.35-4.5-10.35-9.7s4.8-9.71 10.35-9.71 10.34 4.5 10.34 9.7c-.74 5.72-4.8 9.71-10.34 9.71"/><path d="M.72 160.29v27.04h198.96v-67.6C125.6 194.96 31.58 169.83.72 160.3"/></g><defs><clipPath id="a"><path fill="#fff" d="M0 .85h200v186.88H0z"/></clipPath></defs></svg>