<svg xmlns="http://www.w3.org/2000/svg" width="200" height="188" fill="none"><path fill="#44C144" d="M.724 1.198v130.688c69.274 32.239 154.434 12.306 198.954-48.878V1.198zm50.062 70.89c-5.542 0-9.606-3.813-9.606-9.012 0-5.2 4.803-9.707 10.345-9.707s10.345 4.507 10.345 9.707c-.74 5.026-4.803 9.013-11.084 9.013m98.83 0c-5.542 0-10.345-4.506-10.345-9.706s4.803-9.706 10.345-9.706 10.345 4.506 10.345 9.706c-.739 5.72-4.803 9.707-10.345 9.707"/><path fill="#44C144" d="M.724 159.619v27.039h198.954v-67.597C125.601 194.284 31.574 169.152.724 159.619"/></svg>