<svg xmlns="http://www.w3.org/2000/svg" width="200" height="232" fill="none"><g clip-path="url(#a)"><path fill="#4B90C1" d="M101.59 40.44v75.12l65.03 37.55V78l-65.09-37.56"/><path fill="#56C2E4" d="m196.24 170.19-29.62-17.08v1.91l-1.61.92L194.5 173l-92.86 53.71v-34.1l-1.65.96-1.65-.95v34.09L5.41 173.02l29.5-17.08-1.6-.92v-1.94L3.8 170.19V62.87L33.32 79.9v-1.88l1.65-.95L5.4 60.03 98.32 6.37v34.1l1.65-.96 1.59.93V6.34l93.03 53.69-29.53 17.04 1.56.95v1.91l29.53-17.04v107.3zm1.64-112.07-96.3-55.59-1.58-.92-1.68.98L.5 59.07v115.05l97.85 56.37 1.65.95 1.65-.95 96.23-55.56 1.62-.81V59.07l-1.64-.95z"/><path fill="#2C4A8D" d="M101.59 115.5V40.38l-1.59-.93-1.65.96v75.12l-65 37.56v1.93l1.59.92L100 118.4l65.12 37.55 1.5-.92v-1.9l-65.09-37.57"/><path fill="#4568A3" d="M33.32 78.02v75.12l65-37.56V40.47z"/><path fill="#56C2E4" d="m99.97 118.33-65.06 37.56L100 193.45l65.1-37.56z"/></g><defs><clipPath id="a"><path fill="#fff" d="M0 .75h200v231H0z"/></clipPath></defs></svg>