<svg xmlns="http://www.w3.org/2000/svg" width="200" height="232" fill="none"><g clip-path="url(#a)"><path fill="#4B90C1" d="M101.589 40.437v75.118l65.035 37.559V77.996l-65.093-37.56"/><path fill="#56C2E4" d="m196.238 170.189-29.614-17.075v1.907l-1.618.924 29.498 17.046-92.857 53.709v-34.092l-1.647.954-1.647-.954V226.7L5.41 173.02l29.498-17.075-1.589-.924v-1.936L3.791 170.189V62.857l29.527 17.046v-1.878l1.647-.954L5.41 60.025 98.324 6.374v34.092l1.647-.954 1.589.925V6.345l93.031 53.68-29.527 17.046 1.56.954v1.906l29.527-17.046V170.19zm1.647-112.07L101.589 2.53 100 1.606l-1.676.983L.498 59.072v115.046l97.855 56.367 1.647.954 1.647-.954 96.238-55.558 1.618-.809V59.072l-1.647-.954z"/><path fill="#2C4A8D" d="M101.589 115.497V40.379L100 39.454l-1.647.953v75.119l-65.006 37.559v1.935l1.59.925L100 118.386l65.122 37.559 1.502-.925v-1.907l-65.093-37.559"/><path fill="#4568A3" d="M33.318 78.025v75.118l65.006-37.559V40.466z"/><path fill="#56C2E4" d="m99.971 118.328-65.064 37.559L100 193.446l65.093-37.559z"/></g><defs><clipPath id="a"><path fill="#fff" d="M0 .755h200v231H0z"/></clipPath></defs></svg>