<svg xmlns="http://www.w3.org/2000/svg" width="200" height="258" fill="none"><path fill="#000" d="M54.248 1.933A7.26 7.26 0 0 0 50 3.698a9.67 9.67 0 0 0-10.98 1.046c-5.164-.72-6.536.719-8.105 2.287-1.111 0-8.497-1.176-11.83 3.856-8.497-.98-11.177 5.033-8.105 10.589a7.254 7.254 0 0 0 .523 10.392c-1.438 2.876-.588 5.948 2.81 9.673a8.104 8.104 0 0 0 3.987 9.02c-.588 5.49 5.033 8.692 6.537 9.804.653 3.202 2.026 6.535 8.43 7.843 1.047 4.77 4.903 5.555 8.628 6.536a40.2 40.2 0 0 0-22.81 39.607l-1.83 3.268a39.214 39.214 0 0 0-6.928 58.824 106.5 106.5 0 0 0 5.425 17.647 42.88 42.88 0 0 0 26.731 34.248 91.5 91.5 0 0 0 25.622 14.575A42.73 42.73 0 0 0 100 256.835a42.73 42.73 0 0 0 31.503-14.118 91.5 91.5 0 0 0 25.621-14.575 42.87 42.87 0 0 0 26.732-34.248 106.5 106.5 0 0 0 5.425-17.647 39.22 39.22 0 0 0 9.952-30.992 39.2 39.2 0 0 0-16.88-27.832l-1.83-3.268a40.2 40.2 0 0 0-22.811-39.607c3.726-1.046 7.582-1.83 8.628-6.537 6.536-1.633 7.778-4.64 8.431-7.843 1.634-1.11 7.255-4.313 6.536-9.803a8.106 8.106 0 0 0 3.987-9.02c3.399-3.726 4.248-6.536 2.81-9.673a7.253 7.253 0 0 0 .523-10.393c3.072-5.555.392-11.568-8.104-10.588-3.334-5.032-10.719-3.856-11.83-3.856-1.307-1.569-2.941-3.006-8.105-2.288A9.67 9.67 0 0 0 150 3.697c-4.248-3.594-7.582-.718-10.784.393-5.556-1.83-6.536.654-9.543 1.634-6.078-1.242-7.908 1.503-10.784 4.444h-3.399A38.56 38.56 0 0 0 100 32.064 39.22 39.22 0 0 0 84.77 10.103h-3.399c-2.875-2.941-4.705-5.686-10.784-4.444-2.745-.915-3.987-3.4-9.804-1.569a21.7 21.7 0 0 0-6.536-2.157"/><path fill="#75A928" d="M36.078 25.593C60.261 38.077 74.314 48.143 81.83 56.77c-3.922 15.817-24.51 16.536-32.026 16.078a5.75 5.75 0 0 0 3.268-2.876c-1.896-1.372-8.562 0-13.072-2.81a4.32 4.32 0 0 0 3.464-2.026 38.8 38.8 0 0 1-11.96-4.967 6.86 6.86 0 0 0 4.901-1.046 47.3 47.3 0 0 1-11.503-7.06c2.091 0 4.314 0 4.902-.783a46.3 46.3 0 0 1-9.216-7.451 7.06 7.06 0 0 0 4.771-.458 36.2 36.2 0 0 1-7.843-8.627 5.95 5.95 0 0 0 5.49 0c-.915-2.092-4.901-3.334-7.19-8.236 2.223 0 4.576.458 5.034 0a23.6 23.6 0 0 0-4.576-9.085c3.95.13 7.903-.022 11.83-.457l-3.006-3.007a23.27 23.27 0 0 1 13.072 1.242c1.569-1.242 0-2.745-1.896-4.379a43.4 43.4 0 0 1 10.785 2.745c1.764-1.568-1.111-3.137-2.484-4.706a27.5 27.5 0 0 1 11.307 4.445c1.896-1.83 0-3.334-1.11-4.902a27.3 27.3 0 0 1 9.476 6.078c.85-1.11 2.222-1.96.588-4.706a24.05 24.05 0 0 1 7.648 6.536c2.026-1.307 1.176-3.072 1.176-4.706A72 72 0 0 1 81.7 20.3c.587-.392 1.045-1.7 1.437-3.79 8.17 7.908 19.608 27.843 2.941 35.751a156.1 156.1 0 0 0-50-26.667M164.445 25.593c-24.183 12.288-38.301 22.55-45.948 31.177 3.921 15.817 24.51 16.536 32.091 16.078a5.68 5.68 0 0 1-3.333-2.876c1.895-1.372 8.627 0 13.072-2.81a4.31 4.31 0 0 1-3.464-2.026 37.5 37.5 0 0 0 11.961-4.967 6.54 6.54 0 0 1-4.837-1.046 47 47 0 0 0 11.438-7.06c-2.026 0-4.248 0-4.902-.783a46.4 46.4 0 0 0 9.216-7.451 7.2 7.2 0 0 1-4.772-.458 36.2 36.2 0 0 0 7.844-8.627 5.95 5.95 0 0 1-5.491 0c1.111-2.157 5.164-3.399 7.647-8.301-1.681.35-3.416.35-5.098 0a23.6 23.6 0 0 1 4.576-9.085c-3.97.157-7.945.026-11.896-.392l2.941-3.007a23.27 23.27 0 0 0-13.072 1.242c-1.568-1.242 0-2.745 1.896-4.379a45 45 0 0 0-10.785 2.745c-1.764-1.568 1.112-3.137 2.484-4.706a28 28 0 0 0-11.307 4.445c-1.895-1.83 0-3.334 1.176-4.902a27.7 27.7 0 0 0-9.542 6.078c-.85-1.11-2.157-1.96-.588-4.706a24.4 24.4 0 0 0-7.582 6.536c-2.026-1.307-1.242-3.072-1.242-4.706a84 84 0 0 0-8.235 8.628 7.7 7.7 0 0 1-1.438-3.791c-8.105 7.909-19.608 27.843-2.941 35.752a156.9 156.9 0 0 1 50-26.667z"/><path fill="#BC1142" d="M129.608 186.639a27.973 27.973 0 0 1-29.02 26.732 27.91 27.91 0 0 1-28.954-26.732 27.91 27.91 0 0 1 28.954-26.667 27.91 27.91 0 0 1 29.02 26.667M83.79 110.299c12.027 7.909 14.184 25.686 4.837 39.869S62.027 169.384 50 161.476c-12.026-7.843-14.183-25.687-4.837-39.804s26.667-19.216 38.628-11.373M116.209 108.861c-11.961 7.909-14.118 25.752-4.837 39.869s26.667 19.216 38.693 11.308c12.026-7.843 14.183-25.687 4.837-39.804s-26.667-19.216-38.693-11.373M23.79 123.175c13.073-3.464 4.38 53.66-6.143 48.954a30.846 30.846 0 0 1-4.213-39.288 30.85 30.85 0 0 1 10.357-9.666M173.66 122.456c-13.072-3.464-4.379 53.66 6.144 48.954a30.84 30.84 0 0 0 9.158-26.012 30.85 30.85 0 0 0-15.302-22.942M129.608 79.907c22.353-3.726 40.98 9.542 40.261 33.791-.784 9.346-48.496-32.68-40.261-33.791M67.778 79.188c-22.419-3.725-41.046 9.543-40.262 33.791.589 9.346 48.497-32.353 40.262-33.79M100 73.567c-13.072-.327-26.144 9.935-26.144 15.883 0 7.19 10.523 14.575 26.144 14.771s26.144-5.883 26.144-13.072c0-7.19-14.575-17.386-26.144-17.255zM100.719 221.868c11.634-.523 27.255 3.725 27.32 9.346s-14.183 17.909-28.104 17.647c-13.922-.261-28.497-11.764-28.301-16.078-.261-6.275 17.516-11.242 29.085-10.915M57.712 188.208c8.301 10 12.092 27.581 5.164 32.679-6.536 3.922-22.484 2.288-33.726-13.921-7.647-13.595-6.536-27.451-1.307-31.569 7.974-4.64 20.327 1.896 29.87 12.811M142.091 185.201c-9.019 10.523-13.986 29.674-7.451 35.687 6.536 4.836 23.072 4.117 35.491-13.072 9.019-11.569 5.947-30.85.849-36.013-7.647-5.752-18.692 1.83-28.889 13.398"/></svg>