<svg xmlns="http://www.w3.org/2000/svg" width="200" height="257" fill="none"><g clip-path="url(#a)"><path fill="#000" d="M54.25 1.1A7.3 7.3 0 0 0 50 2.87 9.7 9.7 0 0 0 39.02 3.9c-5.16-.71-6.54.72-8.1 2.3-1.12 0-8.5-1.18-11.84 3.85-8.5-.98-11.17 5.03-8.1 10.59a7.25 7.25 0 0 0 .52 10.39c-1.43 2.87-.59 5.95 2.81 9.67a8.1 8.1 0 0 0 3.99 9.02c-.59 5.5 5.03 8.7 6.54 9.8.65 3.2 2.02 6.54 8.43 7.85 1.04 4.77 4.9 5.55 8.63 6.53a40.2 40.2 0 0 0-22.82 39.61l-1.83 3.27a39.22 39.22 0 0 0-6.92 58.82q1.95 9.06 5.42 17.65a42.9 42.9 0 0 0 26.73 34.25 92 92 0 0 0 25.62 14.57A42.8 42.8 0 0 0 100 256a42.7 42.7 0 0 0 31.5-14.11 92 92 0 0 0 25.62-14.58 42.9 42.9 0 0 0 26.74-34.25 106 106 0 0 0 5.42-17.64 39.22 39.22 0 0 0-6.93-58.83l-1.83-3.26a40.2 40.2 0 0 0-22.8-39.61c3.72-1.05 7.57-1.83 8.62-6.54 6.54-1.63 7.78-4.64 8.43-7.84 1.63-1.11 7.26-4.31 6.54-9.8a8.1 8.1 0 0 0 3.98-9.02c3.4-3.73 4.25-6.54 2.81-9.68a7.25 7.25 0 0 0 .53-10.39c3.07-5.56.39-11.57-8.1-10.59-3.34-5.03-10.73-3.85-11.84-3.85-1.3-1.57-2.94-3.01-8.1-2.3A9.7 9.7 0 0 0 150 2.88c-4.25-3.6-7.58-.72-10.78.39-5.56-1.83-6.54.65-9.55 1.63-6.07-1.24-7.9 1.5-10.78 4.45h-3.4A38.6 38.6 0 0 0 100 31.24 39.2 39.2 0 0 0 84.77 9.26h-3.4C78.5 6.33 76.67 3.6 70.6 4.83c-2.75-.92-3.99-3.4-9.8-1.57a22 22 0 0 0-6.54-2.16"/><path fill="#75A928" d="M36.08 24.76C60.26 37.25 74.3 47.31 81.83 55.94 77.91 71.76 57.32 72.48 49.8 72.02a5.8 5.8 0 0 0 3.27-2.88c-1.9-1.37-8.56 0-13.07-2.8a4.3 4.3 0 0 0 3.46-2.03 39 39 0 0 1-11.96-4.97c1.71.28 3.46-.1 4.9-1.05a47 47 0 0 1-11.5-7.06c2.1 0 4.32 0 4.9-.78A46 46 0 0 1 20.6 43c1.6.4 3.28.25 4.77-.46a36 36 0 0 1-7.84-8.63 6 6 0 0 0 5.49 0c-.92-2.09-4.9-3.33-7.2-8.23 2.23 0 4.58.46 5.04 0a24 24 0 0 0-4.58-9.09q5.93.2 11.83-.45l-3-3.01c4.38-.85 8.92-.42 13.07 1.24 1.57-1.24 0-2.74-1.9-4.38a43 43 0 0 1 10.79 2.75c1.76-1.57-1.11-3.14-2.48-4.7 4.05.61 7.91 2.13 11.3 4.44 1.9-1.83 0-3.34-1.1-4.9a27 27 0 0 1 9.47 6.07c.85-1.1 2.22-1.96.59-4.7a24 24 0 0 1 7.64 6.53c2.03-1.3 1.18-3.07 1.18-4.7a72 72 0 0 1 8.04 8.69c.59-.4 1.05-1.7 1.44-3.8 8.17 7.92 19.6 27.85 2.94 35.76a156 156 0 0 0-50-26.67M164.45 24.76c-24.19 12.3-38.3 22.55-45.95 31.18 3.92 15.82 24.5 16.54 32.09 16.08a5.7 5.7 0 0 1-3.34-2.88c1.9-1.37 8.63 0 13.08-2.8a4.3 4.3 0 0 1-3.47-2.03c4.25-.95 8.3-2.63 11.96-4.97a6.5 6.5 0 0 1-4.83-1.05 47 47 0 0 0 11.44-7.06c-2.03 0-4.25 0-4.9-.78a46 46 0 0 0 9.2-7.45 7.2 7.2 0 0 1-4.76-.46 36 36 0 0 0 7.84-8.63 6 6 0 0 1-5.49 0c1.11-2.15 5.16-3.4 7.65-8.3-1.68.35-3.42.35-5.1 0a24 24 0 0 1 4.57-9.08q-5.96.23-11.9-.4l2.95-3a23.3 23.3 0 0 0-13.07 1.24c-1.57-1.24 0-2.74 1.9-4.38q-5.56.7-10.8 2.75c-1.76-1.57 1.12-3.14 2.5-4.7-4.06.63-7.92 2.14-11.31 4.44-1.9-1.83 0-3.34 1.17-4.9a28 28 0 0 0-9.54 6.07c-.85-1.1-2.16-1.96-.59-4.7a24 24 0 0 0-7.58 6.53c-2.03-1.3-1.24-3.07-1.24-4.7a84 84 0 0 0-8.24 8.62 7.7 7.7 0 0 1-1.44-3.79c-8.1 7.91-19.6 27.85-2.94 35.76a157 157 0 0 1 50-26.67z"/><path fill="#BC1142" d="M129.6 185.81a28 28 0 0 1-29.01 26.73 27.9 27.9 0 0 1-28.96-26.73 27.9 27.9 0 0 1 28.96-26.67 27.9 27.9 0 0 1 29.02 26.67M83.8 109.47c12.02 7.9 14.17 25.69 4.83 39.87s-26.6 19.22-38.63 11.3c-12.03-7.84-14.18-25.68-4.84-39.8s26.67-19.21 38.63-11.37M116.2 108.03c-11.95 7.91-14.1 25.75-4.83 39.87s26.67 19.22 38.7 11.3c12.02-7.83 14.18-25.68 4.83-39.8s-26.66-19.21-38.7-11.37M23.8 122.35c13.06-3.47 4.37 53.66-6.15 48.95a30.85 30.85 0 0 1 6.14-48.96M173.66 121.63c-13.07-3.47-4.38 53.66 6.14 48.95a30.84 30.84 0 0 0-6.14-48.95M129.6 79.08c22.36-3.73 40.99 9.54 40.27 33.79-.78 9.34-48.5-32.68-40.26-33.8M67.78 78.36c-22.42-3.73-41.05 9.54-40.26 33.79.58 9.35 48.5-32.35 40.26-33.8M100 72.74c-13.07-.33-26.14 9.93-26.14 15.88 0 7.19 10.52 14.57 26.14 14.77s26.14-5.88 26.14-13.07S111.57 72.93 100 73.06zM100.72 221.04c11.63-.53 27.25 3.72 27.32 9.34.06 5.63-14.18 17.91-28.1 17.65s-28.5-11.76-28.3-16.08c-.27-6.27 17.51-11.24 29.08-10.91M57.71 187.38c8.3 10 12.1 27.58 5.17 32.68-6.54 3.92-22.49 2.28-33.73-13.92-7.65-13.6-6.54-27.45-1.3-31.57 7.97-4.64 20.32 1.9 29.86 12.8M142.1 184.37c-9.03 10.53-14 29.67-7.46 35.69 6.54 4.84 23.07 4.12 35.5-13.07 9.01-11.57 5.94-30.85.84-36.02-7.65-5.75-18.7 1.83-28.89 13.4"/></g><defs><clipPath id="a"><path fill="#fff" d="M0 .12h200v256.21H0z"/></clipPath></defs></svg>