<svg xmlns="http://www.w3.org/2000/svg" width="200" height="146" fill="none"><g fill="#46ABE8" clip-path="url(#a)"><path d="M101.079 110.336v26.785c0 4.465 1.674 6.325 6.138 6.883a28 28 0 0 0 5.581 0c5.58-.186 7.254-2.046 7.254-7.627V97.873c0-2.604.744-3.349 3.348-3.162 11.533.186 23.252 0 34.785 0 7.626 0 14.695-2.233 21.019-6.51 22.507-14.882 27.716-49.108 10.603-70.871-7.627-9.859-17.485-15.997-30.134-16.183C142.188.775 124.888.96 107.403.96c-3.348 0-5.394 1.488-5.766 4.836-.558 3.348-.744 6.882-.372 10.23.558 5.58 2.232 7.069 7.998 7.069h47.62c1.86 0 3.906 0 5.766.372 11.719 2.604 19.345 14.323 18.043 27.53-1.302 12.277-11.161 21.391-23.065 21.577h-44.829c-7.627 0-11.719 4.092-11.719 11.719zM84.338 37.605h.372V8.215c0-5.022-1.488-6.696-6.696-7.068a28 28 0 0 0-5.58 0c-5.395.372-6.883 1.86-6.883 7.44v55.06c0 2.976-.372 6.138-1.302 8.928-4.465 14.695-20.462 21.206-32.924 13.393-7.441-4.65-10.975-11.905-11.161-20.461-.186-7.627 0-15.067 0-22.694V7.657c0-4.278-1.674-6.138-5.953-6.324a47 47 0 0 0-7.254 0c-4.278.372-5.952 2.232-6.138 6.51 0 19.345-.186 38.69 0 58.036C1.19 78.34 5.655 89.502 14.21 98.803c12.091 13.021 30.878 16.555 46.503 8.184 13.951-7.44 21.764-19.717 23.438-35.156 1.116-11.347.186-22.88.186-34.226"/><path d="M101.079 110.336V84.294c0-7.627 4.092-11.719 11.719-11.719h44.829c11.904 0 21.763-9.3 23.065-21.577 1.302-13.207-6.324-24.926-18.043-27.53-1.86-.372-3.906-.372-5.766-.372h-47.619c-5.767 0-7.627-1.488-7.999-7.068-.372-3.349 0-6.883.372-10.231S104.055.96 107.404.96c17.485 0 34.784-.186 52.269.186 12.649.186 22.507 6.51 30.134 16.183 17.113 21.763 11.905 55.803-10.603 70.87-6.324 4.278-13.393 6.51-21.019 6.51h-34.784c-2.419 0-3.349.559-3.349 3.163.186 12.835 0 25.669 0 38.504 0 5.581-1.674 7.441-7.254 7.627-1.86 0-3.72.186-5.581 0-4.464-.372-6.138-2.232-6.138-6.883zM84.896 38.195c0 11.346.372 22.29-.744 33.636-1.488 15.44-9.487 27.716-23.438 35.157-15.625 8.37-34.412 4.836-46.503-8.185-8.556-9.3-13.02-20.461-13.206-32.924-.186-19.345 0-38.69 0-58.036 0-4.464 1.674-6.324 6.138-6.51a47 47 0 0 1 7.254 0c4.279.372 5.953 2.046 5.953 6.324v35.157c0 7.626-.186 15.066 0 22.693.372 8.557 3.906 15.811 11.16 20.461 12.277 7.999 28.46 1.488 32.925-13.393.93-2.79 1.116-5.952 1.302-8.928.186-18.415 0-36.644 0-55.06 0-5.58 1.488-7.068 6.882-7.44q2.79-.279 5.58 0c5.209.372 6.697 2.046 6.697 7.068v29.98"/></g><defs><clipPath id="a"><path fill="#fff" d="M0 .826h200v145H0z"/></clipPath></defs></svg>