<svg xmlns="http://www.w3.org/2000/svg" width="200" height="227" fill="none"><g clip-path="url(#a)"><path fill="#46ABE8" d="M101.079 111.058v26.786c0 4.464 1.674 6.324 6.138 6.882a28 28 0 0 0 5.581 0c5.58-.186 7.254-2.046 7.254-7.626V98.595c0-2.604.744-3.348 3.348-3.162 11.533.186 23.252 0 34.785 0 7.626 0 14.695-2.232 21.019-6.51 22.507-14.881 27.716-49.107 10.603-70.87-7.627-9.86-17.485-15.998-30.134-16.184-17.485-.372-34.785-.186-52.27-.186-3.348 0-5.394 1.488-5.766 4.837-.558 3.348-.744 6.882-.372 10.23.558 5.58 2.232 7.069 7.998 7.069h47.62c1.86 0 3.906 0 5.766.372 11.719 2.604 19.345 14.323 18.043 27.53-1.302 12.276-11.161 21.39-23.065 21.577h-44.829c-7.627 0-11.719 4.092-11.719 11.719zm-16.741-72.73h.372V8.938c0-5.023-1.488-6.697-6.696-7.069a28 28 0 0 0-5.58 0c-5.395.372-6.883 1.86-6.883 7.44v55.06c0 2.976-.372 6.139-1.302 8.929-4.465 14.695-20.462 21.205-32.924 13.393-7.441-4.65-10.975-11.905-11.161-20.462-.186-7.626 0-15.067 0-22.693V8.38c0-4.279-1.674-6.139-5.953-6.325a47 47 0 0 0-7.254 0c-4.278.372-5.952 2.232-6.138 6.51 0 19.346-.186 38.691 0 58.036.372 12.463 4.836 23.624 13.392 32.924 12.091 13.021 30.878 16.556 46.503 8.185 13.951-7.44 21.764-19.717 23.438-35.156 1.116-11.347.186-22.88.186-34.226"/><path fill="#46ABE8" d="M101.079 111.058V85.017c0-7.627 4.092-11.72 11.719-11.72h44.828c11.905 0 21.764-9.3 23.066-21.577 1.302-13.206-6.324-24.925-18.043-27.53-1.86-.371-3.906-.371-5.767-.371h-47.619c-5.766 0-7.626-1.488-7.998-7.069-.372-3.348 0-6.882.372-10.23s2.418-4.837 5.766-4.837c17.485 0 34.784-.186 52.27.186 12.648.186 22.507 6.51 30.134 16.183 17.113 21.764 11.904 55.804-10.603 70.87-6.325 4.28-13.393 6.511-21.019 6.511H123.4c-2.418 0-3.348.558-3.348 3.162.186 12.835 0 25.67 0 38.505 0 5.58-1.674 7.44-7.254 7.626-1.861 0-3.721.186-5.581 0-4.464-.372-6.138-2.232-6.138-6.882zM84.338 38.328c0 11.347.93 22.88-.186 34.226-1.488 15.439-9.487 27.716-23.438 35.156-15.625 8.371-34.412 4.837-46.503-8.184-8.556-9.3-13.02-20.462-13.206-32.924-.186-19.346 0-38.69 0-58.036 0-4.464 1.674-6.324 6.138-6.51a47 47 0 0 1 7.254 0c4.279.372 5.953 2.046 5.953 6.324v35.156c0 7.627-.186 15.067 0 22.694.372 8.556 3.906 15.81 11.16 20.46 12.277 8 28.46 1.489 32.925-13.392.93-2.79 1.116-5.952 1.302-8.928.186-18.416 0-36.645 0-55.06 0-5.58 1.488-7.068 6.882-7.44q2.79-.28 5.58 0c5.209.372 6.697 2.046 6.697 7.068v29.39z"/><path fill="#706F6F" d="M71.317 210.202a18.7 18.7 0 0 1-1.674 6.511c-.93 2.046-2.046 3.72-3.72 5.208s-3.349 2.604-5.58 3.348c-2.233.744-4.837 1.303-7.813 1.303s-5.58-.559-7.999-1.675q-3.627-1.674-6.138-4.464c-1.674-1.86-2.976-4.278-3.906-7.068s-1.302-5.953-1.302-9.301v-3.906c0-3.348.372-6.511 1.302-9.301s2.232-5.208 3.906-7.068 3.72-3.534 6.138-4.464c2.419-.931 5.023-1.675 8.185-1.675 2.79 0 5.394.372 7.44 1.302 2.046.931 4.093 1.861 5.58 3.349 1.489 1.488 2.79 3.162 3.535 5.208.744 2.046 1.488 4.278 1.674 6.51h-8.184c-.187-1.488-.559-2.79-.93-4.092-.373-1.302-1.117-2.232-1.86-2.976-.745-.744-1.86-1.488-2.977-1.86s-2.604-.744-4.278-.744c-1.86 0-3.534.372-4.837 1.116s-2.604 1.674-3.534 3.162-1.674 2.976-2.046 5.022-.744 4.279-.744 6.697v3.906c0 2.418.186 4.464.558 6.511s1.116 3.534 1.86 5.022 2.046 2.418 3.349 3.162q1.953 1.116 5.022 1.116 2.79 0 4.464-.558c1.116-.372 2.232-1.116 2.976-1.86s1.488-1.86 1.86-2.976.744-2.604.93-4.093h8.743zM76.525 207.598c0-2.604.372-5.022 1.116-7.068s1.86-4.092 3.163-5.766 3.162-2.791 5.208-3.721 4.278-1.302 6.882-1.302 4.837.372 6.883 1.302 3.72 2.232 5.208 3.721 2.418 3.534 3.162 5.766 1.116 4.65 1.116 7.068v.744c0 2.605-.372 5.023-1.116 7.069s-1.86 4.092-3.162 5.766-3.162 2.79-5.208 3.72-4.278 1.303-6.883 1.303c-2.604 0-4.836-.372-6.882-1.303s-3.72-2.232-5.208-3.72-2.419-3.534-3.163-5.766-1.116-4.65-1.116-7.069zm7.813.744q0 2.512.558 4.465c.372 1.302.93 2.604 1.488 3.72s1.674 1.86 2.604 2.418 2.418.93 3.906.93 2.79-.372 3.72-.93 2.047-1.488 2.605-2.418 1.116-2.232 1.488-3.72q.558-2.232.558-4.465v-.744q0-2.232-.558-4.464c-.372-1.488-.93-2.604-1.488-3.72s-1.674-1.86-2.604-2.604-2.418-.93-3.907-.93-2.79.372-3.72.93-1.86 1.488-2.604 2.604-1.302 2.232-1.488 3.72-.558 2.976-.558 4.464zM134.561 197.554c-.558 0-1.116-.186-1.674-.186h-1.674c-1.86 0-3.535.372-4.651 1.116s-2.046 1.674-2.604 3.162v24.182h-7.998v-35.343h7.626l.186 3.907q1.395-2.233 3.348-3.349c1.303-.744 2.791-1.302 4.651-1.302.372 0 .93 0 1.488.186s.93.186 1.302.372zM154.65 226.386c-2.604 0-5.022-.372-7.068-1.303s-3.906-2.046-5.395-3.534-2.604-3.348-3.348-5.394q-1.116-3.069-1.116-6.697v-1.302c0-2.79.372-5.394 1.302-7.626a24.7 24.7 0 0 1 3.348-5.766c1.303-1.675 3.163-2.791 5.023-3.721s4.092-1.302 6.324-1.302c2.604 0 4.836.372 6.697 1.302s3.534 2.046 4.65 3.535c1.116 1.488 2.232 3.348 2.79 5.58s.93 4.464.93 7.068v3.349h-23.065c.186 1.302.372 2.604.93 3.72s1.116 2.232 1.86 2.976 1.674 1.488 2.79 2.046 2.418.744 3.72.744c2.046 0 3.72-.372 5.209-1.116a10.25 10.25 0 0 0 3.72-3.162l4.278 4.092c-.558.93-1.302 1.674-2.046 2.418s-1.86 1.488-2.976 2.046-2.418 1.117-3.72 1.489-3.163.558-4.837.558m-.93-30.32c-2.232 0-3.906.744-5.208 2.232s-2.232 3.72-2.604 6.324h15.067v-.558c0-1.116-.186-2.046-.558-2.976s-.744-1.86-1.302-2.604c-.559-.744-1.303-1.302-2.233-1.86s-1.86-.558-3.162-.558"/></g><defs><clipPath id="a"><path fill="#fff" d="M0 .789h200V226.83H0z"/></clipPath></defs></svg>