<svg xmlns="http://www.w3.org/2000/svg" width="200" height="231" fill="none"><g clip-path="url(#a)"><path fill="#4B90C1" d="M101.34 39.15v74.82l64.75 37.41V76.56z"/><path fill="#56C2E4" d="m195.7 168.49-29.46-16.95v1.83l-1.68.91 29.47 16.96-92.53 53.6v-34.06l-1.68.92-1.68-.92v34.05L5.45 171.4l29.47-16.95-1.53-.92v-1.98L3.92 168.49V61.6L33.4 78.55v-1.83l1.68-.92L5.6 58.7 98.14 5.26V39.3l1.68-.92 1.52.92V5.26l92.69 53.44-29.47 16.95 1.53.91v1.84l29.62-16.8zm1.69-111.62L101.34 1.44 99.82.52l-1.68.92L.72 57.78v114.68l97.57 56.19 1.53.91 1.68-.91 95.89-55.43 1.68-.76V57.78z"/><path fill="#2C4A8D" d="M101.34 113.97V39.15l-1.52-.91-1.68.91v74.82l-64.75 37.57v1.98l1.53.92 64.9-37.56 64.9 37.4 1.52-.91v-1.83z"/><path fill="#4568A3" d="M33.4 76.72v74.82l64.74-37.41V39.3z"/><path fill="#56C2E4" d="m99.82 116.88-64.9 37.4 64.9 37.42 64.9-37.41z"/></g><defs><clipPath id="a"><path fill="#fff" d="M0 .25h200v230H0z"/></clipPath></defs></svg>