<svg xmlns="http://www.w3.org/2000/svg" width="200" height="220" fill="none"><path fill="#EE2120" fill-rule="evenodd" d="M135.753 33.001h4.852l4.852.18 4.854.367 4.496.54 4.132.36 1.977.183 1.799.36 1.617.366 1.444.36 2.514.723-.536 8.322-.367 7.054v2.893l.184 1.448.183 1.445.536 2.175.539 1.984.535 1.814.541.721.364.904.717 1.268.898 1.083.9.723.717.909.903.54.535.362 1.26.544.363.176v1.088l.356 3.073.183 2.351.176 2.174v2.713l-.176 3.076-.364 3.979-.175 3.615-.541 3.074-.54 2.528-.541 2.178-.175 1.446-.359 1.262-4.498 1.63-3.054 1.09-3.595 1.44-1.979.906-1.792.908-4.32 2.173-4.315 2.528-2.159 1.446-2.515 1.627-1.796 1.27-1.621 1.446-1.615 1.446-1.623 1.625-1.612 1.454-1.442 1.801-1.433 1.63-1.267 1.627-1.258 1.809-1.074 1.814-.722 1.803-.541 1.088-.356.907-.537 1.985-.544 1.988-.354 1.985v4.345l.178 2.353.356 2.174.364 1.984.356 1.996.537 1.628.541 1.809.722 1.45-.722.351-1.078.551-1.436.537-.722.365h-1.076l-1.978.544h-1.257l-1.438.176h-2.701l-.898-.176h-1.077l-1.803-.544-1.973-.365-2.16-.899-.9-.36-.902-.363-1.973-1.094-1.977-1.443-1.978-1.268-1.798-1.622-1.799-1.634-1.796-1.809-1.619-1.815-1.617-1.984-1.62-2.167-.72-1.088-.714-1.083-1.443-2.356-1.617-3.072-1.614-3.261-2.882-6.153-2.695-6.149-1.255-2.888-1.439-2.536-1.437-2.521-.54-1.265-.904-1.088-1.434-1.811-.54-.902-.9-.907-.722-.718-.898-.726-.719-.365-1.076-.537-.719-.546-.9-.181H66.89l-.897-.174-.9.174h-1.62l-.895.181-.54.362-.718.365-.726.358-.535.186-1.076 1.08-1.078.907-.727 1.087-1.07.903-.723 1.084-.9.914-.895.894-.901.907-.536.369-.54.354-1.26.542-.536.182-.721.179h-2.338l-.901-.179h-.72l-.892-.363-.722-.363-.72-.541-1.437-1.088-.722-.539-.717-.724-.72-.546-.541-.724-1.076-1.624-.541-.902-.54-.906-.899-1.812-1.081-1.806-1.614-3.617-2.877-6.331-.361-.907-.719-.904-1.075-1.812-1.44-1.627-1.434-1.625-3.24-3.078-1.8-1.446-1.617-1.625-1.619-1.627-1.442-1.812-1.432-1.626-1.263-1.996-1.076-2.166-.54-1.265-.541-1.083-.356-1.273-.181-1.45-.36-1.446-.183-1.627h44.047V1.354H94.76v26.222l.714.543.72.544.902.544 1.26.542 1.255.359 1.619.544 1.435.361 1.803.358-4.677 20.981H86.665L82.17 70.988h13.489l-4.854 22.795-.717 3.436-.185 1.99-.356 2.167v4.343l.177 1.991.18.906.184.902.539 1.446.534 1.273.725 1.258.719 1.087.893 1.264.72.904 1.085.907 1.076.725.72.719 1.437.365 1.078.544 1.263.54 1.251.18 1.262.181 1.438.179h3.413l2.159-.179 1.978-.181 2.159-.359 3.771-.725 1.803-.544 1.436-.357 1.618-.544 1.438-.369 1.977-.72 1.98-.904 4.134-15.914-.538.182-.9.179h-1.974l-1.981.176-1.795.181h-.902l-.72-.181-.534-.176h-.181l-.18-.179-.18-.182-.361-.181-.179-.544-.356-.36-.182-.906-.181-.72.181-.545.182-1.816 5.569-24.234h13.126l4.312-18.634h-13.481zM110.4 40.423h16.179l-13.3 59.326H97.637zm11.147-22.794h1.083l.717.179.895.177.723.188.72.356.717.544.719.36.537.54 1.077 1.27.543.724.357.728.182.72.18 1.086.175.724v1.81l-.175.905-.18.723-.182.902-.357.725-.543.537-.355.909-.54.364-.541.724-.719.358-.718.366-.72.358-.718.184-.898.175-.896.184h-1.98l-.72-.184-.9-.175-.722-.184-.897-.358-.72-.366-.539-.358-.72-.54-.539-.548-.536-.722-.361-.724-.359-.54-.181-1.087-.356-.723-.178-.906v-1.809l.178-.724.356-.903.181-.724.359-.728.361-.9.721-.544.354-.538.72-.73.717-.36.722-.543.716-.357.903-.187.718-.178.897-.179h.722z" clip-rule="evenodd"/><path fill="#F11C0E" fill-rule="evenodd" d="m38.7 218.256-14.117-36.638h-9.777L.689 218.256h8.844l2.307-6.207h15.71l2.307 6.207zm-13.293-13.074H13.982l5.713-15.764zm56.413 13.074v-36.638H70.834l-8.899 22.905-8.898-22.905H42.106v36.638h7.8v-26.421l10.327 26.421h3.405l10.327-26.421v26.421zm20.434.659c8.843 0 14.666-4.944 14.666-12.689 0-7.415-5.548-11.865-11.755-11.865-3.351 0-6.317 1.319-8.075 3.076v-8.953h17.358v-6.866H89.29v20.983l5.438 1.483c2.198-2.087 4.67-2.966 7.691-2.966 4.174 0 6.591 2.197 6.591 5.438 0 2.966-2.472 5.438-6.811 5.438-3.845 0-7.25-1.428-9.723-4.01l-4.34 5.438c3.132 3.406 7.746 5.493 14.118 5.493m31.804-.659 13.623-31.2v-5.438h-27.52v6.866h18.456l-13.128 29.772zm33.672 0v-36.638h-6.811l-11.536 11.59 4.45 4.669 6.097-6.207v26.586zm31.31 0-9.448-13.623 8.843-12.908h-7.8l-5.438 8.129-5.493-8.129h-7.8l8.899 12.908-9.448 13.623h7.745l6.097-8.954 6.043 8.954z" clip-rule="evenodd"/></svg>