<svg xmlns="http://www.w3.org/2000/svg" width="200" height="194" fill="none"><path fill="#EE2120" fill-rule="evenodd" d="M150 38.68h5.75l5.74.21 5.74.43 5.32.64 4.9.43 2.33.22 2.13.42 1.91.44 1.71.42 2.98.86-.64 9.84-.43 8.35v3.43l.22 1.71.21 1.71.64 2.57.64 2.35.63 2.15.64.85.43 1.07.85 1.5 1.06 1.29 1.07.85.85 1.08 1.06.64.64.42 1.49.65.43.2v1.3l.42 3.63.22 2.78.2 2.58v3.2l-.2 3.65-.44 4.7-.2 4.28-.64 3.64-.64 3-.64 2.57-.2 1.71-.43 1.5-5.33 1.92-3.61 1.3-4.25 1.7-2.35 1.07-2.12 1.07-5.11 2.58-5.1 2.99-2.56 1.7-2.98 1.93-2.12 1.5-1.92 1.72-1.91 1.71-1.92 1.92-1.91 1.72-1.7 2.13-1.7 1.93-1.5 1.93-1.5 2.14-1.26 2.15-.86 2.13-.64 1.29-.42 1.07-.63 2.35-.65 2.35-.42 2.35v5.15l.21 2.78.42 2.57.44 2.35.42 2.36.63 1.93.64 2.14.86 1.72-.86.41-1.27.65-1.7.64-.86.43h-1.27l-2.34.64h-1.49l-1.7.21h-3.2l-1.06-.2h-1.27l-2.14-.65-2.33-.43-2.56-1.06-1.06-.43-1.07-.43-2.34-1.3-2.34-1.7-2.34-1.5-2.13-1.92-2.12-1.94-2.13-2.14-1.91-2.15-1.92-2.34-1.92-2.57-.85-1.29-.84-1.28-1.71-2.79-1.92-3.63-1.9-3.86-3.42-7.28-3.19-7.28-1.48-3.42-1.7-3-1.7-2.98-.64-1.5-1.07-1.29-1.7-2.14-.64-1.07-1.06-1.07-.86-.85-1.06-.86-.85-.43-1.28-.64-.85-.64-1.06-.22H68.5l-1.06-.2-1.07.2h-1.92l-1.05.22-.64.43-.85.43-.86.42-.64.22-1.27 1.28-1.27 1.07-.86 1.29-1.27 1.07-.86 1.28-1.06 1.08-1.06 1.06-1.07 1.07-.63.44-.64.42-1.5.64-.63.22-.85.2h-2.77l-1.06-.2h-.86l-1.05-.43-.85-.43-.86-.64-1.7-1.3-.85-.63-.85-.86-.85-.64-.64-.86-1.28-1.92-.64-1.07-.64-1.07-1.06-2.14-1.28-2.14-1.9-4.28-3.41-7.5-.43-1.07-.85-1.07-1.27-2.14-1.7-1.93-1.7-1.92-3.84-3.64-2.13-1.71-1.91-1.93-1.92-1.92-1.7-2.15-1.7-1.92-1.5-2.36-1.27-2.57-.64-1.5-.64-1.28-.42-1.5-.21-1.72L.64 77l-.22-1.93h52.13V1.23h48.94v31.03l.85.64.85.64 1.06.65 1.5.64 1.48.42 1.92.65 1.7.42 2.13.43-5.54 24.83H91.91l-5.32 22.05h15.96l-5.74 26.98-.85 4.06-.22 2.36-.42 2.56v5.14l.21 2.36.21 1.07.22 1.07.64 1.71.63 1.5.86 1.5.85 1.28 1.06 1.5.85 1.07 1.28 1.07 1.28.86.85.85 1.7.43 1.28.65 1.49.63 1.48.22 1.5.21 1.7.22h4.03l2.56-.22 2.34-.21 2.55-.43 4.47-.85 2.13-.65 1.7-.42 1.92-.64 1.7-.44 2.34-.85 2.34-1.07 4.9-18.84-.64.22-1.07.21h-2.34l-2.34.2-2.12.22h-1.07l-.85-.21-.64-.2h-.21l-.21-.22-.22-.22-.42-.21-.22-.64-.42-.43-.21-1.07-.22-.85.22-.65.21-2.15 6.6-28.68h15.53l5.1-22.05H144.9zm-30 8.78h19.15l-15.74 70.2H104.9zm13.2-26.98h1.27l.85.22 1.06.2.86.23.85.42.85.64.85.43.63.64 1.28 1.5.64.86.42.86.22.85.21 1.29.2.86v2.14l-.2 1.07-.21.85-.22 1.07-.42.86-.64.63-.42 1.08-.64.43-.64.86-.85.42-.85.43-.86.43-.84.22-1.07.2-1.06.22h-2.34l-.85-.22-1.07-.2-.85-.22-1.06-.43-.86-.43-.63-.42-.86-.64-.63-.65-.64-.85-.42-.86-.43-.64-.21-1.29-.43-.85-.2-1.07v-2.14l.2-.86.43-1.07.21-.86.43-.86.42-1.06.85-.65.42-.63.86-.87.85-.42.85-.65.85-.42 1.06-.22.86-.21 1.06-.21z" clip-rule="evenodd"/></svg>