<svg xmlns="http://www.w3.org/2000/svg" width="200" height="201" fill="none"><g clip-path="url(#a)"><path fill="#3AACE2" d="M199.5.37H.5v199h199z"/><path fill="#fff" d="M163.64 136.62 100 173.37l-63.64-36.75v-73.5L100 26.38l63.64 36.74z"/><path fill="#3AACE2" d="M46.53 109.84a16.4 16.4 0 0 0 11.97 4.84c5.29 0 8.32-3.03 8.32-6.72s-2.95-6.86-8.06-6.86a13 13 0 0 0-9.4 3.83l-6.67-1.95V77.39h30.69v8.21H52.13v11.24A15.3 15.3 0 0 1 62.22 93a13.96 13.96 0 0 1 14.38 14.47c0 9.47-7.13 15.34-17.95 15.34a22.4 22.4 0 0 1-17.26-6.71zM82.09 114.68c18.33-13.5 23.7-18.15 23.7-23.67 0-3.84-3.57-5.83-7.32-5.83a16 16 0 0 0-11.97 5.18l-5.45-6.33a23 23 0 0 1 17.26-7.33c9.55 0 17.15 5.37 17.15 14.3 0 7.68-6.33 14.32-18.34 22.8h18.68v8.4H82.1zM140.05 76.74c12.77 0 18.52 11.5 18.52 23.02 0 11.5-5.79 23.01-18.52 23.01s-18.53-11.5-18.53-23.01 5.56-23.02 18.53-23.02m0 8.48c-6.45 0-8.87 6.36-8.87 14.65s2.42 14.73 8.87 14.73 8.78-6.44 8.78-14.73-2.57-14.7-8.78-14.7z"/></g><defs><clipPath id="a"><path fill="#fff" d="M0 .3h200v200H0z"/></clipPath></defs></svg>