<svg xmlns="http://www.w3.org/2000/svg" width="200" height="201" fill="none"><g clip-path="url(#a)"><path fill="#3AACE2" d="M199.503.456H.498V199.46h199.005z"/><path fill="#fff" d="M163.637 136.706 100 173.453l-63.637-36.747V63.211L100 26.463l63.637 36.748z"/><path fill="#3AACE2" d="M46.528 109.931a16.37 16.37 0 0 0 11.968 4.834c5.293 0 8.324-3.031 8.324-6.713s-2.954-6.866-8.056-6.866a12.915 12.915 0 0 0-9.398 3.836l-6.674-1.957V77.48h30.687v8.209h-21.25v11.239a15.34 15.34 0 0 1 10.088-3.836A13.963 13.963 0 0 1 76.6 107.553c0 9.475-7.135 15.344-17.952 15.344a22.36 22.36 0 0 1-17.261-6.713zM82.087 114.765c18.335-13.503 23.705-18.144 23.705-23.668 0-3.836-3.567-5.83-7.326-5.83a16 16 0 0 0-11.968 5.178l-5.447-6.329a23.02 23.02 0 0 1 17.261-7.327c9.552 0 17.147 5.37 17.147 14.308 0 7.672-6.33 14.308-18.336 22.785h18.681v8.401H82.087zM140.046 76.828c12.774 0 18.528 11.507 18.528 23.015 0 11.507-5.793 23.015-18.528 23.015s-18.527-11.508-18.527-23.015 5.562-23.015 18.527-23.015m0 8.477c-6.444 0-8.861 6.367-8.861 14.653 0 8.285 2.417 14.73 8.861 14.73s8.784-6.445 8.784-14.73-2.57-14.691-8.784-14.691z"/></g><defs><clipPath id="a"><path fill="#fff" d="M0 .382h200v200H0z"/></clipPath></defs></svg>