<svg xmlns="http://www.w3.org/2000/svg" width="200" height="201" fill="none"><g clip-path="url(#a)"><path fill="#3AACE2" d="M199.503.697H.498v199.005h199.005z"/><path fill="#fff" d="M163.637 136.948 100 173.695l-63.637-36.747V63.452L100 26.705l63.637 36.747z"/><path fill="#3AACE2" d="M46.528 110.173a16.38 16.38 0 0 0 11.968 4.833c5.293 0 8.324-3.03 8.324-6.712s-2.954-6.867-8.056-6.867a12.95 12.95 0 0 0-5.091.957 12.95 12.95 0 0 0-4.307 2.879l-6.674-1.956V77.722h30.687v8.208h-21.25v11.24a15.34 15.34 0 0 1 10.088-3.836A13.963 13.963 0 0 1 76.6 107.795c0 9.475-7.135 15.343-17.952 15.343a22.36 22.36 0 0 1-17.261-6.712zM82.087 115.006c18.335-13.502 23.705-18.143 23.705-23.667 0-3.836-3.567-5.83-7.326-5.83a16 16 0 0 0-11.968 5.178l-5.447-6.33a23.02 23.02 0 0 1 17.261-7.326c9.552 0 17.147 5.37 17.147 14.308 0 7.672-6.33 14.308-18.336 22.785h18.681v8.401H82.087zM140.046 77.07c12.774 0 18.528 11.507 18.528 23.015 0 11.507-5.793 23.015-18.528 23.015s-18.527-11.508-18.527-23.015 5.562-23.016 18.527-23.016m0 8.477c-6.444 0-8.861 6.367-8.861 14.653 0 8.285 2.417 14.729 8.861 14.729s8.784-6.444 8.784-14.729-2.57-14.692-8.784-14.692z"/></g><defs><clipPath id="a"><path fill="#fff" d="M0 .624h200v200H0z"/></clipPath></defs></svg>