<svg xmlns="http://www.w3.org/2000/svg" width="200" height="200" fill="none"><path fill="#44C144" d="M.59 1.06v139.175c69.244 34.279 154.257 13.026 198.821-52.105V1.06zm50.048 75.415c-5.485 0-9.598-4.114-9.598-9.598s4.799-10.284 10.283-10.284c5.485 0 10.284 4.799 10.284 10.284-.685 5.484-4.799 9.598-10.97 9.598m98.725 0c-5.485 0-10.284-4.8-10.284-10.284s4.799-10.284 10.284-10.284c5.484 0 10.283 4.8 10.283 10.284-.685 6.17-4.799 10.284-10.283 10.284"/><path fill="#44C144" d="M.59 169.715v28.795H199.41v-71.987C125.367 206.737 31.441 179.999.59 169.715"/></svg>