<svg xmlns="http://www.w3.org/2000/svg" width="200" height="200" fill="none"><g fill="#44C144" clip-path="url(#a)"><path d="M.59 1.73v139.18A156.7 156.7 0 0 0 199.41 88.8V1.73zm50.05 75.42a9.37 9.37 0 0 1-9.6-9.6c0-5.49 4.8-10.29 10.28-10.29 5.49 0 10.29 4.8 10.29 10.29-.69 5.48-4.8 9.6-10.97 9.6m98.72 0c-5.48 0-10.28-4.8-10.28-10.29s4.8-10.28 10.28-10.28c5.49 0 10.29 4.8 10.29 10.28-.69 6.17-4.8 10.29-10.29 10.29"/><path d="M.59 170.39v28.79h198.82v-71.99C125.37 207.41 31.44 180.67.59 170.4"/></g><defs><clipPath id="a"><path fill="#fff" d="M0 .83h200v198.93H0z"/></clipPath></defs></svg>