<svg xmlns="http://www.w3.org/2000/svg" width="200" height="200" fill="none"><g fill="#44C144" clip-path="url(#a)"><path d="M.59 1.818v139.175c69.244 34.279 154.257 13.026 198.821-52.105V1.818zm50.048 75.415c-5.485 0-9.598-4.113-9.598-9.598S45.839 57.35 51.323 57.35c5.485 0 10.284 4.8 10.284 10.284-.685 5.485-4.799 9.598-10.97 9.598m98.725 0c-5.485 0-10.284-4.799-10.284-10.284 0-5.484 4.799-10.283 10.284-10.283 5.484 0 10.283 4.799 10.283 10.283-.685 6.17-4.799 10.284-10.283 10.284"/><path d="M.59 170.473v28.795H199.41v-71.987C125.367 207.495 31.441 180.757.59 170.473"/></g><defs><clipPath id="a"><path fill="#fff" d="M0 .917h200v198.93H0z"/></clipPath></defs></svg>