<svg xmlns="http://www.w3.org/2000/svg" width="200" height="42" fill="none"><g clip-path="url(#a)"><path fill="#004280" d="M199.503.78H.498v40.464h199.005z"/><path fill="#fff" d="M45.44 14.046v21.227h4.643c7.297 0 11.609-4.478 11.609-10.448s-3.98-10.78-12.604-10.78zm4.643 16.915v-12.77c4.643-.33 6.8 2.986 6.8 6.8 0 3.483-2.157 6.302-6.8 5.97M109.95 14.047h-4.809V25.82L92.04 13.715v21.559h4.81V24.163l13.1 12.106zM112.106 18.192h5.805v17.081h5.141V18.192h5.804v-4.146h-16.75zM130.68 35.273V14.046h12.604v3.98h-7.795v4.643h6.966v3.98h-6.966v4.644h7.795v3.98zM176.617 14.046v8.623h-8.292v-8.623h-4.809v21.227h4.809V26.65h8.292v8.624h4.81V14.046zM59.37 14.046l10.78 21.89 2.653-5.638-7.96-16.252zM81.095 13.383l-2.653 5.472 2.155 5.639h-4.975l-1.658 3.483h7.96l3.151 7.296h5.473zM144.279 24.66c0 6.963 5.307 10.779 11.774 10.779 2.488 0 3.98-.664 4.975-1.329v-4.975c-.995 1.329-2.985 2.158-4.975 2.158-3.814 0-6.965-2.655-6.965-6.801s3.484-6.634 6.965-6.634c1.99 0 3.98.83 4.975 2.156v-4.642c-.829-.829-2.487-1.492-5.141-1.492-6.467 0-11.608 4.643-11.608 10.78M28.856 26.981l2.985-7.462 2.985 7.462zm15.423 8.292L32.007 8.74 19.735 35.273h5.97l1.658-4.477h8.79l1.824 4.477z"/></g><defs><clipPath id="a"><path fill="#fff" d="M0 .755h200v41H0z"/></clipPath></defs></svg>