<svg xmlns="http://www.w3.org/2000/svg" width="200" height="42" fill="none"><g clip-path="url(#a)"><path fill="#004280" d="M199.5.78H.5v40.46h199z"/><path fill="#fff" d="M45.44 14.05v21.22h4.64c7.3 0 11.61-4.47 11.61-10.44s-3.98-10.78-12.6-10.78zm4.64 16.91V18.2c4.65-.33 6.8 2.99 6.8 6.8 0 3.48-2.15 6.3-6.8 5.97M109.95 14.05h-4.8v11.77l-13.11-12.1v21.55h4.8v-11.1l13.11 12.1zM112.1 18.2h5.81v17.07h5.14V18.2h5.8v-4.14h-16.74zM130.68 35.27V14.05h12.6v3.98h-7.8v4.64h6.98v3.98h-6.97v4.64h7.8v3.98zM176.62 14.05v8.62h-8.3v-8.62h-4.8v21.22h4.8v-8.62h8.3v8.62h4.8V14.05zM59.37 14.05l10.78 21.89 2.65-5.64-7.96-16.25zM81.1 13.38l-2.66 5.48 2.16 5.63h-4.98l-1.66 3.49h7.96l3.16 7.3h5.47zM144.28 24.66c0 6.96 5.3 10.78 11.77 10.78 2.5 0 3.98-.66 4.98-1.33v-4.97c-1 1.32-2.99 2.15-4.98 2.15-3.81 0-6.96-2.65-6.96-6.8 0-4.14 3.48-6.63 6.96-6.63 2 0 3.98.83 4.98 2.15v-4.64c-.83-.83-2.49-1.49-5.14-1.49-6.47 0-11.61 4.64-11.61 10.78M28.86 26.98l2.98-7.46 2.99 7.46zm15.42 8.3L32 8.73 19.73 35.27h5.97l1.66-4.47h8.8l1.82 4.47z"/></g><defs><clipPath id="a"><path fill="#fff" d="M0 .75h200v41H0z"/></clipPath></defs></svg>