<svg xmlns="http://www.w3.org/2000/svg" width="200" height="134" fill="none"><g fill="#77B900" clip-path="url(#a)"><path d="M21.313 57.478S39.41 30.908 75.22 28.213v-9.626C35.175 22.052.905 55.553.905 55.553s19.638 56.603 74.316 61.609v-10.396C34.79 101.76 21.313 57.478 21.313 57.478"/><path d="M75.221 86.742v9.242c-30.42-5.391-38.89-36.966-38.89-36.966S50.962 42.845 75.22 40.15v10.397c-12.707-1.54-22.718 10.396-22.718 10.396s5.39 20.023 22.718 25.8"/><path d="M75.222.874v17.713c1.155 0 2.31 0 3.465-.385 45.437-1.54 74.702 36.965 74.702 36.965s-33.886 41.587-69.311 41.587c-3.08 0-6.161-.385-9.242-.77v11.166c2.31.386 5.006.386 7.702.386 32.73 0 56.603-16.943 79.707-36.581 3.851 3.08 19.253 10.397 22.718 13.862-21.948 18.483-72.776 33.115-101.655 33.115-2.696 0-5.391 0-8.087-.385v15.403h124.76V.874z"/><path d="M75.221 40.15V28.213h3.466c32.73-1.155 53.908 28.11 53.908 28.11s-23.103 31.96-47.747 31.96c-3.466 0-6.931-.386-9.627-1.54V50.546c12.707 1.54 15.403 7.316 22.719 19.638l16.943-14.248s-12.322-16.172-33.115-16.172c-2.31 0-4.621.385-6.547.385"/></g><defs><clipPath id="a"><path fill="#fff" d="M0 .555h200v132.653H0z"/></clipPath></defs></svg>