<svg xmlns="http://www.w3.org/2000/svg" width="200" height="134" fill="none"><g fill="#77B900" clip-path="url(#a)"><path d="M21.31 57.89s18.1-26.57 53.91-29.26V19C35.18 22.46.9 55.96.9 55.96s19.64 56.6 74.32 61.61v-10.4c-40.43-5-53.9-49.28-53.9-49.28"/><path d="M75.22 87.15v9.25C44.8 91 36.33 59.43 36.33 59.43s14.63-16.17 38.9-18.87v10.4C62.5 49.42 52.5 61.36 52.5 61.36s5.4 20.02 22.72 25.8"/><path d="M75.22 1.29v17.7c1.16 0 2.31 0 3.47-.38 45.43-1.54 74.7 36.97 74.7 36.97S119.5 97.17 84.08 97.17c-3.08 0-6.16-.39-9.24-.77v11.16c2.3.39 5 .39 7.7.39 32.73 0 56.6-16.95 79.7-36.58 3.86 3.08 19.26 10.4 22.72 13.86-21.95 18.48-72.77 33.11-101.65 33.11-2.7 0-5.4 0-8.09-.38v15.4h124.76V1.3z"/><path d="M75.22 40.56V28.63h3.47c32.73-1.16 53.9 28.1 53.9 28.1S109.5 88.7 84.85 88.7c-3.47 0-6.93-.38-9.63-1.54v-36.2c12.7 1.55 15.4 7.32 22.72 19.65l16.94-14.25s-12.32-16.17-33.11-16.17c-2.31 0-4.62.38-6.55.38"/></g><defs><clipPath id="a"><path fill="#fff" d="M0 .97h200v132.65H0z"/></clipPath></defs></svg>