<svg xmlns="http://www.w3.org/2000/svg" width="200" height="187" fill="none"><path fill="#44C144" d="M1.032 1.458v130.019c68.92 32.074 153.644 12.244 197.936-48.628V1.458zm49.806 70.528c-5.514 0-9.557-3.794-9.557-8.967 0-5.174 4.778-9.657 10.292-9.657 5.513 0 10.292 4.483 10.292 9.657-.736 5-4.779 8.967-11.027 8.967m98.324 0c-5.513 0-10.291-4.484-10.291-9.657s4.778-9.657 10.291-9.657 10.292 4.484 10.292 9.657c-.735 5.69-4.778 9.657-10.292 9.657"/><path fill="#44C144" d="M1.032 159.068v26.9h197.936v-67.251C125.27 193.556 31.724 168.552 1.032 159.068"/></svg>