<svg xmlns="http://www.w3.org/2000/svg" width="200" height="187" fill="none"><g fill="#44C144" clip-path="url(#a)"><path d="M1.032 1.7v130.019c68.92 32.074 153.644 12.243 197.936-48.628V1.7zm49.806 70.527c-5.514 0-9.557-3.794-9.557-8.967s4.778-9.656 10.292-9.656c5.513 0 10.292 4.483 10.292 9.656-.736 5.001-4.779 8.967-11.027 8.967m98.324 0c-5.513 0-10.291-4.483-10.291-9.657 0-5.173 4.778-9.656 10.291-9.656s10.292 4.483 10.292 9.657c-.735 5.69-4.778 9.656-10.292 9.656"/><path d="M1.032 159.309v26.901h197.936v-67.252C125.27 193.797 31.724 168.794 1.032 159.309"/></g><defs><clipPath id="a"><path fill="#fff" d="M0 .688h200v185.87H0z"/></clipPath></defs></svg>