<svg xmlns="http://www.w3.org/2000/svg" width="200" height="153" fill="none"><g clip-path="url(#a)"><path fill="#008DD2" d="M184.53 1.17H15.33C7.1 1.17.44 9.48.44 19.74V133.6c0 10.25 6.66 18.56 14.87 18.56h169.2c8.22 0 14.88-8.3 14.88-18.56V19.74c0-10.26-6.66-18.57-14.87-18.57"/><path fill="#FEFEFE" fill-rule="evenodd" d="M22.7 75.68v.57c0 5.8.06 9.13 1.03 15 1.75 10.6 5.2 18.69 12.29 26.26l5 4.64 8 4.85a45 45 0 0 0 12.27 3.8c2.51.42 9.36 1.12 11.74.56v-17.13h-3.48c-13.24 0-22.4-10.51-24.96-22.42-3.3-15.3-2.4-37.62 12.13-46.9 5.88-3.77 9.75-3.77 16.31-3.77V23.48c-11.66 0-21.55 2.25-30.09 8.18a41 41 0 0 0-6.92 5.94c-2.4 2.4-3.8 4.26-5.6 7.24-5.28 8.75-7.72 19.6-7.72 30.84" clip-rule="evenodd"/><path fill="#FEFEFE" d="M83.43 23.48h84q1.02-.02 1.7.6.67.61 1.1 1.92.43 1.34.6 3.53.14 2.22.15 5.27 0 5.74-.93 8.5-.9 2.76-2.77 2.75h-10.91q-.6 14.44-.64 24.63-.05 10.21.38 17.08.43 6.9 1.18 10.91.78 4.05 1.82 6.13 1.07 2.1 2.37 2.71t2.65.6q2.03-.01 4.45-.86 2.41-.9 3.09-.9c.35 0 .64.15.9.37q.35.4.66 1.43.3 1.06.46 3.01.18 1.9.18 5.12 0 4.84-.44 7.37-.41 2.53-1.12 3.42a8 8 0 0 1-1.91 1.58q-1.16.75-2.89 1.32-1.68.62-3.84 1.02c-1.41.26-2.94.37-4.5.37q-4.73.01-8.64-1.17a14.6 14.6 0 0 1-6.87-4.5c-2-2.23-3.67-5.35-5-9.26q-1.97-5.92-3-15.39c-.66-6.32-.98-13.95-.95-22.98q.04-13.5 1.21-32.01H83.4z"/><path fill="#FEFEFE" d="M114.44 50.84q.16 16.19-.47 28.47-.66 12.27-1.75 21.32a164 164 0 0 1-2.46 15.29q-1.37 6.23-2.05 8.33a56 56 0 0 1-1.13 3.25 9 9 0 0 1-.86 1.7q-.38.59-1.14 1a6 6 0 0 1-1.83.7q-1.08.25-2.74.35-1.64.1-3.93.11-3.42 0-5.43-.22-2.02-.22-3.18-.61-1.14-.43-1.52-1.08c-.28-.44-.42-.9-.42-1.48q0-1.03.5-2.81.45-1.72 1.33-4.59a174 174 0 0 0 4.87-24.49q1.16-8.61 1.8-19.8.64-11.15.64-25.44z"/></g><defs><clipPath id="a"><path fill="#fff" d="M0 .68h200v152H0z"/></clipPath></defs></svg>