<svg xmlns="http://www.w3.org/2000/svg" width="200" height="153" fill="none"><g clip-path="url(#a)"><path fill="#008DD2" d="M184.525 1.172H15.322C7.108 1.172.45 9.483.45 19.736v113.862c0 10.253 6.659 18.564 14.873 18.564h169.203c8.214 0 14.873-8.311 14.873-18.564V19.736c0-10.253-6.659-18.564-14.873-18.564"/><path fill="#FEFEFE" fill-rule="evenodd" d="M22.704 75.678v.57c.002 5.81.06 9.128 1.03 14.998 1.75 10.599 5.205 18.691 12.286 26.263l5 4.637 7.992 4.859c4.312 1.936 7.211 2.914 12.275 3.787 2.517.433 9.363 1.124 11.746.569v-17.133h-3.48c-13.245 0-22.4-10.511-24.968-22.417-3.299-15.3-2.395-37.625 12.13-46.906 5.887-3.762 9.757-3.76 16.317-3.76v-17.67c-11.665 0-21.547 2.258-30.092 8.19-3.163 2.196-4.306 3.321-6.918 5.932-2.398 2.397-3.808 4.264-5.605 7.245-5.275 8.748-7.713 19.6-7.713 30.836" clip-rule="evenodd"/><path fill="#FEFEFE" d="M83.426 23.475h84c.693 0 1.241.189 1.703.602.462.414.809 1.054 1.097 1.918.289.903.492 2.07.607 3.537.087 1.467.144 3.234.144 5.266 0 3.837-.289 6.658-.924 8.502-.606 1.843-1.53 2.745-2.772 2.745h-10.915c-.404 9.63-.606 17.83-.635 24.639s.087 12.49.375 17.079c.289 4.588.693 8.238 1.184 10.908.52 2.708 1.127 4.74 1.819 6.132.722 1.392 1.502 2.294 2.368 2.709a6.1 6.1 0 0 0 2.657.601c1.357 0 2.829-.301 4.447-.865 1.617-.602 2.627-.903 3.089-.903.347 0 .636.151.895.377.232.263.462.751.665 1.429.202.715.346 1.692.461 3.009.116 1.279.174 2.972.174 5.116 0 3.235-.145 5.68-.433 7.373-.26 1.693-.665 2.822-1.127 3.423a7.6 7.6 0 0 1-1.905 1.58c-.78.489-1.733.94-2.888 1.317-1.126.413-2.397.752-3.841 1.016-1.414.263-2.945.375-4.504.375-3.147 0-6.035-.375-8.634-1.165-2.57-.753-4.88-2.257-6.872-4.514-1.993-2.22-3.667-5.343-4.996-9.254-1.328-3.95-2.31-9.066-3.003-15.386-.664-6.32-.981-13.955-.953-22.983.029-8.991.433-19.675 1.213-32.013H83.397z"/><path fill="#FEFEFE" d="M114.44 50.843c.111 10.786-.055 20.273-.471 28.462q-.664 12.284-1.744 21.32c-.72 6.025-1.551 11.111-2.464 15.295-.914 4.149-1.607 6.926-2.05 8.333-.471 1.444-.831 2.49-1.135 3.247-.305.758-.582 1.299-.859 1.696-.249.397-.637.722-1.135 1.01-.471.289-1.08.505-1.828.686-.719.179-1.633.288-2.741.36s-2.41.108-3.932.108c-2.27 0-4.098-.072-5.428-.216-1.357-.144-2.409-.361-3.185-.614-.747-.288-1.273-.649-1.522-1.082-.277-.433-.416-.901-.416-1.478q0-1.029.499-2.814c.305-1.155.747-2.67 1.329-4.582.554-1.912 1.33-5.05 2.298-9.379.97-4.329 1.828-9.379 2.576-15.115.775-5.736 1.356-12.338 1.8-19.805.415-7.431.636-15.909.636-25.432z"/></g><defs><clipPath id="a"><path fill="#fff" d="M0 .68h200v152H0z"/></clipPath></defs></svg>