<svg xmlns="http://www.w3.org/2000/svg" width="200" height="117" fill="none"><g fill="#0091BD" clip-path="url(#a)"><path d="M45.128 2.863h13.436v57.59H45.128v-6a22.05 22.05 0 0 1-17.23 7.743C10.153 62.196 0 47.426 0 31.426c0-18.563 12.82-30.05 28.205-30.05A20.77 20.77 0 0 1 45.282 9.58zM13.795 31.94c0 9.897 6.256 18.358 15.949 18.358A16.46 16.46 0 0 0 46.05 32.146c0-12.616-7.743-18.616-16.307-18.616-9.693-.102-15.95 8.205-15.95 18.41M74.359 2.863h13.436V7.99a23.5 23.5 0 0 1 5.59-4.82 15.1 15.1 0 0 1 8.205-1.95 19.9 19.9 0 0 1 10.564 2.719l-5.487 12.153A11.95 11.95 0 0 0 100 14.145a10.51 10.51 0 0 0-8.359 3.128 18.3 18.3 0 0 0-3.744 13.23v29.95H74.36zm46.41 0h13.436V7.99a17.54 17.54 0 0 1 14.205-6.82 16.87 16.87 0 0 1 14.872 8.41 20.52 20.52 0 0 1 17.077-8.41 18.41 18.41 0 0 1 16.41 9.025 28.7 28.7 0 0 1 3.026 14.564V60.3h-13.231V28.913a24.4 24.4 0 0 0-1.282-10.257 7.586 7.586 0 0 0-7.692-5.128 9.95 9.95 0 0 0-7.949 4.205 23.07 23.07 0 0 0-2.615 13.129v29.743H153.59V28.914a24.4 24.4 0 0 0-1.282-10.257 7.59 7.59 0 0 0-7.693-5.128 9.95 9.95 0 0 0-7.948 4.205 23.1 23.1 0 0 0-2.616 13.129v29.743h-13.077zM73.744 115.837 61.539 78.299h8.718l5.128 17.795c.615 2.154 1.128 4.205 1.692 6.051s1.077 3.949 1.692 6.103h.308c.667-2.154 1.23-4.206 1.692-6.103s1.026-3.897 1.59-6.051l5.128-17.795h8.308L83.59 115.837zM119.128 116.709a21 21 0 0 1-6.359-.923 15.4 15.4 0 0 1-5.128-2.513 12.6 12.6 0 0 1-3.282-3.948 10.7 10.7 0 0 1-1.18-5.129 10.26 10.26 0 0 1 2.257-6.82 18.4 18.4 0 0 1 5.487-4.36v-.307a18.6 18.6 0 0 1-4.41-4.564 10.87 10.87 0 0 1-1.385-6.205 12.15 12.15 0 0 1 1.077-5.128 10.6 10.6 0 0 1 3.026-4 13.3 13.3 0 0 1 4.615-2.513 19.4 19.4 0 0 1 5.846-.872 17 17 0 0 1 5.693.923 12.2 12.2 0 0 1 4.359 2.513 11.1 11.1 0 0 1 2.82 3.949 12.7 12.7 0 0 1 .974 5.128 9.65 9.65 0 0 1-1.794 5.846 15.05 15.05 0 0 1-4.154 4.103v.307a18.1 18.1 0 0 1 5.589 4.616 11.07 11.07 0 0 1 2.308 7.282 10.8 10.8 0 0 1-1.128 5.128 12.3 12.3 0 0 1-3.282 4 17 17 0 0 1-5.128 2.667 21 21 0 0 1-6.821.82m0-7.333a6.87 6.87 0 0 0 4.41-1.385 5.12 5.12 0 0 0 2.103-4.307 4.67 4.67 0 0 0-.667-2.565 7 7 0 0 0-1.948-1.948 17.3 17.3 0 0 0-3.077-1.693l-3.898-1.743a13 13 0 0 0-2.513 3.282 8.4 8.4 0 0 0-1.025 3.949 5.746 5.746 0 0 0 2.102 4.718 7.55 7.55 0 0 0 4.718 1.692zM122 89.324a9.95 9.95 0 0 0 2.82-6.666 6.05 6.05 0 0 0-1.487-4.257 5.743 5.743 0 0 0-7.641-.358 5.12 5.12 0 0 0-1.538 3.948 5.12 5.12 0 0 0 2.154 4.41A26.5 26.5 0 0 0 122 89.326"/></g><defs><clipPath id="a"><path fill="#fff" d="M0 .86h200v115.898H0z"/></clipPath></defs></svg>