<svg xmlns="http://www.w3.org/2000/svg" width="200" height="117" fill="none"><g fill="#0091BD" clip-path="url(#a)"><path d="M45.13 2.55h13.43v57.59H45.13v-6a22 22 0 0 1-17.23 7.74C10.15 61.88 0 47.11 0 31.11 0 12.55 12.82 1.06 28.2 1.06a20.8 20.8 0 0 1 17.08 8.2zM13.79 31.63c0 9.9 6.26 18.36 15.95 18.36a16.46 16.46 0 0 0 16.31-18.16c0-12.61-7.74-18.61-16.3-18.61-9.7-.1-15.96 8.2-15.96 18.4M74.36 2.55h13.43v5.13q2.42-2.86 5.6-4.82c2.49-1.42 5.33-2.1 8.2-1.95 3.7-.1 7.36.84 10.56 2.72l-5.48 12.15a12 12 0 0 0-6.67-1.95 10.5 10.5 0 0 0-8.36 3.13 18.3 18.3 0 0 0-3.74 13.23v29.95H74.36zm46.4 0h13.45v5.13A17.5 17.5 0 0 1 148.4.86a16.9 16.9 0 0 1 14.87 8.4 20.5 20.5 0 0 1 17.08-8.4 18.4 18.4 0 0 1 16.4 9.02 29 29 0 0 1 3.03 14.57v35.54h-13.23V28.6c.31-3.47-.12-6.97-1.28-10.26a7.6 7.6 0 0 0-7.69-5.12 10 10 0 0 0-7.95 4.2 23 23 0 0 0-2.61 13.13v29.74h-13.44V28.6c.31-3.47-.13-6.97-1.28-10.26a7.6 7.6 0 0 0-7.7-5.12 10 10 0 0 0-7.94 4.2 23 23 0 0 0-2.62 13.13v29.74h-13.08zM73.74 115.52 61.54 78h8.72l5.12 17.79c.62 2.15 1.13 4.2 1.7 6.05.56 1.85 1.07 3.95 1.69 6.1h.3q1-3.24 1.7-6.1c.46-1.9 1.03-3.9 1.59-6.05l5.13-17.8h8.3l-12.2 37.54zM119.13 116.4q-3.25.02-6.36-.93a15 15 0 0 1-5.13-2.51 13 13 0 0 1-3.28-3.95 10.7 10.7 0 0 1-1.18-5.13c-.1-2.47.7-4.89 2.26-6.82 1.53-1.79 3.4-3.27 5.48-4.36v-.3a19 19 0 0 1-4.4-4.57 11 11 0 0 1-1.4-6.2c-.01-1.77.36-3.52 1.08-5.13a10.6 10.6 0 0 1 3.03-4 13 13 0 0 1 4.62-2.51q2.85-.9 5.84-.88 2.92-.02 5.7.93c1.6.52 3.1 1.38 4.35 2.5a11 11 0 0 1 2.82 3.96c.68 1.62 1.01 3.37.98 5.13a9.7 9.7 0 0 1-1.8 5.84 15 15 0 0 1-4.15 4.1v.31a18 18 0 0 1 5.59 4.62 11 11 0 0 1 2.3 7.28c.06 1.78-.33 3.54-1.12 5.13a12 12 0 0 1-3.28 4 17 17 0 0 1-5.13 2.67c-2.21.64-4.52.92-6.82.82m0-7.34a7 7 0 0 0 4.4-1.38 5.1 5.1 0 0 0 2.11-4.31c.03-.9-.2-1.8-.67-2.56a7 7 0 0 0-1.94-1.95q-1.46-1-3.08-1.7l-3.9-1.74q-1.51 1.44-2.51 3.28a8.4 8.4 0 0 0-1.03 3.95 5.7 5.7 0 0 0 2.1 4.72 7.5 7.5 0 0 0 4.72 1.7zM122 89.01a10 10 0 0 0 2.82-6.67 6 6 0 0 0-1.49-4.25 5.74 5.74 0 0 0-7.64-.36 5.1 5.1 0 0 0-1.54 3.95 5.1 5.1 0 0 0 2.16 4.4 27 27 0 0 0 5.69 2.93"/></g><defs><clipPath id="a"><path fill="#fff" d="M0 .55h200v115.9H0z"/></clipPath></defs></svg>