<svg xmlns="http://www.w3.org/2000/svg" width="200" height="117" fill="none"><g fill="#0091BD" clip-path="url(#a)"><path d="M45.128 2.379h13.436v57.59H45.128v-6a22.05 22.05 0 0 1-17.23 7.743C10.153 61.712 0 46.942 0 30.942 0 12.38 12.82.893 28.205.893a20.77 20.77 0 0 1 17.077 8.205zM13.795 31.456c0 9.897 6.256 18.359 15.949 18.359A16.463 16.463 0 0 0 46.05 31.66c0-12.616-7.743-18.616-16.307-18.616-9.693-.102-15.95 8.206-15.95 18.41M74.359 2.379h13.436v5.128a23.5 23.5 0 0 1 5.59-4.82 15.1 15.1 0 0 1 8.205-1.95 19.9 19.9 0 0 1 10.564 2.719l-5.487 12.154A11.95 11.95 0 0 0 100 13.66a10.51 10.51 0 0 0-8.359 3.129 18.3 18.3 0 0 0-3.744 13.23v29.95H74.36zm46.41 0h13.436v5.128A17.54 17.54 0 0 1 148.41.687a16.87 16.87 0 0 1 14.872 8.41 20.51 20.51 0 0 1 17.077-8.41 18.41 18.41 0 0 1 16.41 9.025 28.7 28.7 0 0 1 3.026 14.564v35.539h-13.231V28.43a24.4 24.4 0 0 0-1.282-10.256 7.59 7.59 0 0 0-7.692-5.129 9.95 9.95 0 0 0-7.949 4.206 23.07 23.07 0 0 0-2.615 13.128v29.743H153.59V28.43a24.4 24.4 0 0 0-1.282-10.256 7.594 7.594 0 0 0-7.693-5.129 9.95 9.95 0 0 0-7.948 4.206 23.1 23.1 0 0 0-2.616 13.128v29.743h-13.077zM73.744 115.353 61.539 77.815h8.718l5.128 17.795c.615 2.154 1.128 4.205 1.692 6.051s1.077 3.949 1.692 6.103h.308a103 103 0 0 0 1.692-6.103c.462-1.897 1.026-3.897 1.59-6.051l5.128-17.795h8.308L83.59 115.353zM119.128 116.225a21 21 0 0 1-6.359-.923 15.4 15.4 0 0 1-5.128-2.513 12.6 12.6 0 0 1-3.282-3.948 10.7 10.7 0 0 1-1.18-5.129 10.26 10.26 0 0 1 2.257-6.82 18.4 18.4 0 0 1 5.487-4.359v-.308a18.6 18.6 0 0 1-4.41-4.564 10.87 10.87 0 0 1-1.385-6.205 12.15 12.15 0 0 1 1.077-5.128 10.6 10.6 0 0 1 3.026-4 13.3 13.3 0 0 1 4.615-2.513 19.4 19.4 0 0 1 5.846-.872 17 17 0 0 1 5.693.923 12.2 12.2 0 0 1 4.359 2.513 11.1 11.1 0 0 1 2.82 3.949 12.7 12.7 0 0 1 .974 5.128 9.65 9.65 0 0 1-1.794 5.846 15.05 15.05 0 0 1-4.154 4.103v.307a18.1 18.1 0 0 1 5.589 4.616 11.07 11.07 0 0 1 2.308 7.282 10.8 10.8 0 0 1-1.128 5.128 12.25 12.25 0 0 1-3.282 4 17 17 0 0 1-5.128 2.667 21 21 0 0 1-6.821.82m0-7.333a6.87 6.87 0 0 0 4.41-1.385 5.12 5.12 0 0 0 2.103-4.307 4.66 4.66 0 0 0-.667-2.564 7 7 0 0 0-1.948-1.95 17.3 17.3 0 0 0-3.077-1.692l-3.898-1.743a13 13 0 0 0-2.513 3.282 8.4 8.4 0 0 0-1.025 3.949 5.746 5.746 0 0 0 2.102 4.718 7.55 7.55 0 0 0 4.718 1.692zM122 88.841a9.95 9.95 0 0 0 2.82-6.667 6.05 6.05 0 0 0-1.487-4.256 5.744 5.744 0 0 0-7.641-.36 5.12 5.12 0 0 0-1.538 3.95 5.12 5.12 0 0 0 2.154 4.41A26.5 26.5 0 0 0 122 88.84"/></g><defs><clipPath id="a"><path fill="#fff" d="M0 .377h200v115.897H0z"/></clipPath></defs></svg>