<svg xmlns="http://www.w3.org/2000/svg" width="200" height="201" fill="none"><g clip-path="url(#a)"><path fill="#3AACE2" d="M199.503.456H.498V199.46h199.005z"/><path fill="#fff" d="M163.637 136.706 100 173.453l-63.637-36.747V63.211L100 26.463l63.637 36.748z"/><path fill="#3AACE2" d="M68.239 84.231H43.037v-9.36H80.63v7.442L61.87 124.891H50.364zM97.315 88.68l-8.247 8.478-6.1-6.483 15.766-15.842h9.168v49.866h-10.74zM136.249 74.105c14.27 0 20.714 12.888 20.714 25.815s-6.444 25.892-20.714 25.892-20.675-12.965-20.675-25.892 6.329-25.815 20.675-25.815m0 9.436c-7.211 0-9.896 7.135-9.896 16.34 0 9.207 2.685 16.418 9.896 16.418s10.012-7.135 10.012-16.38c0-9.243-2.877-16.34-10.012-16.34z"/></g><defs><clipPath id="a"><path fill="#fff" d="M0 .382h200v200H0z"/></clipPath></defs></svg>