<svg xmlns="http://www.w3.org/2000/svg" width="200" height="201" fill="none"><g clip-path="url(#a)"><path fill="#3AACE2" d="M199.5.37H.5v199h199z"/><path fill="#fff" d="M163.64 136.62 100 173.37l-63.64-36.75v-73.5L100 26.38l63.64 36.74z"/><path fill="#3AACE2" d="M68.24 84.14h-25.2v-9.36h37.59v7.45L61.87 124.8h-11.5zM97.31 88.6l-8.24 8.47-6.1-6.48 15.76-15.84h9.17v49.86H97.16zM136.25 74.02c14.27 0 20.71 12.89 20.71 25.81 0 12.93-6.44 25.9-20.71 25.9s-20.68-12.97-20.68-25.9 6.33-25.81 20.68-25.81m0 9.43c-7.21 0-9.9 7.14-9.9 16.34 0 9.21 2.69 16.42 9.9 16.42s10.01-7.13 10.01-16.38-2.88-16.34-10.01-16.34z"/></g><defs><clipPath id="a"><path fill="#fff" d="M0 .3h200v200H0z"/></clipPath></defs></svg>