<svg xmlns="http://www.w3.org/2000/svg" width="200" height="201" fill="none"><g clip-path="url(#a)"><path fill="#3AACE2" d="M199.503.697H.498v199.005h199.005z"/><path fill="#fff" d="M163.637 136.948 100 173.695l-63.637-36.747V63.452L100 26.705l63.637 36.747z"/><path fill="#3AACE2" d="M68.239 84.473H43.037v-9.36H80.63v7.442L61.87 125.133H50.364zM97.315 88.922 89.068 97.4l-6.1-6.483 15.766-15.842h9.168v49.866h-10.74zM136.249 74.346c14.27 0 20.714 12.889 20.714 25.816s-6.444 25.892-20.714 25.892-20.675-12.966-20.675-25.892 6.329-25.816 20.675-25.816m0 9.436c-7.211 0-9.896 7.135-9.896 16.341s2.685 16.418 9.896 16.418 10.012-7.135 10.012-16.379-2.877-16.341-10.012-16.341z"/></g><defs><clipPath id="a"><path fill="#fff" d="M0 .624h200v200H0z"/></clipPath></defs></svg>