<svg xmlns="http://www.w3.org/2000/svg" width="200" height="54" fill="none"><g clip-path="url(#a)"><path fill="#FF660F" fill-opacity=".941" d="M42.38 52.776c-1.05-.067-2.413-.16-5.326-.24s-5.678-.608-6.147-1.172c-.469-.565-1.485-4.06-2.258-7.767s-1.934-7.318-2.58-8.024c-.697-.762-3.338-1.459-6.496-1.713l-5.322-.428v-9.419l6.234-.485c7.233-.562 9.094-1.864 9.094-6.365 0-4.556-1.785-5.75-9.314-6.234l-6.52-.418.253-4.716.253-4.716 8.563.164c9.8.188 13.39 1.507 16.483 6.06 1.508 2.218 1.927 4.04 1.927 8.375 0 5.265-.16 5.7-3.23 8.769l-3.228 3.229 2 2.594c1.177 1.526 1.775 4.173 2.16 5.875.378 1.805.432 2.645.769 3.74.986 3.085 1.484 5.599 2.369 8.96.384 1.543.742 2.491.86 2.901.276.887.36 1.02-.114 1.022zM.836 51.847C.68 51.38.66 39.853.79 26.234l.24-24.762 5.187-.29c3.01-.167 5.507.098 5.948.63.837 1.013 1.094 47.417.274 49.554-.388 1.01-1.816 1.332-5.914 1.332-2.972 0-5.532-.383-5.689-.85m51.091.235c-2.582-.613-3.495-1.815-1.855-2.444 1.942-.746 1.805-2.077-.214-2.077-.903 0-1.87-.482-2.15-1.07-.28-.59-.348-.204-.152.856.197 1.06.02 1.926-.392 1.926s-.527.578-.256 1.285c.616 1.605-.861 1.684-2.164.114-1.41-1.7-1.257-41.385.162-41.908.789-.29.78-.64-.043-1.512-.589-.624-1.07-2.179-1.07-3.455 0-2.295.063-2.32 5.976-2.375l5.975-.056-.196 25.38c-.124 16.07-.51 25.448-1.052 25.563-.47.099-1.627-.003-2.569-.227m-2.685-35.535c-.32-.517-.815-.395-1.262.31-1.17 1.848-.88 2.754.513 1.598.701-.582 1.038-1.44.749-1.908m-2.88-1.046c0-.208-.386-.616-.857-.907-.47-.29-.856-.12-.856.378 0 .499.385.907.856.907s.856-.17.856-.378m1.712-11.253c0-.746-.457-1.204-1.017-1.017-1.588.53-1.85 2.372-.339 2.372a1.36 1.36 0 0 0 1.356-1.355m9.835 47.575c-.898-1.454-.165-6.301 1.201-7.937 1.123-1.344 2.64-1.515 12.287-1.379l11.006.155-.253 4.804-.253 4.804-9.67.187c-8.492.165-9.727.008-10.133-1.284-1.246-3.964-2.048-4.82-1.579-1.686.372 2.486.193 3.211-.792 3.211-.7 0-1.516-.394-1.814-.875m37.726-19.461A19659 19659 0 0 0 86.11 6.674l-1.996-5.352h11.602l5.72 15.313 5.721 15.314v10.375c0 10.295-.015 10.374-1.996 10.374-1.824 0-2.648-1.76-9.526-20.336m13.323 10.396-.166-10.03 5.819-15.689 5.818-15.688 5.871-.015c5.251-.012 5.809.144 5.277 1.484-.327.825-2.847 7.664-5.598 15.2-12.844 35.169-12.443 34.23-14.734 34.509l-2.12.258zm36.357 7.286c-1.019-5.098-.633-18.751.531-18.766.852-.01.853-.15.005-.689-1.398-.888-1.275-28.52.132-29.468 1.788-1.205 8.893-.707 10.325.724 2.039 2.04 1.838 26.551-.238 28.868-1.147 1.279-1.172 1.511-.14 1.284 1.055-.232.045 1.483 1.26 9.998V52.27l-5.668.236-5.669.235zm42.249 1.474c-.014-.528-.171-3.46-.35-6.513-.179-3.055.038-6.233.483-7.065.445-.83.486-1.51.092-1.51-.393 0-.696-7.804-.672-17.34l.044-17.34 6.171-.25 6.17-.251-.306 23.798c-.169 13.089-.345 24.607-.391 25.597-.076 1.632-.599 1.8-5.65 1.816-3.538.012-5.575-.331-5.591-.942m-28.517-17.372c-.823-.823-.678-7.353.193-8.729.516-.814 1.994-1.053 4.911-.794 7.341.652 11.549-4.47 8.506-10.356-1.388-2.683-2.995-3.264-10.328-3.734l-3.425-.22-.258-4.468c-.242-4.204-.124-4.502 1.999-5.035 3.607-.905 13.344.429 17.408 2.385 2.971 1.43 4.152 2.693 5.771 6.17 4.714 10.124.175 21.778-9.507 24.41-3.758 1.023-14.361 1.28-15.27.37m-101.554-8.38c0-3.635.305-4.63 1.518-4.947 2.724-.712 18.575-.647 19.727.081.743.47 1.033 2.129.856 4.909l-.266 4.198-10.918.155-10.917.155zm0-19.734v-4.71h23.976v9.419H57.493z"/></g><defs><clipPath id="a"><path fill="#fff" d="M0 .441h200v52.736H0z"/></clipPath></defs></svg>