<svg xmlns="http://www.w3.org/2000/svg" width="200" height="182" fill="none"><g fill="#FE660E" fill-rule="evenodd" clip-path="url(#a)" clip-rule="evenodd"><path d="M.718 1.931a83.5 83.5 0 0 1 17.418.941 751 751 0 0 1 .941 71.554q-.095 3.596-2.354 6.12-7.885 1.136-15.534-.472Q.483 41.006.718 1.931" opacity=".966"/><path d="M66.622 78.191q.12 1.406-.941 2.354a52.3 52.3 0 0 1-18.83-.942 1330 1330 0 0 1-8.003-24.007q-1.654-1.968-4.236-2.354A188 188 0 0 0 21.43 51.83V36.766a91.4 91.4 0 0 0 18.83-2.354q4.47-2.352 3.765-7.532.858-5.824-4.707-7.532a163 163 0 0 0-18.83-2.353V1.93q14.673-.522 29.186 1.412 9.746 3.627 12.71 13.652a53.2 53.2 0 0 1 0 14.122 66.6 66.6 0 0 1-8.002 10.827 26.6 26.6 0 0 1 4.236 7.061 968 968 0 0 0 8.003 29.186" opacity=".955"/><path d="M66.622 78.192a682 682 0 0 1-.471-60.255 30.5 30.5 0 0 1 1.412-5.65q-2.775-4.305-1.412-9.414A92.5 92.5 0 0 1 84.51 1.93a6759 6759 0 0 1-1.412 74.378q-.638 7.495-7.061 3.295-3.62-3.214.941-5.65a14.4 14.4 0 0 1-4.237-1.411 32 32 0 0 0-1.412 7.532q-2.844.153-4.707-1.883m3.766-72.495q3.192 1.042.47 2.825-2.44-1.204-.47-2.825m2.824 19.771q1.713 1.409-.47 2.825-.664-1.521.47-2.825" opacity=".942"/><path d="M86.393 1.931h37.66v16.005h-37.66z" opacity=".909"/><path d="M126.877 1.931q8.956-.234 17.888.47a916 916 0 0 1 17.418 44.722q.942 16.005 0 32.01-2.151 2.994-5.178.942a44 44 0 0 1-4.237-7.532A9599 9599 0 0 1 126.877 1.93" opacity=".933"/><path d="M181.483 1.931h17.889a1175 1175 0 0 1-25.891 73.436q-1.746 7.161-8.944 5.649-.236-16.483.47-32.952a4069 4069 0 0 0 16.476-46.133" opacity=".938"/><path d="M90.159 31.117q14.13-.235 28.245.47A8.9 8.9 0 0 1 120.757 33q.705 6.574.471 13.18H87.335a62 62 0 0 1-.471-12.239q1.39-1.855 3.295-2.824" opacity=".95"/><path d="M90.16 65.01h34.834v16.006q-15.071.235-30.127-.47-1.968-1.655-2.354-4.237a12.2 12.2 0 0 0-.471 4.707q-5.667.944-5.649-4.707.161-6.321 3.766-11.298" opacity=".936"/><path d="M61.915 100.787q7.76-.685 14.593 2.825a200 200 0 0 1 .941 37.659q-.615 3.315-1.412 6.59a250 250 0 0 1 1.883 32.953 126.5 126.5 0 0 1-18.83.941q-1.012-39.981 0-80.026 1.824.335 2.825-.942" opacity=".952"/><path d="M80.744 101.728q16.798-1.811 32.011 5.179 14.224 16.629 4.236 36.247-7.342 10.382-20.242 10.827a53.2 53.2 0 0 1-14.122 0q-4.815-1.775-3.766-7.061-.412-5.117 2.825-8.944l13.18-.942q12.354-6.103 3.766-16.947a86.3 86.3 0 0 0-18.359-3.295q-2.808-7.84.471-15.064" opacity=".944"/><path d="M125.936 102.67h16.947q-.715 38.599-1.413 77.202a43 43 0 0 1-17.888 0q-.282-38.008-.471-76.261 1.823.336 2.825-.941" opacity=".963"/></g><defs><clipPath id="a"><path fill="#fff" d="M0 .826h200v181H0z"/></clipPath></defs></svg>