<svg xmlns="http://www.w3.org/2000/svg" width="200" height="65" fill="none"><g clip-path="url(#a)"><path fill="#1A1A1A" d="M150.2 15.27a6.4 6.4 0 0 0 6.48-6.34c0-3.5-2.9-6.34-6.48-6.34a6.4 6.4 0 0 0-6.48 6.34c0 3.5 2.9 6.34 6.48 6.34M119.77 38.84q.16 0 .22-.16a18.7 18.7 0 0 1 22.03-10.47q.33.06.49-.27v-9.4c0-.16-.11-.32-.33-.37a29 29 0 0 0-23.29 5.96q-.16.09-.33-.06-.06-.07-.05-.16v-5.26a.37.37 0 0 0-.38-.38h-9.78a.37.37 0 0 0-.38.38v19.98c0 .1.1.21.22.21zM108.19 41.69c-.11 0-.22.1-.22.21 0 1.61-.33 3.17-.88 4.67-1.1 2.8-3.4 5.05-6.26 6.13a13 13 0 0 1-9.23 0 11 11 0 0 1-3.79-2.42 11 11 0 0 1-2.53-3.7c-.6-1.5-.93-3.12-.93-4.73 0-.1-.1-.22-.22-.22H74.08c-.1 0-.22.11-.22.22.06 4.19.99 8.05 2.8 11.17a20 20 0 0 0 7.86 7.41 24.3 24.3 0 0 0 11.64 2.63c4 .05 7.96-.86 11.59-2.58q.16-.06.33.11v1.24c0 .21.16.37.38.37h9.67c.22 0 .38-.16.38-.37V45.72c0-1.3.16-2.53.44-3.82.05-.1-.06-.21-.17-.27h-.05zM42 39.16a.4.4 0 0 0-.05-.53l-7.69-5.8c-.16-.11-.38-.11-.49.05a13.4 13.4 0 0 1-18.62.7 13 13 0 0 1-3.51-5.32c-.06-.1.05-.27.16-.27h44.54c.11 0 .22.11.22.22q.01.09-.05.1l-6.87 10.2c-.05.12-.05.28.06.33.05 0 .05.06.1.06h11.48c.06 0 .17-.06.22-.11L73.42 20.9c.06-.11.22-.11.33-.06q.1.08.11.16v17.56c0 .16.11.33.33.33h9.89c.16 0 .33-.17.33-.33V18.65a.37.37 0 0 0-.39-.38l-9.83.06H47.01C43.77 5.98 30.9-1.5 18.28 1.68S-1.98 17.41 1.26 29.77 17.35 49.58 29.98 46.4a23.7 23.7 0 0 0 12.03-7.25M24.1 11.13c4.9 0 9.4 2.63 11.65 6.88.05.1 0 .26-.11.32H12.68c-.1 0-.22-.11-.22-.22v-.1a13.2 13.2 0 0 1 11.64-6.88"/><path fill="#1A1A1A" d="M72.98 52.64H52.66c-.1 0-.22-.1-.22-.21q-.01-.1.06-.1l6.8-10.27c.06-.1.06-.26-.05-.32-.05 0-.05-.05-.1-.05H47.65c-.05 0-.16.05-.16.1L34.87 60.7q-.1.17-.11.33v.8c0 .22.16.38.38.38h37.9c.22 0 .38-.16.38-.37v-8.81c-.05-.22-.22-.38-.44-.38M154.48 38.73c.28-.53.77-1.02 1.32-1.34q.1-.06.11-.21V18.7a.37.37 0 0 0-.38-.37h-10.55a.37.37 0 0 0-.38.37v19.93c0 .1.1.21.22.21h9.44q.16-.01.22-.1M154.26 41.69h-9.44c-.11 0-.22.1-.22.21v19.93c0 .21.16.37.38.37h10.55c.22 0 .38-.16.38-.37V43.35a.4.4 0 0 0-.1-.21 3.5 3.5 0 0 1-1.33-1.34q-.06-.1-.22-.11"/><path fill="#DA0000" d="M176.34 16.99c-12.74-.22-23.34 9.45-24 21.85h1.98q.14-.01.22-.1a3.46 3.46 0 0 1 4.61-1.4 3.3 3.3 0 0 1 1.43 4.5 3.4 3.4 0 0 1-4.61 1.4q-.92-.49-1.43-1.4-.07-.08-.22-.1h-1.92c.93 12.73 12.19 22.29 25.2 21.43s22.8-11.92 21.92-24.65c-.94-11.98-10.93-21.32-23.18-21.54m.66 35.98c-7.25.59-13.68-4.73-14.22-11.82a13 13 0 0 1 12.08-13.9c7.25-.6 13.67 4.72 14.22 11.8q.09 1.05 0 2.1A13.1 13.1 0 0 1 177 52.97"/></g><defs><clipPath id="a"><path fill="#fff" d="M0 .84h200v63.4H0z"/></clipPath></defs></svg>