<svg xmlns="http://www.w3.org/2000/svg" width="200" height="65" fill="none"><g clip-path="url(#a)"><path fill="#1A1A1A" d="M150.199 15.113c3.579 0 6.48-2.838 6.48-6.337 0-3.5-2.901-6.337-6.48-6.337s-6.48 2.837-6.48 6.337 2.901 6.337 6.48 6.337M119.774 38.687c.11 0 .165-.053.219-.16 3.625-8.378 13.016-12.89 22.023-10.473.22.054.384-.053.494-.268v-9.398c0-.161-.11-.322-.329-.376-8.293-1.45-16.805.698-23.286 5.96-.11.055-.22.055-.329-.053-.055-.053-.055-.107-.055-.16v-5.264a.37.37 0 0 0-.385-.376h-9.775a.37.37 0 0 0-.385.376v19.977c0 .108.11.215.22.215zM108.186 41.534c-.11 0-.22.107-.22.215 0 1.61-.33 3.168-.879 4.671-1.098 2.793-3.405 5.048-6.26 6.123a13 13 0 0 1-9.227 0 10.8 10.8 0 0 1-3.79-2.417c-1.098-1.074-1.976-2.31-2.526-3.706a12.7 12.7 0 0 1-.933-4.725c0-.108-.11-.215-.22-.215h-10.05c-.11 0-.22.107-.22.215.055 4.189.989 8.055 2.801 11.17a19.85 19.85 0 0 0 7.853 7.41c3.625 1.826 7.58 2.74 11.643 2.632 4.009.054 7.964-.86 11.588-2.578.11-.053.22 0 .33.108v1.2349999999999999c0 .215.165.376.384.376h9.666c.22 0 .385-.161.385-.376v-16.11c0-1.29.164-2.525.439-3.813.055-.108-.055-.215-.165-.269h-.055zM42.008 39.01a.406.406 0 0 0-.055-.537l-7.689-5.8c-.165-.108-.384-.108-.494.053-4.943 5.21-13.29 5.532-18.618.699a13 13 0 0 1-3.515-5.317c-.055-.107.055-.268.165-.268h44.54c.11 0 .22.107.22.214 0 .054 0 .108-.056.108l-6.864 10.203c-.055.108-.055.269.054.322.055 0 .055.054.11.054h11.479a.4.4 0 0 0 .219-.107L73.422 20.75c.055-.107.22-.107.33-.054.054.054.109.108.109.161v17.56c0 .162.11.323.33.323h9.885c.165 0 .33-.161.33-.322V18.496a.37.37 0 0 0-.385-.376l-9.83.053H47.005C43.765 5.822 30.915-1.643 18.282 1.526 5.652 4.694-1.983 17.26 1.258 29.612s16.09 19.816 28.722 16.647c4.668-1.127 8.842-3.705 12.028-7.25M24.104 10.977c4.888 0 9.391 2.632 11.643 6.874.055.107 0 .269-.11.322H12.681c-.11 0-.22-.107-.22-.215v-.107c2.307-4.242 6.755-6.874 11.643-6.874"/><path fill="#1A1A1A" d="M72.982 52.489h-20.32c-.11 0-.22-.107-.22-.215 0-.053 0-.107.055-.107l6.81-10.257c.055-.108.055-.269-.055-.323-.055 0-.055-.053-.11-.053H47.665c-.055 0-.164.053-.164.107L34.868 60.544c-.055.108-.11.215-.11.322v.806c0 .215.165.376.385.376h37.894c.22 0 .385-.161.385-.376v-8.807c-.055-.215-.22-.376-.44-.376M154.483 38.58c.274-.537.769-1.02 1.318-1.342.055-.054.11-.108.11-.215V18.549a.37.37 0 0 0-.385-.376h-10.544a.37.37 0 0 0-.385.376v19.924c0 .107.11.214.22.214h9.446c.11 0 .165-.053.22-.107M154.263 41.534h-9.446c-.11 0-.22.107-.22.215v19.923c0 .215.165.376.385.376h10.544c.22 0 .385-.161.385-.376V43.199a.4.4 0 0 0-.11-.215 3.5 3.5 0 0 1-1.318-1.343c-.055-.054-.11-.107-.22-.107"/><path fill="#DA0000" d="M176.341 16.83c-12.742-.214-23.341 9.452-24 21.857h1.977c.11 0 .165-.053.22-.107.878-1.611 2.91-2.256 4.613-1.396 1.647.859 2.306 2.846 1.428 4.51-.879 1.665-2.911 2.256-4.613 1.397a3.53 3.53 0 0 1-1.428-1.396c-.055-.054-.11-.108-.22-.108h-1.922c.933 12.728 12.192 22.286 25.208 21.427s22.792-11.922 21.912-24.649c-.933-11.975-10.929-21.32-23.175-21.534M177 52.81c-7.25.591-13.675-4.725-14.225-11.814-.549-7.088 4.833-13.371 12.083-13.908 7.249-.591 13.674 4.726 14.225 11.814q.081 1.047 0 2.094c-.551 6.283-5.658 11.278-12.083 11.815"/></g><defs><clipPath id="a"><path fill="#fff" d="M0 .688h200v63.388H0z"/></clipPath></defs></svg>