<svg xmlns="http://www.w3.org/2000/svg" width="200" height="65" fill="none"><path fill="#1A1A1A" d="M150.199 15.355c3.579 0 6.48-2.837 6.48-6.337s-2.901-6.337-6.48-6.337-6.48 2.837-6.48 6.337 2.901 6.337 6.48 6.337M119.774 38.93c.11 0 .165-.054.219-.162 3.625-8.377 13.016-12.888 22.023-10.471.22.053.384-.054.494-.27v-9.395999999999999c0-.162-.11-.323-.329-.377-8.293-1.45-16.805.698-23.286 5.961-.11.054-.22.054-.329-.054-.055-.053-.055-.107-.055-.16v-5.264a.37.37 0 0 0-.385-.375h-9.775a.37.37 0 0 0-.385.376v19.977c0 .107.11.214.22.214zM108.186 41.776c-.11 0-.22.107-.22.215 0 1.61-.33 3.168-.879 4.672-1.098 2.792-3.405 5.048-6.26 6.122a13 13 0 0 1-9.227 0 10.8 10.8 0 0 1-3.79-2.417c-1.098-1.074-1.976-2.309-2.526-3.705a12.7 12.7 0 0 1-.933-4.726c0-.107-.11-.215-.22-.215h-10.05c-.11 0-.22.108-.22.215.055 4.189.989 8.055 2.801 11.17a19.85 19.85 0 0 0 7.853 7.41c3.625 1.827 7.58 2.74 11.643 2.632 4.009.054 7.964-.86 11.588-2.578.11-.053.22 0 .33.108v1.2349999999999999c0 .215.165.376.384.376h9.666c.22 0 .385-.161.385-.376v-16.11c0-1.29.164-2.524.439-3.813.055-.108-.055-.215-.165-.269h-.055zM42.008 39.252a.406.406 0 0 0-.055-.537l-7.689-5.8c-.165-.108-.384-.108-.494.054-4.943 5.209-13.29 5.531-18.618.698a13 13 0 0 1-3.515-5.317c-.055-.107.055-.268.165-.268h44.54c.11 0 .22.107.22.215 0 .053 0 .107-.056.107l-6.864 10.203c-.055.108-.055.269.054.322.055 0 .055.054.11.054h11.479a.4.4 0 0 0 .219-.107l11.918-17.883c.055-.107.22-.107.33-.053.054.053.109.107.109.16v17.561c0 .161.11.322.33.322h9.885c.165 0 .33-.16.33-.322V18.738a.37.37 0 0 0-.385-.376l-9.83.053H47.005C43.765 6.064 30.915-1.4 18.282 1.768 5.652 4.936-1.983 17.503 1.258 29.854S17.348 49.67 29.98 46.502c4.668-1.128 8.842-3.706 12.028-7.25M24.104 11.219c4.888 0 9.391 2.632 11.643 6.874.055.108 0 .269-.11.322H12.681c-.11 0-.22-.107-.22-.214v-.108c2.307-4.242 6.755-6.873 11.643-6.873"/><path fill="#1A1A1A" d="M72.982 52.731h-20.32c-.11 0-.22-.107-.22-.215 0-.053 0-.107.055-.107l6.81-10.257c.055-.108.055-.269-.055-.322-.055 0-.055-.054-.11-.054H47.665c-.055 0-.164.053-.164.107L34.868 60.786c-.055.108-.11.215-.11.323v.805c0 .215.165.376.385.376h37.894c.22 0 .385-.161.385-.376v-8.807c-.055-.215-.22-.376-.44-.376M154.483 38.822c.274-.537.769-1.02 1.318-1.342.055-.054.11-.108.11-.215V18.79a.37.37 0 0 0-.385-.375h-10.544a.37.37 0 0 0-.385.375v19.924c0 .107.11.215.22.215h9.446c.11 0 .165-.054.22-.108M154.263 41.776h-9.446c-.11 0-.22.107-.22.215v19.923c0 .215.165.376.385.376h10.544c.22 0 .385-.161.385-.376V43.441a.4.4 0 0 0-.11-.215 3.5 3.5 0 0 1-1.318-1.343c-.055-.053-.11-.107-.22-.107"/><path fill="#DA0000" d="M176.341 17.073c-12.742-.215-23.341 9.451-24 21.856h1.977c.11 0 .165-.053.22-.107.878-1.611 2.91-2.255 4.613-1.396 1.647.859 2.306 2.846 1.428 4.51-.879 1.666-2.911 2.256-4.613 1.397a3.53 3.53 0 0 1-1.428-1.396c-.055-.054-.11-.107-.22-.107h-1.922c.933 12.727 12.192 22.286 25.208 21.426 13.016-.859 22.792-11.922 21.912-24.649-.933-11.975-10.929-21.32-23.175-21.534m.659 35.98c-7.25.59-13.675-4.726-14.225-11.814-.549-7.089 4.833-13.372 12.083-13.91 7.249-.59 13.674 4.727 14.225 11.815q.081 1.047 0 2.095c-.551 6.283-5.658 11.277-12.083 11.814"/></svg>