<svg xmlns="http://www.w3.org/2000/svg" width="200" height="47" fill="none"><path fill="#A3CB37" fill-rule="evenodd" d="M130.25 1.332c1.349.132 2.692.264 4.008.635a17.2 17.2 0 0 1 5.601 2.721 17.2 17.2 0 0 1 5.517 6.773c.857 1.87 1.391 3.826 1.501 5.878.173 3.216.029 6.437.076 9.655.018 1.262.003 2.524-.18 3.77-.341 2.334-1.102 4.529-2.344 6.543-2.167 3.514-5.197 5.989-9.085 7.379-2.256.806-4.592 1.085-6.994.907q-4.782-.352-8.681-3.106c-2.967-2.097-5.075-4.86-6.325-8.28-.738-2.018-1.039-4.098-1.035-6.236q.006-4.603 0-9.207c-.004-3.317.829-6.405 2.591-9.219 1.98-3.163 4.699-5.479 8.161-6.902 1.46-.6 2.964-1.042 4.55-1.15.118-.009.216-.032.252-.161zm6.022 22.152h.008c0-1.617-.005-3.233.002-4.85a6.7 6.7 0 0 0-.324-2.096c-1.008-3.126-4.395-5.234-7.833-4.388-3.023.744-5.11 3.341-5.123 6.444-.013 3.247-.003 6.494-.003 9.742 0 .689.091 1.367.303 2.02 1.186 3.657 5.172 5.655 8.828 4.198 2.283-.91 4.085-3.346 4.135-5.81.036-1.752.007-3.507.007-5.26M18.03 1.332c2.075.13 4.1.49 6.025 1.308 4.138 1.76 7.197 4.65 9.136 8.71 1.15 2.41 1.646 4.96 1.634 7.624-.014 3.192.1 6.387-.025 9.574-.28 7.183-3.721 12.38-10.183 15.542-2.428 1.188-5.037 1.671-7.73 1.544-5.481-.258-9.9-2.589-13.257-6.922-1.466-1.893-2.434-4.027-3.015-6.338a15.6 15.6 0 0 1-.457-3.738c-.016-3.438-.115-6.88.017-10.314.27-7.077 3.7-12.182 10.018-15.357 2.097-1.054 4.36-1.484 6.685-1.633zm6.096 22.165c0-1.63-.008-3.26.003-4.888.007-1.019-.23-1.975-.665-2.887-1.53-3.203-5.422-4.673-8.644-3.192-2.567 1.179-3.93 3.26-3.996 6.07-.073 3.162-.018 6.327-.017 9.49 0 1.065.207 2.084.637 3.063 1.35 3.067 5.138 4.669 8.245 3.51 2.636-.984 4.497-3.54 4.443-6.441-.03-1.575-.006-3.15-.006-4.725M92.048 1.332c.476.233 1.008.192 1.51.291 2.496.496 4.697 1.584 6.637 3.204 2.637 2.203 4.364 5 5.23 8.309.522 1.998.662 4.033.406 6.104-.383 3.098-1.497 5.875-3.446 8.313-.218.273-.215.447.006.727a16.1 16.1 0 0 1 3.266 7.14c.216 1.15.311 2.302.305 3.47q-.017 3.164.004 6.329c.002.333-.075.442-.427.44-3.238-.013-6.476-.015-9.714.002-.406.003-.472-.144-.47-.498.012-2.234.019-4.467 0-6.7-.014-1.652-.617-3.06-1.876-4.157-.801-.697-1.738-1.07-2.808-1.07-4.473-.003-8.946-.007-13.419.008-.388.001-.47-.114-.468-.48q.02-4.849-.001-9.699c-.002-.374.112-.45.465-.45 4.28.012 8.564-.097 12.841.041 3.569.116 5.586-3.05 5.237-6.035-.184-1.573-.862-2.885-2.16-3.845-.788-.584-1.679-.824-2.65-.824-4.404.001-8.808-.006-13.212.01-.42.002-.525-.104-.523-.521.018-3.22.01-6.44.011-9.66 0-.15.016-.299.025-.449zM183.685 1.332c.647.182 1.322.175 1.982.297a17.1 17.1 0 0 1 6.577 2.702c2.908 1.978 5.035 4.604 6.368 7.853.741 1.808 1.201 3.696 1.215 5.657.026 3.712.059 7.426-.003 11.137-.062 3.647-1.297 6.923-3.502 9.817-2.111 2.77-4.831 4.742-8.121 5.904-1.702.601-3.465.933-5.271.942-4.007.019-8.012.006-12.019.017-.303 0-.398-.077-.397-.39q.018-4.932-.002-9.864c-.001-.334.123-.372.405-.372 3.801.008 7.601.022 11.402 0 3.012-.017 5.126-1.449 6.366-4.177.379-.835.494-1.732.495-2.64.006-3.164.033-6.33-.006-9.494-.036-2.989-1.5-5.08-4.215-6.296-.807-.362-1.682-.472-2.566-.473-3.8 0-7.601-.005-11.401.008-.374.001-.482-.095-.48-.478.012-3.383.003-6.767 0-10.15zM54.422 1.332c.632.186 1.295.175 1.94.298 1.883.357 3.657.99 5.32 1.94 3.75 2.144 6.356 5.258 7.842 9.3.607 1.65.945 3.372.958 5.134.025 3.603.087 7.208-.008 10.809-.14 5.26-2.33 9.574-6.365 12.946-1.856 1.552-3.98 2.62-6.305 3.275a16.4 16.4 0 0 1-4.422.614c-3.91.006-7.82 0-11.731.01-.313.001-.422-.068-.42-.406q.02-4.91-.001-9.823c-.001-.341.112-.398.419-.397 3.76.01 7.519.007 11.278.006 3.038 0 5.365-1.547 6.508-4.344.254-.621.417-1.276.419-1.953.005-3.507.023-7.015-.005-10.522-.02-2.489-2.03-5.109-4.404-5.872a8.5 8.5 0 0 0-2.625-.396c-3.704.003-7.41-.004-11.114.01-.38.002-.477-.102-.475-.477.017-3.384.015-6.768.018-10.152zM164.336 1.332c-.005.37-.014.739-.014 1.108-.001 14.235-.003 28.47.009 42.705.001.428-.118.519-.527.516-3.225-.017-6.449-.014-9.673-.002-.339.001-.438-.087-.438-.432.009-14.523.008-29.045.008-43.568 0-.109.009-.218.014-.327z" clip-rule="evenodd"/></svg>