<svg xmlns="http://www.w3.org/2000/svg" width="200" height="46" fill="none"><g fill="#A3CB37" fill-rule="evenodd" clip-path="url(#a)" clip-rule="evenodd"><path d="M130.25.816c1.349.133 2.692.264 4.008.635a17.2 17.2 0 0 1 5.601 2.721 17.2 17.2 0 0 1 5.517 6.774c.857 1.87 1.391 3.826 1.501 5.877.173 3.216.029 6.437.076 9.656.018 1.261.003 2.523-.18 3.77-.341 2.333-1.102 4.528-2.344 6.542-2.167 3.514-5.197 5.99-9.085 7.38-2.256.806-4.592 1.084-6.994.906-3.188-.236-6.082-1.268-8.681-3.105-2.967-2.097-5.075-4.86-6.325-8.28-.738-2.018-1.039-4.099-1.035-6.236q.006-4.604 0-9.207c-.004-3.317.829-6.405 2.591-9.22 1.98-3.162 4.699-5.478 8.161-6.902 1.46-.6 2.964-1.041 4.55-1.15.118-.009.216-.032.252-.16zm6.022 22.152h.008c0-1.616-.005-3.233.002-4.85a6.7 6.7 0 0 0-.324-2.095c-1.008-3.126-4.395-5.235-7.833-4.389-3.023.744-5.11 3.342-5.123 6.445-.013 3.247-.003 6.494-.003 9.741 0 .689.091 1.368.303 2.02 1.186 3.657 5.172 5.655 8.828 4.198 2.283-.91 4.085-3.345 4.135-5.809.036-1.753.007-3.507.007-5.26M18.03.816c2.075.13 4.1.49 6.025 1.309 4.138 1.76 7.197 4.65 9.136 8.71 1.15 2.41 1.646 4.96 1.634 7.623-.014 3.192.1 6.388-.025 9.575-.28 7.182-3.721 12.378-10.183 15.542-2.428 1.188-5.037 1.67-7.73 1.544-5.481-.258-9.9-2.59-13.257-6.923C2.164 36.304 1.196 34.17.615 31.86a15.6 15.6 0 0 1-.457-3.738C.142 24.682.043 21.24.175 17.806c.27-7.077 3.7-12.181 10.018-15.357C12.29 1.395 14.553.966 16.878.816zm6.096 22.166c0-1.63-.008-3.26.003-4.889.007-1.018-.23-1.975-.665-2.887-1.53-3.203-5.422-4.673-8.644-3.192-2.567 1.179-3.93 3.26-3.996 6.07-.073 3.163-.018 6.327-.017 9.49 0 1.065.207 2.084.637 3.063 1.35 3.067 5.138 4.669 8.245 3.51 2.636-.984 4.497-3.54 4.443-6.44-.03-1.575-.006-3.15-.006-4.725M92.048.816c.476.233 1.008.192 1.51.292 2.496.495 4.697 1.584 6.637 3.203 2.637 2.203 4.364 5 5.23 8.31.522 1.998.662 4.033.406 6.103-.383 3.098-1.497 5.875-3.446 8.313-.218.273-.215.448.006.727a16.1 16.1 0 0 1 3.266 7.141 18 18 0 0 1 .305 3.469q-.017 3.165.004 6.33c.002.332-.075.442-.427.44-3.238-.013-6.476-.016-9.714.002-.406.002-.472-.145-.47-.499.012-2.233.019-4.466 0-6.7-.014-1.652-.617-3.06-1.876-4.156-.801-.698-1.738-1.07-2.808-1.071-4.473-.002-8.946-.006-13.419.008-.388.002-.47-.114-.468-.479q.02-4.85-.001-9.7c-.002-.373.112-.45.465-.45 4.28.013 8.564-.097 12.841.042 3.569.115 5.586-3.05 5.237-6.036-.184-1.573-.862-2.884-2.16-3.844-.788-.585-1.679-.825-2.65-.825-4.404.002-8.808-.005-13.212.01-.42.002-.525-.104-.523-.521.018-3.22.01-6.44.011-9.659 0-.15.016-.3.025-.45zM183.685.816c.647.182 1.322.175 1.982.297a17.1 17.1 0 0 1 6.577 2.703c2.908 1.977 5.035 4.604 6.368 7.853.741 1.807 1.201 3.695 1.215 5.656.026 3.713.059 7.426-.003 11.138-.062 3.646-1.297 6.922-3.502 9.816-2.111 2.771-4.831 4.743-8.121 5.904-1.702.602-3.465.934-5.271.942-4.007.019-8.012.006-12.019.017-.303.001-.398-.077-.397-.39q.018-4.931-.002-9.864c-.001-.334.123-.372.405-.371 3.801.007 7.601.021 11.402 0 3.012-.017 5.126-1.45 6.366-4.178.379-.835.494-1.731.495-2.64.006-3.164.033-6.33-.006-9.493-.036-2.99-1.5-5.08-4.215-6.297-.807-.362-1.682-.472-2.566-.472-3.8-.001-7.601-.006-11.401.007-.374.001-.482-.095-.48-.477.012-3.384.003-6.767 0-10.151zM54.422.816c.632.187 1.295.175 1.94.298 1.883.358 3.657.991 5.32 1.941 3.75 2.144 6.356 5.257 7.842 9.298.607 1.652.945 3.373.958 5.135.025 3.604.087 7.209-.008 10.81-.14 5.259-2.33 9.573-6.365 12.946-1.856 1.551-3.98 2.62-6.305 3.274a16.4 16.4 0 0 1-4.422.614c-3.91.006-7.82 0-11.731.01-.313.002-.422-.067-.42-.405q.02-4.912-.001-9.824c-.001-.34.112-.397.419-.397 3.76.01 7.519.007 11.278.007 3.038 0 5.365-1.548 6.508-4.345.254-.621.417-1.276.419-1.952.005-3.508.023-7.015-.005-10.522-.02-2.49-2.03-5.11-4.404-5.872a8.5 8.5 0 0 0-2.625-.396c-3.704.002-7.41-.005-11.114.01-.38.001-.477-.102-.475-.478.017-3.384.015-6.768.018-10.152zM164.336.816c-.005.37-.014.74-.014 1.109-.001 14.235-.003 28.47.009 42.704.001.428-.118.52-.527.517-3.225-.017-6.449-.015-9.673-.003-.339.001-.438-.086-.438-.432.009-14.522.008-29.045.008-43.567 0-.11.009-.219.014-.328z"/></g><defs><clipPath id="a"><path fill="#fff" d="M0 .322h200v45.313H0z"/></clipPath></defs></svg>