<svg xmlns="http://www.w3.org/2000/svg" width="200" height="47" fill="none"><path fill="#A3CB37" fill-rule="evenodd" d="M130.25 1.37c1.35.14 2.7.27 4 .64a17.2 17.2 0 0 1 11.13 9.5 16 16 0 0 1 1.5 5.87c.17 3.22.03 6.44.07 9.66.02 1.26 0 2.52-.18 3.77a17 17 0 0 1-2.34 6.54 17.2 17.2 0 0 1-16.08 8.28 17 17 0 0 1-8.68-3.1 17 17 0 0 1-6.33-8.28 18 18 0 0 1-1.03-6.24v-9.2a17 17 0 0 1 2.59-9.22 17 17 0 0 1 8.16-6.9c1.46-.6 2.97-1.05 4.55-1.16q.2.02.25-.16zm6.02 22.16zv-4.85q0-1.07-.32-2.1A6.65 6.65 0 0 0 123 18.64v9.74q0 1.04.3 2.02a6.67 6.67 0 0 0 8.83 4.2 6.7 6.7 0 0 0 4.13-5.81c.04-1.76.01-3.51.01-5.26M18.03 1.37c2.08.13 4.1.5 6.02 1.31a17.3 17.3 0 0 1 10.78 16.34c-.02 3.19.1 6.38-.03 9.57-.28 7.18-3.72 12.38-10.18 15.54a16 16 0 0 1-7.73 1.55 17 17 0 0 1-13.26-6.93A17 17 0 0 1 .16 28.68C.14 25.24.04 21.8.17 18.36.45 11.3 3.87 6.18 10.2 3.01a17 17 0 0 1 6.69-1.64zm6.1 22.17v-4.89q0-1.52-.67-2.89a6.6 6.6 0 0 0-8.64-3.19 6.5 6.5 0 0 0-4 6.07c-.07 3.16-.01 6.33-.01 9.5q0 1.6.63 3.05a6.7 6.7 0 0 0 8.25 3.51 6.8 6.8 0 0 0 4.44-6.44c-.03-1.57 0-3.15 0-4.72M92.05 1.37c.47.24 1 .2 1.5.3q3.74.76 6.64 3.2c2.64 2.2 4.37 5 5.24 8.3q.78 3 .4 6.11a16 16 0 0 1-3.44 8.32c-.22.27-.22.44 0 .72a16 16 0 0 1 3.27 7.14q.3 1.72.3 3.47v6.33c0 .33-.07.44-.42.44h-9.72c-.4 0-.47-.14-.46-.5v-6.7a5.3 5.3 0 0 0-1.88-4.15 4.2 4.2 0 0 0-2.8-1.07H77.24c-.39 0-.47-.1-.47-.47q.03-4.86 0-9.7c0-.38.11-.45.47-.45 4.28 0 8.56-.1 12.84.04 3.57.11 5.58-3.05 5.24-6.04a5.3 5.3 0 0 0-2.16-3.84 4.3 4.3 0 0 0-2.65-.83L77.3 12c-.42 0-.52-.1-.52-.52q.02-4.83.01-9.66l.03-.45zM183.69 1.37c.64.19 1.32.18 1.98.3q3.58.66 6.57 2.7 4.37 2.97 6.37 7.86c.74 1.8 1.2 3.7 1.22 5.65.02 3.72.06 7.43 0 11.14a16.4 16.4 0 0 1-3.5 9.82 17.2 17.2 0 0 1-13.4 6.84q-6 .01-12.02.02c-.3 0-.4-.08-.4-.39q.03-4.94 0-9.86c0-.34.13-.38.4-.38q5.7.03 11.4 0c3.02-.01 5.13-1.44 6.38-4.17.37-.84.49-1.73.49-2.64 0-3.17.03-6.33 0-9.5-.04-2.99-1.5-5.08-4.22-6.3a6 6 0 0 0-2.57-.47L171 12c-.37 0-.48-.1-.48-.48V1.37zM54.42 1.37c.63.19 1.3.18 1.94.3q2.83.53 5.32 1.94a17.2 17.2 0 0 1 8.8 14.44c.03 3.6.09 7.2 0 10.8A16.8 16.8 0 0 1 64.1 41.8a16.8 16.8 0 0 1-10.73 3.89l-11.73.01c-.31 0-.42-.07-.42-.4v-9.83c0-.34.11-.4.42-.4l11.28.01a6.7 6.7 0 0 0 6.5-4.34 5 5 0 0 0 .42-1.96c0-3.5.03-7.01 0-10.52a6.7 6.7 0 0 0-4.4-5.87 9 9 0 0 0-2.63-.4L41.71 12c-.38 0-.48-.1-.48-.47q.03-5.08.02-10.16zM164.34 1.37l-.02 1.11.01 42.7c0 .43-.12.53-.53.52q-4.84-.01-9.67 0c-.34 0-.44-.09-.44-.43l.01-43.57.02-.33z" clip-rule="evenodd"/></svg>