<svg xmlns="http://www.w3.org/2000/svg" width="200" height="221" fill="none"><g clip-path="url(#a)"><path fill="#A5DE37" d="M104.555 196.279v24.233c3.644-.547 7.47-1.822 10.568-3.644l68.872-39.72c9.657-5.648 15.67-15.852 15.67-26.784V71.471c0-3.462-.547-6.924-1.823-10.203l-20.953 12.207-57.758 33.343c-11.843 8.381-14.394 16.398-14.576 25.69zM172.334 64.912l20.953-12.026c-2.551-3.28-5.648-6.195-9.11-8.199l-68.872-39.72c-9.475-5.466-21.318-5.466-30.975 0l-68.507 39.72C12.36 46.691 9.08 49.79 6.53 53.07l20.954 12.025 57.758 33.343c6.74 4.19 11.296 8.745 14.576 13.847 3.097-5.102 7.834-9.474 14.576-13.847zM23.11 73.475 1.976 61.45a32 32 0 0 0-1.64 10.02v78.894c0 10.932 6.013 21.318 15.488 26.784l68.508 39.72c3.097 1.822 6.923 3.097 10.567 3.644v-88.186c-.182-9.292-2.733-17.309-14.758-25.69z"/><path fill="#C8F178" d="m197.842 61.268-20.953 12.207c.729 2.187 1.094 4.737 1.094 7.106v60.855c0 8.928-4.92 17.31-12.572 21.682l-53.021 30.428c-2.369 1.276-5.102 2.187-7.835 2.733v24.233c3.644-.547 7.47-1.822 10.568-3.644l68.69-39.538c9.657-5.648 15.669-15.851 15.669-26.784V71.471c.183-3.462-.546-6.924-1.64-10.203M34.59 58.717l52.838-30.428c7.652-4.555 17.309-4.555 24.962 0l53.02 30.428c2.733 1.457 5.102 3.644 6.924 6.195l20.953-12.026c-2.551-3.28-5.648-6.195-9.11-8.199l-68.872-39.72c-9.475-5.466-21.318-5.466-30.975 0l-68.507 39.72C12.36 46.691 9.08 49.79 6.53 53.07l20.954 12.025c1.821-2.551 4.372-4.555 7.105-6.377M87.246 193.546l-52.839-30.61c-7.834-4.555-12.39-12.754-12.39-21.682V80.581c0-2.369.365-4.737 1.094-6.924L1.975 61.45a32 32 0 0 0-1.64 10.02v78.894c0 10.932 6.013 21.318 15.488 26.784l68.508 39.72c3.097 1.822 6.923 3.097 10.567 3.644v-24.233c-2.55-.547-5.284-1.458-7.652-2.733"/></g><defs><clipPath id="a"><path fill="#fff" d="M0 .629h200v220.1H0z"/></clipPath></defs></svg>