<svg xmlns="http://www.w3.org/2000/svg" width="200" height="221" fill="none"><g clip-path="url(#a)"><path fill="#A5DE37" d="M104.56 196.28v24.23a30 30 0 0 0 10.56-3.64L184 177.15c9.65-5.65 15.66-15.85 15.66-26.79V71.47c0-3.46-.54-6.92-1.82-10.2l-20.95 12.2-57.76 33.35c-11.84 8.38-14.4 16.4-14.57 25.69zM172.33 64.91 193.3 52.9a32 32 0 0 0-9.11-8.2L115.3 4.97a31.3 31.3 0 0 0-30.98 0l-68.5 39.72a34 34 0 0 0-9.3 8.38l20.95 12.02 57.76 33.35c6.74 4.19 11.3 8.74 14.58 13.84 3.1-5.1 7.83-9.47 14.57-13.84zM23.11 73.47 1.98 61.46A32 32 0 0 0 .34 71.47v78.9a31.2 31.2 0 0 0 15.48 26.78l68.51 39.72c3.1 1.82 6.92 3.1 10.57 3.64v-88.18c-.18-9.3-2.73-17.31-14.76-25.7z"/><path fill="#C8F178" d="m197.84 61.27-20.95 12.2c.73 2.2 1.1 4.74 1.1 7.11v60.86c0 8.92-4.93 17.3-12.58 21.68l-53.02 30.43a29 29 0 0 1-7.83 2.73v24.23a30 30 0 0 0 10.56-3.64l68.7-39.54c9.65-5.65 15.66-15.85 15.66-26.78V71.47c.19-3.46-.54-6.92-1.64-10.2M34.59 58.72l52.84-30.43a24.5 24.5 0 0 1 24.96 0l53.02 30.43a20.5 20.5 0 0 1 6.92 6.2l20.96-12.03a32 32 0 0 0-9.11-8.2L115.3 4.97a31.3 31.3 0 0 0-30.98 0l-68.5 39.72a34 34 0 0 0-9.3 8.38l20.95 12.02c1.83-2.55 4.38-4.55 7.1-6.37M87.25 193.55 34.4 162.94A24.9 24.9 0 0 1 22 141.25V80.58c0-2.37.37-4.74 1.1-6.92L1.98 61.45A32 32 0 0 0 .34 71.47v78.9a31.2 31.2 0 0 0 15.48 26.78l68.51 39.72c3.1 1.82 6.92 3.1 10.57 3.64v-24.23a30 30 0 0 1-7.65-2.73"/></g><defs><clipPath id="a"><path fill="#fff" d="M0 .63h200v220.1H0z"/></clipPath></defs></svg>