<svg xmlns="http://www.w3.org/2000/svg" width="200" height="135" fill="none"><path fill="#77B900" d="M20.8 58.37S38.9 31.8 74.71 29.1v-9.62C34.67 22.94.4 56.44.4 56.44s19.64 56.6 74.32 61.61v-10.4c-40.43-5-53.9-49.28-53.9-49.28"/><path fill="#77B900" d="M74.71 87.63v9.24C44.3 91.48 35.82 59.91 35.82 59.91s14.63-16.17 38.9-18.87v10.4C62 49.9 51.98 61.84 51.98 61.84s5.4 20.02 22.72 25.8"/><path fill="#77B900" d="M74.71 1.76v17.72c1.16 0 2.31 0 3.47-.39 45.43-1.54 74.7 36.97 74.7 36.97s-33.89 41.58-69.31 41.58c-3.08 0-6.16-.38-9.24-.77v11.17c2.3.39 5 .39 7.7.39 32.73 0 56.6-16.95 79.7-36.59 3.86 3.09 19.26 10.4 22.72 13.87-21.94 18.48-72.77 33.11-101.65 33.11-2.7 0-5.4 0-8.09-.38v15.4h124.76V1.76z"/><path fill="#77B900" d="M74.71 41.04V29.1h3.47c32.73-1.15 53.9 28.11 53.9 28.11s-23.1 31.96-47.74 31.96c-3.47 0-6.93-.38-9.63-1.54v-36.2c12.7 1.55 15.4 7.32 22.72 19.64l16.94-14.24s-12.32-16.18-33.11-16.18c-2.31 0-4.62.39-6.55.39"/></svg>