<svg xmlns="http://www.w3.org/2000/svg" width="200" height="145" fill="none"><g fill="#46ABE8" clip-path="url(#a)"><path d="M101.58 110.5v26.8c0 4.46 1.69 6.32 6.17 6.87q2.8.28 5.61 0c5.6-.18 7.3-2.04 7.3-7.62v-38.5c0-2.61.74-3.36 3.36-3.17 11.59.19 23.36 0 34.96 0 7.66 0 14.76-2.23 21.12-6.5 22.62-14.89 27.86-49.12 10.66-70.88-7.67-9.86-17.58-16-30.29-16.18-17.57-.38-34.96-.19-52.53-.19-3.37 0-5.42 1.49-5.8 4.84a38 38 0 0 0-.37 10.23c.56 5.58 2.24 7.07 8.04 7.07h47.86c1.87 0 3.92 0 5.8.37 11.77 2.6 19.43 14.32 18.13 27.53-1.31 12.27-11.22 21.39-23.19 21.58h-45.05c-7.67 0-11.78 4.09-11.78 11.71zM84.76 37.79h.37V8.38c0-5.02-1.5-6.7-6.73-7.06a28 28 0 0 0-5.6 0c-5.43.37-6.92 1.86-6.92 7.44v55.06c0 2.97-.38 6.14-1.31 8.93-4.49 14.7-20.57 21.2-33.1 13.39-7.47-4.65-11.02-11.9-11.2-20.46-.2-7.63 0-15.07 0-22.7V7.83c0-4.28-1.7-6.14-6-6.33A48 48 0 0 0 7 1.5C2.69 1.88 1 3.74.82 8.01c0 19.35-.19 38.7 0 58.04a49.5 49.5 0 0 0 13.46 32.92c12.15 13.02 31.03 16.56 46.74 8.19C75.04 99.72 82.89 87.44 84.57 72c1.12-11.35.19-22.88.19-34.22"/><path d="M101.08 110.5V84.47c0-7.62 4.13-11.71 11.84-11.71h45.28c12.02 0 21.98-9.3 23.3-21.58 1.31-13.2-6.4-24.93-18.23-27.53-1.88-.37-3.94-.37-5.82-.37h-48.1c-5.83 0-7.7-1.5-8.08-7.07-.38-3.35 0-6.88.37-10.23.38-3.35 2.44-4.84 5.83-4.84 17.66 0 35.13-.19 52.8.19 12.77.18 22.73 6.5 30.43 16.18C208 39.26 202.73 73.3 180 88.37a37.6 37.6 0 0 1-21.24 6.51h-35.13c-2.45 0-3.39.56-3.39 3.16.2 12.84 0 25.67 0 38.5 0 5.59-1.69 7.45-7.32 7.63-1.88 0-3.76.19-5.64 0-4.51-.37-6.2-2.23-6.2-6.88zM85.9 38.37c0 11.34.37 22.29-.76 33.63-1.5 15.44-9.6 27.72-23.71 35.16-15.81 8.37-34.83 4.83-47.06-8.19-8.66-9.3-13.18-20.46-13.36-32.92C.8 46.7 1 27.35 1 8 1 3.55 2.7 1.7 7.2 1.51q3.68-.3 7.35 0c4.33.37 6.02 2.04 6.02 6.32v35.15c0 7.63-.19 15.07 0 22.7.38 8.55 3.95 15.8 11.3 20.46 12.42 8 28.8 1.49 33.31-13.4.94-2.78 1.13-5.95 1.32-8.92.19-18.42 0-36.65 0-55.06 0-5.58 1.5-7.07 6.96-7.44q2.82-.28 5.65 0c5.27.37 6.78 2.04 6.78 7.07v29.98"/></g><defs><clipPath id="a"><path fill="#fff" d="M0 .94h200V144.7H0z"/></clipPath></defs></svg>