<svg xmlns="http://www.w3.org/2000/svg" width="200" height="145" fill="none"><g fill="#46ABE8" clip-path="url(#a)"><path d="M101.583 110.336v26.785c0 4.465 1.682 6.325 6.169 6.883a28.3 28.3 0 0 0 5.608 0c5.609-.186 7.291-2.046 7.291-7.627V97.873c0-2.604.748-3.349 3.365-3.162 11.591.186 23.368 0 34.959 0 7.665 0 14.769-2.233 21.125-6.51 22.62-14.882 27.855-49.108 10.656-70.871-7.665-9.859-17.573-15.997-30.285-16.183C142.898.775 125.512.96 107.939.96c-3.365 0-5.422 1.488-5.796 4.836-.56 3.348-.747 6.882-.373 10.23.56 5.58 2.243 7.069 8.038 7.069h47.858c1.87 0 3.926 0 5.796.372 11.777 2.604 19.442 14.323 18.133 27.53-1.308 12.277-11.216 21.391-23.181 21.577H113.36c-7.665 0-11.777 4.092-11.777 11.719zM84.757 37.605h.374V8.215c0-5.022-1.495-6.696-6.73-7.068a28.3 28.3 0 0 0-5.608 0c-5.421.372-6.917 1.86-6.917 7.44v55.06c0 2.976-.374 6.138-1.309 8.928-4.486 14.695-20.564 21.206-33.089 13.393-7.478-4.65-11.03-11.905-11.217-20.461-.187-7.627 0-15.067 0-22.694V7.657c0-4.278-1.682-6.138-5.982-6.324a48 48 0 0 0-7.29 0c-4.3.372-5.983 2.232-6.17 6.51 0 19.345-.187 38.69 0 58.036.374 12.462 4.86 23.623 13.46 32.924 12.151 13.021 31.033 16.555 46.736 8.184 14.021-7.44 21.873-19.717 23.556-35.156 1.121-11.347.186-22.88.186-34.226"/><path d="M101.079 110.336V84.294c0-7.627 4.134-11.719 11.837-11.719h45.283c12.025 0 21.983-9.3 23.298-21.577 1.316-13.207-6.388-24.926-18.225-27.53-1.879-.372-3.946-.372-5.825-.372h-48.101c-5.824 0-7.703-1.488-8.079-7.068-.376-3.349 0-6.883.376-10.231S104.085.96 107.467.96c17.662 0 35.137-.186 52.798.186 12.777.186 22.736 6.51 30.439 16.183 17.286 21.763 12.025 55.803-10.71 70.87-6.388 4.278-13.528 6.51-21.232 6.51h-35.136c-2.442 0-3.382.559-3.382 3.163.188 12.835 0 25.669 0 38.504 0 5.581-1.691 7.441-7.328 7.627-1.879 0-3.757.186-5.636 0-4.51-.372-6.201-2.232-6.201-6.883zM85.895 38.195c0 11.346.377 22.29-.753 33.636-1.505 15.44-9.6 27.716-23.716 35.157-15.811 8.37-34.822 4.836-47.056-8.185C5.71 89.503 1.194 78.342 1.006 65.88c-.189-19.345 0-38.69 0-58.036 0-4.464 1.694-6.324 6.211-6.51a48.4 48.4 0 0 1 7.34 0c4.33.372 6.024 2.046 6.024 6.324v35.157c0 7.626-.188 15.066 0 22.693.376 8.557 3.953 15.811 11.294 20.461 12.422 7.999 28.798 1.488 33.315-13.393.942-2.79 1.13-5.952 1.318-8.928.188-18.415 0-36.644 0-55.06 0-5.58 1.506-7.068 6.964-7.44a28.6 28.6 0 0 1 5.647 0c5.27.372 6.776 2.046 6.776 7.068v29.98"/></g><defs><clipPath id="a"><path fill="#fff" d="M0 .774h200v143.75H0z"/></clipPath></defs></svg>