<svg xmlns="http://www.w3.org/2000/svg" width="200" height="144" fill="none"><g fill="#46ABE8" clip-path="url(#a)"><path d="M101.079 109.819v26.786c0 4.464 1.674 6.325 6.138 6.883a28 28 0 0 0 5.581 0c5.58-.186 7.254-2.047 7.254-7.627V97.357c0-2.605.744-3.349 3.348-3.163 11.533.186 23.252 0 34.785 0 7.626 0 14.695-2.232 21.019-6.51 22.507-14.88 27.716-49.107 10.603-70.87C182.18 6.954 172.322.816 159.673.63c-17.485-.372-34.785-.186-52.27-.186-3.348 0-5.394 1.489-5.766 4.837-.558 3.348-.744 6.882-.372 10.23.558 5.58 2.232 7.069 7.998 7.069h47.62c1.86 0 3.906 0 5.766.372 11.719 2.604 19.345 14.323 18.043 27.53-1.302 12.276-11.161 21.391-23.065 21.577h-44.829c-7.627 0-11.719 4.092-11.719 11.719zm-16.741-72.73h.372V7.699c0-5.022-1.488-6.697-6.696-7.069a28 28 0 0 0-5.58 0c-5.395.372-6.883 1.86-6.883 7.44v55.06c0 2.977-.372 6.139-1.302 8.929-4.465 14.695-20.462 21.205-32.924 13.393-7.441-4.65-10.975-11.905-11.161-20.461-.186-7.627 0-15.067 0-22.694V7.141c0-4.278-1.674-6.139-5.953-6.325a47 47 0 0 0-7.254 0C2.679 1.188 1.005 3.05.819 7.326c0 19.346-.186 38.691 0 58.037.372 12.462 4.836 23.623 13.392 32.924 12.091 13.021 30.878 16.555 46.503 8.184 13.951-7.44 21.764-19.717 23.438-35.156 1.116-11.347.186-22.88.186-34.226"/><path d="M101.079 109.819V83.778c0-7.627 4.092-11.719 11.719-11.719h44.829c11.904 0 21.763-9.3 23.065-21.577 1.302-13.207-6.324-24.926-18.043-27.53-1.86-.372-3.906-.372-5.766-.372h-47.619c-5.767 0-7.627-1.488-7.999-7.069-.372-3.348 0-6.882.372-10.23s2.418-4.837 5.767-4.837c17.485 0 34.784-.186 52.269.186 12.649.186 22.507 6.51 30.134 16.184 17.113 21.763 11.905 55.803-10.603 70.87-6.324 4.278-13.393 6.51-21.019 6.51h-34.784c-2.419 0-3.349.558-3.349 3.163.186 12.834 0 25.669 0 38.504 0 5.58-1.674 7.441-7.254 7.627-1.86 0-3.72.186-5.581 0-4.464-.372-6.138-2.233-6.138-6.883zM84.338 37.09c0 11.346.93 22.878-.186 34.225-1.488 15.44-9.487 27.716-23.438 35.157-15.625 8.37-34.412 4.836-46.503-8.185-8.556-9.3-13.02-20.461-13.206-32.924-.186-19.345 0-38.69 0-58.036 0-4.464 1.674-6.324 6.138-6.51a47 47 0 0 1 7.254 0c4.279.372 5.953 2.046 5.953 6.324v35.156c0 7.627-.186 15.067 0 22.694.372 8.556 3.906 15.81 11.16 20.461 12.277 7.999 28.46 1.488 32.925-13.393.93-2.79 1.116-5.952 1.302-8.928.186-18.415 0-36.645 0-55.06 0-5.58 1.488-7.068 6.882-7.44q2.79-.279 5.58 0c5.209.372 6.697 2.046 6.697 7.068v29.39z"/></g><defs><clipPath id="a"><path fill="#fff" d="M0 .258h200v143.75H0z"/></clipPath></defs></svg>