<svg xmlns="http://www.w3.org/2000/svg" width="200" height="93" fill="none"><path fill="#1377C7" d="m67.005 78.5-1.421.355-2.69 4.67h31.218l9.848-17.006c-12.132 4.366-24.569 8.427-36.955 11.98M66.751 9.007 47.26 42.865l-3.96-6.802 7.868-13.554L43.3 9.007H12.03l10.61 18.426 15.685 26.955 3.502 6.192 5.686 9.797 7.512 13.097L98.02 9.007zM113.959 62.763l-11.98 20.71h31.27l11.624-20.304L156.7 83.474h31.269l-24.568-42.335a489 489 0 0 1-49.442 21.624M7.157 79.362c-15.228 13.452-1.573 15.533 30.457 6.65 0 0 13.503-3.757 0-.812-13.502 2.944-17.614 0-8.934-9.036a102 102 0 0 1 11.472-9.645l-2.08-3.502-1.778-3.046A182.3 182.3 0 0 0 7.157 79.362M192.842 13.068c.66-.61 1.32-1.168 1.828-1.726 11.98-11.878-1.675-13.401-32.031-5.076 0 0-10.71 3.096 0 .812s15.635-.761 12.437 4.62a10.5 10.5 0 0 1-1.421 1.979 22 22 0 0 1-2.183 2.436 93 93 0 0 1-12.132 10.153c-.965.761-1.98 1.472-3.046 2.233l-11.32-19.594-23.604 40.61c-3.654 2.03-7.411 4.01-11.269 5.99l27.005-46.853h-31.218l-38.325 66.75-.558.965 8.122-2.995h.254l12.233-4.771 5.076-2.081c5.076-2.082 10.152-4.112 14.924-6.295a600 600 0 0 0 55.279-27.106 183.6 183.6 0 0 0 29.949-20.051"/></svg>