<svg id="Layer_1" data-name="Layer 1" xmlns="http://www.w3.org/2000/svg" viewBox="0 0 40 40"><defs><style>.cls-1{fill:#1377c7;}</style></defs><g id="layer1"><g id="g32715"><path id="path32665" class="cls-1" d="M13.5,26.36l-.28.07-.53.92h6.15L20.78,24C18.39,24.86,15.94,25.66,13.5,26.36Z"/><path id="path32667" class="cls-1" d="M13.45,12.67,9.61,19.34,8.83,18l1.55-2.67L8.83,12.67H2.67L4.76,16.3h0l3.09,5.31.69,1.22,1.12,1.93h0l1.48,2.58,8.47-14.67Z"/><path id="path32669" class="cls-1" d="M22.75,23.26l-2.36,4.08h6.16l2.29-4,2.33,4h6.16L32.49,19A96.32,96.32,0,0,1,22.75,23.26Z"/><path id="path32671" class="cls-1" d="M1.71,26.53c-3,2.65-.31,3.06,6,1.31,0,0,2.66-.74,0-.16s-3.47,0-1.76-1.78A20.1,20.1,0,0,1,8.21,24l-.41-.69-.35-.6A35.91,35.91,0,0,0,1.71,26.53Z"/><path id="path32673" class="cls-1" d="M38.29,13.47c.13-.12.26-.23.36-.34,2.36-2.34-.33-2.64-6.31-1,0,0-2.11.61,0,.16s3.08-.15,2.45.91a2.07,2.07,0,0,1-.28.39,4.4,4.4,0,0,1-.43.48,18.37,18.37,0,0,1-2.39,2c-.19.15-.39.29-.6.44l-2.23-3.86-4.65,8c-.72.4-1.46.79-2.22,1.18l5.32-9.23H21.16L13.61,25.75l-.11.19,0,0,1.6-.59h.05l2.41-.94,1-.41c1-.41,2-.81,2.94-1.24a118.21,118.21,0,0,0,10.89-5.34A36.17,36.17,0,0,0,38.29,13.47Z"/></g></g></svg>