<svg xmlns="http://www.w3.org/2000/svg" width="200" height="92" fill="none"><g fill="#1377C7" clip-path="url(#a)"><path d="m67.005 77.983-1.421.355-2.69 4.67h31.218l9.848-17.005c-12.132 4.365-24.569 8.426-36.955 11.98M66.751 8.49 47.26 42.348l-3.96-6.802 7.868-13.553L43.3 8.49H12.03l10.61 18.427L38.324 53.87l3.502 6.193 5.686 9.797 7.512 13.096L98.02 8.49zM113.959 62.246l-11.98 20.711h31.27l11.624-20.304L156.7 82.957h31.269l-24.568-42.335a489 489 0 0 1-49.442 21.624M7.157 78.846c-15.228 13.451-1.573 15.532 30.457 6.65 0 0 13.503-3.757 0-.813s-17.614 0-8.934-9.036a102 102 0 0 1 11.472-9.644l-2.08-3.503-1.778-3.045a182.3 182.3 0 0 0-29.137 19.39M192.842 12.551c.66-.609 1.32-1.167 1.828-1.726 11.98-11.878-1.675-13.4-32.031-5.076 0 0-10.71 3.097 0 .812 10.711-2.284 15.635-.761 12.437 4.62a10.5 10.5 0 0 1-1.421 1.98 22 22 0 0 1-2.183 2.436 93 93 0 0 1-12.132 10.152c-.965.762-1.98 1.472-3.046 2.234l-11.32-19.594-23.604 40.609c-3.654 2.03-7.411 4.01-11.269 5.99l27.005-46.853h-31.218L67.563 74.886l-.558.965 8.122-2.995h.254l12.233-4.772 5.076-2.081c5.076-2.081 10.152-4.112 14.924-6.294a600 600 0 0 0 55.279-27.107 183.6 183.6 0 0 0 29.949-20.05"/></g><defs><clipPath id="a"><path fill="#fff" d="M0 .447h200v91.371H0z"/></clipPath></defs></svg>