<svg xmlns="http://www.w3.org/2000/svg" width="200" height="201" fill="none"><g clip-path="url(#a)"><path fill="#F9423A" fill-rule="evenodd" d="M36.24 115.24 46.8 51.52l.1-.8a14.3 14.3 0 0 1 4.28-7.89 16 16 0 0 1 10.47-4.35l61.99.01q.75 0 1.51.03c3.55.15 7.18 1 10.13 3a14.4 14.4 0 0 1 5.72 7.67c.45 1.54.6 3.17.48 4.77-.12 1.71-.54 3.4-1.19 4.98a18 18 0 0 1-2.92 4.86 23 23 0 0 1-3.36 3.36q-.33.28-.67.53l-.68.52-.57.34q-.77.49-1.53 1.01l-1.53 1.01-3.06 2.02-6.12 4.04-6.12 4.03-1.2.8-4.92 3.23-.28.18c-.97.6-2 1.5-2.14 2.51v.41c.07.9.72 1.85 1.3 2.59l14.35 17.51q.63.74 1.21 1.54a9 9 0 0 1 1.73 3.77c.2 1.2.06 2.49-.44 3.59a8.4 8.4 0 0 1-3.03 3.27q-.27.19-.56.36l-14.07 9.27-6.6 4.35-.8.53-3.18 2.1-11.92 7.81h38.89q1.06 0 2.13-.02a20 20 0 0 0 3.7-.42 7.6 7.6 0 0 0 3.36-1.47c1.23-1.07 1.77-2.8 2.16-4.57l.48-2.37q1.13-6.98 2.3-13.97l.5-3.05.27-1.64.67-4.05.12-.7.44-2.63.36-2.18.02-.09.78-4.67.57-3.42.23-1.38.8-4.84 18.27-12.3q.42-.22.89-.36s4.51-1.45 3.92 4.16q-.1.83-.24 1.62l-10.55 63.72-.1.8a14.3 14.3 0 0 1-4.28 7.89 16 16 0 0 1-10.48 4.35l-61.98-.02q-.75.01-1.52-.02c-3.54-.15-7.16-1-10.12-3a14.4 14.4 0 0 1-5.72-7.67c-.45-1.54-.6-3.17-.48-4.78.12-1.7.54-3.39 1.19-4.97q.52-1.28 1.24-2.46a21 21 0 0 1 3.8-4.68q.6-.57 1.24-1.09l.66-.53q.34-.27.7-.51l.56-.35q.77-.48 1.53-1t1.53-1.02l3.06-2.01 6.12-4.04 6.11-4.03 1.2-.8 4.92-3.24q.15-.07.3-.17c.96-.6 2-1.5 2.12-2.51.1-.75-.29-1.57-.77-2.3l-.52-.7L79.2 93.48q-.63-.75-1.21-1.54a9 9 0 0 1-1.74-3.78c-.2-1.2-.06-2.48.45-3.58a8.4 8.4 0 0 1 3.02-3.27l.57-.36 14.09-9.29 6.58-4.34.83-.54 3.14-2.08q5.96-3.91 11.94-7.82h-38.9q-1.06 0-2.13.03a20 20 0 0 0-3.7.42 7.6 7.6 0 0 0-3.36 1.47c-1.23 1.07-1.77 2.8-2.16 4.57l-.48 2.36q-1.14 6.99-2.3 13.98l-.5 3.05-.27 1.64-.68 4.05-.11.7-.44 2.63-.36 2.17-.02.1-.78 4.67-.57 3.42-.23 1.37-.81 4.84-18.26 12.3q-.42.23-.9.37c-1.87.94-4.3-.43-3.91-4.16q.1-.83.24-1.62M200 100.68c0-20.7-6.3-39.94-17.07-55.9a100.5 100.5 0 0 0-44-36.24 99 99 0 0 0-28.7-7.34A101 101 0 0 0 61.1 8.53 100.48 100.48 0 0 0 7.86 61.75 99 99 0 0 0 0 100.68a99.34 99.34 0 0 0 17.08 55.92 100.6 100.6 0 0 0 44.01 36.23 99 99 0 0 0 38.91 7.85q4.67 0 9.23-.42l1-.1a100 100 0 0 0 28.7-7.34 100 100 0 0 0 31.79-21.43A99.7 99.7 0 0 0 200 100.68" clip-rule="evenodd"/></g><defs><clipPath id="a"><path fill="#fff" d="M0 .68h200v200H0z"/></clipPath></defs></svg>