<svg xmlns="http://www.w3.org/2000/svg" width="200" height="134" fill="none"><g fill="#77B900" clip-path="url(#a)"><path d="M20.803 57.395S38.9 30.825 74.71 28.13v-9.626C34.665 21.969.395 55.47.395 55.47s19.638 56.603 74.316 61.609v-10.396c-40.431-5.006-53.908-49.288-53.908-49.288"/><path d="M74.711 86.66V95.9c-30.42-5.39-38.89-36.966-38.89-36.966s14.632-16.172 38.89-18.868v10.397c-12.707-1.54-22.718 10.397-22.718 10.397s5.39 20.023 22.718 25.799"/><path d="M74.711.792v17.712c1.155 0 2.31 0 3.466-.385 45.437-1.54 74.701 36.966 74.701 36.966S118.993 96.67 83.568 96.67c-3.08 0-6.161-.385-9.242-.77v11.167c2.31.385 5.006.385 7.701.385 32.73 0 56.604-16.943 79.708-36.58 3.85 3.08 19.253 10.396 22.718 13.861-21.948 18.483-72.776 33.116-101.655 33.116-2.696 0-5.391 0-8.087-.385v15.402h124.76V.792z"/><path d="M74.711 40.067V28.131h3.466c32.73-1.156 53.908 28.109 53.908 28.109S108.982 88.2 84.338 88.2c-3.466 0-6.931-.385-9.627-1.54V50.464c12.707 1.54 15.403 7.316 22.719 19.638l16.943-14.247s-12.322-16.173-33.116-16.173c-2.31 0-4.62.385-6.546.385"/></g><defs><clipPath id="a"><path fill="#fff" d="M0 .555h200v132.653H0z"/></clipPath></defs></svg>