<svg xmlns="http://www.w3.org/2000/svg" width="200" height="117" fill="none"><path fill="#0091BD" d="M45.401 3.518h13.37V60.82H45.4v-5.97a21.94 21.94 0 0 1-17.145 7.705C10.601 62.556.498 47.86.498 31.94c0-18.472 12.756-29.902 28.064-29.902a20.67 20.67 0 0 1 16.992 8.164zM14.224 32.45c0 9.848 6.225 18.268 15.87 18.268A16.38 16.38 0 0 0 46.32 32.654c0-12.553-7.705-18.523-16.227-18.523-9.644-.102-15.87 8.165-15.87 18.319M74.487 3.518h13.369V8.62a23.4 23.4 0 0 1 5.562-4.796 15 15 0 0 1 8.164-1.94 19.8 19.8 0 0 1 10.511 2.705l-5.459 12.094a11.9 11.9 0 0 0-6.634-1.94 10.46 10.46 0 0 0-8.317 3.113 18.22 18.22 0 0 0-3.725 13.165v29.8H74.487zm46.179 0h13.369V8.62a17.45 17.45 0 0 1 14.134-6.786 16.79 16.79 0 0 1 14.798 8.368 20.41 20.41 0 0 1 16.992-8.368 18.32 18.32 0 0 1 16.329 8.98 28.57 28.57 0 0 1 3.01 14.492v35.362h-13.164V29.439a24.26 24.26 0 0 0-1.276-10.205 7.555 7.555 0 0 0-7.654-5.103 9.9 9.9 0 0 0-7.909 4.185 22.97 22.97 0 0 0-2.603 13.063v29.595h-13.369V29.44a24.2 24.2 0 0 0-1.275-10.205 7.555 7.555 0 0 0-7.655-5.103 9.9 9.9 0 0 0-7.909 4.185 22.96 22.96 0 0 0-2.602 13.063v29.595H120.87zM73.874 115.93 61.73 78.579h8.674l5.103 17.706c.612 2.143 1.123 4.184 1.684 6.021s1.072 3.929 1.684 6.072h.306a103 103 0 0 0 1.684-6.072c.46-1.888 1.02-3.878 1.582-6.021l5.102-17.706h8.267L83.67 115.93zM111.583 115.93a99 99 0 0 1 1.072-10.205 63.6 63.6 0 0 1 2.143-9.083 50 50 0 0 1 3.572-8.42 60.6 60.6 0 0 1 5.408-8.878h-20.41v-8.777h31.585v6.43a72 72 0 0 0-6.327 8.98 39.9 39.9 0 0 0-3.674 8.675 54 54 0 0 0-1.939 9.593 165 165 0 0 0-.816 11.736z"/></svg>