<svg id="Layer_1" data-name="Layer 1" xmlns="http://www.w3.org/2000/svg" viewBox="0 0 40 40"><defs><style>.cls-1{fill:#0091bd;}</style></defs><path class="cls-1" d="M9.3,10.14h2.62V21.37H9.3V20.2a4.3,4.3,0,0,1-3.36,1.51c-3.46,0-5.44-2.88-5.44-6C.5,12.09,3,9.85,6,9.85a4.05,4.05,0,0,1,3.33,1.6ZM3.19,15.81c0,1.93,1.22,3.58,3.11,3.58a3.21,3.21,0,0,0,3.18-3.54c0-2.46-1.51-3.63-3.18-3.63C4.41,12.2,3.19,13.82,3.19,15.81ZM15,10.14h2.62v1a4.58,4.58,0,0,1,1.09-.94,2.94,2.94,0,0,1,1.6-.38,3.88,3.88,0,0,1,2.06.53l-1.07,2.37A2.33,2.33,0,0,0,20,12.34a2.05,2.05,0,0,0-1.63.61,3.57,3.57,0,0,0-.73,2.58v5.84H15Zm9.05,0h2.62v1a3.42,3.42,0,0,1,2.77-1.33,3.29,3.29,0,0,1,2.9,1.64,4,4,0,0,1,3.33-1.64,3.59,3.59,0,0,1,3.2,1.76,5.6,5.6,0,0,1,.59,2.84v6.93H36.88V15.22a4.75,4.75,0,0,0-.25-2,1.48,1.48,0,0,0-1.5-1,1.94,1.94,0,0,0-1.55.82,4.5,4.5,0,0,0-.51,2.56V21.4H30.45V15.22a4.75,4.75,0,0,0-.25-2,1.48,1.48,0,0,0-1.5-1,1.94,1.94,0,0,0-1.55.82,4.5,4.5,0,0,0-.51,2.56V21.4H24.09Z"/><path class="cls-1" d="M14.88,32.17,12.5,24.85h1.7l1,3.47c.12.42.22.82.33,1.18s.21.77.33,1.19h.06c.13-.42.24-.82.33-1.19s.2-.76.31-1.18l1-3.47h1.62L16.8,32.17Z"/><path class="cls-1" d="M22.27,32.17a19.46,19.46,0,0,1,.21-2,12.49,12.49,0,0,1,.42-1.78,9.84,9.84,0,0,1,.7-1.65A11.87,11.87,0,0,1,24.66,25h-4V23.28h6.19v1.26a14.11,14.11,0,0,0-1.24,1.76A7.81,7.81,0,0,0,24.89,28a10.6,10.6,0,0,0-.38,1.88c-.07.66-.13,1.43-.16,2.3Z"/></svg>