<svg xmlns="http://www.w3.org/2000/svg" width="200" height="117" fill="none"><path fill="#0091BD" d="M45.4 3.52h13.37v57.3H45.4v-5.97a22 22 0 0 1-17.14 7.7C10.6 62.56.5 47.87.5 31.95c0-18.47 12.75-29.9 28.06-29.9a20.7 20.7 0 0 1 17 8.16zM14.22 32.45c0 9.85 6.23 18.27 15.87 18.27a16.4 16.4 0 0 0 16.23-18.07c0-12.55-7.7-18.52-16.23-18.52-9.64-.1-15.87 8.17-15.87 18.32M74.5 3.52h13.37v5.1a23 23 0 0 1 5.56-4.8 15 15 0 0 1 8.16-1.94c3.69-.09 7.33.85 10.51 2.7l-5.46 12.1a12 12 0 0 0-6.63-1.94 10.5 10.5 0 0 0-8.32 3.12 18.2 18.2 0 0 0-3.72 13.16v29.8H74.49zm46.18 0h13.36v5.1a17.5 17.5 0 0 1 14.14-6.79 16.8 16.8 0 0 1 14.8 8.37 20.4 20.4 0 0 1 16.99-8.37 18.3 18.3 0 0 1 16.33 8.98 28.6 28.6 0 0 1 3 14.5v35.36h-13.16V29.44c.31-3.45-.12-6.93-1.27-10.2a7.55 7.55 0 0 0-7.66-5.1 9.9 9.9 0 0 0-7.9 4.18c-2.14 4-3.05 8.54-2.6 13.06v29.6h-13.38V29.43c.31-3.45-.12-6.93-1.27-10.2a7.55 7.55 0 0 0-7.66-5.1 9.9 9.9 0 0 0-7.9 4.18c-2.15 4-3.05 8.54-2.6 13.06v29.6h-13.02zM73.87 115.93 61.73 78.58h8.67l5.1 17.7c.62 2.15 1.13 4.19 1.7 6.03.55 1.83 1.06 3.92 1.67 6.07h.31q1-3.23 1.68-6.07c.46-1.9 1.03-3.88 1.59-6.03l5.1-17.7h8.27l-12.15 37.35zM111.58 115.93q.27-5.13 1.08-10.2.73-4.63 2.14-9.09 1.4-4.37 3.57-8.42a61 61 0 0 1 5.4-8.88h-20.4v-8.77h31.58V77a72 72 0 0 0-6.32 8.98 40 40 0 0 0-3.68 8.67 54 54 0 0 0-1.94 9.6c-.35 3.36-.66 7.3-.81 11.73z"/></svg>