<svg xmlns="http://www.w3.org/2000/svg" width="200" height="134" fill="none"><g fill="#77B900" clip-path="url(#a)"><path d="M20.8 57.3s18.1-26.56 53.91-29.26v-9.62C34.66 21.88.4 55.38.4 55.38s19.64 56.6 74.32 61.61v-10.4c-40.43-5-53.9-49.28-53.9-49.28"/><path d="M74.71 86.57v9.24C44.3 90.42 35.82 58.85 35.82 58.85s14.63-16.18 38.9-18.87v10.4C62 48.84 51.98 60.78 51.98 60.78s5.4 20.02 22.72 25.8"/><path d="M74.71.7v17.72c1.16 0 2.31 0 3.47-.39C123.6 16.5 152.88 55 152.88 55s-33.89 41.58-69.31 41.58c-3.08 0-6.16-.38-9.24-.77v11.17c2.3.38 5 .38 7.7.38 32.73 0 56.6-16.94 79.7-36.58 3.86 3.08 19.26 10.4 22.72 13.87-21.94 18.48-72.77 33.11-101.65 33.11-2.7 0-5.4 0-8.09-.38v15.4h124.76V.7z"/><path d="M74.71 39.98V28.04h3.47c32.73-1.15 53.9 28.11 53.9 28.11s-23.1 31.96-47.74 31.96c-3.47 0-6.93-.38-9.63-1.54v-36.2c12.7 1.55 15.4 7.32 22.72 19.64l16.94-14.24s-12.32-16.18-33.11-16.18c-2.31 0-4.62.39-6.55.39"/></g><defs><clipPath id="a"><path fill="#fff" d="M0 .47h200v132.65H0z"/></clipPath></defs></svg>