<svg xmlns="http://www.w3.org/2000/svg" width="200" height="201" fill="none"><g clip-path="url(#a)"><path fill="#fff" d="M100.64 197.38c53.26 0 96.44-43.21 96.44-96.52s-43.18-96.5-96.44-96.5S4.2 47.55 4.2 100.85s43.18 96.52 96.44 96.52"/><path fill="#0055A5" d="M99.65 199.37c-54.91 0-99.43-44.55-99.43-99.5S44.74.37 99.65.37c54.9 0 99.42 44.55 99.42 99.5s-44.51 99.5-99.42 99.5M118 184.66l50.2-151.35H133.9L99.8 139.72h-.43L65.7 33.31H31.6l48.92 151.35z"/></g><defs><clipPath id="a"><path fill="#fff" d="M0 .07h200v200H0z"/></clipPath></defs></svg>