<svg xmlns="http://www.w3.org/2000/svg" width="200" height="201" fill="none"><g clip-path="url(#a)"><path fill="#fff" d="M100.64 197.99c53.262 0 96.44-43.21 96.44-96.513 0-53.302-43.178-96.512-96.44-96.512S4.2 48.175 4.2 101.477s43.178 96.513 96.44 96.513"/><path fill="#0055A5" d="M99.646 199.98c-54.91 0-99.423-44.547-99.423-99.498C.223 45.532 44.736.985 99.646.985c54.909 0 99.422 44.546 99.422 99.497s-44.513 99.498-99.423 99.498m18.367-14.709 50.199-151.348h-34.313l-34.102 106.41h-.424L65.695 33.923H31.593L80.522 185.27z"/></g><defs><clipPath id="a"><path fill="#fff" d="M0 .68h200v200H0z"/></clipPath></defs></svg>