<svg xmlns="http://www.w3.org/2000/svg" width="200" height="134" fill="none"><g fill="#77B900" clip-path="url(#a)"><path d="M21.3 57.42s18.1-26.57 53.91-29.26v-9.63C35.16 22 .9 55.5.9 55.5s19.64 56.6 74.32 61.6v-10.4c-40.43-5-53.9-49.28-53.9-49.28"/><path d="M75.21 86.69v9.24c-30.42-5.4-38.89-36.97-38.89-36.97S50.95 42.8 75.22 40.1v10.4c-12.72-1.54-22.73 10.4-22.73 10.4s5.4 20.02 22.72 25.8"/><path d="M75.21.82v17.71c1.16 0 2.31 0 3.47-.38 45.43-1.55 74.7 36.96 74.7 36.96S119.49 96.7 84.07 96.7c-3.08 0-6.16-.39-9.24-.77v11.16c2.3.39 5 .39 7.7.39 32.73 0 56.6-16.94 79.7-36.58 3.86 3.08 19.26 10.4 22.72 13.86-21.94 18.48-72.77 33.12-101.65 33.12-2.7 0-5.4 0-8.09-.39v15.4h124.76V.82z"/><path d="M75.21 40.1V28.15h3.47c32.73-1.16 53.9 28.1 53.9 28.1s-23.1 31.97-47.74 31.97c-3.47 0-6.93-.39-9.63-1.54v-36.2c12.7 1.54 15.4 7.32 22.72 19.64l16.94-14.25s-12.32-16.17-33.11-16.17c-2.31 0-4.62.38-6.55.38"/></g><defs><clipPath id="a"><path fill="#fff" d="M0 .18h200v133H0z"/></clipPath></defs></svg>