<svg xmlns="http://www.w3.org/2000/svg" width="200" height="134" fill="none"><g fill="#77B900" clip-path="url(#a)"><path d="M21.303 57.421S39.4 30.852 75.21 28.157V18.53C35.165 21.996.895 55.496.895 55.496s19.638 56.604 74.316 61.61v-10.397c-40.431-5.006-53.908-49.288-53.908-49.288"/><path d="M75.211 86.686v9.241c-30.42-5.39-38.89-36.965-38.89-36.965s14.632-16.173 38.89-18.868V50.49c-12.707-1.54-22.718 10.397-22.718 10.397s5.39 20.023 22.718 25.799"/><path d="M75.211.817V18.53c1.155 0 2.31 0 3.466-.385 45.437-1.54 74.701 36.966 74.701 36.966s-33.885 41.586-69.31 41.586c-3.08 0-6.161-.385-9.242-.77v11.167c2.31.385 5.006.385 7.701.385 32.73 0 56.604-16.943 79.708-36.58 3.85 3.08 19.253 10.396 22.718 13.861-21.948 18.483-72.776 33.116-101.655 33.116-2.696 0-5.391 0-8.087-.386v15.403h124.76V.817z"/><path d="M75.211 40.094V28.157h3.466c32.73-1.155 53.908 28.11 53.908 28.11s-23.103 31.96-47.747 31.96c-3.466 0-6.931-.386-9.627-1.541V50.49c12.707 1.54 15.403 7.316 22.719 19.638l16.943-14.247S102.551 39.71 81.757 39.71c-2.31 0-4.62.385-6.546.385"/></g><defs><clipPath id="a"><path fill="#fff" d="M0 .18h200v133H0z"/></clipPath></defs></svg>