<svg xmlns="http://www.w3.org/2000/svg" width="200" height="201" fill="none"><g clip-path="url(#a)"><path fill="#79BD28" d="M187.115 1.394H12.985A12.44 12.44 0 0 0 .498 13.882V188.01a12.436 12.436 0 0 0 12.388 12.388h174.776a12.44 12.44 0 0 0 11.841-12.487V13.782a12.44 12.44 0 0 0-12.388-12.388m-49.254 14.13a26.37 26.37 0 0 1 29.851-4.976c7.661 4.379 22.537 21.493 22.537 21.493 10.647 11.592-4.627 20.448-4.627 20.448l-66.667 42.836L100 66.07zM8.955 34.23c4.329-7.662 21.393-22.587 21.393-22.587C41.841.946 50.697 16.32 50.697 16.32l42.637 66.965-28.856 18.855L14.13 64.08a26.82 26.82 0 0 1-5.175-29.85M62.34 187.464a26.42 26.42 0 0 1-29.851 4.975C24.876 188.061 10 170.946 10 170.946c-10.497-11.343 4.776-20.298 4.776-20.298l66.667-42.836L100 136.817zm129.353-18.657c-4.329 7.662-21.393 22.637-21.393 22.637-11.493 10.696-20.349-4.677-20.349-4.677l-42.885-66.965 28.856-18.905 50.348 38.059a26.566 26.566 0 0 1 5.174 29.851z"/></g><defs><clipPath id="a"><path fill="#fff" d="M0 .539h200v200H0z"/></clipPath></defs></svg>