<svg xmlns="http://www.w3.org/2000/svg" width="200" height="201" fill="none"><g clip-path="url(#a)"><path fill="#79BD28" d="M187.115.91H12.985A12.44 12.44 0 0 0 .498 13.398v174.129a12.436 12.436 0 0 0 12.388 12.388h174.776a12.434 12.434 0 0 0 11.841-12.487V13.298A12.44 12.44 0 0 0 187.115.91m-49.254 14.13a26.37 26.37 0 0 1 29.851-4.975c7.661 4.378 22.537 21.492 22.537 21.492 10.647 11.592-4.627 20.448-4.627 20.448L118.955 94.84 100 65.587zM8.955 33.746c4.329-7.662 21.393-22.587 21.393-22.587C41.841.462 50.697 15.836 50.697 15.836L93.334 82.8l-28.856 18.856-50.348-38.06a26.82 26.82 0 0 1-5.175-29.85M62.34 186.98a26.42 26.42 0 0 1-29.851 4.975C24.876 187.577 10 170.462 10 170.462c-10.497-11.343 4.776-20.298 4.776-20.298l66.667-42.836L100 136.333zm129.353-18.657c-4.329 7.662-21.393 22.637-21.393 22.637-11.493 10.697-20.349-4.677-20.349-4.677l-42.885-66.965 28.856-18.905 50.348 38.059a26.566 26.566 0 0 1 5.174 29.851z"/></g><defs><clipPath id="a"><path fill="#fff" d="M0 .055h200v200H0z"/></clipPath></defs></svg>