<svg xmlns="http://www.w3.org/2000/svg" width="200" height="117" fill="none"><g fill="#0091BD" clip-path="url(#a)"><path d="M45.401 3.007h13.37V60.31H45.4v-5.97a21.94 21.94 0 0 1-17.145 7.705C10.601 62.045.498 47.35.498 31.43c0-18.472 12.756-29.902 28.064-29.902a20.67 20.67 0 0 1 16.992 8.165zM14.224 31.939c0 9.849 6.225 18.268 15.87 18.268A16.38 16.38 0 0 0 46.32 32.143c0-12.552-7.705-18.522-16.227-18.522-9.644-.102-15.87 8.164-15.87 18.318M74.487 3.007h13.369V8.11a23.4 23.4 0 0 1 5.562-4.797 15 15 0 0 1 8.164-1.939 19.8 19.8 0 0 1 10.511 2.705l-5.459 12.093a11.9 11.9 0 0 0-6.634-1.94 10.46 10.46 0 0 0-8.317 3.114 18.22 18.22 0 0 0-3.725 13.165v29.8H74.487zm46.179 0h13.369V8.11a17.45 17.45 0 0 1 14.134-6.787 16.79 16.79 0 0 1 14.798 8.369 20.41 20.41 0 0 1 16.992-8.369 18.32 18.32 0 0 1 16.329 8.98 28.57 28.57 0 0 1 3.01 14.493v35.361h-13.164V28.93a24.26 24.26 0 0 0-1.276-10.206 7.555 7.555 0 0 0-7.654-5.102 9.9 9.9 0 0 0-7.909 4.184 22.97 22.97 0 0 0-2.603 13.063v29.595h-13.369V28.93a24.2 24.2 0 0 0-1.275-10.206 7.555 7.555 0 0 0-7.655-5.102 9.9 9.9 0 0 0-7.909 4.184 22.96 22.96 0 0 0-2.602 13.063v29.595H120.87zM73.874 115.42 61.73 78.068h8.675l5.102 17.706c.613 2.143 1.123 4.184 1.684 6.021s1.072 3.929 1.684 6.073h.306a103 103 0 0 0 1.684-6.073c.46-1.888 1.02-3.878 1.582-6.02l5.103-17.707h8.266L83.672 115.42zM119.033 116.287a20.8 20.8 0 0 1-6.327-.919 15.3 15.3 0 0 1-5.103-2.5 12.6 12.6 0 0 1-3.266-3.929 10.6 10.6 0 0 1-1.173-5.103 10.2 10.2 0 0 1 2.245-6.786 18.3 18.3 0 0 1 5.46-4.337v-.307a18.5 18.5 0 0 1-4.389-4.541 10.8 10.8 0 0 1-1.377-6.174c-.018-1.759.347-3.5 1.071-5.103a10.6 10.6 0 0 1 3.011-3.98 13.3 13.3 0 0 1 4.592-2.5 19.3 19.3 0 0 1 5.817-.868c1.927-.019 3.843.292 5.664.919a12.1 12.1 0 0 1 4.338 2.5 11.1 11.1 0 0 1 2.806 3.929 12.65 12.65 0 0 1 .97 5.103 9.6 9.6 0 0 1-1.786 5.817 15 15 0 0 1-4.133 4.082v.306a18 18 0 0 1 5.561 4.593 11.02 11.02 0 0 1 2.297 7.245c.05 1.768-.335 3.52-1.123 5.103a12.2 12.2 0 0 1-3.266 3.98 17 17 0 0 1-5.102 2.653 20.8 20.8 0 0 1-6.787.817m0-7.297a6.83 6.83 0 0 0 4.388-1.378 5.1 5.1 0 0 0 2.093-4.286 4.64 4.64 0 0 0-.664-2.551 7 7 0 0 0-1.939-1.94 17.2 17.2 0 0 0-3.061-1.683l-3.879-1.735a13 13 0 0 0-2.5 3.266 8.37 8.37 0 0 0-1.02 3.929 5.72 5.72 0 0 0 2.092 4.694 7.5 7.5 0 0 0 4.694 1.684zm2.858-19.951a9.9 9.9 0 0 0 2.806-6.634 6.02 6.02 0 0 0-1.48-4.235 5.714 5.714 0 0 0-7.603-.357 5.1 5.1 0 0 0-1.53 3.929 5.1 5.1 0 0 0 2.143 4.388 26.4 26.4 0 0 0 5.664 2.909"/></g><defs><clipPath id="a"><path fill="#fff" d="M0 .968h200V116.39H0z"/></clipPath></defs></svg>