<svg xmlns="http://www.w3.org/2000/svg" width="200" height="222" fill="none"><g clip-path="url(#a)"><path fill="#FDE860" d="M197.353 59.455 176.58 71.857l-57.667 34.104c-9.302 5.581-15.192 15.812-15.192 26.664v88.361c4.34-.62 8.371-1.86 11.781-3.72l68.829-39.685c9.612-5.581 15.502-15.812 15.502-26.974v-78.75c0-4.34-.93-8.681-2.48-12.402"/><path fill="#8A2CB0" d="M165.419 163.319c7.751-4.341 12.711-12.712 12.711-21.703V80.848c0-3.1-.62-6.2-1.86-8.991l-57.667 34.104c-9.302 5.581-15.192 15.812-15.192 26.664v64.178c3.1-.31 6.2-1.24 8.991-3.1z"/><path fill="#AB47BC" d="M197.353 59.455 176.58 71.857c1.24 2.79 1.861 5.89 1.861 8.99v60.769c0 8.991-4.961 17.362-12.712 21.703l-53.327 30.694c-2.791 1.55-5.891 2.48-8.991 3.1v24.183c4.34-.62 8.371-1.86 11.781-3.72l68.829-39.685c9.611-5.581 15.502-15.812 15.502-26.974v-79.06c.31-4.34-.62-8.681-2.17-12.402"/><path fill="#00ADEE" d="M184.331 44.884 115.502 5.197a30.8 30.8 0 0 0-31.004 0l-68.52 39.686c-4.03 2.17-7.44 5.58-9.92 9.3L27.14 66.277l57.978 33.485c6.51 4.03 11.782 9.921 15.192 16.742 3.41-7.131 8.681-12.712 15.192-16.742l57.668-34.105 20.772-12.401c-2.79-3.41-5.89-6.201-9.611-8.372"/><path fill="#8A2CB0" d="m165.419 59.145-53.017-30.694c-7.751-4.34-17.362-4.34-25.114 0L34.582 58.835c-3.1 1.86-5.891 4.34-7.751 7.131l57.977 33.485c6.511 4.03 11.782 9.921 15.192 16.742 3.411-7.131 8.681-12.712 15.192-16.742l57.668-34.105c-2.171-2.48-4.341-4.65-7.441-6.2"/><path fill="#AB47BC" d="M184.331 44.884 115.502 5.197a30.8 30.8 0 0 0-31.004 0l-68.52 39.686c-4.03 2.17-7.44 5.58-9.92 9.3L27.14 66.277c2.17-2.79 4.651-5.27 7.751-7.13L87.598 28.76c7.751-4.34 17.363-4.34 25.114 0l53.017 30.384c2.79 1.55 5.27 3.72 7.131 6.511l20.772-12.401q-3.72-5.115-9.301-8.372"/><path fill="#E99D24" d="M81.088 105.961 23.42 72.787 2.337 60.695c-1.55 3.72-2.17 7.441-2.17 11.162v79.06c0 11.162 5.89 21.393 15.502 26.974l68.83 39.375c3.72 2.17 7.75 3.41 11.78 3.72v-88.361c0-10.852-5.58-21.083-15.191-26.664"/><path fill="#AB47BC" d="M34.582 163.319c-7.751-4.341-12.402-12.712-12.402-21.703V80.848c0-2.79.62-5.58 1.55-8.061L2.647 60.695c-1.55 3.72-2.17 7.441-2.17 11.162v79.06c0 11.162 5.89 21.393 15.502 26.974l68.52 39.375c3.72 2.17 7.75 3.41 11.78 3.72v-24.183c-3.1-.31-6.2-1.55-8.99-3.1z"/><path fill="#8A2CB0" d="M81.087 105.961 23.42 72.787c-.93 2.48-1.55 5.27-1.55 8.061v60.768c0 8.991 4.96 17.362 12.401 21.703l52.707 30.384c2.79 1.55 5.891 2.48 8.991 3.1v-64.178c.31-10.851-5.27-21.083-14.882-26.664"/></g><defs><clipPath id="a"><path fill="#fff" d="M0 .02h200v221.32H0z"/></clipPath></defs></svg>