<svg xmlns="http://www.w3.org/2000/svg" width="200" height="222" fill="none"><g clip-path="url(#a)"><path fill="#FDE860" d="m197.35 59.46-20.77 12.4-57.67 34.1a31.4 31.4 0 0 0-15.19 26.67v88.36a35 35 0 0 0 11.78-3.72l68.83-39.69a31.1 31.1 0 0 0 15.5-26.97V71.86c0-4.34-.93-8.68-2.48-12.4"/><path fill="#8A2CB0" d="M165.42 163.32a25 25 0 0 0 12.71-21.7V80.85c0-3.1-.62-6.2-1.86-9l-57.67 34.11a31.4 31.4 0 0 0-15.19 26.67v64.17c3.1-.3 6.2-1.24 9-3.1z"/><path fill="#AB47BC" d="m197.35 59.46-20.77 12.4a22 22 0 0 1 1.86 8.99v60.77c0 8.99-4.96 17.36-12.71 21.7l-53.33 30.7a31 31 0 0 1-8.99 3.1v24.18a35 35 0 0 0 11.78-3.72l68.83-39.69a31.1 31.1 0 0 0 15.5-26.97V71.86a27.6 27.6 0 0 0-2.17-12.4"/><path fill="#00ADEE" d="M184.33 44.88 115.5 5.2a30.8 30.8 0 0 0-31 0L15.98 44.88a28.5 28.5 0 0 0-9.92 9.3l21.08 12.1 57.98 33.48a41.6 41.6 0 0 1 15.19 16.74 39.7 39.7 0 0 1 15.2-16.74l57.66-34.1 20.77-12.4a35 35 0 0 0-9.6-8.38"/><path fill="#8A2CB0" d="m165.42 59.15-53.02-30.7a25.8 25.8 0 0 0-25.11 0l-52.7 30.39a24.5 24.5 0 0 0-7.76 7.13l57.98 33.48A41.6 41.6 0 0 1 100 116.2a39.7 39.7 0 0 1 15.2-16.74l57.66-34.1c-2.17-2.48-4.34-4.65-7.44-6.2"/><path fill="#AB47BC" d="M184.33 44.88 115.5 5.2a30.8 30.8 0 0 0-31 0L15.98 44.88a28.5 28.5 0 0 0-9.92 9.3l21.08 12.1a28 28 0 0 1 7.75-7.13l52.7-30.39a25.9 25.9 0 0 1 25.12 0l53.02 30.39a20.4 20.4 0 0 1 7.13 6.5l20.77-12.4a30 30 0 0 0-9.3-8.37"/><path fill="#E99D24" d="M81.09 105.96 23.42 72.8 2.34 60.69A29 29 0 0 0 .17 71.87v79.06c0 11.16 5.89 21.39 15.5 26.97l68.83 39.38a27.6 27.6 0 0 0 11.78 3.72v-88.37a30.7 30.7 0 0 0-15.2-26.66"/><path fill="#AB47BC" d="M34.58 163.32c-7.75-4.34-12.4-12.71-12.4-21.7V80.85c0-2.8.62-5.58 1.55-8.06L2.65 60.69A29 29 0 0 0 .48 71.87v79.06c0 11.16 5.89 21.39 15.5 26.97l68.52 39.38a27.6 27.6 0 0 0 11.78 3.72V196.8c-3.1-.3-6.2-1.55-9-3.1z"/><path fill="#8A2CB0" d="M81.09 105.96 23.42 72.8a23 23 0 0 0-1.55 8.06v60.77c0 8.99 4.96 17.36 12.4 21.7l52.7 30.38a31 31 0 0 0 9 3.1v-64.18a29.8 29.8 0 0 0-14.88-26.66"/></g><defs><clipPath id="a"><path fill="#fff" d="M0 .02h200v221.32H0z"/></clipPath></defs></svg>