<svg xmlns="http://www.w3.org/2000/svg" width="200" height="134" fill="none"><g fill="#77B900" clip-path="url(#a)"><path d="M20.803 57.456S38.9 30.886 74.71 28.191v-9.626C34.665 22.03.395 55.53.395 55.53s19.638 56.603 74.316 61.609v-10.396c-40.431-5.006-53.908-49.288-53.908-49.288"/><path d="M74.711 86.72v9.242c-30.42-5.391-38.89-36.966-38.89-36.966s14.632-16.173 38.89-18.868v10.397C62.004 48.985 51.993 60.92 51.993 60.92s5.39 20.023 22.718 25.8"/><path d="M74.711.852v17.713c1.155 0 2.31 0 3.466-.385 45.437-1.54 74.701 36.966 74.701 36.966s-33.885 41.586-69.31 41.586c-3.08 0-6.161-.385-9.242-.77v11.167c2.31.385 5.006.385 7.701.385 32.73 0 56.604-16.943 79.708-36.581 3.85 3.08 19.253 10.396 22.718 13.862-21.948 18.483-72.776 33.115-101.655 33.115-2.696 0-5.391 0-8.087-.385v15.403h124.76V.852z"/><path d="M74.711 40.128V28.19h3.466c32.73-1.155 53.908 28.11 53.908 28.11s-23.103 31.96-47.747 31.96c-3.466 0-6.931-.386-9.627-1.54V50.524c12.707 1.54 15.403 7.316 22.719 19.637l16.943-14.247s-12.322-16.172-33.116-16.172c-2.31 0-4.62.385-6.546.385"/></g><defs><clipPath id="a"><path fill="#fff" d="M0 .045h200v133.673H0z"/></clipPath></defs></svg>