<svg xmlns="http://www.w3.org/2000/svg" width="200" height="201" fill="none"><g clip-path="url(#a)"><path fill="#003A4A" d="M100 200.399c54.953 0 99.503-44.55 99.503-99.503H.498c0 54.953 44.55 99.503 99.502 99.503"/><path fill="#8DC21F" d="M100 1.394C45.047 1.394.498 45.944.498 100.897h199.005c0-54.953-44.55-99.503-99.503-99.503"/><path fill="#fff" d="M65.276 64.765c-7.278 0-14.338 5.55-14.338 14.607 0 7.074 5.582 13.97 14.1 13.97 7.134 0 10.743-4.194 11.8-5.841l-5.952-2.157c-.055.075-.824.752-1.505 1.132-1.12.627-2.53 1.075-3.91 1.075-4.747 0-7.715-3.667-7.715-5.928h21.105s.221-.983.221-2.52c0-6.249-4.286-14.34-13.803-14.34zm-7.278 11.534c0-1.78 2.92-5.686 7.47-5.686 4.072 0 7.47 3.913 7.47 5.686h-14.940000000000001M96.43 64.765c-7.279 0-14.338 5.55-14.338 14.607 0 7.074 5.582 13.97 14.1 13.97 7.134 0 10.743-4.194 11.8-5.841l-5.952-2.157c-.053.075-.824.752-1.505 1.132-1.12.627-2.53 1.075-3.91 1.075-4.747 0-7.715-3.667-7.715-5.928h21.105s.221-.983.221-2.52c0-6.249-4.286-14.34-13.803-14.34zm-7.279 11.534c0-1.78 2.92-5.686 7.47-5.686 4.073 0 7.471 3.913 7.471 5.686h-14.940000000000001M127.582 64.765c-7.279 0-14.341 5.55-14.341 14.607 0 7.074 5.582 13.97 14.1 13.97 7.134 0 10.743-4.194 11.801-5.841l-5.953-2.157c-.052.075-.823.752-1.505 1.132-1.117.627-2.53 1.075-3.91 1.075-4.747 0-7.714-3.667-7.714-5.928h21.104s.221-.983.221-2.52c0-6.249-4.286-14.34-13.803-14.34zm-7.279 11.534c0-1.78 2.921-5.686 7.471-5.686 4.072 0 7.47 3.913 7.47 5.686h-14.941M31.856 73.048c0-1.739 1.462-3.159 5.249-3.159 2.45 0 5.263.796 7.83 2.259l.077-.21 1.73-4.733c-2.565-1.617-6.118-2.445-9.593-2.445-7.855 0-11.646 3.91-11.646 8.607 0 10.263 16.067 6.711 16.067 11.885 0 1.697-1.54 2.96-5.331 2.96-3.314 0-7.003-1.204-9.468-3.119l-.179.49-1.644 4.565c2.445 1.893 6.87 3.196 11.251 3.196 7.895 0 11.726-3.947 11.726-8.567 0-10.147-16.07-6.632-16.07-11.724zM168.438 68.048a15.3 15.3 0 0 0-3.627-2.151q-2.672-1.125-5.754-1.125c-2.055 0-4.077.386-5.856 1.18a15.2 15.2 0 0 0-4.636 3.109 14.15 14.15 0 0 0-3.068 4.485 13.4 13.4 0 0 0-1.099 5.348c0 1.734.333 3.45 1.007 5.17a14.8 14.8 0 0 0 2.893 4.636c1.254 1.366 2.794 2.488 4.607 3.358 1.814.863 3.869 1.299 6.155 1.299q3.428 0 6.179-1.326a15.7 15.7 0 0 0 3.204-2.062v3.388h6.079V59.782l-6.079 1.642v6.624zm-1.605 14.182a8.54 8.54 0 0 1-4.438 4.614q-1.532.688-3.338.69-1.898-.001-3.428-.715a8.3 8.3 0 0 1-2.646-1.917 8.7 8.7 0 0 1-1.729-2.714 8.4 8.4 0 0 1-.602-3.15c0-1.092.201-2.102.602-3.126a8.8 8.8 0 0 1 1.699-2.717 8.3 8.3 0 0 1 2.651-1.89c1.033-.48 2.185-.714 3.451-.714s2.41.234 3.447.714a8.1 8.1 0 0 1 2.647 1.89 8.7 8.7 0 0 1 1.699 2.697 8.2 8.2 0 0 1 .605 3.102 8.6 8.6 0 0 1-.625 3.236zM168.052 122.14a14.2 14.2 0 0 0-3.114-4.53c-1.328-1.288-2.878-2.308-4.662-3.067q-2.672-1.123-5.754-1.124c-2.054 0-4.077.386-5.855 1.179a15.2 15.2 0 0 0-4.637 3.11 14.2 14.2 0 0 0-3.067 4.482 13.4 13.4 0 0 0-1.1 5.348c0 1.734.334 3.451 1.008 5.17a14.8 14.8 0 0 0 2.893 4.636c1.254 1.366 2.793 2.488 4.607 3.359 1.813.863 3.868 1.298 6.154 1.298q3.43 0 6.179-1.326c1.826-.885 3.358-2.01 4.607-3.38a15.1 15.1 0 0 0 2.868-4.61c.667-1.699 1.005-3.383 1.005-5.052 0-1.928-.373-3.756-1.127-5.493zm-5.753 8.737a8.5 8.5 0 0 1-1.767 2.733 8.6 8.6 0 0 1-2.671 1.881q-1.534.688-3.339.689-1.898 0-3.427-.714a8.3 8.3 0 0 1-2.647-1.918 8.7 8.7 0 0 1-1.729-2.714 8.45 8.45 0 0 1-.602-3.149c0-1.094.202-2.102.602-3.127.403-1.02.97-1.92 1.699-2.716a8.2 8.2 0 0 1 2.652-1.891c1.032-.48 2.184-.714 3.45-.714s2.41.234 3.448.714a8.1 8.1 0 0 1 2.647 1.891 8.7 8.7 0 0 1 1.699 2.696 8.2 8.2 0 0 1 .604 3.102 8.6 8.6 0 0 1-.624 3.237zM62.314 110.158l-6.035 1.604v21.478c0 5.574 3.505 8.771 9.617 8.771v-6.035c-3.582 0-3.582-1.206-3.582-2.734v-10.433h3.582v-6.034h-3.582v-6.617M87.147 129.673c0 3.88-2.338 6.293-6.102 6.293s-6.102-2.575-6.102-6.261v-16.226l-6.035 1.614v14.612c0 7.01 5.22 12.298 12.14 12.298s12.139-5.069 12.139-12.328v-16.182l-6.037 1.61v14.572zM37.197 121.708c0-1.739 1.462-3.16 5.248-3.16 2.45 0 5.264.796 7.831 2.259l.077-.209 1.73-4.734c-2.566-1.617-6.118-2.445-9.593-2.445-7.858 0-11.647 3.91-11.647 8.607 0 10.264 16.067 6.711 16.067 11.885 0 1.697-1.54 2.961-5.33 2.961-3.314 0-7.003-1.204-9.468-3.12l-.18.49-1.643 4.565c2.445 1.893 6.87 3.197 11.25 3.197 7.896 0 11.727-3.948 11.727-8.568 0-10.146-16.07-6.631-16.07-11.724zM136.851 116.76h-6.02v25.241h6.02zM136.851 108.409h-6.02v5.01h6.02zM120.234 116.707a15.3 15.3 0 0 0-3.627-2.151q-2.672-1.124-5.754-1.125c-2.055 0-4.077.386-5.856 1.179a15.2 15.2 0 0 0-4.636 3.11 14.2 14.2 0 0 0-3.068 4.485 13.4 13.4 0 0 0-1.1 5.348c0 1.734.334 3.45 1.008 5.169a14.8 14.8 0 0 0 2.893 4.637c1.254 1.366 2.794 2.488 4.607 3.358 1.814.863 3.868 1.299 6.155 1.299q3.428 0 6.179-1.326a15.7 15.7 0 0 0 3.204-2.062v3.388h6.079v-33.558l-6.079 1.63v6.624zm-1.605 14.182a8.54 8.54 0 0 1-4.438 4.614q-1.532.688-3.338.689-1.899 0-3.428-.714a8.3 8.3 0 0 1-2.649-1.918 8.7 8.7 0 0 1-1.729-2.713 8.47 8.47 0 0 1 0-6.277 8.8 8.8 0 0 1 1.699-2.716 8.2 8.2 0 0 1 2.652-1.891c1.032-.48 2.184-.713 3.45-.713s2.411.233 3.448.713a8.1 8.1 0 0 1 2.647 1.891 8.7 8.7 0 0 1 1.699 2.697 8.2 8.2 0 0 1 .604 3.102 8.6 8.6 0 0 1-.624 3.236z"/></g><defs><clipPath id="a"><path fill="#fff" d="M0 .882h200v200H0z"/></clipPath></defs></svg>