<svg xmlns="http://www.w3.org/2000/svg" width="200" height="201" fill="none"><g clip-path="url(#a)"><path fill="#003A4A" d="M100 200.31c54.95 0 99.5-44.55 99.5-99.5H.5c0 54.95 44.55 99.5 99.5 99.5"/><path fill="#8DC21F" d="M100 1.3C45.05 1.3.5 45.87.5 100.8h199c0-54.94-44.55-99.5-99.5-99.5"/><path fill="#fff" d="M65.28 64.68a14.24 14.24 0 0 0-14.34 14.6c0 7.08 5.58 13.97 14.1 13.97 7.13 0 10.74-4.19 11.8-5.84l-5.95-2.15a8 8 0 0 1-1.5 1.13 8 8 0 0 1-3.92 1.07c-4.75 0-7.71-3.66-7.71-5.92h21.1s.22-.99.22-2.52c0-6.25-4.28-14.35-13.8-14.35M58 76.2c0-1.78 2.92-5.68 7.47-5.68 4.07 0 7.47 3.9 7.47 5.68zM96.43 64.68a14.24 14.24 0 0 0-14.34 14.6c0 7.08 5.58 13.97 14.1 13.97 7.14 0 10.75-4.19 11.8-5.84l-5.95-2.15c-.05.07-.82.75-1.5 1.13a8 8 0 0 1-3.92 1.07c-4.74 0-7.71-3.66-7.71-5.92h21.1s.23-.99.23-2.52c0-6.25-4.29-14.35-13.8-14.35zM89.15 76.2c0-1.78 2.92-5.68 7.47-5.68 4.07 0 7.47 3.9 7.47 5.68zM127.58 64.68a14.25 14.25 0 0 0-14.34 14.6c0 7.08 5.58 13.97 14.1 13.97 7.13 0 10.74-4.19 11.8-5.84l-5.95-2.15c-.05.07-.82.75-1.5 1.13a8 8 0 0 1-3.92 1.07c-4.74 0-7.71-3.66-7.71-5.92h21.1s.22-.99.22-2.52c0-6.25-4.28-14.35-13.8-14.35M120.3 76.2c0-1.78 2.92-5.68 7.47-5.68 4.08 0 7.47 3.9 7.47 5.68zM31.86 72.96c0-1.74 1.46-3.16 5.24-3.16 2.45 0 5.27.8 7.84 2.26l.07-.2 1.73-4.74c-2.56-1.62-6.12-2.45-9.6-2.45-7.85 0-11.64 3.91-11.64 8.6 0 10.27 16.07 6.72 16.07 11.9 0 1.7-1.54 2.95-5.33 2.95-3.31 0-7-1.2-9.47-3.11l-.18.49-1.64 4.56c2.44 1.9 6.87 3.2 11.25 3.2 7.9 0 11.73-3.95 11.73-8.57 0-10.15-16.07-6.63-16.07-11.72zM168.44 67.96a14.7 14.7 0 0 0-9.38-3.28c-2.06 0-4.08.39-5.86 1.18a15 15 0 0 0-4.63 3.11 14 14 0 0 0-3.07 4.49q-1.1 2.55-1.1 5.35 0 2.6 1 5.17a14.8 14.8 0 0 0 7.5 7.99q2.73 1.3 6.16 1.3a14 14 0 0 0 9.38-3.39v3.39h6.08V59.69l-6.08 1.65zm-1.6 14.18a8.5 8.5 0 0 1-4.44 4.62 8 8 0 0 1-3.34.69 8 8 0 0 1-6.08-2.64 8.7 8.7 0 0 1-2.33-5.86 8.8 8.8 0 0 1 2.3-5.84 8.3 8.3 0 0 1 6.1-2.6 8 8 0 0 1 6.1 2.6 8.7 8.7 0 0 1 2.3 5.8q0 1.68-.62 3.23M168.05 122.05a14 14 0 0 0-3.11-4.53 14.7 14.7 0 0 0-10.42-4.2c-2.05.01-4.08.4-5.85 1.19a15 15 0 0 0-4.64 3.11 14 14 0 0 0-3.07 4.48q-1.1 2.55-1.1 5.35 0 2.6 1.01 5.17a14.8 14.8 0 0 0 7.5 8q2.72 1.3 6.16 1.3 3.42 0 6.17-1.33a15 15 0 0 0 4.61-3.38 15 15 0 0 0 2.87-4.61q1-2.55 1-5.05 0-2.9-1.12-5.5m-5.75 8.74a8.5 8.5 0 0 1-4.44 4.61 8 8 0 0 1-3.34.7 8 8 0 0 1-6.07-2.64 8.7 8.7 0 0 1-2.33-5.86 8.73 8.73 0 0 1 2.3-5.84 8.2 8.2 0 0 1 6.1-2.61 8 8 0 0 1 6.1 2.6 8.7 8.7 0 0 1 2.3 5.8q0 1.69-.63 3.24M62.31 110.07l-6.03 1.6v21.48c0 5.58 3.5 8.77 9.62 8.77v-6.03c-3.59 0-3.59-1.2-3.59-2.74v-10.43h3.59v-6.03H62.3zM87.15 129.59c0 3.88-2.34 6.29-6.1 6.29-3.77 0-6.1-2.58-6.1-6.26v-16.23L68.9 115v14.62c0 7 5.22 12.3 12.14 12.3s12.14-5.07 12.14-12.33V113.4l-6.04 1.6zM37.2 121.62c0-1.74 1.46-3.16 5.25-3.16 2.45 0 5.26.8 7.83 2.26l.07-.21 1.73-4.73c-2.56-1.62-6.11-2.45-9.59-2.45-7.86 0-11.65 3.91-11.65 8.6 0 10.27 16.07 6.72 16.07 11.9 0 1.69-1.54 2.95-5.33 2.95-3.31 0-7-1.2-9.47-3.12l-.18.5-1.64 4.56c2.44 1.9 6.87 3.2 11.25 3.2 7.9 0 11.73-3.95 11.73-8.57 0-10.15-16.07-6.63-16.07-11.72zM136.85 116.67h-6.02v25.24h6.02zM136.85 108.32h-6.02v5.01h6.02zM120.23 116.62a14.7 14.7 0 0 0-9.38-3.28c-2.05 0-4.07.39-5.85 1.18a15 15 0 0 0-4.64 3.11 14 14 0 0 0-3.07 4.49q-1.1 2.55-1.1 5.34 0 2.6 1.01 5.17a14.8 14.8 0 0 0 7.5 8q2.72 1.3 6.16 1.3a14 14 0 0 0 9.38-3.39v3.39h6.08v-33.56l-6.08 1.63zm-1.6 14.18a8.5 8.5 0 0 1-4.44 4.61 8 8 0 0 1-3.34.7 8 8 0 0 1-6.07-2.64 8.47 8.47 0 0 1-1.73-8.99q.6-1.52 1.7-2.71a8.2 8.2 0 0 1 6.1-2.6 8 8 0 0 1 6.1 2.6 8.7 8.7 0 0 1 2.3 5.8q0 1.68-.63 3.23"/></g><defs><clipPath id="a"><path fill="#fff" d="M0 .8h200v200H0z"/></clipPath></defs></svg>