<svg xmlns="http://www.w3.org/2000/svg" width="200" height="121" fill="none"><g clip-path="url(#a)"><path fill="#007DC3" d="M143.18 1.15H56.82C25.655 1.15.498 27.818.498 60.853s25.157 59.702 56.322 59.702h86.36c31.165 0 56.323-26.667 56.323-59.702 0-32.636-25.158-59.701-56.323-59.701m14.269 20.3c6.007-.399 12.766 5.174 12.766 13.532s-6.008 13.93-12.766 13.93c-7.134 0-12.767-5.97-12.767-13.532-.375-8.359 4.882-14.329 12.767-13.93m-82.606 87.562c-7.885 0-15.77 0-23.656-.398-4.13 0-7.885-1.592-11.64-3.185q-9.575-4.179-16.896-13.134c-3.38-3.98-5.632-8.358-7.51-13.532-1.877-5.572-3.004-11.94-3.004-18.309 0-5.97 1.127-11.542 3.38-17.114 3.004-7.96 7.885-14.726 13.893-20.299 4.13-3.582 8.636-5.97 13.892-7.96 3.755-1.194 7.51-1.99 11.64-1.99 1.502 0 1.878 0 1.878 1.99v26.667c0 1.194-.376 1.592-1.502 1.592-3.755.398-7.134 1.592-9.763 3.98-4.505 3.582-7.134 8.358-6.758 14.328 0 5.175 2.253 9.155 5.632 12.339 3.755 3.582 7.885 5.174 12.766 5.174h18.023c1.502 0 1.502 0 1.502 1.592v26.667c-.375 1.194-.75 1.592-1.877 1.592m38.299-64.08v63.284q0 1.194-1.127 1.194H87.609c-1.877 0-1.877 0-1.877-1.99V45.728c0-1.592-.376-1.99-1.502-1.99H66.582q-1.126 0-1.126-1.194v-27.86c0-1.195.375-1.593 1.502-1.593h63.831c1.502 0 1.502.398 1.502 1.592v27.463c0 .796-.375 1.194-1.126 1.592h-17.272c-.751-.398-.751 0-.751 1.194m73.97 19.105c-1.127 14.726-7.51 25.87-18.399 34.626-3.004 2.388-6.759 4.378-10.138 5.97-6.008 2.389-12.015 4.379-18.398 4.379h-16.146c-1.502 0-1.502-.398-1.502-1.99V80.355c0-1.194.375-1.194 1.126-1.194h13.518c6.383 0 12.391-1.99 17.272-6.368a17.13 17.13 0 0 0 5.257-9.155c.375-1.592.375-1.592 1.877-1.592h23.655c1.878-.398 2.253 0 1.878 1.99"/></g><defs><clipPath id="a"><path fill="#fff" d="M0 .295h200v120.398H0z"/></clipPath></defs></svg>