<svg xmlns="http://www.w3.org/2000/svg" width="200" height="57" fill="none"><g clip-path="url(#a)"><path fill="#E51D39" d="M62.82 32.34v18.02h-3.68V32.34h-6.1V28.8h15.88v3.54zm18.63 11.52H71.07c.12 2.31 1.8 3.7 3.67 3.7a3.9 3.9 0 0 0 3.31-1.64l2.27 2.35a7 7 0 0 1-5.58 2.46c-4.44 0-7.23-3.08-7.23-8.25 0-5.15 2.85-8.23 7.23-8.23 3.77 0 6.84 2.34 6.84 7.4 0 .64-.03 1.5-.13 2.21m-6.7-6.44c-1.94 0-3.47.99-3.65 3.45h6.92c-.15-2.4-1.65-3.45-3.28-3.45m15.31.28c-2.17 0-3.46 1.88-3.46 4.8 0 2.93 1.29 4.75 3.34 4.75 1.41 0 2.42-.8 2.85-2.28l3.43 1.05c-.89 3.1-3.03 4.7-6.28 4.7-4.26 0-6.99-3.04-6.99-8.21 0-5.15 2.73-8.26 7-8.26 3.03 0 5.26 1.33 6.21 4.34l-3.4 1.14c-.46-1.2-1.4-2.03-2.7-2.03m18.14 12.66v-9.09c0-2.55-1.13-3.6-2.9-3.6-1.84 0-3.2.96-3.2 3.54v9.15h-3.58V29.79l3.59-1.67v7.98a5 5 0 0 1 4.13-1.85c2.98 0 5.55 1.63 5.55 6.44v9.67zm16.19 0v-9.02c0-2.6-1.1-3.67-2.92-3.67-1.93 0-3.18 1.02-3.18 3.6v9.09h-3.59V34.62h3.59v1.48a5 5 0 0 1 4.13-1.85c2.98 0 5.55 1.63 5.55 6.44v9.67zm12.9.37c-4.39 0-7.17-3.05-7.17-8.22 0-5.15 2.78-8.26 7.17-8.26s7.2 3.11 7.2 8.26c0 5.17-2.8 8.22-7.2 8.22m0-13.06c-2.18 0-3.59 1.85-3.59 4.84s1.41 4.77 3.59 4.77c2.23 0 3.61-1.79 3.61-4.77 0-3-1.38-4.84-3.61-4.84m9.65 12.69V29.82l3.58-1.7v22.24zm13.2.37c-4.38 0-7.16-3.05-7.16-8.22 0-5.15 2.78-8.26 7.17-8.26s7.2 3.11 7.2 8.26c0 5.17-2.8 8.22-7.2 8.22m0-13.06c-2.17 0-3.58 1.85-3.58 4.84s1.41 4.77 3.59 4.77c2.23 0 3.61-1.79 3.61-4.77 0-3-1.38-4.84-3.61-4.84m14.96 18.85-1.9-2.9c4.41-.3 5.7-1.29 5.7-3.41v-.9a4.6 4.6 0 0 1-3.56 1.42c-3.67 0-6.46-2.77-6.46-8.25 0-5.15 2.66-8.23 6.5-8.23 1.62 0 2.78.59 3.52 1.33v-.96h3.59V48.8c0 5.2-2 7.33-7.39 7.73m3.8-17.3a3.6 3.6 0 0 0-2.94-1.55c-2.24 0-3.5 1.7-3.5 4.8 0 2.9 1.26 4.81 3.5 4.81 1.28 0 2.3-.55 2.94-1.54zm12.29 17.11h-3.71l2.42-6.22-5.88-15.49h3.61l3.65 9.67c.21.53.34.93.46 1.42.12-.5.25-.9.43-1.42l3.68-9.67h3.61z"/><path fill="#1D3160" d="M66.16 12.5a5.15 5.15 0 0 1 3.53 4.99c0 2.98-1.87 6.37-7.17 6.37h-9.23V2.3h8.77c5.18 0 6.86 2.84 6.86 5.76 0 1.82-.86 3.51-2.76 4.44m-4.01-6.78h-5.18V11h4.6c2.45 0 3.64-1.08 3.64-2.65 0-1.26-.52-2.62-3.06-2.62m-.3 8.69h-4.88v6.03h5.76c2.51 0 3.22-1.54 3.22-2.86 0-1.6-.77-3.17-4.1-3.17m10.44 9.45V3.32l3.59-1.7v22.24zm16.18 0v-1.5a4.9 4.9 0 0 1-4.1 1.87c-2.98 0-5.58-1.66-5.58-6.47V8.12h3.58v9c0 2.58 1.1 3.66 2.95 3.66 1.9 0 3.15-.98 3.15-3.6V8.12h3.59v15.74zm19.83-6.5H97.9c.12 2.31 1.8 3.7 3.68 3.7a3.9 3.9 0 0 0 3.3-1.63l2.28 2.34a7 7 0 0 1-5.58 2.46c-4.45 0-7.23-3.08-7.23-8.25 0-5.15 2.85-8.23 7.23-8.23 3.77 0 6.83 2.35 6.83 7.4 0 .64-.03 1.5-.12 2.21m-6.71-6.43c-1.93 0-3.46.98-3.65 3.45h6.93c-.16-2.4-1.66-3.45-3.28-3.45m23.47-5.45c-3.95 0-5.18 4.22-5.18 7.6 0 3.58 1.56 7.58 5.18 7.58 1.93 0 3.13-1.14 4.1-2.77l3.4 1.3c-1.3 2.98-3.67 5.04-7.5 5.04-6.68 0-8.98-5.82-8.98-11.15 0-4.96 2.36-11.15 8.98-11.15 4.08 0 6.56 2.31 7.48 4.6l-3.31 1.5c-1.07-1.63-2.15-2.55-4.17-2.55m19.55 18.38v-9.08c0-2.56-1.13-3.6-2.9-3.6-1.85 0-3.2.95-3.2 3.54v9.14h-3.58V3.3l3.58-1.66V9.6a5 5 0 0 1 4.14-1.84c2.97 0 5.55 1.63 5.55 6.43v9.67zm8.18-17.9a2.14 2.14 0 1 1 0-4.27c1.2 0 2.12.95 2.12 2.12 0 1.2-.92 2.16-2.12 2.16m1.78 17.9H151V8.12h3.58zm10.39.37c-1.69 0-2.82-.7-3.56-1.63v5.79l-3.58 1.66V8.12h3.59v1.2a4.4 4.4 0 0 1 3.58-1.56c3.9 0 6.44 2.98 6.44 8.25 0 5.17-2.67 8.22-6.47 8.22m-.52-13.06c-1.41 0-2.4.59-3.03 1.54v6.53c.55.8 1.59 1.54 3.03 1.54 2.17 0 3.4-1.7 3.4-4.77 0-2.87-1.2-4.84-3.4-4.84"/><path fill="#E51D39" fill-rule="evenodd" d="M40.31 28.1c-1.44.38-2.61 1.52-3.5 2.74-2.62 3.32-2.68 6.45-8.34 10.46a21.5 21.5 0 0 1-10.77 3.62c-.4 0-.85-.02-.89.08q.1.05.3.24c.6.33 3.01 2.07 6.76 2.2 5.11-.06 8.93-3.85 11.55-9.02 2.44-4.3 2.26-6.8 5.14-10.19z" clip-rule="evenodd"/><path fill="#1D3160" fill-rule="evenodd" d="M40.31 28.1c-2.55-1.25-6.03-1.46-9.56-1.07 2.17-1.73 5.74-1.66 5.74-1.66s.1.63.73.67c.55.02.66-.67.66-.67l1.3.04c-3.51-2.6-7.21-1.87-9.75-.33-2.54 1.53-5.54 3.13-6.44 4.87s-3.2 8.2-6.8 14.05c-3.03 4.62-3.76 5.32-4.41 7.1-.04.07-.16.15-.26.14-.48-.76-1.05-.45-1.07-.85.45-.39 3.09-4.37 4.86-7.69 1.76-3.3 4.34-8.4 4.6-13.23 0-3.34-1.7-5.34-4.09-9.2-2.67-4-3.38-3.37-7.54-7.02s-6.1-7.51-6.5-11.09c1.92 3.93 6.86 8.3 11.32 9.68 1.82.5 2.8 1.44 3.27 2.63.52 1.29.49 2.88.92 4.8.21 1.09.69 2.32 1.33 3.4 1.53 2.5 4 4.76 5.8 4.62 1.62-.1 2.9-1.9 4.64-3.7 1.75-1.8 4.15-3.66 6.4-3.47a8.6 8.6 0 0 1 5.66 2.85c1.41 1.7 1.46 3.08 2.83 4.36a21 21 0 0 1 5.26 4.66c-2.69.08-6.65-2.74-8.9-3.88m-7.57-10.27c-1.9 1.6-3.7 5.14-3.8 5.36-.08.22-.21.19-.21.19s.22-1.86 1.4-4.4c1.23-2.7 2.88-4.53 3.08-4.95.37-.65.64-1.9 1.44-3.89 1.39-3.27 3.48-5.8 3.71-6.13s.54-.63.55-.44c-1.81 4.39-2.27 9.91-2.57 11.12-.75 2.1-1.7 1.55-3.6 3.14m.22-5.17c-.24 1.43-1.5 2.78-1.7 3.18s-.25.3-.36.26C27.45 12.2 28 9.07 28.84 7.89c1.36-2.64 7.5-4 7.65-4.03s.27-.1.36 0c.1.11-1.08 1.15-2.16 3.4a19 19 0 0 0-1.73 5.4m-2.32 4.1s-.18.55-.3.6-3.85-1.6-4.74-3.93c-.83-2.17.8-3.98 1.73-4.69 0 0 .13 0 .15.07.01.09-.48 1.65.26 3.63a13 13 0 0 0 2.9 4.32m-.66 1.3c-.01.3-.3.81-.4.84s-3.46-.15-4.9-1.95c-1.34-1.72-.3-3.91-.3-3.96 0 0 .16-.15.23 0 .06.1-.12.78 1 2.3 1.47 1.77 4.26 2.6 4.37 2.76m-4.9.4c1.47 1.03 3.9 1.23 4.05 1.22.16-.01.19.06.19.11s-.27 1.12-.33 1.3c-.07.17-2.63.71-4.09-.08-1.85-.9-1.52-3.7-1.43-4.07.15-.26.29.54 1.62 1.52m.56 6.76c.74-.03 1.24-.43 1.5-.33-.26.23-1.12 1.37-2.09 1.37-.84-.07-1.03-1.15-1.07-1.22.14-.15.92.22 1.66.18m2.57-3.03c.23-.07.26.04.26.04l-.22 1.07s-1.3 1.23-2.8 1.11c-1.97.03-2.13-2.98-2.1-3.21.05-.23.68.76 2.36 1.14 1.3.21 2.27-.07 2.5-.15M7.73 14.03c3.55 3.12 5.27 2.47 8.42 8.09-.09.14-4.6.57-8.79-1.66C2.55 18.1.1 12.15 1.26 5.75c.11.05.18-.05.4.51s2.16 4.28 6.07 7.77M8.76 22c4.13 1.49 7.42.72 7.69.85.26.13.4.74.4.74s-4.38 2.11-8.16 1c-5.46-1.38-6.51-7.5-6.51-7.5s1.84 3.17 6.58 4.9m2.68 3.92c3.24.04 5.96-1.67 5.96-1.67s.42.75.44.96c.02.22-3 2.37-5.95 2.22-3.6 0-6.37-2.84-6.3-3.07.12-.06 2.13 1.53 5.85 1.56m7.84 4.84c-.07.51-.2 3-1.99 3.7-1.21.35-2.57-1-2.57-1 .05-.2 1.34.15 2.9-.9 1.26-.8 1.35-1.73 1.66-1.8m-8.2-.04c.05-.04 2.4.94 4.81-.15 2.15-1.05 2.9-2.58 3.02-2.66.12-.07.18-.04.18-.04s.25 1.3.15 1.6-1.93 3.05-4.49 3.1c-2.23-.12-3.8-1.75-3.67-1.85m2.53-2.36c2.89-.44 4.42-2.18 4.64-2.19s.37.66.33.82c-.05.16-2.58 3.31-5.44 3.18-3.31-.02-5.26-2.85-5.26-2.85.08 0 2.85 1.47 5.73 1.04m3.06 18.18c.32.68.62.89.62.89s-.73.72-1.8 2.32c-1.26 1.8-1.8 3.55-1.8 3.55s-.15.03-.22-.04c-.08-.06-.5-.55-1.1-1.29-.51-2.08 3.47-6.1 3.67-6.47.27 0 .3.36.63 1.04m.95 1.37s.58.33.63.44c.04.1-.34 1.66-1.18 3.66-1.02 2.14-1.96 2.62-2.57 2.7-.43-.48-.37-1.29.33-2.81.7-1.53 2.58-3.61 2.8-4m2.04 1.36c.56.45.45 1.42-.13 3.1-.45 1.37-2.53 1.68-2.79 1.67 0-.19.86-.93 2.02-5.32 0 0 .25.04.9.55m-1.04-1.22a5.4 5.4 0 0 1-1.8-3.06c.4.25 2.69 2.66 5.66 3.29 0 .24-.32.53-.78 1.4-.67 1.1-.88 3-.88 3s-.61.12-.73.22c-.13.09-.22 0-.22 0s.44-1.69.58-2.74c.1-1-.88-1.48-1.83-2.1" clip-rule="evenodd"/></g><defs><clipPath id="a"><path fill="#fff" d="M0 .76h200v56H0z"/></clipPath></defs></svg>