<svg xmlns="http://www.w3.org/2000/svg" width="199" height="57" fill="none"><g clip-path="url(#a)"><path fill="#E51D39" d="M62.508 32.324v17.927h-3.66V32.324h-6.067V28.8h15.795v3.524zm18.538 11.461H70.71c.122 2.299 1.799 3.678 3.659 3.678 1.372 0 2.47-.521 3.293-1.625l2.256 2.33c-1.22 1.47-3.049 2.45-5.55 2.45-4.42 0-7.195-3.064-7.195-8.212 0-5.118 2.836-8.182 7.196-8.182 3.75 0 6.8 2.329 6.8 7.355 0 .643-.031 1.501-.123 2.206m-6.677-6.404c-1.921 0-3.446.98-3.629 3.432h6.891c-.152-2.39-1.646-3.432-3.262-3.432m15.245.275c-2.165 0-3.446 1.87-3.446 4.78 0 2.912 1.281 4.72 3.324 4.72 1.403 0 2.409-.797 2.836-2.268l3.415 1.042c-.884 3.096-3.019 4.689-6.25 4.689-4.24 0-6.953-3.034-6.953-8.182 0-5.118 2.714-8.213 6.952-8.213 3.019 0 5.245 1.318 6.19 4.321l-3.385 1.134c-.457-1.195-1.402-2.023-2.683-2.023m18.05 12.595v-9.04c0-2.543-1.128-3.585-2.896-3.585-1.83 0-3.171.95-3.171 3.524v9.101h-3.568v-20.47l3.568-1.655v7.937c1.006-1.226 2.348-1.839 4.116-1.839 2.958 0 5.519 1.624 5.519 6.405v9.622zm16.099 0v-8.979c0-2.574-1.097-3.646-2.896-3.646-1.921 0-3.171 1.011-3.171 3.585v9.04h-3.568V34.593h3.568v1.47c1.006-1.225 2.348-1.838 4.116-1.838 2.957 0 5.519 1.625 5.519 6.405v9.623zm12.837.368c-4.36 0-7.135-3.034-7.135-8.182 0-5.118 2.774-8.213 7.135-8.213 4.39 0 7.165 3.095 7.165 8.213 0 5.148-2.775 8.182-7.165 8.182m0-12.993c-2.165 0-3.568 1.838-3.568 4.81 0 2.973 1.403 4.75 3.568 4.75 2.226 0 3.598-1.777 3.598-4.75s-1.372-4.81-3.598-4.81m9.604 12.625v-20.44l3.567-1.685v22.125zm13.141.368c-4.36 0-7.134-3.034-7.134-8.182 0-5.118 2.774-8.213 7.134-8.213 4.391 0 7.166 3.095 7.166 8.213 0 5.148-2.775 8.182-7.166 8.182m0-12.993c-2.164 0-3.567 1.838-3.567 4.81 0 2.973 1.403 4.75 3.567 4.75 2.226 0 3.598-1.777 3.598-4.75s-1.372-4.81-3.598-4.81m14.88 18.754-1.891-2.88c4.391-.307 5.671-1.288 5.671-3.402v-.889c-.914 1.011-2.134 1.41-3.536 1.41-3.66 0-6.434-2.758-6.434-8.212 0-5.118 2.653-8.183 6.464-8.183 1.616 0 2.775.583 3.506 1.318v-.95h3.568v14.096c0 5.179-1.982 7.294-7.348 7.692m3.781-17.222a3.53 3.53 0 0 0-2.928-1.532c-2.225 0-3.475 1.685-3.475 4.78 0 2.88 1.25 4.781 3.475 4.781 1.281 0 2.287-.552 2.928-1.532zm12.226 17.038h-3.689l2.409-6.19-5.855-15.414h3.598l3.628 9.622c.214.521.336.92.458 1.41.122-.49.244-.889.427-1.41l3.659-9.622h3.598z"/><path fill="#1D3160" d="M65.833 12.579c2.53.92 3.507 3.034 3.507 4.964 0 2.973-1.86 6.344-7.135 6.344h-9.178V2.435h8.72c5.153 0 6.83 2.82 6.83 5.731 0 1.808-.854 3.493-2.744 4.413m-3.994-6.742h-5.153v5.24h4.573c2.44 0 3.629-1.072 3.629-2.635 0-1.257-.519-2.605-3.05-2.605m-.305 8.642h-4.848v6.006h5.732c2.5 0 3.202-1.532 3.202-2.85 0-1.594-.763-3.156-4.086-3.156m10.397 9.407V3.446L75.5 1.762v22.125zm16.1 0v-1.501c-.977 1.256-2.349 1.87-4.087 1.87-2.957 0-5.549-1.656-5.549-6.436V8.227h3.568v8.949c0 2.574 1.097 3.646 2.927 3.646 1.89 0 3.14-.98 3.14-3.585v-9.01h3.568v15.66zm19.726-6.465H97.421c.122 2.298 1.799 3.677 3.659 3.677 1.372 0 2.47-.521 3.293-1.624l2.256 2.328c-1.219 1.471-3.049 2.452-5.549 2.452-4.421 0-7.196-3.064-7.196-8.213 0-5.117 2.836-8.182 7.196-8.182 3.75 0 6.8 2.33 6.8 7.355a19 19 0 0 1-.123 2.207m-6.677-6.405c-1.92 0-3.445.98-3.628 3.432h6.891c-.153-2.39-1.647-3.432-3.263-3.432m23.356-5.424c-3.934 0-5.153 4.198-5.153 7.569 0 3.555 1.555 7.539 5.153 7.539 1.921 0 3.11-1.134 4.085-2.758l3.385 1.287c-1.311 2.972-3.659 5.025-7.471 5.025-6.647 0-8.933-5.792-8.933-11.093 0-4.934 2.347-11.093 8.933-11.093 4.056 0 6.526 2.298 7.44 4.566l-3.293 1.501c-1.067-1.624-2.134-2.543-4.146-2.543m19.453 18.294v-9.04c0-2.543-1.128-3.585-2.897-3.585-1.829 0-3.171.95-3.171 3.524v9.101h-3.567V3.416l3.567-1.655v7.937c1.006-1.225 2.348-1.838 4.116-1.838 2.958 0 5.519 1.624 5.519 6.404v9.622zm8.141-17.804c-1.19 0-2.135-.95-2.135-2.145a2.12 2.12 0 0 1 2.135-2.114c1.189 0 2.103.95 2.103 2.114 0 1.195-.914 2.145-2.103 2.145m1.768 17.804h-3.568V8.227h3.568zm10.337.368c-1.678 0-2.805-.705-3.538-1.624v5.761l-3.567 1.655V8.227h3.567v1.195c.763-.919 1.891-1.562 3.568-1.562 3.872 0 6.403 2.972 6.403 8.212 0 5.148-2.653 8.182-6.433 8.182m-.519-12.993c-1.403 0-2.378.582-3.019 1.532v6.497c.549.797 1.586 1.532 3.019 1.532 2.165 0 3.385-1.685 3.385-4.75 0-2.85-1.19-4.811-3.385-4.811"/><path fill="#E51D39" fill-rule="evenodd" d="M40.111 28.11c-1.439.372-2.603 1.503-3.477 2.72-2.618 3.298-2.673 6.414-8.306 10.407-4.716 3.35-10.331 3.607-10.72 3.604s-.844-.025-.878.074c.06.038.162.125.302.245.584.326 2.991 2.056 6.723 2.182 5.08-.053 8.885-3.824 11.489-8.973 2.423-4.269 2.243-6.761 5.109-10.133z" clip-rule="evenodd"/><path fill="#1D3160" fill-rule="evenodd" d="M40.11 28.11c-2.54-1.246-6.003-1.46-9.513-1.067 2.162-1.721 5.708-1.655 5.708-1.655s.11.621.732.662c.547.02.658-.662.658-.662s.482.02 1.28.037c-3.487-2.59-7.168-1.86-9.695-.33-2.528 1.527-5.512 3.116-6.404 4.853-.89 1.738-3.185 8.16-6.769 13.974-3.016 4.601-3.741 5.293-4.39 7.06-.037.076-.154.159-.257.148-.477-.755-1.038-.446-1.06-.846.443-.389 3.072-4.353 4.83-7.65 1.756-3.296 4.32-8.361 4.573-13.164.015-3.33-1.678-5.317-4.062-9.156-2.66-3.98-3.364-3.352-7.5-6.988C4.103 9.692 2.168 5.854 1.763 2.294 3.682 6.2 8.598 10.56 13.034 11.93c1.808.492 2.778 1.426 3.256 2.611.519 1.284.484 2.872.915 4.78.21 1.08.684 2.304 1.317 3.384 1.53 2.48 3.977 4.733 5.781 4.596 1.606-.11 2.88-1.887 4.61-3.677 1.743-1.803 4.128-3.652 6.367-3.457 1.974.043 4.41 1.357 5.635 2.832 1.407 1.694 1.455 3.066 2.817 4.34 2.287 1.437 3.99 3.052 5.233 4.633-2.673.08-6.617-2.723-8.855-3.861m-7.538-10.223c-1.895 1.582-3.683 5.11-3.768 5.332s-.22.183-.22.183.217-1.844 1.39-4.376c1.232-2.693 2.87-4.501 3.074-4.927.365-.646.631-1.89 1.427-3.861 1.38-3.263 3.468-5.779 3.696-6.105.227-.326.532-.628.548-.441-1.809 4.37-2.265 9.867-2.56 11.069-.75 2.082-1.691 1.543-3.587 3.126m.22-5.149c-.237 1.43-1.486 2.767-1.683 3.163s-.252.308-.366.257c-3.435-3.866-2.87-6.988-2.049-8.163 1.353-2.625 7.46-3.978 7.61-4.009.152-.03.27-.11.367 0S35.593 5.13 34.51 7.37c-1.08 2.241-1.482 3.94-1.719 5.37m-2.305 4.082s-.176.543-.293.589-3.837-1.575-4.72-3.898c-.826-2.168.788-3.961 1.72-4.67 0 0 .133-.01.146.073.014.082-.475 1.635.256 3.604.886 2.419 2.891 4.302 2.891 4.302m-.659 1.287c-.009.303-.302.817-.402.846s-3.436-.157-4.866-1.949c-1.34-1.709-.293-3.888-.293-3.935 0 0 .146-.146.22 0 .064.1-.12.78.987 2.28 1.472 1.767 4.245 2.593 4.354 2.758m-4.866.405c1.452 1.026 3.872 1.227 4.025 1.213s.184.06.183.11-.264 1.114-.33 1.288-2.614.714-4.061-.074c-1.84-.889-1.518-3.679-1.427-4.045.146-.266.285.527 1.61 1.508m.549 6.73c.736-.037 1.235-.43 1.5-.332-.262.227-1.119 1.366-2.085 1.361-.837-.071-1.021-1.138-1.061-1.214.138-.144.91.22 1.646.184m2.561-3.016c.228-.074.256.037.256.037l-.22 1.066s-1.29 1.224-2.78 1.103c-1.963.03-2.125-2.97-2.085-3.2.04-.228.672.766 2.341 1.14 1.29.214 2.26-.072 2.488-.146m-20.38-8.127c3.527 3.108 5.243 2.462 8.379 8.053-.09.14-4.574.568-8.745-1.655C2.534 18.164.098 12.23 1.252 5.862c.114.055.181-.05.403.515.22.564 2.149 4.254 6.037 7.722m1.024 7.943c4.112 1.481 7.381.719 7.647.846.267.127.403.735.403.735s-4.36 2.102-8.123.993c-5.427-1.372-6.476-7.465-6.476-7.465S4 20.315 8.717 22.042m2.671 3.898c3.22.043 5.928-1.655 5.928-1.655s.42.74.439.956c.018.217-2.996 2.36-5.928 2.207-3.584-.005-6.338-2.823-6.256-3.052.114-.066 2.109 1.517 5.817 1.544m7.794 4.817c-.07.513-.201 2.98-1.976 3.678-1.208.35-2.561-.993-2.561-.993.052-.19 1.335.158 2.89-.883 1.253-.795 1.344-1.733 1.647-1.802m-8.16-.036c.052-.04 2.396.933 4.794-.148 2.136-1.048 2.885-2.574 3-2.647s.183-.037.183-.037.246 1.28.146 1.581-1.925 3.037-4.463 3.09c-2.223-.122-3.79-1.74-3.66-1.84m2.525-2.354c2.871-.433 4.39-2.169 4.61-2.17s.374.652.33.81c-.045.157-2.562 3.297-5.416 3.162-3.294-.02-5.232-2.832-5.232-2.832.086.003 2.837 1.462 5.708 1.03m3.037 18.092c.324.674.622.883.622.883s-.728.72-1.793 2.317c-1.256 1.788-1.793 3.53-1.793 3.53s-.145.032-.22-.037c-.074-.069-.495-.555-1.097-1.287-.504-2.067 3.456-6.065 3.66-6.435.266-.013.297.356.621 1.03m.951 1.361s.577.337.622.441c.046.105-.336 1.648-1.17 3.64-1.013 2.135-1.95 2.608-2.562 2.685-.42-.471-.367-1.279.33-2.794.696-1.516 2.569-3.592 2.78-3.972m2.03 1.36c.551.44.443 1.406-.127 3.09-.456 1.35-2.52 1.663-2.78 1.654-.008-.188.858-.923 2.012-5.295.003.005.241.04.894.551m-1.042-1.213c-1.18-.945-1.692-2.424-1.793-3.052.399.255 2.682 2.646 5.635 3.273.005.247-.319.528-.768 1.397-.675 1.095-.878 2.979-.878 2.979s-.61.13-.732.22c-.123.09-.22 0-.22 0s.445-1.674.586-2.72c.088-.988-.88-1.471-1.83-2.097" clip-rule="evenodd"/></g><defs><clipPath id="a"><path fill="#fff" d="M0 .904h199v55.72H0z"/></clipPath></defs></svg>