<svg xmlns="http://www.w3.org/2000/svg" width="200" height="70" fill="none"><g clip-path="url(#a)"><g clip-path="url(#b)"><path fill="#FCA600" d="M55.914.702v41.506L20.86.702H0V69.52h20.86V28.014l35.054 41.505 20.86-34.408z"/><path fill="#0EAFE0" d="M114.839 69.52 100.86 46.723 86.882 69.519H62.15l20.86-34.408L62.15.702h24.517l13.978 22.796L114.839.702h24.516l-20.861 34.409 20.861 34.408z"/><path fill="#69CA00" d="M175.484.702h-29.677l-20.861 34.409 20.861 34.408V54.25h35.053c14.624 0 19.14-11.827 19.14-21.935v-8.172c0-13.333-4.731-23.44-24.516-23.44m5.161 27.742c0 4.086-1.935 8.817-6.666 8.817h-27.957v-19.57h26.021c6.237 0 8.602 2.581 8.602 7.312z"/></g></g><defs><clipPath id="a"><path fill="#fff" d="M0 .702h200V69.52H0z"/></clipPath><clipPath id="b"><path fill="#fff" d="M0 .702h200V69.52H0z"/></clipPath></defs></svg>