<svg xmlns="http://www.w3.org/2000/svg" width="200" height="70" fill="none"><g clip-path="url(#a)"><g clip-path="url(#b)"><path fill="#FCA600" d="M55.91.66v41.5L20.86.66H0v68.82h20.86V27.97l35.05 41.5 20.86-34.4z"/><path fill="#0EAFE0" d="m114.84 69.48-13.98-22.8-13.98 22.8H62.15l20.86-34.41L62.15.66h24.52l13.97 22.8 14.2-22.8h24.51l-20.86 34.4 20.86 34.42z"/><path fill="#69CA00" d="M175.48.66h-29.67l-20.86 34.4 20.86 34.42V54.2h35.05c14.62 0 19.14-11.83 19.14-21.94V24.1C200 10.77 195.27.66 175.48.66m5.17 27.74c0 4.09-1.94 8.82-6.67 8.82h-27.96V17.65h26.02c6.24 0 8.6 2.58 8.6 7.3z"/></g></g><defs><clipPath id="a"><path fill="#fff" d="M0 .66h200v68.82H0z"/></clipPath><clipPath id="b"><path fill="#fff" d="M0 .66h200v68.82H0z"/></clipPath></defs></svg>