<svg xmlns="http://www.w3.org/2000/svg" width="200" height="166" fill="none"><g clip-path="url(#a)"><path fill="#06AFEF" d="m144.91.52 17.1 30.24c.43.43.43.87.87 1.75-1.32 0-2.2 0-3.07.44-2.19.43-3.07-.44-4.38-2.2-3.94-7-7.89-14.02-12.27-21.47-.88-1.75-1.75-2.19-4.38-2.19-10.95 1.32-21.91 2.2-32.43 3.07-13.58 1.32-27.16 2.63-40.75 4.38-10.51.88-21.47 2.2-31.98 3.07-7.45.88-14.46 1.31-22.35 2.2.44.87.44 1.3.44 2.18 20.6 40.31 41.62 80.63 62.22 120.94 3.5 7.01 3.5 6.57 11.4 5.26 9.63-2.2 19.7-3.95 29.35-6.14 1.31-.44 2.63-.44 3.5.88 3.51 3.07 7.01 6.13 10.96 9.64-2.2.44-4.38.88-6.57 1.75-15.78 3.5-31.11 7.01-46.89 10.52-3.5.87-3.5.87-5.7-2.63-15.33-29.8-30.67-60.03-46-89.83C16.53 58.36 9.52 43.9 2.07 29.88c.44-1.32-.44-1.75-.88-2.63v-2.63c1.75-2.63 3.5-5.26 5.26-7.45.88-1.31 1.75-2.63 3.94-2.63 14.02-1.31 28.05-3.06 42.07-4.38 10.51-.88 21.47-2.19 31.98-3.07 14.46-1.31 28.92-3.06 43.39-4.38 2.62-.44 5.25-1.31 7.88-1.75 3.07-.44 6.14-.44 9.2-.44"/><path fill="#818385" d="M198.8 131.1v4.82c0 6.13 0 6.13-5.69 7.45-17.09 3.94-34.61 4.38-51.7-1.32s-26.73-17.96-29.8-35.49c-1.75-10.08-1.75-20.6.88-30.67 3.5-13.59 11.83-22.79 24.97-28.05 12.71-4.82 26.3-6.13 39.88-4.38 6.13.88 11.83 1.76 17.96 2.63 2.63.44 3.5 1.32 3.07 3.95v7.88c-12.27-4.38-24.54-5.26-36.8-4.38-6.58.44-12.71 1.75-18.4 4.82-9.65 4.38-15.35 12.27-17.54 22.35-2.19 9.64-1.75 19.28.88 28.92 3.94 13.14 12.7 21.03 25.85 24.53 12.7 3.07 25.85 2.63 38.56-.43 2.63-1.32 4.82-1.76 7.89-2.63"/><path fill="#0DB1EF" d="M69.55 43.9c-.88.44-1.76.88-3.07 1.32 3.07 5.7 5.7 10.95 8.32 16.2l19.72 38.13c.88 2.19 1.76 4.82 5.26 3.5.44 0 1.32.88 1.32 1.32 0 .88-.44 2.63-.88 2.63-1.75.88-3.94.88-5.7 1.31-.44 0-1.31-.87-1.75-1.31-.88-1.75-1.75-3.07-2.63-4.82C81.38 85.08 72.61 68 64.3 50.48q-3.95-7.24 5.26-6.58"/><path fill="#0BB0EF" d="M88.39 40.83c11.83-1.31 23.66-2.19 35.5-3.5v1.75c-11.84 1.31-23.67 2.2-35.5 3.5z"/><path fill="#14B3EF" d="M112.93 27.25c-2.63 1.31-4.39.88-5.7-1.75-.88-2.2-2.63-4.38-3.5-6.58 3.5-2.19 3.5-2.19 5.25.88 1.32 2.63 2.63 4.82 3.95 7.45"/><path fill="#0CB0EE" d="M92.33 19.36c3.95-.87 3.95-1.31 5.7 2.2 1.31 1.75 2.19 3.94 3.07 6.13v.87c-3.07 1.76-3.51.88-5.26-1.75-.88-2.63-2.2-4.82-3.5-7.45"/><path fill="#12B2EF" d="M80.94 20.68c3.94-1.32 4.38-1.32 6.13 2.19.88 2.19 2.2 4.38 3.5 6.57-1.74 1.32-3.5 1.75-4.81-.44-1.32-3.06-3.07-5.7-4.82-8.32M79.19 30.32c-2.63 1.31-4.39.87-5.26-1.76a100 100 0 0 0-3.95-7c4.39-1.32 4.39-1.32 6.14 2.18.88 2.2 1.75 3.95 3.07 6.58"/><path fill="#0EB1EF" d="M68.67 31.2c-3.07 1.3-4.38.43-5.7-1.76-1.31-2.19-2.63-4.82-3.94-7.01 3.07-1.31 4.38-.88 5.7 1.75 1.31 2.2 2.63 4.38 3.94 7.01"/><path fill="#2ABAF1" d="M88.39 40.83v1.32c-6.14.87-12.27 1.75-19.28 1.75 3.5-1.75 10.08-3.07 19.28-3.07"/><path fill="#27B8F0" d="M123.88 39.08v-1.75c.88 0 2.2 0 2.63.44a33 33 0 0 1 3.94 7c-2.63-.43-3.06-2.18-3.94-3.06-.44-1.32-1.75-2.2-2.63-2.63"/></g><defs><clipPath id="a"><path fill="#fff" d="M0 .46h200v165.22H0z"/></clipPath></defs></svg>