<svg xmlns="http://www.w3.org/2000/svg" width="200" height="166" fill="none"><g clip-path="url(#a)"><path fill="#06AFEF" d="m144.913.565 17.089 30.234c.439.438.439.877.877 1.753-1.315 0-2.191 0-3.067.438-2.191.438-3.068-.438-4.382-2.19-3.944-7.012-7.887-14.022-12.269-21.471-.877-1.753-1.753-2.191-4.382-2.191-10.954 1.314-21.909 2.19-32.425 3.067-13.584 1.314-27.167 2.629-40.75 4.382-10.517.876-21.472 2.19-31.988 3.067-7.449.876-14.46 1.314-22.347 2.19.438.877.438 1.315.438 2.192C32.302 62.348 53.334 102.66 73.93 142.973c3.505 7.011 3.505 6.573 11.392 5.258 9.64-2.191 19.718-3.944 29.358-6.134 1.315-.439 2.629-.439 3.506.876a1794 1794 0 0 1 10.954 9.64c-2.191.438-4.382.876-6.573 1.753-15.774 3.505-31.11 7.01-46.885 10.516-3.505.876-3.505.876-5.696-2.629-15.336-29.796-30.673-60.031-46.009-89.827-7.449-14.022-14.46-28.481-21.909-42.503.438-1.315-.438-1.753-.876-2.63v-2.628c1.753-2.63 3.505-5.258 5.258-7.45.876-1.314 1.753-2.628 3.944-2.628 14.021-1.315 28.043-3.068 42.065-4.382 10.516-.876 21.47-2.191 31.987-3.067 14.46-1.315 28.92-3.068 43.38-4.382 2.629-.438 5.258-1.315 7.887-1.753 3.067-.438 6.134-.438 9.201-.438"/><path fill="#818385" d="M198.809 131.142v4.82c0 6.135 0 6.135-5.696 7.449-17.089 3.944-34.616 4.382-51.705-1.314-17.089-5.697-26.729-17.966-29.796-35.493-1.753-10.078-1.753-20.594.876-30.672 3.505-13.584 11.831-22.786 24.976-28.044 12.707-4.82 26.291-6.134 39.874-4.382 6.135.877 11.831 1.753 17.966 2.63 2.629.438 3.505 1.314 3.067 3.943v7.887c-12.269-4.382-24.538-5.258-36.807-4.382-6.573.439-12.707 1.753-18.403 4.82-9.64 4.382-15.337 12.27-17.528 22.348-2.191 9.64-1.752 19.279.877 28.919 3.943 13.146 12.707 21.033 25.852 24.538 12.707 3.068 25.853 2.629 38.56-.438 2.629-1.314 4.82-1.753 7.887-2.629"/><path fill="#0DB1EF" d="M69.547 43.944c-.877.439-1.753.877-3.068 1.315 3.068 5.696 5.697 10.954 8.326 16.213l19.718 38.121c.876 2.191 1.753 4.82 5.258 3.506.438 0 1.315.876 1.315 1.314 0 .876-.439 2.629-.877 2.629-1.752.876-3.943.876-5.696 1.315-.438 0-1.315-.877-1.753-1.315-.876-1.753-1.753-3.067-2.629-4.82-8.764-17.089-17.527-34.178-25.852-51.705q-3.945-7.23 5.258-6.573"/><path fill="#0BB0EF" d="M88.388 40.877c11.831-1.315 23.662-2.19 35.493-3.505v1.752c-11.831 1.315-23.662 2.191-35.493 3.506z"/><path fill="#14B3EF" d="M112.926 27.294c-2.629 1.314-4.381.876-5.696-1.753-.876-2.19-2.629-4.382-3.505-6.573 3.505-2.19 3.505-2.19 5.258.877 1.314 2.629 2.629 4.82 3.943 7.449"/><path fill="#0CB0EE" d="M92.332 19.407c3.944-.877 3.944-1.315 5.696 2.19 1.315 1.753 2.191 3.944 3.068 6.135v.876c-3.068 1.753-3.506.877-5.258-1.752-.877-2.63-2.191-4.82-3.506-7.45"/><path fill="#12B2EF" d="M80.94 20.721c3.943-1.314 4.381-1.314 6.134 2.19.876 2.192 2.19 4.383 3.505 6.574-1.752 1.314-3.505 1.752-4.82-.439-1.314-3.067-3.067-5.696-4.82-8.325M79.187 30.361c-2.63 1.315-4.382.876-5.258-1.753-1.315-2.629-2.63-4.82-3.944-7.01 4.382-1.315 4.382-1.315 6.134 2.19.877 2.191 1.753 3.944 3.068 6.573"/><path fill="#0EB1EF" d="M68.67 31.237c-3.067 1.315-4.382.438-5.696-1.752s-2.63-4.82-3.944-7.011c3.067-1.315 4.382-.877 5.697 1.752 1.314 2.191 2.629 4.382 3.943 7.011"/><path fill="#2ABAF1" d="M88.388 40.877v1.314c-6.134.877-12.269 1.753-19.28 1.753 3.506-1.753 10.078-3.067 19.28-3.067"/><path fill="#27B8F0" d="M123.881 39.124v-1.752c.876 0 2.191 0 2.629.438 1.314 1.752 2.629 3.943 3.944 7.01-2.63-.438-3.068-2.19-3.944-3.067-.438-1.314-1.753-2.19-2.629-2.629"/></g><defs><clipPath id="a"><path fill="#fff" d="M0 .502h200v165.217H0z"/></clipPath></defs></svg>