<svg xmlns="http://www.w3.org/2000/svg" width="200" height="46" fill="none"><g fill="#A3CB37" fill-rule="evenodd" clip-path="url(#a)" clip-rule="evenodd"><path d="M130.133.902c1.343.132 2.681.263 3.992.633a17.2 17.2 0 0 1 5.579 2.71 17.13 17.13 0 0 1 5.495 6.747c.854 1.862 1.386 3.811 1.496 5.855.172 3.203.028 6.412.075 9.618.018 1.256.003 2.514-.179 3.756-.34 2.324-1.098 4.51-2.334 6.516-2.159 3.5-5.177 5.966-9.051 7.35-2.247.804-4.574 1.081-6.966.904q-4.764-.351-8.647-3.093-4.433-3.137-6.301-8.248c-.735-2.01-1.035-4.083-1.031-6.212q.007-4.585 0-9.171c-.004-3.304.826-6.38 2.581-9.183 1.972-3.151 4.681-5.458 8.13-6.876 1.454-.598 2.952-1.037 4.531-1.146.118-.008.216-.031.252-.16zm5.998 22.066h.008c0-1.61-.005-3.22.001-4.831a6.6 6.6 0 0 0-.322-2.087c-1.004-3.114-4.378-5.215-7.802-4.372-3.012.741-5.091 3.329-5.104 6.42-.013 3.234-.002 6.468-.003 9.703 0 .686.091 1.362.302 2.013 1.182 3.642 5.153 5.632 8.794 4.18 2.274-.906 4.069-3.331 4.119-5.786.036-1.746.007-3.493.007-5.24M18.35.902c2.066.13 4.082.488 6 1.303 4.123 1.754 7.17 4.633 9.1 8.677 1.147 2.4 1.64 4.94 1.629 7.594-.014 3.179.098 6.362-.025 9.537-.28 7.154-3.707 12.33-10.144 15.481-2.418 1.184-5.017 1.665-7.7 1.538-5.46-.256-9.861-2.578-13.205-6.895C2.545 36.252 1.58 34.126 1 31.824A15.5 15.5 0 0 1 .546 28.1c-.015-3.425-.114-6.854.017-10.274.27-7.05 3.686-12.134 9.98-15.297 2.088-1.05 4.342-1.478 6.659-1.627zm6.072 22.08c0-1.624-.009-3.247.002-4.87.008-1.015-.229-1.967-.662-2.876-1.524-3.19-5.401-4.655-8.611-3.18-2.556 1.175-3.915 3.248-3.98 6.048-.073 3.15-.018 6.301-.017 9.452 0 1.06.206 2.076.635 3.051 1.344 3.055 5.118 4.65 8.212 3.496 2.626-.98 4.48-3.527 4.426-6.416-.03-1.568-.005-3.137-.005-4.706M92.08.902c.473.232 1.003.191 1.504.29 2.485.494 4.678 1.579 6.61 3.192 2.627 2.194 4.348 4.98 5.209 8.276.521 1.99.66 4.018.405 6.08-.381 3.086-1.491 5.853-3.432 8.281-.217.272-.215.446.006.724a16.06 16.06 0 0 1 3.253 7.113c.215 1.145.31 2.293.304 3.456q-.018 3.151.004 6.304c.002.332-.075.441-.425.44a1017 1017 0 0 0-9.677.001c-.404.002-.47-.144-.468-.496.012-2.225.019-4.45 0-6.674-.013-1.646-.614-3.048-1.869-4.14-.798-.695-1.73-1.067-2.797-1.067-4.456-.003-8.911-.007-13.366.008-.387.001-.469-.113-.467-.477q.021-4.831-.001-9.662c-.002-.372.112-.449.463-.448 4.264.012 8.532-.098 12.792.04 3.555.116 5.564-3.038 5.216-6.012-.183-1.566-.858-2.873-2.15-3.829-.787-.582-1.674-.821-2.64-.821-4.388.001-8.775-.006-13.162.01-.417.002-.523-.104-.52-.52.018-3.206.01-6.414.01-9.62 0-.15.016-.3.025-.449zM183.359.902c.645.182 1.318.175 1.974.296a17 17 0 0 1 6.553 2.692c2.896 1.97 5.015 4.586 6.342 7.823.738 1.8 1.196 3.68 1.21 5.634.026 3.698.06 7.397-.003 11.094-.061 3.633-1.292 6.896-3.488 9.778-2.103 2.76-4.812 4.724-8.089 5.882-1.696.599-3.451.93-5.251.938-3.991.018-7.981.006-11.972.017-.301 0-.397-.077-.396-.389q.018-4.913-.001-9.825c-.001-.333.122-.371.403-.37 3.786.007 7.572.021 11.357 0 3.001-.017 5.107-1.444 6.341-4.161.378-.832.493-1.725.494-2.63.006-3.152.033-6.305-.006-9.457-.036-2.978-1.494-5.06-4.198-6.272-.805-.36-1.676-.47-2.557-.47-3.785-.002-7.571-.006-11.356.007-.373.001-.48-.095-.478-.476.012-3.37.002-6.74-.001-10.111zM54.6.902c.63.186 1.29.175 1.932.297 1.876.356 3.643.987 5.299 1.934 3.737 2.135 6.332 5.236 7.812 9.262.604 1.645.942 3.36.954 5.114.025 3.59.087 7.18-.008 10.767-.139 5.24-2.322 9.537-6.34 12.896-1.848 1.546-3.965 2.61-6.28 3.262-1.436.404-2.91.61-4.405.612-3.895.005-7.79 0-11.686.01-.311.001-.42-.068-.419-.404q.021-4.892 0-9.785c-.001-.34.112-.397.417-.396 3.745.01 7.49.007 11.235.006 3.025 0 5.344-1.541 6.483-4.327.252-.619.415-1.271.416-1.945.006-3.494.023-6.988-.004-10.481-.02-2.48-2.023-5.089-4.387-5.85a8.4 8.4 0 0 0-2.615-.394c-3.69.003-7.38-.004-11.07.01-.379.002-.476-.101-.474-.475.017-3.37.015-6.742.018-10.113zM164.086.902c-.005.368-.014.736-.014 1.104-.001 14.18-.003 28.36.009 42.539 0 .426-.118.517-.526.514-3.211-.017-6.423-.014-9.635-.002-.337 0-.436-.087-.436-.43.009-14.467.008-28.932.008-43.399 0-.108.009-.217.014-.326z"/></g><defs><clipPath id="a"><path fill="#fff" d="M0 .41h200v45.136H0z"/></clipPath></defs></svg>