<svg xmlns="http://www.w3.org/2000/svg" width="200" height="47" fill="none"><path fill="#A3CB37" fill-rule="evenodd" d="M130.13 1.46a17.18 17.18 0 0 1 15.07 10.09 16 16 0 0 1 1.5 5.85c.17 3.2.02 6.42.07 9.62.02 1.26 0 2.52-.18 3.76a17 17 0 0 1-2.33 6.51 17.2 17.2 0 0 1-16.02 8.26 17 17 0 0 1-8.65-3.1 17 17 0 0 1-6.3-8.24 18 18 0 0 1-1.03-6.21v-9.18c0-3.3.83-6.38 2.58-9.18a17 17 0 0 1 8.13-6.87c1.46-.6 2.95-1.04 4.53-1.15q.2.02.25-.16zm6 22.07.01-4.84q0-1.06-.32-2.08a6.62 6.62 0 0 0-12.9 2.05q-.02 4.84-.01 9.7 0 1.03.3 2.01a6.65 6.65 0 0 0 8.8 4.18 6.7 6.7 0 0 0 4.11-5.78c.04-1.75.01-3.5.01-5.24M18.35 1.46c2.07.13 4.08.49 6 1.3a17.2 17.2 0 0 1 10.73 16.27c-.02 3.18.1 6.37-.03 9.54-.28 7.15-3.7 12.33-10.14 15.48a15.6 15.6 0 0 1-7.7 1.54 17 17 0 0 1-13.2-6.9A17 17 0 0 1 .54 28.66C.53 25.23.43 21.8.56 18.38c.27-7.05 3.69-12.13 9.98-15.3a17 17 0 0 1 6.66-1.62zm6.07 22.08v-4.87q0-1.52-.66-2.88a6.6 6.6 0 0 0-8.6-3.18 6.4 6.4 0 0 0-3.99 6.05c-.07 3.15-.02 6.3-.02 9.45q0 1.6.64 3.05a6.7 6.7 0 0 0 8.21 3.5 6.8 6.8 0 0 0 4.43-6.41c-.03-1.57 0-3.14 0-4.71M92.08 1.46c.47.23 1 .2 1.5.29q3.73.76 6.61 3.2a15.7 15.7 0 0 1 5.21 8.27q.78 2.99.4 6.08a16 16 0 0 1-3.42 8.28c-.22.27-.22.44 0 .72a16 16 0 0 1 3.26 7.12q.3 1.71.3 3.45v6.3c0 .34-.07.45-.42.45q-4.84-.03-9.68 0c-.4 0-.47-.15-.47-.5a490 490 0 0 0 0-6.67 5.3 5.3 0 0 0-1.87-4.14 4.2 4.2 0 0 0-2.8-1.07H77.35c-.39 0-.47-.1-.47-.47q.03-4.83 0-9.66c0-.37.11-.45.47-.45 4.26.01 8.53-.1 12.79.04 3.55.12 5.56-3.04 5.21-6.01a5.3 5.3 0 0 0-2.15-3.83 4.3 4.3 0 0 0-2.64-.82H77.4c-.42.01-.52-.1-.52-.51q.02-4.8.01-9.62l.03-.45zM183.36 1.46c.64.18 1.32.17 1.97.3a17 17 0 0 1 6.55 2.69 17 17 0 0 1 6.35 7.82 15 15 0 0 1 1.2 5.63c.03 3.7.07 7.4 0 11.1a16.3 16.3 0 0 1-3.48 9.78 17.2 17.2 0 0 1-13.34 6.82q-5.99.01-11.98.01c-.3 0-.4-.07-.4-.39q.03-4.91 0-9.82c0-.33.13-.37.41-.37q5.68.02 11.36 0c3-.02 5.1-1.44 6.34-4.16.38-.83.5-1.73.5-2.63 0-3.15.03-6.3-.01-9.46-.04-2.98-1.5-5.06-4.2-6.27a6 6 0 0 0-2.56-.47h-11.35c-.38 0-.48-.09-.48-.47V1.46zM54.6 1.46c.63.19 1.29.17 1.93.3q2.82.52 5.3 1.93a17.2 17.2 0 0 1 8.77 14.38c.02 3.59.08 7.18-.01 10.76a16.8 16.8 0 0 1-6.34 12.9 16.8 16.8 0 0 1-10.69 3.87l-11.68.01c-.31 0-.42-.06-.42-.4v-9.79c0-.34.11-.4.42-.4q5.62.03 11.23.01a6.65 6.65 0 0 0 6.48-4.32q.4-.93.42-1.95.02-5.25 0-10.48a6.7 6.7 0 0 0-4.4-5.85 8 8 0 0 0-2.6-.4q-5.55 0-11.08.02c-.37 0-.47-.1-.47-.48q.02-5.05.02-10.11zM164.09 1.46l-.02 1.1.01 42.54c0 .43-.12.52-.53.52q-4.8-.03-9.63 0c-.34 0-.44-.1-.44-.44l.01-43.4.02-.32z" clip-rule="evenodd"/></svg>