<svg xmlns="http://www.w3.org/2000/svg" width="200" height="271" fill="none"><g clip-path="url(#a)"><path fill="#2F82C6" d="m146.79 31.87 13.73 34.43L116 46.66z"/><path fill="#2868B0" d="m115.32 109.24 69.78-30.65v61.59z"/><path fill="#455578" d="M114.56 180.37 172.8 206l26.7-61.13z"/><path fill="#52ADD2" d="m95.26 39.01-21.24-9.37 26-28.61h-.04l26 28.6-21.4 9.45a12 12 0 0 1-2.17.8 8.7 8.7 0 0 1-4.65-.08q-1.13-.27-2.2-.67z"/><path fill="#2F82C6" d="M53.22 31.87 39.48 66.3 84 46.66zM98 104.3q-.45-.1-.89-.3L37.2 77.88 97.25 51.7q.37-.16.77-.27a8.6 8.6 0 0 1 3.95 0q.4.1.77.27l60.05 26.18q-29.97 13.06-59.93 26.13-.37.16-.78.27h-.02a8 8 0 0 1-3.77.08z"/><path fill="#2868B0" d="M84.68 109.24 14.9 78.59v61.59z"/><path fill="#455578" d="M85.44 180.37 27.19 206 .5 144.88zM99.95 185.43q-.52.04-1.03.16-1.05.23-2.03.62l-59.53 26.54 54.5 24.07a2.3 2.3 0 0 1 1.4 2.13v31.51h13.5v-31.5a2.3 2.3 0 0 1 1.38-2.14l54.5-24.07-59.53-26.56a13 13 0 0 0-3.06-.78"/><path fill="#2868B0" d="M97.86 174.85c-1.61-.73-30.03-12.97-69.11-29.8l68.09-29.59a8.1 8.1 0 0 1 6.33 0l68.08 29.59-69.1 29.8q-.86.36-1.78.45-.35.04-.69 0a7 7 0 0 1-1.82-.45"/></g><defs><clipPath id="a"><path fill="#fff" d="M0 .17h200v270.65H0z"/></clipPath></defs></svg>