<svg xmlns="http://www.w3.org/2000/svg" width="200" height="272" fill="none"><path fill="#2F82C6" d="m146.789 32.187 13.729 34.43-44.519-19.64z"/><path fill="#2868B0" d="m115.316 109.549 69.785-30.643v61.584z"/><path fill="#455578" d="m114.556 180.682 58.248 25.634 26.695-61.128z"/><path fill="#52ADD2" d="m95.262 39.327-21.24-9.377 25.996-28.608h-.04l25.997 28.608-21.388 9.443q-.65.31-1.333.54c-.29.1-.569.184-.845.257a8.7 8.7 0 0 1-3.996.074 21.95 21.95 0 0 1-2.861-.815c-.092-.038-.191-.074-.29-.122"/><path fill="#2F82C6" d="m53.218 32.187-13.737 34.43 44.516-19.643zM98.006 104.62a5 5 0 0 1-.893-.301L37.197 78.194l60.056-26.177q.373-.166.767-.272a8.6 8.6 0 0 1 1.995-.231 8.2 8.2 0 0 1 1.954.231q.394.107.767.272l60.056 26.177-59.934 26.125q-.377.166-.775.272h-.019a8.1 8.1 0 0 1-3.775.081z"/><path fill="#2868B0" d="M84.68 109.549 14.896 78.906v61.584z"/><path fill="#455578" d="m85.437 180.682-58.245 25.637L.498 145.191zM99.952 185.74a7 7 0 0 0-1.032.162q-1.04.227-2.027.624l-59.534 26.54 54.51 24.073a2.33 2.33 0 0 1 1.388 2.126v31.514h13.494v-31.514a2.32 2.32 0 0 1 1.388-2.126l54.51-24.073-59.542-26.558a12.6 12.6 0 0 0-2.027-.625 7 7 0 0 0-1.032-.161"/><path fill="#2868B0" d="M97.859 175.166c-1.609-.735-30.026-12.969-69.11-29.806 0 0 66.113-28.722 68.089-29.582a8.15 8.15 0 0 1 6.328 0c1.994.853 68.088 29.582 68.088 29.582l-69.109 29.806a6.3 6.3 0 0 1-1.778.451 2.6 2.6 0 0 1-.687 0 7 7 0 0 1-1.821-.451"/></svg>