<svg xmlns="http://www.w3.org/2000/svg" width="200" height="271" fill="none"><g clip-path="url(#a)"><path fill="#2F82C6" d="m146.789 31.703 13.729 34.43-44.519-19.64z"/><path fill="#2868B0" d="m115.316 109.065 69.785-30.643v61.583z"/><path fill="#455578" d="m114.556 180.198 58.248 25.633 26.695-61.128z"/><path fill="#52ADD2" d="m95.262 38.843-21.24-9.377L100.018.857h-.04l25.997 28.609-21.388 9.443q-.65.309-1.333.54c-.29.099-.569.183-.845.257a8.7 8.7 0 0 1-3.996.073 21.95 21.95 0 0 1-2.861-.815c-.092-.037-.191-.074-.29-.121"/><path fill="#2F82C6" d="m53.218 31.703-13.737 34.43L83.997 46.49zM98.006 104.136a5 5 0 0 1-.893-.301L37.197 77.709l60.056-26.177q.373-.166.767-.271a8.6 8.6 0 0 1 1.995-.232 8.2 8.2 0 0 1 1.954.232q.394.106.767.271l60.056 26.177q-29.967 13.06-59.934 26.126a5 5 0 0 1-.775.271h-.019a8.1 8.1 0 0 1-3.775.081z"/><path fill="#2868B0" d="M84.68 109.065 14.896 78.422v61.583z"/><path fill="#455578" d="m85.437 180.198-58.245 25.637L.498 144.707zM99.952 185.256a7 7 0 0 0-1.032.161q-1.04.228-2.027.625l-59.534 26.54 54.51 24.072a2.33 2.33 0 0 1 1.388 2.127v31.513h13.494v-31.513a2.325 2.325 0 0 1 1.388-2.127l54.51-24.072-59.542-26.559a12.5 12.5 0 0 0-2.027-.624 7 7 0 0 0-1.032-.162"/><path fill="#2868B0" d="M97.859 174.681c-1.609-.734-30.026-12.969-69.11-29.805 0 0 66.113-28.722 68.089-29.582a8.15 8.15 0 0 1 6.328 0c1.994.852 68.088 29.582 68.088 29.582l-69.109 29.805a6.3 6.3 0 0 1-1.778.452 2.6 2.6 0 0 1-.687 0 7 7 0 0 1-1.821-.452"/></g><defs><clipPath id="a"><path fill="#fff" d="M0 .002h200v270.647H0z"/></clipPath></defs></svg>