<svg xmlns="http://www.w3.org/2000/svg" width="200" height="132" fill="none"><path fill="#77B900" d="M20.899 56.933s18.09-26.01 53.889-28.646v-9.423C34.756 22.255.498 55.047.498 55.047s19.63 55.406 74.29 60.306v-10.178c-40.417-4.9-53.89-48.242-53.89-48.242"/><path fill="#77B900" d="M74.788 85.575v9.046C44.378 89.344 35.91 58.438 35.91 58.438S50.538 42.61 74.788 39.97v10.177c-12.703-1.505-22.71 10.177-22.71 10.177s5.388 19.6 22.71 25.251"/><path fill="#77B900" d="M74.788 1.527v17.337c1.154 0 2.309 0 3.464-.377 45.421-1.505 74.675 36.183 74.675 36.183s-33.873 40.705-69.286 40.705c-3.08 0-6.159-.377-9.238-.754v10.932c2.31.377 5.004.377 7.698.377 32.718 0 56.584-16.586 79.679-35.806 3.849 3.014 19.246 10.174 22.71 13.569-21.94 18.091-72.75 32.414-101.62 32.414-2.694 0-5.388 0-8.083-.377v15.074h124.715V1.527z"/><path fill="#77B900" d="M74.788 39.97V28.286h3.464c32.718-1.132 53.889 27.514 53.889 27.514s-23.095 31.283-47.73 31.283c-3.465 0-6.929-.377-9.623-1.509V50.147c12.702 1.509 15.397 7.163 22.71 19.223l16.937-13.946s-12.318-15.828-33.104-15.828c-2.31 0-4.619.373-6.543.373"/></svg>