<svg xmlns="http://www.w3.org/2000/svg" width="200" height="183" fill="none"><path fill="#FE660E" fill-rule="evenodd" d="M.718 1.835a83.5 83.5 0 0 1 17.417.941 751 751 0 0 1 .942 71.553q-.096 3.597-2.354 6.12-7.885 1.137-15.534-.47Q.483 40.908.718 1.834" clip-rule="evenodd" opacity=".966"/><path fill="#FE660E" fill-rule="evenodd" d="M66.622 78.095q.12 1.407-.942 2.354a52.3 52.3 0 0 1-18.83-.942A1330 1330 0 0 1 38.849 55.5q-1.654-1.967-4.237-2.353a188 188 0 0 0-13.18-1.413V36.67a91.3 91.3 0 0 0 18.83-2.354q4.47-2.352 3.765-7.532.857-5.824-4.707-7.532a163 163 0 0 0-18.83-2.354V1.835q14.672-.523 29.186 1.412 9.746 3.628 12.71 13.651a53.2 53.2 0 0 1 0 14.123 66.7 66.7 0 0 1-8.002 10.827 26.6 26.6 0 0 1 4.236 7.061 968 968 0 0 0 8.003 29.186" clip-rule="evenodd" opacity=".955"/><path fill="#FE660E" fill-rule="evenodd" d="M66.622 78.095a682 682 0 0 1-.47-60.255 30.5 30.5 0 0 1 1.412-5.649q-2.776-4.305-1.413-9.415a92.5 92.5 0 0 1 18.36-.941 6762 6762 0 0 1-1.413 74.377q-.638 7.497-7.061 3.296-3.62-3.214.941-5.65a14.4 14.4 0 0 1-4.236-1.412 32 32 0 0 0-1.413 7.532q-2.843.154-4.707-1.883m3.766-72.494q3.192 1.042.47 2.824-2.44-1.203-.47-2.824m2.824 19.771q1.713 1.408-.47 2.825-.663-1.521.47-2.825" clip-rule="evenodd" opacity=".942"/><path fill="#FE660E" fill-rule="evenodd" d="M86.393 1.835h37.66V17.84h-37.66z" clip-rule="evenodd" opacity=".909"/><path fill="#FE660E" fill-rule="evenodd" d="M126.877 1.835q8.957-.235 17.888.47a916 916 0 0 1 17.418 44.721q.942 16.005 0 32.01-2.151 2.995-5.178.942a44 44 0 0 1-4.237-7.531 9645 9645 0 0 1-25.891-70.612" clip-rule="evenodd" opacity=".933"/><path fill="#FE660E" fill-rule="evenodd" d="M181.483 1.835h17.889a1175 1175 0 0 1-25.891 73.436q-1.746 7.161-8.944 5.649-.236-16.484.47-32.952a4069 4069 0 0 0 16.476-46.133" clip-rule="evenodd" opacity=".938"/><path fill="#FE660E" fill-rule="evenodd" d="M90.159 31.02q14.13-.235 28.245.471a8.9 8.9 0 0 1 2.353 1.413q.705 6.573.471 13.18H87.335a62 62 0 0 1-.471-12.239q1.39-1.856 3.295-2.824" clip-rule="evenodd" opacity=".95"/><path fill="#FE660E" fill-rule="evenodd" d="M90.16 64.915h34.834V80.92q-15.071.235-30.127-.47-1.968-1.655-2.354-4.238a12.2 12.2 0 0 0-.471 4.708q-5.667.944-5.649-4.708.161-6.32 3.766-11.297" clip-rule="evenodd" opacity=".936"/><path fill="#FE660E" fill-rule="evenodd" d="M61.915 100.691q7.76-.685 14.593 2.824a200 200 0 0 1 .941 37.66q-.615 3.315-1.412 6.59a250 250 0 0 1 1.883 32.952 126 126 0 0 1-18.83.942q-1.012-39.982 0-80.027 1.824.336 2.825-.941" clip-rule="evenodd" opacity=".952"/><path fill="#FE660E" fill-rule="evenodd" d="M80.744 101.632q16.798-1.812 32.011 5.178 14.224 16.63 4.237 36.248-7.344 10.382-20.242 10.827a53.2 53.2 0 0 1-14.123 0q-4.815-1.775-3.766-7.061-.412-5.117 2.825-8.944l13.18-.942q12.354-6.103 3.767-16.947a86.4 86.4 0 0 0-18.36-3.295q-2.808-7.84.471-15.064" clip-rule="evenodd" opacity=".944"/><path fill="#FE660E" fill-rule="evenodd" d="M125.936 102.574h16.946q-.714 38.598-1.412 77.202a43 43 0 0 1-17.888 0q-.283-38.01-.471-76.261 1.823.335 2.825-.941" clip-rule="evenodd" opacity=".963"/></svg>