<svg xmlns="http://www.w3.org/2000/svg" width="200" height="182" fill="none"><g fill="#FE660E" fill-rule="evenodd" clip-path="url(#a)" clip-rule="evenodd"><path d="M.718 1.35a83.5 83.5 0 0 1 17.417.942 751 751 0 0 1 .942 71.553q-.096 3.597-2.354 6.12-7.885 1.137-15.534-.471Q.483 40.425.718 1.35" opacity=".966"/><path d="M66.622 77.61q.12 1.407-.942 2.354a52.3 52.3 0 0 1-18.83-.941 1330 1330 0 0 1-8.002-24.008q-1.654-1.968-4.237-2.354a188 188 0 0 0-13.18-1.412V36.185a91.4 91.4 0 0 0 18.83-2.353q4.47-2.354 3.765-7.532.857-5.825-4.707-7.532a163 163 0 0 0-18.83-2.354V1.35Q35.161.828 49.675 2.763q9.746 3.627 12.71 13.651a53.2 53.2 0 0 1 0 14.122 66.7 66.7 0 0 1-8.002 10.827 26.6 26.6 0 0 1 4.236 7.062 968 968 0 0 0 8.003 29.186" opacity=".955"/><path d="M66.622 77.611a682 682 0 0 1-.47-60.255 30.5 30.5 0 0 1 1.412-5.649q-2.776-4.306-1.413-9.415a92.5 92.5 0 0 1 18.36-.941 6762 6762 0 0 1-1.413 74.377q-.638 7.497-7.061 3.295-3.62-3.214.941-5.649a14.4 14.4 0 0 1-4.236-1.412 32 32 0 0 0-1.413 7.532q-2.843.154-4.707-1.883m3.766-72.494q3.192 1.042.47 2.824-2.44-1.203-.47-2.824m2.824 19.77q1.713 1.41-.47 2.825-.663-1.52.47-2.824" opacity=".942"/><path d="M86.393 1.35h37.66v16.006h-37.66z" opacity=".909"/><path d="M126.877 1.35q8.957-.234 17.888.471a916 916 0 0 1 17.418 44.721q.942 16.005 0 32.01-2.151 2.994-5.178.942a44 44 0 0 1-4.237-7.532 9644 9644 0 0 1-25.891-70.611" opacity=".933"/><path d="M181.483 1.35h17.889a1175 1175 0 0 1-25.891 73.437q-1.746 7.16-8.944 5.648-.236-16.482.47-32.952a4070 4070 0 0 0 16.476-46.132" opacity=".938"/><path d="M90.159 30.536q14.13-.235 28.245.471a8.9 8.9 0 0 1 2.353 1.412q.705 6.574.471 13.181H87.335a62 62 0 0 1-.471-12.24q1.39-1.854 3.295-2.824" opacity=".95"/><path d="M90.16 64.43h34.834v16.005q-15.071.235-30.127-.47-1.968-1.654-2.354-4.237a12.2 12.2 0 0 0-.471 4.707q-5.667.944-5.649-4.707.161-6.32 3.766-11.298" opacity=".936"/><path d="M61.915 100.207q7.76-.686 14.593 2.824a200 200 0 0 1 .941 37.66q-.615 3.315-1.412 6.59a250 250 0 0 1 1.883 32.952 126 126 0 0 1-18.83.941 1582 1582 0 0 1 0-80.026q1.824.335 2.825-.941" opacity=".952"/><path d="M80.744 101.148q16.798-1.812 32.011 5.178 14.224 16.629 4.237 36.247-7.344 10.383-20.242 10.827a53.2 53.2 0 0 1-14.123 0q-4.815-1.775-3.766-7.061-.412-5.116 2.825-8.944l13.18-.941q12.354-6.103 3.767-16.947a86.4 86.4 0 0 0-18.36-3.295q-2.808-7.84.471-15.064" opacity=".944"/><path d="M125.936 102.089h16.946q-.714 38.6-1.412 77.202a43 43 0 0 1-17.888 0q-.283-38.009-.471-76.26 1.823.335 2.825-.942" opacity=".963"/></g><defs><clipPath id="a"><path fill="#fff" d="M0 .333h200v181.443H0z"/></clipPath></defs></svg>