<svg xmlns="http://www.w3.org/2000/svg" width="200" height="217" fill="none"><path fill="#127CC1" d="M198.873 39.02C189.504-6.605 101.238-9.524 44.341 25.239v3.87C101.171-.223 181.764-.088 189.164 41.94c2.445 13.92-5.296 28.381-19.282 36.732v10.932c16.77-6.179 33.948-26.14 28.991-50.583M95.399 118.868c-39.244 3.666-80.185-2.105-85.889-32.862-2.851-15.14 4.074-31.232 13.24-41.28V39.36C6.251 53.89-2.71 72.222 2.517 93.813c6.586 27.77 41.688 43.522 95.259 38.294 21.251-2.037 49.021-8.895 68.236-19.554V97.412c-17.518 10.524-46.442 19.214-70.613 21.455"/><path fill="#127CC1" d="M162.889 32.367h-10.321v46.034c0 5.432 2.58 10.117 10.321 10.863M40.268 49.206H30.015v30.078c0 5.431 2.58 10.116 10.32 10.863M40.335 33.793h-10.32v9.777h10.32zM101.985 89.672c-8.35 0-11.882-5.84-11.882-11.543V38.14h10.185v11.066h7.74v8.284h-7.74V77.45c0 2.377 1.154 3.667 3.531 3.667h4.141v8.555zM129.008 57.013c-3.463 0-6.179 1.834-7.265 4.278-.679 1.494-.883 2.58-1.018 4.413h15.751c-.203-4.481-2.24-8.69-7.468-8.69m-8.283 15.617c0 5.228 3.259 9.098 9.03 9.098 4.549 0 6.789-1.29 9.369-3.87l6.315 6.042c-4.074 4.006-8.284 6.45-15.752 6.45-9.777 0-19.147-5.363-19.147-20.98 0-13.307 8.148-20.844 18.875-20.844 10.864 0 17.11 8.827 17.11 20.437v3.667zM68.037 57.489c2.987 0 4.21 1.494 4.21 3.87v28.313H82.43V61.359c0-5.771-3.055-12.153-12.018-12.153H49.365V89.74H59.55V57.489M174.91 33.015q1.55 0 3.026.8a5.6 5.6 0 0 1 2.301 2.275q.825 1.477.824 3.084 0 1.59-.816 3.06a5.7 5.7 0 0 1-2.276 2.284 6.23 6.23 0 0 1-3.059.808 6.3 6.3 0 0 1-3.068-.808 5.8 5.8 0 0 1-2.276-2.284q-.816-1.47-.816-3.06 0-1.607.824-3.084a5.67 5.67 0 0 1 2.309-2.276q1.476-.8 3.027-.8m0 1.02q-1.297 0-2.529.669a4.75 4.75 0 0 0-1.918 1.9 5.17 5.17 0 0 0-.693 2.57q0 1.33.677 2.554a4.9 4.9 0 0 0 1.909 1.9 5.2 5.2 0 0 0 2.554.678q1.329 0 2.553-.677a4.84 4.84 0 0 0 1.901-1.901 5.2 5.2 0 0 0 .677-2.554 5.17 5.17 0 0 0-.693-2.57 4.7 4.7 0 0 0-1.917-1.9q-1.233-.67-2.521-.67m-2.701 8.541v-6.624h2.276q1.167 0 1.689.187.523.18.832.637.31.457.31.97 0 .727-.522 1.265-.513.539-1.37.604.35.147.563.35.399.393.979 1.314l.807 1.297h-1.305l-.587-1.044q-.694-1.231-1.118-1.542-.294-.228-.857-.228h-.628v2.814zm1.069-3.728h1.297q.93 0 1.265-.277a.9.9 0 0 0 .342-.735.87.87 0 0 0-.163-.522.96.96 0 0 0-.457-.35q-.285-.115-1.068-.115h-1.216zM193.985 202.04l-18.061-22.541-5.635 6.178v16.431h-3.802v-65.859h3.802v44.947l22.745-25.461h4.753l-19.283 21.319 20.301 25.054h-4.82zm-32.455-42.775c-.611-.271-1.154-.475-1.561-.543-.476-.136-.951-.136-1.562-.136-1.222 0-2.376.136-3.395.408-1.018.271-2.105.747-3.259 1.494-1.154.679-2.376 1.697-3.734 2.919q-2.037 1.833-4.889 4.685v33.948h-3.802v-46.373h3.802v8.419c1.562-1.629 3.056-2.987 4.346-4.142 1.29-1.154 2.512-2.104 3.734-2.851a14.4 14.4 0 0 1 3.463-1.63 13 13 0 0 1 3.666-.543c.747 0 1.494.068 2.173.204s1.358.407 2.037.679zM126.088 175.9l-9.301.951q-4.89.508-7.944 1.425c-2.037.612-3.599 1.426-4.753 2.377s-1.969 2.105-2.376 3.463c-.408 1.357-.612 2.919-.612 4.752 0 3.938.679 6.858 1.969 8.623s3.463 2.716 6.451 2.716c1.018 0 2.036-.136 3.055-.339 1.018-.204 2.105-.679 3.327-1.358s2.648-1.698 4.277-2.92 3.599-2.92 5.907-4.956zm0 26.14v-7.672c-1.425 1.358-2.851 2.512-4.141 3.666-1.358 1.087-2.648 2.037-4.006 2.852a20.6 20.6 0 0 1-4.142 1.901c-1.426.475-2.919.679-4.549.679-2.173 0-4.006-.339-5.567-.951a8.6 8.6 0 0 1-3.735-2.783c-.95-1.222-1.697-2.716-2.172-4.549-.476-1.766-.68-3.87-.68-6.179 0-2.037.204-3.87.68-5.567.475-1.698 1.425-3.259 2.783-4.549 1.426-1.358 3.395-2.445 5.907-3.395 2.58-.883 5.907-1.562 10.049-1.969l9.505-.951v-2.444c0-2.105-.203-4.006-.543-5.568-.407-1.561-1.086-2.919-2.037-3.938-.95-1.018-2.24-1.833-3.802-2.376s-3.598-.747-5.975-.747c-1.901 0-3.53.136-4.956.475-1.358.34-2.512.747-3.531 1.358a10 10 0 0 0-2.444 1.969c-.679.747-1.222 1.562-1.697 2.445l-2.784-1.834a16 16 0 0 1 2.444-3.191 11.2 11.2 0 0 1 3.191-2.376c1.222-.679 2.648-1.154 4.21-1.494 1.629-.339 3.463-.543 5.567-.543 2.988 0 5.568.339 7.605.951s3.734 1.629 5.024 2.919c1.29 1.358 2.173 2.988 2.716 5.024s.815 4.482.815 7.265v31.504h-3.735zm-39.855 0v-7.808c-3.055 2.784-5.907 5.024-8.555 6.654-2.716 1.629-5.296 2.444-7.876 2.444-2.444 0-4.413-.339-5.975-1.086q-2.342-1.12-3.666-3.259-1.325-2.139-1.833-5.296c-.34-2.105-.476-4.481-.476-7.129v-31.029h3.803v30.418c0 2.919.135 5.228.475 7.061.34 1.765.815 3.191 1.494 4.277.679 1.019 1.561 1.766 2.58 2.105 1.018.34 2.308.543 3.666.543 4.481 0 9.913-3.259 16.363-9.709v-34.627h3.802v46.373h-3.802zm-40.195-30.621c0-4.481-.34-8.555-1.018-12.018-.679-3.53-1.765-6.45-3.26-8.894-1.493-2.377-3.53-4.21-5.974-5.5-2.444-1.222-5.5-1.901-9.03-1.901-3.599 0-6.586.611-9.098 1.901-2.445 1.222-4.414 3.056-5.975 5.5-1.494 2.376-2.58 5.364-3.26 8.894q-1.017 5.297-1.018 12.018c0 4.481.34 8.419 1.019 11.95s1.765 6.45 3.259 8.894 3.463 4.278 5.975 5.5c2.444 1.29 5.5 1.901 9.098 1.901s6.586-.611 9.03-1.901a14.54 14.54 0 0 0 5.975-5.5c1.494-2.444 2.58-5.364 3.259-8.894.747-3.395 1.018-7.401 1.018-11.95m4.414 42.639c-1.222.475-2.58.883-4.006 1.154a22 22 0 0 1-4.142.408c-2.376 0-4.549-.272-6.382-.815-1.901-.543-3.53-1.358-4.957-2.445a16.5 16.5 0 0 1-3.666-3.87c-1.018-1.493-1.833-3.259-2.512-5.228-3.53-.271-6.654-1.086-9.302-2.444-2.716-1.358-4.888-3.327-6.722-5.907-1.765-2.58-3.123-5.839-4.074-9.709-.882-3.87-1.357-8.487-1.357-13.851 0-5.024.475-9.505 1.357-13.511.883-3.938 2.309-7.265 4.21-10.049 1.901-2.716 4.345-4.821 7.265-6.247 2.987-1.425 6.518-2.172 10.66-2.172q12.018 0 17.72 7.944c3.803 5.296 5.636 13.307 5.636 23.899 0 4.685-.407 8.895-1.154 12.697s-1.97 6.993-3.667 9.777c-1.697 2.716-3.87 4.888-6.586 6.518-2.715 1.63-5.974 2.58-9.912 2.92.543 1.357 1.154 2.58 1.9 3.666.748 1.086 1.698 1.969 2.784 2.716 1.087.747 2.377 1.29 3.803 1.697 1.425.408 3.055.611 4.956.611.543 0 1.154-.068 1.833-.136.68-.067 1.358-.135 1.97-.271.678-.136 1.221-.272 1.833-.407.543-.136 1.018-.272 1.357-.476z"/><path fill="#127CC1" d="m193.985 202.04-18.061-22.541-5.635 6.178v16.431h-3.802v-65.859h3.802v44.947l22.745-25.461h4.753l-19.283 21.319 20.301 25.054h-4.82zm-32.455-42.775c-.611-.271-1.154-.475-1.561-.543-.476-.136-.951-.136-1.562-.136-1.222 0-2.376.136-3.395.408-1.018.271-2.105.747-3.259 1.494-1.154.679-2.376 1.697-3.734 2.919q-2.037 1.833-4.889 4.685v33.948h-3.802v-46.373h3.802v8.419c1.562-1.629 3.056-2.987 4.346-4.142 1.29-1.154 2.512-2.104 3.734-2.851a14.4 14.4 0 0 1 3.463-1.63 13 13 0 0 1 3.666-.543c.747 0 1.494.068 2.173.204s1.358.407 2.037.679zM126.088 175.9l-9.301.951q-4.89.508-7.944 1.425c-2.037.612-3.599 1.426-4.753 2.377s-1.969 2.105-2.376 3.463c-.408 1.357-.612 2.919-.612 4.752 0 3.938.679 6.858 1.969 8.623s3.463 2.716 6.451 2.716c1.018 0 2.036-.136 3.055-.339 1.018-.204 2.105-.679 3.327-1.358s2.648-1.698 4.277-2.92 3.599-2.92 5.907-4.956zm0 26.14v-7.672c-1.425 1.358-2.851 2.512-4.141 3.666-1.358 1.087-2.648 2.037-4.006 2.852a20.6 20.6 0 0 1-4.142 1.901c-1.426.475-2.919.679-4.549.679-2.173 0-4.006-.339-5.567-.951a8.6 8.6 0 0 1-3.735-2.783c-.95-1.222-1.697-2.716-2.172-4.549-.476-1.766-.68-3.87-.68-6.179 0-2.037.204-3.87.68-5.567.475-1.698 1.425-3.259 2.783-4.549 1.426-1.358 3.395-2.445 5.907-3.395 2.58-.883 5.907-1.562 10.049-1.969l9.505-.951v-2.444c0-2.105-.203-4.006-.543-5.568-.407-1.561-1.086-2.919-2.037-3.938-.95-1.018-2.24-1.833-3.802-2.376s-3.598-.747-5.975-.747c-1.901 0-3.53.136-4.956.475-1.358.34-2.512.747-3.531 1.358a10 10 0 0 0-2.444 1.969c-.679.747-1.222 1.562-1.697 2.445l-2.784-1.834a16 16 0 0 1 2.444-3.191 11.2 11.2 0 0 1 3.191-2.376c1.222-.679 2.648-1.154 4.21-1.494 1.629-.339 3.463-.543 5.567-.543 2.988 0 5.568.339 7.605.951s3.734 1.629 5.024 2.919c1.29 1.358 2.173 2.988 2.716 5.024s.815 4.482.815 7.265v31.504h-3.735zm-39.855 0v-7.808c-3.055 2.784-5.907 5.024-8.555 6.654-2.716 1.629-5.296 2.444-7.876 2.444-2.444 0-4.413-.339-5.975-1.086q-2.342-1.12-3.666-3.259-1.325-2.139-1.833-5.296c-.34-2.105-.476-4.481-.476-7.129v-31.029h3.803v30.418c0 2.919.135 5.228.475 7.061.34 1.765.815 3.191 1.494 4.277.679 1.019 1.561 1.766 2.58 2.105 1.018.34 2.308.543 3.666.543 4.481 0 9.913-3.259 16.363-9.709v-34.627h3.802v46.373h-3.802zm-40.195-30.621c0-4.481-.34-8.555-1.018-12.018-.679-3.53-1.765-6.45-3.26-8.894-1.493-2.377-3.53-4.21-5.974-5.5-2.444-1.222-5.5-1.901-9.03-1.901-3.599 0-6.586.611-9.098 1.901-2.445 1.222-4.414 3.056-5.975 5.5-1.494 2.376-2.58 5.364-3.26 8.894q-1.017 5.297-1.018 12.018c0 4.481.34 8.419 1.019 11.95s1.765 6.45 3.259 8.894 3.463 4.278 5.975 5.5c2.444 1.29 5.5 1.901 9.098 1.901s6.586-.611 9.03-1.901a14.54 14.54 0 0 0 5.975-5.5c1.494-2.444 2.58-5.364 3.259-8.894.747-3.395 1.018-7.401 1.018-11.95m4.414 42.639c-1.222.475-2.58.883-4.006 1.154a22 22 0 0 1-4.142.408c-2.376 0-4.549-.272-6.382-.815-1.901-.543-3.53-1.358-4.957-2.445a16.5 16.5 0 0 1-3.666-3.87c-1.018-1.493-1.833-3.259-2.512-5.228-3.53-.271-6.654-1.086-9.302-2.444-2.716-1.358-4.888-3.327-6.722-5.907-1.765-2.58-3.123-5.839-4.074-9.709-.882-3.87-1.357-8.487-1.357-13.851 0-5.024.475-9.505 1.357-13.511.883-3.938 2.309-7.265 4.21-10.049 1.901-2.716 4.345-4.821 7.265-6.247 2.987-1.425 6.518-2.172 10.66-2.172q12.018 0 17.72 7.944c3.803 5.296 5.636 13.307 5.636 23.899 0 4.685-.407 8.895-1.154 12.697s-1.97 6.993-3.667 9.777c-1.697 2.716-3.87 4.888-6.586 6.518-2.715 1.63-5.974 2.58-9.912 2.92.543 1.357 1.154 2.58 1.9 3.666.748 1.086 1.698 1.969 2.784 2.716 1.087.747 2.377 1.29 3.803 1.697 1.425.408 3.055.611 4.956.611.543 0 1.154-.068 1.833-.136.68-.067 1.358-.135 1.97-.271.678-.136 1.221-.272 1.833-.407.543-.136 1.018-.272 1.357-.476z"/></svg>