<svg xmlns="http://www.w3.org/2000/svg" width="200" height="181" fill="none"><g clip-path="url(#a)"><path fill="#127CC1" d="M167.054 31.807C159.183-6.519 85.04-8.97 37.247 20.23v3.25C84.982-1.158 152.68-1.044 158.897 34.26c2.053 11.692-4.449 23.84-16.197 30.855v9.182c14.087-5.19 28.516-21.958 24.353-42.49M80.135 98.878C47.17 101.958 12.78 97.11 7.99 71.274 5.593 58.556 11.41 45.04 19.11 36.598v-4.506C5.251 44.298-2.277 59.696 2.114 77.832 7.646 101.16 37.132 114.392 82.132 110c17.85-1.711 41.177-7.472 57.318-16.426V80.856c-14.715 8.84-39.011 16.14-59.315 18.022"/><path fill="#127CC1" d="M136.826 26.218h-8.669v38.668c0 4.563 2.167 8.498 8.669 9.126M33.824 40.362h-8.612v25.266c0 4.563 2.168 8.498 8.67 9.125M33.881 27.416h-8.669v8.212h8.67zM85.668 74.354c-7.015 0-9.981-4.905-9.981-9.696V31.066h8.555v9.296h6.502v6.958h-6.502v16.768c0 1.996.97 3.08 2.966 3.08h3.479v7.186zM108.366 46.921c-2.908 0-5.19 1.54-6.102 3.593-.57 1.255-.741 2.167-.856 3.707h13.232c-.171-3.764-1.882-7.3-6.274-7.3m-6.958 13.118c0 4.391 2.738 7.642 7.586 7.642 3.821 0 5.703-1.084 7.87-3.25l5.304 5.075c-3.421 3.365-6.958 5.418-13.231 5.418-8.213 0-16.083-4.505-16.083-17.623 0-11.178 6.844-17.509 15.855-17.509 9.125 0 14.372 7.414 14.372 17.167v3.08zM57.15 47.32c2.51 0 3.537 1.255 3.537 3.251v23.783h8.555V50.571c0-4.848-2.567-10.209-10.095-10.209h-17.68v34.049h8.555v-27.09M146.924 26.762q1.302 0 2.543.671a4.7 4.7 0 0 1 1.932 1.913q.692 1.24.692 2.59a5.2 5.2 0 0 1-.685 2.57 4.8 4.8 0 0 1-1.912 1.919 5.24 5.24 0 0 1-2.57.678 5.3 5.3 0 0 1-2.577-.678 4.86 4.86 0 0 1-1.912-1.919 5.2 5.2 0 0 1-.685-2.57q0-1.35.692-2.59a4.77 4.77 0 0 1 1.94-1.913q1.24-.67 2.542-.671m0 .857q-1.089 0-2.124.561a4 4 0 0 0-1.611 1.597 4.34 4.34 0 0 0-.582 2.16q0 1.116.569 2.144.575 1.02 1.603 1.597 1.028.57 2.145.569 1.118 0 2.145-.57a4.06 4.06 0 0 0 1.597-1.596q.569-1.027.569-2.145 0-1.125-.583-2.159a3.92 3.92 0 0 0-1.61-1.597q-1.035-.561-2.118-.561m-2.268 7.175v-5.565h1.912q.98 0 1.418.158.44.15.699.534.261.384.261.816 0 .609-.439 1.062-.431.452-1.151.507.294.123.473.295.336.33.822 1.103l.679 1.09h-1.097l-.493-.877q-.584-1.035-.939-1.296-.248-.192-.72-.192h-.527v2.365zm.898-3.132h1.089q.781 0 1.062-.233a.75.75 0 0 0 .288-.617.73.73 0 0 0-.137-.439.8.8 0 0 0-.384-.294q-.24-.096-.897-.096h-1.021zM162.948 168.744l-15.171-18.935-4.734 5.19v13.802h-3.194v-55.322h3.194v37.755l19.106-21.387h3.992l-16.197 17.908 17.053 21.046h-4.049zm-27.262-35.931c-.514-.228-.97-.4-1.312-.457-.399-.114-.798-.114-1.312-.114-1.026 0-1.996.114-2.851.343-.856.228-1.768.627-2.738 1.254-.97.571-1.996 1.426-3.137 2.453q-1.71 1.54-4.106 3.935v28.517h-3.194V129.79h3.194v7.072c1.312-1.369 2.566-2.509 3.65-3.479s2.11-1.768 3.137-2.395a12 12 0 0 1 2.908-1.369 10.9 10.9 0 0 1 3.08-.456c.628 0 1.255.057 1.825.171s1.141.342 1.711.57zm-29.771 13.973-7.814.798q-4.107.428-6.673 1.198c-1.71.513-3.023 1.198-3.992 1.996-.97.799-1.654 1.768-1.996 2.909s-.514 2.452-.514 3.992c0 3.308.57 5.76 1.654 7.243s2.909 2.282 5.419 2.282c.855 0 1.71-.114 2.566-.286s1.768-.57 2.795-1.14c1.026-.571 2.224-1.426 3.593-2.453s3.022-2.452 4.962-4.163zm0 21.958v-6.445c-1.198 1.14-2.396 2.11-3.479 3.08-1.141.912-2.225 1.711-3.365 2.395a17.3 17.3 0 0 1-3.48 1.597c-1.197.399-2.452.57-3.82.57-1.826 0-3.366-.285-4.677-.798a7.24 7.24 0 0 1-3.137-2.339c-.799-1.026-1.426-2.281-1.825-3.821-.4-1.483-.57-3.251-.57-5.19 0-1.711.17-3.251.57-4.677s1.197-2.737 2.338-3.821c1.198-1.14 2.852-2.053 4.962-2.851 2.167-.742 4.962-1.312 8.44-1.654l7.986-.799v-2.053c0-1.768-.172-3.365-.457-4.677-.342-1.311-.912-2.452-1.711-3.308-.798-.855-1.882-1.54-3.194-1.996-1.311-.456-3.022-.627-5.018-.627-1.597 0-2.966.114-4.164.399-1.14.285-2.11.627-2.966 1.141a8.4 8.4 0 0 0-2.053 1.654 10.1 10.1 0 0 0-1.426 2.053l-2.338-1.54c.57-.97 1.255-1.882 2.053-2.681a9.4 9.4 0 0 1 2.68-1.996c1.027-.57 2.225-.969 3.537-1.254 1.369-.286 2.909-.457 4.677-.457 2.509 0 4.676.285 6.387.799 1.711.513 3.137 1.369 4.221 2.452 1.083 1.141 1.825 2.51 2.281 4.221s.684 3.764.684 6.102v26.463h-3.136zm-33.479 0v-6.559c-2.566 2.338-4.962 4.22-7.186 5.589-2.281 1.369-4.449 2.053-6.616 2.053-2.053 0-3.707-.285-5.019-.912q-1.968-.941-3.08-2.738-1.111-1.797-1.54-4.449c-.285-1.768-.399-3.764-.399-5.988v-26.064h3.194v25.551c0 2.452.114 4.391.4 5.931.285 1.483.684 2.681 1.254 3.593.57.856 1.312 1.483 2.167 1.768.856.285 1.94.456 3.08.456 3.764 0 8.327-2.737 13.745-8.155v-29.087h3.194v38.953h-3.194zm-33.763-25.722c0-3.765-.286-7.187-.856-10.095-.57-2.966-1.483-5.418-2.737-7.472-1.255-1.996-2.966-3.536-5.02-4.619-2.053-1.027-4.62-1.597-7.585-1.597-3.023 0-5.532.513-7.642 1.597-2.053 1.026-3.707 2.566-5.02 4.619-1.254 1.997-2.166 4.506-2.737 7.472q-.855 4.448-.855 10.095c0 3.764.285 7.072.855 10.037s1.483 5.419 2.738 7.472 2.909 3.593 5.019 4.619c2.053 1.084 4.62 1.597 7.642 1.597s5.532-.513 7.586-1.597a12.2 12.2 0 0 0 5.019-4.619c1.254-2.053 2.167-4.506 2.737-7.472.627-2.851.856-6.216.856-10.037m3.707 35.816a19.3 19.3 0 0 1-6.844 1.312c-1.996 0-3.821-.228-5.361-.684-1.597-.457-2.966-1.141-4.164-2.053a14 14 0 0 1-3.08-3.251c-.855-1.255-1.54-2.738-2.11-4.392-2.966-.228-5.589-.912-7.813-2.053-2.282-1.141-4.107-2.795-5.647-4.962-1.482-2.167-2.623-4.905-3.422-8.156-.74-3.251-1.14-7.129-1.14-11.634 0-4.221.4-7.985 1.14-11.35.742-3.308 1.94-6.103 3.537-8.441 1.596-2.281 3.65-4.049 6.102-5.247 2.51-1.198 5.475-1.825 8.954-1.825q10.095 0 14.886 6.673c3.194 4.448 4.734 11.178 4.734 20.076 0 3.935-.343 7.471-.97 10.665s-1.654 5.874-3.08 8.212c-1.426 2.282-3.25 4.107-5.532 5.476s-5.019 2.167-8.327 2.452c.457 1.141.97 2.167 1.597 3.08.628.912 1.426 1.654 2.339 2.281.912.628 1.996 1.084 3.193 1.426s2.567.513 4.164.513c.456 0 .97-.057 1.54-.114s1.14-.114 1.654-.228c.57-.114 1.026-.228 1.54-.342.456-.114.855-.228 1.14-.399z"/><mask id="b" width="165" height="68" x="2" y="113" maskUnits="userSpaceOnUse" style="mask-type:luminance"><path fill="#fff" d="m162.948 168.744-15.171-18.935-4.734 5.19v13.802h-3.194v-55.322h3.194v37.755l19.106-21.387h3.992l-16.197 17.908 17.053 21.046h-4.049zm-27.262-35.931c-.514-.228-.97-.4-1.312-.457-.399-.114-.798-.114-1.312-.114-1.026 0-1.996.114-2.851.343-.856.228-1.768.627-2.738 1.254-.97.571-1.996 1.426-3.137 2.453q-1.71 1.54-4.106 3.935v28.517h-3.194V129.79h3.194v7.072c1.312-1.369 2.566-2.509 3.65-3.479s2.11-1.768 3.137-2.395a12 12 0 0 1 2.908-1.369 10.9 10.9 0 0 1 3.08-.456c.628 0 1.255.057 1.825.171s1.141.342 1.711.57zm-29.771 13.973-7.814.798q-4.107.428-6.673 1.198c-1.71.513-3.023 1.198-3.992 1.996-.97.799-1.654 1.768-1.996 2.909s-.514 2.452-.514 3.992c0 3.308.57 5.76 1.654 7.243s2.909 2.282 5.419 2.282c.855 0 1.71-.114 2.566-.286s1.768-.57 2.795-1.14c1.026-.571 2.224-1.426 3.593-2.453s3.022-2.452 4.962-4.163zm0 21.958v-6.445c-1.198 1.14-2.396 2.11-3.479 3.08-1.141.912-2.225 1.711-3.365 2.395a17.3 17.3 0 0 1-3.48 1.597c-1.197.399-2.452.57-3.82.57-1.826 0-3.366-.285-4.677-.798a7.24 7.24 0 0 1-3.137-2.339c-.799-1.026-1.426-2.281-1.825-3.821-.4-1.483-.57-3.251-.57-5.19 0-1.711.17-3.251.57-4.677s1.197-2.737 2.338-3.821c1.198-1.14 2.852-2.053 4.962-2.851 2.167-.742 4.962-1.312 8.44-1.654l7.986-.799v-2.053c0-1.768-.172-3.365-.457-4.677-.342-1.311-.912-2.452-1.711-3.308-.798-.855-1.882-1.54-3.194-1.996-1.311-.456-3.022-.627-5.018-.627-1.597 0-2.966.114-4.164.399-1.14.285-2.11.627-2.966 1.141a8.4 8.4 0 0 0-2.053 1.654 10.1 10.1 0 0 0-1.426 2.053l-2.338-1.54c.57-.97 1.255-1.882 2.053-2.681a9.4 9.4 0 0 1 2.68-1.996c1.027-.57 2.225-.969 3.537-1.254 1.369-.286 2.909-.457 4.677-.457 2.509 0 4.676.285 6.387.799 1.711.513 3.137 1.369 4.221 2.452 1.083 1.141 1.825 2.51 2.281 4.221s.684 3.764.684 6.102v26.463h-3.136zm-33.479 0v-6.559c-2.566 2.338-4.962 4.22-7.186 5.589-2.281 1.369-4.449 2.053-6.616 2.053-2.053 0-3.707-.285-5.019-.912q-1.968-.941-3.08-2.738-1.111-1.797-1.54-4.449c-.285-1.768-.399-3.764-.399-5.988v-26.064h3.194v25.551c0 2.452.114 4.391.4 5.931.285 1.483.684 2.681 1.254 3.593.57.856 1.312 1.483 2.167 1.768.856.285 1.94.456 3.08.456 3.764 0 8.327-2.737 13.745-8.155v-29.087h3.194v38.953h-3.194zm-33.763-25.722c0-3.765-.286-7.187-.856-10.095-.57-2.966-1.483-5.418-2.737-7.472-1.255-1.996-2.966-3.536-5.02-4.619-2.053-1.027-4.62-1.597-7.585-1.597-3.023 0-5.532.513-7.642 1.597-2.053 1.026-3.707 2.566-5.02 4.619-1.254 1.997-2.166 4.506-2.737 7.472q-.855 4.448-.855 10.095c0 3.764.285 7.072.855 10.037s1.483 5.419 2.738 7.472 2.909 3.593 5.019 4.619c2.053 1.084 4.62 1.597 7.642 1.597s5.532-.513 7.586-1.597a12.2 12.2 0 0 0 5.019-4.619c1.254-2.053 2.167-4.506 2.737-7.472.627-2.851.856-6.216.856-10.037m3.707 35.816a19.3 19.3 0 0 1-6.844 1.312c-1.996 0-3.821-.228-5.361-.684-1.597-.457-2.966-1.141-4.164-2.053a14 14 0 0 1-3.08-3.251c-.855-1.255-1.54-2.738-2.11-4.392-2.966-.228-5.589-.912-7.813-2.053-2.282-1.141-4.107-2.795-5.647-4.962-1.482-2.167-2.623-4.905-3.422-8.156-.74-3.251-1.14-7.129-1.14-11.634 0-4.221.4-7.985 1.14-11.35.742-3.308 1.94-6.103 3.537-8.441 1.596-2.281 3.65-4.049 6.102-5.247 2.51-1.198 5.475-1.825 8.954-1.825q10.095 0 14.886 6.673c3.194 4.448 4.734 11.178 4.734 20.076 0 3.935-.343 7.471-.97 10.665s-1.654 5.874-3.08 8.212c-1.426 2.282-3.25 4.107-5.532 5.476s-5.019 2.167-8.327 2.452c.457 1.141.97 2.167 1.597 3.08.628.912 1.426 1.654 2.339 2.281.912.628 1.996 1.084 3.193 1.426s2.567.513 4.164.513c.456 0 .97-.057 1.54-.114s1.14-.114 1.654-.228c.57-.114 1.026-.228 1.54-.342.456-.114.855-.228 1.14-.399z"/></mask></g><defs><clipPath id="a"><path fill="#fff" d="M0 .405h200v180.55H0z"/></clipPath></defs></svg>