<svg xmlns="http://www.w3.org/2000/svg" width="200" height="79" fill="none"><g clip-path="url(#a)"><path fill="#00C7FD" d="M14.8 2H.37v14.44h14.45z"/><path fill="#0068B5" d="M14.45 77.26V25.18H.72v52.03h13.73zm90.9.52V65.03c-2 0-3.7-.1-4.94-.31a5.6 5.6 0 0 1-3.24-1.44 5.8 5.8 0 0 1-1.44-3.14q-.3-1.93-.3-5.04V36.95h9.92V25.18h-9.93V4.92H81.7v50.34q0 6.4 1.08 10.74a15 15 0 0 0 3.65 6.9 14.7 14.7 0 0 0 6.68 3.75q4.18 1.14 10.44 1.13zm78.56-.52V.91h-13.73v76.35zM68.48 30.32c-3.8-4.11-9.15-6.17-15.94-6.17-3.29 0-6.32.67-9 2a19.4 19.4 0 0 0-6.83 5.56l-.72.98v-7.51H22.47v52.03h13.62V49.5v1.9-.92q.23-7.33 3.6-10.8a11.8 11.8 0 0 1 8.69-3.7c3.96 0 7 1.23 9 3.6 1.95 2.36 2.98 5.7 2.98 9.97v27.66h13.83V47.7c.05-7.4-1.9-13.27-5.7-17.38m94.6 20.82q0-5.6-1.95-10.54a28 28 0 0 0-5.5-8.58 25 25 0 0 0-8.48-5.76 28 28 0 0 0-10.9-2.06 27 27 0 0 0-19.18 7.87 27 27 0 0 0-5.76 8.59 26 26 0 0 0-2.1 10.59q0 5.64 2 10.59a26 26 0 0 0 5.6 8.58 26 26 0 0 0 8.7 5.76 28 28 0 0 0 11.15 2.16c11.62 0 18.82-5.3 23.13-10.23l-9.87-7.5c-2.05 2.46-6.99 5.8-13.16 5.8-3.85 0-7.04-.87-9.46-2.67a13.2 13.2 0 0 1-4.94-7.25l-.15-.46h40.88zm-40.77-4.78c0-3.8 4.37-10.43 13.78-10.49 9.41 0 13.83 6.64 13.83 10.44zm77.23 24.32a5 5 0 0 0-1.08-1.6 5.12 5.12 0 0 0-3.55-1.5c-.72.02-1.34.17-1.95.43q-.92.39-1.6 1.08-.69.67-1.08 1.6a4.92 4.92 0 0 0 0 3.9q.39.91 1.08 1.6.68.7 1.6 1.07.93.4 1.95.41a4.86 4.86 0 0 0 3.55-1.5q.69-.66 1.08-1.58.39-.95.4-1.95-.01-1.02-.4-1.96m-.82 3.6q-.33.78-.88 1.34-.55.55-1.34.87a4.45 4.45 0 0 1-3.3 0 4 4 0 0 1-2.5-3.85q0-.87.3-1.65a4 4 0 0 1 3.86-2.52q.86 0 1.64.3.79.33 1.34.88.55.56.88 1.34c.2.51.3 1.03.3 1.65s-.1 1.13-.3 1.64m-2.88-1.18q.6-.07.97-.46.4-.37.41-1.14.02-.83-.51-1.28c-.3-.3-.87-.46-1.54-.46h-2.26v5.8h1.08V73.2h.77l1.44 2.37h1.13zm-.57-.88h-1.28v-1.64h1.28q.22.01.46.1t.31.26c.1.1.1.26.1.46q-.01.3-.1.46-.15.17-.3.26-.24.09-.47.1"/></g><defs><clipPath id="a"><path fill="#fff" d="M0 .86h200V78.5H0z"/></clipPath></defs></svg>