<svg xmlns="http://www.w3.org/2000/svg" width="200" height="121" fill="none"><g clip-path="url(#a)"><path fill="#007DC3" d="M143.18 1.2H56.82C25.65 1.2.5 27.85.5 60.9c0 33.03 25.15 59.7 56.32 59.7h86.36c31.16 0 56.32-26.67 56.32-59.7 0-32.64-25.15-59.7-56.32-59.7m14.27 20.3c6-.4 12.77 5.16 12.77 13.52s-6.01 13.93-12.77 13.93c-7.13 0-12.77-5.97-12.77-13.53-.37-8.36 4.88-14.33 12.77-13.93m-82.6 87.55c-7.9 0-15.78 0-23.66-.4-4.13 0-7.89-1.59-11.64-3.18q-9.58-4.17-16.9-13.13c-3.38-3.98-5.63-8.36-7.5-13.54a58 58 0 0 1-3.01-18.3c0-5.97 1.12-11.55 3.38-17.12a53.4 53.4 0 0 1 13.89-20.3c4.13-3.58 8.64-5.97 13.9-7.96a38 38 0 0 1 11.63-1.99c1.5 0 1.88 0 1.88 2v26.66c0 1.2-.38 1.6-1.5 1.6-3.76.39-7.14 1.58-9.76 3.97-4.51 3.58-7.14 8.36-6.76 14.33 0 5.17 2.25 9.15 5.63 12.34A17.6 17.6 0 0 0 57.2 79.2h18.02c1.5 0 1.5 0 1.5 1.6v26.66c-.38 1.2-.75 1.6-1.88 1.6m38.3-64.08v63.29q0 1.2-1.14 1.2h-24.4c-1.88 0-1.88 0-1.88-2V45.77c0-1.6-.37-2-1.5-2H66.58q-1.12 0-1.12-1.18V14.72c0-1.19.37-1.59 1.5-1.59h63.83c1.5 0 1.5.4 1.5 1.6v27.46c0 .8-.37 1.2-1.12 1.59h-17.28c-.75-.4-.75 0-.75 1.2m73.96 19.1c-1.12 14.73-7.5 25.88-18.4 34.63-3 2.4-6.76 4.38-10.14 5.97-6 2.4-12.01 4.38-18.4 4.38h-16.14c-1.5 0-1.5-.4-1.5-1.99V80.4c0-1.2.37-1.2 1.13-1.2h13.51c6.39 0 12.4-1.99 17.28-6.37a17 17 0 0 0 5.25-9.15c.38-1.6.38-1.6 1.88-1.6h23.65c1.88-.39 2.26 0 1.88 2"/></g><defs><clipPath id="a"><path fill="#fff" d="M0 .34h200v120.4H0z"/></clipPath></defs></svg>