<svg xmlns="http://www.w3.org/2000/svg" width="200" height="276" fill="none"><g clip-path="url(#a)"><mask id="b" width="200" height="276" x="0" y="0" maskUnits="userSpaceOnUse" style="mask-type:luminance"><path fill="#fff" d="M200 .51H0v274.51h200z"/></mask><g mask="url(#b)"><path fill="#231F20" d="M43.53 272.667c-5.099-3.138-7.452-6.275-7.844-12.157-23.921-2.353-17.255-26.275-1.569-36.079l-1.176-8.235C25.49 206-18.04 144.823 14.51 141.686c1.176 0 1.96.785 3.137 1.569 5.49 8.627 7.843 20.784 12.941 30.196 3.922-20.784 4.706-21.569 6.274-27.059-10.98 0-23.529-9.804-29.803-18.039-3.138-4.706-4.706-12.941-4.706-15.294-.785-5.49-1.177-9.804-.785-14.902.393-2.745 3.53-10.98 3.922-11.765 10.196-23.53 8.235-23.921 19.608-47.843 6.274-12.941 9.412-15.294 22.353-20C67.843 2.079 93.725-3.804 118.039 7.96c17.255 10.196 23.922 24.706 31.373 42.353 12.941 4.706 23.921 10.588 34.509 19.607 19.608 5.49 14.51 16.079 14.51 33.334-2.353 12.157-3.529 14.51-3.529 16.863 5.882 14.509 1.176 35.294-18.039 30.588-3.53-.785-5.491-4.314-8.236-6.667-5.49 1.961-10.98 3.922-16.078 5.882.392 2.353 1.568 8.236 2.353 12.157 1.961 21.177 1.961 40-2.745 60.392 12.156 9.02 21.176 21.569 8.627 33.726-3.137 3.137-3.529 3.137-10.588 5.098-1.177 4.706-2.353 7.059-6.275 10.196-5.49 3.137-17.647 3.922-24.706.784-3.137-1.176-7.843-3.529-11.764-6.274-5.098-5.49-5.49-9.412-7.059-16.471-5.098 0-10.196.392-14.902.392-1.569 9.412-5.49 15.295-14.118 20.785-9.804 5.49-20.784 4.314-27.843 1.961"/></g><mask id="c" width="200" height="276" x="0" y="0" maskUnits="userSpaceOnUse" style="mask-type:luminance"><path fill="#fff" d="M200 .51H0v274.51h200z"/></mask><g mask="url(#c)"><path fill="#fff" d="M52.941 174.627c2.353-13.725 4.314-18.823 16.47-24.706 16.471 0 35.295 2.353 35.295-19.215-6.667-20-13.333-36.079-1.176-54.902 9.411-9.412 14.117-14.51 11.372-28.236-5.882-14.117-13.725-27.843-21.176-40.784 0-.784 0-.784 4.313 0v1.569c14.902 23.921 18.824 39.608 46.667 44.706 10.98 4.313 22.353 9.411 31.765 16.47-1.177.784-1.177 0-8.236 3.922-6.274 6.274-10.588 9.412-9.019 17.255 6.666 14.902 21.176 14.902 34.117 7.45-4.705 23.922-49.411 28.236-67.058 30.589-16.471 7.843 19.215 12.941 23.921 14.117-12.549 5.098-32.549 2.353-45.882 2.353-.392 1.177-.392 2.746-.392 3.922 6.666.784 12.941 1.176 19.608 2.353 3.921 6.274 8.627 12.549 9.411 20.392-2.745 21.961-.392 46.667 2.353 68.628 2.745 5.49 12.549 18.823 5.098 23.921-12.549 2.353-26.274-.392-30.98-12.157 1.176-18.823 2.745-37.647 2.745-56.078-.392-1.177-.784-2.353-1.176-3.137-.785.784-1.177 1.96-1.961 3.137-1.177 15.294-2.353 30.98-3.137 46.274-5.099 2.353-18.04.785-24.314.785C80 220.902 80 220.902 79.216 201.686c-1.569-7.059-1.569-7.059-2.745-9.02-6.275 18.824 2.745 42.353.392 61.961-6.667 10.196-18.431 12.157-29.804 9.804-7.451-4.706 2.353-19.216 4.314-24.706 2.745-19.215 2.745-39.215 2.745-58.431-.392-1.961-.785-3.922-1.177-5.49.785-.785.392-1.177 0-1.177"/></g><mask id="d" width="200" height="276" x="0" y="0" maskUnits="userSpaceOnUse" style="mask-type:luminance"><path fill="#fff" d="M200 .51H0v274.51h200z"/></mask><g mask="url(#d)"><path fill="#B28D2F" d="M12.157 163.647c1.96-1.961 3.921-3.529 5.882-5.49 4.314 11.373 9.412 21.176 17.647 30.588 1.569-14.902 4.314-29.019 8.235-43.529 28.628-.392 47.451-8.628 49.02-39.608-.392-3.922-1.176-7.451-1.569-11.373-9.411-29.411-16.862-57.254-19.215-63.137-3.922-7.059-8.236-9.412-14.902-12.941 12.157-7.059 21.96-12.55 36.47-11.373 7.451 13.334 15.294 27.06 21.177 40.785 2.745 14.117-1.961 18.823-11.373 28.235-12.157 18.823-5.49 34.902 1.177 54.902 0 21.569-18.824 19.216-35.294 19.216-12.157 6.274-14.51 10.98-16.47 24.706-4.315 19.607-3.138 42.352-4.315 62.352-2.353 5.099-4.706 10.589-7.059 16.079-14.117 0-17.254-5.49-11.372-18.431 3.53-4.314 7.059-6.275 12.157-9.02 0-14.118-12.157-25.49-18.824-36.863-6.274-11.372-6.274-11.372-11.372-25.098"/></g><mask id="e" width="200" height="276" x="0" y="0" maskUnits="userSpaceOnUse" style="mask-type:luminance"><path fill="#fff" d="M200 .51H0v274.51h200z"/></mask><g mask="url(#e)"><path fill="#B28D2F" d="M133.333 171.49c-.784-7.451-5.49-14.117-9.412-20.392a3893 3893 0 0 1 21.961-2.353c7.451 27.451 7.059 48.628.784 76.471 14.118 7.059 25.491 27.843.785 27.843-2.745-5.098-5.098-10.196-7.451-14.902-1.177-19.216-2.745-38.824-3.137-58.431-.393-3.138-1.177-5.491-3.53-8.236"/></g><mask id="f" width="200" height="276" x="0" y="0" maskUnits="userSpaceOnUse" style="mask-type:luminance"><path fill="#fff" d="M200 .51H0v274.51h200z"/></mask><g mask="url(#f)"><path fill="#fff" d="M12.157 163.647c-1.177-5.098-3.922-12.157-1.177-17.255 1.177-.784 1.961-1.177 2.745 0 1.961 4.314 3.922 7.059 4.314 11.765-1.96 1.96-3.921 3.529-5.882 5.49"/></g><mask id="g" width="200" height="276" x="0" y="0" maskUnits="userSpaceOnUse" style="mask-type:luminance"><path fill="#fff" d="M200 .51H0v274.51h200z"/></mask><g mask="url(#g)"><path fill="#EE7A22" d="M179.608 143.255c-4.314-2.745-11.373-9.412-12.157-14.118 7.059-2.353 12.941-5.49 19.216-9.411 8.235 6.274 7.059 17.254-.784 23.137-1.961.784-4.314.784-6.275.392"/></g><mask id="h" width="200" height="276" x="0" y="0" maskUnits="userSpaceOnUse" style="mask-type:luminance"><path fill="#fff" d="M200 .51H0v274.51h200z"/></mask><g mask="url(#h)"><path fill="#B28D2F" d="M44.706 140.902c-63.53-12.549-28.628-69.412-9.02-108.235 10.98-14.902 25.883-11.765 34.118 3.137 7.45 28.235 7.45 28.235 16.078 55.294 2.353 13.334 4.314 24.706-3.137 37.255-12.157 11.765-21.96 12.157-38.04 12.549"/></g><mask id="i" width="200" height="276" x="0" y="0" maskUnits="userSpaceOnUse" style="mask-type:luminance"><path fill="#fff" d="M200 .51H0v274.51h200z"/></mask><g mask="url(#i)"><path fill="#9C7A32" d="M47.45 135.02c-2.352-.785-4.705-1.177-7.058-1.569 16.863-9.02 30.196-17.255 41.569-33.725.392 0 .784.392 1.176.392.392 25.49-11.372 31.764-35.686 34.902"/></g><mask id="j" width="200" height="276" x="0" y="0" maskUnits="userSpaceOnUse" style="mask-type:luminance"><path fill="#fff" d="M200 .51H0v274.51h200z"/></mask><g mask="url(#j)"><path fill="#fff" d="M167.059 84.824c0-7.06 18.823-14.118 23.137-9.412-5.49 7.45-14.118 9.02-23.137 9.412"/></g><mask id="k" width="200" height="276" x="0" y="0" maskUnits="userSpaceOnUse" style="mask-type:luminance"><path fill="#fff" d="M200 .51H0v274.51h200z"/></mask><g mask="url(#k)"><path fill="#404041" d="M90.98 56.588c-4.313-1.176-10.588-5.098-6.666-11.764 1.569-1.961 5.49-2.745 7.843-3.138 10.98-1.176 19.216 9.02 5.49 14.902-1.96.392-3.921.785-6.666 0"/></g><mask id="l" width="200" height="276" x="0" y="0" maskUnits="userSpaceOnUse" style="mask-type:luminance"><path fill="#fff" d="M200 .51H0v274.51h200z"/></mask><g mask="url(#l)"><path fill="#B28D2F" d="M98.04 6.392c17.646 3.137 32.94 12.157 40.391 29.02-9.804.784-13.333 7.843-4.314 13.333 2.746.784 9.02-.392 9.804-.784.393 1.568.393 3.53.785 4.706-27.451-4.314-31.373-20-46.667-44.314z"/></g><mask id="m" width="200" height="276" x="0" y="0" maskUnits="userSpaceOnUse" style="mask-type:luminance"><path fill="#fff" d="M200 .51H0v274.51h200z"/></mask><g mask="url(#m)"><path fill="#fff" d="M89.412 47.569C89.02 46 88.235 46 88.235 44.824c1.569-.785 1.569-.785 4.314-.393.392.393-.392.785 0 1.569-.784.784-.784.784-1.176 1.569-1.569 0-1.177-.393-1.961 0"/></g><mask id="n" width="200" height="276" x="0" y="0" maskUnits="userSpaceOnUse" style="mask-type:luminance"><path fill="#fff" d="M200 .51H0v274.51h200z"/></mask><g mask="url(#n)"><path fill="#fff" d="M132.941 42.078c-.392-1.568-.784-.784.392-1.96 3.53 0 2.745-.785 2.353 2.352-1.176 0-1.961-.784-2.745-.392"/></g><mask id="o" width="200" height="276" x="0" y="0" maskUnits="userSpaceOnUse" style="mask-type:luminance"><path fill="#fff" d="M200 .51H0v274.51h200z"/></mask><g mask="url(#o)"><path fill="#AA3123" d="M178.039 124.823c4.314 3.922 7.059 8.628 9.02 15.294l.784-.784c-.784-4.706-3.529-9.412-8.627-15.294-.393 0-.785.392-1.177.784"/></g><mask id="p" width="200" height="276" x="0" y="0" maskUnits="userSpaceOnUse" style="mask-type:luminance"><path fill="#fff" d="M200 .51H0v274.51h200z"/></mask><g mask="url(#p)"><path fill="#fff" d="M134.118 38.94c1.568 0 2.353.785 2.353 1.962 0 1.176-1.177 1.96-2.353 1.96s-2.353-.784-2.353-1.96c0-1.177.784-1.961 2.353-1.961"/></g><mask id="q" width="200" height="276" x="0" y="0" maskUnits="userSpaceOnUse" style="mask-type:luminance"><path fill="#fff" d="M200 .51H0v274.51h200z"/></mask><g mask="url(#q)"><path fill="#fff" d="M90.588 43.647c1.569 0 2.746.784 2.746 2.353s-1.177 2.353-2.746 2.353-2.745-.785-2.745-2.353c0-1.177 1.177-2.353 2.745-2.353"/></g></g><defs><clipPath id="a"><path fill="#fff" d="M0 .51h200v274.51H0z"/></clipPath></defs></svg>