<svg xmlns="http://www.w3.org/2000/svg" width="200" height="201" fill="none"><g clip-path="url(#a)"><path fill="#79BD28" d="M187.115.576H12.985A12.44 12.44 0 0 0 .498 13.064v174.129a12.436 12.436 0 0 0 12.388 12.388h174.776a12.434 12.434 0 0 0 11.841-12.487V12.964A12.44 12.44 0 0 0 187.115.576m-49.254 14.13a26.37 26.37 0 0 1 29.851-4.975c7.661 4.378 22.537 21.492 22.537 21.492 10.647 11.592-4.627 20.448-4.627 20.448l-66.667 42.836L100 65.253zM8.955 33.412c4.329-7.662 21.393-22.587 21.393-22.587C41.841.129 50.697 15.502 50.697 15.502l42.637 66.965-28.856 18.856-50.348-38.06a26.82 26.82 0 0 1-5.175-29.85M62.34 186.646a26.42 26.42 0 0 1-29.851 4.975C24.876 187.243 10 170.129 10 170.129c-10.497-11.344 4.776-20.299 4.776-20.299l66.667-42.836L100 135.999zm129.353-18.657c-4.329 7.662-21.393 22.637-21.393 22.637-11.493 10.697-20.349-4.677-20.349-4.677l-42.885-66.965 28.856-18.905 50.348 38.059a26.566 26.566 0 0 1 5.174 29.851z"/></g><defs><clipPath id="a"><path fill="#fff" d="M0 .326h200v200H0z"/></clipPath></defs></svg>