<svg xmlns="http://www.w3.org/2000/svg" width="200" height="201" fill="none"><g clip-path="url(#a)"><path fill="#79BD28" d="M187.115 1.06H12.985A12.44 12.44 0 0 0 .498 13.548v174.129a12.436 12.436 0 0 0 12.388 12.388h174.776a12.44 12.44 0 0 0 11.841-12.487V13.448A12.44 12.44 0 0 0 187.115 1.06m-49.254 14.13a26.37 26.37 0 0 1 29.851-4.976c7.661 4.378 22.537 21.493 22.537 21.493 10.647 11.592-4.627 20.448-4.627 20.448L118.955 94.99 100 65.738zM8.955 33.896c4.329-7.662 21.393-22.587 21.393-22.587C41.841.612 50.697 15.986 50.697 15.986L93.334 82.95l-28.856 18.855-50.348-38.06a26.82 26.82 0 0 1-5.175-29.85M62.34 187.13a26.42 26.42 0 0 1-29.851 4.975C24.876 187.727 10 170.612 10 170.612c-10.497-11.343 4.776-20.298 4.776-20.298l66.667-42.836L100 136.483zm129.353-18.657c-4.329 7.662-21.393 22.637-21.393 22.637-11.493 10.696-20.349-4.677-20.349-4.677l-42.885-66.965 28.856-18.905 50.348 38.059a26.566 26.566 0 0 1 5.174 29.851z"/></g><defs><clipPath id="a"><path fill="#fff" d="M0 .81h200v200H0z"/></clipPath></defs></svg>