<svg xmlns="http://www.w3.org/2000/svg" width="200" height="201" fill="none"><g clip-path="url(#a)"><path fill="#79BD28" d="M187.12.75H12.99A12.44 12.44 0 0 0 .49 13.23v174.13a12.44 12.44 0 0 0 12.4 12.4h174.77a12.44 12.44 0 0 0 11.84-12.5V13.13A12.44 12.44 0 0 0 187.12.75m-49.26 14.13a26.4 26.4 0 0 1 29.85-4.98c7.66 4.38 22.54 21.5 22.54 21.5 10.65 11.59-4.63 20.44-4.63 20.44l-66.67 42.84L100 65.42zM8.96 33.58C13.28 25.92 30.35 11 30.35 11 41.85.3 50.7 15.67 50.7 15.67l42.63 66.97-28.85 18.85-50.35-38.06a26.8 26.8 0 0 1-5.17-29.85m53.38 153.24a26.4 26.4 0 0 1-29.85 4.97C24.88 187.41 10 170.3 10 170.3-.5 158.97 14.78 150 14.78 150l66.66-42.83 18.56 29zm129.35-18.66c-4.33 7.66-21.4 22.64-21.4 22.64-11.48 10.7-20.34-4.68-20.34-4.68l-42.88-66.96 28.85-18.91 50.35 38.06a26.6 26.6 0 0 1 5.17 29.85z"/></g><defs><clipPath id="a"><path fill="#fff" d="M0 .5h200v200H0z"/></clipPath></defs></svg>