<svg xmlns="http://www.w3.org/2000/svg" width="200" height="167" fill="none"><g clip-path="url(#a)"><path fill="#06AFEF" d="m144.91 1.24 17.1 30.24c.43.44.43.88.87 1.75-1.32 0-2.2 0-3.07.44-2.19.44-3.07-.44-4.38-2.2-3.94-7-7.89-14.01-12.27-21.46-.88-1.75-1.75-2.2-4.38-2.2-10.96 1.32-21.91 2.2-32.43 3.07a1285 1285 0 0 0-40.75 4.39c-10.51.87-21.47 2.19-31.98 3.06-7.45.88-14.46 1.32-22.35 2.2.44.87.44 1.3.44 2.19 20.6 40.3 41.62 80.62 62.22 120.93 3.5 7.01 3.5 6.57 11.4 5.26 9.63-2.19 19.7-3.94 29.35-6.13 1.31-.44 2.63-.44 3.5.87 3.51 3.07 7.01 6.14 10.96 9.64-2.2.44-4.38.88-6.57 1.75-15.78 3.51-31.11 7.02-46.89 10.52-3.5.88-3.5.88-5.7-2.63-15.33-29.8-30.67-60.03-46-89.82C16.53 59.08 9.52 44.62 2.07 30.6c.44-1.32-.44-1.76-.88-2.64v-2.63c1.75-2.62 3.5-5.25 5.26-7.44.88-1.32 1.75-2.63 3.94-2.63 14.02-1.32 28.05-3.07 42.07-4.39 10.51-.87 21.47-2.19 31.98-3.06 14.46-1.32 28.92-3.07 43.38-4.38 2.63-.44 5.26-1.32 7.9-1.76 3.06-.44 6.13-.44 9.2-.44"/><path fill="#818385" d="M198.8 131.82v4.82c0 6.14 0 6.14-5.69 7.45-17.09 3.94-34.61 4.38-51.7-1.31-17.1-5.7-26.73-17.97-29.8-35.5-1.75-10.07-1.75-20.59.88-30.67 3.5-13.58 11.83-22.78 24.97-28.04 12.71-4.82 26.3-6.14 39.88-4.38 6.13.87 11.83 1.75 17.96 2.63 2.63.43 3.5 1.31 3.07 3.94v7.89c-12.27-4.39-24.54-5.26-36.8-4.39-6.58.44-12.71 1.76-18.4 4.82-9.65 4.39-15.35 12.27-17.54 22.35-2.19 9.64-1.75 19.28.88 28.92 3.94 13.15 12.7 21.03 25.85 24.54 12.7 3.07 25.85 2.63 38.56-.44 2.63-1.31 4.82-1.75 7.89-2.63"/><path fill="#0DB1EF" d="M69.55 44.62c-.88.44-1.76.88-3.07 1.32 3.07 5.7 5.7 10.95 8.32 16.21l19.72 38.12c.88 2.2 1.76 4.82 5.26 3.5.44 0 1.32.89 1.32 1.32 0 .88-.44 2.63-.88 2.63-1.75.88-3.94.88-5.7 1.32-.44 0-1.31-.88-1.75-1.32-.88-1.75-1.75-3.06-2.63-4.82-8.76-17.09-17.53-34.18-25.85-51.7q-3.95-7.23 5.26-6.58"/><path fill="#0BB0EF" d="M88.39 41.56c11.83-1.32 23.66-2.2 35.5-3.5v1.74c-11.84 1.32-23.67 2.2-35.5 3.51z"/><path fill="#14B3EF" d="M112.93 27.97c-2.63 1.32-4.39.88-5.7-1.75-.88-2.19-2.63-4.38-3.5-6.57 3.5-2.2 3.5-2.2 5.25.87 1.32 2.63 2.63 4.82 3.95 7.45"/><path fill="#0CB0EE" d="M92.33 20.09c3.95-.88 3.95-1.32 5.7 2.19 1.31 1.75 2.19 3.94 3.06 6.13v.88c-3.06 1.75-3.5.87-5.25-1.75-.88-2.63-2.2-4.82-3.5-7.45"/><path fill="#12B2EF" d="M80.94 21.4c3.94-1.31 4.38-1.31 6.13 2.2.88 2.18 2.2 4.37 3.5 6.56-1.74 1.32-3.5 1.76-4.81-.43-1.32-3.07-3.07-5.7-4.82-8.33M79.19 31.04c-2.63 1.32-4.39.88-5.26-1.75a100 100 0 0 0-3.95-7.01c4.39-1.32 4.39-1.32 6.14 2.19.88 2.19 1.75 3.94 3.07 6.57"/><path fill="#0EB1EF" d="M68.67 31.92c-3.07 1.31-4.38.44-5.7-1.76-1.31-2.19-2.63-4.82-3.94-7 3.07-1.32 4.38-.88 5.7 1.75 1.31 2.19 2.63 4.38 3.94 7"/><path fill="#2ABAF1" d="M88.39 41.56v1.31c-6.14.88-12.27 1.75-19.28 1.75 3.5-1.75 10.08-3.06 19.28-3.06"/><path fill="#27B8F0" d="M123.88 39.8v-1.75c.88 0 2.2 0 2.63.44a33 33 0 0 1 3.94 7.01c-2.63-.44-3.06-2.19-3.94-3.07-.44-1.31-1.75-2.19-2.63-2.63"/></g><defs><clipPath id="a"><path fill="#fff" d="M0 .27h200v166.46H0z"/></clipPath></defs></svg>