<svg xmlns="http://www.w3.org/2000/svg" width="200" height="168" fill="none"><path fill="#06AFEF" d="m144.913 1.558 17.089 30.234c.438.439.438.877.877 1.753-1.315 0-2.191 0-3.068.438-2.191.439-3.067-.438-4.381-2.19-3.944-7.011-7.888-14.022-12.269-21.471-.877-1.753-1.753-2.191-4.382-2.191-10.955 1.314-21.909 2.19-32.425 3.067-13.584 1.315-27.168 2.63-40.751 4.382-10.516.876-21.47 2.19-31.987 3.067-7.45.876-14.46 1.315-22.347 2.191.438.876.438 1.314.438 2.19 20.594 40.313 41.627 80.626 62.221 120.938 3.506 7.011 3.506 6.573 11.393 5.258 9.64-2.191 19.718-3.943 29.358-6.134 1.314-.438 2.629-.438 3.505.876 3.506 3.067 7.011 6.135 10.955 9.64-2.191.438-4.382.876-6.573 1.753-15.774 3.505-31.11 7.011-46.885 10.516-3.505.876-3.505.876-5.696-2.629-15.337-29.796-30.673-60.03-46.009-89.827-7.45-14.021-14.46-28.481-21.909-42.503.438-1.314-.438-1.753-.876-2.629v-2.63C2.943 23.03 4.696 20.4 6.449 18.21c.876-1.315 1.753-2.63 3.943-2.63 14.022-1.314 28.044-3.066 42.066-4.381 10.516-.876 21.47-2.19 31.987-3.067 14.46-1.315 28.919-3.067 43.379-4.382 2.629-.438 5.258-1.315 7.887-1.753 3.068-.438 6.135-.438 9.202-.438"/><path fill="#818385" d="M198.809 132.136v4.82c0 6.134 0 6.134-5.696 7.449-17.089 3.943-34.616 4.382-51.705-1.315s-26.729-17.965-29.796-35.492c-1.753-10.078-1.753-20.595.876-30.673 3.505-13.583 11.831-22.785 24.976-28.043 12.707-4.82 26.291-6.135 39.874-4.382 6.135.876 11.831 1.753 17.966 2.63 2.629.437 3.505 1.314 3.067 3.943v7.887c-12.269-4.382-24.538-5.258-36.807-4.382-6.573.438-12.707 1.753-18.403 4.82-9.64 4.382-15.337 12.27-17.528 22.347-2.191 9.64-1.752 19.28.877 28.92 3.943 13.145 12.707 21.033 25.852 24.538 12.707 3.067 25.853 2.629 38.56-.438 2.629-1.315 4.82-1.753 7.887-2.629"/><path fill="#0DB1EF" d="M69.547 44.938c-.877.438-1.753.876-3.068 1.315 3.068 5.696 5.697 10.954 8.326 16.212l19.718 38.122c.876 2.191 1.753 4.82 5.258 3.505.438 0 1.315.877 1.315 1.315 0 .876-.439 2.629-.877 2.629-1.752.876-3.943.876-5.696 1.314-.438 0-1.315-.876-1.753-1.314-.876-1.753-1.753-3.067-2.629-4.82-8.764-17.09-17.527-34.178-25.852-51.705q-3.945-7.23 5.258-6.573"/><path fill="#0BB0EF" d="M88.388 41.87c11.831-1.314 23.662-2.19 35.493-3.505v1.753c-11.831 1.314-23.662 2.19-35.493 3.505z"/><path fill="#14B3EF" d="M112.926 28.287c-2.629 1.315-4.381.877-5.696-1.752-.876-2.191-2.629-4.382-3.505-6.573 3.505-2.191 3.505-2.191 5.258.876 1.314 2.63 2.629 4.82 3.943 7.45"/><path fill="#0CB0EE" d="M92.332 20.4c3.943-.876 3.943-1.314 5.696 2.191 1.315 1.753 2.191 3.944 3.067 6.135v.876c-3.067 1.753-3.505.876-5.258-1.753-.876-2.629-2.19-4.82-3.505-7.449"/><path fill="#12B2EF" d="M80.94 21.715c3.943-1.315 4.381-1.315 6.134 2.19.876 2.191 2.19 4.382 3.505 6.573-1.753 1.315-3.505 1.753-4.82-.438-1.314-3.067-3.067-5.696-4.82-8.325M79.187 31.355c-2.63 1.314-4.382.876-5.258-1.753-1.315-2.63-2.63-4.82-3.944-7.01 4.382-1.315 4.382-1.315 6.134 2.19.877 2.19 1.753 3.944 3.068 6.573"/><path fill="#0EB1EF" d="M68.67 32.23c-3.067 1.315-4.382.44-5.696-1.752-1.315-2.19-2.63-4.82-3.944-7.01 3.067-1.315 4.382-.877 5.697 1.752 1.314 2.19 2.629 4.382 3.943 7.01"/><path fill="#2ABAF1" d="M88.388 41.87v1.315c-6.134.877-12.269 1.753-19.28 1.753 3.506-1.753 10.078-3.067 19.28-3.067"/><path fill="#27B8F0" d="M123.881 40.118v-1.753c.876 0 2.191 0 2.629.438 1.314 1.753 2.629 3.944 3.943 7.011-2.629-.438-3.067-2.19-3.943-3.067-.438-1.315-1.753-2.19-2.629-2.63"/></svg>