<svg xmlns="http://www.w3.org/2000/svg" width="200" height="114" fill="none"><g clip-path="url(#a)"><path fill="#007DC3" d="M143.047.957H56.953C25.884.957.805 26.037.805 57.105s25.08 56.148 56.148 56.148h86.094c31.069 0 56.148-25.08 56.148-56.148 0-30.694-25.079-56.148-56.148-56.148m14.224 19.09c5.989-.374 12.727 4.867 12.727 12.727s-5.989 13.102-12.727 13.102c-7.112 0-12.727-5.615-12.727-12.727-.374-7.861 4.866-13.476 12.727-13.102m-82.35 82.351c-7.861 0-15.722 0-23.583-.374-4.117 0-7.86-1.497-11.604-2.995Q30.19 95.1 22.89 86.677c-3.37-3.744-5.615-7.861-7.487-12.727-1.871-5.24-2.994-11.23-2.994-17.22 0-5.614 1.123-10.854 3.368-16.095 2.995-7.486 7.861-13.85 13.85-19.09 4.118-3.37 8.61-5.615 13.85-7.487 3.744-1.123 7.487-1.871 11.604-1.871 1.498 0 1.872 0 1.872 1.871v25.08c0 1.123-.374 1.497-1.497 1.497-3.744.374-7.113 1.497-9.733 3.743-4.492 3.37-7.112 7.861-6.737 13.476 0 4.866 2.245 8.61 5.614 11.604 3.743 3.369 7.861 4.866 12.727 4.866h17.968c1.497 0 1.497 0 1.497 1.497v25.08c-.374 1.123-.749 1.497-1.872 1.497m38.18-60.266v59.518q0 1.122-1.123 1.122H87.647c-1.871 0-1.871 0-1.871-1.871v-58.02c0-1.497-.375-1.872-1.498-1.872H66.685q-1.123 0-1.123-1.123V13.684c0-1.123.375-1.497 1.498-1.497h63.634c1.498 0 1.498.374 1.498 1.497v25.828c0 .749-.375 1.123-1.123 1.497H113.85c-.749-.374-.749 0-.749 1.123M186.842 60.1c-1.122 13.85-7.486 24.33-18.341 32.566-2.995 2.246-6.738 4.117-10.107 5.615-5.989 2.246-11.978 4.117-18.342 4.117h-16.096c-1.497 0-1.497-.374-1.497-1.871v-25.08c0-1.123.375-1.123 1.123-1.123h13.476c6.363 0 12.352-1.872 17.219-5.99 2.62-2.245 4.491-5.24 5.24-8.609.374-1.497.374-1.497 1.872-1.497h23.582c1.871-.374 2.246 0 1.871 1.872"/></g><defs><clipPath id="a"><path fill="#fff" d="M0 .755h200v113H0z"/></clipPath></defs></svg>