<svg xmlns="http://www.w3.org/2000/svg" width="200" height="133" fill="none"><g fill="#127CC1" clip-path="url(#a)"><path d="M196.757 37.726C187.479-7.5 99.964-10.366 43.552 24.092v3.805C99.89-1.183 179.83-.998 187.106 40.664c2.451 13.801-5.269 28.155-19.112 36.415v10.808c16.664-6.114 33.698-25.903 28.763-50.16M94.175 116.912c-38.932 3.604-79.497-2.068-85.176-32.61-2.82-15.038 4.045-31 13.102-40.904v-5.302C5.77 52.47-3.1 70.651 2.022 92.117c6.532 27.549 41.344 43.142 94.491 37.95 21.044-2.032 48.582-8.831 67.694-19.379V95.702c-17.368 10.402-46.094 18.995-70.032 21.21"/><path d="M161.089 31.188h-10.205v45.657c0 5.362 2.56 10.025 10.205 10.765M39.507 47.874H29.3v29.82c0 5.364 2.561 10.027 10.207 10.766M39.507 32.575H29.3v9.713h10.207zM100.669 87.98c-8.275 0-11.764-5.773-11.764-11.47V36.904h10.094v10.97h7.645v8.213h-7.645v19.812c0 2.33 1.114 3.608 3.525 3.608h4.12v8.473zM127.502 55.588c-3.451 0-6.123 1.794-7.236 4.218-.668 1.46-.891 2.571-1.001 4.367h15.624c-.222-4.385-2.191-8.585-7.387-8.585m-8.237 15.502c0 5.2 3.264 9.026 8.98 9.026 4.491 0 6.718-1.257 9.316-3.826l6.235 6.012c-4.008 3.957-8.202 6.362-15.625 6.362-9.686 0-18.965-5.308-18.965-20.774 0-13.227 8.09-20.7 18.742-20.7 10.8 0 16.998 8.75 16.998 20.238v3.663h-25.681M67.008 56.087c2.968 0 4.193 1.462 4.193 3.848v28.1h10.133V59.899c0-5.716-3.044-12.025-11.913-12.025H48.526v40.162H58.62V56.087M177.657 34.297q2.703 0 5.279 1.395 2.576 1.38 4.013 3.97 1.437 2.576 1.437 5.379 0 2.775-1.423 5.336a9.97 9.97 0 0 1-3.97 3.984q-2.547 1.41-5.336 1.409t-5.351-1.409a10.1 10.1 0 0 1-3.97-3.984q-1.423-2.561-1.423-5.336 0-2.804 1.437-5.38 1.451-2.59 4.028-3.97 2.575-1.394 5.279-1.394m0 1.779q-2.263 0-4.411 1.167-2.135 1.152-3.344 3.315-1.21 2.15-1.21 4.483 0 2.319 1.181 4.454a8.54 8.54 0 0 0 3.33 3.315q2.134 1.18 4.454 1.181 2.32 0 4.454-1.181a8.44 8.44 0 0 0 3.315-3.315q1.182-2.135 1.181-4.454 0-2.334-1.209-4.483a8.16 8.16 0 0 0-3.344-3.315q-2.149-1.167-4.397-1.167m-4.71 14.898V39.42h3.97q2.034 0 2.945.327a2.82 2.82 0 0 1 1.452 1.11q.54.797.54 1.693 0 1.267-.91 2.206-.897.939-2.391 1.053.612.256.982.612.697.683 1.708 2.29l1.408 2.263h-2.276l-1.025-1.821q-1.21-2.148-1.949-2.69-.513-.398-1.495-.398h-1.095v4.91zm1.864-6.503h2.262q1.623 0 2.206-.483.598-.484.598-1.281 0-.513-.285-.91a1.68 1.68 0 0 0-.797-.613q-.498-.2-1.864-.199h-2.12z"/></g><defs><clipPath id="a"><path fill="#fff" d="M0 .195h200v131.831H0z"/></clipPath></defs></svg>