<svg xmlns="http://www.w3.org/2000/svg" width="200" height="145" fill="none"><g clip-path="url(#a)"><path fill="#2B2B2B" d="m109.2 78.49-27.02 42.93h52.37l21.28-34.24zM100.5.77l-19.06 27.2 45.34 10.36z"/><path fill="#6E6E6E" d="m109.94 74.23 48.11 8.51-26.65-37.93-47.18-10.92z"/><path fill="#781F29" d="m161.75 88.1-21.1 33.32h44.42zM72.93 121.42 46.1 78.49l31.27-44.6 27.39 42.56-28.69 44.97z"/><path fill="#6E6E6E" d="M15.93 121.42h49.6L42.95 82.74z"/><path fill="#781F29" d="M110.86 135.11v-5.55c0-1.3.56-2.04 1.85-2.4a9 9 0 0 1 2.22-.38c5.18 0 10.37-.37 15.55.74 2.96.56 5.55 2.04 7.03 4.82a7.34 7.34 0 0 1-2.6 9.43c-2.95 1.85-6.28 2.22-9.61 2.6-3.52.18-6.85.18-10.37 0-3.33-.2-4.07-.93-4.07-4.45zm6.67.37v4.44c0 .56.55 1.3.92 1.3 3.33.18 6.66.55 10-.74 2.21-.93 3.32-2.78 3.14-5.37-.19-2.59-1.3-4.07-3.89-4.81-1.1-.37-2.4-.56-3.7-.74-6.47-.56-6.47-.56-6.47 5.92M156.39 144.36h-8.52c-3.33-.18-4.07-.92-4.25-4.25v-9.26c0-2.96.74-3.7 3.7-4.07h16.28c1.11 0 2.4.37 3.52.74.18 0 .55.56.55.93a.8.8 0 0 1-.74.74c-.92.18-1.85.37-2.96.37h-11.84c-1.85 0-1.85.37-2.04 2.22 0 1.3.37 2.03 1.85 2.03 3.15 0 6.48-.18 9.63 0 1.48 0 4.25-.92 4.25 1.3 0 1.85-2.59 1.11-4.07 1.11-3.15.19-6.48 0-9.62 0-2.04 0-2.04.19-2.04 2.6 0 2.4 0 2.4 2.22 2.4h11.85c2.59 0 4.07.55 3.7 1.48-.74 1.66-2.22 1.66-3.7 1.66zM33.14 133.45v-3.7c0-2.6.74-3.15 2.96-3.15 2.4 0 3.15.74 3.15 2.96v6.3c0 4.06 1.3 5.36 5.18 5.54h4.07c3.15-.37 4.44-1.66 4.44-4.8v-7.04c0-2.4.74-2.96 2.78-2.96 2.22-.19 3.7.74 3.7 2.59 0 3.15-.19 6.48-.37 9.62-.19 1.85-1.11 2.96-2.78 3.7s-3.51 1.67-5.18 1.85c-3.88.19-7.95.19-11.84-.55-5.37-.93-6.48-2.6-6.66-8.14.55-.74.55-1.48.55-2.22M15 126.04c2.23.37 3.7.93 5 2.6 2.78 3.88 5.74 7.77 8.7 11.65.56.93 1.48 1.67.93 2.96-.56.93-2.22 1.48-3.7.93a6.5 6.5 0 0 1-2.78-2.22c-1.11-1.67-2.4-2.22-4.44-2.04q-3.33.28-6.66 0c-2.22-.18-3.7.37-4.81 2.4-1.11 2.04-3.15 2.6-5.19 1.86-1.3-.37-1.66-1.48-.92-2.6 3.15-4.62 6.3-9.06 9.8-13.5.93-.93 2.78-1.3 4.08-2.04m-4.06 10.74c.55.18.74.37 1.1.37h6.3c1.1 0 .92-.56.55-1.11a109 109 0 0 0-3.33-4.82c-.18-.18-.74-.37-.74-.18-1.3 1.67-2.4 3.52-3.88 5.74M185.62 139.92c-.92 0-1.66.19-2.59 0-2.59-.37-4.62.37-5.74 2.78-.73 1.48-2.22 1.85-3.88 1.66-2.22-.18-2.96-1.3-1.67-3.14 2.96-4.07 5.74-8.33 8.89-12.22 2.77-3.51 7.4-3.33 9.99.37 2.96 3.89 5.92 7.96 8.7 12.03 1.1 1.67.55 2.78-1.3 3.15-1.48.37-3.15.18-3.89-1.3-1.66-2.96-4.25-3.33-7.21-2.96-.19-.18-.74-.37-1.3-.37m-.74-2.77h3.33c.37 0 .93 0 1.3-.19 0-.37 0-.92-.37-1.3-.37-.73-.93-1.47-1.48-2.22-2.22-3.14-2.22-3.14-4.26 0-.74 1.12-1.3 2.41-2.03 3.52 1.48 0 2.77.19 3.51.19M78.48 144.36c-2.22 0-3.89-.55-5.18-2.4-2.6-4.07-5.37-7.96-7.96-12.03-1.3-2.04-.55-3.15 1.67-3.33 2.03-.19 3.33.55 4.25 2.22 2.04 3.33 4.07 6.48 5.92 9.8.93 1.49 1.3 1.49 2.22 0 2.04-3.14 4.08-6.47 6.11-9.8.93-1.48 2.04-2.22 3.89-2.22s3.33 1.3 1.85 3.33c-2.96 4.07-5.74 8.33-8.51 12.58-.74 1.48-2.41 1.85-4.26 1.85M97.35 135.11v-5.92c0-1.85 1.11-2.78 3.15-2.78s3.33.74 3.33 2.6c.19 4.25.19 8.32 0 12.58 0 2.03-1.48 2.96-3.52 2.77-2.03-.18-2.96-.92-2.96-2.96z"/></g><defs><clipPath id="a"><path fill="#fff" d="M0 .76h200v144H0z"/></clipPath></defs></svg>