<svg xmlns="http://www.w3.org/2000/svg" width="200" height="145" fill="none"><g clip-path="url(#a)"><path fill="#2B2B2B" d="M109.197 78.486 82.18 121.417h52.369l21.28-34.234zM100.5.766 81.44 27.968l45.337 10.362z"/><path fill="#6E6E6E" d="m109.938 74.23 48.112 8.512-26.647-37.935-47.187-10.918z"/><path fill="#781F29" d="m161.751 88.108-21.095 33.309h44.411zM72.928 121.417 46.096 78.486l31.273-44.597 27.387 42.561-28.682 44.967z"/><path fill="#6E6E6E" d="M15.933 121.417h49.593L42.95 82.742z"/><path fill="#781F29" d="M110.863 135.11v-5.551c0-1.295.555-2.035 1.85-2.406.74-.185 1.481-.37 2.221-.37 5.181 0 10.363-.37 15.544.741 2.961.555 5.551 2.035 7.032 4.811 1.665 3.331.555 7.402-2.591 9.437-2.961 1.851-6.292 2.221-9.622 2.591a97 97 0 0 1-10.363 0c-3.331-.185-4.071-.925-4.071-4.441zm6.662.371v4.441c0 .555.555 1.295.925 1.295 3.331.185 6.661.555 9.992-.74 2.221-.925 3.331-2.776 3.146-5.367-.185-2.59-1.295-4.071-3.886-4.811-1.11-.37-2.405-.555-3.701-.74-6.476-.555-6.476-.555-6.476 5.922M156.385 144.363h-8.513c-3.331-.185-4.071-.925-4.256-4.256v-9.253c0-2.961.74-3.701 3.701-4.071h16.284000000000002c1.111 0 2.406.37 3.516.74.185 0 .555.556.555.926s-.37.74-.74.74c-.925.185-1.85.37-2.96.37h-11.844c-1.85 0-1.85.37-2.035 2.22 0 1.296.37 2.036 1.85 2.036 3.146 0 6.477-.185 9.623 0 1.48 0 4.256-.925 4.256 1.295 0 1.851-2.591 1.111-4.071 1.111-3.146.185-6.477 0-9.623 0-2.035 0-2.035.185-2.035 2.59 0 2.406 0 2.406 2.22 2.406h11.844c2.59 0 4.071.555 3.701 1.48-.741 1.666-2.221 1.666-3.701 1.666zM33.143 133.445v-3.701c0-2.59.74-3.146 2.96-3.146 2.406 0 3.146.741 3.146 2.961v6.292c0 4.071 1.295 5.366 5.182 5.551h4.07c3.146-.37 4.442-1.665 4.442-4.811v-7.032c0-2.405.74-2.961 2.775-2.961 2.221-.185 3.701.741 3.701 2.591 0 3.146-.185 6.477-.37 9.623-.185 1.85-1.11 2.96-2.775 3.701-1.666.74-3.516 1.665-5.182 1.85-3.886.185-7.957.185-11.843-.555-5.366-.925-6.477-2.591-6.662-8.142.555-.74.555-1.481.555-2.221M15.008 126.043c2.22.37 3.7.925 4.996 2.591 2.776 3.886 5.737 7.772 8.697 11.658.555.925 1.48 1.665.926 2.96-.555.926-2.221 1.481-3.701.926-1.11-.37-2.036-1.296-2.776-2.221-1.11-1.665-2.406-2.22-4.441-2.035q-3.33.278-6.662 0c-2.22-.185-3.7.37-4.811 2.405-1.11 2.036-3.146 2.591-5.182 1.851-1.295-.37-1.665-1.481-.925-2.591 3.146-4.626 6.292-9.067 9.808-13.509.925-.925 2.776-1.295 4.07-2.035m-4.071 10.733c.555.185.74.37 1.11.37h6.292c1.11 0 .925-.555.555-1.11-1.11-1.666-2.22-3.331-3.331-4.812-.185-.185-.74-.37-.74-.185-1.296 1.666-2.406 3.516-3.886 5.737M185.622 139.922c-.925 0-1.665.185-2.59 0-2.591-.37-4.627.37-5.737 2.775-.74 1.481-2.221 1.851-3.886 1.666-2.221-.185-2.961-1.296-1.665-3.146 2.96-4.071 5.736-8.327 8.882-12.213 2.776-3.516 7.402-3.331 9.992.37a284 284 0 0 1 8.698 12.028c1.11 1.665.555 2.776-1.296 3.146-1.48.37-3.145.185-3.886-1.295-1.665-2.961-4.256-3.331-7.216-2.961-.186-.185-.741-.37-1.296-.37m-.74-2.776h3.331c.37 0 .925 0 1.295-.185 0-.37 0-.925-.37-1.295-.37-.741-.925-1.481-1.48-2.221-2.221-3.146-2.221-3.146-4.256 0-.741 1.11-1.296 2.406-2.036 3.516 1.48 0 2.776.185 3.516.185M78.48 144.363c-2.221 0-3.887-.555-5.182-2.405-2.59-4.072-5.367-7.958-7.957-12.029-1.296-2.035-.555-3.145 1.665-3.33 2.036-.185 3.331.555 4.256 2.22 2.036 3.331 4.071 6.477 5.922 9.808.925 1.48 1.295 1.48 2.22 0 2.036-3.146 4.072-6.477 6.107-9.808.925-1.48 2.035-2.22 3.886-2.22s3.33 1.295 1.85 3.33c-2.96 4.071-5.736 8.328-8.512 12.584-.74 1.48-2.405 1.85-4.256 1.85M97.354 135.11v-5.921c0-1.851 1.11-2.776 3.146-2.776s3.331.74 3.331 2.591a143 143 0 0 1 0 12.583c0 2.036-1.48 2.961-3.516 2.776s-2.96-.925-2.96-2.961z"/></g><defs><clipPath id="a"><path fill="#fff" d="M0 .765h200v144H0z"/></clipPath></defs></svg>