<svg xmlns="http://www.w3.org/2000/svg" width="200" height="47" fill="none"><path fill="#000" d="M169.13 36.57v-4.22l18.6-29.42h3.05v6.53h-2.07l-14.05 22.23v.33h25.05v4.55zm19.91 8.67V2.93h4.88v42.31zM147.86 45.82a16 16 0 0 1-5.2-.99 12.5 12.5 0 0 1-4.76-3.2 16.4 16.4 0 0 1-3.45-6.14q-1.3-3.88-1.3-9.75 0-5.62 1.06-9.96 1.05-4.36 3.05-7.33a14 14 0 0 1 4.84-4.55 13 13 0 0 1 6.42-1.55q3.56 0 6.32 1.43 2.8 1.4 4.55 3.92a14 14 0 0 1 2.27 5.8h-5.04a9.3 9.3 0 0 0-2.72-4.72q-2.04-1.89-5.38-1.88-4.92 0-7.75 4.27-2.8 4.29-2.83 12h.34a12.4 12.4 0 0 1 10.4-5.61q3.65 0 6.66 1.82a13.4 13.4 0 0 1 4.84 4.98 14.3 14.3 0 0 1 1.81 7.25q0 3.93-1.75 7.19a13.4 13.4 0 0 1-4.94 5.16 14 14 0 0 1-7.44 1.86m0-4.54q2.61 0 4.67-1.3a9.3 9.3 0 0 0 3.29-3.5 10 10 0 0 0 1.22-4.87q0-2.62-1.18-4.77a9 9 0 0 0-3.2-3.45 8.5 8.5 0 0 0-4.63-1.29q-1.96 0-3.66.79a9 9 0 0 0-2.97 2.1q-1.26 1.35-1.99 3.09a9.8 9.8 0 0 0 3.72 11.86q2.1 1.34 4.73 1.34M125.32 21.81v4.55H106.8v-4.55zM84.8 45.82a16 16 0 0 1-5.21-.99 12.5 12.5 0 0 1-4.76-3.2 16.4 16.4 0 0 1-3.45-6.14q-1.3-3.88-1.3-9.75 0-5.62 1.06-9.96a23 23 0 0 1 3.05-7.33q2-3 4.84-4.55a13 13 0 0 1 6.42-1.55q3.56 0 6.33 1.43 2.79 1.4 4.54 3.92a14 14 0 0 1 2.28 5.8h-5.05a9.4 9.4 0 0 0-2.72-4.72Q88.8 6.89 85.45 6.9q-4.91 0-7.74 4.27-2.82 4.29-2.83 12h.33a12.4 12.4 0 0 1 10.41-5.61q3.63 0 6.65 1.82a13.4 13.4 0 0 1 4.84 4.98 14.3 14.3 0 0 1 1.82 7.25q0 3.93-1.76 7.19a13.4 13.4 0 0 1-4.94 5.16 14 14 0 0 1-7.44 1.86m0-4.54q2.6 0 4.66-1.3a9.3 9.3 0 0 0 3.29-3.5 10 10 0 0 0 1.22-4.87q0-2.62-1.18-4.77a9 9 0 0 0-3.2-3.45 8.5 8.5 0 0 0-4.63-1.29 9 9 0 0 0-3.66.79 9 9 0 0 0-2.97 2.1q-1.26 1.35-1.99 3.09a9.8 9.8 0 0 0 3.72 11.86q2.1 1.34 4.73 1.34M48.45 45.82q-4.26 0-7.53-1.5a12.3 12.3 0 0 1-5.06-4.2 10.5 10.5 0 0 1-1.8-6.12 11.3 11.3 0 0 1 4-8.78 9 9 0 0 1 4.19-1.96v-.25a8.2 8.2 0 0 1-4.84-3.4 10.3 10.3 0 0 1-1.77-6.02q-.02-3.23 1.63-5.76a11.5 11.5 0 0 1 4.54-4.01 14.6 14.6 0 0 1 6.64-1.47q3.67 0 6.57 1.47a11.5 11.5 0 0 1 4.54 4 10.4 10.4 0 0 1 1.7 5.77 10.5 10.5 0 0 1-1.84 6.01 8.2 8.2 0 0 1-4.78 3.41v.25q2.3.42 4.14 1.96 1.83 1.53 2.93 3.83 1.1 2.27 1.12 4.95a10.7 10.7 0 0 1-1.86 6.12 12.3 12.3 0 0 1-5.07 4.2q-3.22 1.5-7.45 1.5m0-4.54q2.86 0 4.95-.93a7.4 7.4 0 0 0 3.23-2.63 7.61 7.61 0 0 0-.08-8.2 8.4 8.4 0 0 0-3.33-2.9q-2.1-1.04-4.77-1.04-2.7 0-4.84 1.05a8.4 8.4 0 0 0-3.33 2.9 7.5 7.5 0 0 0-1.17 4.23 7 7 0 0 0 1.1 3.96q1.12 1.69 3.24 2.63 2.1.93 5 .93m0-20.08q2.27 0 4.02-.91a6.9 6.9 0 0 0 3.83-6.37 7 7 0 0 0-1.02-3.74 6.6 6.6 0 0 0-2.74-2.48 9 9 0 0 0-4.1-.89q-2.37 0-4.15.9a6.4 6.4 0 0 0-2.75 2.47 7 7 0 0 0-.95 3.74 7 7 0 0 0 .98 3.82 7 7 0 0 0 2.78 2.55q1.78.9 4.1.9M7.19 13.5l7.6 12.98 7.6-12.97h5.63L17.77 29.38l10.25 15.86H22.4l-7.6-12.3-7.61 12.3H1.57l10.08-15.86L1.57 13.5z"/></svg>