<svg xmlns="http://www.w3.org/2000/svg" width="200" height="47" fill="none"><path fill="#000" d="M169.127 36.567v-4.215l18.595-29.421h3.058V9.46h-2.066l-14.05 22.231v.33h25.041v4.546zm19.917 8.678V2.93h4.876v42.314zM147.862 45.823q-2.603-.04-5.207-.992-2.604-.95-4.752-3.202-2.15-2.272-3.45-6.136-1.302-3.884-1.302-9.753 0-5.62 1.054-9.958 1.053-4.359 3.057-7.335 2.005-2.995 4.835-4.545 2.852-1.55 6.426-1.55 3.553 0 6.322 1.426a12.06 12.06 0 0 1 4.546 3.925q1.755 2.52 2.272 5.806h-5.041q-.702-2.85-2.727-4.731t-5.372-1.88q-4.917 0-7.748 4.276-2.81 4.278-2.831 12.005h.331a12.42 12.42 0 0 1 6.301-4.938 12.3 12.3 0 0 1 4.112-.682q3.636 0 6.653 1.818 3.017 1.797 4.835 4.98 1.818 3.16 1.818 7.251 0 3.926-1.756 7.19a13.4 13.4 0 0 1-4.938 5.166q-3.162 1.9-7.438 1.86m0-4.545q2.603 0 4.669-1.302a9.3 9.3 0 0 0 3.285-3.492q1.22-2.19 1.219-4.876 0-2.624-1.178-4.773a9 9 0 0 0-3.202-3.45q-2.025-1.28-4.628-1.28a8.6 8.6 0 0 0-3.657.784 9.4 9.4 0 0 0-2.975 2.108 10.2 10.2 0 0 0-1.984 3.078 9.2 9.2 0 0 0-.723 3.616q0 2.52 1.178 4.71a9.7 9.7 0 0 0 3.264 3.534q2.087 1.343 4.732 1.343M125.315 21.815v4.545h-18.512v-4.545zM84.793 45.823q-2.602-.04-5.206-.992-2.604-.95-4.752-3.202-2.15-2.272-3.45-6.136-1.303-3.884-1.303-9.753 0-5.62 1.054-9.958 1.054-4.359 3.058-7.335 2.004-2.995 4.835-4.545 2.851-1.55 6.425-1.55 3.555 0 6.323 1.426a12.06 12.06 0 0 1 4.545 3.925q1.757 2.52 2.273 5.806h-5.041q-.703-2.85-2.728-4.731t-5.372-1.88q-4.917 0-7.747 4.276-2.81 4.278-2.831 12.005h.33a12.393 12.393 0 0 1 6.302-4.938 12.3 12.3 0 0 1 4.112-.682q3.636 0 6.653 1.818 3.016 1.797 4.834 4.98 1.819 3.16 1.819 7.251 0 3.926-1.757 7.19a13.4 13.4 0 0 1-4.938 5.166q-3.161 1.9-7.438 1.86m0-4.545q2.603 0 4.67-1.302a9.3 9.3 0 0 0 3.285-3.492q1.22-2.19 1.219-4.876 0-2.624-1.178-4.773a9 9 0 0 0-3.202-3.45q-2.025-1.28-4.629-1.28a8.6 8.6 0 0 0-3.656.784 9.4 9.4 0 0 0-2.976 2.108 10.2 10.2 0 0 0-1.983 3.078 9.2 9.2 0 0 0-.723 3.616q0 2.52 1.177 4.71a9.7 9.7 0 0 0 3.265 3.534q2.087 1.343 4.731 1.343M48.446 45.823q-4.257 0-7.521-1.508-3.244-1.53-5.062-4.194-1.818-2.687-1.798-6.116-.02-2.686 1.054-4.959 1.074-2.294 2.934-3.822 1.88-1.55 4.194-1.963v-.248q-3.037-.785-4.835-3.409-1.797-2.645-1.776-6.012-.021-3.223 1.632-5.765t4.545-4.008q2.913-1.467 6.633-1.467 3.676 0 6.57 1.467 2.892 1.467 4.545 4.008 1.674 2.541 1.694 5.765-.02 3.367-1.838 6.012-1.798 2.624-4.773 3.41v.247q2.293.414 4.132 1.963 1.839 1.53 2.934 3.822 1.095 2.272 1.116 4.959-.021 3.43-1.86 6.116-1.819 2.665-5.062 4.194-3.223 1.508-7.459 1.508m0-4.545q2.871 0 4.958-.93t3.223-2.624q1.137-1.695 1.157-3.967-.02-2.397-1.24-4.235-1.217-1.839-3.326-2.893-2.086-1.054-4.773-1.054-2.707 0-4.834 1.054-2.108 1.054-3.327 2.892-1.198 1.839-1.177 4.236-.022 2.272 1.095 3.967 1.136 1.694 3.244 2.624 2.106.93 5 .93m0-20.083q2.273 0 4.028-.91 1.778-.908 2.79-2.54t1.033-3.823q-.02-2.148-1.013-3.74-.99-1.61-2.748-2.479-1.755-.888-4.09-.888-2.376 0-4.153.888-1.777.868-2.748 2.48-.972 1.59-.95 3.74-.02 2.19.97 3.822 1.012 1.632 2.79 2.54 1.776.91 4.09.91M7.19 13.51l7.603 12.975 7.604-12.976h5.62L17.769 29.377l10.248 15.868h-5.62L14.794 32.93 7.19 45.245H1.57l10.083-15.868L1.57 13.509z"/></svg>