<svg xmlns="http://www.w3.org/2000/svg" width="200" height="131" fill="none"><g fill="#77B900" clip-path="url(#a)"><path d="M20.9 56.62S38.99 30.6 74.79 27.97v-9.42C34.76 21.94.49 54.73.49 54.73s19.64 55.4 74.3 60.3v-10.17c-40.42-4.9-53.9-48.24-53.9-48.24"/><path d="M74.79 85.26v9.04C44.38 89.03 35.9 58.12 35.9 58.12S50.54 42.3 74.79 39.65v10.18c-12.7-1.5-22.71 10.18-22.71 10.18s5.39 19.6 22.7 25.25"/><path d="M74.79 1.21v17.34c1.15 0 2.3 0 3.46-.38 45.42-1.5 74.68 36.18 74.68 36.18s-33.88 40.7-69.29 40.7c-3.08 0-6.16-.37-9.24-.75v10.94c2.31.37 5 .37 7.7.37 32.72 0 56.59-16.58 79.68-35.8 3.85 3.01 19.25 10.17 22.71 13.57-21.94 18.09-72.75 32.41-101.62 32.41-2.7 0-5.39 0-8.08-.38v15.08H199.5V1.2z"/><path d="M74.79 39.65V27.97h3.46c32.72-1.13 53.9 27.51 53.9 27.51s-23.1 31.29-47.74 31.29c-3.46 0-6.93-.38-9.62-1.51V49.83c12.7 1.5 15.4 7.16 22.7 19.22l16.95-13.94s-12.32-15.83-33.1-15.83c-2.32 0-4.63.37-6.55.37"/></g><defs><clipPath id="a"><path fill="#fff" d="M0 .62h200v130.35H0z"/></clipPath></defs></svg>