<svg xmlns="http://www.w3.org/2000/svg" width="200" height="226" fill="none"><g clip-path="url(#a)"><path fill="#1275BC" d="M176.725 123.923a76.73 76.73 0 0 1-21.211 54.763 76.733 76.733 0 0 1-132.211-51.208V47.684H.477v76.257c-1.132 54.952 42.517 100.412 97.488 101.558s100.449-42.517 101.581-97.487V47.684h-22.821z"/><path fill="#1275BC" d="M43.219 121.134a56.8 56.8 0 0 0 34.939 52.938 56.79 56.79 0 0 0 43.707 0 56.79 56.79 0 0 0 34.94-52.938v-73.45h-22.653v73.45a33.968 33.968 0 0 1-67.878 2.372 17 17 0 0 1 0-2.372V.259H.477v22.882H43.22z"/><path fill="#3D519E" d="M88.57.26v118.858a11.46 11.46 0 0 0 15.161 11.556 11.46 11.46 0 0 0 7.721-10.129v-97.52h88.094V.258z"/></g><defs><clipPath id="a"><path fill="#fff" d="M0 .19h200v225.73H0z"/></clipPath></defs></svg>