<svg xmlns="http://www.w3.org/2000/svg" width="200" height="227" fill="none"><g clip-path="url(#a)"><path fill="#1275BC" d="M176.73 124.1a76.7 76.7 0 0 1-74.94 78.48 76.73 76.73 0 0 1-78.49-74.93v-79.8H.48v76.26c-1.14 54.95 42.51 100.41 97.48 101.56s100.45-42.52 101.59-97.49V47.85h-22.83z"/><path fill="#1275BC" d="M43.22 121.3a56.79 56.79 0 1 0 113.59 0V47.85h-22.66v73.45a33.97 33.97 0 0 1-67.88 2.38q-.07-1.2 0-2.38V.43H.47V23.3h42.75z"/><path fill="#3D519E" d="M88.57.43v118.86a11.46 11.46 0 0 0 22.88 1.42V23.2h88.1V.43z"/></g><defs><clipPath id="a"><path fill="#fff" d="M0 .36h200v225.73H0z"/></clipPath></defs></svg>