<svg xmlns="http://www.w3.org/2000/svg" width="200" height="227" fill="none"><g clip-path="url(#a)"><path fill="#1275BC" d="M176.725 124.406a76.73 76.73 0 0 1-21.211 54.764 76.736 76.736 0 0 1-108.486 2.514 76.73 76.73 0 0 1-23.725-53.722V48.168H.477v76.257c-1.132 54.952 42.517 100.412 97.488 101.558s100.449-42.517 101.581-97.488V48.167h-22.821z"/><path fill="#1275BC" d="M43.219 121.618A56.794 56.794 0 0 0 152.63 143.51a56.8 56.8 0 0 0 4.175-21.892v-73.45h-22.653v73.45a33.96 33.96 0 0 1-9.402 23.836 33.97 33.97 0 0 1-58.476-21.465 17 17 0 0 1 0-2.371V.743H.477v22.882H43.22z"/><path fill="#3D519E" d="M88.57.743V119.6a11.464 11.464 0 1 0 22.882 1.427v-97.52h88.094V.743z"/></g><defs><clipPath id="a"><path fill="#fff" d="M0 .673h200v225.73H0z"/></clipPath></defs></svg>