<svg xmlns="http://www.w3.org/2000/svg" width="201" height="134" fill="none"><g fill="#77B900" clip-path="url(#a)"><path d="M21.4 57.42S39.6 30.85 75.6 28.16v-9.63C35.34 22 .89 55.5.89 55.5s19.75 56.6 74.7 61.6v-10.4c-40.64-5-54.18-49.28-54.18-49.28"/><path d="M75.59 86.69v9.24C45.02 90.53 36.5 58.96 36.5 58.96S51.2 42.8 75.6 40.1v10.4c-12.77-1.54-22.83 10.4-22.83 10.4s5.41 20.02 22.83 25.8"/><path d="M75.59.82v17.71c1.16 0 2.32 0 3.48-.38 45.66-1.55 75.08 36.96 75.08 36.96S120.09 96.7 84.49 96.7c-3.1 0-6.2-.39-9.29-.77v11.16c2.32.39 5.03.39 7.74.39 32.9 0 56.89-16.94 80.1-36.58 3.88 3.08 19.36 10.4 22.84 13.86-22.06 18.48-73.14 33.12-102.17 33.12-2.7 0-5.41 0-8.12-.39v15.4h125.38V.82z"/><path d="M75.59 40.1V28.15h3.48c32.9-1.16 54.18 28.1 54.18 28.1s-23.22 31.97-47.99 31.97c-3.48 0-6.96-.39-9.67-1.54v-36.2c12.77 1.54 15.48 7.32 22.83 19.64l17.03-14.25s-12.39-16.17-33.28-16.17c-2.33 0-4.65.38-6.58.38"/></g><defs><clipPath id="a"><path fill="#fff" d="M0 .18h201v133H0z"/></clipPath></defs></svg>