<?xml version="1.0" encoding="utf-8"?>
<!-- Generator: Adobe Illustrator 26.0.0, SVG Export Plug-In . SVG Version: 6.00 Build 0)  -->
<svg version="1.1" xmlns="http://www.w3.org/2000/svg" xmlns:xlink="http://www.w3.org/1999/xlink" x="0px" y="0px"
	 viewBox="0 0 1080 1080" style="enable-background:new 0 0 1080 1080;" xml:space="preserve">
<style type="text/css">
	.st0{fill-rule:evenodd;clip-rule:evenodd;fill:#045870;}
	.st1{fill-rule:evenodd;clip-rule:evenodd;fill:#E58021;}
	.st2{fill:#045870;}
</style>
<g id="EDA_xA0_图像_1_">
</g>
<g id="TEC">
	<g>
		<path class="st0" d="M46.6,433.01c0.9-0.17,1.79-0.49,2.69-0.49c21.39-0.03,42.78-0.02,64.17-0.02c0.66,0,1.32,0.07,2.18,0.12
			c0,28.04,0,55.92,0,84c0.97,0.04,1.75,0.1,2.53,0.1c24.53,0,49.07,0,73.6,0c30.51,0,61.03,0,91.54,0c3.32,0,2.97-0.01,2.97,3.06
			c0.01,13.56,0,27.12,0,40.69c0,0.79,0,1.57,0,2.54c-0.93,0.05-1.65,0.13-2.36,0.13c-9.99,0.01-19.97,0.01-29.96,0.01
			c-45.12,0-90.25,0-135.37,0c-0.9,0-1.81,0-2.83,0c0,11.21,0,22.16,0,33.26c0.47,0.07,0.94,0.17,1.41,0.2
			c0.68,0.03,1.36,0.01,2.03,0.01c54.68,0,109.36,0,164.04,0c3.25,0,3.05-0.15,3.05,2.98c0,14.98,0,29.96,0,44.94
			c0,0.37,0.01,0.74,0,1.11c-0.04,1.78-0.11,1.84-1.92,1.87c-0.43,0.01-0.86,0-1.29,0c-77.67,0-155.34,0-233.02-0.01
			c-1.15,0-2.3-0.2-3.45-0.3C46.6,575.79,46.6,504.4,46.6,433.01z"/>
		<path class="st0" d="M904.06,647.56c-0.74-0.02-1.48-0.05-2.22-0.05c-21.64,0-43.27-0.02-64.91,0.04
			c-1.64,0.01-2.66-0.51-3.47-1.84c-3.5-5.8-7.1-11.55-10.52-17.4c-3.6-6.17-6.96-12.49-10.57-18.66
			c-4.77-8.13-9.76-16.14-14.52-24.27c-17.58-30.05-35.1-60.14-52.65-90.21c-0.39-0.67-0.81-1.33-1.38-2.26
			c-0.64,0.89-1.15,1.48-1.55,2.14c-4.42,7.34-8.91,14.63-13.2,22.05c-7.19,12.43-14.18,24.97-21.39,37.39
			c-7.18,12.36-14.56,24.6-21.79,36.94c-10.4,17.76-20.73,35.56-31.09,53.35c-0.12,0.21-0.24,0.43-0.37,0.64
			c-1.49,2.45-0.76,2.08-3.54,2.08c-21.39,0.01-42.78,0.01-64.17,0.01c-0.55,0-1.12,0.05-1.66-0.03c-0.38-0.06-0.74-0.31-1.21-0.52
			c0.34-0.67,0.6-1.22,0.89-1.74c25.76-45.68,51.5-91.37,77.28-137.03c13.88-24.58,27.83-49.11,41.69-73.7
			c0.85-1.5,1.78-2.02,3.47-2.01c24.23,0.05,48.45,0.06,72.68-0.01c1.89-0.01,2.86,0.66,3.75,2.22
			c9.53,16.77,19.18,33.47,28.7,50.25c30.38,53.54,60.73,107.1,91.09,160.66c0.18,0.31,0.43,0.59,0.64,0.88
			C904.06,646.82,904.06,647.19,904.06,647.56z"/>
		<path class="st0" d="M418.09,432.5c36.55,0,73.11,0.11,109.66-0.05c16.35-0.07,30.65,5.13,43.48,15.05
			c7.96,6.15,14.23,13.59,18.5,22.7c2.95,6.28,4.47,12.87,4.47,19.84c-0.03,32.79-0.1,65.59,0.02,98.38
			c0.05,14.9-5.29,27.42-15.81,37.77c-10.07,9.91-21.93,16.66-35.82,19.63c-4.95,1.06-9.96,1.69-15.03,1.69
			c-75.14,0-150.28,0-225.42,0c-3.06,0-3.13,0.42-3.13-3.1c0.01-69.59,0.01-139.19,0.01-208.78c0-3.03-0.35-3.13,3.13-3.13
			C340.79,432.5,379.44,432.5,418.09,432.5z M367.78,596.6c0.97,0,1.82,0,2.66,0c38.83,0,77.67,0.02,116.5-0.03
			c3.07,0,6.17-0.28,9.19-0.78c18.58-3.05,29.02-18.37,29.09-34.45c0.06-13.56,0.05-27.12,0-40.68c-0.03-6.35-1.03-12.54-3.91-18.28
			c-4.7-9.37-12.28-15.25-22.38-17.82c-3.94-1-8.02-1.29-12.1-1.29c-38.77,0.01-77.54,0.01-116.32,0.01c-0.49,0-0.99-0.03-1.48,0.01
			c-0.41,0.03-0.81,0.15-1.24,0.24C367.78,521.2,367.78,558.77,367.78,596.6z"/>
		<path class="st1" d="M669.15,647.03c1.33-2.33,2.4-4.26,3.52-6.16c10.61-18.06,21.26-36.1,31.83-54.19
			c5.87-10.05,11.56-20.22,17.41-30.29c6.59-11.34,13.28-22.64,19.94-33.95c0.52-0.88,1.14-1.71,1.86-2.77
			c0.47,0.67,0.8,1.09,1.07,1.55c10.36,17.78,20.68,35.58,31.08,53.34c11.17,19.09,22.42,38.13,33.63,57.2
			c2.53,4.3,5.03,8.62,7.53,12.93c0.36,0.63,0.65,1.3,1.06,2.11c-0.57,0.15-0.95,0.3-1.34,0.34c-0.55,0.05-1.11,0.02-1.66,0.02
			c-47.58,0-95.16,0-142.74,0C671.42,647.16,670.52,647.09,669.15,647.03z"/>
		<path class="st1" d="M216.88,483.14c-22.25,0-44.49,0-66.74,0c-2.47,0-2.48,0-2.48-2.42c0-15.16,0-30.32,0-45.48
			c0-0.37-0.02-0.74,0.01-1.11c0.09-1.17,0.27-1.35,1.46-1.44c0.49-0.03,0.99-0.02,1.48-0.02c44.12,0,88.24,0,132.36,0
			c3.17,0,3.17,0,3.17,3.12c0,14.79,0,29.58,0,44.37c0,0.37,0.01,0.74,0,1.11c-0.04,1.65-0.2,1.81-1.78,1.86
			c-0.49,0.01-0.99,0-1.48,0C260.87,483.14,238.88,483.14,216.88,483.14z"/>
		<g>
			<path class="st2" d="M1030.85,502.46h-24.3v-18.75h-97.1v-31.57h97.1v-18.67h24.3V502.46z"/>
			<path class="st2" d="M1030.85,509.66v52.64h-24.3v-21.07h-23.02v19.72h-23.1v-19.72h-26.69v23.17h-24.29v-54.74H1030.85z"/>
			<path class="st2" d="M977.98,647.18v-31.57h21.1c6.13,0,9.96-0.34,11.49-1.01c1.52-0.68,2.28-2.16,2.28-4.46
				c0-2.6-0.93-4.25-2.77-4.95c-1.85-0.7-5.85-1.05-12-1.05l-56.39,0c-5.9,0-9.75,0.35-11.55,1.05c-1.8,0.7-2.7,2.27-2.7,4.72
				c0,2.35,0.9,3.89,2.7,4.61c1.8,0.72,6.04,1.09,12.7,1.09h15.26v31.57h-4.73c-12.57,0-21.48-0.89-26.73-2.66
				c-5.26-1.77-9.86-5.7-13.82-11.77c-3.95-6.07-5.93-13.56-5.93-22.46c0-9.25,1.68-16.87,5.02-22.87c3.35-6,7.99-9.97,13.91-11.92
				c5.92-1.95,14.83-2.92,26.73-2.92h35.47c8.75,0,15.31,0.3,19.68,0.9c4.37,0.6,8.59,2.39,12.63,5.36
				c4.05,2.97,7.24,7.1,9.56,12.37c2.32,5.27,3.49,11.33,3.49,18.18c0,9.3-1.8,16.97-5.39,23.02c-3.6,6.05-8.08,10.02-13.44,11.92
				c-5.37,1.9-13.72,2.85-25.05,2.85L977.98,647.18z"/>
		</g>
	</g>
</g>
</svg>
