<svg xmlns="http://www.w3.org/2000/svg" width="200" height="134" fill="none"><g fill="#127CC1" clip-path="url(#a)"><path d="M198.239 38.24c-9.371-45.684-97.77-48.577-154.752-13.772v3.844C100.394-1.062 181.143-.874 188.49 41.208c2.476 13.94-5.323 28.44-19.306 36.783v10.917c16.833-6.175 34.039-26.164 29.054-50.667M94.621 118.227c-39.325 3.64-80.3-2.088-86.036-32.939-2.849-15.19 4.086-31.313 13.234-41.317v-5.355C5.324 53.134-3.636 71.499 1.538 93.18c6.597 27.827 41.761 43.578 95.445 38.333 21.256-2.052 49.073-8.92 68.378-19.574V96.802c-17.544 10.507-46.561 19.187-70.74 21.424"/><path d="M162.211 31.636h-10.308v46.119c0 5.416 2.586 10.127 10.308 10.874M39.4 48.49H29.092v30.122c0 5.418 2.587 10.128 10.31 10.875M39.4 33.038H29.092v9.81h10.31zM101.18 89.002c-8.358 0-11.882-5.83-11.882-11.586V37.41h10.196v11.08h7.722v8.297h-7.722v20.012c0 2.354 1.126 3.645 3.561 3.645h4.161v8.558zM128.285 56.284c-3.486 0-6.185 1.812-7.309 4.26-.676 1.475-.9 2.597-1.011 4.41h15.782c-.225-4.429-2.214-8.67-7.462-8.67m-8.32 15.658c0 5.251 3.296 9.117 9.07 9.117 4.537 0 6.786-1.27 9.41-3.865l6.298 6.073c-4.049 3.997-8.285 6.426-15.783 6.426-9.784 0-19.156-5.362-19.156-20.984 0-13.36 8.172-20.908 18.931-20.908 10.909 0 17.17 8.838 17.17 20.442v3.7h-25.941M67.18 56.787c2.998 0 4.236 1.477 4.236 3.886v28.385H81.65V60.636c0-5.773-3.074-12.146-12.033-12.146H48.51v40.567h10.197v-32.27M176.926 33.767q2.73 0 5.332 1.409 2.602 1.395 4.054 4.01 1.45 2.601 1.451 5.433 0 2.803-1.437 5.39a10.07 10.07 0 0 1-4.01 4.025q-2.574 1.422-5.39 1.423-2.817 0-5.405-1.423a10.2 10.2 0 0 1-4.01-4.025q-1.437-2.587-1.437-5.39 0-2.832 1.451-5.433 1.467-2.616 4.068-4.01 2.602-1.41 5.333-1.409m0 1.797q-2.286 0-4.456 1.178-2.156 1.165-3.378 3.35-1.221 2.17-1.222 4.527 0 2.343 1.193 4.499a8.6 8.6 0 0 0 3.364 3.349q2.156 1.193 4.499 1.193t4.499-1.193a8.53 8.53 0 0 0 3.349-3.35q1.193-2.154 1.193-4.498 0-2.357-1.222-4.528a8.24 8.24 0 0 0-3.378-3.349q-2.17-1.178-4.441-1.178m-4.758 15.049V38.94h4.01q2.056 0 2.976.331.92.316 1.466 1.121.546.806.546 1.71 0 1.28-.92 2.229-.906.948-2.415 1.063.618.26.992.618.704.69 1.725 2.314l1.423 2.286h-2.3l-1.035-1.84q-1.221-2.17-1.969-2.717-.518-.402-1.509-.402h-1.107v4.959zm1.883-6.569h2.285q1.639 0 2.228-.489.604-.488.604-1.293a1.54 1.54 0 0 0-.288-.92 1.7 1.7 0 0 0-.804-.618q-.504-.201-1.883-.201h-2.142z"/></g><defs><clipPath id="a"><path fill="#fff" d="M0 .013h200v133.333H0z"/></clipPath></defs></svg>