<svg xmlns="http://www.w3.org/2000/svg" width="200" height="292" fill="none"><g fill="#019999" clip-path="url(#a)"><path d="M.498 1.218v241.898h199.005V1.218zm148.77 188.379c-12.365 11.013-27.435 16.036-43.665 17.389s-32.652.579-48.688-2.126c-5.797-.966-11.4-2.318-17.003-3.477v-33.039c1.353.386 2.512.579 3.478.966 14.49 4.637 29.174 7.728 44.438 8.115 7.342.193 14.684-.194 21.639-3.478 8.308-3.864 11.786-16.23 1.546-22.799-2.705-1.739-5.796-3.091-8.888-4.444-12.365-5.603-25.117-10.433-37.289-16.616-16.036-8.307-26.856-20.866-28.402-39.607-1.159-12.752 2.126-23.958 10.82-33.425 10.24-10.82 23.185-16.23 37.676-18.548 4.444-.773 9.08-1.16 13.524-1.353 16.616-.773 33.232 1.739 49.462 5.023.386 0 3.284.387 3.284.967V74.25h-.772l-3.478-1.16c-13.525-4.636-27.243-7.92-41.54-7.727-6.956.193-13.718 1.545-19.321 6.182-5.41 4.637-5.603 11.206-.193 15.843 2.511 2.126 5.41 3.865 8.308 5.41 11.206 5.603 22.605 10.627 33.811 16.423 6.376 3.284 12.752 7.149 18.355 11.399 25.117 19.321 20.867 52.939 2.898 68.976M7.067 252.003H.497v38.449h6.57zM41.651 256.64c-1.353-1.546-3.091-2.898-5.024-3.671-1.931-.773-4.057-1.352-6.569-1.352-2.318 0-4.443.386-6.375 1.352-1.933.773-3.671 2.125-5.024 3.671-1.352 1.546-2.512 3.671-3.284 5.99-.773 2.318-1.16 5.023-1.16 7.921v1.932c0 2.898.387 5.603 1.16 7.922s1.932 4.25 3.284 5.796c1.353 1.546 3.092 2.898 5.024 3.671s4.057 1.352 6.375 1.352c2.319 0 4.638-.386 6.57-1.352 1.932-.773 3.67-2.125 5.023-3.671s2.512-3.478 3.284-5.796c.773-2.319 1.16-5.024 1.16-7.922v-1.932c0-2.898-.387-5.603-1.16-7.921-.772-2.512-1.932-4.444-3.284-5.99m-2.318 15.65q0 6.376-2.319 9.854c-1.546 2.318-3.864 3.284-6.762 3.284-1.353 0-2.705-.193-3.864-.773-1.16-.579-2.126-1.352-2.899-2.511s-1.352-2.512-1.932-4.251c-.386-1.739-.58-3.478-.58-5.796v-1.932c0-2.126.194-4.058.58-5.603.387-1.739.966-3.092 1.932-4.058.773-1.159 1.74-1.932 2.898-2.511 1.16-.58 2.512-.773 3.865-.773 1.545 0 2.705.193 3.864.773 1.16.579 2.125 1.352 2.898 2.511q1.159 1.74 1.739 4.058c.386 1.739.58 3.477.58 5.603zM47.64 257.413h11.98v33.039h6.568v-33.039h11.98v-5.41H47.64zM98.84 276.154c1.16-1.159 2.126-2.318 3.092-3.478.966-1.159 1.739-2.318 2.512-3.477.773-1.16 1.159-2.319 1.545-3.478q.58-1.739.58-3.478c0-1.545-.193-3.091-.773-4.444-.579-1.352-1.352-2.511-2.318-3.284-.966-.966-2.319-1.546-3.864-2.125-1.546-.58-3.285-.773-5.217-.773-2.125 0-3.864.386-5.603.966-1.546.579-2.898 1.545-4.058 2.705-1.159 1.159-1.932 2.318-2.511 3.864s-.773 3.091-.773 4.83h6.376c0-.966.193-1.932.386-2.898s.773-1.546 1.16-2.319c.58-.579 1.159-1.159 2.125-1.545q1.16-.58 2.898-.58c.966 0 1.739.193 2.512.387.772.386 1.352.772 1.738 1.352.58.58.773 1.159 1.16 1.932.193.773.386 1.546.386 2.512 0 .579 0 1.352-.193 1.932s-.386 1.352-.966 2.125c-.387.773-.966 1.546-1.739 2.512s-1.546 1.932-2.705 3.091l-12.559 13.718v4.444h25.89v-5.217H90.146zM134.584 255.288q-1.738-2.03-4.057-2.899a14.8 14.8 0 0 0-5.217-.966c-1.932 0-3.671.387-5.216.966q-2.319.87-4.058 2.899c-1.159 1.352-1.932 3.091-2.511 5.216s-.966 4.637-.966 7.728v6.183c0 3.092.386 5.603.966 7.729.579 2.125 1.545 3.864 2.511 5.216q1.74 2.03 4.058 2.898c1.545.58 3.284.966 5.216.966s3.671-.386 5.217-.966c1.546-.579 2.898-1.545 3.864-2.898 1.159-1.352 1.932-3.091 2.512-5.216s.966-4.637.966-7.729v-6.183c0-3.091-.386-5.603-.966-7.728-.387-2.318-1.159-3.864-2.319-5.216m-2.898 19.9c0 1.932-.193 3.671-.386 5.023-.193 1.353-.58 2.512-1.159 3.285s-1.16 1.546-1.933 1.932c-.772.387-1.545.58-2.704.58-.966 0-1.933-.193-2.705-.58-.773-.386-1.353-.966-1.932-1.932-.58-.966-.966-1.932-1.16-3.285-.193-1.352-.386-3.091-.386-5.023v-8.115c0-1.932.193-3.671.386-4.83.194-1.352.58-2.318 1.16-3.285.579-.772 1.159-1.352 1.932-1.738.772-.387 1.545-.58 2.705-.58.966 0 1.932.193 2.704.58s1.353.966 1.933 1.738c.579.773.966 1.933 1.159 3.285s.386 2.898.386 4.83zM165.305 255.288q-1.74-2.03-4.058-2.899a14.8 14.8 0 0 0-5.216-.966c-1.933 0-3.671.387-5.217.966q-2.319.87-4.057 2.899c-1.16 1.352-1.933 3.091-2.512 5.216-.58 2.125-.966 4.637-.966 7.728v6.183c0 3.092.386 5.603.966 7.729.579 2.125 1.546 3.864 2.512 5.216q1.738 2.03 4.057 2.898c1.546.58 3.284.966 5.217.966s3.671-.386 5.216-.966c1.546-.579 2.898-1.545 3.864-2.898 1.16-1.352 1.932-3.091 2.512-5.216s.966-4.637.966-7.729v-6.183c0-3.091-.386-5.603-.966-7.728-.386-2.318-1.159-3.864-2.318-5.216m-2.899 19.9c0 1.932-.193 3.671-.386 5.023-.193 1.353-.58 2.512-1.159 3.285s-1.159 1.546-1.932 1.932c-.773.387-1.546.58-2.705.58-.966 0-1.932-.193-2.705-.58s-1.353-.966-1.932-1.932c-.58-.966-.966-1.932-1.159-3.285-.194-1.352-.387-3.091-.387-5.023v-8.115c0-1.932.193-3.671.387-4.83.193-1.352.579-2.318 1.159-3.285.579-.772 1.159-1.352 1.932-1.738.773-.387 1.546-.58 2.705-.58.966 0 1.932.193 2.705.58s1.352.966 1.932 1.738c.579.773.966 1.933 1.159 3.285s.386 2.898.386 4.83zM196.025 255.288q-1.739-2.03-4.058-2.899a14.8 14.8 0 0 0-5.216-.966c-1.932 0-3.671.387-5.217.966q-2.319.87-4.057 2.899c-1.159 1.352-1.932 3.091-2.512 5.216s-.966 4.637-.966 7.728v6.183c0 3.092.386 5.603.966 7.729.58 2.125 1.546 3.864 2.512 5.216q1.738 2.03 4.057 2.898c1.546.58 3.285.966 5.217.966s3.671-.386 5.216-.966c1.546-.579 2.899-1.545 3.865-2.898 1.159-1.352 1.932-3.091 2.511-5.216s.966-4.637.966-7.729v-6.183c0-3.091-.386-5.603-.966-7.728-.386-2.318-1.159-3.864-2.318-5.216m-2.898 19.9c0 1.932-.194 3.671-.387 5.023-.193 1.353-.579 2.512-1.159 3.285s-1.159 1.546-1.932 1.932c-.773.387-1.546.58-2.705.58-.966 0-1.932-.193-2.705-.58s-1.352-.966-1.932-1.932-.966-1.932-1.159-3.285c-.193-1.352-.387-3.091-.387-5.023v-8.115c0-1.932.194-3.671.387-4.83.193-1.352.579-2.318 1.159-3.285.58-.772 1.159-1.352 1.932-1.738.773-.387 1.546-.58 2.705-.58.966 0 1.932.193 2.705.58s1.352.966 1.932 1.738c.58.773.966 1.933 1.159 3.285s.387 2.898.387 4.83z"/></g><defs><clipPath id="a"><path fill="#fff" d="M0 .34h200V291.88H0z"/></clipPath></defs></svg>