<svg xmlns="http://www.w3.org/2000/svg" width="200" height="246" fill="none"><g clip-path="url(#a)"><path fill="#019999" d="M0 .68v244.45h200V.68zm149.51 190.36c-12.42 11.13-27.57 16.2-43.88 17.58a196 196 0 0 1-48.93-2.15c-5.83-.98-11.46-2.34-17.09-3.52v-33.38c1.36.39 2.53.58 3.5.97 14.56 4.69 29.32 7.81 44.66 8.2 7.38.2 14.75-.2 21.75-3.51 8.34-3.9 11.84-16.4 1.55-23.04-2.72-1.76-5.83-3.12-8.93-4.49-12.43-5.66-25.25-10.54-37.48-16.8-16.12-8.39-26.99-21.08-28.54-40.02-1.17-12.88 2.13-24.2 10.87-33.77 10.3-10.94 23.3-16.4 37.86-18.75 4.47-.78 9.13-1.17 13.6-1.36 16.7-.78 33.4 1.75 49.7 5.07.4 0 3.3.4 3.3.98v31.43h-.77l-3.5-1.17c-13.59-4.68-27.37-8-41.74-7.8-7 .19-13.79 1.55-19.42 6.24-5.44 4.69-5.63 11.32-.2 16.01a47 47 0 0 0 8.35 5.47c11.27 5.66 22.72 10.74 33.99 16.6 6.4 3.31 12.81 7.22 18.44 11.51 25.25 19.53 20.97 53.5 2.91 69.7"/></g><defs><clipPath id="a"><path fill="#fff" d="M0 .34h200V245.8H0z"/></clipPath></defs></svg>