<svg xmlns="http://www.w3.org/2000/svg" width="200" height="201" fill="none"><g fill="#282F7E" clip-path="url(#a)"><path d="M62.94 20.64h19.42c0-4.922-.138-9.709 0-14.495 0-1.368.41-3.009 1.23-3.692.957-.82 3.008-1.231 4.102-.82 1.094.41 2.188 2.187 2.188 3.418.274 5.06.137 10.256.137 15.59h19.692c0-4.923.137-9.71 0-14.496 0-2.872.821-5.06 3.966-4.923 3.009 0 3.829 2.188 3.829 4.786v14.633h19.556V7.923c0-4.787 1.094-6.701 3.692-6.701 2.735 0 4.103 2.461 4.103 6.974v12.718c5.88 0 11.35.41 16.82-.137 8.616-.82 18.325 7.385 18.052 17.915-.137 5.607 0 11.214 0 17.368 5.059 0 9.982-.274 14.769.136 1.504.137 3.555 1.368 4.239 2.599 1.231 2.461-.82 4.65-3.966 4.65-4.923.136-9.846 0-14.906 0v19.418c4.65 0 9.299-.137 13.949.137 1.641.136 3.692.683 4.513 1.914 2.051 2.735-.137 6.017-3.966 6.017-4.786.137-9.573 0-14.496 0v19.282h13.676c2.735 0 5.333.411 5.333 3.966s-2.462 4.103-5.333 3.966h-13.676v19.419h14.633c2.461 0 4.239.82 4.239 3.555.137 2.872-1.641 3.966-4.239 3.966H179.59v16.957c0 5.744-1.915 10.53-6.291 14.223-3.008 2.598-6.427 4.102-10.53 4.102-5.88-.137-11.624 0-18.051 0v12.581c0 1.231.274 2.872-.273 3.829-1.094 1.368-2.872 3.009-4.377 3.146-.957.136-2.871-2.325-3.008-3.829-.41-5.06-.137-9.983-.137-15.317h-19.555v13.402c0 1.231.273 3.009-.411 3.692-1.094 1.094-3.008 2.325-4.239 2.052s-2.872-2.188-2.872-3.556c-.273-5.06-.137-10.256-.137-15.59H90.017v14.086c0 2.598-.137 5.06-3.555 5.333-2.735.274-4.24-1.778-4.24-5.607v-13.812H62.804V195c0 2.735-.547 5.196-3.83 5.196-3.145 0-3.829-2.598-3.829-5.333v-14.359c-6.154 0-11.76-.41-17.23.137-8.89.683-18.052-7.932-17.915-17.368.137-4.649 0-9.436 0-14.085 0-1.094-.137-2.325-.137-3.829H6.051c-2.735 0-5.06-.411-5.333-3.693-.137-2.598 1.641-3.829 5.47-3.829h13.539v-19.419H5.504c-2.461 0-4.786-.683-4.786-3.829-.137-3.282 2.188-4.102 4.923-4.239h14.222V91.068c-4.786 0-9.436.137-14.085-.137-1.504-.136-3.556-.82-4.513-2.051-1.914-2.325.137-5.607 3.419-5.88a185 185 0 0 1 12.307 0c2.325.136 3.146-.684 3.01-3.009-.138-5.333 0-10.666 0-16.41H5.914c-2.735 0-5.197-.41-5.197-3.692s2.462-3.83 5.197-3.83h14.222V39.377c0-4.513.957-8.616 4.24-12.308 4.102-4.65 8.888-6.564 14.905-6.154 5.197.274 10.257 0 16 0V6.008c.137-2.598.957-4.786 3.966-4.65 2.735.137 3.556 2.189 3.556 4.787.136 4.513.136 9.3.136 14.496m37.197 151.796h60.444c8.205 0 11.487-3.282 11.487-11.488V39.923c0-8.205-3.418-11.35-11.623-11.35H39.829c-8.752 0-11.897 3.145-11.897 11.897v120.205c0 8.479 3.145 11.761 11.624 11.761z"/><path d="M158.393 95.58c-.82 23.248-11.35 40.342-31.179 51.009-18.325 9.846-37.607 9.436-55.795-.821-19.146-10.803-28.445-28.171-29.949-50.188zM61.436 47.99c11.077 0 19.419 8.343 19.555 19.556.137 11.35-9.436 19.83-19.829 19.692-10.53-.136-19.692-9.435-19.555-19.829.136-9.709 8.068-19.829 19.829-19.418M158.257 67.546c0 10.803-8.753 19.555-19.556 19.555-10.667 0-19.692-8.888-19.692-19.555-.137-11.077 8.615-19.693 19.829-19.693 11.077.137 19.419 8.616 19.419 19.693m-10.257 0c.137-5.06-4.102-9.3-9.299-9.436-5.06-.137-9.436 3.966-9.436 9.162-.137 4.923 4.376 9.436 9.299 9.573s9.436-4.376 9.436-9.3"/></g><defs><clipPath id="a"><path fill="#fff" d="M0 .255h200v200H0z"/></clipPath></defs></svg>