<svg xmlns="http://www.w3.org/2000/svg" width="200" height="201" fill="none"><g fill="#282F7E" clip-path="url(#a)"><path d="M62.94 20.64h19.42c0-4.92-.14-9.7 0-14.5 0-1.36.4-3 1.23-3.69.96-.82 3-1.23 4.1-.82s2.19 2.19 2.19 3.42c.27 5.06.14 10.26.14 15.6h19.69c0-4.93.14-9.72 0-14.5 0-2.88.82-5.06 3.97-4.93 3 0 3.82 2.19 3.82 4.79v14.63h19.56V7.92c0-4.78 1.1-6.7 3.7-6.7 2.73 0 4.1 2.46 4.1 6.98V20.9c5.88 0 11.35.41 16.81-.13 8.62-.82 18.33 7.38 18.06 17.91-.14 5.6 0 11.22 0 17.37 5.06 0 9.98-.27 14.77.14 1.5.13 3.55 1.36 4.24 2.6 1.23 2.46-.83 4.64-3.97 4.64-4.92.14-9.85 0-14.9 0v19.42c4.64 0 9.3-.13 13.94.14 1.64.14 3.7.68 4.51 1.91 2.06 2.74-.13 6.02-3.96 6.02-4.79.14-9.57 0-14.5 0v19.28h13.68c2.73 0 5.33.41 5.33 3.97 0 3.55-2.46 4.1-5.33 3.96h-13.68v19.42h14.64c2.46 0 4.24.82 4.24 3.56.13 2.87-1.65 3.97-4.24 3.97h-14.91v16.95c0 5.75-1.91 10.53-6.3 14.22-3 2.6-6.42 4.1-10.52 4.1-5.88-.13-11.62 0-18.05 0v12.59c0 1.23.27 2.87-.28 3.83-1.09 1.37-2.87 3-4.37 3.14-.96.14-2.87-2.32-3.01-3.83-.41-5.06-.14-9.98-.14-15.31h-19.55v13.4c0 1.23.27 3-.41 3.7-1.1 1.09-3.01 2.32-4.24 2.04s-2.87-2.18-2.87-3.55c-.28-5.06-.14-10.26-.14-15.6H90v14.1c0 2.6-.13 5.05-3.55 5.33-2.73.27-4.24-1.78-4.24-5.61v-13.81H62.8V195c0 2.74-.54 5.2-3.83 5.2-3.14 0-3.82-2.6-3.82-5.34V180.5c-6.16 0-11.77-.4-17.24.14-8.88.68-18.05-7.93-17.91-17.37.14-4.65 0-9.43 0-14.08 0-1.1-.14-2.33-.14-3.83H6.06c-2.74 0-5.07-.41-5.34-3.7-.14-2.6 1.64-3.82 5.47-3.82h13.54v-19.42H5.5c-2.46 0-4.78-.69-4.78-3.83-.14-3.28 2.19-4.1 4.92-4.24h14.22V91.07c-4.78 0-9.43.13-14.08-.14-1.5-.14-3.56-.82-4.51-2.05-1.92-2.32.13-5.6 3.41-5.88q6.15-.21 12.31 0c2.33.14 3.15-.68 3.01-3-.14-5.34 0-10.68 0-16.42H5.91c-2.73 0-5.2-.4-5.2-3.7 0-3.27 2.47-3.82 5.2-3.82h14.23V39.38c0-4.52.95-8.62 4.24-12.31 4.1-4.65 8.89-6.57 14.9-6.16 5.2.28 10.26 0 16 0V6.01c.14-2.6.96-4.79 3.97-4.65 2.73.14 3.55 2.19 3.55 4.78.14 4.52.14 9.3.14 14.5m37.2 151.8h60.44c8.2 0 11.49-3.29 11.49-11.5V39.93c0-8.2-3.42-11.35-11.62-11.35H39.82c-8.75 0-11.9 3.15-11.9 11.9v120.2c0 8.48 3.15 11.77 11.63 11.77z"/><path d="M158.4 95.58c-.83 23.25-11.36 40.34-31.19 51-18.32 9.85-37.6 9.44-55.8-.81-19.14-10.8-28.44-28.17-29.94-50.19zM61.44 48c11.07 0 19.41 8.33 19.55 19.55.14 11.35-9.43 19.83-19.83 19.69-10.53-.14-19.69-9.44-19.55-19.83.13-9.71 8.07-19.83 19.83-19.42M158.26 67.55c0 10.8-8.76 19.55-19.56 19.55-10.67 0-19.7-8.89-19.7-19.55-.13-11.08 8.62-19.7 19.84-19.7 11.07.14 19.42 8.62 19.42 19.7m-10.26 0c.14-5.06-4.1-9.3-9.3-9.44a9.2 9.2 0 0 0-9.44 9.16c-.13 4.93 4.38 9.44 9.3 9.58 4.93.13 9.44-4.38 9.44-9.3"/></g><defs><clipPath id="a"><path fill="#fff" d="M0 .25h200v200H0z"/></clipPath></defs></svg>