<svg xmlns="http://www.w3.org/2000/svg" width="200" height="118" fill="none"><g clip-path="url(#a)"><path fill="#005CA0" d="M104.196 1.183c-13.152 1.163-28.004 4.295-40.799 8.59l-6.844 2.28v5.19l4.384-1.566c18.923-6.889 37.578-10.2 58.022-10.2 11.631 0 19.102.716 28.363 2.64 2.818.626 5.189 1.029 5.278.94.09-.045.403-1.074.761-2.193.626-2.057.581-2.102-.313-2.326-12.571-2.908-17.134-3.4-31.628-3.579-7.024-.09-14.763 0-17.224.224M162.576 4.897c-2.147.76-3.578 2.997-3.578 5.68 0 5.861 7.694 8.009 10.736 2.998 1.924-3.086.582-7.202-2.684-8.544-2.103-.85-2.371-.85-4.474-.135"/><path fill="#005CA0" d="M45.1 17.288c-17.178 8.59-29.167 18.297-36.728 29.615C.32 59.027-1.38 72.045 3.72 83.23c6.531 14.45 24.605 26.081 47.912 30.867 11.139 2.282 15.792 2.684 30.196 2.729 7.382 0 14.182-.179 15.121-.358 1.655-.358 1.655-.358 1.655-2.594v-2.282l-5.457.403c-39.95 2.684-74.307-9.305-84.461-29.481-8.59-17.179.939-37.354 25.275-53.46 3.892-2.594 10.513-6.396 11.095-6.396.179 0 .313 11.989.313 26.617 0 28.989.09 28.094-2.595 31.136l-1.342 1.521 6.218-.134 6.219-.134V52.808c0-33.328-.537-30.554 5.01-26.125 5.234 4.16 8.008 8.857 8.679 14.673.179 1.566.537 2.818.894 2.953.895.358 3.445-1.61 4.34-3.31.581-1.164.76-2.148.581-3.803-.223-2.103-.179-2.192.403-1.119.358.627 1.074 2.416 1.61 4.026a82 82 0 0 0 1.164 3.266c.402.716 2.013-.76 3.131-2.952 1.074-2.014 1.253-2.864 1.253-6.13 0-4.428-.805-6.352-4.116-9.886-4.205-4.473-10.781-6.084-16.463-3.981-1.476.536-3.534 1.073-4.563 1.208l-1.923.223v-4.294c0-2.371-.18-4.295-.403-4.295s-3.982 1.79-8.366 4.026m27.29 4.429c4.92 2.416 8.007 7.158 8.052 12.347.044 3.087-.985 6.308-1.566 4.876-.269-.715-.358-.67-.358.358-.045.671-.403 1.521-.805 1.969-.716.715-.805.581-1.342-1.79-.313-1.387-.984-3.355-1.521-4.384-2.192-4.34-8.858-9.618-13.69-10.826-2.37-.626-2.997-1.7-1.476-2.505 1.298-.716 7.158.179 10.11 1.52 4.295 1.97 7.471 5.772 8.68 10.424l.447 1.7-.224-1.7c-.626-5.592-5.86-10.602-13.42-12.928l-2.685-.806 3.445.135c2.773.134 4.026.447 6.352 1.61m-10.2 4.34c3.4 2.013 5.726 4.294 7.38 7.112.717 1.208 1.298 2.014 1.298 1.745 0-.537-2.237-3.981-3.668-5.637-.537-.626-2.013-1.879-3.176-2.773-2.595-1.924-2.237-2.058.805-.313 4.876 2.818 8.008 7.247 8.052 11.541 0 2.282-1.208 4.832-2.37 4.832-.27 0-.627.134-.806.358-.94.94-1.431.179-1.476-2.237-.045-3.49-1.969-7.381-5.547-11.05-1.522-1.565-3.266-3.131-3.848-3.534-1.029-.67-.984-1.655.134-1.655.314 0 1.745.716 3.221 1.61M175.281 15.767l-.984 2.013 2.326 1.477c8.679 5.592 14.405 12.347 17.089 20.175 1.029 3.043 1.208 4.34 1.253 8.5 0 10.11-4.026 18.61-13.376 28.318-14.271 14.852-36.281 25.991-63.256 32.031-2.774.671-5.547 1.163-6.129 1.163h-1.074V45.472H97.218l1.61 1.431c.895.76 2.058 2.237 2.595 3.221.984 1.834.984 1.88 1.118 33.91.09 29.123.179 32.12.85 32.12 1.074 0 11.005-1.744 14.405-2.505 4.697-1.074 17.626-5.01 23.755-7.158 7.56-2.728 21.473-9.662 27.736-13.823 15.031-10.02 24.515-21.026 28.675-33.328 1.253-3.668 1.477-5.01 1.656-9.887.179-4.742.044-6.218-.761-9.305-1.834-7.068-6.531-14.45-12.392-19.505-2.639-2.281-9.394-6.933-9.931-6.933-.179.044-.761.939-1.253 2.057"/><path fill="#005CA0" d="M157.119 26.415c.984 1.073 2.013 2.728 2.281 3.668.313 1.163.492 10.423.492 26.886v25.186h14.001999999999999l-2.057-2.192c-1.119-1.208-2.237-2.908-2.506-3.892-.313-1.163-.492-10.244-.492-26.707V24.446h-13.555zM57 47.351v2.013l4.474.224c5.726.268 8.857 1.7 11.05 4.965 2.639 3.937 3.13 11.453 1.028 16.374-1.923 4.473-5.681 6.576-12.615 7.068L57 78.263v1.656c0 1.655 0 1.655 2.103 1.923 5.1.582 13.241-1.029 16.91-3.266 2.236-1.386 5.1-4.741 6.307-7.38 2.193-4.743 2.193-12.84 0-17.135-2.818-5.547-8.32-8.007-19.146-8.455L57 45.338zM114.709 47.44v1.924l4.384.224c5.01.268 7.158 1.029 9.574 3.355 2.639 2.595 3.668 5.413 3.668 10.424.045 5.413-.895 8.365-3.49 10.915-2.281 2.282-5.234 3.355-10.244 3.713l-3.892.268v3.714l4.652-.135c5.145-.134 9.44-.94 12.527-2.415 6.084-2.864 9.662-9.082 9.662-17 0-11.765-7.068-16.955-23.128-16.955h-3.713z"/><path fill="#F3D902" d="M58.866 24.516c-.763 0-.853.925-.136 1.396.76.499 3.618 3.207 4.808 4.555 3.064 3.47 4.454 6.447 4.759 10.193.085 1.046.237 2.057.339 2.246.216.403.554.444.84.1.112-.135.482-.334.822-.443.83-.264 1.453-.875 1.859-1.822 1.295-3.018.518-6.672-2.128-10.001-1.083-1.363-2.112-2.329-3.668-3.443-1.108-.792-3.605-2.187-3.717-2.075-.038.038.634.615 1.494 1.28s2.1 1.762 2.755 2.438c1.139 1.175 3.559 4.616 3.926 5.582.378.993-.204.383-1.454-1.525-1.56-2.38-3.536-4.416-5.732-5.91-1.773-1.204-4.306-2.571-4.767-2.571"/><path fill="#F3D902" d="M76.91 41.183c-.09-.209-.317-1.008-.508-1.776-.98-3.952-2.098-5.91-5.039-8.816-3.092-3.056-6.525-5.248-9.897-6.32-2.354-.75-2.98-1.414-2.092-2.218.505-.458 2.85-.528 5.095-.153 4.621.773 7.652 2.287 10.28 5.135 1.79 1.94 2.86 3.994 3.919 7.523l.253.844-.099-1.097c-.53-5.909-5.246-10.748-13.088-13.434l-2.243-.768 2.282.093c2.738.113 4.308.48 6.263 1.46 1.83.92 2.69 1.513 4.006 2.766 1.98 1.884 3.248 4.023 3.901 6.577.627 2.45.352 6.85-.493 7.893l-.302.373-.262-.497c-.297-.56-.378-.443-.514.74-.084.73-.813 2.055-1.131 2.055-.094 0-.243-.171-.332-.38"/></g><defs><clipPath id="a"><path fill="#fff" d="M0 .755h200v117H0z"/></clipPath></defs></svg>