<svg xmlns="http://www.w3.org/2000/svg" width="200" height="118" fill="none"><g clip-path="url(#a)"><path fill="#005CA0" d="M104.2 1.18c-13.16 1.17-28 4.3-40.8 8.6l-6.85 2.27v5.2l4.39-1.57a166 166 0 0 1 58.02-10.2c11.63 0 19.1.71 28.36 2.64 2.82.62 5.2 1.03 5.28.94.09-.05.4-1.08.76-2.2.63-2.05.58-2.1-.31-2.32-12.57-2.91-17.14-3.4-31.63-3.58-7.02-.09-14.76 0-17.22.22M162.58 4.9c-2.15.76-3.58 3-3.58 5.68 0 5.86 7.7 8 10.73 3a5.9 5.9 0 0 0-2.68-8.55c-2.1-.85-2.37-.85-4.47-.13"/><path fill="#005CA0" d="M45.1 17.29C27.92 25.88 15.93 35.59 8.37 46.9.32 59.03-1.38 72.04 3.72 83.23c6.53 14.45 24.6 26.08 47.91 30.87 11.14 2.28 15.8 2.68 30.2 2.73 7.38 0 14.18-.18 15.12-.36 1.65-.36 1.65-.36 1.65-2.6v-2.28l-5.45.4c-39.95 2.69-74.31-9.3-84.46-29.48-8.6-17.18.93-37.35 25.27-53.46 3.9-2.6 10.51-6.4 11.1-6.4.17 0 .3 12 .3 26.62 0 29 .1 28.1-2.59 31.14l-1.34 1.52 6.22-.13 6.22-.14V52.81c0-33.33-.54-30.56 5-26.13 5.24 4.16 8.02 8.86 8.69 14.68.18 1.56.53 2.81.9 2.95.89.36 3.44-1.61 4.33-3.31a6 6 0 0 0 .58-3.8c-.22-2.1-.18-2.2.4-1.12.36.62 1.08 2.41 1.62 4.02a82 82 0 0 0 1.16 3.27c.4.71 2.01-.76 3.13-2.95 1.07-2.02 1.25-2.87 1.25-6.13 0-4.43-.8-6.35-4.11-9.89a15.5 15.5 0 0 0-16.46-3.98 27 27 0 0 1-4.57 1.2l-1.92.23v-4.3c0-2.36-.18-4.29-.4-4.29s-3.99 1.8-8.37 4.03m27.29 4.43c4.92 2.41 8 7.15 8.05 12.34.05 3.1-.98 6.31-1.56 4.88-.27-.72-.36-.67-.36.36a3.7 3.7 0 0 1-.8 1.97c-.72.71-.81.58-1.35-1.8a22 22 0 0 0-1.52-4.38c-2.2-4.34-8.86-9.62-13.69-10.82-2.37-.63-3-1.7-1.48-2.5 1.3-.72 7.16.17 10.11 1.51a15.8 15.8 0 0 1 8.68 10.43l.45 1.7-.22-1.7c-.63-5.6-5.86-10.6-13.42-12.93l-2.69-.8 3.45.13c2.77.13 4.02.44 6.35 1.6m-10.2 4.34c3.4 2.01 5.73 4.3 7.38 7.1.72 1.22 1.3 2.02 1.3 1.75 0-.53-2.24-3.98-3.67-5.63a28 28 0 0 0-3.18-2.78c-2.6-1.92-2.23-2.05.8-.3 4.89 2.8 8.02 7.24 8.06 11.53 0 2.28-1.2 4.83-2.37 4.83-.27 0-.63.14-.8.36q-1.42 1.4-1.48-2.23c-.05-3.5-1.97-7.39-5.55-11.05a39 39 0 0 0-3.85-3.54c-1.02-.67-.98-1.65.14-1.65.31 0 1.74.71 3.22 1.6M175.28 15.77l-.98 2.01 2.32 1.48q13.04 8.4 17.1 20.17c1.02 3.04 1.2 4.34 1.25 8.5 0 10.11-4.03 18.61-13.38 28.32-14.27 14.85-36.28 26-63.26 32.03a48 48 0 0 1-6.13 1.16h-1.07V45.47H97.22l1.6 1.43c.9.76 2.07 2.24 2.6 3.22.99 1.84.99 1.88 1.12 33.91.1 29.13.18 32.12.85 32.12 1.08 0 11-1.74 14.4-2.5 4.7-1.08 17.63-5.01 23.76-7.16 7.56-2.73 21.47-9.66 27.74-13.82 15.03-10.02 24.51-21.03 28.67-33.33 1.25-3.67 1.48-5.01 1.66-9.89.18-4.74.04-6.21-.76-9.3-1.84-7.07-6.53-14.45-12.4-19.5-2.63-2.29-9.39-6.94-9.93-6.94-.18.04-.76.94-1.25 2.06"/><path fill="#005CA0" d="M157.12 26.41a12 12 0 0 1 2.28 3.67c.31 1.17.5 10.43.5 26.89v25.19h13.99l-2.05-2.2c-1.12-1.2-2.24-2.9-2.5-3.89-.32-1.16-.5-10.24-.5-26.7V24.44h-13.56zM57 47.35v2.01l4.47.23c5.73.27 8.86 1.7 11.05 4.96 2.64 3.94 3.13 11.46 1.03 16.38-1.92 4.47-5.68 6.57-12.61 7.06l-3.94.27v1.66c0 1.65 0 1.65 2.1 1.92 5.1.58 13.24-1.03 16.91-3.26 2.24-1.39 5.1-4.75 6.31-7.38 2.2-4.75 2.2-12.84 0-17.14-2.82-5.55-8.32-8-19.15-8.45L57 45.34zM114.7 47.44v1.92l4.4.23c5 .27 7.15 1.03 9.57 3.35 2.64 2.6 3.67 5.42 3.67 10.43.04 5.41-.9 8.36-3.5 10.91-2.28 2.28-5.23 3.36-10.24 3.72l-3.9.26v3.72l4.66-.14c5.15-.13 9.44-.94 12.53-2.41 6.08-2.87 9.66-9.08 9.66-17 0-11.77-7.07-16.96-23.13-16.96h-3.71z"/><path fill="#F3D902" d="M58.87 24.52c-.77 0-.86.92-.14 1.4.76.5 3.62 3.2 4.8 4.55C66.6 33.94 68 36.9 68.3 40.66c.08 1.05.23 2.06.34 2.25.21.4.55.44.84.1.1-.14.48-.34.82-.45a3 3 0 0 0 1.86-1.82c1.3-3.02.51-6.67-2.13-10a17 17 0 0 0-3.67-3.44c-1.1-.8-3.6-2.19-3.72-2.08-.03.04.64.62 1.5 1.28.86.67 2.1 1.76 2.75 2.44 1.14 1.17 3.56 4.62 3.93 5.58.38 1-.2.39-1.46-1.52a21 21 0 0 0-5.73-5.91c-1.77-1.2-4.3-2.57-4.76-2.57"/><path fill="#F3D902" d="M76.9 41.18c-.08-.2-.3-1-.5-1.77-.98-3.95-2.1-5.91-5.04-8.82-3.09-3.05-6.52-5.25-9.9-6.32-2.35-.75-2.97-1.41-2.09-2.22.5-.45 2.85-.53 5.1-.15 4.62.77 7.65 2.29 10.28 5.13 1.79 1.95 2.86 4 3.92 7.53l.25.84-.1-1.1c-.53-5.9-5.24-10.74-13.09-13.43l-2.24-.77 2.28.1c2.74.1 4.31.48 6.27 1.46 1.83.92 2.69 1.5 4 2.76a13.4 13.4 0 0 1 3.9 6.58c.63 2.45.35 6.85-.49 7.9l-.3.37-.26-.5c-.3-.56-.38-.44-.52.74-.08.73-.81 2.05-1.13 2.05-.1 0-.24-.17-.33-.38"/></g><defs><clipPath id="a"><path fill="#fff" d="M0 .75h200v117H0z"/></clipPath></defs></svg>