<svg xmlns="http://www.w3.org/2000/svg" width="200" height="229" fill="none"><path fill="#0B4058" fill-rule="evenodd" d="M100 213.3a27.4 27.4 0 0 1-13.43 7.32 6 6 0 0 0-2.8 1.8 15.4 15.4 0 0 1-15.57 5.12c-4.58-.81-8.71-3.25-11.63-6.86a3 3 0 0 0-1.45-.93 14 14 0 0 1-6.69-4.13c-2.5-2.56-5.17-4.94-7.8-7.39a5 5 0 0 1-1.39-2.15 14.5 14.5 0 0 0-6.16-7.73 55 55 0 0 1-5.29-3.49 28 28 0 0 1-10.35-14.7c-.99-3.26-2.27-6.4-3.49-9.6a60 60 0 0 1-3.14-13.14 11 11 0 0 0-1.33-4.65 67 67 0 0 1-6.98-19.01 52 52 0 0 1-1.69-17.73q.75-7.56 2.74-14.89a70 70 0 0 0 1.8-8.43q.3-3.67-.12-7.32a56 56 0 0 1 6.75-29.77c4.75-8.88 10.78-17.01 17.9-24.13l6.86-7.2a42.6 42.6 0 0 1 20.24-12.5l1.97-.65a8.4 8.4 0 0 0 4.71-2.9c2.79-2.97 6.5-4.9 10.53-5.47 3.14-.64 6.4-.93 9.65-1.34a49 49 0 0 1 5-.35 12.7 12.7 0 0 1 10.75 5.18l.41.46.7-.81a12.3 12.3 0 0 1 9.47-4.77q2.93-.13 5.82.3c2.9 0 5.81.52 8.6.98 2.69.42 5.28 1.28 7.68 2.56a16 16 0 0 1 5.11 4.18q.7.82 1.69 1.23 2.1.86 4.3 1.4a43 43 0 0 1 19.83 12.26c2.61 2.67 5.11 5.35 7.67 8.02a97 97 0 0 1 18.49 25.87 54 54 0 0 1 5.81 26c0 1.97 0 4-.29 5.8a20 20 0 0 0 .7 6.46c1.34 5.23 2.68 10.4 3.49 15.75a51.5 51.5 0 0 1-1.16 21.46q-1.03 3.74-1.98 7.56a34 34 0 0 1-3.72 9 20 20 0 0 0-2.9 8.56 53 53 0 0 1-3.44 13.3c-1.16 3.09-2.27 6.11-3.31 9.2a27 27 0 0 1-9.54 13.08 64 64 0 0 1-5.81 3.95 14 14 0 0 0-6.16 7.67 5 5 0 0 1-1.4 2.16l-9.01 8.48a9 9 0 0 1-4.24 2.62 7 7 0 0 0-3.55 2.33 18.7 18.7 0 0 1-18.2 5.81 14.6 14.6 0 0 1-8.37-5.35 3.3 3.3 0 0 0-1.98-1.28 5 5 0 0 1-1.22-.4 26.5 26.5 0 0 1-13.08-6.8" clip-rule="evenodd"/><path fill="#BAD67F" fill-rule="evenodd" d="M18.08 149.75a50 50 0 0 1-4.6-9.6l.82-.4c0-1.1-.35-1.46-1.33-1.51a79 79 0 0 1-3.32-15.76h3.14v-1.57h-2.5q-.32-5.14.4-10.23c.36-1.52.7-3.09 1-4.6.29-1.5.4-1.62 1.5-1.45v-1.22c0-.12-.46-1.28 0-1.98a36 36 0 0 0 1.64-11.63v-2.2c.52 0 1.5-.35 1.1-1.57l-1.63-.64a1 1 0 0 1 0-.47c-.26-2.21-.02-4.46.7-6.57 0-.58.52-1.22-.3-1.69-.8-.46 0-.52 0-.75 0-1.69.65-3.37 1-5.12h2.9c.88 0 1.17-.4 1.1-1.28h-2.03c.93-2.67 1.86-5.17 2.8-7.73l-1.23-.52c.93-1.69 1.75-3.32 2.74-4.89 0 0 .58-.34.93-.4h1.5c.7 0 .7 0 1.29-1.1l-1.75-.36q.18-.65.47-1.28a39 39 0 0 1 7.44-10.7c3.6-4 7.38-7.84 11.05-11.62a2 2 0 0 1 1.86-.7 4.9 4.9 0 0 0 4.7-2.27l1.7-2.2s.57-.59.52-.82c0-1.4.81-1.8 1.74-2.2l6.86-2.5c1.28-.47 2.56-.82 3.95-1.23q.28.55.64 1.05A4.36 4.36 0 0 0 70 17.7c0-.4.58-.81.87-1.22s.64-1.28-.64-1.92a3 3 0 0 1 1.8-1.51q1.63-.75 3.32-1.34.47-.12.93 0a3.3 3.3 0 0 0 3.31-.4q.53-.32 1.1-.53l.82 1.1a2.7 2.7 0 0 0 2.9-.69 2.5 2.5 0 0 1 2.57-.87c.52 1.33-1.1.64-1.34 1.5 1.32.3 2.69.3 4.01 0l-.75-.4s-.53-.75-.53-.93a1 1 0 0 1 .76-.7c.95 0 1.86.35 2.56 1l-.93.46v.29h1.91l.82 2.56c-3.14.52-3.49.81-3.37 3.72.11 2.9 2.44 1.5 4.07 1.97v3.5q-.94.07-1.86 0a2.1 2.1 0 0 0-2.39 1.04q-.42 2.25-.4 4.53c.8.47 1.33 1.46 2.55 1.17q1.22-.14 2.44 0c0 2.38-.34 4.59-.46 6.86v-2.44h-2.1v1.86h-.63c-.58 0-.58.81 0 .93s.81.81.81 1.45v2.5h-1.63c-.81 0-.81.46-.64 1.22h4.48c0 1.74-.35 3.31-.52 4.94h-2.68c-.52 1.05-.52 1.05-1.63 1.46v5.81c.7 0 1.46.35 1.34 1.4h1.8v5.34H91l-.47 1.17h-1.28v6.5h1.28l.35 1.29h2.33c.35 1.86.75 3.78 1.1 5.81h-2.1v2.62l-1.27.29v1.22l1.45.4v4.08h-4v1.57h5.8v6.4h-4q-.23.7-.35 1.44h-1.46v7.45l1.46.35v1.4h4.36c0 2.26-.41 4.4-.64 6.68H90c0 .58 0 1.04-.35 1.57h-1.34v7.85h1.34c0 .4 0 .87.35 1.45h3.6c0 2.2.53 4.3.82 6.57h-2.85v2.85l-1.45.35v1.28l1.5.29v4.3h-2.96v1.34h5.24c-.41 2.26-.82 4.3-1.17 6.45h-2.15q-.1.65-.29 1.28h-1.34v9.53l1.4.41q.17.57.29 1.16h2.73q.64 2.87.76 5.82h-3.2c0 .46-.35.87-.52 1.28h-1.1v6.28c.57.52 1.91 0 1.5 1.39h2.21v.52a31 31 0 0 0-1.22 6.52c0 .52-.7.98-.75 1.45s.75.76.81 1.22q.09 1.33 0 2.67h-2.2v1h2.37c0 1.45.47 2.9.76 4.47-1.4 0-1.86 1.05-2.85 1.57v2.56a11 11 0 0 0 0 1.97c0 .59 1.34.3 1.34 1.22q.44.09.87 0h2.1v5q-.7.09-1.4 0c-1.05 0-1.51.76-2.27 1.1a.8.8 0 0 0 0 .6v2.9q.07.46.4.75c.94.88.94 1.17 0 1.8a33 33 0 0 1-8.01 3.15q-.39.12-.76 0a7 7 0 0 0-3.66-.7l-.53.99c0 .75 1.34 1.57 0 2.38-1.22-.64-1.22-2.15-2.44-2.9-1.1-.5-2.29-.71-3.49-.65-.75.76-.52 1.4 0 2.04l1.17 1.57a1.3 1.3 0 0 0 1.4.58s.34.58.57.64q.75.05 1.51 0a7.84 7.84 0 0 1-11.62 0h1.68q-.08-.6-.4-1.1c-1.23-1.05-2.1-2.56-3.78-3.26a4.6 4.6 0 0 0-2.15-.4 6.6 6.6 0 0 1-5.82-2.22l-4.7-5.17a4 4 0 0 0-1.75-1.4 3.7 3.7 0 0 1-1.46-1.62c-1.62-2.8-3.2-5.82-4.76-8.5-.3-.52-.58-1.04-1.28-1.04a.6.6 0 0 1-.53-.35c-.46-.87-1.27-.81-2.03-.75a4 4 0 0 1-2.1-.41c-1.27-.93-2.61-1.75-3.89-2.73-2.99-2.38-5.2-5.6-6.34-9.25-1.16-3.6-2.55-7.15-3.83-10.7a43 43 0 0 1-2.39-11.86h1.51l.64 1.4h4.83c-.35-.99.4-1.28 1.05-1.63l-1.4-6.8a1.6 1.6 0 0 1-1.2-.41 1.6 1.6 0 0 1-.54-1.16h-5.06c0 .93 0 1.45-.99 1.51v1.4zm51.16 65.87c.76 1.28 1.86.46 2.85.58a5.8 5.8 0 0 0-2.03-3.72 5 5 0 0 0-4.71-.87q.09.72.46 1.33.86 1.2 1.98 2.16.68.38 1.45.52m14.13-103.78h-6.22c0 .52 0 .93-.35 1.34l-1.4.34v7.8h1.46c0 .58 0 .98.3 1.45h6.27c0-.58 0-1.05.3-1.45l1.33-.3v-7.55h-1.4c-.11-.76-.17-1.17-.29-1.63m-19.47 1.34-1.4.34v7.74h1.45v.75a3 3 0 0 0 0 .64h6.22c0-.52 0-.98.3-1.45h1.39v-7.62l-.93-.4v-1.22h-6.8q-.09.6-.23 1.22m8.37-9.83V95.8h-1.28v-1.33h-5.82q-.2.65-.34 1.33l-1.52.35v7.44l1.17.3q.03.66 0 1.33h6.22v-1.4zm-12.8 0 .36-7.44-1.34-.35-.35-1.28h-5.81l-.35 1.28-1.4.35c0 2.44-.29 4.94-.4 7.44h1.39v1.4h5.81q.25-.69.35-1.4zm-6.97 37.1h5.81l.3-1.34 1.33-.3-.35-7.38-1.45-.29-.35-1.34h-5.81q.05.65 0 1.28l-1.34.35c0 2.5.35 4.94.46 7.39l1.46.29c-.3.4-.18.75-.06 1.28zm19.88-8.96-1.45-.35-.4-1.28H64.7q-.18.63-.3 1.28l-1.5.3c0 2.5.29 4.93.4 7.38h1.46l.35 1.22h5.81v-1.22h1.16zm-26.1-35.87c0-.58 0-.99-.35-1.4h-5.81l-.35 1.34h-1.4l-.52 7.38 1.34.41v1.34H45l.35-1.28 1.34-.4c0-2.5 0-4.95.46-7.45zm-8.08 35.7c0 2.44.4 4.88.58 7.32l1.34.35.52 1.28h5.81l.3-1.22 1.22-.35c0-2.5 0-4.88-.47-7.33l-1.45-.34v-1.4h-5.82v1.4zm-21.4-8.78h5.23v-1.28l1.11-.4v-7.74l-1.22-.3c0-.46 0-.92-.3-1.39h-4.88l-.34 1.28-1.1.4v7.68c1.15 0 1.39.82 1.5 1.75m54.54 24.36h-5.82q-.03.57 0 1.16l-1.45.4.35 6.7 1.4.28.34 1.17h5.82l.29-1.17 1.28-.29c0-2.38 0-4.65-.47-7.03h-1.4zm-5.82-68.08-1.4.29c0 2.38-.4 4.7-.57 6.97l1.4.3q.03.67 0 1.33h5.8c0-.52.3-.99.35-1.4h1.4c0-2.32 0-4.59.4-6.91l-1.27-.35c0-.47 0-.87-.3-1.28h-5.8c.17.17.05.58-.12 1.05zm-4.94 7.26c0-2.44.4-4.7.64-7.03L60 78.7q-.05-.6 0-1.22h-5.81a1.4 1.4 0 0 1-1.75 1.4c0 2.44-.58 4.76-.87 7.15l1.28.34q.17.64.29 1.28h5.81l.35-1.28zm-26.86 43.5h-5.81v1.21l-1.34.41c0 2.44.46 4.94.7 7.2q.75.23 1.4.65.3.54.4 1.16h5.35v-1.34l1.63-.34-.7-7.33c-1.1.06-1.69-.46-1.63-1.63M59.02 147H53.2v1.1l-1.28.47c.35 2.33.64 4.6.93 6.92a1.45 1.45 0 0 1 1.8 1.4h5.82v-1.1l1.22-.36-.7-6.97h-1.46q-.06-.8-.23-1.57zm-31.75-51.5-.7 7.5 1.22.34q-.05.68 0 1.34h5.81q.04-.65 0-1.28l1.57-.58c0-2.44.41-4.83.59-7.39-1.34 0-1.34-.87-1.52-1.62h-5.29q-.15.62-.4 1.22zM48.2 78.63q-.19-.6-.3-1.22h-5.46c0 1.16-.64 1.4-1.63 1.4-.34 2.38-.7 4.7-1.1 7.09l1.4.4v1.23h5.8c0-.47.36-.88.47-1.28h1.34l.87-7.04zm-24.36 24.19c0-2.56.52-5 .75-7.44h-1.22v-1.4h-5.35c0 1.28-.64 1.45-1.5 1.63 0 2.56-.53 4.94-.76 7.38l1.16.4v1.35h5.11c0-.41 0-.88.41-1.34zM77.97 70.1c0 .46 0 .8.29 1.16h5.81c-.3-1.22.7-1.28 1.57-1.57v-6.51c-.99 0-1.16-.7-1.45-1.34h-5.41c0 1.22-.81 1.28-1.69 1.51 0 2.21 0 4.36-.4 6.51zM40 148.35c.35 2.33.76 4.54 1.1 6.8l1.34.3c0 .46.4.87.58 1.33h5.3v-1.16l1.21-.4c-.34-2.4-.63-4.66-.98-7.1-1.28.35-1.52-.47-1.75-1.34H41V148zm33.78-78.37c0-2.33.4-4.48.58-6.86-1.22.4-1.28-.52-1.4-1.22h-5.52c0 1.1-.75 1.28-1.63 1.4l-.7 6.56c1 0 1.58.53 1.46 1.51h5.81c-.29-1.1.35-1.4 1.4-1.4m5.81 102.1h5.82c0-1.11.64-1.29 1.45-1.4 0-2.21 0-4.3-.35-6.4h-1.28l-.46-1.16h-5.82l-.29 1.1-1.33.35c0 2.15.4 4.25.64 6.57 1.04-.7 1.27.18 1.5.93zM29.9 78.7c-.47 2.5-.88 4.77-1.29 7.2 1.23 0 1.23.82 1.34 1.52h5.35c0-1.22.87-1.28 1.63-1.51.4-2.38.75-4.65 1.16-7.1-1.22 0-1.16-.8-1.34-1.5h-5.17c-.06 1.04-.58 1.5-1.69 1.39m42.78 84.19h-5.81v1.1h-1.34c0 2.21.64 4.25.93 6.28q.68.11 1.28.4.39.47.53 1.05h5.4c0-1.1.64-1.22 1.28-1.57 0-2.09-.4-4.12-.58-6.22-.87.18-1.86.23-1.69-1.04m-35.4-6.28c-.35-1.05.4-1.34 1.1-1.57q-.62-3.5-1.16-6.8h-1.34l-.46-1.34h-5.18v1.28h-1.16l1.16 6.97c1.17 0 1.51.59 1.8 1.4zM23.08 71.03h4.89c0-1.1.93-1.28 1.68-1.52l1.86-5.81-1.28-2.27h-2.5c-.81 0-1.68 0-1.97.93a.6.6 0 0 1-.53.35c-.75 0-.93.58-1.16 1.1l-1.74 5.24v.35l.81.4c0 .35 0 .64-.06 1.23m45.47-22.04h-.35c-.35 1.92-.64 3.84-1 5.47l1.52 1.74h5c0-1.28.93-1.1 1.57-1.4L76 49c-1.05 0-1.16-.52-1.34-1.22H70.3zM37.73 121.2v1.69h9.07v-1.63h-3.08v-9.3h-2.9c0 .98 0 1.91-.3 2.96l-1.28.3v1.33l1.28.4v4.3zM22.5 163.82l2.03 5.81c0 .35.41.81.7.81a1.5 1.5 0 0 1 1.17.93 1 1 0 0 0 .75.47h3.6c.47-.64.76-1.1 1.23-1.69l-1.75-6.28c-1.1 0-1.45-.52-1.68-1.4H23.9c-.35.7-.18 1.46-1.4 1.35m36.74-40.7v-1.69H56.1v-9.6h-3.13v2.92l-1.63.29v1.4h1.4v4.64h-2.91v1.57zm5.35-68.03c.41-2.09.82-3.95 1.1-5.8l-1.39-1.81h-4.42c0 1.16-.81 1.22-1.62 1.34l-1.46 5.46 1.4 1.86h4.77a1.34 1.34 0 0 1 1.62-1.28zm6.34 130.7h4.54c-.59-1.28.75-.93 1.16-1.45 0-1.86-.53-3.66-.82-5.81-1.04 0-1.45-.47-1.62-1.28h-5.24c0 .93-.52 1.16-1.22 1.45.4 1.92.76 3.78 1.17 5.81h.29zM78.49 99v4.42h-3.02v1.57H85v-1.51h-3.14V94.4h-3.14v2.73l-1.51.3q-.05.66 0 1.33zM54.48 47.48h-4.01c-.3.35-.59 1.05-.88 1.05s-1.22.93-1.5 1.68l-1.35 4.01v.47l.88.35q.08.63.05 1.28h5.06c0-1.34.93-1.17 1.57-1.4q.87-3.03 1.57-5.81c-.58-.53-.87-1-1.4-1.63m10.99 138.31c-.59-1.04.4-1.04.98-1.4-.46-1.91-.87-3.77-1.28-5.8-1.1 0-1.45-.53-1.74-1.29h-4.65l-1.34 1.86c.4 1.52.93 3.32 1.34 4.77l2.32 1.69zm-39.2-63.14h8.67v-1.5H32.1v-9.48h-3.08v2.79l-1.4.4v1.34l1.23.47v4.3h-2.56zm18.9-75.23h-.75c-1.4 0-3.02-.58-4.07 1.05H40s-.7.46-.87.81c-.76 1.75-1.46 3.49-2.21 5.4 1.16 0 .93.7.87 1.4h4.54c.52-.46.46-1.4 1.45-1.28s.52-.46.64-.75q.94-2.54 1.8-5zm2.1 131.69 1.4 3.95c.28.76.4 1.63 1.5 1.63 0 0 .35.4.53.52.17.12.58.53.93.53h3.49l1.28-1.52c-.47-1.62-1.05-3.48-1.52-5l-2.26-1.68h-4.19c-.4.52-.76.87-1.16 1.57m28.54-38.78h9.66q-.05-.68 0-1.34h-3.03c0-3.02-.29-5.81-.4-8.95H78.9v2.79l-1.52.35q-.05.63 0 1.28l1.57.34c0 1.46.41 2.8 0 4.25H76zm0-52.68h9.3v-1.57h-2.55V77.6h-2.9q0 1.4-.36 2.61l-1.33.3v1.27h1.22v4.13H76.1zm3.55 63.96v3.83h-3.02v1.34h9v-1.4l-2.78-.23c0-2.9 0-5.81-.35-8.31H79v2.67h-1.34c.18 1.57.18 1.57 1.69 1.98zm-32.62 32.61a75 75 0 0 0-1.74-4.65 2.3 2.3 0 0 0-.81-1.16q-.45-.43-1-.7-.46-.4-1.04-.58H38.6l-.98 1.69q.12.46.35.87c.98 1.86 1.1 4.24 3.43 5.17q.43.3.93.47h3.43zM32.56 47.25c-.47.46-.64 1.22-1.57 1.22s-.4 0-.52.52L28.2 53.7v.7s0 1.04.58 1.5h1.45c1.17 0 2.5.47 3.26-1.04h.46q.48-.36.88-.81c.75-1.75 1.45-3.49 2.26-5.47-1.33 0-.46-.75-.87-1.22zm38.78-4.71q1.4-.14 2.79 0c1.22 0 1.51-.88 2.38-1.1a1.05 1.05 0 0 0 .76-1.05c0-1.46.46-2.91.64-4.19l-1.17-1.45q-1.24.12-2.5 0c-1.16 0-1.5.81-2.32 1.04-.82.24-.7.58-.82 1.05-.4 1.45-.75 2.9-1.04 4.13zm-54.42 97.5h7.96v-1.4l-2.67-.29c-.35-3.02-.64-5.81-.99-9.07h-2.85v2.62c0 .81-1.22 0-1.16 1.16s.99.64 1.45 1.22c.47.58 0 2.5.41 3.96h-2.44c.23.7.23 1.1.29 1.8M67.79 34.69h-2.67c-.53 0-1 0-1.28.58a.8.8 0 0 1-.58.4c-.64 0-.82.53-1 1l-1.45 4.18 1.1 1.63h3.2c.53 0 1 0 1.17-.64s0-.35.4-.35 1.05-.7 1.17-1.34 0-1.04.4-1.57c.41-.52 1.11-2.61-.46-3.9M56.98 66.2c0 1.22-.41 2.38-.58 3.6h-2.8v1.4h8.55v-1.34h-2.67c.4-2.67.75-5.29 1.16-7.96h-2.67c0 .87-.41 1.63-.59 2.44s-1.74 0-1.4 1.45zM71.8 190.62v.81c-1.1.53-.7 1.34-.4 2.15.29.82.46 1.46.58 2.21.11.76 1.45 1.69 2.26 2.04q1.69.34 3.38 0a.6.6 0 0 0 .46 0c.35-.76 1.22-1.34.76-2.44q-.45-1.5-.64-3.03l-1.98-1.62zm-1.97 5.81-.35-1.16a7 7 0 0 0-2.5-4.3 1.5 1.5 0 0 0-.88-.47h-3.6l-1.05 1.51.64 1.92c0 .64.53 1.34.82 1.98s0 .7.46.81c1.16.41 1.98 1.57 3.43 1.22a7 7 0 0 1 1.86 0zM22.56 77.13c0 .87-.47 1.74-.76 2.73-.81 0-1.63 0-1.33 1.4l.98.58-.87 3.9h-2.5v1.45h7.68q.05-.7 0-1.4H23.3c.59-2.9 1.1-5.81 1.69-8.6zm36.74 85.76h-2.79v2.32l-.99.4c-.46 1.4.76 1.17 1.46 1.52s.35 2.2.58 3.43h-2.39c0 .93 0 1.34 1 1.28h7.6c.42 0 0-.7 0-1.1H61.1c-.7-2.8-1.1-5.3-1.8-7.85m1.57 33.54c-1.22-1.63-.93-4.24-3.31-5.35q-.62-.46-1.4-.58H53.5c-.4.58-.7 1.05-1.05 1.46q.89 1.53 1.51 3.2c.41 1.39 1.69 1.74 2.56 2.5.87.75 1.34 0 2.04 0h1.62zM59.3 34.7h-2.9a3 3 0 0 0-1.05.46l-.76.53s-.7.4-.81.64l-2.27 4.82c1.22 0 .76.76.93 1.28h3.84l1.63-1.16q.42-.34.7-.82.85-2.19 1.62-4.3zm-8.25 0H48.6a6.5 6.5 0 0 0-3.02 1.68l-2.2 4.02v2.03h1.5c1.1 0 2.33.4 2.97-.99h.46c.12 0 .76-.4.88-.75.81-1.46 1.45-2.97 2.09-4.36.35-.76.12-1.17-.18-1.69zm-2.97 35.17c.58-2.73 1.1-5.29 1.63-7.96h-2.56c-.29.81-.46 1.57-.7 2.32-1.33.35-1.33.35-1.4 1.46l1 .52-.88 3.66h-2.61v1.34h7.5c.93 0 .75-.64.7-1.34zm-16.34 1.4h7.27c.82 0 .87-.64.76-1.22l-2.39-.47 2.04-7.73h-2.44l-.93 2.2c-.47.47-1.57 0-1.46 1 .12.99.53.64.88 1.16l-.94 3.26c-.98.52-2.55-.53-2.73 1.74zm14.02 93.66c-.41.52-.93.82-1 1.16-.05.35 1 .53 1.52.93q.6 1.72.7 3.55h-2.15c0 .93 0 1.28 1.04 1.28h7.04c-.3-2.15-2.04-.81-3.03-1.63-.52-2.38-1.1-4.94-1.74-7.5h-2.73q.34 1.38.4 2.15zm-11.1-2.27.57 2.39-.99.52c.3 1.05.3 1.05 1.57 1.45 0 1.1.7 2.27 1.05 3.5h-2.2c0 1.27 0 1.27 1.1 1.33h6.68c0-2.1-1.86-.93-2.9-1.57l-2.21-7.73zM80.8 51.66v3.26h-1.86c-.98 0-1.04.47-.75 1.34h8.02v-1.28h-2.56c0-2.5.3-4.83.41-7.21h-2.56c0 .76 0 1.45-.35 1.92s-1.1.7-1.22 1.1.53.3.87.87M44.36 190.5v.7c0 .06-.46.93 0 1.45 1.1 1.57 1.51 3.67 3.6 4.54.53 0 1 .58 1.57.52h2.39l.75-1.4c-1.27-1.74-1.4-4.24-3.72-5.28-.4 0-.75-.59-1.28-.59zm35.81-10.52c-.52 1.45.88 1.05 1.4 1.57s0 1.92 0 2.96h-2.33c0 .64 0 1.1.64 1.1h7.1a10 10 0 0 1 0-1.15h-2.45c0-2.39-.4-4.66-.63-6.98h-2.68v2.1zm1.1-150.87.94.75s.35.53.52.53c1.4 0 3.03.58 4.25-.93a6.8 6.8 0 0 0 .52-4.89c-.64-.99-1.57-.75-2.44-.93-.87-.17-1.86.58-2.62 1.1-.75.53-.46 1.05-.64 1.58-.17.52-.35 1.8-.52 2.79m-8.07 0c1.33 1.33 1.33 1.33 3.02 1.33 1.16.47 1.75-.64 2.56-1.04s.52-1.05.7-1.57q.1-.57.29-1.1a2.44 2.44 0 0 0-.7-2.97h-2.21a3.7 3.7 0 0 0-2.67 1.86c-.24 1.1-.64 2.27-1 3.43zm9.07 174.42c0 1.04.4 1.97.64 2.9s1.28 1.92 1.97 1.92c.7 0 3.03.47 4.02-1.1v-3.09a2.8 2.8 0 0 0-2.27-1.91q-1.36-.18-2.73 0c-.47 0-.82.64-1.23.99zM81.1 38l1 .53v2.84c-2.45 0-2.45 0-2.33 1.4h6.45c.81 0 .87-.47.64-1.1h-2.2c0-2.16.28-4.25.46-6.34h-2.56c0 .64-.35 1.28-.47 1.92s-1.04-.53-.99.52zm-6.97 165.53c0 .8.52 1.56.81 2.32.4.73 1.04 1.3 1.8 1.63.88.64 1.69.35 2.56.52a2 2 0 0 0 2.1-1.16q-.44-1.36-.64-2.8c0-1.33-1.28-1.74-2.04-2.08a5.4 5.4 0 0 0-3.2 0c-.64.17-.99.87-1.4 1.33zM30.76 179.1c-.82.98-.76 1.22.29 1.68 1.04.47.64 0 .75.47.12.46 1 1.92 1.46 2.9l-2.1.06c.58.47.93 1 1.28 1h5.82c-.47-1-.47-1-2.68-1a365 365 0 0 0-3.31-7.03h-2.04c0 .75.35 1.22.53 1.92M81.34 197c0 .76 0 .93.75.93h5.82c0-1.8-1.75-.58-2.39-1.57-.64-.98-.4-3.72-.64-5.81h-2.32v1.69l-.99.87 1.28 1.22c0 .58 0 1.4.29 2.27zM42.84 34.63c-1.27-.4-2.03 0-2.5.81-.46.82-.63 1.17-1.44 1.22-.82.06-.64.7-.59.76.7 1.05-.4 1.57-.7 2.27a1.7 1.7 0 0 1-1.91 1.28c-.82 0-1.17.35-1.17 1.22h5.06c.7 0 1.17 0 1.22-1.1l-1.68-.36zm26.52-5.81c.7-1.8 1.4-3.5 2.04-5.24-1.1-.35-1.87 0-2.27.88-.4.87-.64.58-1.05.87-.4.29-.64.52 0 .99a.6.6 0 0 1 0 .64c-.29.7-.58 1.4-.87 1.97-1.8 0-1.8 0-2.15 1.22h5.35s.58-.46 1.04-.87zm-7.79 0c.93-1.86 1.86-3.55 2.79-5.3-1.57 0-1.57 0-2.27.88a1.8 1.8 0 0 1-1.22.93 1 1 0 0 0-.46.81 2.4 2.4 0 0 1-2.1 2.8c-.64 0-1.16 0-1.04 1.21h5c.64 0 .87-.4.87-1.04zm15.17-14.07a4 4 0 0 0-4.24 1.33q-.72.96-1.34 1.98c-.52.76-.58 1.34 0 1.92 1.63 0 3.32 0 4.19-1.22s2.1-2.33 1.4-4.01m1.05 5.29h2.27c.8-.2 1.5-.67 1.97-1.34q.46-1.3.82-2.62a1 1 0 0 0-.82-1.28 4 4 0 0 0-2.79.41c-1.04.64-1.22 1.69-1.74 2.56a1.7 1.7 0 0 0 .23 2.27zm-20.23 3.72a1.9 1.9 0 0 0-2.1.52c-.3.57-.83.98-1.45 1.16-.4 0-.64.41-.58.93a2.8 2.8 0 0 1-2.5 2.74c-.58 0-1.1 0-1.1.98h4.65a.87.87 0 0 0 .99-.98h-1.4zm16.51 184.3c-.52-.76-.52-.76-2.15-1.05-.52-1.16-1.1-2.38-1.63-3.6s-.7-1.57-2.56-1.28c0 .64.93 1.4 0 1.98v.52c1.4 0 1.46 1.45 1.98 2.38l-1.63.35c.3.35.47.7.64.7zm-12.73-.58c0 .29.4.64.58.64q2.46.43 4.94 0c-.29-.35-.64-.64-.99-.58s-1.45-.47-1.86-1.22c-.4-.76-1.1-1.98-1.68-2.97-.59-.99-.76-1.28-2.5-.93q.3.56.52 1.16.07.56 0 1.1c1.28.59 2.56 2.04 2.44 2.68zm-1.51.76v-.35c0-.35-.53-.41-.53-.41-1.45 0-2.1-.87-2.79-1.8-.7-.93-1.22-1.63-1.74-2.5a1.74 1.74 0 0 0-2.33-.88c0 .7.93 1.17.35 1.92-.58.76 0 .47.35.47 1.4 0 1.8 1.45 2.56 2.32.75.88 0 0 0 .3h-1.17c1.75 1.39 3.6.46 5.3.8zM83.08 20.15h4.83l.52-.64-1.69-.35c0-1.45.41-2.73.59-4.06-1.8-.88-1.46 1.39-2.33 1.39v2.5c-.52.4-1.4-.12-1.8 1.05z" clip-rule="evenodd"/><path fill="#B3D07E" fill-rule="evenodd" d="M93.31 98.87c.59 0 1 0 1 .7v3.78h-2.57v-2.9l1.46-.36v-1.22z" clip-rule="evenodd"/><path fill="#ABC87C" fill-rule="evenodd" d="M93.37 98.87H91.7v-2.84h2.5c0 .58.46 1.16-.59 1.5-1.04.36 0 1.05 0 1.58zM91.86 118.23h1.34c0 1 0 1.92.4 3.03h-1.74z" clip-rule="evenodd"/><path fill="#A5C27B" fill-rule="evenodd" d="M93.72 166.78h-1.57v-2.62q.9-.08 1.8 0a1 1 0 0 1 .58.64v.59s-.52.81-.58 1.33zM92.85 19.16h-.82c-.46-.34-.34-.98.35-1.74l-.81-1.8h1.57c-1.05 1.22 1.05 2.2-.3 3.54" clip-rule="evenodd"/><path fill="#A5C27B" fill-rule="evenodd" d="M93.66 166.78s.47.3.47.35q-.18 1.56-.53 3.08c0 .7-.75.58-1.4.35v-2.15l1.35-.47v-1.22zM92.5 195.04l1.4-.53q.42.96.93 2.27h-2.21c-.06-.58-.06-.93-.12-1.74" clip-rule="evenodd"/><path fill="#ABC87C" fill-rule="evenodd" d="M91.8 113.4h1.57c0 1.06 0 1.99-.4 3.03H91.8z" clip-rule="evenodd"/><path fill="#B3D07E" fill-rule="evenodd" d="M92.67 26.55h.93v2.61h-1.8c0-.87-.4-1.68.76-1.97v-.76z" clip-rule="evenodd"/><path fill="#A5C27B" fill-rule="evenodd" d="M48.49 26.26c-.93 2.32-1.69 2.9-3.08 2.67.29-1.68 2.26-1.68 3.08-2.67" clip-rule="evenodd"/><path fill="#9AB879" fill-rule="evenodd" d="M92.97 48.82c0 2.26 0 2.32-1.4 2.2v-2.2zM66.1 19.1c.3-1.5 1.63-1.56 2.62-2.44-.58 1.98-1.16 2.5-2.62 2.45M20 155.15h-.4q-.72-2.62-1.52-5.23l.52-.58zM93.66 204.69c.35 0 .87 0 .7.58a2.9 2.9 0 0 1-1.45 2.15c0-.87-.58-1.51.46-1.98 1.05-.46 0-.52.3-.81z" clip-rule="evenodd"/><path fill="#A5C27B" fill-rule="evenodd" d="M93.66 204.69c-.46 0-.81 0-.93-.4a9 9 0 0 1 0-1.23h2.1z" clip-rule="evenodd"/><path fill="#9AB879" fill-rule="evenodd" d="M92.73 26.49h-.93v-1.86h1.8c0 .93-1.33.87-.93 1.8z" clip-rule="evenodd"/><path fill="#B3D07E" fill-rule="evenodd" d="M93.14 155.15h-.99v-2.5c.87.24.87.24.99 2.5" clip-rule="evenodd"/><path fill="#9AB879" fill-rule="evenodd" d="M91.92 67.07c.48.85.6 1.85.35 2.8-.93-.41-1.05-1-.35-2.8M93.66 193.82q-.52.04-1.04 0a1.9 1.9 0 0 1 0-1.98c.98.29.93 1.05 1.04 1.98M91.74 63.3a3 3 0 0 1 0 2.84 3.1 3.1 0 0 1 0-2.85" clip-rule="evenodd"/><path fill="#A5C27B" fill-rule="evenodd" d="M74.77 215.62v-1.86h.35l1.33 1.86H74.6z" clip-rule="evenodd"/><path fill="#B3D07E" fill-rule="evenodd" d="M92.44 52.48v2.44c-1.22-.87-1.16-1.98 0-2.44" clip-rule="evenodd"/><path fill="#A5C27B" fill-rule="evenodd" d="m63.49 213.58 1.86 1.69c-1.34.35-1.63.12-1.86-1.69" clip-rule="evenodd"/><path fill="#B3D07E" fill-rule="evenodd" d="M92.56 148.53v2.79a3 3 0 0 1-.4-2.8z" clip-rule="evenodd"/><path fill="#A5C27B" fill-rule="evenodd" d="M73.08 212.36h1.75l-.64 1.46zM81.16 212.83c-.52 0-1.04.81-1.57-.41h1.57z" clip-rule="evenodd"/><path fill="#9AB879" fill-rule="evenodd" d="M82.56 10.68h1.16c-.46.7-.87.64-1.16 0" clip-rule="evenodd"/><path fill="#104459" fill-rule="evenodd" d="M83.37 111.84c0 .46 0 .87.3 1.34h1.39v7.73l-1.34.29c0 .4 0 .87-.29 1.45h-6.28c0-.46 0-.87-.29-1.45h-1.45v-7.67l1.4-.35c0-.41 0-.82.34-1.34zm-4.6 6.45v2.97h2.97v-4.6h-1.4v1.4zm3.03-3.43v-1.4h-3.02v3.03h1.16q.05-.75 0-1.51z" clip-rule="evenodd"/><path fill="#114459" fill-rule="evenodd" d="M63.9 113.18v-1.22h6.45v1.22l1.45.4v7.68h-1.4c0 .46 0 .93-.28 1.45h-5.93v-.64q.03-.37 0-.75h-1.46v-7.8zm3.37 3.31v-1.45h1.5v-1.28h-3.01v2.96h1.57q-.05.75 0 1.52l-1.46.34v2.91h3.03v-4.53zM72.27 103.35H70.7a10 10 0 0 0 0 1.4h-6.46v-1.34l-1.22-.3v-7.2l1.51-.35.41-1.34h5.82v1.34h1.27c.24 2.73.24 5.17.24 7.8m-4.65-4.42v-1.5l1.45-.3v-1.34h-3.02v2.97h1.57v1.4l-1.4.28v2.74h2.9v-4.36z" clip-rule="evenodd"/><path fill="#144659" fill-rule="evenodd" d="M59.3 103.3h-1.45l-.35 1.39h-5.81v-1.4h-1.4c0-2.5 0-5 .4-7.44l1.4-.35.35-1.28h5.82l.34 1.28 1.34.35zm-2.96-4.37h-1.46q.04.59 0 1.16l-1.4.47v2.73h2.86zm-1.4-1.57h1.34v-1.33h-2.8v2.67c1.29-.06 1.29-.06 1.64-1.34z" clip-rule="evenodd"/><path fill="#124559" fill-rule="evenodd" d="M52.5 140.39c0-.53 0-.88-.35-1.34l-1.45-.3c0-2.43 0-4.88-.47-7.38l1.34-.34q.05-.65 0-1.28h5.81l.35 1.33 1.46.3.34 7.38-1.33.29-.3 1.34zm.99-4.42q0 1.5.35 2.79h2.9c0-1.51 0-2.85-.29-4.3h-1.28q-.03.63 0 1.27zm1.28-1.69v-1.34l1.45-.34v-1.34H53.2v2.9z" clip-rule="evenodd"/><path fill="#104459" fill-rule="evenodd" d="M72.38 131.43v7.44h-1.16v1.22h-6.1l-.35-1.27H63.3c0-2.45 0-4.89-.4-7.39l1.5-.29.3-1.28h5.81l.41 1.28zm-4.82 3.03v-1.52l1.4-.29c0-1.33 0-1.33-1-1.4h-2.03v3.03h1.57v1.4l-1.45.4q.08 1.31 0 2.62h2.85v-4.36z" clip-rule="evenodd"/><path fill="#114459" fill-rule="evenodd" d="M46.28 95.56h1.28c0 2.5-.3 4.94-.47 7.44l-1.33.4c0 .36 0 .82-.35 1.29h-5.82v-1.34l-1.33-.4.52-7.39h1.4l.34-1.34h5.82c-.3.35-.18.76-.06 1.34m-3.49 3.02V97.3h1.4v-1.27h-2.33v2.73h1.28v1.51l-1.45.4v2.68h2.79v-4.3z" clip-rule="evenodd"/><path fill="#124559" fill-rule="evenodd" d="M38.2 131.32h1.28v-1.4h5.81q.04.7 0 1.4l1.45.34c0 2.45.3 4.83.47 7.33h-1.22c0 .35 0 .76-.3 1.28h-5.8l-.53-1.28-1.34-.35c.58-2.44.35-4.88.18-7.32m4.65 2.79v-1.17l1.22-.34v-1.28h-2.9v2.79h1.39v1.45l-1.46.47.35 2.61h2.85c0-1.51 0-2.85-.35-4.24z" clip-rule="evenodd"/><path fill="#14475A" fill-rule="evenodd" d="M16.8 122.54c0-.93-.35-1.75-1.5-1.75v-7.67l1.1-.4.34-1.29h5.12c0 .47 0 .93.3 1.4l1.21.29v7.73l-1.1.4q-.06.65 0 1.29zm2.56-6.34q-.05-.73 0-1.45l1.22-.3v-1.22h-2.5v2.97zv1.51l-1.16.35v2.8h2.5v-4.49zM71.34 146.9l.35 1.22h1.4c0 2.38.28 4.65.46 7.03l-1.28.3c0 .34 0 .7-.3 1.16h-5.8l-.36-1.17-1.4-.29-.69-6.92 1.45-.4v-1.17zm-4.07 5.81c0 .81 0 1.57.29 2.38h2.85c0-1.27 0-2.44-.3-3.6h-1.1c0 .4 0 .76-.29 1.16zm.99-1.8c.52-.35 0-1.34.93-1.34s.7-.64.64-1.22h-2.85v2.5z" clip-rule="evenodd"/><path fill="#124559" fill-rule="evenodd" d="M65.4 78.82c0-.47 0-.88.41-1.28h5.82l.29 1.28 1.28.35c0 2.32 0 4.59-.4 6.91h-1.35c0 .41 0 .88-.4 1.4h-5.93q.03-.68 0-1.34l-1.4-.29c0-2.27.4-4.6.58-6.98zm2.86 3.14c0-.47 0-.93.29-1.46l1.4-.35q-.06-.52 0-1.04h-2.86v2.67h1.22v1.16l-1.57.41v2.56h2.85c0-1.4 0-2.73.3-4.13z" clip-rule="evenodd"/><path fill="#144659" fill-rule="evenodd" d="m60.47 86.08-1.46.3-.35 1.27h-5.81q-.11-.64-.3-1.28l-1.27-.34c0-2.39.58-4.71.87-7.16a1.4 1.4 0 0 0 1.75-1.4h5.8q-.03.62 0 1.23l1.23.35c-.06 2.32-.23 4.6-.46 7.03m-2.74-4c-1.33-.59-1.5.28-1.63 1.04l-1.45.35v2.61h2.85c0-1.4.12-2.67.23-4m-2.85-.59c1.75.81 1.46-1.86 2.91-1.34v-.93h-2.56z" clip-rule="evenodd"/><path fill="#124559" fill-rule="evenodd" d="M33.72 129.57q0 1.74 1.57 1.63l.76 7.33-1.22.34v1.34h-5.64q-.1-.61-.41-1.16-.65-.42-1.4-.64c0-2.27-.46-4.71-.7-7.21l1.34-.4v-1.23zm-3.49 8.96h2.74c0-1.34 0-2.5-.35-3.73a.7.7 0 0 0-1.22-.46v1.22l-1.17.35zm-.58-7.33v2.44c0 .76.82.58 1.22 0v-1.1l1.28-.47c0-.46 0-.81-.29-1.1z" clip-rule="evenodd"/><path fill="#144659" fill-rule="evenodd" d="M59.3 146.9c0 .46 0 .87.3 1.22h1.45l.7 6.97-1.23.35v1.1h-5.81a1.5 1.5 0 0 0-1.8-1.39c-.3-2.32-.58-4.53-.93-6.92l1.28-.46v-1.1zm-2.5 4.18v-1.16l1.34-.35v-.93a3.4 3.4 0 0 0-2.73 0v2.5h1.5v1.46l-1.27.4c0 .82 0 1.63.4 2.33h2.8c0-1.46-.35-2.68-.47-3.96z" clip-rule="evenodd"/><path fill="#114459" fill-rule="evenodd" d="M27.27 95.5h1.33c0-.4 0-.75.35-1.22h5.3c0 .76 0 1.8 1.5 1.63 0 2.56-.34 4.94-.52 7.38l-1.4.35q.05.65 0 1.28h-5.8v-1.34l-1.46-.75zm3.78 3.08c0-.46 0-.93.4-1.45l1.22-.12v-1.16h-2.44l-.35 2.8h1.28v1.39l-1.45.35v2.73h2.79c0-1.57 0-2.97.3-4.48zM48.2 78.64l1.16.35-.87 7.04h-1.34c0 .4-.29.8-.46 1.27h-5.82v-1.22l-1.4-.4c.41-2.39.76-4.71 1.11-7.1.99 0 1.8 0 1.63-1.4h5.46q.2.76.53 1.46m-5.47 7.39h2.74c0-1.34.34-2.68.52-4.3q-.68.1-1.28.4c0 1.16-1.05 1.05-1.69 1.34v.87c-.23.46-.23 1.05-.29 1.69m3.6-7.1c-2.84-.4-2.84-.35-2.9 2.56 1.1 0 1.1 0 1.57-1.05 1.28-.29 1.28-.29 1.34-1.5" clip-rule="evenodd"/><path fill="#144659" fill-rule="evenodd" d="m23.84 102.83-1.17.29c0 .46 0 .93-.4 1.33h-5.12v-1.33l-1.4-.3c0-2.43.47-4.82.76-7.38.87 0 1.8-.34 1.51-1.62h5.18v1.4h1.16c.06 2.72.06 5.17-.52 7.6m-2.74 0c0-1.46 0-2.85.35-4.71-.64.35-1.28.52-1.28.7 0 1.04-.87.93-1.45 1.22s0 1.8 0 2.79zm-1.91-7.39v2.8c1.04 0 .98 0 1.28-.53.29-.52.34-.75.58-.75s.81-.82.75-1.52z" clip-rule="evenodd"/><path fill="#16485A" fill-rule="evenodd" d="m77.97 70.21-1.23-.35c0-2.15 0-4.3.41-6.5.87 0 1.8-.3 1.69-1.52h5.4c0 .64.47 1.57 1.46 1.34v6.62c-.87 0-1.86.35-1.57 1.57H78.3c-.17-.34-.23-.7-.34-1.16m3.3-4.24v-1.1c.42-.65 1.81 0 1.35-1.46h-2.68v2.44h1.22v1.16l-1.4.35v2.33h2.8v-3.84z" clip-rule="evenodd"/><path fill="#124559" fill-rule="evenodd" d="m40 148.35 1.16-.35v-1.22h5.82c0 .87.46 1.69 1.74 1.34.35 2.44.64 4.7.99 7.1l-1.22.4v1.16h-5.47c0-.46-.4-.87-.58-1.34l-1.34-.29c-.34-2.26-.75-4.47-1.1-6.8m4.77 2.73v-1.1c1.16-.58 1.16-.58.81-1.74h-2.61c0 .98.29 1.8.4 2.78h1.46v1.28l-1.23.64c0 .82 0 1.52.35 2.27h2.8c0-1.45-.47-2.79-.7-4.07z" clip-rule="evenodd"/><path fill="#16485A" fill-rule="evenodd" d="M73.78 69.98c-1.05 0-1.69.29-1.69 1.4h-5.81c0-1-.47-1.4-1.45-1.52l.87-6.57c.87 0 1.68 0 1.63-1.4h5.52c0 .7 0 1.58 1.45 1.23-.11 2.38-.35 4.82-.52 6.86m-3.9-4.01V64.8c0-.34 1.8 0 1.4-1.4H68.6v2.45H70q-.09.6-.3 1.16l-1.33.35v2.33h2.56l.35-3.84zM79.48 172.07c0-.75-.47-1.63-1.69-1.16 0-2.33-.4-4.42-.64-6.57l1.34-.35.29-1.1h5.81l.47 1.16h1.28c0 2.1 0 4.19.35 6.4-.82 0-1.57 0-1.46 1.39zm3.72-5h-1.28c.29 1.1-.52 1.22-1.34 1.34v2.15h2.68zm0-1.74c0-1.28-.53-1.4-2.8-.93v2.38h1.23c0-1.28.93-1.28 1.51-1.45z" clip-rule="evenodd"/><path fill="#114459" fill-rule="evenodd" d="M29.88 78.7c1.1 0 1.63-.35 1.69-1.4h5.17c0 .7 0 1.63 1.34 1.52-.4 2.44-.75 4.7-1.16 7.09-.76 0-1.75.29-1.63 1.51h-5.06c0-.7 0-1.57-1.33-1.51.11-2.44.52-4.71.98-7.21m3.67 2.96v-1.33c.87 0 1.74 0 1.45-1.51h-2.33l-.52 2.67h1.45l-.46 1.4-1.28.29c0 .87 0 1.62-.4 2.55h2.61c0-1.4.46-2.73.7-4.18z" clip-rule="evenodd"/><path fill="#14475A" fill-rule="evenodd" d="M72.67 162.89c0 1.28.82 1.22 1.63 1.4 0 2.08.4 4.12.58 6.27-.64.3-1.5.47-1.28 1.51h-5.4q-.14-.55-.53-.99s-.75 0-1.27-.4c-.3-2.1-.64-4.13-.93-6.34h1.39v-1.1zm-.7 7.73V168c0-.81-.46-1.16-1.39-.87 0 1.05-.75 1.05-1.4 1.4-.63.34 0 1.4.41 2.09zm-3.42-6.22v2.5l1.28-.35c0-1.05.93-.99 1.4-1.34-.3-1.22-.3-1.28-2.68-.81" clip-rule="evenodd"/><path fill="#114459" fill-rule="evenodd" d="M37.27 156.6h-5.24c-.29-.8-.63-1.45-1.8-1.45l-1.4-6.97H30v-1.28h5.23l.47 1.34h1.33q.54 3.3 1.17 6.8c-.53.11-1.28.52-.93 1.57m-1.69-1.45c0-1.22-.35-2.44-.64-3.54s-.64-.47-1.16-.76v1.34l-1.16.46c0 .93.46 1.75.64 2.5zm-2.44-4.24c.4-.52 0-1.22.76-1.45.75-.24.46-.82 0-1.28h-2.04c-.06 2.26.12 2.61 1.28 2.73" clip-rule="evenodd"/><path fill="#124559" fill-rule="evenodd" d="m20 155.15-1.4-5.81v-1.4c.88 0 1.23-.58 1-1.5h4.82a1.63 1.63 0 0 0 1.74 1.56l1.46 7.15c-.64.35-1.4.64-1.05 1.63h-4.83l-.64-1.63zm3.02-4.18a1.46 1.46 0 0 1-1.1 1.8c0 .87.46 1.57.64 2.32h2.5c-.4-1.39-.76-2.67-1.16-3.95-.06-.29-.47-.23-.88-.35zm-.7 0c.53-.47 0-1.51 1.05-1.51a1 1 0 0 0 0-.64s-.35-.64-.52-.64q-1.14-.09-2.27 0c.87 1.16.23 2.32 1.75 2.61z" clip-rule="evenodd"/><path fill="#16485A" fill-rule="evenodd" d="M23.08 71.03V69.8l-.81-.4v-.35L24 63.82c0-.53.4-1.1 1.16-1.1a.64.64 0 0 0 .59-.59c0-1.1 1.16-.93 1.97-.93h2.5l1.1 2.03-1.85 5.82c-.76 0-1.63.4-1.69 1.51zm4.01-5.35c0 .58 0 1.28-1.16 1.33a1 1 0 0 0-.64.58q-.33.94-.52 1.92h2.32c.35-1.28.7-2.5 1.1-3.83h-1.16c0-.76.41-1.57 1.46-1.63 1.04-.06.4-.52.64-.87-2.33-.53-2.85 0-2.8 2.26z" clip-rule="evenodd"/><path fill="#14475A" fill-rule="evenodd" d="m68.55 48.99 1.74-1.45h4.36c0 .7 0 1.4 1.34 1.22l-.7 5.81c-.64 0-1.74 0-1.57 1.4h-5l-1.51-1.75.99-5.46zm3.25 2.33v-1.17c0-.4 1.75 0 1.28-1.33h-2.15l-.47 2.26h1.4a1.4 1.4 0 0 1-1.57 1.4c0 .75 0 1.4-.4 2.15h2.61c0-1.16.3-2.27.47-3.49z" clip-rule="evenodd"/><path fill="#16485A" fill-rule="evenodd" d="M37.73 121.2h2.85v-4.3l-1.28-.41v-1.34l1.22-.7c0-1.04 0-1.97.3-2.96h2.9v9.3h3.08v1.63h-8.9z" clip-rule="evenodd"/><path fill="#144659" fill-rule="evenodd" d="M22.5 163.82c1.22 0 1.05-.64 1.1-1.28h4.66c0 .81.58 1.5 1.68 1.33l2.04 6.17c-.47.58-.76 1.04-1.22 1.68h-3.6a1 1 0 0 1-.76-.46 1.6 1.6 0 0 0-1.17-.93s-.81-.53-.81-.87zm4.77 6.45h2.26c-.4-1.1-.7-2.1-1.04-3.02-.35-.93-.47-.47-.64-.47l-.58.64-.76.99c.23.46.52 1.16.76 1.86m-.76-3.84q.42-.64.76-1.34v-.75a1.3 1.3 0 0 0-.7-.52h-1.74c.7 1.1.4 2.32 1.68 2.61M59.3 122.89h-9.24v-1.57h2.9v-4.65h-1.39v-1.4l1.63-.3v-2.9h3.14v9.42h3.14zM64.6 54.86a1.34 1.34 0 0 0-1.63 1.28H58.2l-1.4-1.86 1.46-5.46c.81 0 1.68 0 1.62-1.34h4.42l1.4 1.8c-.3 1.63-.58 3.49-1.1 5.58m-3.2-3.54c0-.7.29-1.34 1.22-1.4s.35-.58.7-1.1h-2.5l-.53 2.2zc0 1.16-.8 1.16-1.56 1.4-.76.22 0 1.39-.41 2.08h2.5l.64-3.48z" clip-rule="evenodd"/><path fill="#14475A" fill-rule="evenodd" d="m70.93 185.8-1.74-1.4h-.3c-.34-1.8-.75-3.66-1.16-5.82.7-.29 1.4-.52 1.22-1.45h5.24c0 .81.58 1.4 1.62 1.28.3 1.86.59 3.66.82 5.81-.4.53-1.75 0-1.16 1.46zm0-3.2q0 1.16.52 1.91h2.39c0-1.04 0-1.91-.53-2.79-.52-.87 0-.46-.52-.52s-.58 0-.58.35-.47.75-1.28 1.04m0-1.63c1.51.52 1.05-1.57 2.21-1.4v-.64h-2.62c.41.76.41 1.34.41 2.04" clip-rule="evenodd"/><path fill="#104459" fill-rule="evenodd" d="M78.55 98.99h-1.4q-.05-.67 0-1.34l1.51-.29v-2.73h3.14v8.95h3.14v1.46h-9.42v-1.52h3.03z" clip-rule="evenodd"/><path fill="#124559" fill-rule="evenodd" d="M54.48 47.48c.52.64.81 1.1 1.28 1.74-.47 1.57-1 3.5-1.52 5.47-.7 0-1.8 0-1.57 1.45h-5q.05-.56 0-1.1l-.87-.35a1 1 0 0 1 0-.47c.4-1.33.82-2.73 1.28-4 .47-1.29.35-1.64 1.51-1.7 1.17-.05.58-.7.88-1.04zm-3.03 3.49c0-.53.35-1.05 1.17-1.1.81-.07.75-.47.52-1.11h-2.1c0 .75-.46 1.4-.7 2.2h.94c0 .47 0 1.23-.4 1.23-1.64 0-1.35 1.5-1.58 2.61h2.27l1.05-3.43z" clip-rule="evenodd"/><path fill="#144659" fill-rule="evenodd" d="M65.47 185.8H61.1l-2.32-1.7c-.4-1.45-.93-3.25-1.34-4.76.53-.76.93-1.22 1.34-1.86h4.65c0 .75.64 1.51 1.74 1.28l1.28 5.81c-.58.18-1.33.18-.98 1.22m-4.02-1.29h2.45c-.59-1.28 0-2.79-1.46-3.43l-1.4 1.8c.12.35.24 1 .41 1.63M60 178.7c0 .7 0 1.22.4 1.69q.22.4.65.58l.64-.47.58-.64s.35-.52.29-.58a1.2 1.2 0 0 0-.64-.58z" clip-rule="evenodd"/><path fill="#14475A" fill-rule="evenodd" d="M26.28 122.65v-1.5h2.56v-4.31l-1.22-.47v-1.33l1.28-.59v-2.78h3.08v9.36h2.85v1.5c-2.85.24-5.7.18-8.55.12" clip-rule="evenodd"/><path fill="#16485A" fill-rule="evenodd" d="m45.17 47.42 1.05 1.63q-.85 2.46-1.8 5c0 .29-.47.75-.64.75s-.93.82-1.45 1.28h-4.54c0-.7 0-1.45-.87-1.4.75-1.91 1.45-3.65 2.2-5.4q.36-.5.88-.81h.35c1.05-1.63 2.67-.93 4.07-1.05zm-3.3 3.55c.34-.58.51-1.34 1.44-1.28s.41-.47.82-.93h-2.27l-.81 2.15h.81c0 .4-.35 1.16-.58 1.22-1.51 0-1.4 1.34-1.75 2.38h2.33c.4-1.16.81-2.2 1.22-3.43z" clip-rule="evenodd"/><path fill="#124559" fill-rule="evenodd" d="M47.27 179.1c.46-.57.75-1.04 1.16-1.62h4.19l2.26 1.69c.47 1.5 1.05 3.37 1.52 5l-1.28 1.62h-3.5c-.34 0-.63 0-.92-.52s-.35-.52-.53-.52c-1.1 0-1.22-.88-1.5-1.63zm3.83 3.78.64 1.58h2.33c-.76-1.23-.4-2.8-1.8-3.44zm.35-1.91c0-.47-.4-1.1.47-1.22s.35-.35.35-.59a.7.7 0 0 0-.41-.4h-1.92c.23 2.03.23 2.03 1.51 2.2" clip-rule="evenodd"/><path fill="#104459" fill-rule="evenodd" d="M75.81 140.33v-1.28h2.97c.46-1.46 0-2.8 0-4.25l-1.57-.34a9 9 0 0 1 0-1.28l1.51-.35v-2.8h3.14c0 2.97 0 5.82.4 8.96h3.03q-.03.68 0 1.34z" clip-rule="evenodd"/><path fill="#144659" fill-rule="evenodd" d="M75.81 87.65v-1.4h3.09v-4.12h-1.23v-1.28l1.34-.29q0-1.22.35-2.62h3.2v8.5h2.85V88z" clip-rule="evenodd"/><path fill="#14475A" fill-rule="evenodd" d="M79.36 151.49c-1.51-.4-1.51-.4-1.45-1.63h1.33v-2.67h3.32c0 2.67 0 5.4.35 8.31h2.96v1.4h-9.13v-1.34h2.97c-.18-1.51-.3-2.73-.35-4.07" clip-rule="evenodd"/><path fill="#16485A" fill-rule="evenodd" d="m46.74 184.22-.93 1.57h-3.43q-.5-.15-.93-.46c-2.32-.93-2.44-3.32-3.43-5.18a4 4 0 0 1-.35-.87l1-1.69h3.54q.58.2 1.05.59.55.26.98.7.53.31.82.87c.58 1.16 1.16 2.79 1.68 4.47m-4.41 0h2.2c-.8-1.16-.58-2.73-1.97-3.31l-.99 1.69c.29.52.29 1.1.76 1.62m-.82-3.31c.64-.35 0-.99.52-1.28a.62.62 0 0 0 .29-1.1.6.6 0 0 0-.46-.12 2.1 2.1 0 0 0-2.1.35c.88.75.41 2.2 1.75 2.2z" clip-rule="evenodd"/><path fill="#14475A" fill-rule="evenodd" d="M32.56 47.25h3.84c.4.46-.47 1.5.87 1.22-.82 1.97-1.51 3.72-2.33 5.46 0 .3-.52.53-.81.82s-.4 0-.47 0c-.75 1.5-2.09.98-3.25 1.04h-1.69c-.35-.46 0-1.28-.52-1.5-.53-.24 0-.47 0-.7l2.03-4.6s.35-.58.53-.58c.17 0 1.33-.7 1.8-1.16m.35 3.72c-.3.35-.53.99-.88 1.04-1.39.35-1.39 1.4-1.68 2.5h1.98c.4-.98.87-1.92 1.27-2.9.41-1 0-.7-.58-.64s0-1.28 1.05-1.34.81-.52.76-1.1c-1.98 0-2.33 0-2.68 2.26z" clip-rule="evenodd"/><path fill="#16485A" fill-rule="evenodd" d="m71.34 42.54-1.4-1.63c.35-1.22.64-2.68 1.05-4.13 0-.46 0-.87.81-1.05.82-.17 1.17-1.33 2.33-1.04q1.25.14 2.5 0c.46.52.81.99 1.34 1.51.52.52-.47 2.73-.7 4.19 0 .46 0 .87-.76 1.04-.75.18-1.16 1.4-2.38 1.1q-1.4-.12-2.8 0m2.79-4.6a1.05 1.05 0 0 1 .93-1.1s.35-.47.58-.87h-2.1l-.46 1.97zc0 .35 0 1.05-.4 1.1-1.35 0-1.17 1.17-1.23 2.1h2.15c0-1.1.35-2.1.47-3.08z" clip-rule="evenodd"/><path fill="#124559" fill-rule="evenodd" d="M16.92 140.04v-1.57h2.44c0-1.46-.29-2.73-.4-3.96-.12-1.22-1.4 0-1.46-1.22s.87-.58 1.16-1.16c.3-.58 0-1.63 0-2.62h2.68c.35 3.03.64 5.82.99 9.07l2.67.3v1.39z" clip-rule="evenodd"/><path fill="#16485A" fill-rule="evenodd" d="M67.8 34.69c1.56 1.28.98 2.61.57 3.9-.4 1.27-.29 1.04-.46 1.56-.18.53 0 1.28-1.1 1.34a.7.7 0 0 0-.47.35c0 .64-.64.64-1.17.64H61.8l-1.1-1.63 1.5-4.19c0-.46.3-.93.94-.98a.8.8 0 0 0 .58-.41c.3-.58.76-.58 1.28-.58zm-2.68 3.25c0 .41-.47 1.05-.76 1.1-1.28 0-1.1 1.23-1.28 2.1h2.04c.29-.99.52-1.98.81-3.02H65c0-.52 0-1.05.99-1.05s.4-.46.81-.93h-2.15c0 .64-.46 1.16-.75 1.86zM56.98 66.2l-1.05-.47c-.4-1.22.4-1.33 1.34-1.45.93-.12.4-1.57.58-2.44h2.67c-.4 2.67-.75 5.29-1.16 7.96h2.67v1.34H53.5v-1.4h2.79q.43-1.72.7-3.54" clip-rule="evenodd"/><path fill="#14475A" fill-rule="evenodd" d="M71.8 190.62H76l1.98 1.63q.18 1.53.63 3.02c.47 1.1-.4 1.69-.75 2.5a1 1 0 0 1-.47 0 8 8 0 0 1-3.37 0c-.81-.35-2.1-.7-2.27-2.04-.17-1.33-.4-1.45-.58-2.2s-.7-1.63.41-2.16c.17-.05.12-.46.23-.75m4.94 6.22q-.21-1.27-.58-2.5s-.75-.47-.87-.4q-.62.56-.99 1.33a1.34 1.34 0 0 0 1.17 1.69zm-2.32-3.08 1.28-1.8h-2.5c.4.63-.18 1.74.99 1.8z" clip-rule="evenodd"/><path fill="#16485A" fill-rule="evenodd" d="m69.83 196.55-1.17 1.4a7 7 0 0 0-1.86 0c-1.45.34-2.27-.82-3.43-1.23 0 0-.35-.52-.46-.81l-.76-1.98a16 16 0 0 1-.7-1.92l1.05-1.5h3.6q.52.06.88.46a7 7 0 0 1 2.5 4.3zm-3.84-2.8c-.52.94-1.57 1.81-.47 2.86s1.22.4 2.04 0c-.64-.76-.23-2.33-1.57-2.85m-2.27-2.03q.25.9.64 1.75a.8.8 0 0 0 .81 0q.58-.8 1.05-1.69z" clip-rule="evenodd"/><path fill="#144659" fill-rule="evenodd" d="M22.56 77.13h2.5c-.58 2.9-1.1 5.81-1.69 8.6h2.44v1.4h-7.79v-1.45h2.5l.88-3.9-1-.58c-.28-1.16.53-1.28 1.34-1.4.35-.93.59-1.8.82-2.67" clip-rule="evenodd"/><path fill="#124559" fill-rule="evenodd" d="M59.3 162.89c.47 2.55.87 5.05 1.34 7.73h2.67v1.1c0 .35 0 0-.4 0h-6.34c-.81 0-1.16-.35-.99-1.33h2.39c0-1.22-.41-2.33-.59-3.43s-1.91 0-1.45-1.52l.99-.4v-2.33z" clip-rule="evenodd"/><path fill="#194B5B" fill-rule="evenodd" d="m61.1 196.43-.98 1.46h-3.67c-.4 0-2.15-1.1-2.55-2.5q-.64-1.66-1.52-3.2c.35-.4.64-.87 1.05-1.46h2.97q.76.11 1.4.59c2.37.87 2.08 3.48 3.3 5.11m-2.26 0c-.53-1.04-.64-2.2-1.69-2.85l-.93 1.51c.7 1.75.7 1.75 2.62 1.52zm-1.8-4.53a2.3 2.3 0 0 0-2.39 0l1.16 1.86z" clip-rule="evenodd"/><path fill="#14475A" fill-rule="evenodd" d="m59.3 34.69.93 1.45q-.76 2.11-1.63 4.3-.27.47-.7.82l-1.62 1.16h-3.84c0-.52.3-1.34-.93-1.28l2.27-4.82.81-.64.7-.53q.5-.34 1.1-.46c1.05-.06 2.04 0 2.91 0m-2.2 3.6-.3-.29h-.4c0-.58 0-.99.93-1.04a.76.76 0 0 0 .64-1.05c-1.92 0-2.1 0-2.45 1.98h.76c0 .34-.47.93-.76.98-1.33 0-1.22 1.28-1.62 2.21h2.15z" clip-rule="evenodd"/><path fill="#144659" fill-rule="evenodd" d="M51.1 34.63c.3.52.53.93.76 1.45-.64 1.4-1.28 2.91-2.1 4.36 0 .35-.57.53-.86.76s-.41 0-.47 0c-.64 1.4-1.86.99-2.96.99h-1.52v-1.05c0-.11-.52-.58 0-.99l2.21-4a6.5 6.5 0 0 1 3.03-1.7h2.44zm-1.45 1.28c-1.63 0-2.27.64-1.86 2.27-.12.7-.12.7-.87.7-.76 0-1.28 1.16-1.45 2.15h1.8l1.16-2.39v-.7c0-.05 0-1.1.47-1.28s.87-.17.75-.75" clip-rule="evenodd"/><path fill="#104459" fill-rule="evenodd" d="M48.14 69.8h2.5c0 .64 0 1.34-.7 1.34h-7.5V69.8h2.62l.87-3.66-.99-.52c0-1.1 0-1.1 1.4-1.46l.7-2.32h2.55c-.35 2.67-.87 5.23-1.45 7.96" clip-rule="evenodd"/><path fill="#124559" fill-rule="evenodd" d="M31.8 71.2c0-2.27 1.75-1.22 2.85-1.74l.93-3.26c-.35-.52-.81-.81-.87-1.16s.99-.53 1.45-1l.82-2.26h2.44c-.64 2.62-1.34 5.06-2.04 7.73l2.39.47c0 .58 0 1.22-.7 1.22z" clip-rule="evenodd"/><path fill="#104459" fill-rule="evenodd" d="M45.81 164.86c0-.52 0-1.22-.34-2.03h2.73c.64 2.56 1.22 5.11 1.74 7.5.99.81 2.73-.58 3.03 1.63h-7.04c-.81 0-1.16-.35-1.05-1.28h2.15q-.07-1.83-.7-3.55c-.52-.4-1.56 0-1.5-.93.05-.93.58-.81.98-1.34" clip-rule="evenodd"/><path fill="#144659" fill-rule="evenodd" d="M34.7 162.6h2.63l2.2 7.73c1.05.64 2.62-.53 2.91 1.57h-6.4c-.8 0-.8 0-1.1-1.34h2.21c-.58-1.34-1.1-2.5-1.1-3.78-1.28-.4-1.28-.4-1.57-1.45l.99-.53z" clip-rule="evenodd"/><path fill="#14475A" fill-rule="evenodd" d="M80.81 51.66c-.34-.58-1.4 0-1.1-1.04.29-1.05.7-.64 1.22-1.1s0-1.17.35-1.98h2.56c0 2.44 0 4.76-.41 7.26h2.56v1.52h-8.02c-.3-.82 0-1.34.75-1.28h1.86q.08-2 .23-3.38" clip-rule="evenodd"/><path fill="#124559" fill-rule="evenodd" d="M44.36 190.5h3.31c.53 0 .88.4 1.28.58 2.33 1.05 2.45 3.55 3.72 5.3 0 .46-.46.92-.75 1.39h-2.5c-.58 0-1.05-.35-1.57-.52-2.1-.88-2.5-2.97-3.6-4.54-.35-.52-.59-.99 0-1.45.58-.47.11-.47.11-.76m6.22 6.1c-.7-1.1-.93-2.26-1.98-2.96l-.75 1.46c.87 1.68.87 1.68 2.73 1.5m-2.32-4.3c-.82-.98-1-.98-2.21-.4.35.64.4 1.5 1.33 1.86z" clip-rule="evenodd"/><path fill="#16485A" fill-rule="evenodd" d="m80.17 179.98 1.1-.35v-2.1h2.68c0 2.33.41 4.6.64 6.98h2.44q-.03.6 0 1.17h-6.97c-.7 0-.76-.47-.64-1.1h2.32v-2.97c0-1-2.09-.18-1.57-1.63" clip-rule="evenodd"/><path fill="#194B5B" fill-rule="evenodd" d="M81.28 29.1c0-.98.35-1.85.52-2.78s0-1.28.64-1.57 1.4-1.34 2.62-1.1c1.22.22 1.8 0 2.44.92a6.8 6.8 0 0 1-.52 4.89c-1.22 1.5-2.8.75-4.25.93l-.52-.53zm3.6-2.55c-.4-.99.93-.87 1-1.69.05-.81-1.17-.46-1.58 0-.4.47-.29 1-.46 1.57h1.04s0 .82-.4.87c-1.22 0-.93 1.05-.88 1.98h1.87v-2.1c0-.63-.18-.63-.59-.63M73.2 29.05q.53-1.75 1.16-3.49a3.7 3.7 0 0 1 2.67-1.86h2.16a2.4 2.4 0 0 1 .75 2.96q-.18.55-.29 1.11c0 .52-.29 1.34-.7 1.57s-1.4 1.51-2.55 1.05c-1.87 0-1.87 0-3.2-1.34m3.54-2.5 1.52-1.63c-1.8-.46-1.92-.35-2.1 1.51h.64s-.06.82-.4.82-.93.98-1 1.74c1.7.35 1.7.35 2.1-1.05 0-.46 0-.93.3-1.45zM82.56 203.3c.4-.36.75-.94 1.22-1q1.36-.16 2.73 0a2.9 2.9 0 0 1 2.27 1.92v3.08c-.99 1.57-2.56 1.17-4.01 1.1-1.46-.05-1.8-1.1-1.98-1.91s-.23-2.15-.23-3.2m3.84 1.33c0 .99-1.57.93-1.05 2.1.52 1.16 1.05.46 1.8.4.76-.06-.17-1.69-1.05-2.5zm-1.8-1.69c0 .82.28 1.52.57 1.69.3.17.59-.52.93-.7l.7-.46v-.35z" clip-rule="evenodd"/><path fill="#16485A" fill-rule="evenodd" d="M81.1 37.77c0-1.05.82-.7 1.17-1.05s.29-1.28.29-1.92h2.15c0 2.1 0 4.19-.47 6.34h2.21c0 .64 0 1.1-.64 1.1h-6.28c0-1.16 0-1.16 2.33-1.39V38zM74.13 203.3c.4-.47.75-1.17 1.22-1.23a5.4 5.4 0 0 1 3.2 0c.75.35 1.92.76 2.03 2.1q.2 1.41.64 2.79a2 2 0 0 1-2.1 1.16c-.86 0-1.68 0-2.55-.53a3.7 3.7 0 0 1-1.63-2.03c-.29-.7-.52-1.45-.81-2.27m5.29 3.83c-.47-.76-.3-1.74-1.22-2.38l-1.1 1.22c.57 1.5.57 1.5 2.32 1.16m-3.02-4.24v.35l.75 1.68 1.57-1.68zM30.76 179.1c0-.57-.41-1.16-.64-1.91h2.15c1.16 2.38 2.26 4.77 3.31 7.03 2.21 0 2.21 0 2.68 1.28h-5.82c-.35 0-.7-.52-1.28-.99l2.1-.29c-.47-.99-.93-1.97-1.4-2.85a1.5 1.5 0 0 0-.81-.52c-.82-.52-.82-.75-.3-1.74M81.34 197.01l1.92-.29c0-.87 0-1.62-.3-2.26l-1.27-1.23.98-.81v-1.74h2.39c0 1.97.4 3.95.64 5.81s2.15 0 2.38 1.57h-5.81c-.76-.12-1.17-.3-.93-1.05M42.85 34.63l-3.72 6.16 1.68.35c0 .87-.52 1.1-1.22 1.1h-5.06c0-.87.35-1.33 1.11-1.21a1.7 1.7 0 0 0 1.98-1.28c.29-.7 1.4-1.22.7-2.27 0 0 .34-.76.58-.76s1.1-.64 1.4-1.22c.28-.58 1.56-1.28 2.55-.87" clip-rule="evenodd"/><path fill="#194B5B" fill-rule="evenodd" d="m69.36 29.05 2.04.46c-.47.41-.76.82-1.05.88h-5.23c.34-1.1.34-1.1 2.15-1.23l.75-1.91a.6.6 0 0 0 0-.64c-.4-.53 0-.76 0-1 0-.22.93-.51 1.05-.86s1.16-1.22 2.27-.88c-.41 1.69-1.28 3.38-1.98 5.18M61.57 29.05l1.57.29c0 .64 0 1.05-.87 1.05h-5c0-1.05.4-1.17 1.04-1.23a2.4 2.4 0 0 0 2.1-2.79 1 1 0 0 1 .46-.81 2 2 0 0 0 1.22-.99c.7-.99.7-.99 2.27-.81q-1.4 2.6-2.79 5.29" clip-rule="evenodd"/><path fill="#16485A" fill-rule="evenodd" d="M76.74 14.75c.76 1.68-.58 2.9-1.27 4-.7 1.11-2.56 1.46-4.2 1.23-.69-.58-.63-1.16 0-1.92q.63-1.02 1.35-1.98a4 4 0 0 1 4.12-1.33m-4.53 4.07c1.45.34 2.32 0 2.38-1.46a1.7 1.7 0 0 1 1.05-1.74c-1.57 0-1.74 0-1.92 1.57zM77.73 20.04a1.7 1.7 0 0 1-.29-2.27c.53-.87.7-1.92 1.75-2.56a4 4 0 0 1 2.79-.4 1 1 0 0 1 .81 1.27c0 .88-.52 1.75-.81 2.62A3.4 3.4 0 0 1 80 20.04c-.76.05-1.51 0-2.27 0m3.67-4.42c-1.57 0-1.87 0-1.46 1.74a1.57 1.57 0 0 0-1.1 1.98c.46 0 1.16 0 1.28-.47q.45-1.33.64-2.73zM57.56 23.76l-3.49 5.23h1.4a.87.87 0 0 1-1 .99h-4.64c0-.82.52-.93 1.1-.99a2.8 2.8 0 0 0 2.56-2.62c0-.52 0-.87.58-.93.62-.18 1.14-.6 1.45-1.16.47-.75 1.1-.81 2.04-.52" clip-rule="evenodd"/><path fill="#194B5B" fill-rule="evenodd" d="M74.07 208.06H68.9s-.35-.35-.59-.7l1.57-.35c-.52-.93-.58-2.15-1.97-2.38 0 0-.3-.52 0-.52.99-.59 0-1.34 0-1.98 1.86 0 1.8 0 2.56 1.28.75 1.28 1.1 2.44 1.62 3.6 1.46.47 1.46.47 1.98 1.05M61.34 207.48h1.16c0-.64-1.1-2.1-2.38-2.68q.07-.54 0-1.1-.21-.61-.53-1.16c1.75-.35 1.75-.35 2.5.93a66 66 0 0 1 1.69 2.96c.52.99.87 1.34 1.86 1.22.99-.11.7 0 .99.58q-2.47.45-4.94 0s-.12-.75-.35-.75M69.24 215.62q-.76-.14-1.45-.53a12 12 0 0 1-1.98-2.15q-.37-.61-.46-1.33a5 5 0 0 1 4.7.87 5.8 5.8 0 0 1 2.04 3.72c-.99 0-2.09.7-2.85-.58h1.69l-1.63-1.86h-.35q.1.97.3 1.86m-2.44-3.37 1.34 1.45c0-.58 0-.87.35-1.34zM59.83 208.12c-1.7-.35-3.55.58-5.35-.82h1.16v-.29c0-.29-1.16-2.09-2.56-2.32 0 0-.35-.4-.35-.47s-.4-1.22-.35-1.92a1.75 1.75 0 0 1 2.33.88c.52.87 1.16 1.68 1.74 2.5.58.81 1.34 2.03 2.8 1.8 0 0 .46.35.7.58z" clip-rule="evenodd"/><path fill="#14475A" fill-rule="evenodd" d="M83.2 20.04c.4-1.17 1.28-.64 1.92-1.22v-2.5c.87 0 .52-2.27 2.32-1.34 0 1.28-.35 2.56-.58 4.01l1.69.35c0 .35-.41.64-.53.64z" clip-rule="evenodd"/><path fill="#093F58" fill-rule="evenodd" d="M108.37 45.44c-.4-4.41-1.04-8.83-1.22-13.25q-.13-5.56.35-11.1c0-2.16.52-4.25.81-6.4q.15-.75.41-1.46a1.9 1.9 0 0 1 1.92-1.4q1.63-.08 3.25 0c2.74 0 5.53.53 8.26 1q2.15.38 4.19 1.16c1.2.41 2.2 1.24 2.85 2.33a8 8 0 0 0 2.96 2.67 37 37 0 0 0 8.55 3.14 28.4 28.4 0 0 1 11.63 6.57c3.72 3.43 7.2 7.1 10.63 10.76s5.12 5.81 7.45 8.6c3.74 4.68 6.9 9.8 9.42 15.23v.76l-1.1.29a212 212 0 0 0-21.4 5.81c-.8.22-1.48.71-1.92 1.4l-3.72 5.35c-1.98 3.08-3.84 6.16-5.82 9.24-.29.47-.75 1.05-1.22 1.1-2.56.47-5.17.76-7.62 1.11-1.97-2.85-4-3.72-6.39-2.79a4.9 4.9 0 0 0-3.02 4.77 4.7 4.7 0 0 0 3.72 4.18c2.79.47 4.36-.58 5.81-4.07 2.1-.29 4.19-.46 6.28-.81 3.72-.76 2.62 0 4.6-3.14 2.67-4.13 5.34-8.2 7.96-12.33a5.8 5.8 0 0 1 3.37-2.55c4.3-1.17 8.49-2.56 12.8-3.78 2.78-.76 5.8-1.34 8.36-1.98a44 44 0 0 1 3.55 19.54 45 45 0 0 0 1.57 16.91 76 76 0 0 1 2.79 13.32c.54 4.32.33 8.71-.64 12.96-.93 3.78-1.86 7.56-2.96 11.28a26 26 0 0 1-2.21 5.06 34 34 0 0 0-3.2 7.27l-1.98-2.85a1.45 1.45 0 0 0-1.57-.58l-11.92 2.38a2 2 0 0 1-2.26-.58 3.55 3.55 0 0 0-5.3 0 4.2 4.2 0 0 0 .35 5.81 3.74 3.74 0 0 0 5.82-1.86c.29-.7.52-1.22 1.34-1.4l11.33-2.14a1.5 1.5 0 0 1 1.34.29 8.4 8.4 0 0 1 2.38 4.18c0 1.52-.52 3.09-.81 4.6a66 66 0 0 1-3.55 10.99c-.64 1.74-1.33 3.43-1.8 5.23a18.3 18.3 0 0 1-8.08 10.64c-1.86 1.22-3.84 2.44-5.81 3.78a20 20 0 0 0-6.57 7.96 19 19 0 0 1-4.48 5.82c-.81.81-1.75 1.5-2.5 2.32a11.6 11.6 0 0 1-5.81 3.72c-.53 0-1.11.4-1.7.58a2.8 2.8 0 0 0-2.32 2.21q-.2.8-.81 1.34a9.2 9.2 0 0 1-6.4 2.85 4.3 4.3 0 0 1-3.9-1.98 11.3 11.3 0 0 0-7.72-4.88 27 27 0 0 1-4.71-1.75 14 14 0 0 1-3.43-2.2 3.9 3.9 0 0 1-1.34-3.32V203c-.06-4.21.53-8.4 1.74-12.44.53-3.14.82-6.34 1.1-9.53q.15-1.46 0-2.91l13.2-1.1a1.5 1.5 0 0 1 1.58.87l2.96 5.4q.16.61 0 1.22a102 102 0 0 1-1.69 5.82 1.2 1.2 0 0 1-1.1.99 3.7 3.7 0 0 0-2.85 3.2 3.6 3.6 0 0 0 2.27 4 3.25 3.25 0 0 0 4.01-1.86 3.95 3.95 0 0 0-.81-4.88c.64-2.27 1.22-4.42 1.91-6.63a3.5 3.5 0 0 0 0-2.79q-1.29-2.62-2.67-5.23c-1.69-2.85-.93-2.5-4.24-2.44-4.48 0-8.9.35-13.32.58-.58-2.38-1.04-4.77-1.63-7.1-.7-2.78-.7-5.7 0-8.48h4.42l17.85-.76a2.7 2.7 0 0 1 2.39 1.05c2.5 3.14 5.05 6.28 7.67 9.3a5.5 5.5 0 0 1 1.34 5.35c-.87 3.31-1.46 6.74-2.1 10.06h-.58a3.95 3.95 0 0 0-2.96 4.6 3.25 3.25 0 0 0 4.47 2.55 3.88 3.88 0 0 0 1.52-5.81 2.8 2.8 0 0 1-.47-2.8c.81-3.25 1.45-6.56 2.38-9.82a4.4 4.4 0 0 0-.98-4.36l-9.77-11.98a1.6 1.6 0 0 0-1.4-.64h-4.88l-18.55.53c0-1.52 0-3.03.41-4.48v-6.63q.78-.05 1.57 0h6.34l17.44-.58a2.1 2.1 0 0 1 1.92.93c2.85 3.84 5.81 7.56 8.66 11.63s4.6 6.57 6.86 9.88a3.8 3.8 0 0 1 .81 3.08l-1.91 9.36a1.8 1.8 0 0 1-1.4 1.57 3.54 3.54 0 0 0-2.67 3.32 3.6 3.6 0 0 0 2.2 3.78 3.3 3.3 0 0 0 4.13-1.98 3.8 3.8 0 0 0 0-3.9 2.4 2.4 0 0 1-.34-2.09c.8-3.43 1.56-6.86 2.38-10.29a3 3 0 0 0-.35-2.5c-.7-1.05-1.28-2.15-1.98-3.2-4.7-7.09-9.94-13.84-15.17-20.52a2.2 2.2 0 0 0-2.1-.99h-6.33l-17.97.18q-.9-.09-1.8 0a31 31 0 0 1-1.57-11.63l6.98-.4 7.44-.36c4.83-.29 9.65-.58 14.48-.99a2.6 2.6 0 0 1 2.55 1.22c2.27 3.14 4.66 6.17 6.92 9.3a1.7 1.7 0 0 0 1.75.88q.75-.04 1.5 0c5-.4 10.07-.76 15.07-1.22q5.7-.6 11.22-2.15l2.1-5.82h.86a4.2 4.2 0 0 0 3.5-3.95 3.55 3.55 0 0 0-3.9-4.13 4.2 4.2 0 0 0-3.03 6.16 3.1 3.1 0 0 1 0 3.14q-.46.86-.7 1.8c-.28 1.28-1.16 1.7-2.32 1.98a136 136 0 0 1-23.26 2.33 2.2 2.2 0 0 1-2.03-1.05c-2.27-3.08-4.65-6.1-6.92-9.24a2.6 2.6 0 0 0-2.44-1.16l-7.85.34h-3.9l-18.08.53 1.4-10.93v-1.75q1.05-.09 2.1 0l18.48-.93c3.6 0 7.15-.4 10.7-.75a2.7 2.7 0 0 1 2.67.98l6.86 7.62a2.6 2.6 0 0 0 2.27.99c4.36 0 8.72-.64 13.08-1.16a5.1 5.1 0 0 0 4.54-2.91 1.3 1.3 0 0 1 1.4-.81 4.24 4.24 0 0 0 4.12-4.07 3.6 3.6 0 0 0-3.55-4.13 4.3 4.3 0 0 0-3.49 6.16 1.8 1.8 0 0 1-.4 2.38c-.35.3-.53.7-.87 1a2.5 2.5 0 0 1-1.23.63l-12.79 1a2.2 2.2 0 0 1-1.97-.82c-2.39-2.68-4.83-5.3-7.21-8.03a2.5 2.5 0 0 0-2.21-.98c-2.97 0-5.82.52-8.96.64l-13.83.46h-10.06c0-2.15 0-4.3-.47-6.45l18.9-.64 8.31-.3c1.69 0 3.32-.4 5-.58a3 3 0 0 0 2.27-1.33c1.28-1.98 2.62-3.9 3.9-5.82a1.8 1.8 0 0 1 1.57-.98l12.73-1.57a1.5 1.5 0 0 1 1.51.58 4.3 4.3 0 0 0 3.2 1.8 4.36 4.36 0 0 0 4.53-2.97 4.1 4.1 0 0 0-1.86-4.88 4.54 4.54 0 0 0-6.33 2.1q-.33.84-.53 1.74h-1.1l-13.03.99a2.4 2.4 0 0 0-2.09 1.16c-1.16 1.98-2.5 3.84-3.78 5.81a2.6 2.6 0 0 1-2.27 1.34l-15.34.76h-15.93c0-3.96.34-7.91.34-11.63 0-1.98-.34-3.96-.46-5.82s0-3.25 0-4.88v-1.92c4.6-.29 9.13-.52 13.66-.87 2.9 0 5.82-.64 8.72-.99a2.7 2.7 0 0 0 2.27-1.51c2.27-4.01 4.6-7.9 6.8-11.92l6.92-12.73c0-.4.64-.99 1.05-1.1 1.51-.36 3.08-.59 4.53-.82 1.86 2.33 3.43 2.96 5.35 2.15a4.4 4.4 0 0 0 2.44-4.3 3.9 3.9 0 0 0-3.54-3.49c-.81 0-1.62.2-2.33.58a4 4 0 0 0-2.03 3.2l-5.24.64a1.9 1.9 0 0 0-1.62 1.1c-1.46 2.85-2.91 5.82-4.48 8.5-3.08 5.8-6.28 11.04-9.36 16.62a2.2 2.2 0 0 1-1.8 1.16h-3.26l-17.44.4c.4-2.9.87-5.8 1.22-8.71v-3.37q8.36.23 16.69-.59a1.9 1.9 0 0 0 1.68-.98c2.21-3.96 4.48-7.8 6.69-11.63.75-1.28 1.4-2.56 2.03-3.9h.88a4.25 4.25 0 0 0 4.24-4.88 3.43 3.43 0 0 0-5-2.8 4.4 4.4 0 0 0-1.4 5.3 2.1 2.1 0 0 1 0 2.27l-7.84 13.72a1.5 1.5 0 0 1-1.46.81H110v-7.15h8.6a1.9 1.9 0 0 0 1.87-.99q4.3-6.91 8.72-13.78a7.2 7.2 0 0 0 1.28-4.88 15 15 0 0 1 0-2.27l.34.06a3.95 3.95 0 0 0 .76-5.81 3.26 3.26 0 0 0-5.46 0 4 4 0 0 0 1.22 5.81c.34 0 .93.52.93.76a9 9 0 0 1-.59 4.94 860 860 0 0 0-8.6 13.43 2.2 2.2 0 0 1-2.15 1.16c-2.56 0-5.12 0-7.62-.29l-.7-5.23h4.25a1.75 1.75 0 0 0 1.8-.82c1.92-3.48 3.9-6.91 5.81-10.35q.51-1.04.47-2.2v-5.18a1.9 1.9 0 0 1 .87-2.03 3.4 3.4 0 0 0 1.46-3.2 3.8 3.8 0 0 0-2.68-3.84 3.2 3.2 0 0 0-3.66 1.75 4.1 4.1 0 0 0 1.05 5l1.16.75v5.35a6 6 0 0 1-.93 3.43c-1.63 2.67-3.32 5.35-4.89 8.02a1.6 1.6 0 0 1-1.62.82z" clip-rule="evenodd"/><path fill="#00A9E8" fill-rule="evenodd" d="M109.48 175.44c4.41 0 8.83-.46 13.31-.58 3.26 0 2.56-.4 4.24 2.44.94 1.75 1.8 3.5 2.68 5.24a3.7 3.7 0 0 1 0 2.85c-.7 2.15-1.28 4.3-1.92 6.57a3.96 3.96 0 0 1 .81 4.88 3.26 3.26 0 0 1-4 1.86 3.6 3.6 0 0 1-2.27-4.01 3.7 3.7 0 0 1 2.84-3.2 1.3 1.3 0 0 0 1.1-.99c.59-1.97 1.17-3.95 1.64-5.81q.21-.62 0-1.22l-2.97-5.41a1.5 1.5 0 0 0-1.57-.87l-13.66.81c-.47 0-1.05 0-.99-.7s-.35-1.68.76-1.86m17.73 19.6a1.3 1.3 0 0 0-.22-1.02 1.3 1.3 0 0 0-.88-.55 1.6 1.6 0 0 0-1.52 1.74q0 1.5 1.05 1.51a1.6 1.6 0 0 0 1.57-1.68M171.16 111.26a4.24 4.24 0 0 0-3.49 6.1 1.8 1.8 0 0 1-.4 2.39c-.3.29-.53.7-.87.98a2.5 2.5 0 0 1-1.23.64l-12.79 1a2.2 2.2 0 0 1-1.97-.82c-2.39-2.68-4.83-5.3-7.21-8.02a2.5 2.5 0 0 0-2.21-1c-2.97 0-5.82.53-8.96.65-4.59 0-9.18 0-13.77.46h-10.12c-1.16 0-.76 1.16-.7 1.8s.47.93 1.1.88q1.05-.09 2.1 0l18.43-.82c3.6 0 7.15-.4 10.76-.75a2.6 2.6 0 0 1 2.61.98c2.27 2.62 4.6 5.06 6.86 7.62a2.6 2.6 0 0 0 2.27.99q6.58-.23 13.08-1.16a5.1 5.1 0 0 0 4.54-2.91 1.3 1.3 0 0 1 1.4-.81 4.24 4.24 0 0 0 4.18-4.07 3.53 3.53 0 0 0-3.6-4.13m0 5.81a1.34 1.34 0 0 1-1.57-.58 2.1 2.1 0 0 1 .3-2.5c.46-.58.98-1.05 1.8-.75a1.5 1.5 0 0 1 .93 1.62 2.2 2.2 0 0 1-1.46 2.33z" clip-rule="evenodd"/><path fill="#00A9E8" fill-rule="evenodd" d="M191.57 113.47a156 156 0 0 0-3.26-14.6c-1-3.57-1.37-7.28-1.1-10.98a50 50 0 0 0-2.27-20.82 72 72 0 0 0-10-18.6 173 173 0 0 0-20.17-22.1 30 30 0 0 0-13.37-7.5c-2.39-.64-4.71-1.57-7.04-2.44a5.8 5.8 0 0 1-2.85-2.38 9 9 0 0 0-2.44-2.39 15 15 0 0 0-5.81-1.86c-3.5-.46-6.98-.93-10.47-1.22-4.94-.4-7.1 1.75-7.62 5.82a138 138 0 0 0-1.16 11.63c-.17 3.9 0 7.15.3 10.7.28 3.54.52 7.73 1.04 11.62q1.15 7.9.99 15.87c-.03 4.5-.56 8.99-1.57 13.38a37 37 0 0 0-.82 10.34c0 2.33.35 4.66.35 6.98s-.35 5.23 0 7.8q.12 5.2.76 10.4c.5 3.25.5 6.57 0 9.82a48 48 0 0 0-.82 9.07v4.54q.1 1.88.47 3.72c1.19 3.95 1.6 8.1 1.22 12.2-.64 3.96-1.05 7.97-1.51 11.93a5 5 0 0 0 0 1.92l1.4 9.07q.28 1.35.4 2.73a48 48 0 0 1-1.98 15.93 15 15 0 0 0-.63 5.23v4.42a6.5 6.5 0 0 0 1.97 4.83q1.4 1.47 3.2 2.44a76 76 0 0 0 7.15 2.73 8.7 8.7 0 0 1 5.23 3.26 8.3 8.3 0 0 0 9.77 3.2 10 10 0 0 0 6.63-4.42 5.2 5.2 0 0 1 3.49-2.56c.46 0 .93-.41 1.4-.53a8 8 0 0 0 4.06-2.26l6.28-5.82q1.35-1.2 2.1-2.85c1.7-3.9 4.56-7.19 8.2-9.42a47 47 0 0 0 5.8-4.06 18.5 18.5 0 0 0 6.46-8.96c1.1-3.08 2.15-6.16 3.31-9.19a50 50 0 0 0 3.32-12.55 25 25 0 0 1 3.72-10.82 32 32 0 0 0 2.61-6.16c1-3.08 1.75-6.22 2.5-9.42a43 43 0 0 0 .76-17.67m-3.78 14.94c-.93 3.78-1.86 7.56-2.96 11.28a26 26 0 0 1-2.21 5.06 34 34 0 0 0-3.2 7.26c-.7-.81-1.34-1.68-1.98-2.5a1.4 1.4 0 0 0-1.57-.64c-4.01.76-8.08 1.46-12.1 2.33a2.1 2.1 0 0 1-2.26-.64 3.56 3.56 0 0 0-5.35.3 4.06 4.06 0 0 0 .35 5.8 3.7 3.7 0 0 0 5.82-1.85c.29-.7.52-1.23 1.33-1.34l11.34-2.21a1.8 1.8 0 0 1 1.34.29 9.3 9.3 0 0 1 2.44 4.19l.46.63-.52-.63c0 1.5-.52 3.08-.81 4.59a65 65 0 0 1-3.55 10.99c-.64 1.74-1.34 3.43-1.8 5.23a18.3 18.3 0 0 1-8.08 10.64c-1.86 1.28-3.84 2.44-5.82 3.78a20 20 0 0 0-6.33 7.67 20 20 0 0 1-4.48 5.82q-1.32 1.09-2.5 2.32a11.6 11.6 0 0 1-5.81 3.66l-1.7.59a2.8 2.8 0 0 0-2.32 2.2q-.2.8-.81 1.34a9 9 0 0 1-6.4 2.85 4.3 4.3 0 0 1-3.9-1.98 11.3 11.3 0 0 0-7.72-4.88q-2.45-.61-4.71-1.74a16 16 0 0 1-3.43-2.16 4 4 0 0 1-1.34-3.37v-.35c-.06-4.2.53-8.4 1.74-12.44.53-3.14.82-6.34 1.1-9.53q.15-1.46 0-2.91c-.46 0-1.04 0-.98-.7s-.35-1.5.7-1.68c-.53-2.39-1-4.77-1.63-7.1-.67-2.79-.67-5.7 0-8.49-.99-.52-.64-1.45-.52-2.2 0 .75-.47 1.68.52 2.2h4.42l17.85-.75a2.7 2.7 0 0 1 2.38 1.05c2.5 3.14 5.06 6.28 7.62 9.3a5.4 5.4 0 0 1 1.4 5.35c-.88 3.31-1.46 6.74-2.1 10.06h-.58a3.95 3.95 0 0 0-2.97 4.59 3.2 3.2 0 0 0 4.48 2.56 3.9 3.9 0 0 0 1.51-5.82 2.7 2.7 0 0 1-.46-2.79c.81-3.25 1.45-6.57 2.38-9.82a4.3 4.3 0 0 0-.99-4.3l-9.77-12.04a1.7 1.7 0 0 0-1.4-.64h-4.87l-18.55.52c0-1.5 0-2.96.35-4.47.35-1.52 0-4.42 0-6.63-1.4 0-1.63-.3-1.57-1.46s0-.93.64-.93c-.53 0-.58 0-.64.93s0 1.34 1.57 1.46q.78-.04 1.57 0h6.33l17.45-.58a2.2 2.2 0 0 1 1.91.93c2.85 3.83 5.82 7.55 8.67 11.63 2.85 4.06 4.59 6.56 6.86 9.88a3.7 3.7 0 0 1 .81 3.02l-1.92 9.36a1.8 1.8 0 0 1-1.4 1.57 3.54 3.54 0 0 0-2.67 3.32 3.6 3.6 0 0 0 2.21 3.78 3.3 3.3 0 0 0 4.13-1.98 3.8 3.8 0 0 0 0-3.9 2.4 2.4 0 0 1-.35-2.09c.82-3.43 1.57-6.86 2.39-10.3a3 3 0 0 0-.35-2.5c-.7-1.04-1.28-2.14-1.98-3.19-4.7-7.1-9.94-13.84-15.17-20.52a2.2 2.2 0 0 0-2.1-.99h-6.33l-18.38-.17h-1.8a31 31 0 0 1-1.57-11.63l6.98-.4 7.5-.36 14.42-.93a2.45 2.45 0 0 1 2.55 1.22l6.92 9.25a1.9 1.9 0 0 0 1.8.93h1.46c5-.41 10.06-.76 15.06-1.22q5.7-.61 11.22-2.15l2.1-5.82h.86a4.1 4.1 0 0 0 3.5-3.95 3.56 3.56 0 0 0-3.9-4.13 4.2 4.2 0 0 0-3.03 6.16 3.1 3.1 0 0 1 0 3.14q-.46.9-.7 1.86a2.55 2.55 0 0 1-2.32 1.92 130 130 0 0 1-23.26 2.33 2.1 2.1 0 0 1-2.03-1c-2.27-3.13-4.65-6.16-6.92-9.3a2.6 2.6 0 0 0-2.44-1.16l-7.85.3h-3.9l-18.08.46h-1.57v2.85-2.74h1.57l1.4-10.92v-1.75c0-.58-1.1 0-1.16-.87s-.41-1.57.75-1.8c0-2.15 0-4.3-.46-6.46l18.9-.64c2.78 0 5.8 0 8.42-.4 1.69 0 3.37-.41 5-.58a2.8 2.8 0 0 0 2.27-1.34c1.28-1.98 2.62-3.9 3.9-5.82a1.8 1.8 0 0 1 1.56-.98q6.34-.71 12.74-1.57a1.5 1.5 0 0 1 1.57.64 4.3 4.3 0 0 0 3.14 1.74 4.4 4.4 0 0 0 4.59-2.97 4.1 4.1 0 0 0-1.92-4.88 4.54 4.54 0 0 0-6.34 2.1q-.32.84-.52 1.74h-1.1l-12.97.99a2.3 2.3 0 0 0-2.1 1.16c-1.21 1.98-2.55 3.84-3.77 5.81a2.7 2.7 0 0 1-2.27 1.28l-15.46.82h-15.7c-.47 0-.82 0-.82.7 0-.53.35-.7.82-.7 0-3.96.35-7.91.35-11.63 0-1.98-.35-3.96-.41-5.82s0-3.25 0-4.88v-1.92l13.6-.87c2.91 0 5.82-.64 8.73-.93a2.9 2.9 0 0 0 2.32-1.57c2.21-4.01 4.54-7.9 6.75-11.92s4.59-8.49 6.91-12.73c0-.4.64-.99 1.05-1.1 1.51-.36 3.08-.59 4.53-.82 1.87 2.38 3.5 2.96 5.35 2.15a4.3 4.3 0 0 0 2.45-4.24 3.9 3.9 0 0 0-3.5-3.55 4.3 4.3 0 0 0-4.42 3.78l-5.22.7a1.7 1.7 0 0 0-1.63 1.04c-1.45 2.85-2.9 5.82-4.42 8.55l-9.48 16.22a2 2 0 0 1-1.8 1.16h-3.25l-17.45.47c.41-2.97.82-5.82 1.17-8.78a33 33 0 0 0 0-3.37q8.39.23 16.74-.58a1.9 1.9 0 0 0 1.69-1c2.2-3.89 4.47-7.78 6.68-11.62.7-1.22 1.34-2.56 2.04-3.9h.81a4.25 4.25 0 0 0 4.25-4.82 3.43 3.43 0 0 0-5-2.85 4.37 4.37 0 0 0-1.52 5.64 2.4 2.4 0 0 1 0 2.27c-2.61 4.59-5.29 9.13-7.84 13.72a1.6 1.6 0 0 1-1.46.81h-15.64v-7.15h8.6a1.8 1.8 0 0 0 1.87-.99l8.72-13.78a7 7 0 0 0 1.28-4.88V33l.4.06a3.95 3.95 0 0 0 .76-5.81 3.2 3.2 0 0 0-5.4 0 4 4 0 0 0 1.16 5.46c.34 0 .93.52.93.82a9 9 0 0 1-.59 4.88c-2.9 4.48-5.81 8.95-8.6 13.43a2.2 2.2 0 0 1-2.15 1.16l-7.62-.06c0-1.74-.46-3.48-.64-5.23h4.19a1.75 1.75 0 0 0 1.8-.81c1.92-3.5 3.9-6.86 5.81-10.35q.51-1.05.47-2.21v-5.18a1.8 1.8 0 0 1 .87-1.91 3.3 3.3 0 0 0 1.46-3.2 3.8 3.8 0 0 0-2.68-3.84 3.3 3.3 0 0 0-3.66 1.75 4.06 4.06 0 0 0 1.05 5l1.16.75v5.35c.07 1.2-.23 2.4-.87 3.43a600 600 0 0 0-4.95 8.02 1.6 1.6 0 0 1-1.62.88h-3.55c-.4-4.42-1.05-8.84-1.22-13.26q.03-5.36.64-10.7.23-3.25.81-6.45.08-.75.35-1.45a1.9 1.9 0 0 1 1.92-1.4q1.63-.09 3.25 0c2.74.3 5.53.52 8.26.99q2.13.42 4.19 1.16c1.2.42 2.2 1.24 2.85 2.33a8 8 0 0 0 2.96 2.67c2.72 1.3 5.6 2.26 8.55 2.85a28.6 28.6 0 0 1 11.63 6.57c3.72 3.43 7.2 7.1 10.63 10.76s5.12 5.81 7.45 8.6c3.74 4.68 6.9 9.8 9.42 15.23v.76l-1.1.29a212 212 0 0 0-21.4 5.81c-.8.22-1.48.71-1.92 1.4-1.22 1.8-2.5 3.55-3.67 5.35l-5.23 9.07c-.29.46-.75 1.04-1.22 1.1-2.56.47-5.12.76-7.62 1.1-1.97-2.84-4-3.71-6.4-2.78a5 5 0 0 0-3.01 4.76 4.7 4.7 0 0 0 3.72 4.19c2.79.46 4.42-.58 5.81-4.07 2.1-.3 4.19-.47 6.28-.81 3.72-.76 2.62 0 4.6-3.14 2.67-4.13 5.34-8.2 7.96-12.33a5.8 5.8 0 0 1 3.37-2.56c4.3-1.16 8.55-2.56 12.8-3.78 2.78-.75 5.8-1.33 8.36-1.97 2.47 6.26 3.46 13 2.91 19.7a45 45 0 0 0 1.57 16.92q2.05 6.53 2.79 13.32c.53 4.27.3 8.6-.64 12.79m-27.27 25.06a1.9 1.9 0 0 1-1.92 1.8 1.6 1.6 0 0 1-1.38-1.21 2 2 0 0 1-.01-.65 1.86 1.86 0 0 1 1.92-1.8 1.57 1.57 0 0 1 1.4 1.86m-19.82 34.88a1.6 1.6 0 0 1-.88 1.63q-.3.15-.63.17a1.4 1.4 0 0 1-1.17-1.5 1.8 1.8 0 0 1 1.57-1.81c.7.06 1.1.64 1.1 1.57zm10.7-3.66a1.8 1.8 0 0 1-1.52 1.8c-.64 0-1.1-.64-1.16-1.45a1.6 1.6 0 0 1 1.51-1.8c.7.05 1.17.63 1.17 1.5zm24.7-56.34a2 2 0 0 1 .43-1.5 2 2 0 0 1 1.38-.77c.93 0 1.57.7 1.57 1.86a2.03 2.03 0 0 1-1.8 2.1c-1 .23-1.58-.47-1.58-1.63zM163.5 94.11a2.1 2.1 0 0 1 2.15-1.8 2 2 0 0 1 2.03 1.86 2.03 2.03 0 0 1-2.15 1.8 2 2 0 0 1-2.03-1.8zM107.5 77.13v.3s-.06-.18 0-.3m45.87-28.72a1.9 1.9 0 0 1 1.98-2.04 1.68 1.68 0 0 1 1.63 1.98 1.9 1.9 0 0 1-1.13 1.81q-.35.15-.73.17a1.8 1.8 0 0 1-1.75-1.92m-16.92-4.71a2.2 2.2 0 0 1 2.1-2.21 1.45 1.45 0 0 1 1.33 1.69 2.33 2.33 0 0 1-2.09 2.26 1.57 1.57 0 0 1-1.34-1.74m-8.83-13.95c0-.93.52-1.8 1.28-1.8.75 0 1.33.8 1.33 1.74a1.4 1.4 0 0 1-.27 1.12 1.3 1.3 0 0 1-1.61.36 1.34 1.34 0 0 1-.73-1.48zm-7.45-4.25a1.46 1.46 0 0 1-1.4-1.63 1.4 1.4 0 0 1 1.23-1.62c.81 0 1.4.7 1.4 1.62a1.4 1.4 0 0 1-1.23 1.63m14.6 63.96a2 2 0 0 1-1.98 2.09 2.1 2.1 0 0 1-2.2-1.92 2.1 2.1 0 0 1 2.03-2.1 1.98 1.98 0 0 1 2.26 2.16z" clip-rule="evenodd"/><path fill="#AFCC7D" fill-rule="evenodd" d="M78.78 118.3h1.4v-1.4h1.39v4.59H78.6z" clip-rule="evenodd"/><path fill="#B3D07E" fill-rule="evenodd" d="M81.8 114.86h-1.68q.03.75 0 1.51h-1.17v-3.02h3.03c-.24.58-.18 1.1-.18 1.51" clip-rule="evenodd"/><path fill="#AFCC7D" fill-rule="evenodd" d="M67.27 116.49h1.5v4.54h-3.01v-2.91l1.45-.35q-.05-.75 0-1.51z" clip-rule="evenodd"/><path fill="#B3D07E" fill-rule="evenodd" d="M67.33 116.5h-1.57v-2.97h3.02v1.27h-1.51v1.46z" clip-rule="evenodd"/><path fill="#BAD67F" fill-rule="evenodd" d="M67.62 98.93h1.28v4.36h-2.91v-2.73l1.4-.3v-1.39z" clip-rule="evenodd"/><path fill="#A5C27B" fill-rule="evenodd" d="M67.62 98.87h-1.57v-2.96h3.02V97l-1.45.3v1.56" clip-rule="evenodd"/><path fill="#AFCC7D" fill-rule="evenodd" d="M56.51 98.93v4.36H53.5v-2.73l1.4-.47a8 8 0 0 0 0-1.16zM55.12 97.36c-.35 1.28-.35 1.28-1.52 1.1V95.8h2.85v1.22zM53.49 135.97h1.45q-.03-.65 0-1.28h1.28c0 1.45 0 2.79.3 4.3H53.6q.18-1.28-.11-3.02" clip-rule="evenodd"/><path fill="#ABC87C" fill-rule="evenodd" d="M54.88 134.28h-1.4v-2.9h3.03v1.33l-1.45.35q-.09.44-.18 1.22" clip-rule="evenodd"/><path fill="#B3D07E" fill-rule="evenodd" d="M67.56 134.46h1.63v4.36h-2.85q.07-1.31 0-2.62l1.45-.4v-1.4z" clip-rule="evenodd"/><path fill="#A5C27B" fill-rule="evenodd" d="M67.62 134.4h-1.57v-3.08h2.03c.99 0 .99 0 .99 1.4h-1.4v1.5z" clip-rule="evenodd"/><path fill="#B3D07E" fill-rule="evenodd" d="m42.8 98.58 1.27.3v4.24h-2.85v-2.68l1.51-.4v-1.46z" clip-rule="evenodd"/><path fill="#AFCC7D" fill-rule="evenodd" d="M42.85 98.53h-.99v-2.74h2.8v1.22h-1.4v1.28zM42.85 134.1l1.51.3c0 1.4 0 2.73.35 4.24h-2.85l-.35-2.61 1.46-.47v-1.45z" clip-rule="evenodd"/><path fill="#AFCC7D" fill-rule="evenodd" d="M42.85 134.1h-1.4v-2.78h2.91v1.28l-1.22.34v1.17zM19.36 116.2h1.16v4.48h-2.5v-2.8l1.17-.34v-1.52z" clip-rule="evenodd"/><path fill="#AFCC7D" fill-rule="evenodd" d="M19.36 116.14h-1.22v-2.96h2.38v1.27l-1.28.41q-.04.73 0 1.46z" clip-rule="evenodd"/><path fill="#B3D07E" fill-rule="evenodd" d="m67.27 152.89 1.28-.35c0-.41 0-.76.29-1.17h1.04c0 1.17 0 2.33.3 3.6h-2.85c.11-.51 0-1.27-.06-2.08M68.26 151.08h-1.17v-2.5h2.85c0 .58.35 1.22-.64 1.22s-.52.94-1.04 1.28M68.26 81.96h1.57c0 1.4 0 2.73-.3 4.12h-2.79v-2.55l1.52-.41z" clip-rule="evenodd"/><path fill="#AFCC7D" fill-rule="evenodd" d="M68.26 81.96h-1.23v-2.68h2.85q-.03.52 0 1.05l-1.4.35c0 .52 0 .98-.28 1.45zM57.73 82.07c0 1.34 0 2.62-.35 4.01h-2.85v-2.61l1.46-.35c.23-.76.4-1.63 1.74-1.05" clip-rule="evenodd"/><path fill="#B3D07E" fill-rule="evenodd" d="m54.88 81.49.35-2.38h2.62v.93c-1.51-.47-1.22 2.26-2.97 1.45M30.23 138.53v-2.62l1.22-.35v-1.22a.7.7 0 0 1 1.1.07 1 1 0 0 1 .12.4c0 1.22 0 2.38.35 3.72zM29.65 131.2h2.56v1.1l-1.22.47v1.1c-.47.35-1.16 0-1.22 0s-.06-1.97-.12-2.67" clip-rule="evenodd"/><path fill="#AFCC7D" fill-rule="evenodd" d="M56.51 151.08h1.46c0 1.28.29 2.5.46 3.96h-2.79c0-.7 0-1.51-.4-2.33l1.27-.4v-1.46z" clip-rule="evenodd"/><path fill="#AFCC7D" fill-rule="evenodd" d="M56.51 151.03H55v-2.5a3.4 3.4 0 0 1 2.73 0v.93l-1.33.34v1.17z" clip-rule="evenodd"/><path fill="#B3D07E" fill-rule="evenodd" d="M31.05 98.58h1.5c0 1.52 0 2.91-.28 4.48h-2.8v-2.73l1.46-.35v-1.4z" clip-rule="evenodd"/><path fill="#AFCC7D" fill-rule="evenodd" d="M31.1 98.58h-1.27l.4-2.9h2.5V97H31.4l-.35 1.46zM42.73 86.03v-2.56c.64-.3 1.63 0 1.69-1.34 0 0 .64 0 1.28-.4 0 1.62-.35 2.96-.53 4.3z" clip-rule="evenodd"/><path fill="#A5C27B" fill-rule="evenodd" d="M46.34 78.93c0 1.22 0 1.22-1.34 1.51-.47 1.22-.47 1.22-1.57 1.05.06-2.9.06-2.96 2.9-2.56" clip-rule="evenodd"/><path fill="#AFCC7D" fill-rule="evenodd" d="M21.1 102.83h-2.5v-2.8c0-.92 1.46 0 1.46-1.21l1.28-.7a82 82 0 0 1-.24 4.7" clip-rule="evenodd"/><path fill="#ABC87C" fill-rule="evenodd" d="M19.19 95.44h2.44c0 .7.29 1.4-.76 1.52-1.04.11-.4.46-.58.75-.17.3 0 .47-1.28.52z" clip-rule="evenodd"/><path fill="#B3D07E" fill-rule="evenodd" d="M81.28 65.97h1.28v3.83h-2.73v-2.32l1.4-.35v-1.16z" clip-rule="evenodd"/><path fill="#B3D07E" fill-rule="evenodd" d="M81.28 65.97h-1.22v-2.44h2.5c.46 1.4-.93.8-1.34 1.45v1.1z" clip-rule="evenodd"/><path fill="#AFCC7D" fill-rule="evenodd" d="M44.77 151.08h1.33c0 1.28.47 2.62.7 4.07h-2.79c0-.75 0-1.45-.35-2.26l1.22-.64v-1.28z" clip-rule="evenodd"/><path fill="#A5C27B" fill-rule="evenodd" d="M44.77 151.03H43.3c0-1 0-1.8-.4-2.8h2.61c.35 1.17.35 1.17-.81 1.75v1.1z" clip-rule="evenodd"/><path fill="#B3D07E" fill-rule="evenodd" d="M69.88 65.97h1.05c0 1.33 0 2.56-.4 3.83h-2.8v-2.32l1.34-.35c0-.35 0-.76.3-1.16z" clip-rule="evenodd"/><path fill="#ABC87C" fill-rule="evenodd" d="M69.88 65.97h-1.4v-2.44h2.68c.41 1.4-.93.8-1.4 1.4q-.03.57 0 1.15z" clip-rule="evenodd"/><path fill="#BAD67F" fill-rule="evenodd" d="M83.2 167.07v3.49h-2.68v-2.15c.82 0 1.63 0 1.4-1.34z" clip-rule="evenodd"/><path fill="#ABC87C" fill-rule="evenodd" d="M83.14 165.33c-.7 0-1.51 0-1.57 1.22h-1.22v-2.39c2.2-.23 2.56-.11 2.79 1.17" clip-rule="evenodd"/><path fill="#B3D07E" fill-rule="evenodd" d="M33.55 81.66h1.22c0 1.46-.47 2.8-.7 4.2h-2.62c0-.94 0-1.7.41-2.57l1.28-.29.46-1.4z" clip-rule="evenodd"/><path fill="#ABC87C" fill-rule="evenodd" d="M33.55 81.66h-1.4c0-.98.35-1.86.52-2.73h2.45c.35 1.28-.53 1.4-1.4 1.51z" clip-rule="evenodd"/><path fill="#B3D07E" fill-rule="evenodd" d="M71.98 170.62h-2.62c0-.7 0-1.34-.4-2.1-.41-.75 1.68-.34 1.39-1.39.93 0 1.34 0 1.4.87s.11 1.63.23 2.62" clip-rule="evenodd"/><path fill="#A5C27B" fill-rule="evenodd" d="M68.55 164.4c2.26-.47 2.44-.4 2.85.81-.47.35-1.46.3-1.4 1.34l-1.28.35z" clip-rule="evenodd"/><path fill="#AFCC7D" fill-rule="evenodd" d="M35.58 155.15h-2.5c0-.75-.4-1.57-.64-2.5l1.16-.46v-1.34c.53 0 1.05.47 1.17.76s.58 2.32.81 3.54" clip-rule="evenodd"/><path fill="#ABC87C" fill-rule="evenodd" d="M33.14 150.9c-1.16 0-1.34-.46-1.28-2.72h2.27c0 .46.75 1.04-.3 1.28-1.04.23-.28.93-.69 1.45" clip-rule="evenodd"/><path fill="#AFCC7D" fill-rule="evenodd" d="M23.02 150.8h.88c.4 1.27.75 2.55 1.16 3.95h-2.5c0-.76-.4-1.46-.64-2.33a1.45 1.45 0 0 0 1.1-1.63" clip-rule="evenodd"/><path fill="#A5C27B" fill-rule="evenodd" d="M22.33 150.8c-1.52-.3-.88-1.75-1.52-2.86q1.14-.09 2.27 0s.47.41.52.64 0 .7 0 .64c-1.27.12-.75 1.1-1.27 1.57" clip-rule="evenodd"/><path fill="#B3D07E" fill-rule="evenodd" d="M27.03 65.68h1.17a131 131 0 0 0-1.1 3.78h-2.33q.2-.96.52-1.87.2-.43.64-.63c.99 0 .99-.7 1.16-1.28z" clip-rule="evenodd"/><path fill="#AFCC7D" fill-rule="evenodd" d="M27.03 65.68h-.75c0-2.39.46-2.8 2.79-2.27 0 .35-.4.81-.64.87s-1.16.64-1.4 1.4" clip-rule="evenodd"/><path fill="#B3D07E" fill-rule="evenodd" d="M71.8 51.32h1.17c0 1.22-.35 2.32-.47 3.48h-2.62c0-.75 0-1.4.41-2.15a1.4 1.4 0 0 0 1.57-1.33z" clip-rule="evenodd"/><path fill="#A5C27B" fill-rule="evenodd" d="M71.86 51.32h-1.4l.47-2.5h2.27c.46 1.27-.7 1.04-1.28 1.33s0 .82 0 1.17z" clip-rule="evenodd"/><path fill="#AFCC7D" fill-rule="evenodd" d="M27.27 170.27c0-.7-.53-1.4-.76-2.04l.76-.98.58-.64s.52.34.64.64c.11.29.64 1.91 1.05 3.02z" clip-rule="evenodd"/><path fill="#ABC87C" fill-rule="evenodd" d="M26.51 166.43c-1.28-.29-.99-1.5-1.45-2.61h1.74q.45.13.7.52v.75q-.45.7-.99 1.34" clip-rule="evenodd"/><path fill="#B3D07E" fill-rule="evenodd" d="M61.4 51.32h1.16l-.64 3.48H59.3c0-.7.3-1.4.4-2.09.13-.7 1.75 0 1.58-1.4z" clip-rule="evenodd"/><path fill="#A5C27B" fill-rule="evenodd" d="m61.4 51.32-1.1-.3.51-2.2h2.5c-.34.52-.46 1.04-.7 1.1s-1.1.7-1.21 1.4" clip-rule="evenodd"/><path fill="#AFCC7D" fill-rule="evenodd" d="M70.93 182.6c.58 0 1.4 0 1.28-1.05s.4-.35.58-.35.52.29.52.52.35 1.75.53 2.8h-2.39q0-.76-.52-1.93M70.93 180.97c0-.7 0-1.28-.4-2.04h2.6v.64c-1.15-.17-.69 1.92-2.2 1.4" clip-rule="evenodd"/><path fill="#ABC87C" fill-rule="evenodd" d="m51.45 50.97 1.17.4-1.05 3.43H49.3c0-1.1 0-2.38 1.57-2.61 0 0 0-.76.4-1.22z" clip-rule="evenodd"/><path fill="#A5C27B" fill-rule="evenodd" d="M51.45 50.97h-1.1c0-.82.46-1.46.7-2.21h2.09c0 .64 0 1.1-.52 1.1-.53 0-.93.64-1.17 1.1" clip-rule="evenodd"/><path fill="#AFCC7D" fill-rule="evenodd" d="M61.45 184.51c0-.64 0-1.27-.4-1.62l1.4-1.8c1.39.63.86 2.15 1.45 3.42z" clip-rule="evenodd"/><path fill="#ABC87C" fill-rule="evenodd" d="M60 178.76h1.92q.42.16.64.58s0 .4-.3.58l-.57.64s-.47.47-.64.47q-.43-.17-.64-.59c-.18-.46-.24-.98-.41-1.68" clip-rule="evenodd"/><path fill="#AFCC7D" fill-rule="evenodd" d="M41.86 50.97h1.16c-.4 1.22-.81 2.26-1.22 3.43h-2.27c.35-1.05 0-2.21 1.75-2.44 0 0 .35-.76.58-1.17z" clip-rule="evenodd"/><path fill="#ABC87C" fill-rule="evenodd" d="M41.86 50.97h-.99l.99-2.21h2.38c-.4.46-.64.93-.81.93s-1.1.7-1.45 1.28z" clip-rule="evenodd"/><path fill="#AFCC7D" fill-rule="evenodd" d="M51.1 182.89c.47-.76.82-1.22 1.17-1.86 1.4.63 1.04 2.2 1.8 3.43h-2.33zM51.45 180.97c-1.22 0-1.28 0-1.5-2.21h1.91a.7.7 0 0 1 .4.4s0 .59-.34.59-.3.75-.47 1.22M42.33 184.22a19 19 0 0 1-.76-1.62l.99-1.7c1.4.6 1.16 2.16 1.97 3.32z" clip-rule="evenodd"/><path fill="#A5C27B" fill-rule="evenodd" d="M41.51 180.97c-1.34 0-.87-1.46-1.63-2.04a2.2 2.2 0 0 1 1.98-.52.58.58 0 0 1 0 1.1c-.58.47.3 1.1-.35 1.46" clip-rule="evenodd"/><path fill="#AFCC7D" fill-rule="evenodd" d="M33.02 50.97c.53 0 .82 0 .58.64s-.87 1.92-1.27 2.9h-2.1c.3-1.1.3-2.15 1.69-2.44.35 0 .58-.75.87-1.1z" clip-rule="evenodd"/><path fill="#A5C27B" fill-rule="evenodd" d="M33.02 50.97h-.75c.35-2.21.7-2.5 2.67-2.27 0 .58 0 1.1-.75 1.1-.76 0-1.17.7-1.17 1.17" clip-rule="evenodd"/><path fill="#B3D07E" fill-rule="evenodd" d="M74.13 37.94h.99c0 1-.3 1.98-.41 3.09H72.5c0-.93 0-1.87 1.22-2.1 0 0 0-.75.4-1.1z" clip-rule="evenodd"/><path fill="#AFCC7D" fill-rule="evenodd" d="M74.13 37.94h-1.05l.47-1.97h2.09c0 .4-.35.87-.58.87a1.05 1.05 0 0 0-.93 1.1" clip-rule="evenodd"/><path fill="#B3D07E" fill-rule="evenodd" d="M65.12 37.94h.93c-.3 1.05-.53 2.04-.82 3.03h-2.09c0-.87 0-1.8 1.28-2.1 0 0 .52-.7.75-1.1z" clip-rule="evenodd"/><path fill="#ABC87C" fill-rule="evenodd" d="M65.12 37.94h-1.17q.43-.9.7-1.86h2.21c-.4.47-.58.88-.81.93s-.93.41-.93.93" clip-rule="evenodd"/><path fill="#A5C27B" fill-rule="evenodd" d="M76.74 196.84h-1.27a1.3 1.3 0 0 1-1.2-1.1q-.05-.3.03-.59.36-.76 1-1.33s.8 0 .86.4q.37 1.3.58 2.62" clip-rule="evenodd"/><path fill="#B3D07E" fill-rule="evenodd" d="M74.19 193.76c-1.17 0-.59-1.16-1.22-1.8h2.5z" clip-rule="evenodd"/><path fill="#A5C27B" fill-rule="evenodd" d="M65.99 193.76c1.34.58.93 1.86 1.57 2.79-.82.46-1.51.58-2.04 0-.52-.58-.05-1.86.47-2.8" clip-rule="evenodd"/><path fill="#AFCC7D" fill-rule="evenodd" d="M63.72 191.72h2.5q-.47.88-1.05 1.69a.8.8 0 0 1-.8 0 12 12 0 0 1-.65-1.69M58.84 196.6c-1.92 0-1.92 0-2.62-1.33l.93-1.51c1.05.64 1.16 2.1 1.69 2.85" clip-rule="evenodd"/><path fill="#ABC87C" fill-rule="evenodd" d="m57.03 192.07-1.22 1.86-1.16-1.86a2.3 2.3 0 0 1 2.38 0M56.45 37.94h.41l.3.3-1.06 2.84h-2.15c.41-.93.3-2.03 1.63-2.2.3 0 .52-.65.76-1z" clip-rule="evenodd"/><path fill="#9AB879" fill-rule="evenodd" d="M56.45 37.94h-.75c.35-2.09.52-2.26 2.44-1.97A.76.76 0 0 1 57.5 37c-.87-.05-.99.35-1.05.93" clip-rule="evenodd"/><path fill="#A5C27B" fill-rule="evenodd" d="M49.65 35.9c0 .59 0 .7-.7.82s-1.4.47-.46 1.28 0 .47 0 .7l-1.16 2.38h-1.8c0-.98.28-1.92 1.45-2.15 1.16-.23.7-.06.7-.93-.41-1.63 0-2.44 1.85-2.27 0 0 .06.12.12.18" clip-rule="evenodd"/><path fill="#ABC87C" fill-rule="evenodd" d="M50.58 196.6c-1.86 0-1.86 0-2.73-1.5l.75-1.46c1.05.7 1.28 1.86 1.98 2.97" clip-rule="evenodd"/><path fill="#9AB879" fill-rule="evenodd" d="m48.26 192.3-.88 1.46c-.93-.35-.98-1.22-1.33-1.86 1.22-.58 1.62-.58 2.2.4" clip-rule="evenodd"/><path fill="#ABC87C" fill-rule="evenodd" d="M84.88 26.55c.41 0 .76 0 .7.64s0 1.28 0 2.1h-1.86c0-.94-.35-1.75.87-1.99 0 0 .3-.58.41-.87z" clip-rule="evenodd"/><path fill="#9AB879" fill-rule="evenodd" d="M84.88 26.49h-1.04c0-.58 0-1.22.46-1.57s1.05 0 1.57 0c.53 0-1.4.7-.99 1.69z" clip-rule="evenodd"/><path fill="#ABC87C" fill-rule="evenodd" d="M76.74 26.55h.93c0 .52 0 .99-.29 1.45-.4 1.4-.4 1.4-2.09 1.05 0-.76 0-1.46.99-1.75s.35-.58.52-.87z" clip-rule="evenodd"/><path fill="#9AB879" fill-rule="evenodd" d="M76.74 26.55h-.64c0-1.86.3-1.98 2.1-1.51z" clip-rule="evenodd"/><path fill="#AFCC7D" fill-rule="evenodd" d="M86.1 204.63c.88.81.7 1.63.76 2.5s-1.4.4-1.8-.4c-.4-.82.99-1.11 1.04-2.1" clip-rule="evenodd"/><path fill="#9AB879" fill-rule="evenodd" d="M84.3 202.94h2.15v.35l-.7.47c-.34 0 0 1.16-.92.7-.93-.47-.3-.7-.53-1.52" clip-rule="evenodd"/><path fill="#A5C27B" fill-rule="evenodd" d="M79.42 207.13c-1.75.3-1.75.3-2.33-1.16l1.1-1.22c.94.64.7 1.62 1.23 2.38" clip-rule="evenodd"/><path fill="#9AB879" fill-rule="evenodd" d="m76.4 202.89 2.09.35-1.57 1.68-.76-1.68zM72.15 18.82l1.57-1.57c0-1.63.35-1.8 1.92-1.57a1.7 1.7 0 0 0-1.1 1.68c-.06 1.28-.94 1.8-2.39 1.46M81.4 15.62l-.64.52q-.19 1.4-.64 2.73l-1.28.47a1.57 1.57 0 0 1 1.1-1.98c-.4-1.74-.11-1.74 1.46-1.74M69.24 215.62c0-.58 0-1.22-.29-1.8h.35l1.63 1.86h-1.69zM66.8 212.25h1.69c0 .46 0 .75-.35 1.33-.4-.29-.76-.64-1.34-1.33" clip-rule="evenodd"/><path fill="#08445E" fill-rule="evenodd" d="M179.48 128.18a2.04 2.04 0 0 1-1.8 2.09c-1 0-1.58-.7-1.58-1.86a2.04 2.04 0 0 1 1.8-2.33c.94 0 1.58.93 1.58 2.1M151.4 184.75c0 .87-.76 1.8-1.46 1.8s-1.16-.64-1.16-1.46a1.6 1.6 0 0 1 .83-1.62q.3-.15.62-.18c.7 0 1.17.58 1.17 1.46M172.62 114.98a2.3 2.3 0 0 1-1.46 2.2 1.4 1.4 0 0 1-1.57-.57 2.2 2.2 0 0 1 .3-2.5c.46-.58.98-1.05 1.8-.76a1.5 1.5 0 0 1 .93 1.63M165.52 96.03a2 2 0 0 1-2.03-1.87 2.1 2.1 0 0 1 2.15-1.8 2 2 0 0 1 2.03 1.86 2.03 2.03 0 0 1-2.15 1.8M156.98 48.35a1.9 1.9 0 0 1-1.13 1.8q-.35.16-.73.18a1.8 1.8 0 0 1-1.75-1.92 1.9 1.9 0 0 1 1.98-2.04 1.68 1.68 0 0 1 1.63 1.98M134.88 89.69a2 2 0 0 1-1.97 2.1 2.1 2.1 0 0 1-2.21-1.93 2.1 2.1 0 0 1 2.03-2.1 1.97 1.97 0 0 1 2.15 1.93M140.7 188.4a1.6 1.6 0 0 1-.88 1.64q-.3.15-.63.17a1.45 1.45 0 0 1-1.17-1.51 1.8 1.8 0 0 1 1.57-1.8c.7 0 1.1.58 1.1 1.5M136.45 43.7a2.2 2.2 0 0 1 2.1-2.21 1.45 1.45 0 0 1 1.33 1.69 2.33 2.33 0 0 1-2.09 2.26 1.57 1.57 0 0 1-1.34-1.74M127.2 195.04a1.57 1.57 0 0 1-1.56 1.68c-.7 0-1.1-.52-1.05-1.5a1.6 1.6 0 0 1 1.52-1.75 1.4 1.4 0 0 1 .88.55 1.4 1.4 0 0 1 .22 1.02M130.23 29.69a1.4 1.4 0 0 1-.27 1.12 1.33 1.33 0 0 1-2.08 0 1.4 1.4 0 0 1-.26-1.12c0-.93.52-1.8 1.28-1.8a1.6 1.6 0 0 1 1.33 1.8M121.4 23.87a1.4 1.4 0 0 1-1.23 1.63 1.45 1.45 0 0 1-1.4-1.63 1.4 1.4 0 0 1 1.23-1.62c.81-.06 1.4.7 1.4 1.62M160.52 153.47a1.9 1.9 0 0 1-1.92 1.8 1.56 1.56 0 0 1-1.4-1.86 1.86 1.86 0 0 1 1.93-1.8 1.6 1.6 0 0 1 1.38 1.2q.08.33.01.66" clip-rule="evenodd"/></svg>