<svg xmlns="http://www.w3.org/2000/svg" width="200" height="228" fill="none"><g fill-rule="evenodd" clip-path="url(#a)" clip-rule="evenodd"><path fill="#0B4058" d="M100 212.735a27.4 27.4 0 0 1-13.43 7.326 5.8 5.8 0 0 0-2.79 1.802 15.4 15.4 0 0 1-15.582 5.117 19.25 19.25 0 0 1-11.628-6.861 2.97 2.97 0 0 0-1.453-.93 14.13 14.13 0 0 1-6.687-4.128c-2.5-2.558-5.174-4.942-7.79-7.384a5.3 5.3 0 0 1-1.396-2.151 14.48 14.48 0 0 0-6.162-7.733 55 55 0 0 1-5.291-3.488 27.9 27.9 0 0 1-10.349-14.709c-.988-3.256-2.267-6.396-3.488-9.593a60 60 0 0 1-3.14-13.14 10.76 10.76 0 0 0-1.337-4.651A67.3 67.3 0 0 1 2.5 133.2a52.3 52.3 0 0 1-1.686-17.732 92 92 0 0 1 2.733-14.884 70 70 0 0 0 1.802-8.43c.205-2.44.166-4.894-.116-7.326a55.93 55.93 0 0 1 6.744-29.767 102.4 102.4 0 0 1 17.907-24.128l6.86-7.21a42.56 42.56 0 0 1 20.233-12.5l1.977-.639a8.43 8.43 0 0 0 4.709-2.907 17.85 17.85 0 0 1 10.523-5.465c3.14-.64 6.396-.93 9.651-1.337a49 49 0 0 1 5-.349A12.73 12.73 0 0 1 99.593 5.7l.407.466.698-.814a12.27 12.27 0 0 1 9.477-4.768c1.942-.088 3.889.01 5.814.29 2.907 0 5.813.524 8.604.99a24.4 24.4 0 0 1 7.675 2.557 16.2 16.2 0 0 1 5.116 4.186 4.36 4.36 0 0 0 1.686 1.221 28.6 28.6 0 0 0 4.302 1.396 43 43 0 0 1 19.826 12.267c2.616 2.675 5.116 5.349 7.674 8.023a97 97 0 0 1 18.489 25.873 54.26 54.26 0 0 1 5.814 25.988c0 1.977 0 4.011-.291 5.814a20 20 0 0 0 .698 6.453c1.337 5.233 2.674 10.407 3.488 15.756a51.5 51.5 0 0 1-1.163 21.454c-.698 2.5-1.337 5-1.977 7.558a33.8 33.8 0 0 1-3.721 9.011 19.94 19.94 0 0 0-2.906 8.547 52.8 52.8 0 0 1-3.431 13.314 290 290 0 0 0-3.314 9.186 26.86 26.86 0 0 1-9.535 13.081 64 64 0 0 1-5.814 3.954 14.13 14.13 0 0 0-6.162 7.674 4.93 4.93 0 0 1-1.396 2.151l-9.011 8.489a9 9 0 0 1-4.244 2.616 7.15 7.15 0 0 0-3.547 2.326 18.67 18.67 0 0 1-18.198 5.814 14.6 14.6 0 0 1-8.372-5.349 3.3 3.3 0 0 0-1.977-1.279 5 5 0 0 1-1.22-.407A26.45 26.45 0 0 1 100 212.735"/><path fill="#BAD67F" d="M18.082 149.189a50.2 50.2 0 0 1-4.593-9.593l.813-.407c0-1.105-.348-1.453-1.337-1.512a79 79 0 0 1-3.314-15.755h3.14v-1.57h-2.5a50 50 0 0 1 .407-10.233c.349-1.511.698-3.081.988-4.593.29-1.511.407-1.628 1.512-1.453v-1.221c0-.116-.465-1.279 0-1.977a35.7 35.7 0 0 0 1.628-11.628v-2.21c.523 0 1.511-.348 1.104-1.569l-1.627-.64a1.4 1.4 0 0 1 0-.465 14.9 14.9 0 0 1 .697-6.57c0-.58.524-1.22-.29-1.685s0-.524 0-.756c0-1.686.639-3.372.988-5.116h2.907c.872 0 1.163-.407 1.104-1.28h-2.034c.93-2.674 1.86-5.174 2.79-7.732l-1.22-.523c.93-1.686 1.744-3.314 2.732-4.884 0 0 .581-.349.93-.407h1.512c.697 0 .697 0 1.279-1.105l-1.744-.349a8.5 8.5 0 0 1 .465-1.279A38.6 38.6 0 0 1 31.86 41.98c3.604-4.012 7.383-7.85 11.046-11.628a2.03 2.03 0 0 1 1.86-.698 4.94 4.94 0 0 0 4.71-2.267l1.686-2.21s.581-.581.523-.814c0-1.395.814-1.802 1.744-2.209l6.86-2.5c1.28-.465 2.559-.814 3.954-1.22q.276.55.64 1.046A4.36 4.36 0 0 0 70 17.154c0-.407.582-.814.872-1.22.291-.408.64-1.28-.64-1.92a3.08 3.08 0 0 1 1.803-1.511 33 33 0 0 1 3.314-1.337c.304-.087.626-.087.93 0a3.26 3.26 0 0 0 3.314-.407q.527-.315 1.105-.523l.814 1.104a2.67 2.67 0 0 0 2.907-.697 2.5 2.5 0 0 1 2.558-.873c.523 1.338-1.105.64-1.337 1.512a9.4 9.4 0 0 0 4.011 0l-.755-.407s-.524-.756-.524-.93a.99.99 0 0 1 .756-.698 3.72 3.72 0 0 1 2.558.989l-.93.465v.29h1.919l.814 2.559c-3.14.523-3.489.813-3.373 3.72.117 2.907 2.442 1.512 4.07 1.977v3.489c-.619.06-1.242.06-1.86 0a2.09 2.09 0 0 0-2.384 1.046 23.3 23.3 0 0 0-.407 4.535c.814.465 1.337 1.453 2.558 1.163.812-.086 1.63-.086 2.442 0 0 2.383-.349 4.593-.465 6.86v-2.442h-2.093v1.86h-.64c-.581 0-.581.815 0 .931.582.116.814.814.814 1.454v2.5h-1.627c-.814 0-.814.465-.64 1.22h4.477c0 1.745-.35 3.314-.524 4.942h-2.674c-.523 1.047-.523 1.047-1.628 1.454v5.814c.698 0 1.454.349 1.337 1.395h1.803v5.349h-1.686l-.466 1.163h-1.279v6.511h1.28l.348 1.28h2.326c.349 1.86.756 3.778 1.105 5.813H92.21v2.617l-1.28.29v1.221l1.454.407v4.07h-4.012v1.57h5.814v6.395h-4.011a13 13 0 0 0-.35 1.454h-1.453v7.442l1.454.348v1.396h4.36c0 2.267-.407 4.418-.64 6.686H90c0 .581 0 1.046-.349 1.57h-1.337v7.848h1.337c0 .407 0 .872.35 1.454h3.604c0 2.209.523 4.302.814 6.57H91.57v2.848l-1.453.349v1.279l1.511.291v4.302h-2.965v1.338h5.233c-.407 2.267-.814 4.302-1.163 6.453h-2.151q-.105.65-.291 1.279h-1.337v9.535l1.395.407q.177.573.29 1.163h2.733c.424 1.912.676 3.857.756 5.814H90.93c0 .465-.348.872-.523 1.279h-1.105v6.279c.582.523 1.92 0 1.512 1.395h2.21v.524a31.3 31.3 0 0 0-1.222 6.511c0 .523-.697.989-.755 1.454s.755.755.814 1.221c.063.89.063 1.784 0 2.674h-2.21v.988h2.384c0 1.454.465 2.907.756 4.477-1.395 0-1.86 1.047-2.849 1.57v2.558a11.3 11.3 0 0 0 0 1.977c0 .581 1.337.29 1.337 1.221.288.058.585.058.872 0h2.093v5a5.8 5.8 0 0 1-1.395 0c-1.047 0-1.512.755-2.267 1.104a.76.76 0 0 0 0 .582v2.907c.04.293.184.561.407.755.93.873.93 1.163 0 1.803a33 33 0 0 1-8.024 3.139c-.245.085-.51.085-.755 0a6.8 6.8 0 0 0-3.663-.697l-.523.988c0 .756 1.337 1.57 0 2.384-1.222-.64-1.222-2.151-2.442-2.907a7.56 7.56 0 0 0-3.489-.64c-.756.756-.523 1.396 0 2.035l1.163 1.57a1.34 1.34 0 0 0 1.395.581s.35.582.582.64q.756.044 1.511 0a7.86 7.86 0 0 1-5.814 2.576 7.84 7.84 0 0 1-5.814-2.576h1.686a2.7 2.7 0 0 0-.406-1.105c-1.221-1.046-2.094-2.558-3.78-3.256a4.6 4.6 0 0 0-2.15-.407 6.62 6.62 0 0 1-5.815-2.209l-4.709-5.174a4.13 4.13 0 0 0-1.744-1.396 3.66 3.66 0 0 1-1.454-1.628c-1.627-2.79-3.197-5.814-4.767-8.488-.29-.523-.581-1.046-1.28-1.046a.65.65 0 0 1-.522-.349c-.465-.872-1.28-.814-2.035-.756a3.83 3.83 0 0 1-2.093-.407c-1.28-.93-2.617-1.744-3.896-2.733a19.07 19.07 0 0 1-6.337-9.244c-1.163-3.604-2.558-7.151-3.837-10.697a42.9 42.9 0 0 1-2.384-11.861h1.512l.64 1.395h4.825c-.349-.988.407-1.279 1.046-1.628l-1.395-6.802a1.625 1.625 0 0 1-1.593-.937 1.6 1.6 0 0 1-.151-.633h-5.058c0 .931 0 1.454-.989 1.512v1.395zm51.162 65.872c.756 1.279 1.86.465 2.85.582a5.8 5.8 0 0 0-2.036-3.721 4.94 4.94 0 0 0-4.709-.872c.057.474.216.93.465 1.337.566.797 1.23 1.52 1.977 2.151.452.253.943.43 1.453.523m14.128-103.779h-6.22c0 .523 0 .93-.35 1.337l-1.395.349v7.791h1.454c0 .581 0 .988.29 1.453h6.28c0-.581 0-1.046.29-1.453l1.337-.291v-7.558h-1.395c-.116-.756-.174-1.163-.29-1.628m-19.476 1.337-1.396.349v7.733h1.454v.756a3 3 0 0 0 0 .639h6.22c0-.523 0-.988.291-1.453h1.396v-7.617l-.93-.407v-1.221h-6.803q-.082.617-.232 1.221m8.372-9.825v-7.558h-1.28v-1.338h-5.813q-.215.658-.35 1.338l-1.51.348v7.442l1.162.291q.04.668 0 1.337h6.22v-1.395zm-12.791 0 .349-7.442-1.337-.349-.35-1.279h-5.813l-.35 1.279-1.394.349c0 2.442-.291 4.942-.407 7.442h1.395v1.395h5.814a7 7 0 0 0 .349-1.395zM52.5 139.887h5.814l.29-1.337 1.338-.291-.349-7.384-1.453-.291-.35-1.337h-5.813a8 8 0 0 1 0 1.279l-1.337.349c0 2.5.349 4.942.465 7.384l1.453.291c-.29.407-.174.755-.058 1.279zm19.884-8.954-1.454-.349-.407-1.279H64.71a13 13 0 0 0-.291 1.279l-1.512.291c0 2.5.29 4.942.407 7.384h1.454l.349 1.221h5.813v-1.221h1.163zM46.279 95.061c0-.581 0-.988-.349-1.395h-5.813l-.35 1.337h-1.395l-.523 7.384 1.337.407v1.337H45l.349-1.279 1.337-.407c0-2.5 0-4.942.465-7.442zm-8.081 35.698c0 2.442.407 4.884.581 7.325l1.337.349.524 1.279h5.814l.29-1.221 1.221-.348c0-2.5 0-4.884-.465-7.326l-1.453-.349v-1.395h-5.814v1.395zm-21.396-8.779h5.233v-1.279l1.105-.407v-7.733l-1.221-.291c0-.465 0-.93-.29-1.395h-4.885l-.348 1.279-1.105.407v7.675c1.163 0 1.395.814 1.511 1.744m54.535 24.36h-5.814q-.033.582 0 1.163l-1.453.407.349 6.686 1.395.291.349 1.163h5.814l.29-1.163 1.28-.291c0-2.384 0-4.651-.465-7.035h-1.396zm-5.814-68.081-1.395.29c0 2.384-.407 4.71-.581 6.977l1.395.291q.042.668 0 1.337h5.814c0-.523.29-.988.349-1.395H72.5c0-2.326 0-4.593.407-6.919l-1.279-.349c0-.465 0-.872-.29-1.279h-5.814c.174.175.058.582-.117 1.047zm-4.941 7.267c0-2.442.407-4.709.64-7.035L60 78.143a9 9 0 0 1 0-1.221h-5.814a1.395 1.395 0 0 1-1.744 1.395c0 2.442-.581 4.767-.872 7.151l1.279.349q.177.632.29 1.28h5.815l.349-1.28zm-26.86 43.489h-5.815v1.221l-1.337.407c0 2.441.465 4.941.698 7.209.493.144.963.36 1.395.639.205.36.343.754.407 1.163h5.349v-1.337l1.628-.349-.698-7.325c-1.105.058-1.686-.466-1.628-1.628m25.29 17.442h-5.814v1.104l-1.28.465c.35 2.326.64 4.593.931 6.919.213-.053.435-.057.65-.011a1.445 1.445 0 0 1 1.153 1.406h5.813v-1.104l1.221-.349-.697-6.977h-1.454a12 12 0 0 0-.232-1.57zM27.268 94.945q-.35 3.837-.698 7.5l1.22.349q-.04.669 0 1.337h5.815q.03-.64 0-1.279l1.57-.582c0-2.441.407-4.825.581-7.383-1.337 0-1.337-.872-1.512-1.628h-5.29q-.151.628-.407 1.22zm20.93-16.86a9 9 0 0 1-.29-1.221h-5.466c0 1.162-.64 1.395-1.628 1.395-.349 2.384-.697 4.71-1.105 7.093l1.396.407v1.22h5.814c0-.464.349-.871.465-1.278h1.337l.872-7.035zm-24.36 24.185c0-2.558.523-5 .755-7.441h-1.22v-1.396h-5.35c0 1.28-.64 1.454-1.511 1.628 0 2.558-.523 4.942-.756 7.384l1.163.407v1.337h5.116c0-.407 0-.872.407-1.337zm54.127-32.732c0 .465 0 .814.291 1.163h5.814c-.29-1.221.698-1.28 1.57-1.57v-6.512c-.989 0-1.163-.697-1.454-1.337H78.78c0 1.221-.814 1.28-1.686 1.512 0 2.209 0 4.36-.407 6.511zM40 147.794c.349 2.325.756 4.535 1.105 6.802l1.337.291c0 .465.407.872.581 1.337h5.291v-1.163l1.221-.407c-.349-2.384-.64-4.651-.988-7.093-1.28.349-1.512-.465-1.744-1.337h-5.814v1.221zm33.78-78.372c0-2.326.406-4.477.58-6.86-1.22.406-1.278-.524-1.395-1.222h-5.523c0 1.105-.756 1.28-1.628 1.396l-.697 6.57c.988 0 1.57.523 1.453 1.511h5.814c-.29-1.105.349-1.395 1.395-1.395m5.813 102.093h5.814c0-1.105.64-1.279 1.454-1.396 0-2.209 0-4.302-.35-6.395h-1.278l-.465-1.163h-5.814l-.291 1.105-1.337.349c0 2.151.407 4.244.64 6.569 1.046-.697 1.278.175 1.51.931zm-49.71-93.372c-.464 2.5-.871 4.767-1.278 7.209 1.22 0 1.22.814 1.337 1.511h5.349c0-1.22.872-1.279 1.628-1.511.407-2.384.756-4.651 1.163-7.093-1.221 0-1.163-.814-1.338-1.512H31.57c-.058 1.047-.581 1.512-1.686 1.396m42.792 84.186H66.86v1.104h-1.337c0 2.21.639 4.244.93 6.279.443.074.874.211 1.279.407.253.304.432.662.523 1.047h5.407c0-1.105.64-1.221 1.28-1.57 0-2.093-.408-4.128-.582-6.221-.872.175-1.86.233-1.686-1.046m-35.407-6.279c-.35-1.047.407-1.338 1.104-1.57-.407-2.326-.814-4.593-1.163-6.803h-1.337l-.465-1.337h-5.174v1.279H29.07l1.163 6.977c1.163 0 1.511.581 1.802 1.395zM23.082 70.468h4.883c0-1.105.93-1.279 1.686-1.511l1.86-5.814-1.278-2.268h-2.5c-.814 0-1.686 0-1.977.93a.64.64 0 0 1-.523.35c-.756 0-.93.58-1.163 1.104l-1.744 5.232v.35l.814.406c0 .349 0 .64-.058 1.221m45.465-22.035h-.35c-.348 1.919-.639 3.837-.987 5.465l1.511 1.745h5c0-1.28.93-1.105 1.57-1.396l.698-5.814c-1.047 0-1.163-.523-1.338-1.22h-4.36zm-30.814 72.21v1.686h9.07v-1.628H43.72v-9.303h-2.907c0 .989 0 1.919-.29 2.965l-1.28.291v1.337l1.28.407v4.303zM22.5 163.259l2.035 5.814c0 .349.407.814.698.814a1.45 1.45 0 0 1 1.163.93q.128.194.326.317c.13.08.277.131.43.148h3.604c.465-.639.756-1.105 1.221-1.686l-1.744-6.279c-1.105 0-1.454-.523-1.686-1.395h-4.651c-.35.697-.175 1.453-1.396 1.337m36.744-40.698v-1.686h-3.14v-9.593h-3.139v2.907l-1.628.291v1.395h1.396v4.651h-2.907v1.57zm5.35-68.023c.406-2.093.813-3.954 1.104-5.814l-1.395-1.802h-4.42c0 1.162-.813 1.22-1.627 1.337l-1.453 5.465 1.395 1.86h4.767a1.336 1.336 0 0 1 1.628-1.279zm6.336 130.698h4.535c-.581-1.279.756-.931 1.163-1.454 0-1.86-.523-3.663-.814-5.814-1.046 0-1.453-.465-1.628-1.279h-5.232c0 .93-.524 1.163-1.221 1.454.407 1.918.756 3.779 1.163 5.814h.29zm7.559-86.803v4.419h-3.024v1.57H85v-1.512h-3.14v-9.07h-3.139v2.733l-1.511.29q-.045.669 0 1.338zM54.477 46.922h-4.012c-.29.349-.581 1.046-.872 1.046-.29 0-1.22.93-1.511 1.686l-1.338 4.012v.465l.873.349q.084.637.058 1.279h5.058c0-1.337.93-1.163 1.57-1.395a181 181 0 0 0 1.57-5.814c-.582-.524-.873-.989-1.396-1.628m10.988 138.314c-.581-1.047.407-1.047.989-1.396a144 144 0 0 1-1.28-5.814c-1.104 0-1.453-.523-1.744-1.279h-4.65l-1.338 1.861c.407 1.511.93 3.314 1.337 4.767l2.326 1.686zm-39.186-63.14h8.663v-1.512h-2.849v-9.476h-3.081v2.79l-1.396.407v1.338l1.221.465v4.302H26.28zm18.896-75.232h-.756c-1.395 0-3.023-.582-4.07 1.046H40s-.697.465-.872.814a172 172 0 0 0-2.21 5.407c1.164 0 .931.698.873 1.395h4.535c.523-.465.465-1.395 1.453-1.279.989.117.523-.465.64-.756.64-1.686 1.22-3.372 1.802-5zm2.093 131.686 1.395 3.953c.29.756.407 1.628 1.512 1.628 0 0 .349.407.523.523s.581.523.93.523h3.489l1.279-1.511c-.466-1.628-1.047-3.489-1.512-5l-2.267-1.686H48.43c-.407.523-.755.872-1.162 1.57m28.546-38.78h9.651a13 13 0 0 1 0-1.337h-3.023c0-3.023-.29-5.814-.407-8.953h-3.14v2.79l-1.511.349a9 9 0 0 0 0 1.279l1.57.349c0 1.454.407 2.791 0 4.244h-2.965zm0-52.674h9.303v-1.57h-2.559v-8.488h-2.907q0 1.395-.349 2.616l-1.337.29v1.28h1.221v4.128h-3.081zm3.547 63.954v3.837h-3.024v1.337h9.012v-1.395l-2.79-.233c0-2.907 0-5.814-.35-8.314h-3.197v2.675h-1.337c.174 1.569.174 1.569 1.686 1.976zm-32.617 32.616c-.523-1.512-1.104-3.14-1.744-4.651a2.33 2.33 0 0 0-.814-1.163 3.9 3.9 0 0 0-.988-.698 3.1 3.1 0 0 0-1.047-.581h-3.546l-.988 1.686a4 4 0 0 0 .348.872c.989 1.86 1.105 4.244 3.43 5.174.286.201.6.358.93.465h3.431zM32.558 46.689c-.465.465-.64 1.221-1.57 1.221s-.406 0-.523.523l-2.267 4.71v.697s0 1.047.581 1.512h1.454c1.163 0 2.5.465 3.256-1.047h.465q.478-.361.872-.814c.756-1.744 1.453-3.488 2.267-5.465-1.337 0-.465-.756-.872-1.22zm38.78-4.71a15 15 0 0 1 2.79 0c1.221 0 1.512-.871 2.384-1.104a1.046 1.046 0 0 0 .756-1.046c0-1.454.465-2.907.64-4.186l-1.164-1.454c-.83.087-1.669.087-2.5 0-1.162 0-1.511.814-2.325 1.047s-.698.581-.814 1.046a109 109 0 0 0-1.047 4.128zm-54.42 97.501h7.966v-1.396l-2.675-.29c-.348-3.024-.639-5.814-.988-9.07h-2.849v2.616c0 .814-1.22 0-1.163 1.163.059 1.163.989.64 1.454 1.221s0 2.5.407 3.953h-2.442c.233.698.233 1.105.29 1.803M67.792 34.13h-2.674c-.524 0-.989 0-1.28.582a.76.76 0 0 1-.581.407c-.64 0-.814.524-.988.989l-1.454 4.186 1.105 1.628h3.198c.523 0 .988 0 1.162-.64.175-.64 0-.349.407-.349s1.047-.697 1.163-1.337 0-1.046.407-1.57c.407-.523 1.105-2.616-.465-3.895M56.977 65.644c0 1.22-.407 2.383-.581 3.604h-2.791v1.396h8.546v-1.338h-2.674c.407-2.674.756-5.29 1.163-7.965h-2.675c0 .872-.407 1.628-.581 2.442-.175.814-1.744 0-1.395 1.454zM71.802 190.06v.814c-1.104.523-.697 1.337-.406 2.151s.465 1.454.581 2.21c.116.755 1.453 1.686 2.267 2.034a8.2 8.2 0 0 0 3.373 0 .58.58 0 0 0 .465 0c.348-.755 1.22-1.337.755-2.441a17.5 17.5 0 0 1-.64-3.024l-1.976-1.628zm-1.976 5.814-.349-1.163a7.1 7.1 0 0 0-2.5-4.302 1.45 1.45 0 0 0-.872-.465H62.5l-1.046 1.512.64 1.918c0 .64.523 1.337.813 1.977.29.639 0 .698.465.814 1.163.407 1.977 1.57 3.43 1.221a6.8 6.8 0 0 1 1.861 0zM22.558 76.573c0 .872-.465 1.744-.756 2.732-.813 0-1.627 0-1.337 1.396l.989.581-.872 3.895h-2.5v1.454h7.674q.045-.698 0-1.395h-2.442c.582-2.907 1.105-5.814 1.686-8.605zm36.745 85.756h-2.791v2.325l-.989.407c-.465 1.396.756 1.163 1.454 1.512s.349 2.209.581 3.43h-2.383c0 .93 0 1.337.988 1.279h7.616c.407 0 0-.698 0-1.105h-2.674c-.698-2.79-1.105-5.29-1.802-7.848m1.57 33.546c-1.222-1.628-.93-4.244-3.315-5.349a2.97 2.97 0 0 0-1.395-.581h-2.674c-.407.581-.698 1.046-1.047 1.453a23 23 0 0 1 1.512 3.198c.407 1.395 1.686 1.744 2.558 2.5s1.337 0 2.035 0h1.628zm-1.57-161.744h-2.907c-.378.081-.734.24-1.047.465l-.756.523s-.697.407-.814.64l-2.267 4.825c1.22 0 .756.756.93 1.28h3.837l1.628-1.163c.279-.229.515-.504.698-.814.581-1.454 1.105-2.907 1.628-4.303zm-8.256 0h-2.442a6.5 6.5 0 0 0-3.023 1.686l-2.21 4.012v2.035h1.512c1.105 0 2.325.407 2.965-.989h.465c.116 0 .756-.407.872-.756.814-1.453 1.454-2.965 2.093-4.36.35-.756.117-1.163-.174-1.686zm-2.965 35.174c.581-2.732 1.104-5.29 1.627-7.965h-2.558c-.29.814-.465 1.57-.697 2.326-1.337.349-1.337.349-1.396 1.453l.989.524-.872 3.662h-2.617v1.338h7.5c.93 0 .756-.64.698-1.338zm-16.338 1.396h7.268c.814 0 .872-.64.756-1.221l-2.384-.465 2.035-7.733h-2.442l-.93 2.21c-.465.465-1.57 0-1.454.988s.523.64.872 1.163l-.93 3.255c-.988.524-2.558-.523-2.732 1.745zm14.012 93.662c-.407.524-.93.814-.988 1.163-.059.349.988.524 1.511.931.41 1.14.645 2.335.698 3.546h-2.151c0 .93 0 1.279 1.046 1.279h7.035c-.29-2.151-2.035-.814-3.023-1.628a267 267 0 0 0-1.744-7.5h-2.733c.233.93.349 1.628.407 2.151zm-11.105-2.267.582 2.384-.989.523c.291 1.047.291 1.047 1.57 1.454 0 1.104.698 2.267 1.047 3.488h-2.21c0 1.279 0 1.279 1.105 1.337h6.686c0-2.093-1.86-.93-2.907-1.57l-2.21-7.732zM80.814 51.108v3.256h-1.86c-.989 0-1.047.465-.756 1.337h8.023v-1.28h-2.558c0-2.5.29-4.825.407-7.209h-2.558c0 .756 0 1.454-.349 1.919s-1.105.698-1.22 1.105c-.117.407.522.29.871.872M44.361 189.945v.698c0 .058-.465.93 0 1.453 1.104 1.57 1.511 3.663 3.604 4.535.524 0 .989.581 1.57.523h2.384l.756-1.395c-1.28-1.744-1.396-4.244-3.721-5.291-.407 0-.756-.581-1.28-.581zm35.814-10.523c-.524 1.453.872 1.046 1.395 1.569.523.524 0 1.919 0 2.966h-2.326c0 .639 0 1.104.64 1.104h7.093a10 10 0 0 1 0-1.163h-2.442c0-2.383-.407-4.651-.64-6.976h-2.674v2.093zM81.279 28.55l.93.755s.35.524.524.524c1.395 0 3.023.581 4.244-.93a6.8 6.8 0 0 0 .523-4.884c-.64-.989-1.57-.756-2.442-.93s-1.86.58-2.616 1.104c-.756.523-.465 1.047-.64 1.57-.174.523-.348 1.802-.523 2.79m-8.081 0c1.337 1.337 1.337 1.337 3.023 1.337 1.163.465 1.744-.64 2.558-1.047s.523-1.046.698-1.57q.105-.562.29-1.104a2.44 2.44 0 0 0-.697-2.965h-2.21a3.72 3.72 0 0 0-2.674 1.86c-.232 1.105-.64 2.268-.988 3.43zm9.07 174.418c0 1.047.407 1.977.64 2.907.232.93 1.278 1.919 1.976 1.919s3.023.465 4.012-1.105v-3.081a2.85 2.85 0 0 0-2.268-1.919 10.8 10.8 0 0 0-2.732 0c-.466 0-.814.64-1.221.988zM81.105 37.445l.988.523v2.849c-2.442 0-2.442 0-2.325 1.395h6.453c.814 0 .872-.465.64-1.104h-2.21c0-2.151.291-4.244.466-6.337h-2.559c0 .639-.349 1.279-.465 1.918-.116.64-1.046-.523-.988.523zm-6.977 165.523c0 .814.523 1.57.814 2.326a3.72 3.72 0 0 0 1.802 1.628c.873.639 1.686.348 2.558.523a1.976 1.976 0 0 0 2.094-1.163 17.4 17.4 0 0 1-.64-2.791c0-1.337-1.279-1.744-2.035-2.093a5.4 5.4 0 0 0-3.198 0c-.64.175-.988.872-1.395 1.338zM30.756 178.55c-.814.988-.756 1.22.29 1.686s.64 0 .756.465c.117.465.989 1.918 1.454 2.907l-2.093.058c.581.465.93.988 1.28.988h5.813c-.465-.988-.465-.988-2.674-.988a361 361 0 0 0-3.314-7.035h-2.035c0 .756.349 1.221.523 1.919m50.581 17.907c0 .755 0 .93.756.93h5.814c0-1.803-1.744-.582-2.383-1.57-.64-.988-.407-3.721-.64-5.814h-2.326v1.686l-.988.872 1.279 1.221c0 .582 0 1.395.29 2.268zM42.85 34.073c-1.279-.407-2.035 0-2.5.814s-.64 1.163-1.453 1.22c-.814.059-.64.698-.582.757.698 1.046-.407 1.57-.697 2.267a1.686 1.686 0 0 1-1.92 1.279c-.813 0-1.162.349-1.162 1.22h5.058c.698 0 1.163 0 1.221-1.104l-1.686-.349zm26.512-5.814c.697-1.803 1.395-3.489 2.035-5.233-1.105-.349-1.86 0-2.268.872s-.64.582-1.046.872-.64.524 0 .989a.64.64 0 0 1 0 .64c-.291.697-.582 1.395-.872 1.976-1.803 0-1.803 0-2.152 1.221h5.35s.58-.465 1.046-.872zm-7.791 0c.93-1.86 1.86-3.547 2.79-5.29-1.57 0-1.57 0-2.267.871a1.8 1.8 0 0 1-1.22.93.93.93 0 0 0-.466.814 2.384 2.384 0 0 1-2.093 2.791c-.64 0-1.163 0-1.046 1.221h5c.64 0 .872-.407.872-1.047zm15.174-14.07a4.01 4.01 0 0 0-4.244 1.337q-.72.955-1.337 1.977c-.523.756-.581 1.337 0 1.919 1.628 0 3.314 0 4.186-1.221s2.093-2.326 1.395-4.012m1.047 5.29h2.267c.8-.19 1.503-.665 1.977-1.336.29-.873.582-1.745.814-2.617a.988.988 0 0 0-.814-1.279 4 4 0 0 0-2.79.407c-1.047.64-1.222 1.686-1.745 2.558a1.686 1.686 0 0 0 .233 2.268zm-20.233 3.722c-.93-.291-1.57 0-2.093.523a2.44 2.44 0 0 1-1.453 1.163c-.407 0-.64.407-.582.93a2.79 2.79 0 0 1-2.5 2.732c-.581 0-1.104 0-1.104.989h4.651a.872.872 0 0 0 .988-.989H54.07zM74.07 207.503c-.523-.756-.523-.756-2.151-1.047-.523-1.162-1.105-2.383-1.628-3.604s-.698-1.57-2.558-1.279c0 .639.93 1.395 0 1.977v.523c1.395 0 1.453 1.453 1.977 2.383l-1.628.349c.29.349.465.698.64.698zm-12.733-.581c0 .29.407.639.582.639 1.634.289 3.307.289 4.942 0-.291-.349-.64-.639-.989-.581s-1.453-.465-1.86-1.221a104 104 0 0 0-1.686-2.965c-.582-.989-.756-1.279-2.5-.931q.319.557.523 1.163c.054.367.054.739 0 1.105 1.28.581 2.558 2.035 2.442 2.674zm-1.511.755v-.348c0-.349-.523-.407-.523-.407-1.454 0-2.093-.872-2.791-1.803s-1.221-1.628-1.744-2.5a1.74 1.74 0 0 0-.98-.922 1.74 1.74 0 0 0-1.346.05c0 .698.93 1.163.349 1.919s0 .465.349.465c1.395 0 1.802 1.453 2.558 2.325s0 .001 0 .291h-1.163c1.744 1.396 3.605.465 5.29.814zM83.082 19.596h4.825l.523-.64-1.686-.348c0-1.454.407-2.733.582-4.07-1.802-.872-1.454 1.395-2.326 1.395v2.5c-.523.407-1.395-.116-1.802 1.047z"/><path fill="#B3D07E" d="M93.314 98.317c.581 0 .988 0 .988.698v3.779h-2.558v-2.907l1.454-.35v-1.22z"/><path fill="#ABC87C" d="M93.372 98.317h-1.686v-2.849h2.5c0 .582.465 1.163-.581 1.512s0 1.046 0 1.57zM91.86 117.677h1.338c0 .989 0 1.919.407 3.024H91.86z"/><path fill="#A5C27B" d="M93.721 166.224h-1.57v-2.616a9 9 0 0 1 1.803 0 1.04 1.04 0 0 1 .581.639v.582s-.523.814-.581 1.337zM92.849 18.608h-.814c-.465-.35-.349-.989.349-1.745l-.814-1.802h1.57c-1.047 1.221 1.046 2.21-.291 3.547"/><path fill="#A5C27B" d="M93.663 166.224s.465.291.465.349a28 28 0 0 1-.523 3.081c0 .698-.756.582-1.395.349v-2.151l1.337-.465v-1.221zM92.5 194.48l1.395-.523c.291.639.582 1.395.93 2.267h-2.209c-.058-.581-.058-.93-.116-1.744"/><path fill="#ABC87C" d="M91.802 112.852h1.57c0 1.047 0 1.977-.407 3.023h-1.163z"/><path fill="#B3D07E" d="M92.675 25.991h.93v2.617h-1.803c0-.873-.407-1.686.756-1.977v-.756z"/><path fill="#A5C27B" d="M48.488 25.7c-.93 2.326-1.686 2.908-3.081 2.675.29-1.686 2.267-1.686 3.081-2.674"/><path fill="#9AB879" d="M92.965 48.259c0 2.267 0 2.325-1.395 2.21v-2.21zM66.105 18.55c.29-1.512 1.627-1.57 2.616-2.443-.582 1.977-1.163 2.5-2.617 2.442M20 154.596h-.407c-.465-1.744-.988-3.488-1.512-5.232l.524-.582zM93.663 204.131c.349 0 .872 0 .698.581a2.85 2.85 0 0 1-1.454 2.151c0-.872-.581-1.511.465-1.976s0-.524.291-.814z"/><path fill="#A5C27B" d="M93.663 204.131c-.465 0-.814 0-.93-.407a8.5 8.5 0 0 1 0-1.221h2.093z"/><path fill="#9AB879" d="M92.733 25.933h-.93v-1.86h1.802c0 .93-1.338.872-.93 1.802z"/><path fill="#B3D07E" d="M93.14 154.596h-.989v-2.5c.873.233.873.233.989 2.5"/><path fill="#9AB879" d="M91.919 66.515c.477.848.602 1.85.349 2.79-.93-.407-1.047-.988-.35-2.79M93.663 193.259a4.8 4.8 0 0 1-1.047 0 1.86 1.86 0 0 1 0-1.977c.989.291.93 1.047 1.047 1.977M91.744 62.735a3.02 3.02 0 0 1 0 2.85 3.14 3.14 0 0 1 0-2.85"/><path fill="#A5C27B" d="M74.768 215.061v-1.86h.349l1.337 1.86h-1.86z"/><path fill="#B3D07E" d="M92.442 51.921v2.442c-1.221-.872-1.163-1.977 0-2.442"/><path fill="#A5C27B" d="m63.488 213.026 1.86 1.686c-1.337.349-1.627.117-1.86-1.686"/><path fill="#B3D07E" d="M92.558 147.968v2.791a2.97 2.97 0 0 1-.407-2.791z"/><path fill="#A5C27B" d="M73.082 211.805h1.744l-.64 1.454zM81.163 212.27c-.524 0-1.047.814-1.57-.407h1.57z"/><path fill="#9AB879" d="M82.558 10.12h1.163c-.465.697-.872.639-1.163 0"/><path fill="#104459" d="M83.372 111.282c0 .465 0 .872.291 1.337h1.395v7.733l-1.337.291c0 .407 0 .872-.29 1.453h-6.28c0-.465 0-.872-.29-1.453h-1.454v-7.675l1.396-.349c0-.407 0-.814.348-1.337zm-4.593 6.454v2.965h2.965v-4.593H80.35v1.395zm3.024-3.431v-1.395h-3.024v3.023h1.163a14 14 0 0 0 0-1.511z"/><path fill="#114459" d="M63.895 112.619v-1.221h6.454v1.221l1.453.407v7.675h-1.395c0 .465 0 .93-.29 1.453h-5.931v-.639a4 4 0 0 0 0-.756h-1.454v-7.791zm3.372 3.314v-1.453h1.512v-1.279h-3.023v2.965h1.57a14 14 0 0 0 0 1.512l-1.454.348v2.907h3.023v-4.535zM72.268 102.794h-1.57a10 10 0 0 0 0 1.395h-6.454v-1.337l-1.22-.291v-7.209l1.511-.349.407-1.337h5.814v1.337h1.28c.232 2.733.232 5.175.232 7.791m-4.651-4.419v-1.511l1.453-.291v-1.337h-3.023V98.2h1.57v1.395l-1.396.29v2.733h2.907v-4.36z"/><path fill="#144659" d="M59.302 102.736H57.85l-.35 1.395h-5.813v-1.395H50.29c0-2.5 0-5 .407-7.442l1.395-.349.349-1.279h5.814l.349 1.28 1.337.348zm-2.965-4.36h-1.453q.04.58 0 1.162l-1.396.465v2.733h2.849zm-1.395-1.57h1.337v-1.338h-2.79v2.675c1.278-.058 1.278-.058 1.627-1.338z"/><path fill="#124559" d="M52.5 139.828c0-.523 0-.872-.349-1.337l-1.454-.29c0-2.442 0-4.884-.465-7.384l1.338-.349a8 8 0 0 0 0-1.279h5.814l.348 1.337 1.454.291.349 7.384-1.337.29-.291 1.337zm.988-4.418q0 1.512.35 2.791h2.906c0-1.512 0-2.849-.29-4.303h-1.28a12 12 0 0 0 0 1.279zm1.28-1.686v-1.337l1.453-.349v-1.337h-3.023v2.907z"/><path fill="#104459" d="M72.384 130.875v7.442H71.22v1.221h-6.105l-.349-1.279h-1.453c0-2.442 0-4.884-.407-7.384l1.511-.291.291-1.279h5.814l.407 1.279zm-4.826 3.023v-1.511l1.395-.291c0-1.337 0-1.337-.988-1.395H65.93v3.023h1.57v1.395l-1.454.407q.081 1.308 0 2.616h2.85v-4.36z"/><path fill="#114459" d="M46.28 95.003h1.278c0 2.5-.29 4.942-.465 7.442l-1.337.407c0 .349 0 .814-.349 1.279h-5.814v-1.337l-1.337-.407.523-7.384h1.395l.35-1.337h5.813c-.29.349-.174.756-.058 1.337m-3.49 3.023v-1.279h1.396v-1.279h-2.325v2.733h1.279v1.512l-1.454.406v2.675h2.79v-4.302z"/><path fill="#124559" d="M38.198 130.759h1.279v-1.396h5.814q.05.698 0 1.396l1.453.348c0 2.442.291 4.826.465 7.326h-1.22c0 .349 0 .756-.291 1.279h-5.814l-.523-1.279-1.338-.349c.582-2.442.35-4.884.175-7.325m4.651 2.79v-1.162l1.22-.349v-1.279h-2.906v2.79h1.395v1.454l-1.453.465.349 2.616h2.849c0-1.511 0-2.849-.35-4.244z"/><path fill="#14475A" d="M16.802 121.98c0-.931-.349-1.745-1.511-1.745v-7.674l1.104-.407.349-1.279h5.116c0 .465 0 .93.291 1.395l1.22.291v7.733l-1.104.407a8 8 0 0 0 0 1.279zm2.558-6.338q-.045-.726 0-1.453l1.221-.291v-1.221h-2.5v2.965zv1.512l-1.163.349v2.791h2.5v-4.477zM71.337 146.34l.349 1.221h1.395c0 2.384.29 4.651.465 7.035l-1.279.29c0 .349 0 .698-.29 1.163h-5.814l-.35-1.163-1.395-.29-.697-6.919 1.453-.407v-1.163zm-4.07 5.814c0 .814 0 1.57.29 2.384h2.85c0-1.279 0-2.442-.291-3.605h-1.105c0 .407 0 .756-.29 1.163zm.989-1.802c.523-.349 0-1.338.93-1.338s.697-.639.64-1.221h-2.85v2.5z"/><path fill="#124559" d="M65.407 78.259c0-.466 0-.873.407-1.28h5.814l.29 1.28 1.28.348c0 2.326 0 4.593-.407 6.919h-1.338c0 .407 0 .872-.407 1.395h-5.93a11 11 0 0 0 0-1.337l-1.395-.29c0-2.268.407-4.594.581-6.977zm2.849 3.14c0-.466 0-.931.29-1.454l1.396-.35a7 7 0 0 1 0-1.046h-2.85v2.675h1.222v1.162l-1.57.407v2.559h2.849c0-1.396 0-2.733.29-4.128z"/><path fill="#144659" d="m60.465 85.526-1.453.29-.349 1.28h-5.814q-.113-.647-.29-1.28l-1.28-.348c0-2.384.582-4.71.872-7.151a1.395 1.395 0 0 0 1.745-1.396h5.813a9 9 0 0 0 0 1.221l1.221.35c-.058 2.325-.232 4.592-.465 7.034m-2.732-4.012c-1.337-.581-1.512.291-1.628 1.047l-1.454.349v2.616h2.85c0-1.395.116-2.674.232-4.012m-2.85-.581c1.745.814 1.454-1.86 2.908-1.337v-.93h-2.558z"/><path fill="#124559" d="M33.72 129.015c0 1.162.524 1.686 1.57 1.628l.757 7.325-1.221.349v1.337h-5.64a3.4 3.4 0 0 0-.407-1.163 5.3 5.3 0 0 0-1.395-.639c0-2.268-.465-4.709-.698-7.209l1.337-.407v-1.221zm-3.487 8.953h2.732c0-1.337 0-2.5-.349-3.721a.697.697 0 0 0-1.22-.465v1.221l-1.163.349zm-.582-7.325v2.441c0 .756.814.582 1.221 0v-1.104l1.28-.465c0-.465 0-.814-.292-1.105z"/><path fill="#144659" d="M59.302 146.34c0 .465 0 .872.29 1.221h1.454l.698 6.977-1.22.348v1.105h-5.815a1.513 1.513 0 0 0-1.802-1.395c-.29-2.326-.582-4.535-.93-6.919l1.279-.465v-1.105zm-2.5 4.186v-1.163l1.337-.349v-.93a3.44 3.44 0 0 0-2.732 0v2.5h1.511v1.454l-1.279.407c0 .814 0 1.628.407 2.325h2.791c0-1.453-.349-2.674-.465-3.953z"/><path fill="#114459" d="M27.268 94.945h1.337c0-.407 0-.756.348-1.22h5.291c0 .755 0 1.801 1.512 1.627 0 2.558-.349 4.942-.523 7.384l-1.396.349q.032.64 0 1.279h-5.814v-1.338l-1.453-.755q.348-3.489.697-7.326m3.779 3.081c0-.465 0-.93.406-1.453l1.222-.116v-1.163h-2.442l-.35 2.79h1.28v1.396l-1.454.349v2.732H32.5c0-1.569 0-2.965.29-4.476zM48.198 78.084l1.162.35-.872 7.034h-1.337c0 .407-.29.814-.465 1.28h-5.814v-1.222l-1.395-.407c.407-2.383.755-4.71 1.104-7.093.989 0 1.802 0 1.628-1.395h5.465q.202.748.523 1.453m-5.466 7.384h2.733c0-1.337.349-2.674.523-4.302-.444.07-.875.208-1.279.407 0 1.163-1.046 1.046-1.686 1.337v.872c-.233.465-.233 1.047-.29 1.686m3.605-7.093c-2.849-.407-2.849-.349-2.907 2.558 1.105 0 1.105 0 1.57-1.046 1.279-.291 1.279-.291 1.337-1.512"/><path fill="#144659" d="m23.837 102.27-1.163.291c0 .465 0 .93-.407 1.337h-5.116v-1.337l-1.395-.291c0-2.441.465-4.825.756-7.383.872 0 1.802-.35 1.511-1.628h5.175v1.395h1.162c.059 2.733.059 5.175-.523 7.616m-2.732 0c0-1.453 0-2.848.348-4.709-.639.349-1.279.523-1.279.698 0 1.046-.872.93-1.453 1.22-.581.291 0 1.803 0 2.791zm-1.919-7.383v2.79c1.047 0 .988 0 1.28-.523.29-.523.348-.756.58-.756.233 0 .814-.814.756-1.511z"/><path fill="#16485A" d="m77.965 69.654-1.22-.349c0-2.15 0-4.302.406-6.511.872 0 1.802-.29 1.686-1.512h5.407c0 .64.465 1.57 1.454 1.337v6.628c-.872 0-1.86.35-1.57 1.57h-5.814c-.174-.349-.233-.698-.349-1.163m3.314-4.244v-1.105c.407-.639 1.802 0 1.337-1.453h-2.674v2.442h1.22v1.163l-1.395.349v2.325h2.791v-3.837z"/><path fill="#124559" d="m40 147.794 1.163-.349v-1.221h5.814c0 .872.465 1.686 1.744 1.337.349 2.442.64 4.71.988 7.093l-1.22.407v1.163h-5.466c0-.465-.407-.872-.581-1.337l-1.337-.291c-.35-2.267-.756-4.477-1.105-6.802m4.767 2.732v-1.104c1.163-.582 1.163-.582.814-1.744h-2.616c0 .988.29 1.802.407 2.79h1.454v1.279l-1.221.64c0 .814 0 1.512.349 2.267h2.79c0-1.453-.465-2.79-.697-4.069z"/><path fill="#16485A" d="M73.78 69.422c-1.047 0-1.687.29-1.687 1.395H66.28c0-.988-.465-1.395-1.453-1.512l.872-6.57c.872 0 1.686 0 1.628-1.395h5.523c0 .698 0 1.57 1.453 1.221-.116 2.384-.348 4.826-.523 6.86m-3.896-4.012v-1.163c0-.349 1.802 0 1.395-1.395h-2.674v2.442H70q-.094.594-.29 1.163l-1.338.348v2.326h2.558l.35-3.837zM79.477 171.515c0-.756-.465-1.628-1.686-1.163 0-2.326-.407-4.419-.64-6.57l1.338-.349.29-1.104h5.814l.465 1.162h1.28c0 2.093 0 4.186.348 6.396-.814 0-1.57 0-1.453 1.395zm3.72-5H81.92c.29 1.104-.523 1.221-1.337 1.337v2.151h2.674zm0-1.745c0-1.279-.522-1.395-2.79-.93v2.384h1.221c0-1.279.93-1.279 1.512-1.454z"/><path fill="#114459" d="M29.884 78.142c1.104 0 1.628-.348 1.686-1.395h5.174c0 .698 0 1.628 1.338 1.512-.407 2.442-.756 4.709-1.163 7.093-.756 0-1.744.29-1.628 1.511h-5.058c0-.697 0-1.57-1.338-1.511.117-2.442.524-4.71.989-7.21m3.663 2.966V79.77c.872 0 1.744 0 1.453-1.511h-2.325l-.524 2.674h1.454l-.465 1.395-1.28.291c0 .872 0 1.628-.406 2.558h2.616c0-1.395.465-2.732.698-4.186z"/><path fill="#14475A" d="M72.675 162.329c0 1.279.814 1.221 1.627 1.395 0 2.093.407 4.128.582 6.279-.64.291-1.512.465-1.28 1.512h-5.406a2.3 2.3 0 0 0-.523-.989s-.756 0-1.28-.407c-.29-2.093-.639-4.128-.93-6.337h1.396v-1.105zm-.698 7.732v-2.616c0-.814-.465-1.163-1.395-.872 0 1.046-.756 1.046-1.396 1.395s0 1.395.407 2.093zm-3.43-6.221v2.5l1.279-.349c0-1.046.93-.988 1.395-1.337-.29-1.221-.29-1.279-2.674-.814"/><path fill="#114459" d="M37.268 156.05h-5.233c-.29-.814-.64-1.454-1.802-1.454l-1.396-6.977H30v-1.279h5.233l.465 1.338h1.337c.349 2.209.756 4.476 1.163 6.802-.523.116-1.28.523-.93 1.57m-1.686-1.454c0-1.221-.35-2.442-.64-3.546-.29-1.105-.64-.465-1.163-.756v1.337l-1.163.465c0 .93.466 1.744.64 2.5zm-2.442-4.244c.407-.523 0-1.221.755-1.454.756-.232.466-.813 0-1.279h-2.034c-.059 2.268.116 2.617 1.279 2.733"/><path fill="#124559" d="m20 154.596-1.395-5.814v-1.395c.872 0 1.22-.582.988-1.512h4.825a1.63 1.63 0 0 0 1.1 1.486c.207.071.426.1.645.084l1.453 7.151c-.64.349-1.395.639-1.046 1.628h-4.826l-.64-1.628zm3.023-4.186a1.45 1.45 0 0 1-1.105 1.802c0 .872.466 1.57.64 2.326h2.5c-.407-1.396-.756-2.675-1.163-3.954-.058-.29-.465-.232-.872-.349zm-.698 0c.524-.465 0-1.512 1.047-1.512a.93.93 0 0 0 0-.639s-.349-.64-.523-.64a14 14 0 0 0-2.268 0c.872 1.163.233 2.326 1.744 2.616z"/><path fill="#16485A" d="M23.082 70.468v-1.221l-.814-.407v-.349l1.744-5.232c0-.524.407-1.105 1.163-1.105a.64.64 0 0 0 .58-.581c0-1.105 1.164-.93 1.978-.93h2.5l1.104 2.034-1.86 5.814c-.756 0-1.628.407-1.686 1.512zm4.011-5.349c0 .582 0 1.28-1.163 1.337a.99.99 0 0 0-.64.582 13 13 0 0 0-.522 1.918h2.325c.349-1.279.698-2.5 1.105-3.837h-1.163c0-.756.407-1.57 1.453-1.628s.407-.523.64-.872c-2.326-.523-2.849 0-2.79 2.268z"/><path fill="#14475A" d="m68.547 48.433 1.744-1.453h4.36c0 .697 0 1.395 1.338 1.22l-.698 5.814c-.64 0-1.744 0-1.57 1.396h-5l-1.511-1.744.988-5.466zm3.255 2.326v-1.163c0-.407 1.745 0 1.28-1.337H70.93l-.465 2.267h1.396a1.396 1.396 0 0 1-1.57 1.395c0 .756 0 1.396-.407 2.151H72.5c0-1.162.29-2.267.465-3.488z"/><path fill="#16485A" d="M37.732 120.642h2.85v-4.302l-1.28-.407v-1.337l1.221-.698c0-1.046 0-1.977.29-2.965h2.908v9.302h3.081v1.628h-8.895z"/><path fill="#144659" d="M22.5 163.259c1.22 0 1.047-.64 1.105-1.28h4.65c0 .814.582 1.512 1.687 1.338l2.035 6.162c-.465.582-.756 1.047-1.221 1.687H27.15a1.06 1.06 0 0 1-.756-.466 1.57 1.57 0 0 0-1.162-.93s-.814-.523-.814-.872zm4.767 6.453h2.268c-.407-1.105-.698-2.093-1.047-3.023-.348-.93-.465-.465-.64-.465l-.58.639-.756.989c.232.465.523 1.162.755 1.86m-.755-3.837q.421-.644.755-1.337v-.756a1.28 1.28 0 0 0-.697-.523h-1.744c.697 1.104.407 2.325 1.686 2.616M59.302 122.329h-9.244v-1.57h2.907v-4.651H51.57v-1.396l1.628-.29v-2.907h3.14v9.418h3.139zM64.593 54.305a1.337 1.337 0 0 0-1.628 1.28h-4.767l-1.396-1.861 1.454-5.465c.814 0 1.686 0 1.628-1.338h4.418l1.396 1.803c-.291 1.628-.582 3.488-1.105 5.581m-3.198-3.546c0-.698.291-1.338 1.221-1.396s.349-.581.698-1.104h-2.5l-.523 2.209zc0 1.163-.814 1.163-1.57 1.396-.755.232 0 1.395-.407 2.093h2.5l.64-3.488z"/><path fill="#14475A" d="m70.93 185.236-1.744-1.396h-.29c-.35-1.802-.757-3.663-1.164-5.814.698-.29 1.396-.523 1.221-1.453h5.233c0 .814.581 1.395 1.628 1.279.29 1.86.581 3.663.814 5.814-.407.523-1.744 0-1.163 1.453zm0-3.198q0 1.163.523 1.918h2.384c0-1.046 0-1.918-.523-2.79s0-.465-.523-.523c-.524-.059-.582 0-.582.348 0 .349-.465.756-1.279 1.047m0-1.628c1.512.523 1.047-1.57 2.21-1.395v-.64h-2.617c.407.756.407 1.337.407 2.035"/><path fill="#104459" d="M78.547 98.433H77.15a10 10 0 0 1 0-1.337l1.512-.29v-2.733h3.14v8.953h3.139v1.454h-9.419v-1.512h3.024z"/><path fill="#124559" d="M54.477 46.921c.523.64.814 1.105 1.279 1.745-.465 1.57-.989 3.488-1.512 5.465-.698 0-1.802 0-1.57 1.453h-5a7.4 7.4 0 0 0 0-1.105l-.872-.348a1.1 1.1 0 0 1 0-.465c.407-1.338.814-2.733 1.28-4.012.464-1.28.348-1.628 1.51-1.686 1.164-.058.582-.698.873-1.047zm-3.024 3.489c0-.523.35-1.047 1.163-1.105s.756-.465.523-1.105h-2.093c0 .756-.465 1.396-.697 2.21h.93c0 .465 0 1.22-.407 1.22-1.628 0-1.337 1.512-1.57 2.617h2.267l1.047-3.43z"/><path fill="#144659" d="M65.465 185.235h-4.36l-2.326-1.686c-.407-1.453-.93-3.256-1.337-4.767.523-.756.93-1.221 1.337-1.861h4.651c0 .756.64 1.512 1.744 1.279a1687 1687 0 0 0 1.28 5.814c-.582.175-1.338.175-.989 1.221m-4.012-1.279h2.442c-.581-1.279 0-2.79-1.453-3.43l-1.395 1.802c.116.349.232.989.407 1.628M60 178.142c0 .698 0 1.221.407 1.686.135.266.363.472.64.582 0 0 .407-.291.64-.465l.58-.64s.35-.523.291-.581a1.22 1.22 0 0 0-.64-.582z"/><path fill="#14475A" d="M26.28 122.096v-1.512h2.557v-4.302l-1.22-.465v-1.337l1.279-.582v-2.791h3.081v9.361h2.849v1.512c-2.849.232-5.698.174-8.547.116"/><path fill="#16485A" d="m45.174 46.863 1.047 1.628c-.582 1.628-1.163 3.314-1.802 5 0 .291-.466.756-.64.756-.175 0-.93.814-1.454 1.28h-4.534c0-.699 0-1.454-.872-1.396a172 172 0 0 1 2.209-5.407c.231-.329.528-.606.872-.814h.349c1.046-1.628 2.674-.93 4.07-1.047zM41.86 50.41c.35-.581.524-1.337 1.454-1.28.93.059.407-.464.814-.93H41.86l-.814 2.152h.814c0 .407-.349 1.163-.581 1.22-1.512 0-1.395 1.338-1.744 2.384h2.325c.407-1.162.814-2.209 1.221-3.43z"/><path fill="#124559" d="M47.268 178.549c.465-.581.755-1.046 1.162-1.628h4.186l2.268 1.686c.465 1.512 1.046 3.373 1.511 5l-1.279 1.628h-3.488c-.349 0-.64 0-.93-.523s-.349-.523-.523-.523c-1.105 0-1.221-.872-1.512-1.628zm3.837 3.779.64 1.57h2.325c-.756-1.221-.407-2.791-1.802-3.43zm.349-1.918c0-.465-.407-1.105.465-1.221s.349-.349.349-.582a.7.7 0 0 0-.407-.407h-1.919c.233 2.035.233 2.035 1.512 2.21"/><path fill="#104459" d="M75.814 139.77v-1.279h2.965c.465-1.453 0-2.791 0-4.244l-1.57-.349a9 9 0 0 1 0-1.279l1.512-.349v-2.791h3.14c0 2.966 0 5.814.406 8.954h3.024q-.036.668 0 1.337z"/><path fill="#144659" d="M75.814 87.096v-1.395h3.081v-4.128h-1.22v-1.28l1.337-.29q0-1.221.349-2.616h3.197v8.488h2.849v1.57z"/><path fill="#14475A" d="M79.36 150.933c-1.511-.407-1.511-.407-1.453-1.628h1.337v-2.674h3.314c0 2.674 0 5.407.349 8.314h2.965v1.395h-9.128v-1.337h2.965c-.174-1.512-.29-2.733-.349-4.07"/><path fill="#16485A" d="m46.744 183.666-.93 1.57h-3.43a3.5 3.5 0 0 1-.93-.465c-2.326-.931-2.443-3.314-3.43-5.175a4 4 0 0 1-.35-.872l.989-1.686h3.546c.383.125.738.322 1.047.581.364.179.698.415.988.698.343.215.623.516.814.872.581 1.163 1.163 2.791 1.686 4.477m-4.419 0h2.21c-.814-1.163-.582-2.733-1.977-3.314l-.988 1.686c.29.523.29 1.105.755 1.628m-.814-3.314c.64-.349 0-.988.524-1.279a.62.62 0 0 0 .523-.698.616.616 0 0 0-.698-.523 2.15 2.15 0 0 0-2.093.349c.872.756.407 2.209 1.744 2.209z"/><path fill="#14475A" d="M32.558 46.689h3.838c.407.465-.466 1.512.872 1.22-.814 1.978-1.512 3.722-2.326 5.466 0 .29-.523.523-.814.814s-.407 0-.465 0c-.756 1.512-2.093.988-3.256 1.047h-1.686c-.349-.466 0-1.28-.523-1.512-.523-.233 0-.465 0-.698l2.035-4.593s.349-.581.523-.581 1.337-.698 1.802-1.163m.35 3.72c-.291.35-.524.99-.873 1.047-1.395.35-1.395 1.396-1.686 2.5h1.977c.407-.988.872-1.918 1.279-2.907.407-.988 0-.697-.581-.64-.582.059 0-1.278 1.046-1.336s.814-.524.756-1.105c-1.977 0-2.326 0-2.675 2.267z"/><path fill="#16485A" d="m71.337 41.98-1.395-1.628c.349-1.221.64-2.675 1.046-4.128 0-.465 0-.872.814-1.047s1.163-1.337 2.326-1.046c.831.087 1.669.087 2.5 0 .465.523.814.988 1.337 1.511.523.524-.465 2.733-.698 4.187 0 .465 0 .872-.755 1.046-.756.175-1.163 1.395-2.384 1.105a15 15 0 0 0-2.79 0m2.79-4.593a1.047 1.047 0 0 1 .931-1.105s.349-.465.582-.872h-2.094l-.465 1.977zc0 .349 0 1.046-.407 1.104-1.337 0-1.163 1.163-1.221 2.093h2.151c0-1.104.349-2.093.465-3.081z"/><path fill="#124559" d="M16.919 139.48v-1.57h2.441c0-1.453-.29-2.733-.407-3.953-.116-1.221-1.395 0-1.453-1.221s.872-.582 1.163-1.163c.29-.582 0-1.628 0-2.616h2.674c.349 3.023.64 5.813.988 9.069l2.675.291v1.395z"/><path fill="#16485A" d="M67.79 34.13c1.57 1.28.99 2.617.582 3.896-.407 1.28-.29 1.047-.465 1.57-.174.523 0 1.279-1.105 1.337a.7.7 0 0 0-.465.349c0 .64-.64.64-1.163.64h-3.372l-1.104-1.628 1.511-4.186c0-.465.291-.93.93-.989a.76.76 0 0 0 .582-.407c.29-.581.756-.581 1.28-.581zm-2.674 3.257c0 .407-.465 1.046-.755 1.104-1.28 0-1.105 1.221-1.28 2.093h2.035c.291-.988.524-1.976.814-3.023H65c0-.523 0-1.046.989-1.046.988 0 .406-.465.813-.93h-2.15c0 .639-.466 1.162-.757 1.86zM56.977 65.643l-1.047-.465c-.407-1.221.407-1.338 1.337-1.454s.407-1.57.582-2.442h2.674c-.407 2.675-.756 5.29-1.163 7.965h2.675v1.338h-8.547v-1.396h2.791c.29-1.163.523-2.325.698-3.546"/><path fill="#14475A" d="M71.802 190.061h4.186l1.977 1.628c.123 1.025.337 2.036.64 3.023.465 1.105-.407 1.686-.756 2.5a.9.9 0 0 1-.465 0 8.2 8.2 0 0 1-3.372 0c-.814-.349-2.093-.697-2.268-2.035-.174-1.337-.407-1.453-.581-2.209s-.698-1.628.407-2.151c.174-.058.116-.465.232-.756m4.942 6.221a23 23 0 0 0-.581-2.5s-.756-.465-.872-.407a4.4 4.4 0 0 0-.989 1.337 1.337 1.337 0 0 0 1.163 1.686zm-2.325-3.081 1.279-1.803h-2.5c.407.64-.175 1.744.988 1.803z"/><path fill="#16485A" d="m69.826 195.991-1.163 1.396a6.8 6.8 0 0 0-1.86 0c-1.454.349-2.268-.814-3.43-1.221 0 0-.35-.524-.466-.814a91 91 0 0 1-.756-1.977 15.5 15.5 0 0 1-.697-1.919l1.046-1.511h3.605c.336.048.644.213.872.465a7.1 7.1 0 0 1 2.5 4.302zm-3.837-2.79c-.524.93-1.57 1.802-.466 2.848 1.105 1.047 1.221.407 2.035 0-.64-.755-.232-2.325-1.57-2.848m-2.268-2.035c.166.597.38 1.181.64 1.744a.82.82 0 0 0 .813 0q.579-.81 1.047-1.686z"/><path fill="#144659" d="M22.558 76.573h2.5c-.581 2.907-1.104 5.814-1.686 8.604h2.442v1.396h-7.79v-1.454h2.5l.871-3.895-.988-.582c-.29-1.162.523-1.278 1.337-1.395.35-.93.582-1.802.814-2.674"/><path fill="#124559" d="M59.302 162.329c.465 2.558.873 5.058 1.338 7.732h2.674v1.105c0 .349 0 0-.407 0H56.57c-.814 0-1.163-.349-.989-1.337h2.384c0-1.221-.407-2.326-.581-3.431-.175-1.104-1.919 0-1.454-1.511l.989-.407v-2.326z"/><path fill="#194B5B" d="m61.105 195.875-.989 1.453h-3.662c-.407 0-2.152-1.104-2.559-2.5a23 23 0 0 0-1.511-3.197c.349-.407.64-.872 1.046-1.454h2.965c.508.07.989.271 1.396.582 2.384.872 2.093 3.488 3.314 5.116m-2.268 0c-.523-1.047-.64-2.209-1.686-2.849l-.93 1.512c.698 1.744.698 1.744 2.616 1.511zm-1.802-4.535a2.33 2.33 0 0 0-2.384 0l1.163 1.861z"/><path fill="#14475A" d="m59.302 34.13.93 1.454c-.523 1.396-1.046 2.85-1.627 4.303-.183.31-.42.585-.698.814l-1.628 1.162h-3.837c0-.523.29-1.337-.93-1.279l2.267-4.825s.523-.407.814-.64l.698-.523c.333-.227.709-.385 1.104-.465 1.047-.058 2.035 0 2.907 0m-2.209 3.605-.29-.29h-.408c0-.582 0-.989.93-1.047a.757.757 0 0 0 .64-1.046c-1.918 0-2.093 0-2.442 1.977h.756c0 .348-.465.93-.756.988-1.337 0-1.22 1.279-1.628 2.21h2.152z"/><path fill="#144659" d="M51.104 34.073c.291.523.524.93.756 1.453-.64 1.396-1.279 2.907-2.093 4.36 0 .35-.581.524-.872.757-.29.232-.407 0-.465 0-.64 1.395-1.86.988-2.965.988h-1.512v-1.047c0-.116-.523-.58 0-.988l2.21-4.011a6.5 6.5 0 0 1 3.023-1.687h2.442zm-1.453 1.279c-1.628 0-2.268.64-1.86 2.267-.117.698-.117.698-.873.698-.755 0-1.279 1.163-1.453 2.151h1.802l1.163-2.384v-.697c0-.058 0-1.105.465-1.28.465-.174.872-.174.756-.755"/><path fill="#104459" d="M48.14 69.247h2.5c0 .64 0 1.338-.698 1.338h-7.5v-1.338h2.616l.872-3.662-.988-.524c0-1.104 0-1.104 1.395-1.453l.698-2.326h2.558c-.349 2.675-.872 5.233-1.453 7.965"/><path fill="#124559" d="M31.802 70.643c0-2.268 1.744-1.221 2.85-1.745l.93-3.255c-.35-.523-.815-.814-.873-1.163s.989-.523 1.454-.988l.814-2.268h2.442c-.64 2.616-1.338 5.058-2.035 7.733l2.383.465c0 .581 0 1.22-.697 1.22z"/><path fill="#104459" d="M45.814 164.305c0-.523 0-1.221-.349-2.034h2.733c.64 2.558 1.22 5.116 1.744 7.5.988.813 2.732-.582 3.023 1.627H45.93c-.814 0-1.163-.348-1.046-1.279h2.15a12 12 0 0 0-.697-3.546c-.523-.407-1.57 0-1.511-.93.058-.931.581-.814.988-1.338"/><path fill="#144659" d="M34.71 162.038h2.615l2.21 7.733c1.046.639 2.616-.524 2.907 1.569h-6.396c-.814 0-.814 0-1.104-1.337h2.209c-.581-1.337-1.105-2.5-1.105-3.779-1.279-.407-1.279-.407-1.57-1.453l.989-.524z"/><path fill="#14475A" d="M80.814 51.107c-.35-.581-1.396 0-1.105-1.046s.698-.64 1.221-1.105 0-1.163.349-1.977h2.558c0 2.442 0 4.768-.407 7.268h2.558v1.512h-8.023c-.29-.814 0-1.338.756-1.28h1.86c.058-1.337.117-2.441.233-3.372"/><path fill="#124559" d="M44.36 189.945h3.315c.523 0 .872.407 1.279.581 2.325 1.047 2.441 3.547 3.72 5.291 0 .465-.465.93-.755 1.395h-2.5c-.582 0-1.047-.349-1.57-.523-2.093-.872-2.5-2.965-3.605-4.535-.349-.523-.581-.988 0-1.453.582-.465.117-.465.117-.756m6.221 6.104c-.697-1.104-.93-2.267-1.976-2.965l-.756 1.454c.872 1.686.872 1.686 2.733 1.511m-2.325-4.302c-.814-.988-.989-.988-2.21-.407.35.64.408 1.512 1.338 1.861z"/><path fill="#16485A" d="m80.175 179.421 1.104-.348v-2.094h2.675c0 2.326.407 4.594.64 6.977h2.441a10 10 0 0 0 0 1.163h-6.977c-.697 0-.756-.465-.64-1.105h2.326v-2.965c0-.988-2.093-.174-1.57-1.628"/><path fill="#194B5B" d="M81.28 28.55c0-.989.348-1.861.523-2.791.174-.93 0-1.28.64-1.57.639-.29 1.394-1.337 2.615-1.105 1.221.233 1.803 0 2.442.93a6.8 6.8 0 0 1-.523 4.884c-1.221 1.512-2.79.756-4.244.93 0 0-.35-.348-.523-.523zm3.604-2.559c-.407-.988.93-.872.988-1.686s-1.162-.465-1.57 0c-.406.465-.29.989-.465 1.57h1.047s0 .814-.407.872c-1.221 0-.93 1.047-.872 1.977h1.86V26.63c0-.64-.174-.64-.581-.64M73.198 28.491c.349-1.162.756-2.325 1.163-3.488a3.72 3.72 0 0 1 2.674-1.86h2.151a2.384 2.384 0 0 1 .756 2.965q-.186.541-.29 1.104c0 .524-.291 1.338-.698 1.57-.407.233-1.396 1.512-2.559 1.047-1.86 0-1.86 0-3.197-1.338m3.546-2.5 1.512-1.628c-1.802-.465-1.919-.348-2.093 1.512h.64s-.059.814-.408.814c-.348 0-.93.988-.988 1.744 1.686.35 1.686.35 2.093-1.046 0-.465 0-.93.29-1.454zM82.558 202.736c.407-.349.756-.931 1.221-.989a10.8 10.8 0 0 1 2.733 0 2.85 2.85 0 0 1 2.267 1.919v3.081c-.988 1.57-2.558 1.163-4.012 1.105s-1.802-1.105-1.976-1.919c-.175-.814-.233-2.151-.233-3.197m3.837 1.337c0 .988-1.57.93-1.046 2.093.523 1.163 1.046.465 1.802.407s-.174-1.686-1.046-2.5zm-1.802-1.686c0 .814.29 1.511.581 1.686.291.174.582-.523.93-.698l.698-.465v-.349z"/><path fill="#16485A" d="M81.104 37.212c0-1.046.814-.698 1.163-1.046.35-.35.29-1.28.29-1.919h2.152c0 2.093 0 4.186-.465 6.337h2.21c0 .64 0 1.105-.64 1.105h-6.28c0-1.163 0-1.163 2.326-1.395v-2.85zM74.128 202.736c.407-.465.756-1.163 1.22-1.221a5.4 5.4 0 0 1 3.198 0c.756.349 1.92.756 2.035 2.093.137.946.35 1.879.64 2.79a1.974 1.974 0 0 1-2.093 1.163c-.872 0-1.686 0-2.558-.523a3.72 3.72 0 0 1-1.628-2.035c-.29-.698-.523-1.453-.814-2.267m5.29 3.837c-.465-.756-.29-1.744-1.22-2.384l-1.105 1.221c.581 1.512.581 1.512 2.326 1.163m-3.023-4.244v.349l.756 1.686 1.57-1.686zM30.756 178.549c0-.581-.407-1.162-.64-1.918h2.151a361 361 0 0 1 3.314 7.035c2.21 0 2.21 0 2.675 1.279h-5.814c-.349 0-.698-.523-1.28-.989l2.094-.29c-.465-.989-.93-1.977-1.396-2.849a1.5 1.5 0 0 0-.814-.523c-.813-.524-.813-.756-.29-1.745M81.337 196.456l1.919-.29c0-.872 0-1.628-.29-2.268l-1.28-1.221.988-.814v-1.744h2.384c0 1.977.407 3.954.64 5.814.232 1.861 2.15 0 2.383 1.57h-5.814c-.755-.116-1.162-.291-.93-1.047M42.849 34.073l-3.721 6.163 1.686.348c0 .872-.523 1.105-1.221 1.105h-5.058c0-.872.349-1.337 1.104-1.22a1.686 1.686 0 0 0 1.977-1.28c.29-.698 1.395-1.22.698-2.267 0 0 .349-.756.581-.756.233 0 1.105-.64 1.395-1.221s1.57-1.28 2.559-.872"/><path fill="#194B5B" d="m69.36 28.492 2.035.465c-.465.407-.755.814-1.046.872h-5.233c.349-1.105.349-1.105 2.151-1.221l.756-1.919a.64.64 0 0 0 0-.64c-.407-.523 0-.755 0-.988s.93-.523 1.047-.872 1.163-1.22 2.267-.872c-.407 1.686-1.279 3.372-1.977 5.175M61.57 28.491l1.57.291c0 .64 0 1.047-.872 1.047h-5c0-1.047.407-1.163 1.046-1.221a2.384 2.384 0 0 0 2.093-2.791.93.93 0 0 1 .465-.814 1.92 1.92 0 0 0 1.221-.988c.698-.989.698-.989 2.268-.814-.93 1.744-1.86 3.488-2.791 5.29"/><path fill="#16485A" d="M76.744 14.19c.756 1.685-.581 2.906-1.279 4.01-.698 1.105-2.558 1.454-4.186 1.222-.698-.582-.64-1.163 0-1.919q.618-1.022 1.337-1.977a4.01 4.01 0 0 1 4.128-1.337m-4.535 4.069c1.454.349 2.326 0 2.384-1.454a1.685 1.685 0 0 1 1.046-1.744c-1.57 0-1.744 0-1.918 1.57zM77.732 19.48a1.686 1.686 0 0 1-.29-2.268c.523-.872.697-1.918 1.744-2.558a4 4 0 0 1 2.79-.407.988.988 0 0 1 .814 1.28c0 .871-.523 1.743-.814 2.615A3.37 3.37 0 0 1 80 19.48c-.756.058-1.512 0-2.268 0m3.663-4.419c-1.57 0-1.86 0-1.453 1.744a1.57 1.57 0 0 0-1.105 1.977c.465 0 1.163 0 1.28-.465.306-.886.52-1.802.639-2.733zM57.558 23.2l-3.488 5.233h1.395a.872.872 0 0 1-.988.989h-4.651c0-.814.523-.93 1.104-.989a2.79 2.79 0 0 0 2.559-2.616c0-.523 0-.872.58-.93a2.44 2.44 0 0 0 1.454-1.163c.465-.756 1.105-.814 2.035-.523"/><path fill="#194B5B" d="M74.07 207.503h-5.175s-.348-.349-.581-.698l1.57-.349c-.523-.93-.582-2.151-1.977-2.383 0 0-.29-.524 0-.524.988-.581 0-1.337 0-1.976 1.86 0 1.802 0 2.558 1.279s1.105 2.442 1.628 3.604c1.454.466 1.454.466 1.977 1.047M61.337 206.921H62.5c0-.639-1.104-2.093-2.383-2.674a3.8 3.8 0 0 0 0-1.105 6.6 6.6 0 0 0-.524-1.162c1.744-.349 1.744-.349 2.5.93s1.163 1.977 1.686 2.965c.524.988.872 1.337 1.86 1.221.99-.116.698 0 .99.581a14.2 14.2 0 0 1-4.943 0s-.116-.756-.349-.756M69.244 215.061a4.7 4.7 0 0 1-1.454-.523 11.6 11.6 0 0 1-1.976-2.151 3.3 3.3 0 0 1-.465-1.337 4.93 4.93 0 0 1 4.709.872 5.8 5.8 0 0 1 2.035 3.721c-.989 0-2.093.697-2.849-.582h1.686l-1.628-1.86h-.349c.058.639.175 1.279.291 1.86m-2.442-3.372 1.337 1.454c0-.582 0-.872.35-1.338zM59.826 207.561c-1.687-.349-3.547.582-5.35-.814h1.163v-.29c0-.291-1.162-2.093-2.558-2.326 0 0-.349-.407-.349-.465s-.407-1.221-.348-1.919a1.75 1.75 0 0 1 1.345-.05 1.73 1.73 0 0 1 .98.922c.523.873 1.163 1.686 1.744 2.5.582.814 1.338 2.035 2.791 1.803 0 0 .465.349.698.581z"/><path fill="#14475A" d="M83.198 19.48c.407-1.163 1.279-.64 1.918-1.221v-2.5c.873 0 .524-2.267 2.326-1.337 0 1.279-.349 2.558-.581 4.011l1.686.35c0 .348-.407.639-.524.639z"/><path fill="#093F58" d="M108.372 44.887c-.407-4.419-1.046-8.837-1.221-13.256-.087-3.705.03-7.412.349-11.105 0-2.15.524-4.244.814-6.395q.152-.742.407-1.453a1.92 1.92 0 0 1 1.919-1.396 30 30 0 0 1 3.256 0c2.732 0 5.523.524 8.255.989 1.43.251 2.832.64 4.186 1.162a5.35 5.35 0 0 1 2.849 2.326 7.73 7.73 0 0 0 2.965 2.674 37.2 37.2 0 0 0 8.547 3.14 28.4 28.4 0 0 1 11.628 6.57c3.721 3.43 7.209 7.093 10.639 10.755 3.431 3.663 5.117 5.814 7.442 8.605a74.7 74.7 0 0 1 9.419 15.233v.756l-1.105.29c-7.209 1.57-14.36 3.489-21.395 5.814-.79.213-1.473.71-1.919 1.395l-3.721 5.35c-1.976 3.08-3.837 6.162-5.814 9.244-.29.465-.755 1.046-1.221 1.104-2.558.465-5.174.756-7.616 1.105-1.977-2.849-4.011-3.721-6.395-2.79a4.94 4.94 0 0 0-3.023 4.767 4.705 4.705 0 0 0 3.72 4.186c2.791.465 4.361-.582 5.814-4.07 2.093-.29 4.186-.465 6.279-.814 3.721-.756 2.617 0 4.593-3.14 2.675-4.128 5.349-8.197 7.966-12.325a5.8 5.8 0 0 1 3.372-2.558c4.302-1.163 8.488-2.558 12.79-3.78 2.791-.755 5.814-1.337 8.372-1.976a43.65 43.65 0 0 1 3.547 19.535 44.9 44.9 0 0 0 1.57 16.918 75.6 75.6 0 0 1 2.79 13.314 37.4 37.4 0 0 1-.639 12.965c-.93 3.779-1.861 7.559-2.965 11.279a26.2 26.2 0 0 1-2.209 5.059 33.7 33.7 0 0 0-3.198 7.267l-1.977-2.849a1.45 1.45 0 0 0-1.57-.581l-11.918 2.384a2.04 2.04 0 0 1-2.268-.582 3.549 3.549 0 0 0-5.29 0 4.19 4.19 0 0 0 .348 5.814 3.72 3.72 0 0 0 5.814-1.86c.291-.698.524-1.221 1.338-1.396l11.337-2.151a1.5 1.5 0 0 1 1.337.291 8.43 8.43 0 0 1 2.384 4.186c0 1.512-.524 3.081-.814 4.593a65.4 65.4 0 0 1-3.547 10.988c-.639 1.744-1.337 3.431-1.802 5.233a18.32 18.32 0 0 1-8.081 10.639c-1.861 1.221-3.838 2.442-5.814 3.779a19.9 19.9 0 0 0-6.57 7.966 18.9 18.9 0 0 1-4.477 5.814c-.814.813-1.744 1.511-2.5 2.325a11.63 11.63 0 0 1-5.814 3.721c-.523 0-1.105.407-1.686.581a2.79 2.79 0 0 0-2.325 2.21 2.7 2.7 0 0 1-.814 1.337 9.19 9.19 0 0 1-6.396 2.849 4.3 4.3 0 0 1-2.217-.457 4.3 4.3 0 0 1-1.678-1.52 11.28 11.28 0 0 0-7.733-4.884 27 27 0 0 1-4.709-1.744 14.3 14.3 0 0 1-3.43-2.209 3.89 3.89 0 0 1-1.337-3.314v-.349a41 41 0 0 1 1.744-12.442c.523-3.139.814-6.337 1.104-9.535a16.4 16.4 0 0 0 0-2.907l13.198-1.104a1.505 1.505 0 0 1 1.57.872l2.965 5.407a2.26 2.26 0 0 1 0 1.221 102 102 0 0 1-1.686 5.814 1.225 1.225 0 0 1-1.105.988 3.66 3.66 0 0 0-2.849 3.198 3.608 3.608 0 0 0 2.268 4.011 3.253 3.253 0 0 0 4.011-1.86 3.95 3.95 0 0 0-.813-4.884c.639-2.267 1.22-4.419 1.918-6.628a3.54 3.54 0 0 0 0-2.791 223 223 0 0 0-2.674-5.232c-1.686-2.849-.931-2.5-4.244-2.442-4.477 0-8.896.349-13.314.581-.582-2.383-1.047-4.767-1.628-7.093a17.44 17.44 0 0 1 0-8.488h4.418l17.849-.756a2.68 2.68 0 0 1 2.384 1.047c2.5 3.139 5.058 6.279 7.674 9.302a5.47 5.47 0 0 1 1.337 5.349c-.872 3.314-1.453 6.744-2.093 10.058h-.581a3.95 3.95 0 0 0-2.965 4.593 3.255 3.255 0 0 0 4.477 2.558 3.9 3.9 0 0 0 2.183-4.251 3.9 3.9 0 0 0-.672-1.563 2.845 2.845 0 0 1-.465-2.79c.814-3.256 1.454-6.57 2.384-9.826a4.41 4.41 0 0 0-.988-4.36l-9.768-11.977a1.57 1.57 0 0 0-1.395-.64h-4.884l-18.547.524c0-1.512.001-3.024.407-4.477v-6.628a15 15 0 0 1 1.57 0h6.337l17.442-.582a2.09 2.09 0 0 1 1.919.931c2.849 3.837 5.814 7.558 8.663 11.628 2.849 4.069 4.593 6.569 6.86 9.883a3.83 3.83 0 0 1 .814 3.082l-1.918 9.36a1.81 1.81 0 0 1-1.396 1.57 3.54 3.54 0 0 0-2.674 3.314 3.6 3.6 0 0 0 2.209 3.779 3.313 3.313 0 0 0 4.128-1.977 3.78 3.78 0 0 0 0-3.895 2.45 2.45 0 0 1-.349-2.093c.814-3.43 1.57-6.861 2.384-10.291a3.1 3.1 0 0 0-.349-2.5c-.698-1.046-1.279-2.151-1.977-3.198-4.709-7.093-9.942-13.837-15.174-20.523a2.2 2.2 0 0 0-2.093-.988h-6.337l-17.966.174a9.7 9.7 0 0 0-1.802 0 30.8 30.8 0 0 1-1.57-11.628l6.977-.407 7.442-.348c4.826-.291 9.651-.582 14.477-.989a2.62 2.62 0 0 1 2.558 1.221c2.267 3.14 4.651 6.163 6.918 9.302a1.75 1.75 0 0 0 1.745.873 13 13 0 0 1 1.511 0c5-.407 10.058-.756 15.058-1.221a68 68 0 0 0 11.221-2.152l2.093-5.814h.872a4.18 4.18 0 0 0 3.489-3.953 3.54 3.54 0 0 0-.915-3.038 3.55 3.55 0 0 0-2.98-1.09 4.18 4.18 0 0 0-3.119 2.293 4.183 4.183 0 0 0 .095 3.87 3.07 3.07 0 0 1 0 3.139 7.7 7.7 0 0 0-.697 1.803c-.291 1.279-1.163 1.686-2.326 1.976a136 136 0 0 1-23.256 2.326 2.21 2.21 0 0 1-2.035-1.046c-2.267-3.082-4.651-6.105-6.918-9.245a2.56 2.56 0 0 0-2.442-1.162l-7.849.348h-3.895l-18.082.524 1.396-10.931v-1.744a13 13 0 0 1 2.093 0l18.488-.93c3.605 0 7.151-.407 10.698-.756a2.68 2.68 0 0 1 2.674.989l6.861 7.616a2.62 2.62 0 0 0 2.267.988c4.36 0 8.721-.639 13.081-1.163a5.1 5.1 0 0 0 2.681-.808 5.1 5.1 0 0 0 1.854-2.099 1.279 1.279 0 0 1 1.396-.813 4.25 4.25 0 0 0 4.128-4.07 3.62 3.62 0 0 0-.833-2.873 3.598 3.598 0 0 0-2.714-1.255 4.3 4.3 0 0 0-3.361 2.166 4.3 4.3 0 0 0-.556 1.983 4.3 4.3 0 0 0 .429 2.014 1.805 1.805 0 0 1-.407 2.383c-.349.291-.524.698-.872.989a2.5 2.5 0 0 1-1.221.639l-12.791.989a2.16 2.16 0 0 1-1.977-.814c-2.384-2.675-4.825-5.291-7.209-8.024a2.51 2.51 0 0 0-2.209-.988c-2.966 0-5.814.523-8.954.64l-13.837.465H108.14c0-2.151 0-4.303-.465-6.454l18.895-.639 8.314-.291c1.686 0 3.314-.407 5-.581a3.012 3.012 0 0 0 2.267-1.338c1.279-1.976 2.617-3.895 3.896-5.814a1.8 1.8 0 0 1 1.57-.988l12.732-1.57a1.45 1.45 0 0 1 1.512.582 4.24 4.24 0 0 0 3.197 1.802 4.36 4.36 0 0 0 4.535-2.965 4.068 4.068 0 0 0-1.86-4.884 4.54 4.54 0 0 0-5.238.59c-.467.42-.841.932-1.099 1.503q-.326.853-.524 1.744h-1.104l-13.024.989a2.39 2.39 0 0 0-2.093 1.163c-1.162 1.976-2.5 3.837-3.779 5.813a2.55 2.55 0 0 1-2.267 1.338l-15.349.756h-15.93c0-3.954.349-7.907.349-11.628 0-1.977-.349-3.954-.465-5.814s0-3.256 0-4.884v-1.919c4.593-.29 9.127-.523 13.662-.872 2.907 0 5.814-.64 8.721-.988a2.74 2.74 0 0 0 2.268-1.512c2.267-4.011 4.593-7.907 6.802-11.918l6.919-12.733c0-.407.639-.988 1.046-1.105 1.512-.348 3.082-.581 4.535-.814 1.86 2.326 3.43 2.966 5.349 2.152a4.415 4.415 0 0 0 2.442-4.303 3.9 3.9 0 0 0-3.547-3.488 4.77 4.77 0 0 0-2.325.581 4 4 0 0 0-2.035 3.198l-5.233.64a1.86 1.86 0 0 0-1.628 1.104c-1.453 2.849-2.907 5.814-4.476 8.489-3.082 5.813-6.28 11.046-9.361 16.628a2.15 2.15 0 0 1-1.802 1.162h-3.256l-17.442.407c.407-2.907.872-5.814 1.221-8.72v-3.373c5.569.156 11.142-.038 16.686-.581a1.92 1.92 0 0 0 1.686-.989c2.209-3.953 4.477-7.79 6.686-11.627.756-1.28 1.395-2.559 2.035-3.896h.872a4.246 4.246 0 0 0 4.244-4.883 3.43 3.43 0 0 0-3.368-3.176 3.43 3.43 0 0 0-1.632.385 4.42 4.42 0 0 0-1.395 5.29 2.09 2.09 0 0 1 0 2.268l-7.849 13.72a1.51 1.51 0 0 1-1.453.815H110v-7.151h8.605a1.86 1.86 0 0 0 1.86-.989q4.304-6.918 8.721-13.779a7.2 7.2 0 0 0 1.279-4.883 15 15 0 0 1 0-2.268l.349.058a3.95 3.95 0 0 0 1.538-4.373 4 4 0 0 0-.782-1.44 3.254 3.254 0 0 0-5.465 0c-.328.452-.558.97-.675 1.516a4.02 4.02 0 0 0 .668 3.18c.327.454.745.834 1.228 1.117.349 0 .93.523.93.756a8.95 8.95 0 0 1-.581 4.942c-2.907 4.477-5.814 8.953-8.605 13.43a2.21 2.21 0 0 1-2.151 1.163c-2.558 0-5.116 0-7.616-.29l-.698-5.233h4.244a1.745 1.745 0 0 0 1.802-.814c1.919-3.489 3.896-6.919 5.814-10.35a4.7 4.7 0 0 0 .465-2.209v-5.174a1.924 1.924 0 0 1 .873-2.035 3.375 3.375 0 0 0 1.453-3.198 3.78 3.78 0 0 0-2.674-3.837 3.2 3.2 0 0 0-3.663 1.744 4.13 4.13 0 0 0 1.046 5l1.163.756v5.35a5.8 5.8 0 0 1-.93 3.43c-1.628 2.674-3.314 5.348-4.884 8.023a1.57 1.57 0 0 1-1.628.814z"/><path fill="#00A9E8" d="M109.477 174.887c4.418 0 8.837-.465 13.314-.582 3.255 0 2.558-.407 4.244 2.442.93 1.744 1.802 3.488 2.674 5.233a3.67 3.67 0 0 1 0 2.849c-.697 2.151-1.279 4.302-1.918 6.569a3.96 3.96 0 0 1 .814 4.884 3.26 3.26 0 0 1-4.012 1.86 3.6 3.6 0 0 1-2.268-4.011 3.67 3.67 0 0 1 2.849-3.198 1.275 1.275 0 0 0 1.105-.988c.581-1.977 1.163-3.954 1.628-5.814a1.8 1.8 0 0 0 0-1.221l-2.965-5.407a1.5 1.5 0 0 0-.642-.694 1.5 1.5 0 0 0-.928-.178l-13.663.814c-.465 0-1.046 0-.988-.698s-.349-1.686.756-1.86m17.732 19.593a1.327 1.327 0 0 0-.606-1.384 1.3 1.3 0 0 0-.498-.186 1.58 1.58 0 0 0-1.138.541 1.57 1.57 0 0 0-.374 1.203c0 .988.349 1.512 1.046 1.512a1.58 1.58 0 0 0 1.154-.5 1.564 1.564 0 0 0 .416-1.186M171.163 110.701a4.246 4.246 0 0 0-3.489 6.104 1.805 1.805 0 0 1-.407 2.384c-.29.291-.523.698-.872.989a2.5 2.5 0 0 1-1.221.639l-12.79.988a2.14 2.14 0 0 1-1.977-.813c-2.384-2.675-4.826-5.291-7.21-8.024a2.5 2.5 0 0 0-2.209-.988c-2.965 0-5.814.523-8.953.639-4.593 0-9.186 0-13.779.466h-10.117c-1.162 0-.755 1.162-.697 1.802.058.639.465.93 1.104.872a13 13 0 0 1 2.093 0l18.431-.814c3.604 0 7.151-.407 10.755-.756a2.615 2.615 0 0 1 2.617.989c2.267 2.616 4.593 5.058 6.86 7.616a2.62 2.62 0 0 0 2.268.988c4.378-.154 8.744-.542 13.081-1.163a5.112 5.112 0 0 0 4.535-2.907 1.28 1.28 0 0 1 1.395-.814 4.24 4.24 0 0 0 4.186-4.069 3.55 3.55 0 0 0-2.08-3.834 3.55 3.55 0 0 0-1.524-.294m0 5.814a1.34 1.34 0 0 1-1.57-.582 2.15 2.15 0 0 1 .291-2.5c.465-.581.988-1.046 1.802-.755a1.51 1.51 0 0 1 .93 1.627 2.21 2.21 0 0 1-1.453 2.326z"/><path fill="#00A9E8" d="M191.57 112.91c-.814-4.942-1.977-9.767-3.256-14.593a31.9 31.9 0 0 1-1.105-10.988 49.6 49.6 0 0 0-2.267-20.814 71.8 71.8 0 0 0-10-18.605 173 173 0 0 0-20.175-22.093 29.94 29.94 0 0 0-13.372-7.5c-2.384-.64-4.709-1.57-7.035-2.442a5.82 5.82 0 0 1-2.849-2.383 9.1 9.1 0 0 0-2.441-2.384 14.8 14.8 0 0 0-5.814-1.86c-3.489-.466-6.977-.93-10.466-1.222-4.941-.407-7.093 1.745-7.616 5.814-.523 4.07-.988 7.733-1.163 11.628-.174 3.896 0 7.152.291 10.698s.523 7.733 1.047 11.628a96.7 96.7 0 0 1 .988 15.872 61 61 0 0 1-1.57 13.372 36.5 36.5 0 0 0-.814 10.349c0 2.326.349 4.651.349 6.977 0 2.325-.349 5.232 0 7.79.076 3.48.329 6.953.756 10.407a32.8 32.8 0 0 1 0 9.826 47.4 47.4 0 0 0-.814 9.07v4.535a26 26 0 0 0 .465 3.72 32.1 32.1 0 0 1 1.221 12.21c-.64 3.953-1.047 7.965-1.512 11.918a5.4 5.4 0 0 0 0 1.919l1.396 9.07q.288 1.353.407 2.732a47.6 47.6 0 0 1-1.977 15.931 14.6 14.6 0 0 0-.64 5.232v4.419a6.5 6.5 0 0 0 1.977 4.825c.932.976 2.011 1.8 3.198 2.442a76 76 0 0 0 7.151 2.733 8.72 8.72 0 0 1 5.233 3.256 8.32 8.32 0 0 0 9.767 3.197 10.05 10.05 0 0 0 6.628-4.418 5.18 5.18 0 0 1 3.488-2.559c.465 0 .931-.407 1.396-.523a7.8 7.8 0 0 0 4.069-2.267l6.279-5.814a8.4 8.4 0 0 0 2.094-2.849 20.8 20.8 0 0 1 8.197-9.419 46.5 46.5 0 0 0 5.814-4.069 18.5 18.5 0 0 0 6.454-8.954c1.104-3.081 2.151-6.163 3.314-9.186a49.5 49.5 0 0 0 3.314-12.558 25.06 25.06 0 0 1 3.72-10.814 32.2 32.2 0 0 0 2.617-6.163c.988-3.081 1.744-6.221 2.5-9.418a42.6 42.6 0 0 0 .756-17.675m-3.78 14.942c-.93 3.779-1.86 7.558-2.965 11.279a26 26 0 0 1-2.209 5.058 33.7 33.7 0 0 0-3.198 7.268c-.697-.814-1.337-1.686-1.976-2.5a1.4 1.4 0 0 0-.677-.586 1.4 1.4 0 0 0-.893-.054c-4.012.756-8.082 1.454-12.093 2.326a2.095 2.095 0 0 1-2.268-.64 3.53 3.53 0 0 0-2.74-1.075 3.55 3.55 0 0 0-2.608 1.366 4.1 4.1 0 0 0-.827 1.384 4.062 4.062 0 0 0 .19 3.154c.24.487.575.921.985 1.276a3.72 3.72 0 0 0 5.814-1.861c.291-.697.524-1.221 1.338-1.337L175 150.701a1.75 1.75 0 0 1 1.337.291 9.3 9.3 0 0 1 2.442 4.186l.465.639-.523-.639c0 1.511-.524 3.081-.814 4.593a65.4 65.4 0 0 1-3.547 10.988c-.639 1.744-1.337 3.43-1.802 5.233a18.32 18.32 0 0 1-8.081 10.639c-1.861 1.279-3.838 2.442-5.814 3.779a19.9 19.9 0 0 0-6.338 7.675 19.9 19.9 0 0 1-4.476 5.814 31 31 0 0 0-2.5 2.325 11.63 11.63 0 0 1-5.814 3.663l-1.686.581a2.8 2.8 0 0 0-2.326 2.21 2.67 2.67 0 0 1-.814 1.337 8.95 8.95 0 0 1-6.395 2.849 4.3 4.3 0 0 1-3.896-1.977 11.27 11.27 0 0 0-7.732-4.884 23.3 23.3 0 0 1-4.709-1.744 16.1 16.1 0 0 1-3.431-2.151 4.08 4.08 0 0 1-1.337-3.372v-.349a41 41 0 0 1 1.744-12.442c.524-3.139.814-6.337 1.105-9.535.085-.967.085-1.94 0-2.907-.465 0-1.047 0-.988-.697.058-.698-.349-1.512.697-1.687-.523-2.383-.988-4.767-1.628-7.093a18.2 18.2 0 0 1 0-8.488c-.988-.523-.639-1.453-.523-2.209 0 .756-.465 1.686.523 2.209h4.419l17.849-.756a2.68 2.68 0 0 1 2.383 1.047c2.5 3.139 5.059 6.279 7.617 9.302a5.36 5.36 0 0 1 1.395 5.349c-.872 3.314-1.453 6.744-2.093 10.058h-.581a3.954 3.954 0 0 0-2.965 4.593c.057.499.23.977.507 1.396a3.19 3.19 0 0 0 2.509 1.434 3.2 3.2 0 0 0 1.46-.272 3.896 3.896 0 0 0 1.512-5.814 2.73 2.73 0 0 1-.465-2.79c.814-3.256 1.453-6.57 2.384-9.826a4.31 4.31 0 0 0-.989-4.302l-9.767-12.035a1.68 1.68 0 0 0-1.396-.64h-4.883l-18.547.524c0-1.512 0-2.966.349-4.477s0-4.419 0-6.628c-1.395 0-1.628-.291-1.57-1.454.058-1.162 0-.93.64-.93-.523 0-.582 0-.64.93-.058.931 0 1.338 1.57 1.454a15 15 0 0 1 1.57 0h6.337l17.442-.582a2.21 2.21 0 0 1 1.918.931c2.849 3.837 5.814 7.558 8.663 11.628a1029 1029 0 0 1 6.861 9.883 3.68 3.68 0 0 1 .814 3.024l-1.919 9.36a1.8 1.8 0 0 1-1.395 1.57 3.54 3.54 0 0 0-1.89 1.211 3.54 3.54 0 0 0-.785 2.103 3.6 3.6 0 0 0 2.21 3.779 3.313 3.313 0 0 0 4.127-1.977 3.78 3.78 0 0 0 0-3.895 2.45 2.45 0 0 1-.348-2.093c.814-3.431 1.569-6.861 2.383-10.291a3.08 3.08 0 0 0-.348-2.5c-.698-1.046-1.28-2.151-1.977-3.198-4.71-7.093-9.942-13.837-15.175-20.523a2.21 2.21 0 0 0-2.093-.988h-6.337l-18.372-.175h-1.802a30.7 30.7 0 0 1-1.57-11.628l6.977-.407 7.5-.348 14.418-.931a2.44 2.44 0 0 1 2.558 1.221l6.919 9.244a1.92 1.92 0 0 0 1.802.931h1.454c5-.407 10.058-.756 15.058-1.221a68 68 0 0 0 11.221-2.151l2.093-5.814h.872a4.13 4.13 0 0 0 3.488-3.954 3.54 3.54 0 0 0-.915-3.038 3.54 3.54 0 0 0-2.98-1.09 4.19 4.19 0 0 0-3.545 4.24c.017.674.196 1.333.522 1.923a3.08 3.08 0 0 1 0 3.14 8 8 0 0 0-.698 1.86 2.563 2.563 0 0 1-2.325 1.919 130.3 130.3 0 0 1-23.256 2.325 2.147 2.147 0 0 1-2.035-.988c-2.268-3.14-4.651-6.163-6.919-9.302a2.56 2.56 0 0 0-2.442-1.163l-7.848.29h-3.896l-18.081.466h-1.57v2.848-2.732h1.57l1.395-10.93v-1.745c0-.581-1.105 0-1.163-.872s-.407-1.569.756-1.802c0-2.151 0-4.302-.465-6.453l18.895-.64c2.791 0 5.814 0 8.431-.407 1.686 0 3.372-.407 5-.581a2.789 2.789 0 0 0 2.267-1.338c1.279-1.976 2.616-3.895 3.895-5.814a1.81 1.81 0 0 1 1.57-.988q6.337-.697 12.733-1.57a1.51 1.51 0 0 1 1.57.64 4.24 4.24 0 0 0 3.139 1.744 4.42 4.42 0 0 0 4.593-2.965 4.13 4.13 0 0 0-1.919-4.884 4.533 4.533 0 0 0-6.337 2.093 12 12 0 0 0-.523 1.744h-1.105l-12.965.989a2.32 2.32 0 0 0-2.093 1.163c-1.221 1.976-2.558 3.837-3.779 5.814a2.74 2.74 0 0 1-2.267 1.279l-15.465.814h-15.698c-.465 0-.814 0-.814.697 0-.523.349-.697.814-.697 0-3.954.349-7.907.349-11.628 0-1.977-.349-3.954-.407-5.814s0-3.256 0-4.884v-1.919l13.604-.872c2.907 0 5.814-.64 8.721-.93a2.9 2.9 0 0 0 2.326-1.57c2.209-4.011 4.535-7.907 6.744-11.918 2.209-4.012 4.593-8.489 6.919-12.733 0-.407.639-.988 1.046-1.105 1.512-.348 3.082-.581 4.535-.814 1.861 2.384 3.489 2.966 5.349 2.152a4.31 4.31 0 0 0 2.442-4.244 3.9 3.9 0 0 0-3.489-3.547 4.6 4.6 0 0 0-2.325.581 4.3 4.3 0 0 0-2.093 3.198l-5.233.698a1.69 1.69 0 0 0-1.628 1.046c-1.453 2.849-2.907 5.814-4.418 8.547l-9.477 16.22a1.98 1.98 0 0 1-1.802 1.163h-3.256l-17.442.466c.407-2.966.814-5.814 1.163-8.78a33 33 0 0 0 0-3.372c5.588.155 11.18-.039 16.744-.581a1.86 1.86 0 0 0 1.686-.988c2.209-3.896 4.477-7.791 6.686-11.628.698-1.221 1.337-2.558 2.035-3.896h.814a4.246 4.246 0 0 0 4.244-4.825 3.42 3.42 0 0 0-1.726-2.782 3.43 3.43 0 0 0-3.274-.067 4.36 4.36 0 0 0-1.512 5.64 2.38 2.38 0 0 1 0 2.267c-2.616 4.593-5.29 9.128-7.848 13.72a1.57 1.57 0 0 1-1.454.815h-15.639v-7.151h8.604a1.8 1.8 0 0 0 1.861-.989l8.721-13.779a6.92 6.92 0 0 0 1.279-4.883v-2.268l.407.058a3.95 3.95 0 0 0 1.537-4.373 4 4 0 0 0-.781-1.44 3.2 3.2 0 0 0-5.407 0 4.01 4.01 0 0 0 1.162 5.464c.349 0 .931.524.931.814a8.84 8.84 0 0 1-.582 4.884c-2.907 4.477-5.814 8.954-8.604 13.43a2.212 2.212 0 0 1-2.152 1.163l-7.616-.058c0-1.744-.465-3.489-.639-5.233h4.186a1.74 1.74 0 0 0 1.802-.814c1.919-3.488 3.895-6.86 5.814-10.349a4.7 4.7 0 0 0 .465-2.209v-5.174a1.807 1.807 0 0 1 .872-1.919 3.31 3.31 0 0 0 1.454-3.198 3.784 3.784 0 0 0-2.675-3.837 3.31 3.31 0 0 0-3.663 1.744 4.074 4.074 0 0 0 1.047 5l1.163.756v5.35a5.8 5.8 0 0 1-.872 3.43 599 599 0 0 0-4.942 8.023 1.63 1.63 0 0 1-1.628.872h-3.547c-.407-4.419-1.046-8.837-1.221-13.256.022-3.575.235-7.146.64-10.698a59 59 0 0 1 .814-6.453c.053-.498.17-.986.349-1.454a1.92 1.92 0 0 1 1.918-1.395 30 30 0 0 1 3.256 0c2.733.29 5.523.523 8.256.988 1.423.28 2.823.668 4.186 1.163a5.35 5.35 0 0 1 2.849 2.326 7.7 7.7 0 0 0 2.965 2.674 36.7 36.7 0 0 0 8.546 2.849 28.55 28.55 0 0 1 11.628 6.57c3.721 3.43 7.21 7.093 10.64 10.755s5.116 5.814 7.442 8.605a74.7 74.7 0 0 1 9.418 15.233v.756l-1.104.29c-7.21 1.57-14.361 3.489-21.396 5.814a3.3 3.3 0 0 0-1.918 1.395c-1.221 1.803-2.5 3.547-3.663 5.35l-5.233 9.07c-.29.464-.755 1.046-1.221 1.104-2.558.465-5.116.756-7.616 1.105-1.977-2.85-4.011-3.722-6.395-2.791a4.995 4.995 0 0 0-3.023 4.767 4.705 4.705 0 0 0 3.721 4.186c2.79.465 4.418-.581 5.813-4.07 2.093-.29 4.187-.465 6.28-.814 3.72-.755 2.616 0 4.593-3.139 2.674-4.128 5.348-8.198 7.965-12.326A5.8 5.8 0 0 1 160 70.875c4.302-1.162 8.546-2.558 12.79-3.779 2.791-.756 5.814-1.337 8.373-1.977a44 44 0 0 1 2.907 19.71 44.9 44.9 0 0 0 1.569 16.918 70.5 70.5 0 0 1 2.791 13.314 37.3 37.3 0 0 1-.64 12.791m-27.267 25.058a1.92 1.92 0 0 1-1.919 1.802 1.56 1.56 0 0 1-1.109-.621 1.56 1.56 0 0 1-.286-1.239 1.86 1.86 0 0 1 1.202-1.683c.229-.087.472-.127.717-.119a1.56 1.56 0 0 1 1.11.621 1.57 1.57 0 0 1 .285 1.239m-19.826 34.884a1.626 1.626 0 0 1-1.511 1.802 1.39 1.39 0 0 1-1.163-1.511 1.8 1.8 0 0 1 1.57-1.803c.697.058 1.104.64 1.104 1.57zm10.698-3.663a1.8 1.8 0 0 1-1.512 1.802c-.639 0-1.104-.639-1.162-1.453a1.62 1.62 0 0 1 .882-1.63c.196-.099.41-.158.629-.172.698.058 1.163.639 1.163 1.511zm24.709-56.337a2.03 2.03 0 0 1 .428-1.511 2.02 2.02 0 0 1 1.375-.757c.93 0 1.57.698 1.57 1.861a2.04 2.04 0 0 1-1.803 2.093c-.988.232-1.57-.465-1.57-1.628zM163.488 93.55a2.09 2.09 0 0 1 2.151-1.803 1.977 1.977 0 0 1 2.035 1.86 2.034 2.034 0 0 1-2.151 1.803 1.976 1.976 0 0 1-2.035-1.802zM107.5 76.573v.29s-.058-.174 0-.29m45.872-28.721a1.92 1.92 0 0 1 1.977-2.035 1.685 1.685 0 0 1 1.628 1.977 1.91 1.91 0 0 1-1.131 1.809 1.9 1.9 0 0 1-.73.168 1.805 1.805 0 0 1-1.647-1.207 1.8 1.8 0 0 1-.097-.712m-16.919-4.71a2.207 2.207 0 0 1 2.093-2.209 1.453 1.453 0 0 1 1.338 1.687 2.33 2.33 0 0 1-2.094 2.267 1.57 1.57 0 0 1-1.337-1.744m-8.837-13.953c0-.93.523-1.802 1.279-1.802s1.337.814 1.337 1.744a1.3 1.3 0 0 1-.008.59 1.34 1.34 0 0 1-1.875.894 1.34 1.34 0 0 1-.725-.894 1.3 1.3 0 0 1-.008-.59zm-7.442-4.244a1.454 1.454 0 0 1-1.395-1.628 1.4 1.4 0 0 1 .258-1.078 1.4 1.4 0 0 1 .963-.55c.814 0 1.395.698 1.395 1.628a1.4 1.4 0 0 1-.258 1.078 1.4 1.4 0 0 1-.963.55m14.593 63.954a1.975 1.975 0 0 1-1.977 2.093 2.093 2.093 0 0 1-2.209-1.92 2.09 2.09 0 0 1 2.035-2.092 1.977 1.977 0 0 1 2.267 2.151z"/><path fill="#AFCC7D" d="M78.779 117.736h1.395v-1.396h1.396v4.593h-2.965z"/><path fill="#B3D07E" d="M81.803 114.305h-1.687q.042.756 0 1.512h-1.162v-3.024h3.023c-.233.582-.175 1.105-.175 1.512"/><path fill="#AFCC7D" d="M67.268 115.933h1.511v4.535h-3.023v-2.907l1.453-.349a14 14 0 0 1 0-1.511z"/><path fill="#B3D07E" d="M67.326 115.933h-1.57v-2.965h3.023v1.279h-1.511v1.454z"/><path fill="#BAD67F" d="M67.616 98.375h1.28v4.361h-2.908v-2.733l1.396-.29v-1.396z"/><path fill="#A5C27B" d="M67.616 98.317h-1.57v-2.965h3.024v1.105l-1.454.29v1.57"/><path fill="#AFCC7D" d="M56.512 98.375v4.36h-3.024v-2.732l1.396-.465a8 8 0 0 0 0-1.163zM55.116 96.805c-.349 1.28-.349 1.28-1.511 1.105v-2.675h2.848v1.221zM53.488 135.41h1.454a12 12 0 0 1 0-1.279h1.279c0 1.453 0 2.791.29 4.302h-2.906q.174-1.279-.117-3.023"/><path fill="#ABC87C" d="M54.884 133.724h-1.396v-2.907h3.023v1.337l-1.453.349q-.087.436-.174 1.221"/><path fill="#B3D07E" d="M67.558 133.898h1.628v4.361h-2.849q.081-1.308 0-2.616l1.454-.407v-1.396z"/><path fill="#A5C27B" d="M67.616 133.84h-1.57v-3.081h2.035c.989 0 .989 0 .989 1.395h-1.396v1.512z"/><path fill="#B3D07E" d="m42.79 98.026 1.28.291v4.244h-2.85v-2.674l1.512-.407v-1.454z"/><path fill="#AFCC7D" d="M42.849 97.968h-.989v-2.733h2.791v1.221h-1.395v1.28zM42.849 133.549l1.512.291c0 1.395 0 2.733.348 4.244h-2.848l-.35-2.616 1.454-.465v-1.454z"/><path fill="#AFCC7D" d="M42.849 133.549h-1.395v-2.79h2.907v1.279l-1.221.349v1.162zM19.36 115.643h1.163v4.476h-2.5v-2.79l1.163-.349v-1.512z"/><path fill="#AFCC7D" d="M19.36 115.584h-1.22v-2.965h2.383v1.279l-1.279.407q-.045.727 0 1.454z"/><path fill="#B3D07E" d="m67.268 152.329 1.279-.349c0-.407 0-.756.29-1.163h1.047c0 1.163 0 2.325.29 3.605h-2.848c.116-.524 0-1.28-.058-2.093M68.256 150.526h-1.163v-2.5h2.849c0 .582.348 1.221-.64 1.221s-.523.931-1.046 1.279M68.256 81.398h1.57c0 1.396 0 2.733-.291 4.128h-2.79v-2.558l1.51-.407z"/><path fill="#AFCC7D" d="M68.256 81.399h-1.221v-2.675h2.849a7 7 0 0 0 0 1.047l-1.396.349c0 .523 0 .988-.29 1.453zM57.732 81.515c0 1.337 0 2.616-.349 4.011h-2.848V82.91l1.453-.349c.233-.756.407-1.628 1.744-1.046"/><path fill="#B3D07E" d="m54.884 80.933.349-2.384h2.616v.93c-1.512-.465-1.221 2.268-2.965 1.454M30.232 137.968v-2.616l1.221-.349v-1.221a.7.7 0 0 1 .772-.19.69.69 0 0 1 .45.655c0 1.221 0 2.384.348 3.721zM29.651 130.643h2.558v1.104l-1.22.465v1.105c-.466.349-1.163 0-1.221 0s-.059-1.977-.117-2.674"/><path fill="#AFCC7D" d="M56.512 150.526h1.453c0 1.279.29 2.5.465 3.953h-2.79c0-.697 0-1.511-.408-2.325l1.28-.407v-1.454z"/><path fill="#AFCC7D" d="M56.512 150.468H55v-2.5a3.43 3.43 0 0 1 2.733 0v.93l-1.338.349v1.163z"/><path fill="#B3D07E" d="M31.046 98.026h1.512c0 1.512 0 2.907-.29 4.477h-2.791V99.77l1.453-.348v-1.396z"/><path fill="#AFCC7D" d="M31.105 98.026h-1.28l.408-2.907h2.5v1.337h-1.337l-.35 1.454zM42.732 85.468V82.91c.64-.29 1.628 0 1.687-1.337 0 0 .639 0 1.279-.407 0 1.628-.35 2.965-.524 4.302z"/><path fill="#A5C27B" d="M46.337 78.375c0 1.221 0 1.221-1.337 1.512-.465 1.22-.465 1.22-1.57 1.046.058-2.907.058-2.965 2.907-2.558"/><path fill="#AFCC7D" d="M21.105 102.27h-2.5v-2.79c0-.93 1.453 0 1.453-1.221l1.279-.698c-.058 1.977-.116 3.372-.232 4.709"/><path fill="#ABC87C" d="M19.186 94.887h2.442c0 .697.29 1.395-.756 1.511-1.046.117-.407.466-.581.756-.175.29 0 .465-1.28.523z"/><path fill="#B3D07E" d="M81.28 65.41h1.278v3.837h-2.732v-2.325l1.395-.35V65.41z"/><path fill="#B3D07E" d="M81.279 65.41h-1.22v-2.442h2.5c.464 1.396-.931.814-1.338 1.454v1.104z"/><path fill="#AFCC7D" d="M44.767 150.526h1.337c0 1.279.466 2.617.698 4.07h-2.79c0-.756 0-1.453-.35-2.267l1.221-.64v-1.279z"/><path fill="#A5C27B" d="M44.767 150.468h-1.453c0-.988 0-1.802-.407-2.791h2.616c.349 1.163.349 1.163-.814 1.744v1.105z"/><path fill="#B3D07E" d="M69.884 65.41h1.046c0 1.337 0 2.558-.407 3.837h-2.79v-2.325l1.337-.35c0-.348 0-.755.29-1.162z"/><path fill="#ABC87C" d="M69.884 65.41h-1.396v-2.442h2.675c.407 1.396-.93.814-1.396 1.396q-.045.581 0 1.162z"/><path fill="#BAD67F" d="M83.198 166.515v3.488h-2.675v-2.151c.814 0 1.628 0 1.396-1.337z"/><path fill="#ABC87C" d="M83.14 164.77c-.698 0-1.512 0-1.57 1.221h-1.221v-2.383c2.209-.233 2.558-.117 2.79 1.162"/><path fill="#B3D07E" d="M33.547 81.108h1.22c0 1.453-.465 2.79-.697 4.185h-2.616c0-.93 0-1.686.407-2.558l1.279-.29.465-1.396z"/><path fill="#ABC87C" d="M33.547 81.108H32.15c0-.989.35-1.86.524-2.733h2.442c.348 1.28-.524 1.395-1.396 1.512z"/><path fill="#B3D07E" d="M71.977 170.061H69.36c0-.698 0-1.337-.407-2.093s1.686-.349 1.395-1.395c.93 0 1.337 0 1.395.872s.117 1.628.233 2.616"/><path fill="#A5C27B" d="M68.546 163.84c2.268-.465 2.442-.407 2.85.814-.466.349-1.454.291-1.396 1.338l-1.28.348c-.057-.988-.115-1.744-.174-2.5"/><path fill="#AFCC7D" d="M35.581 154.596h-2.5c0-.756-.407-1.57-.64-2.5l1.164-.465v-1.338c.523 0 1.046.466 1.163.756.116.291.58 2.326.813 3.547"/><path fill="#ABC87C" d="M33.14 150.352c-1.163 0-1.338-.465-1.28-2.733h2.268c0 .465.756 1.047-.29 1.279-1.047.233-.292.93-.699 1.454"/><path fill="#AFCC7D" d="M23.023 150.235h.872c.407 1.279.756 2.558 1.163 3.954h-2.5c0-.756-.407-1.454-.64-2.326a1.453 1.453 0 0 0 1.105-1.628"/><path fill="#A5C27B" d="M22.326 150.236c-1.512-.291-.873-1.744-1.512-2.849a14 14 0 0 1 2.267 0s.466.407.524.639 0 .698 0 .64c-1.28.116-.756 1.105-1.28 1.57"/><path fill="#B3D07E" d="M27.035 65.12h1.163c-.407 1.336-.756 2.5-1.105 3.778h-2.325a14 14 0 0 1 .523-1.86c.132-.281.358-.507.64-.64.988 0 .988-.697 1.162-1.279z"/><path fill="#AFCC7D" d="M27.035 65.119h-.756c0-2.384.465-2.79 2.791-2.267 0 .348-.407.814-.64.872-.232.058-1.162.64-1.395 1.395"/><path fill="#B3D07E" d="M71.802 50.759h1.163c0 1.22-.349 2.325-.465 3.488h-2.616c0-.756 0-1.395.407-2.151a1.394 1.394 0 0 0 1.57-1.337z"/><path fill="#A5C27B" d="M71.86 50.759h-1.395l.465-2.5h2.268c.465 1.279-.698 1.046-1.28 1.337-.58.29 0 .814 0 1.163z"/><path fill="#AFCC7D" d="M27.268 169.712c0-.698-.524-1.395-.756-2.035l.755-.988.582-.64s.523.349.64.64.639 1.918 1.046 3.023z"/><path fill="#ABC87C" d="M26.512 165.875c-1.28-.291-.989-1.512-1.454-2.616h1.744c.287.087.534.272.698.523v.756q-.447.704-.988 1.337"/><path fill="#B3D07E" d="M61.395 50.759h1.163l-.64 3.488h-2.616c0-.697.29-1.395.407-2.093s1.744 0 1.57-1.395z"/><path fill="#A5C27B" d="m61.395 50.759-1.105-.29.524-2.21h2.5c-.35.523-.465 1.046-.698 1.104s-1.105.698-1.22 1.396"/><path fill="#AFCC7D" d="M70.93 182.038c.582 0 1.395 0 1.28-1.047-.117-1.046.406-.349.58-.349.175 0 .524.291.524.524 0 .232.349 1.744.523 2.79h-2.384q0-.756-.523-1.918M70.93 180.41c0-.698 0-1.279-.407-2.035h2.617v.64c-1.163-.175-.698 1.918-2.21 1.395"/><path fill="#ABC87C" d="m51.453 50.41 1.163.407-1.046 3.43h-2.268c0-1.104 0-2.383 1.57-2.616 0 0 0-.756.407-1.22z"/><path fill="#A5C27B" d="M51.453 50.41H50.35c0-.814.465-1.453.697-2.21h2.093c0 .64 0 1.105-.523 1.105s-.93.64-1.163 1.105"/><path fill="#AFCC7D" d="M61.453 183.957c0-.64 0-1.279-.407-1.628l1.396-1.803c1.395.64.872 2.152 1.453 3.431z"/><path fill="#ABC87C" d="M60 178.201h1.919c.277.109.504.316.64.581 0 0 0 .407-.292.581l-.581.64s-.465.465-.64.465a1.22 1.22 0 0 1-.639-.581c-.174-.465-.233-.989-.407-1.686"/><path fill="#AFCC7D" d="M41.86 50.41h1.163c-.407 1.22-.814 2.267-1.22 3.43h-2.268c.349-1.047 0-2.21 1.744-2.442 0 0 .349-.756.581-1.163z"/><path fill="#ABC87C" d="M41.86 50.41h-.988l.988-2.21h2.384c-.407.466-.64.93-.814.93s-1.104.699-1.453 1.28z"/><path fill="#AFCC7D" d="M51.105 182.329c.465-.756.813-1.221 1.162-1.861 1.396.64 1.047 2.21 1.803 3.43h-2.326zM51.454 180.41c-1.221 0-1.28 0-1.512-2.209h1.919a.7.7 0 0 1 .407.407s0 .581-.35.581c-.348 0-.29.756-.465 1.221M42.326 183.666c-.291-.581-.582-1.163-.756-1.628l.988-1.686c1.395.581 1.163 2.151 1.977 3.314z"/><path fill="#A5C27B" d="M41.512 180.41c-1.337 0-.872-1.454-1.628-2.035a2.21 2.21 0 0 1 1.977-.523.58.58 0 0 1 0 1.104c-.582.466.29 1.105-.35 1.454"/><path fill="#AFCC7D" d="M33.023 50.41c.523 0 .814 0 .581.64s-.872 1.918-1.279 2.907h-2.093c.291-1.105.291-2.151 1.687-2.442.348 0 .58-.756.872-1.105z"/><path fill="#A5C27B" d="M33.023 50.41h-.755c.348-2.21.697-2.5 2.674-2.267 0 .581 0 1.104-.756 1.104s-1.163.698-1.163 1.163"/><path fill="#B3D07E" d="M74.128 37.387h.988c0 .988-.29 1.977-.407 3.081H72.5c0-.93 0-1.86 1.22-2.093 0 0 0-.756.408-1.105z"/><path fill="#AFCC7D" d="M74.128 37.387h-1.046l.465-1.977h2.093c0 .407-.35.872-.582.872a1.047 1.047 0 0 0-.93 1.105"/><path fill="#B3D07E" d="M65.116 37.387h.93c-.29 1.046-.523 2.035-.813 3.023H63.14c0-.872 0-1.802 1.279-2.093 0 0 .523-.698.755-1.105z"/><path fill="#ABC87C" d="M65.116 37.387h-1.162q.425-.901.697-1.86h2.21c-.407.465-.582.871-.814.93-.233.058-.93.407-.93.93"/><path fill="#A5C27B" d="M76.744 196.282h-1.279a1.33 1.33 0 0 1-.974-.572 1.34 1.34 0 0 1-.189-1.114 4.4 4.4 0 0 1 .989-1.337s.814 0 .872.407q.368 1.29.581 2.616"/><path fill="#B3D07E" d="M74.186 193.201c-1.163 0-.581-1.163-1.22-1.803h2.5z"/><path fill="#A5C27B" d="M65.989 193.201c1.337.581.93 1.86 1.57 2.79-.815.465-1.512.582-2.036 0-.523-.581-.058-1.86.466-2.79"/><path fill="#AFCC7D" d="M63.72 191.166h2.5a15 15 0 0 1-1.046 1.686.81.81 0 0 1-.814 0 11.6 11.6 0 0 1-.64-1.686M58.837 196.05c-1.919 0-1.919 0-2.616-1.338l.93-1.511c1.046.639 1.163 2.093 1.686 2.849"/><path fill="#ABC87C" d="m57.035 191.515-1.22 1.86-1.164-1.86a2.33 2.33 0 0 1 2.384 0M56.454 37.387h.407l.29.29-1.046 2.85h-2.151c.407-.93.29-2.036 1.627-2.21.291 0 .524-.64.756-.988z"/><path fill="#9AB879" d="M56.454 37.387h-.756c.349-2.093.523-2.268 2.442-1.977a.756.756 0 0 1-.64 1.046c-.872-.058-.988.35-1.046.93"/><path fill="#A5C27B" d="M49.651 35.352c0 .581 0 .698-.697.814-.698.116-1.396.465-.465 1.279s0 .465 0 .698l-1.163 2.383h-1.803c0-.988.291-1.918 1.454-2.15 1.163-.233.698-.059.698-.931-.407-1.628 0-2.442 1.86-2.267 0 0 .058.116.116.174"/><path fill="#ABC87C" d="M50.581 196.05c-1.86 0-1.86 0-2.732-1.512l.755-1.454c1.047.698 1.28 1.861 1.977 2.966"/><path fill="#9AB879" d="m48.256 191.747-.872 1.453c-.93-.348-.989-1.22-1.338-1.86 1.221-.581 1.628-.581 2.21.407"/><path fill="#ABC87C" d="M84.884 25.991c.407 0 .755 0 .697.64s0 1.279 0 2.093h-1.86c0-.93-.349-1.744.872-1.977 0 0 .29-.581.407-.872z"/><path fill="#9AB879" d="M84.884 25.933h-1.047c0-.581 0-1.22.465-1.57.466-.348 1.047 0 1.57 0s-1.395.698-.988 1.687z"/><path fill="#ABC87C" d="M76.744 25.991h.93c0 .524 0 .989-.29 1.454-.407 1.395-.407 1.395-2.094 1.046 0-.756 0-1.453.989-1.744.988-.29.349-.581.523-.872z"/><path fill="#9AB879" d="M76.744 25.992h-.64c0-1.861.291-1.977 2.094-1.512z"/><path fill="#AFCC7D" d="M86.105 204.073c.872.814.697 1.628.755 2.5s-1.395.407-1.802-.407.988-1.105 1.047-2.093"/><path fill="#9AB879" d="M84.303 202.387h2.15v.349l-.697.465c-.349 0 0 1.162-.93.697s-.291-.697-.523-1.511"/><path fill="#A5C27B" d="M79.418 206.573c-1.744.29-1.744.29-2.325-1.163l1.104-1.221c.93.639.698 1.628 1.221 2.384"/><path fill="#9AB879" d="m76.395 202.329 2.093.348-1.57 1.687-.755-1.687zM72.151 18.259l1.57-1.57c0-1.628.349-1.802 1.919-1.57a1.69 1.69 0 0 0-1.105 1.686c-.058 1.28-.93 1.803-2.384 1.454M81.396 15.061l-.64.523c-.118.93-.332 1.847-.64 2.733 0 0-.814.29-1.279.465a1.57 1.57 0 0 1 1.105-1.977c-.407-1.744-.116-1.744 1.454-1.744M69.244 215.061c0-.581 0-1.221-.29-1.802h.349l1.627 1.86h-1.686zM66.802 211.689h1.686c0 .465 0 .756-.349 1.337-.406-.291-.755-.639-1.337-1.337"/><path fill="#08445E" d="M179.477 127.619a2.037 2.037 0 0 1-1.802 2.093c-.989 0-1.57-.697-1.57-1.86a2.036 2.036 0 0 1 1.802-2.326c.93 0 1.57.931 1.57 2.093M151.395 184.189c0 .872-.756 1.802-1.453 1.802s-1.163-.639-1.163-1.453a1.57 1.57 0 0 1 .33-1.221 1.56 1.56 0 0 1 1.124-.582c.697 0 1.162.582 1.162 1.454M172.616 114.422a2.27 2.27 0 0 1-1.453 2.209 1.394 1.394 0 0 1-1.57-.582 2.15 2.15 0 0 1 .291-2.5c.465-.581.988-1.046 1.802-.755a1.51 1.51 0 0 1 .93 1.628M165.523 95.468a1.976 1.976 0 0 1-2.035-1.86 2.097 2.097 0 0 1 2.151-1.803 1.98 1.98 0 0 1 2.035 1.86 2.034 2.034 0 0 1-2.151 1.802M156.977 47.794a1.91 1.91 0 0 1-1.131 1.809c-.23.103-.478.16-.73.167a1.8 1.8 0 0 1-1.279-.589 1.8 1.8 0 0 1-.465-1.33 1.92 1.92 0 0 1 1.977-2.034 1.685 1.685 0 0 1 1.628 1.977M134.884 89.131a1.98 1.98 0 0 1-1.977 2.093 2.094 2.094 0 0 1-2.209-1.919 2.094 2.094 0 0 1 2.035-2.093 1.97 1.97 0 0 1 1.968 1.138c.114.245.176.51.183.781M140.698 187.852a1.636 1.636 0 0 1-.882 1.63 1.6 1.6 0 0 1-.63.172 1.45 1.45 0 0 1-1.163-1.511 1.8 1.8 0 0 1 1.57-1.803c.698 0 1.105.582 1.105 1.512M136.453 43.142a2.21 2.21 0 0 1 2.093-2.209 1.45 1.45 0 0 1 1.31 1.085c.051.197.061.401.028.601a2.33 2.33 0 0 1-2.093 2.268 1.57 1.57 0 0 1-1.338-1.745M127.209 194.48a1.58 1.58 0 0 1-.416 1.186 1.58 1.58 0 0 1-1.154.5c-.697 0-1.104-.523-1.046-1.512a1.56 1.56 0 0 1 .374-1.203 1.58 1.58 0 0 1 1.137-.541 1.335 1.335 0 0 1 1.105 1.57M130.233 29.13a1.35 1.35 0 0 1-.269 1.12 1.34 1.34 0 0 1-1.615.365 1.33 1.33 0 0 1-.725-.894 1.35 1.35 0 0 1-.008-.59c0-.93.524-1.802 1.28-1.802a1.57 1.57 0 0 1 1.337 1.802M121.396 23.317a1.4 1.4 0 0 1-.683 1.453 1.4 1.4 0 0 1-.538.175 1.46 1.46 0 0 1-1.344-1.032 1.5 1.5 0 0 1-.052-.596A1.394 1.394 0 0 1 120 21.69c.814-.058 1.396.698 1.396 1.628M160.523 152.91a1.92 1.92 0 0 1-1.918 1.802 1.565 1.565 0 0 1-1.384-1.211 1.6 1.6 0 0 1-.012-.649 1.86 1.86 0 0 1 1.919-1.803 1.58 1.58 0 0 1 1.384 1.211c.049.213.053.435.011.65"/></g><defs><clipPath id="a"><path fill="#fff" d="M0 .025h200v227.907H0z"/></clipPath></defs></svg>