<svg id="Layer_1" data-name="Layer 1" xmlns="http://www.w3.org/2000/svg" viewBox="0 0 40 40"><defs><style>.cls-1{fill:#0b4058;}.cls-1,.cls-10,.cls-11,.cls-12,.cls-13,.cls-14,.cls-15,.cls-16,.cls-17,.cls-2,.cls-3,.cls-4,.cls-5,.cls-6,.cls-7,.cls-8,.cls-9{fill-rule:evenodd;}.cls-2{fill:#bad67f;}.cls-3{fill:#b3d07e;}.cls-4{fill:#abc87c;}.cls-5{fill:#a5c27b;}.cls-6{fill:#9ab879;}.cls-7{fill:#104459;}.cls-8{fill:#114459;}.cls-9{fill:#144659;}.cls-10{fill:#124559;}.cls-11{fill:#14475a;}.cls-12{fill:#16485a;}.cls-13{fill:#194b5b;}.cls-14{fill:#093f58;}.cls-15{fill:#00a9e8;}.cls-16{fill:#afcc7d;}.cls-17{fill:#08445e;}</style></defs><path class="cls-1" d="M20,37a4.71,4.71,0,0,1-2.31,1.26,1,1,0,0,0-.48.31,2.65,2.65,0,0,1-2.68.88,3.31,3.31,0,0,1-2-1.18.51.51,0,0,0-.25-.16,2.43,2.43,0,0,1-1.15-.71c-.43-.44-.89-.85-1.34-1.27a.91.91,0,0,1-.24-.37,2.49,2.49,0,0,0-1.06-1.33,9.54,9.54,0,0,1-.91-.6A4.8,4.8,0,0,1,5.8,31.3c-.17-.56-.39-1.1-.6-1.65a10.34,10.34,0,0,1-.54-2.26,1.85,1.85,0,0,0-.23-.8,11.58,11.58,0,0,1-1.2-3.27,9,9,0,0,1-.29-3.05,15.81,15.81,0,0,1,.47-2.56,12.07,12.07,0,0,0,.31-1.45A6.33,6.33,0,0,0,3.7,15,9.62,9.62,0,0,1,4.86,9.88,17.62,17.62,0,0,1,7.94,5.73L9.12,4.49A7.32,7.32,0,0,1,12.6,2.34l.34-.11a1.45,1.45,0,0,0,.81-.5A3.07,3.07,0,0,1,15.56.79c.54-.11,1.1-.16,1.66-.23A8.48,8.48,0,0,1,18.08.5a2.19,2.19,0,0,1,1.85.89l.07.08.12-.14A2.11,2.11,0,0,1,21.75.51a5.26,5.26,0,0,1,1,.05c.5,0,1,.09,1.48.17a4.19,4.19,0,0,1,1.32.44,2.79,2.79,0,0,1,.88.72.75.75,0,0,0,.29.21,4.91,4.91,0,0,0,.74.24,7.4,7.4,0,0,1,3.41,2.11c.45.46.88.92,1.32,1.38a16.67,16.67,0,0,1,3.18,4.45,9.33,9.33,0,0,1,1,4.47c0,.34,0,.69-.05,1a3.44,3.44,0,0,0,.12,1.11c.23.9.46,1.79.6,2.71a8.85,8.85,0,0,1-.2,3.69c-.12.43-.23.86-.34,1.3a5.83,5.83,0,0,1-.64,1.55,3.43,3.43,0,0,0-.5,1.47,9.08,9.08,0,0,1-.59,2.29c-.2.53-.39,1.05-.57,1.58a4.62,4.62,0,0,1-1.64,2.25,11,11,0,0,1-1,.68,2.43,2.43,0,0,0-1.06,1.32.85.85,0,0,1-.24.37l-1.55,1.46a1.55,1.55,0,0,1-.73.45,1.23,1.23,0,0,0-.61.4,3.21,3.21,0,0,1-3.13,1,2.51,2.51,0,0,1-1.44-.92.57.57,0,0,0-.34-.22.86.86,0,0,1-.21-.07A4.55,4.55,0,0,1,20,37Z"/><path class="cls-2" d="M5.91,26.07a8.64,8.64,0,0,1-.79-1.65l.14-.07c0-.19-.06-.25-.23-.26a13.6,13.6,0,0,1-.57-2.71H5v-.27l-.43,0a8.62,8.62,0,0,1,.07-1.76c.06-.26.12-.53.17-.79s.07-.28.26-.25c0-.09,0-.19,0-.21s-.08-.22,0-.34a6.14,6.14,0,0,0,.28-2l0-.38c.09,0,.26-.06.19-.27L5.26,15a.24.24,0,0,1,0-.08,2.56,2.56,0,0,1,.12-1.13c0-.1.09-.21-.05-.29s0-.09,0-.13c0-.29.11-.58.17-.88H6c.15,0,.2-.07.19-.22l-.35,0c.16-.46.32-.89.48-1.33l-.21-.09c.16-.29.3-.57.47-.84,0,0,.1-.06.16-.07H7c.12,0,.12,0,.22-.19l-.3-.06A1.46,1.46,0,0,1,7,9.47,6.64,6.64,0,0,1,8.28,7.63c.62-.69,1.27-1.35,1.9-2a.35.35,0,0,1,.32-.12.85.85,0,0,0,.81-.39l.29-.38s.1-.1.09-.14c0-.24.14-.31.3-.38l1.18-.43c.22-.08.44-.14.68-.21a1.25,1.25,0,0,0,.11.18.75.75,0,0,0,.88-.4c0-.07.1-.14.15-.21s.11-.22-.11-.33a.53.53,0,0,1,.31-.26,5.65,5.65,0,0,1,.57-.23.29.29,0,0,1,.16,0,.56.56,0,0,0,.57-.07,1.11,1.11,0,0,1,.19-.09l.14.19a.46.46,0,0,0,.5-.12.43.43,0,0,1,.44-.15c.09.23-.19.11-.23.26a1.62,1.62,0,0,0,.69,0l-.13-.07S18,2.15,18,2.12A.17.17,0,0,1,18.13,2a.64.64,0,0,1,.44.17l-.16.08v.05l.33,0,.14.44c-.54.09-.6.14-.58.64s.42.26.7.34c0,.18,0,.37,0,.6a1.66,1.66,0,0,1-.32,0,.36.36,0,0,0-.41.18,4,4,0,0,0-.07.78c.14.08.23.25.44.2a2,2,0,0,1,.42,0c0,.41-.06.79-.08,1.18h0c0-.14,0-.28,0-.42h-.36c0,.11,0,.21,0,.32l-.11,0c-.1,0-.1.14,0,.16s.14.14.14.25V7.4h-.28c-.14,0-.14.08-.11.21h.77c0,.3-.06.57-.09.85l-.46,0c-.09.18-.09.18-.28.25v1c.12,0,.25.06.23.24l.31,0v.92l-.29,0-.08.2-.22,0v1.12l.22,0,.06.22.4,0c.06.32.13.65.19,1l-.36,0q0,.21,0,.45l-.22.05c0,.07,0,.13,0,.21l.25.07v.7H18v.27h1v1.1h-.69a2.27,2.27,0,0,0-.06.25l-.25,0v1.28l.25.06c0,.07,0,.14,0,.24H19c0,.39-.07.76-.11,1.15h-.61c0,.1,0,.18-.06.27l-.23,0v1.35l.23,0c0,.07,0,.15.06.25h.62c0,.38.09.74.14,1.13l-.49,0c0,.17,0,.32,0,.49l-.25.06c0,.07,0,.14,0,.22l.26.05v.74l-.51,0c0,.07,0,.13,0,.23h.9c-.07.39-.14.74-.2,1.11h-.37a1.74,1.74,0,0,1-.05.22l-.23,0V27l.24.07a1.93,1.93,0,0,1,.05.2h.47a5.7,5.7,0,0,1,.13,1h-.55c0,.08-.06.15-.09.22l-.19,0v1.08c.1.09.33,0,.26.24l.38,0s0,.07,0,.09a5.39,5.39,0,0,0-.21,1.12c0,.09-.12.17-.13.25s.13.13.14.21a3.23,3.23,0,0,1,0,.46l-.38,0v.17l.41,0c0,.25.08.5.13.77-.24,0-.32.18-.49.27v.44a1.94,1.94,0,0,0,0,.34c0,.1.23.05.23.21a.38.38,0,0,0,.15,0h.36V35a1,1,0,0,1-.24,0c-.18,0-.26.13-.39.19a.13.13,0,0,0,0,.1c0,.17,0,.33,0,.5a.21.21,0,0,0,.07.13c.16.15.16.2,0,.31a5.66,5.66,0,0,1-1.38.54.2.2,0,0,1-.13,0,1.17,1.17,0,0,0-.63-.12l0,0-.09.17c0,.13.23.27,0,.41-.21-.11-.21-.37-.42-.5a1.3,1.3,0,0,0-.6-.11c-.13.13-.09.24,0,.35l.2.27a.23.23,0,0,0,.24.1h0s.06.1.1.11a2.25,2.25,0,0,0,.26,0,1.35,1.35,0,0,1-2,0l.29,0a.47.47,0,0,0-.07-.19c-.21-.18-.36-.44-.65-.56a.79.79,0,0,0-.37-.07,1.14,1.14,0,0,1-1-.38l-.81-.89a.71.71,0,0,0-.3-.24.63.63,0,0,1-.25-.28c-.28-.48-.55-1-.82-1.46-.05-.09-.1-.18-.22-.18a.11.11,0,0,1-.09-.06c-.08-.15-.22-.14-.35-.13A.66.66,0,0,1,9,32.94c-.22-.16-.45-.3-.67-.47a3.28,3.28,0,0,1-1.09-1.59c-.2-.62-.44-1.23-.66-1.84A7.37,7.37,0,0,1,6.17,27h.07l.19,0,.11.24h.83c-.06-.17.07-.22.18-.28l-.24-1.17a.28.28,0,0,1-.3-.27H6.14c0,.16,0,.25-.17.26,0,.1,0,.17,0,.24Zm8.8,11.33h0c.13.22.32.08.49.1a1,1,0,0,0-.35-.64.85.85,0,0,0-.81-.15.57.57,0,0,0,.08.23,2,2,0,0,0,.34.37A.81.81,0,0,0,14.71,37.4Zm2.43-17.85H16.07c0,.09,0,.16-.06.23l-.24.06v1.34l.25,0c0,.1,0,.17.05.25h1.08c0-.1,0-.18.05-.25l.23-.05V19.83l-.24,0C17.17,19.7,17.16,19.63,17.14,19.55Zm-3.35.23-.24.06v1.33l.25,0c0,.06,0,.09,0,.13a.52.52,0,0,0,0,.11h1.07c0-.09,0-.17.05-.25l.24,0V19.85L15,19.78s0-.07,0-.11l0-.1H13.83A1.91,1.91,0,0,1,13.79,19.78Zm1.44-1.69v-1.3l-.22,0c0-.07,0-.14,0-.23h-1a2,2,0,0,0-.06.23l-.26.06v1.28l.2.05a1.89,1.89,0,0,1,0,.23h1.07c0-.09,0-.16,0-.24Zm-2.2,0,.06-1.28-.23-.06-.06-.22h-1l-.06.22-.24.06c0,.42-.05.85-.07,1.28l.24,0c0,.09,0,.17,0,.24h1a1.2,1.2,0,0,0,.06-.24Zm-1.2,6.38h1l.05-.23.23-.05-.06-1.27-.25-.05-.06-.23h-1a1.43,1.43,0,0,1,0,.22l-.23.06c0,.43.06.85.08,1.27l.25.05C11.79,24.31,11.81,24.37,11.83,24.46Zm3.42-1.54L15,22.87l-.07-.22h-1a2.25,2.25,0,0,0-.05.22l-.26.05c0,.43.05.85.07,1.27l.25,0,.06.21h1c0-.08,0-.14,0-.21l.2,0Zm-4.49-6.17c0-.1,0-.17-.06-.24h-1l-.06.23-.24,0-.09,1.27.23.07c0,.08,0,.14,0,.23h1l.06-.22.23-.07c0-.43,0-.85.08-1.28ZM9.37,22.9c0,.42.07.84.1,1.26l.23.06.09.22h1l.05-.21.21-.06c0-.43,0-.84-.08-1.26l-.25-.06c0-.09,0-.16,0-.24h-1c0,.09,0,.16,0,.24ZM5.69,21.39h.9c0-.08,0-.15,0-.22l.19-.07V19.77l-.21-.05c0-.08,0-.16-.05-.24H5.68l-.06.22-.19.07v1.32C5.63,21.09,5.67,21.23,5.69,21.39Zm9.38,4.19h-1a1.77,1.77,0,0,0,0,.2l-.25.07L13.88,27l.24.05.06.2h1l.05-.2.22-.05c0-.41,0-.8-.08-1.21l-.24,0Zm-1-11.71-.24.05c0,.41-.07.81-.1,1.2l.24.05a1.85,1.85,0,0,1,0,.23h1c0-.09.05-.17.06-.24l.24,0c0-.4,0-.79.07-1.19l-.22-.06c0-.08,0-.15-.05-.22h-1C14.1,13.72,14.08,13.79,14.05,13.87Zm-.85,1.25c0-.42.07-.81.11-1.21l-.21-.06a1.6,1.6,0,0,1,0-.21h-1a.24.24,0,0,1-.3.24c0,.42-.1.82-.15,1.23l.22.06a2.25,2.25,0,0,1,.05.22h1l.06-.22ZM8.6,22.6h-1c0,.07,0,.14,0,.21l-.23.07c0,.42.08.85.12,1.24a.91.91,0,0,1,.24.11.59.59,0,0,1,.07.2h.92c0-.09,0-.17,0-.23L9,24.14l-.12-1.26C8.69,22.89,8.59,22.8,8.6,22.6Zm4.35,3h-1l0,.19-.22.08c.06.4.11.79.16,1.19a.25.25,0,0,1,.31.24h1c0-.07,0-.13,0-.19l.21-.06-.12-1.2-.25,0A2.09,2.09,0,0,0,13,25.58ZM7.49,16.74q-.06.66-.12,1.29l.21.06a1.85,1.85,0,0,0,0,.23h1a2.25,2.25,0,0,0,0-.22L8.85,18c0-.42.07-.83.1-1.27-.23,0-.23-.15-.26-.28H7.78a1.29,1.29,0,0,1-.07.21Zm3.6-2.9a1.6,1.6,0,0,1-.05-.21H10.1c0,.2-.11.24-.28.24-.06.41-.12.81-.19,1.22l.24.07v.21h1c0-.08.06-.15.08-.22l.23,0,.15-1.21ZM6.9,18c0-.44.09-.86.13-1.28l-.21,0c0-.08,0-.15,0-.24H5.9c0,.22-.11.25-.26.28,0,.44-.09.85-.13,1.27l.2.07c0,.07,0,.15,0,.23h.88c0-.07,0-.15.07-.23Zm9.31-5.63c0,.08,0,.14.05.2h1c-.05-.21.12-.22.27-.27V11.18c-.17,0-.2-.12-.25-.23h-.93c0,.21-.14.22-.29.26,0,.38,0,.75-.07,1.12ZM9.68,25.83c.06.4.13.78.19,1.17l.23.05c0,.08.07.15.1.23h.91l0-.2.21-.07c-.06-.41-.11-.8-.17-1.22-.22.06-.26-.08-.3-.23h-1l0,.21Zm5.81-13.48c0-.4.07-.77.1-1.18-.21.07-.22-.09-.24-.21H14.4c0,.19-.13.22-.28.24L14,12.33c.17,0,.27.09.25.26h1C15.2,12.4,15.31,12.35,15.49,12.35Zm1,17.56h1c0-.19.11-.22.25-.24,0-.38,0-.74-.06-1.1l-.22,0-.08-.2h-1l-.05.19-.23.06c0,.37.07.73.11,1.13C16.39,29.63,16.43,29.78,16.47,29.91ZM7.94,13.85c-.08.43-.15.82-.22,1.24.21,0,.21.14.23.26h.92c0-.21.15-.22.28-.26.07-.41.13-.8.2-1.22-.21,0-.2-.14-.23-.26H8.23C8.22,13.79,8.13,13.87,7.94,13.85ZM15.3,28.33h-1v.19l-.1,0-.13,0c0,.38.11.73.16,1.08a.81.81,0,0,1,.22.07.44.44,0,0,1,.09.18h.93c0-.19.11-.21.22-.27,0-.36-.07-.71-.1-1.07C15.44,28.54,15.27,28.55,15.3,28.33ZM9.21,27.25c-.06-.18.07-.23.19-.27-.07-.4-.14-.79-.2-1.17l-.23,0-.08-.23H8l0,.22-.2,0L8,27c.2,0,.26.1.31.24ZM6.77,12.53h.84c0-.19.16-.22.29-.26l.32-1L8,10.88H7.57c-.14,0-.29,0-.34.16a.11.11,0,0,1-.09.06c-.13,0-.16.1-.2.19l-.3.9s0,0,0,.06l.14.07C6.78,12.38,6.78,12.43,6.77,12.53Zm7.82-3.79h-.06c-.06.33-.11.66-.17.94l.26.3h.86c0-.22.16-.19.27-.24l.12-1c-.18,0-.2-.09-.23-.21h-.75ZM9.29,21.16l0,.29h1.56c0-.11,0-.19,0-.28l-.53,0v-1.6h-.5c0,.17,0,.33-.05.51l-.22.05c0,.09,0,.16,0,.23l.22.07v.74ZM6.67,28.49l.35,1c0,.06.07.14.12.14a.25.25,0,0,1,.2.16.18.18,0,0,0,.13.08h.62c.08-.11.13-.19.21-.29L8,28.5c-.19,0-.25-.09-.29-.24h-.8C6.85,28.38,6.88,28.51,6.67,28.49Zm6.32-7V21.2l-.54,0V19.55h-.54v.5l-.28.05c0,.09,0,.17,0,.24l.24,0v.8h-.5c0,.1,0,.18,0,.27Zm.92-11.7c.07-.36.14-.68.19-1l-.24-.31H13.1c0,.2-.14.21-.28.23l-.25.94.24.32h.82A.23.23,0,0,1,13.91,9.75ZM15,32.27h.78c-.1-.22.13-.16.2-.25,0-.32-.09-.63-.14-1-.18,0-.25-.08-.28-.22h-.9c0,.16-.09.2-.21.25.07.33.13.65.2,1l.05,0Zm1.3-14.93v.76h-.52v.27h1.64v-.26l-.54,0V16.55h-.54c0,.17,0,.32,0,.47l-.26.05a1.77,1.77,0,0,0,0,.23ZM12.17,8.48h-.69c-.05.06-.1.18-.15.18s-.21.16-.26.29l-.23.69v.08l.15.06A1.28,1.28,0,0,1,11,10h.87c0-.23.16-.2.27-.24.1-.35.19-.68.27-1C12.31,8.67,12.26,8.59,12.17,8.48Zm1.89,23.79c-.1-.18.07-.18.17-.24-.08-.33-.15-.65-.22-1-.19,0-.25-.09-.3-.22h-.8l-.23.32c.07.26.16.57.23.82l.4.29ZM7.32,21.41c.49,0,1,0,1.49,0,0-.11,0-.18,0-.26l-.49,0V19.52H7.79c0,.18,0,.33,0,.48l-.24.07c0,.09,0,.17,0,.23l.21.08v.74l-.44,0ZM10.57,8.47h-.13c-.24,0-.52-.1-.7.18H9.68s-.12.08-.15.14c-.13.3-.25.6-.38.93.2,0,.16.12.15.24h.78c.09-.08.08-.24.25-.22s.09-.08.11-.13c.11-.29.21-.58.31-.86Zm.36,22.65.24.68c.05.13.07.28.26.28,0,0,.06.07.09.09s.1.09.16.09h.6L12.5,32c-.08-.28-.18-.6-.26-.86l-.39-.29h-.72C11.06,30.94,11,31,10.93,31.12Zm4.91-6.67H17.5a2.15,2.15,0,0,1,0-.23l-.52,0c0-.52-.05-1-.07-1.54h-.54c0,.17,0,.32,0,.48l-.26.06a1.5,1.5,0,0,0,0,.22l.27.06c0,.25.07.48,0,.73l-.51,0Zm0-9.06h1.6v-.27H17c0-.51,0-1,0-1.46h-.5q0,.24-.06.45l-.23.05v.22l.21,0v.71l-.53,0Zm.61,11c0,.23,0,.44,0,.66l-.52,0c0,.09,0,.16,0,.23h1.55v-.24L17,27c0-.5,0-1-.06-1.43h-.55v.46l-.23,0C16.19,26.3,16.19,26.3,16.45,26.37ZM10.84,32c-.09-.26-.19-.54-.3-.8A.4.4,0,0,0,10.4,31a.66.66,0,0,0-.17-.12.54.54,0,0,0-.18-.1c-.22,0-.43,0-.61,0l-.17.29a.67.67,0,0,0,.06.15c.17.32.19.73.59.89a0,0,0,0,0,0,0,.6.6,0,0,0,.16.08h.59ZM8.4,8.44c-.08.08-.11.21-.27.21s-.07,0-.09.09l-.39.81s0,.12,0,.12,0,.18.1.26H8c.2,0,.43.08.56-.18l.08,0a1,1,0,0,0,.15-.14c.13-.3.25-.6.39-.94-.23,0-.08-.13-.15-.21Zm6.67-.81a2.56,2.56,0,0,1,.48,0c.21,0,.26-.15.41-.19a.18.18,0,0,0,.13-.18c0-.25.08-.5.11-.72L16,6.29a2.06,2.06,0,0,1-.43,0c-.2,0-.26.14-.4.18s-.12.1-.14.18c-.07.25-.13.5-.18.71ZM5.71,24.4H7.08c0-.09,0-.16,0-.24l-.46-.05c-.06-.52-.11-1-.17-1.56H6.19l-.23,0c0,.17,0,.31,0,.45s-.21,0-.2.2.17.11.25.21,0,.43.07.68l-.42,0C5.7,24.21,5.7,24.28,5.71,24.4ZM14.46,6.28H14c-.09,0-.17,0-.22.1a.13.13,0,0,1-.1.07c-.11,0-.14.09-.17.17l-.25.72.19.28H14c.09,0,.17,0,.2-.11s0-.06.07-.06.18-.12.2-.23,0-.18.07-.27S14.73,6.5,14.46,6.28ZM12.6,11.7c0,.21-.07.41-.1.62l-.48,0,0,.24h1.47c0-.08,0-.15,0-.23l-.46,0c.07-.46.13-.91.2-1.37h-.46c0,.15-.07.28-.1.42s-.3,0-.24.25Zm2.55,21.4s0,.12,0,.14c-.19.09-.12.23-.07.37s.08.25.1.38.25.29.39.35a1.41,1.41,0,0,0,.58,0,.1.1,0,0,0,.08,0c.06-.13.21-.23.13-.42a3,3,0,0,1-.11-.52l-.34-.28Zm-.34,1-.06-.2a1.22,1.22,0,0,0-.43-.74.25.25,0,0,0-.15-.08h-.62l-.18.26.11.33c0,.11.09.23.14.34s0,.12.08.14c.2.07.34.27.59.21a1.18,1.18,0,0,1,.32,0ZM6.68,13.58c0,.15-.08.3-.13.47-.14,0-.28,0-.23.24l.17.1-.15.67-.43,0c0,.09,0,.16,0,.25H7.23a1.85,1.85,0,0,0,0-.24l-.42,0c.1-.5.19-1,.29-1.48ZM13,28.33h-.48l0,.4-.17.07c-.08.24.13.2.25.26s.06.38.1.59l-.41,0c0,.16,0,.23.17.22H13.7s0,0,.07,0,0-.12,0-.19l-.46,0C13.19,29.2,13.12,28.77,13,28.33Zm.27,5.77c-.21-.28-.16-.73-.57-.92a.51.51,0,0,0-.24-.1H12c-.07.1-.12.18-.18.25a3.94,3.94,0,0,1,.26.55c.07.24.29.3.44.43s.23,0,.35,0h.28ZM13,6.28c-.16,0-.33,0-.5,0a.48.48,0,0,0-.18.08l-.13.09s-.12.07-.14.11l-.39.83c.21,0,.13.13.16.22h.66l.28-.2a.53.53,0,0,0,.12-.14c.1-.25.19-.5.28-.74Zm-1.42,0h-.42a1.12,1.12,0,0,0-.52.29l-.38.69c0,.07,0,.12,0,.17s0,.11,0,.18h.26c.19,0,.4.07.51-.17,0,0,.06,0,.08,0s.13-.07.15-.13c.14-.25.25-.51.36-.75C11.68,6.43,11.64,6.36,11.59,6.27Zm-.51,6.05c.1-.47.19-.91.28-1.37h-.44c-.05.14-.08.27-.12.4-.23.06-.23.06-.24.25l.17.09-.15.63-.45,0c0,.07,0,.13,0,.23h1.29c.16,0,.13-.11.12-.23Zm-2.81.24H9.51c.14,0,.15-.11.13-.21l-.41-.08.35-1.33H9.16L9,11.33c-.08.08-.27,0-.25.17s.09.11.15.2l-.16.56C8.57,12.35,8.3,12.17,8.27,12.56Zm2.41,16.11c-.07.09-.16.14-.17.2s.17.09.26.16a2.07,2.07,0,0,1,.12.61l-.37,0c0,.16,0,.22.18.22h1.21c-.05-.37-.35-.14-.52-.28-.09-.41-.19-.85-.3-1.29h-.47C10.65,28.46,10.67,28.58,10.68,28.67Zm-1.91-.39.1.41-.17.09c.05.18.05.18.27.25,0,.19.12.39.18.6l-.38,0c0,.22,0,.22.19.23H10.1c0-.36-.32-.16-.5-.27l-.38-1.33ZM16.7,9.2c0,.16,0,.35,0,.56h-.32c-.17,0-.18.08-.13.23h1.38V9.77l-.44,0c0-.43.05-.83.07-1.24h-.44c0,.13,0,.25-.06.33s-.19.12-.21.19S16.64,9.1,16.7,9.2ZM10.43,33.08c0,.05,0,.11,0,.12s-.08.16,0,.25c.19.27.26.63.62.78.09,0,.17.1.27.09h.41l.13-.24c-.22-.3-.24-.73-.64-.91-.07,0-.13-.1-.22-.1Zm6.16-1.81c-.09.25.15.18.24.27s0,.33,0,.51l-.4,0c0,.11,0,.19.11.19h1.22a1.68,1.68,0,0,1,0-.2l-.42,0c0-.41-.07-.8-.11-1.2h-.46v.36Zm.19-25.95.16.13s.06.09.09.09c.24,0,.52.1.73-.16a1.17,1.17,0,0,0,.09-.84c-.11-.17-.27-.13-.42-.16s-.32.1-.45.19-.08.18-.11.27S16.81,5.15,16.78,5.32Zm-1.39,0c.23.23.23.23.52.23h0c.2.08.3-.11.44-.18s.09-.18.12-.27a1.33,1.33,0,0,1,.05-.19.42.42,0,0,0-.12-.51h-.38a.64.64,0,0,0-.46.32C15.52,4.91,15.45,5.11,15.39,5.31Zm1.56,30c0,.18.07.34.11.5s.22.33.34.33.52.08.69-.19c0-.17,0-.35,0-.53a.49.49,0,0,0-.39-.33,1.85,1.85,0,0,0-.47,0c-.08,0-.14.11-.21.17Zm-.2-28.47.17.09c0,.17,0,.33,0,.49-.42,0-.42,0-.4.24h1.11c.14,0,.15-.08.11-.19l-.38,0c0-.37.05-.73.08-1.09H17c0,.11-.06.22-.08.33S16.74,6.63,16.75,6.81Zm-1.2,28.47c0,.14.09.27.14.4A.64.64,0,0,0,16,36c.15.11.29.06.44.09a.34.34,0,0,0,.36-.2,3,3,0,0,1-.11-.48c0-.23-.22-.3-.35-.36a.93.93,0,0,0-.55,0C15.68,35.08,15.62,35.2,15.55,35.28ZM8.09,31.12c-.14.17-.13.21.05.29s.11,0,.13.08.17.33.25.5L8.16,32c.1.08.16.17.22.17.33,0,.66,0,1,0C9.3,32,9.3,32,8.92,32c-.18-.39-.37-.8-.57-1.21H8C8,30.92,8.06,31,8.09,31.12Zm8.7,3.08c0,.13,0,.16.13.16h1c0-.31-.3-.1-.41-.27s-.07-.64-.11-1H17v.29l-.17.15.22.21c0,.1,0,.24.05.39ZM10.17,6.27c-.22-.07-.35,0-.43.14s-.11.2-.25.21-.11.12-.1.13c.12.18-.07.27-.12.39a.29.29,0,0,1-.33.22c-.14,0-.2.06-.2.21h.87c.12,0,.2,0,.21-.19l-.29-.06Zm4.56-1c.12-.31.24-.6.35-.9-.19-.06-.32,0-.39.15s-.11.1-.18.15-.11.09,0,.17a.11.11,0,0,1,0,.11c-.05.12-.1.24-.15.34-.31,0-.31,0-.37.21h.92s.1-.08.18-.15Zm-1.34,0c.16-.32.32-.61.48-.91-.27,0-.27,0-.39.15a.31.31,0,0,1-.21.16.16.16,0,0,0-.08.14.41.41,0,0,1-.36.48c-.11,0-.2,0-.18.21h.86c.11,0,.15-.07.15-.18ZM16,2.85a.69.69,0,0,0-.73.23,4,4,0,0,0-.23.34c-.09.13-.1.23,0,.33.28,0,.57,0,.72-.21S16.12,3.14,16,2.85Zm.18.91c.13,0,.26,0,.39,0a.58.58,0,0,0,.34-.23c.05-.15.1-.3.14-.45a.17.17,0,0,0-.14-.22.69.69,0,0,0-.48.07c-.18.11-.21.29-.3.44A.29.29,0,0,0,16.17,3.76ZM12.7,4.4c-.16-.05-.27,0-.36.09a.42.42,0,0,1-.25.2c-.07,0-.11.07-.1.16a.48.48,0,0,1-.43.47c-.1,0-.19,0-.19.17l.8,0a.15.15,0,0,0,.17-.17l-.24,0Zm2.84,31.7c-.09-.13-.09-.13-.37-.18-.09-.2-.19-.41-.28-.62s-.12-.27-.44-.22c0,.11.16.24,0,.34,0,0,0,.09,0,.09.24,0,.25.25.34.41l-.28.06c.05.06.08.12.11.12ZM13.35,36c0,.05.07.11.1.11a2.44,2.44,0,0,0,.85,0c-.05-.06-.11-.11-.17-.1s-.25-.08-.32-.21-.19-.34-.29-.51-.13-.22-.43-.16a1.13,1.13,0,0,1,.09.2.65.65,0,0,1,0,.19c.22.1.44.35.42.46Zm-.26.13s0,0,0-.06S13,36,13,36c-.25,0-.36-.15-.48-.31s-.21-.28-.3-.43a.3.3,0,0,0-.4-.15c0,.12.16.2.06.33s0,.08.06.08c.24,0,.31.25.44.4s0,0,0,.05l-.2,0C12.48,36.21,12.8,36.05,13.09,36.11Zm4-32.35h.83s0,0,.09-.11l-.29-.06c0-.25.07-.47.1-.7-.31-.15-.25.24-.4.24v.43C17.33,3.65,17.18,3.56,17.11,3.76Z"/><path class="cls-3" d="M18.85,17.32c.1,0,.17,0,.17.12v.65h-.44v-.5l.25-.06,0-.21Z"/><path class="cls-4" d="M18.86,17.32l-.29,0v-.49H19c0,.1.08.2-.1.26s0,.18,0,.27Z"/><path class="cls-4" d="M18.6,20.65h.23c0,.17,0,.33.07.52l-.3,0Z"/><path class="cls-5" d="M18.92,29l-.27,0v-.45a1.6,1.6,0,0,1,.31,0,.18.18,0,0,1,.1.11s0,.1,0,.1-.09.14-.1.23Z"/><path class="cls-5" d="M18.77,3.61h-.14c-.08-.06-.06-.17.06-.3L18.55,3l.27,0V3C18.64,3.21,19,3.38,18.77,3.61Z"/><path class="cls-5" d="M18.91,29s.08.05.08.06a4.89,4.89,0,0,1-.09.53c0,.12-.13.1-.24.06v-.37l.23-.08,0-.21Z"/><path class="cls-5" d="M18.71,33.86l.24-.09c.05.11.1.24.16.39h-.38C18.72,34.06,18.72,34,18.71,33.86Z"/><path class="cls-4" d="M18.59,19.82h.27c0,.18,0,.34-.07.52h-.2Z"/><path class="cls-3" d="M18.74,4.88h.16v.45h-.31c0-.15-.07-.29.13-.34,0,0,0-.08,0-.13Z"/><path class="cls-5" d="M11.14,4.83c-.16.4-.29.5-.53.46C10.66,5,11,5,11.14,4.83Z"/><path class="cls-6" d="M18.79,8.71c0,.39,0,.4-.24.38V8.71Z"/><path class="cls-6" d="M14.17,3.6c.05-.26.28-.27.45-.42C14.52,3.52,14.42,3.61,14.17,3.6Z"/><path class="cls-6" d="M6.24,27H6.17c-.08-.3-.17-.6-.26-.9L6,26Z"/><path class="cls-6" d="M18.91,35.52c.06,0,.15,0,.12.1a.49.49,0,0,1-.25.37c0-.15-.1-.26.08-.34s0-.09.05-.14Z"/><path class="cls-5" d="M18.91,35.52h0c-.08,0-.14,0-.16-.07a1.46,1.46,0,0,1,0-.21h.36Z"/><path class="cls-6" d="M18.75,4.87h-.16V4.55l.31,0c0,.16-.23.15-.16.31Z"/><path class="cls-3" d="M18.82,27h-.17v-.43C18.8,26.61,18.8,26.61,18.82,27Z"/><path class="cls-6" d="M18.61,11.85a.64.64,0,0,1,.06.48C18.51,12.26,18.49,12.16,18.61,11.85Z"/><path class="cls-6" d="M18.91,33.65a.82.82,0,0,1-.18,0,.32.32,0,0,1,0-.34C18.9,33.36,18.89,33.49,18.91,33.65Z"/><path class="cls-6" d="M18.58,11.2a.52.52,0,0,1,0,.49A.54.54,0,0,1,18.58,11.2Z"/><path class="cls-5" d="M15.66,37.4l0-.32.06,0,.23.32-.32,0Z"/><path class="cls-3" d="M18.7,9.34c0,.14,0,.27,0,.42C18.49,9.61,18.5,9.42,18.7,9.34Z"/><path class="cls-5" d="M13.72,37.05l.32.29C13.81,37.4,13.76,37.36,13.72,37.05Z"/><path class="cls-3" d="M18.72,25.86v.48a.51.51,0,0,1-.07-.48Z"/><path class="cls-5" d="M15.37,36.84h.3l-.11.25Z"/><path class="cls-5" d="M16.76,36.92c-.09,0-.18.14-.27-.07h.27Z"/><path class="cls-6" d="M17,2.15l.2,0C17.12,2.27,17.05,2.26,17,2.15Z"/><path class="cls-7" d="M17.14,19.55c0,.08,0,.15.05.23l.24,0v1.33l-.23.05c0,.07,0,.15-.05.25H16.07c0-.08,0-.15-.05-.25l-.25,0V19.84l.24-.06c0-.07,0-.14.06-.23Zm-.79,1.11v.51h.51v-.79h-.24l0,.24Zm.52-.59c0-.09,0-.16,0-.24h-.52v.52h.2a2.34,2.34,0,0,0,0-.26Z"/><path class="cls-8" d="M13.79,19.78l0-.21H14.9l0,.1s0,.07,0,.11l.25.07v1.32l-.24,0c0,.08,0,.16-.05.25H13.84l0-.11a.66.66,0,0,0,0-.13l-.25,0V19.84Zm.58.57V20.1l.26,0v-.22h-.52v.51h.27a2.46,2.46,0,0,0,0,.26l-.25.06v.5h.52v-.78Z"/><path class="cls-8" d="M15.23,18.09l-.27,0a1.72,1.72,0,0,0,0,.24H13.85c0-.08,0-.15,0-.23l-.21-.05V16.81l.26-.06.07-.23h1c0,.09,0,.16,0,.23l.22,0C15.23,17.22,15.23,17.64,15.23,18.09Zm-.8-.76v-.26l.25-.05v-.23h-.52v.51l.27,0c0,.08,0,.16,0,.24l-.24.05v.47h.5v-.75Z"/><path class="cls-9" d="M13,18.08l-.25,0-.06.24h-1c0-.07,0-.15,0-.24l-.24,0c0-.43,0-.86.07-1.28l.24-.06.06-.22h1l.06.22.23.06Zm-.51-.75h-.25a1.43,1.43,0,0,1,0,.2l-.24.08v.47h.49Zm-.24-.27.23,0v-.23H12v.46C12.22,17.28,12.22,17.28,12.28,17.06Z"/><path class="cls-10" d="M11.83,24.46c0-.09,0-.15-.06-.23l-.25-.05c0-.42,0-.84-.08-1.27l.23-.06a1.43,1.43,0,0,0,0-.22h1l.06.23.25.05.06,1.27-.23.05-.05.23ZM12,23.7q0,.26.06.48h.5c0-.26,0-.49-.05-.74h-.22a2.07,2.07,0,0,0,0,.22Zm.22-.29c0-.09,0-.16,0-.23l.25-.06,0-.23-.52,0c0,.19,0,.34,0,.5Z"/><path class="cls-7" d="M15.25,22.92V24.2l-.2,0c0,.07,0,.13,0,.21H14l-.06-.22-.25,0c0-.42,0-.84-.07-1.27l.26-.05.05-.22h1l.07.22Zm-.83.52c0-.08,0-.17,0-.26l.24-.05c0-.23,0-.23-.17-.24h-.35v.52h.27v.24l-.25.07a3.64,3.64,0,0,1,0,.45h.49v-.75Z"/><path class="cls-8" d="M10.76,16.75l.22,0c0,.43-.05.85-.08,1.28l-.23.07c0,.06,0,.14-.06.22h-1c0-.09,0-.15,0-.23l-.23-.07.09-1.27.24,0,.06-.23h1C10.72,16.58,10.74,16.65,10.76,16.75Zm-.6.52,0-.22.24,0v-.22H10v.47h.22c0,.09,0,.18,0,.26l-.25.07v.46h.48v-.74Z"/><path class="cls-10" d="M9.37,22.9l.22,0c0-.08,0-.15,0-.24h1a1.69,1.69,0,0,1,0,.24l.25.06c0,.42.05.83.08,1.26l-.21,0c0,.06,0,.13-.05.22h-1l-.09-.22-.23-.06C9.44,23.74,9.4,23.32,9.37,22.9Zm.8.48v-.2l.21-.06V22.9h-.5c0,.17,0,.32,0,.48h.24c0,.08,0,.16,0,.25l-.25.08.06.45h.49c0-.26,0-.49-.06-.73Z"/><path class="cls-11" d="M5.69,21.39c0-.16-.06-.3-.26-.3V19.77l.19-.07.06-.22h.88c0,.08,0,.16.05.24l.21.05V21.1l-.19.07a1.43,1.43,0,0,0,0,.22Zm.44-1.09a2,2,0,0,1,0-.25L6.34,20v-.21H5.91v.51h.22l0,.26-.2.06v.48h.43v-.77Z"/><path class="cls-11" d="M15.07,25.58l.06.21.24,0c0,.41.05.8.08,1.21l-.22.05c0,.06,0,.12-.05.2h-1l-.06-.2L13.88,27l-.12-1.19.25-.07c0-.06,0-.12,0-.2Zm-.7,1c0,.14,0,.27.05.41h.49c0-.22,0-.42-.05-.62,0,0,0,0,0,0h-.19c0,.07,0,.13-.05.2Zm.17-.31c.09-.06,0-.23.16-.23s.12-.11.11-.21h-.49c0,.15,0,.29,0,.43Z"/><path class="cls-10" d="M14.05,13.87c0-.08,0-.15.07-.22h1l.05.22.22.06c0,.4,0,.79-.07,1.19l-.23,0c0,.07,0,.15-.07.24H14a1.85,1.85,0,0,0,0-.23l-.24-.05c0-.39.07-.79.1-1.2Zm.49.54c0-.08,0-.16.05-.25l.24-.06a1.15,1.15,0,0,1,0-.18h-.49v.46l.21,0v.2l-.27.07v.44h.49c0-.24,0-.47.05-.71Z"/><path class="cls-9" d="M13.2,15.12l-.25.05-.06.22h-1a2.25,2.25,0,0,0-.05-.22l-.22-.06c0-.41.1-.81.15-1.23a.24.24,0,0,0,.3-.24h1a1.6,1.6,0,0,0,0,.21l.21.06C13.27,14.31,13.24,14.7,13.2,15.12Zm-.47-.69c-.23-.1-.26.05-.28.18l-.25.06c0,.15,0,.29,0,.45h.49C12.69,14.88,12.71,14.66,12.73,14.43Zm-.49-.1c.3.14.25-.32.5-.23l0-.16,0,0H12.3Z"/><path class="cls-10" d="M8.6,22.6c0,.2.09.29.27.28L9,24.14l-.21.06c0,.06,0,.14,0,.23H7.82a.59.59,0,0,0-.07-.2.91.91,0,0,0-.24-.11c0-.39-.08-.81-.12-1.24l.23-.07c0-.07,0-.13,0-.21ZM8,24.14h.47c0-.23,0-.43-.06-.64a.12.12,0,0,0-.21-.08c0,.07,0,.15,0,.21L8,23.69C8,23.85,8,24,8,24.14ZM7.9,22.88c0,.16,0,.29,0,.42s.14.1.21,0l0-.19.22-.08c0-.08,0-.14-.05-.19Z"/><path class="cls-9" d="M13,25.58c0,.08,0,.15.05.21l.25,0,.12,1.2-.21.06c0,.06,0,.12,0,.19h-1a.26.26,0,0,0-.31-.24c-.05-.4-.1-.78-.16-1.19l.22-.08,0-.19Zm-.43.72c0-.07,0-.13,0-.2l.23-.06c0-.07,0-.15,0-.16a.59.59,0,0,0-.47,0l0,.43h.26v.25l-.22.07c0,.14,0,.28.07.4h.48c0-.25-.06-.46-.08-.68Z"/><path class="cls-8" d="M7.49,16.74l.23,0c0-.07,0-.13.06-.21h.91c0,.13,0,.31.26.28,0,.44-.06.85-.09,1.27l-.24.06a2.25,2.25,0,0,1,0,.22h-1c0-.08,0-.15,0-.23L7.37,18Q7.43,17.4,7.49,16.74Zm.65.53c0-.08,0-.16.07-.25L8.42,17v-.2H8l-.06.48.22,0v.24l-.25.06,0,.47h.48c0-.27,0-.51.05-.77Z"/><path class="cls-8" d="M11.09,13.84l.2.06-.15,1.21-.23,0c0,.07-.05.14-.08.22h-1v-.21l-.24-.07c.07-.41.13-.81.19-1.22.17,0,.31,0,.28-.24H11A1.6,1.6,0,0,0,11.09,13.84Zm-.94,1.27h.47c0-.23.06-.46.09-.74a.77.77,0,0,0-.22.07c0,.2-.18.18-.29.23l0,.15C10.16,14.9,10.16,15,10.15,15.11Zm.62-1.22c-.49-.07-.49-.06-.5.44.19,0,.19,0,.27-.18C10.76,14.1,10.76,14.1,10.77,13.89Z"/><path class="cls-9" d="M6.9,18l-.2.05c0,.08,0,.16-.07.23H5.75c0-.08,0-.16,0-.23L5.51,18c0-.42.08-.83.13-1.27.15,0,.31-.06.26-.28h.89c0,.09,0,.16,0,.24l.2,0C7,17.16,7,17.58,6.9,18Zm-.47,0c0-.25,0-.49.06-.81-.11.06-.22.09-.22.12,0,.18-.15.16-.25.21s0,.31,0,.48ZM6.1,16.73l0,.48c.18,0,.17,0,.22-.09s.06-.13.1-.13.14-.14.13-.26Z"/><path class="cls-12" d="M16.21,12.39,16,12.33c0-.37,0-.74.07-1.12.15,0,.31-.05.29-.26h.93c0,.11.08.27.25.23v1.14c-.15,0-.32.06-.27.27h-1C16.24,12.53,16.23,12.47,16.21,12.39Zm.57-.73,0-.19c.07-.11.31,0,.23-.25h-.46v.42l.21,0c0,.07,0,.14,0,.2l-.24.06v.4H17v-.66Z"/><path class="cls-10" d="M9.68,25.83l.2-.06,0-.21h1c0,.15.08.29.3.23.06.42.11.81.17,1.22l-.21.07,0,.2H10.2c0-.08-.07-.15-.1-.23L9.87,27C9.81,26.61,9.74,26.23,9.68,25.83Zm.82.47c0-.07,0-.13,0-.19.2-.1.2-.1.14-.3h-.45c0,.17.05.31.07.48h.25c0,.07,0,.15,0,.22l-.21.11c0,.14,0,.26.06.39h.48c0-.25-.08-.48-.12-.7Z"/><path class="cls-12" d="M15.49,12.35c-.18,0-.29.05-.29.24h-1c0-.17-.08-.24-.25-.26l.15-1.13c.15,0,.29,0,.28-.24h.95c0,.12,0,.27.25.21C15.56,11.58,15.52,12,15.49,12.35Zm-.67-.69c0-.07,0-.14,0-.2s.31,0,.24-.24h-.46l0,.42.24,0a1.17,1.17,0,0,1-.05.2l-.23.06c0,.13,0,.26,0,.4H15l.06-.66Z"/><path class="cls-12" d="M16.47,29.91c0-.13-.08-.28-.29-.2,0-.4-.07-.76-.11-1.13l.23-.06.05-.19h1l.08.2.22,0c0,.36,0,.72.06,1.1-.14,0-.27,0-.25.24Zm.64-.86h-.22c.05.19-.09.21-.23.23,0,.14,0,.26,0,.37h.46Zm0-.3c0-.22-.09-.24-.48-.16V29l.21,0C16.84,28.78,17,28.78,17.1,28.75Z"/><path class="cls-8" d="M7.94,13.85c.19,0,.28-.06.29-.24h.89c0,.12,0,.28.23.26-.07.42-.13.81-.2,1.22-.13,0-.3.05-.28.26H8c0-.12,0-.27-.23-.26C7.79,14.67,7.86,14.28,7.94,13.85Zm.63.51,0-.23c.15,0,.3,0,.25-.26H8.42l-.09.46.25,0-.08.24-.22.05c0,.15,0,.28-.07.44h.45c0-.24.08-.47.12-.72Z"/><path class="cls-11" d="M15.3,28.33c0,.22.14.21.28.24,0,.36.07.71.1,1.08-.11.05-.26.08-.22.26h-.93a.4.4,0,0,0-.09-.17s-.13,0-.22-.07c-.05-.36-.11-.71-.16-1.09l.13,0,.11,0v-.19Zm-.12,1.33c0-.17,0-.31,0-.45s-.08-.2-.24-.15c0,.18-.13.18-.24.24s0,.24.07.36Zm-.59-1.07c0,.12,0,.26,0,.43l.22-.06c0-.18.16-.17.24-.23C15,28.52,15,28.51,14.59,28.59Z"/><path class="cls-8" d="M9.21,27.25h-.9C8.26,27.11,8.2,27,8,27l-.24-1.2.2,0,0-.22h.9l.08.23.23,0c.06.38.13.77.2,1.17C9.28,27,9.15,27.07,9.21,27.25ZM8.92,27c0-.21-.06-.42-.11-.61s-.11-.08-.2-.13c0,.11,0,.17,0,.23l-.2.08c0,.16.08.3.11.43Zm-.42-.73c.07-.09,0-.21.13-.25s.08-.14,0-.22H8.28C8.27,26.19,8.3,26.25,8.5,26.27Z"/><path class="cls-10" d="M6.24,27,6,26c0-.07,0-.14,0-.24.15,0,.21-.1.17-.26H7a.28.28,0,0,0,.3.27L7.55,27c-.11.06-.24.11-.18.28H6.54L6.43,27Zm.52-.72a.25.25,0,0,1-.19.31c0,.15.08.27.11.4h.43c-.07-.24-.13-.46-.2-.68C6.9,26.26,6.83,26.27,6.76,26.25Zm-.12,0c.09-.08,0-.26.18-.26a.16.16,0,0,0,0-.11s-.06-.11-.09-.11a2.4,2.4,0,0,0-.39,0C6.49,26,6.38,26.2,6.64,26.25Z"/><path class="cls-12" d="M6.77,12.53c0-.1,0-.15,0-.21l-.14-.07s0,0,0-.06l.3-.9c0-.09.07-.19.2-.19A.11.11,0,0,0,7.23,11c0-.19.2-.16.34-.16H8l.19.35-.32,1c-.13,0-.28.07-.29.26Zm.69-.92c0,.1,0,.22-.2.23a.17.17,0,0,0-.11.1,2.22,2.22,0,0,0-.09.33h.4c.06-.22.12-.43.19-.66h-.2c0-.13.07-.27.25-.28s.07-.09.11-.15c-.4-.09-.49,0-.48.39Z"/><path class="cls-11" d="M14.59,8.74l.3-.25h.75c0,.12,0,.24.23.21l-.12,1c-.11,0-.3,0-.27.24h-.86l-.26-.3.17-.94Zm.56.4c0-.06,0-.13,0-.2s.3,0,.22-.23H15l-.08.39.24,0a.24.24,0,0,1-.27.24c0,.13,0,.24-.07.37h.45c0-.2.05-.39.08-.6Z"/><path class="cls-12" d="M9.29,21.16l.49,0v-.74l-.22-.07c0-.07,0-.14,0-.23L9.77,20c0-.18,0-.34.05-.51h.5v1.6l.53,0c0,.09,0,.17,0,.28H9.32Z"/><path class="cls-9" d="M6.67,28.49c.21,0,.18-.11.19-.22h.8c0,.14.1.26.29.23l.35,1.06c-.08.1-.13.18-.21.29H7.47a.18.18,0,0,1-.13-.08.27.27,0,0,0-.2-.16S7,29.52,7,29.46Zm.82,1.11h.39c-.07-.19-.12-.36-.18-.52S7.62,29,7.59,29l-.1.11-.13.17C7.4,29.36,7.45,29.48,7.49,29.6Zm-.13-.66a2,2,0,0,0,.13-.23s0-.1,0-.13a.22.22,0,0,0-.12-.09h-.3C7.19,28.68,7.14,28.89,7.36,28.94Z"/><path class="cls-9" d="M13,21.45H11.41c0-.09,0-.17,0-.27h.5v-.8l-.24,0c0-.07,0-.15,0-.24l.28-.05v-.5h.54v1.62l.54,0Z"/><path class="cls-9" d="M13.91,9.75a.23.23,0,0,0-.28.22h-.82l-.24-.32.25-.94c.14,0,.29,0,.28-.23h.76l.24.31C14.05,9.07,14,9.39,13.91,9.75Zm-.55-.61c0-.12.05-.23.21-.24s.06-.1.12-.19h-.43l-.09.38.19.05c0,.2-.14.2-.27.24s0,.24-.07.36h.43l.11-.6Z"/><path class="cls-11" d="M15,32.27l-.3-.24-.05,0c-.06-.31-.13-.63-.2-1,.12-.05.24-.09.21-.25h.9c0,.14.1.24.28.22.05.32.1.63.14,1-.07.09-.3,0-.2.25Zm0-.55q0,.2.09.33h.41c0-.18,0-.33-.09-.48s0-.08-.09-.09-.1,0-.1.06S15.14,31.67,15,31.72Zm0-.28c.26.09.18-.27.38-.24v-.11h-.45C15,31.22,15,31.32,15,31.44Z"/><path class="cls-7" d="M16.31,17.34l-.24,0a1.77,1.77,0,0,1,0-.23l.26-.05c0-.15,0-.3,0-.47h.54v1.54l.54,0v.25H15.79v-.26h.52Z"/><path class="cls-10" d="M12.17,8.48c.09.11.14.19.22.3-.08.27-.17.6-.26.94-.12,0-.31,0-.27.25H11a1.28,1.28,0,0,0,0-.19l-.15-.06a.19.19,0,0,1,0-.08c.07-.23.14-.47.22-.69s.06-.28.26-.29.1-.12.15-.18Zm-.52.6c0-.09.06-.18.2-.19s.13-.08.09-.19h-.36c0,.13-.08.24-.12.38h.16c0,.08,0,.21-.07.21-.28,0-.23.26-.27.45h.39l.18-.59Z"/><path class="cls-9" d="M14.06,32.27h-.75l-.4-.29c-.07-.25-.16-.56-.23-.82.09-.13.16-.21.23-.32h.8c0,.13.11.26.3.22.07.32.14.64.22,1C14.13,32.09,14,32.09,14.06,32.27Zm-.69-.22h.42c-.1-.22,0-.48-.25-.59l-.24.31C13.32,31.83,13.34,31.94,13.37,32.05Zm-.25-1c0,.12,0,.21.07.29a.21.21,0,0,0,.11.1s.07-.05.11-.08l.1-.11s.06-.09.05-.1a.21.21,0,0,0-.11-.1Z"/><path class="cls-11" d="M7.32,21.41v-.26l.44,0v-.74l-.21-.08c0-.06,0-.14,0-.23L7.77,20c0-.15,0-.3,0-.48H8.3v1.61l.49,0c0,.08,0,.15,0,.26C8.3,21.43,7.81,21.42,7.32,21.41Z"/><path class="cls-12" d="M10.57,8.47l.18.28c-.1.28-.2.57-.31.86,0,.05-.08.13-.11.13s-.16.14-.25.22H9.3c0-.12,0-.25-.15-.24.13-.33.25-.63.38-.93a.5.5,0,0,1,.15-.14h.06c.18-.28.46-.16.7-.18ZM10,9.08c.06-.1.09-.23.25-.22s.07-.08.14-.16H10l-.14.37H10c0,.07-.06.2-.1.21-.26,0-.24.23-.3.41H10c.07-.2.14-.38.21-.59Z"/><path class="cls-10" d="M10.93,31.12c.08-.1.13-.18.2-.28h.72l.39.29c.08.26.18.58.26.86l-.22.28h-.6c-.06,0-.11,0-.16-.09s-.06-.09-.09-.09c-.19,0-.21-.15-.26-.28Zm.66.65.11.27h.4c-.13-.21-.07-.48-.31-.59Zm.06-.33c0-.08-.07-.19.08-.21s.06-.06.06-.1a.12.12,0,0,0-.07-.07h-.33C11.43,31.41,11.43,31.41,11.65,31.44Z"/><path class="cls-7" d="M15.84,24.45v-.22l.51,0c.08-.25,0-.48,0-.73l-.27-.06a1.5,1.5,0,0,1,0-.22l.26-.06c0-.16,0-.31,0-.48h.54c0,.51,0,1,.07,1.54l.52,0a2.15,2.15,0,0,0,0,.23Z"/><path class="cls-9" d="M15.84,15.39v-.24l.53,0v-.71l-.21,0v-.22l.23-.05q0-.21.06-.45H17c0,.47,0,.95,0,1.46h.49v.27Z"/><path class="cls-11" d="M16.45,26.37c-.26-.07-.26-.07-.25-.28l.23,0v-.46H17c0,.46,0,.93.06,1.43l.51,0v.24H16c0-.07,0-.14,0-.23l.51,0C16.48,26.81,16.46,26.6,16.45,26.37Z"/><path class="cls-12" d="M10.84,32l-.16.27h-.59a.6.6,0,0,1-.16-.08,0,0,0,0,1,0,0c-.4-.16-.42-.57-.59-.89a.67.67,0,0,1-.06-.15l.17-.29c.18,0,.39,0,.61,0a.54.54,0,0,1,.18.1.66.66,0,0,1,.17.12.4.4,0,0,1,.14.15C10.65,31.43,10.75,31.71,10.84,32Zm-.76,0h.38c-.14-.2-.1-.47-.34-.57l-.17.29C10,31.81,10,31.91,10.08,32Zm-.14-.57c.11-.06,0-.17.09-.22A.1.1,0,0,0,10,31a.37.37,0,0,0-.36.06C9.79,31.19,9.71,31.44,9.94,31.44Z"/><path class="cls-11" d="M8.4,8.44h.66c.07.08-.08.26.15.21-.14.34-.26.64-.4.94,0,.05-.09.09-.14.14s-.07,0-.08,0c-.13.26-.36.17-.56.18H7.74c-.06-.08,0-.22-.09-.26s0-.08,0-.12L8,8.74s.06-.1.09-.1S8.32,8.52,8.4,8.44Zm.06.64c-.05.06-.09.17-.15.18-.24.06-.24.24-.29.43h.34c.07-.17.15-.33.22-.5s0-.12-.1-.11,0-.22.18-.23.14-.09.13-.19c-.34,0-.4,0-.46.39Z"/><path class="cls-12" d="M15.07,7.63l-.24-.28c.06-.21.11-.46.18-.71,0-.08,0-.15.14-.18s.2-.23.4-.18a2.06,2.06,0,0,0,.43,0c.08.09.14.17.23.26s-.08.47-.12.72c0,.08,0,.15-.13.18s-.2.24-.41.19A2.56,2.56,0,0,0,15.07,7.63Zm.48-.79a.18.18,0,0,1,.16-.19s.06-.08.1-.15h-.36l-.08.34h.18c0,.06,0,.18-.07.19-.23,0-.2.2-.21.36h.37c0-.19.06-.36.08-.53Z"/><path class="cls-10" d="M5.71,24.4c0-.12,0-.19,0-.27l.42,0c0-.25-.05-.47-.07-.68s-.24,0-.25-.21.15-.1.2-.2,0-.28,0-.45l.23,0h.23c.06.52.11,1,.17,1.56l.46.05c0,.08,0,.15,0,.24Z"/><path class="cls-12" d="M14.46,6.28c.27.22.17.45.1.67s-.05.18-.08.27,0,.22-.19.23a.12.12,0,0,0-.08.06c0,.11-.11.11-.2.11h-.58l-.19-.28.26-.72c0-.08.05-.16.16-.17a.13.13,0,0,0,.1-.07c.05-.1.13-.1.22-.1ZM14,6.84c0,.07-.08.18-.13.19-.22,0-.19.21-.22.36H14c.05-.17.09-.34.14-.52l-.16,0c0-.09,0-.18.17-.18s.07-.08.14-.16h-.37c0,.11-.08.2-.13.32Z"/><path class="cls-12" d="M12.6,11.7l-.18-.08c-.07-.21.07-.23.23-.25s.07-.27.1-.42h.46c-.07.46-.13.91-.2,1.37l.46,0c0,.08,0,.15,0,.23H12l0-.24.48,0C12.53,12.11,12.57,11.91,12.6,11.7Z"/><path class="cls-11" d="M15.15,33.1h.72l.34.28a3,3,0,0,0,.11.52c.08.19-.07.29-.13.43a.15.15,0,0,1-.08,0,1.41,1.41,0,0,1-.58,0c-.14-.06-.36-.12-.39-.35s-.07-.25-.1-.38-.12-.28.07-.37C15.14,33.22,15.13,33.15,15.15,33.1ZM16,34.17a3.92,3.92,0,0,0-.1-.43s-.13-.08-.15-.07a.76.76,0,0,0-.17.23.23.23,0,0,0,.2.29Zm-.4-.53.22-.31h-.43C15.46,33.44,15.36,33.63,15.56,33.64Z"/><path class="cls-12" d="M14.81,34.12l-.2.24a1.18,1.18,0,0,0-.32,0c-.25.06-.39-.14-.59-.21,0,0-.06-.09-.08-.14s-.09-.23-.13-.34a2.67,2.67,0,0,1-.12-.33l.18-.26h.62a.25.25,0,0,1,.15.08,1.22,1.22,0,0,1,.43.74Zm-.66-.48c-.09.16-.27.31-.08.49s.21.07.35,0C14.31,34,14.38,33.73,14.15,33.64Zm-.39-.35a2,2,0,0,0,.11.3.14.14,0,0,0,.14,0,2.61,2.61,0,0,0,.18-.29Z"/><path class="cls-9" d="M6.68,13.58h.43c-.1.5-.19,1-.29,1.48l.42,0c0,.09,0,.16,0,.24H5.9c0-.09,0-.16,0-.25l.43,0,.15-.67-.17-.1c-.05-.2.09-.22.23-.24C6.6,13.88,6.64,13.73,6.68,13.58Z"/><path class="cls-10" d="M13,28.33c.08.44.15.87.23,1.33l.46,0c0,.07,0,.13,0,.19s0,0-.07,0H12.53c-.14,0-.2-.06-.17-.23l.41,0c0-.21-.07-.4-.1-.59s-.33,0-.25-.26l.17-.07,0-.4Z"/><path class="cls-13" d="M13.31,34.1l-.17.25h-.28c-.12,0-.28,0-.35,0s-.37-.19-.44-.43a3.94,3.94,0,0,0-.26-.55c.06-.07.11-.15.18-.25h.51a.51.51,0,0,1,.24.1C13.15,33.37,13.1,33.82,13.31,34.1Zm-.39,0c-.09-.18-.11-.38-.29-.49l-.16.26C12.59,34.17,12.59,34.17,12.92,34.13Zm-.31-.78a.4.4,0,0,0-.41,0l.2.32Z"/><path class="cls-11" d="M13,6.28l.16.25c-.09.24-.18.49-.28.74a.53.53,0,0,1-.12.14l-.28.2h-.66c0-.09.05-.23-.16-.22l.39-.83s.09-.07.14-.11l.12-.09a.52.52,0,0,1,.19-.08C12.68,6.27,12.85,6.28,13,6.28Zm-.38.62-.05-.05h-.07c0-.1,0-.17.16-.18a.13.13,0,0,0,.11-.18c-.33,0-.36,0-.42.34l.13,0c0,.06-.08.16-.13.17-.23,0-.21.22-.28.38h.37Z"/><path class="cls-9" d="M11.59,6.27c.05.09.09.16.13.25-.11.24-.22.5-.36.75,0,.06-.1.09-.15.13s-.07,0-.08,0c-.11.24-.32.17-.51.17h-.26c0-.07,0-.16,0-.18s-.09-.1,0-.17l.38-.69a1.12,1.12,0,0,1,.52-.29h.42Zm-.25.22s0,0,0,0c-.28,0-.39.11-.32.39C11,7,11,7,10.87,7s-.22.2-.25.37h.31l.2-.41s0-.11,0-.12,0-.19.08-.22S11.36,6.59,11.34,6.49Z"/><path class="cls-7" d="M11.08,12.32l.43,0c0,.11,0,.23-.12.23H10.1c0-.1,0-.16,0-.23l.45,0,.15-.63-.17-.09c0-.19,0-.19.24-.25l.12-.4h.44C11.27,11.41,11.18,11.85,11.08,12.32Z"/><path class="cls-10" d="M8.27,12.56c0-.39.3-.21.49-.3l.16-.56c-.06-.09-.14-.14-.15-.2s.17-.09.25-.17l.14-.39h.42c-.11.45-.23.87-.35,1.33l.41.08c0,.1,0,.21-.12.21Z"/><path class="cls-7" d="M10.68,28.67c0-.09,0-.21-.06-.35h.47c.11.44.21.88.3,1.29.17.14.47-.1.52.28H10.7c-.14,0-.2-.06-.18-.22l.37,0a2.07,2.07,0,0,0-.12-.61c-.09-.07-.27,0-.26-.16S10.61,28.76,10.68,28.67Z"/><path class="cls-9" d="M8.77,28.28h.45l.38,1.33c.18.11.45-.09.5.27H9c-.14,0-.14,0-.19-.23l.38,0C9.09,29.42,9,29.22,9,29c-.22-.07-.22-.07-.27-.25l.17-.09Z"/><path class="cls-11" d="M16.7,9.2c-.06-.1-.24,0-.19-.18s.12-.11.21-.19,0-.2.06-.34h.44c0,.42,0,.82-.07,1.25l.44,0V10H16.21c-.05-.14,0-.23.13-.22h.32C16.67,9.55,16.68,9.36,16.7,9.2Z"/><path class="cls-10" d="M10.43,33.08H11c.09,0,.15.07.22.1.4.18.42.61.64.91,0,.08-.08.16-.13.24H11.3c-.1,0-.18-.06-.27-.09-.36-.15-.43-.51-.62-.78-.06-.09-.1-.17,0-.25S10.43,33.13,10.43,33.08Zm1.07,1.05c-.12-.19-.16-.39-.34-.51l-.13.25C11.18,34.16,11.18,34.16,11.5,34.13Zm-.4-.74c-.14-.17-.17-.17-.38-.07.06.11.07.26.23.32Z"/><path class="cls-12" d="M16.59,31.27l.19-.06v-.36h.46c0,.4.07.79.11,1.2l.42,0a1.68,1.68,0,0,0,0,.2H16.57c-.12,0-.13-.08-.11-.19l.4,0c0-.18,0-.34,0-.51S16.5,31.52,16.59,31.27Z"/><path class="cls-13" d="M16.78,5.32c0-.17.06-.32.09-.48s0-.22.11-.27.24-.23.45-.19.31,0,.42.16a1.17,1.17,0,0,1-.09.84c-.21.26-.48.13-.73.16,0,0-.06-.06-.09-.09Zm.62-.44c-.07-.17.16-.15.17-.29s-.2-.08-.27,0-.05.17-.08.27h.18s0,.14-.07.15c-.21,0-.16.18-.15.34h.32c0-.14,0-.25,0-.36S17.47,4.88,17.4,4.88Z"/><path class="cls-13" d="M15.39,5.31c.06-.2.13-.4.2-.6a.64.64,0,0,1,.46-.32h.37a.41.41,0,0,1,.13.51,1.33,1.33,0,0,0-.05.19c0,.09-.05.23-.12.27s-.24.26-.44.18h0C15.62,5.54,15.62,5.54,15.39,5.31ZM16,4.88l.26-.28c-.31-.08-.33-.06-.36.26l.11,0S16,5,15.94,5s-.16.17-.17.3c.29.06.29.06.36-.18,0-.08,0-.16.05-.25Z"/><path class="cls-13" d="M17,35.28l0,0c.07-.06.13-.16.21-.17a1.85,1.85,0,0,1,.47,0,.49.49,0,0,1,.39.33c0,.18,0,.36,0,.53-.17.27-.44.2-.69.19s-.31-.19-.34-.33S17,35.46,17,35.28Zm.66.23c0,.17-.27.16-.18.36s.18.08.31.07S17.76,35.65,17.61,35.51Zm-.31-.29c0,.14.05.26.1.29s.1-.09.16-.12l.12-.08v-.06Z"/><path class="cls-12" d="M16.75,6.81c0-.18.14-.12.2-.18S17,6.41,17,6.3h.37c0,.36,0,.72-.08,1.09l.38,0c0,.11,0,.19-.11.19H16.48c0-.2,0-.2.4-.24,0-.16,0-.32,0-.49Z"/><path class="cls-12" d="M15.55,35.28c.07-.08.13-.2.21-.21a.93.93,0,0,1,.55,0c.13.06.33.13.35.36a3,3,0,0,0,.11.48.34.34,0,0,1-.36.2c-.15,0-.29,0-.44-.09a.64.64,0,0,1-.28-.35C15.64,35.55,15.6,35.42,15.55,35.28Zm.91.66c-.08-.13-.05-.3-.21-.41l-.19.21C16.16,36,16.16,36,16.46,35.94Zm-.52-.73,0,.06.13.29.27-.29Z"/><path class="cls-12" d="M8.09,31.12c0-.1-.07-.2-.11-.33h.37c.2.41.39.82.57,1.21.38,0,.38,0,.46.22-.34,0-.67,0-1,0-.06,0-.12-.09-.22-.17L8.52,32c-.08-.17-.16-.34-.24-.49a.26.26,0,0,0-.14-.09C8,31.33,8,31.29,8.09,31.12Z"/><path class="cls-12" d="M16.79,34.2l.33-.05c0-.15,0-.28-.05-.39l-.22-.21.17-.14v-.3h.41c0,.34.07.68.11,1s.37,0,.41.27h-1C16.82,34.36,16.75,34.33,16.79,34.2Z"/><path class="cls-12" d="M10.17,6.27,9.53,7.33l.29.06c0,.15-.09.19-.21.19H8.74c0-.15.06-.23.19-.21a.29.29,0,0,0,.34-.22c.05-.12.24-.21.12-.39,0,0,.06-.13.1-.13s.19-.11.24-.21S10,6.2,10.17,6.27Z"/><path class="cls-13" d="M14.73,5.31l.35.08c-.08.07-.13.14-.18.15H14c.06-.19.06-.19.37-.21L14.5,5a.11.11,0,0,0,0-.11c-.07-.09,0-.13,0-.17s.16-.09.18-.15.2-.21.39-.15C15,4.71,14.85,5,14.73,5.31Z"/><path class="cls-13" d="M13.39,5.31l.27.05c0,.11,0,.18-.15.18h-.86c0-.18.07-.2.18-.21a.41.41,0,0,0,.36-.48.16.16,0,0,1,.08-.14.33.33,0,0,0,.21-.17c.12-.17.12-.17.39-.14C13.71,4.7,13.55,5,13.39,5.31Z"/><path class="cls-12" d="M16,2.85c.13.29-.1.5-.22.69s-.44.25-.72.21c-.12-.1-.11-.2,0-.33a4,4,0,0,1,.23-.34A.69.69,0,0,1,16,2.85Zm-.78.7c.25.06.4,0,.41-.25A.29.29,0,0,1,15.81,3c-.27,0-.3,0-.33.27Z"/><path class="cls-12" d="M16.17,3.76a.29.29,0,0,1-.05-.39c.09-.15.12-.33.3-.44a.69.69,0,0,1,.48-.07.17.17,0,0,1,.14.22c0,.15-.09.3-.14.45a.58.58,0,0,1-.34.23C16.43,3.77,16.3,3.76,16.17,3.76ZM16.8,3c-.27,0-.32,0-.25.3a.27.27,0,0,0-.19.34c.08,0,.2,0,.22-.08a2.33,2.33,0,0,0,.11-.47Z"/><path class="cls-12" d="M12.7,4.4l-.6.9.24,0a.15.15,0,0,1-.17.17l-.8,0c0-.14.09-.16.19-.17A.48.48,0,0,0,12,4.85c0-.09,0-.15.1-.16a.42.42,0,0,0,.25-.2C12.43,4.36,12.54,4.35,12.7,4.4Z"/><path class="cls-13" d="M15.54,36.1h-.89s-.06-.06-.1-.12l.27-.06c-.09-.16-.1-.37-.34-.41,0,0-.05-.09,0-.09.17-.1,0-.23,0-.34.32,0,.31,0,.44.22s.19.42.28.62C15.45,36,15.45,36,15.54,36.1Z"/><path class="cls-13" d="M13.35,36l.2,0c0-.11-.19-.36-.41-.46a.65.65,0,0,0,0-.19,1.13,1.13,0,0,0-.09-.2c.3-.06.3-.06.43.16s.2.34.29.51.15.23.32.21.12,0,.17.1a2.44,2.44,0,0,1-.85,0S13.39,36,13.35,36Z"/><path class="cls-13" d="M14.71,37.4a.81.81,0,0,1-.25-.09,2,2,0,0,1-.34-.37.57.57,0,0,1-.08-.23.85.85,0,0,1,.81.15,1,1,0,0,1,.35.64c-.17,0-.36.12-.49-.1l.29,0-.28-.32-.06,0C14.67,37.19,14.69,37.3,14.71,37.4Zm-.42-.58.23.25c0-.1,0-.15.06-.23Z"/><path class="cls-13" d="M13.09,36.11c-.29-.06-.61.1-.92-.14l.2,0s0,0,0-.05-.2-.36-.44-.4c0,0-.06-.07-.06-.08s-.07-.21-.06-.33a.3.3,0,0,1,.4.15c.09.15.2.29.3.43s.23.35.48.31c0,0,.08.06.12.1Z"/><path class="cls-11" d="M17.11,3.76c.07-.2.22-.11.33-.21V3.12c.15,0,.09-.39.4-.23,0,.22-.06.44-.1.69l.29.06c0,.06-.07.11-.09.11Z"/><path class="cls-14" d="M21.44,8.13c-.07-.76-.18-1.52-.21-2.28a17.41,17.41,0,0,1,.06-1.91c0-.37.09-.73.14-1.1a1.82,1.82,0,0,1,.07-.25.33.33,0,0,1,.33-.24,5.19,5.19,0,0,1,.56,0c.47,0,.95.09,1.42.17a3.87,3.87,0,0,1,.72.2.92.92,0,0,1,.49.4,1.33,1.33,0,0,0,.51.46A6.4,6.4,0,0,0,27,4.12a4.88,4.88,0,0,1,2,1.13c.64.59,1.24,1.22,1.83,1.85s.88,1,1.28,1.48a12.85,12.85,0,0,1,1.62,2.62s0,.08,0,.13l-.19.05c-1.24.27-2.47.6-3.68,1a.57.57,0,0,0-.33.24l-.64.92c-.34.53-.66,1.06-1,1.59-.05.08-.13.18-.21.19-.44.08-.89.13-1.31.19-.34-.49-.69-.64-1.1-.48a.85.85,0,0,0-.52.82.81.81,0,0,0,.64.72c.48.08.75-.1,1-.7.36-.05.72-.08,1.08-.14.64-.13.45,0,.79-.54.46-.71.92-1.41,1.37-2.12a1,1,0,0,1,.58-.44c.74-.2,1.46-.44,2.2-.65.48-.13,1-.23,1.44-.34A7.51,7.51,0,0,1,34.46,15a7.72,7.72,0,0,0,.27,2.91,13,13,0,0,1,.48,2.29,6.44,6.44,0,0,1-.11,2.23c-.16.65-.32,1.3-.51,1.94a4.5,4.5,0,0,1-.38.87,5.8,5.8,0,0,0-.55,1.25L33.32,26a.25.25,0,0,0-.27-.1L31,26.31a.35.35,0,0,1-.39-.1.61.61,0,0,0-.91,0,.72.72,0,0,0,.06,1,.64.64,0,0,0,1-.32c.05-.12.09-.21.23-.24l1.95-.37a.26.26,0,0,1,.23.05,1.45,1.45,0,0,1,.41.72c0,.26-.09.53-.14.79a11.26,11.26,0,0,1-.61,1.89c-.11.3-.23.59-.31.9a3.15,3.15,0,0,1-1.39,1.83c-.32.21-.66.42-1,.65A3.42,3.42,0,0,0,29,34.48a3.25,3.25,0,0,1-.77,1c-.14.14-.3.26-.43.4a2,2,0,0,1-1,.64c-.09,0-.19.07-.29.1a.48.48,0,0,0-.4.38.46.46,0,0,1-.14.23,1.58,1.58,0,0,1-1.1.49.74.74,0,0,1-.67-.34,1.94,1.94,0,0,0-1.33-.84,4.63,4.63,0,0,1-.81-.3,2.47,2.47,0,0,1-.59-.38.67.67,0,0,1-.23-.57s0,0,0-.06a7.05,7.05,0,0,1,.3-2.14c.09-.54.14-1.09.19-1.64a2.85,2.85,0,0,0,0-.5L24,30.76a.26.26,0,0,1,.27.15l.51.93a.39.39,0,0,1,0,.21c-.09.35-.19.69-.29,1a.21.21,0,0,1-.19.17.63.63,0,0,0-.49.55.62.62,0,0,0,.39.69.56.56,0,0,0,.69-.32.68.68,0,0,0-.14-.84c.11-.39.21-.76.33-1.14a.61.61,0,0,0,0-.48c-.15-.3-.3-.6-.46-.9-.29-.49-.16-.43-.73-.42-.77,0-1.53.06-2.29.1-.1-.41-.18-.82-.28-1.22a3,3,0,0,1,0-1.46l.76,0,3.07-.13a.46.46,0,0,1,.41.18c.43.54.87,1.08,1.32,1.6a.94.94,0,0,1,.23.92c-.15.57-.25,1.16-.36,1.73l-.1,0a.68.68,0,0,0-.51.79.56.56,0,0,0,.77.44.67.67,0,0,0,.26-1,.49.49,0,0,1-.08-.48c.14-.56.25-1.13.41-1.69a.76.76,0,0,0-.17-.75l-1.68-2.06a.27.27,0,0,0-.24-.11l-.84,0-3.19.09c0-.26,0-.52.07-.77l0-1.14a2.51,2.51,0,0,1,.27,0c.36,0,.73,0,1.09,0l3-.1a.36.36,0,0,1,.33.16c.49.66,1,1.3,1.49,2s.79,1.13,1.18,1.7a.66.66,0,0,1,.14.53l-.33,1.61a.31.31,0,0,1-.24.27.61.61,0,0,0-.46.57.62.62,0,0,0,.38.65.57.57,0,0,0,.71-.34.65.65,0,0,0,0-.67.42.42,0,0,1-.06-.36c.14-.59.27-1.18.41-1.77a.53.53,0,0,0-.06-.43c-.12-.18-.22-.37-.34-.55-.81-1.22-1.71-2.38-2.61-3.53a.38.38,0,0,0-.36-.17l-1.09,0L21.81,25a1.65,1.65,0,0,0-.31,0,5.29,5.29,0,0,1-.27-2l1.2-.07,1.28-.06c.83-.05,1.66-.1,2.49-.17a.45.45,0,0,1,.44.21c.39.54.8,1.06,1.19,1.6a.3.3,0,0,0,.3.15,2.26,2.26,0,0,1,.26,0c.86-.07,1.73-.13,2.59-.21a11.73,11.73,0,0,0,1.93-.37l.36-1,.15,0a.72.72,0,0,0,.6-.68.61.61,0,0,0-.67-.71.72.72,0,0,0-.52,1.06.53.53,0,0,1,0,.54,1.32,1.32,0,0,0-.12.31c-.05.22-.2.29-.4.34a23.38,23.38,0,0,1-4,.4.38.38,0,0,1-.35-.18c-.39-.53-.8-1.05-1.19-1.59a.44.44,0,0,0-.42-.2L25,22.43h-.67l-3.11.09.24-1.88c0-.1,0-.2,0-.3a2.2,2.2,0,0,1,.36,0L25,20.18c.62,0,1.23-.07,1.84-.13a.46.46,0,0,1,.46.17l1.18,1.31a.45.45,0,0,0,.39.17c.75,0,1.5-.11,2.25-.2A.88.88,0,0,0,31.9,21a.22.22,0,0,1,.24-.14.73.73,0,0,0,.71-.7.62.62,0,0,0-.61-.71.74.74,0,0,0-.6,1.06.31.31,0,0,1-.07.41c-.06.05-.09.12-.15.17a.43.43,0,0,1-.21.11l-2.2.17a.37.37,0,0,1-.34-.14c-.41-.46-.83-.91-1.24-1.38a.43.43,0,0,0-.38-.17c-.51,0-1,.09-1.54.11l-2.38.08-.3,0H21.4c0-.37,0-.74-.08-1.11l3.25-.11L26,18.6c.29,0,.57-.07.86-.1a.52.52,0,0,0,.39-.23c.22-.34.45-.67.67-1a.31.31,0,0,1,.27-.17l2.19-.27a.25.25,0,0,1,.26.1.73.73,0,0,0,.55.31.75.75,0,0,0,.78-.51.7.7,0,0,0-.32-.84.78.78,0,0,0-1.09.36,2.13,2.13,0,0,0-.09.3l-.19,0-2.24.17a.41.41,0,0,0-.36.2c-.2.34-.43.66-.65,1a.44.44,0,0,1-.39.23L24,18.28c-.68,0-1.37,0-2.05,0-.23,0-.46,0-.69,0,0-.68.06-1.36.06-2,0-.34-.06-.68-.08-1s0-.56,0-.84c0-.11,0-.22,0-.33.79-.05,1.57-.09,2.35-.15.5,0,1-.11,1.5-.17a.47.47,0,0,0,.39-.26c.39-.69.79-1.36,1.17-2.05l1.19-2.19c0-.07.11-.17.18-.19.26-.06.53-.1.78-.14.32.4.59.51.92.37a.76.76,0,0,0,.42-.74.67.67,0,0,0-.61-.6.82.82,0,0,0-.4.1.69.69,0,0,0-.35.55l-.9.11a.32.32,0,0,0-.28.19c-.25.49-.5,1-.77,1.46-.53,1-1.08,1.9-1.61,2.86a.37.37,0,0,1-.31.2c-.19,0-.37,0-.56,0l-3,.07c.07-.5.15-1,.21-1.5,0-.19,0-.39,0-.58a22.88,22.88,0,0,0,2.87-.1.33.33,0,0,0,.29-.17c.38-.68.77-1.34,1.15-2,.13-.22.24-.44.35-.67h.15a.73.73,0,0,0,.73-.84.59.59,0,0,0-.86-.48A.76.76,0,0,0,26,8.1a.36.36,0,0,1,0,.39l-1.35,2.36a.26.26,0,0,1-.25.14l-2.68,0c0-.41,0-.82,0-1.23h1.48a.32.32,0,0,0,.32-.17q.74-1.19,1.5-2.37a1.24,1.24,0,0,0,.22-.84,2.54,2.54,0,0,1,0-.39L25.3,6A.68.68,0,0,0,25.43,5a.56.56,0,0,0-.94,0A.69.69,0,0,0,24.7,6c.06,0,.16.09.16.13a1.54,1.54,0,0,1-.1.85c-.5.77-1,1.54-1.48,2.31a.38.38,0,0,1-.37.2c-.44,0-.88,0-1.31-.05l-.12-.9.73,0a.3.3,0,0,0,.31-.14c.33-.6.67-1.19,1-1.78a.81.81,0,0,0,.08-.38c0-.3,0-.59,0-.89A.33.33,0,0,1,23.75,5,.58.58,0,0,0,24,4.45a.65.65,0,0,0-.46-.66.55.55,0,0,0-.63.3.71.71,0,0,0,.18.86l.2.13V6a1,1,0,0,1-.16.59c-.28.46-.57.92-.84,1.38a.27.27,0,0,1-.28.14Z"/><path class="cls-15" d="M21.63,30.49c.76,0,1.52-.08,2.29-.1.56,0,.44-.07.73.42.16.3.31.6.46.9a.63.63,0,0,1,0,.49c-.12.37-.22.74-.33,1.13a.68.68,0,0,1,.14.84.56.56,0,0,1-.69.32.62.62,0,0,1-.39-.69.63.63,0,0,1,.49-.55.22.22,0,0,0,.19-.17c.1-.34.2-.68.28-1a.31.31,0,0,0,0-.21l-.51-.93a.26.26,0,0,0-.27-.15l-2.35.14c-.08,0-.18,0-.17-.12S21.44,30.52,21.63,30.49Zm3.05,3.37a.23.23,0,0,0-.19-.27.27.27,0,0,0-.26.3c0,.17.06.26.18.26A.27.27,0,0,0,24.68,33.86Z"/><path class="cls-15" d="M32.24,19.45a.73.73,0,0,0-.6,1.05.31.31,0,0,1-.07.41c-.05.05-.09.12-.15.17a.43.43,0,0,1-.21.11l-2.2.17a.37.37,0,0,1-.34-.14c-.41-.46-.83-.91-1.24-1.38a.43.43,0,0,0-.38-.17c-.51,0-1,.09-1.54.11-.79,0-1.58,0-2.37.08l-.31,0H21.4c-.2,0-.13.2-.12.31s.08.16.19.15a2.2,2.2,0,0,1,.36,0L25,20.18c.62,0,1.23-.07,1.85-.13a.45.45,0,0,1,.45.17c.39.45.79.87,1.18,1.31a.45.45,0,0,0,.39.17,21.12,21.12,0,0,0,2.25-.2A.88.88,0,0,0,31.9,21a.22.22,0,0,1,.24-.14.73.73,0,0,0,.72-.7A.61.61,0,0,0,32.24,19.45Zm0,1a.23.23,0,0,1-.27-.1.37.37,0,0,1,.05-.43c.08-.1.17-.18.31-.13a.26.26,0,0,1,.16.28A.38.38,0,0,1,32.24,20.47Z"/><path class="cls-15" d="M35.75,19.83c-.14-.85-.34-1.68-.56-2.51A5.48,5.48,0,0,1,35,15.43a8.53,8.53,0,0,0-.39-3.58,12.35,12.35,0,0,0-1.72-3.2,29.74,29.74,0,0,0-3.47-3.8,5.15,5.15,0,0,0-2.3-1.29c-.41-.11-.81-.27-1.21-.42a1,1,0,0,1-.49-.41A1.57,1.57,0,0,0,25,2.32,2.54,2.54,0,0,0,24,2c-.6-.08-1.2-.16-1.8-.21-.85-.07-1.22.3-1.31,1s-.17,1.33-.2,2,0,1.23.05,1.84.09,1.33.18,2a16.62,16.62,0,0,1,.17,2.73,10.48,10.48,0,0,1-.27,2.3,6.27,6.27,0,0,0-.14,1.78c0,.4.06.8.06,1.2s-.06.9,0,1.34a17.74,17.74,0,0,0,.13,1.79,5.63,5.63,0,0,1,0,1.69,8.16,8.16,0,0,0-.14,1.56c0,.26,0,.52,0,.78a4.48,4.48,0,0,0,.08.64,5.52,5.52,0,0,1,.21,2.1c-.11.68-.18,1.37-.26,2.05a.92.92,0,0,0,0,.33L21,30.48a3.81,3.81,0,0,1,.07.47,8.19,8.19,0,0,1-.34,2.74,2.5,2.5,0,0,0-.11.9v.2h0v.56a1.12,1.12,0,0,0,.34.83,2.23,2.23,0,0,0,.55.42,13,13,0,0,0,1.23.47,1.5,1.5,0,0,1,.9.56,1.43,1.43,0,0,0,1.68.55,1.73,1.73,0,0,0,1.14-.76.89.89,0,0,1,.6-.44c.08,0,.16-.07.24-.09A1.34,1.34,0,0,0,28,36.5l1.08-1a1.45,1.45,0,0,0,.36-.49,3.58,3.58,0,0,1,1.41-1.62,8,8,0,0,0,1-.7,3.18,3.18,0,0,0,1.11-1.54c.19-.53.37-1.06.57-1.58a8.5,8.5,0,0,0,.57-2.16,4.31,4.31,0,0,1,.64-1.86,5.54,5.54,0,0,0,.45-1.06c.17-.53.3-1.07.43-1.62A7.32,7.32,0,0,0,35.75,19.83ZM35.1,22.4c-.16.65-.32,1.3-.51,1.94a4.5,4.5,0,0,1-.38.87,5.8,5.8,0,0,0-.55,1.25l.28.75h0l-.28-.75c-.12-.14-.23-.29-.34-.43a.24.24,0,0,0-.27-.11c-.69.13-1.39.25-2.08.4a.36.36,0,0,1-.39-.11.61.61,0,0,0-.92.05.7.7,0,0,0,.06,1,.64.64,0,0,0,1-.32c.05-.12.09-.21.23-.23l1.95-.38a.3.3,0,0,1,.23.05,1.6,1.6,0,0,1,.42.72l.08.11-.09-.11c0,.26-.09.53-.14.79a11.26,11.26,0,0,1-.61,1.89c-.11.3-.23.59-.31.9a3.15,3.15,0,0,1-1.39,1.83c-.32.22-.66.42-1,.65A3.42,3.42,0,0,0,29,34.48a3.43,3.43,0,0,1-.77,1,5.36,5.36,0,0,0-.43.4,2,2,0,0,1-1,.63l-.29.1a.48.48,0,0,0-.4.38.46.46,0,0,1-.14.23,1.54,1.54,0,0,1-1.1.49.74.74,0,0,1-.67-.34,1.94,1.94,0,0,0-1.33-.84,4,4,0,0,1-.81-.3,2.78,2.78,0,0,1-.59-.37.7.7,0,0,1-.23-.58s0,0,0-.06a7.05,7.05,0,0,1,.3-2.14c.09-.54.14-1.09.19-1.64a2.85,2.85,0,0,0,0-.5c-.08,0-.18,0-.17-.12s-.06-.26.12-.29c-.09-.41-.17-.82-.28-1.22a3.13,3.13,0,0,1,0-1.46c-.17-.09-.11-.25-.09-.38h0c0,.13-.08.29.09.38l.76,0,3.07-.13a.46.46,0,0,1,.41.18c.43.54.87,1.08,1.31,1.6a.92.92,0,0,1,.24.92c-.15.57-.25,1.16-.36,1.73,0,0-.07,0-.1,0a.68.68,0,0,0-.51.79.55.55,0,0,0,.77.44.67.67,0,0,0,.26-1,.47.47,0,0,1-.08-.48c.14-.56.25-1.13.41-1.69a.74.74,0,0,0-.17-.74l-1.68-2.07a.29.29,0,0,0-.24-.11l-.84,0-3.19.09h0c0-.26,0-.51.06-.77s0-.76,0-1.14c-.24,0-.28-.05-.27-.25s0-.16.11-.16c-.09,0-.1,0-.11.16s0,.23.27.25a2.51,2.51,0,0,1,.27,0l1.09,0,3-.1a.38.38,0,0,1,.33.16c.49.66,1,1.3,1.49,2s.79,1.13,1.18,1.7a.63.63,0,0,1,.14.52l-.33,1.61a.31.31,0,0,1-.24.27.61.61,0,0,0-.46.57.62.62,0,0,0,.38.65.57.57,0,0,0,.71-.34.65.65,0,0,0,0-.67.42.42,0,0,1-.06-.36c.14-.59.27-1.18.41-1.77a.53.53,0,0,0-.06-.43c-.12-.18-.22-.37-.34-.55-.81-1.22-1.71-2.38-2.61-3.53a.38.38,0,0,0-.36-.17l-1.09,0L21.81,25c-.1,0-.2,0-.31,0h0a5.29,5.29,0,0,1-.27-2h0l1.2-.07,1.29-.06,2.48-.16a.42.42,0,0,1,.44.21l1.19,1.59a.33.33,0,0,0,.31.16h.25c.86-.07,1.73-.13,2.59-.21a11.73,11.73,0,0,0,1.93-.37l.36-1,.15,0a.71.71,0,0,0,.6-.68.61.61,0,0,0-.67-.71.72.72,0,0,0-.52,1.06.53.53,0,0,1,0,.54,1.39,1.39,0,0,0-.12.32.44.44,0,0,1-.4.33,22.42,22.42,0,0,1-4,.4.37.37,0,0,1-.35-.17c-.39-.54-.8-1.06-1.19-1.6a.44.44,0,0,0-.42-.2L25,22.43l-.67,0-3.11.08-.27,0V23h0v-.47l.27,0,.24-1.88c0-.1,0-.2,0-.3s-.19,0-.2-.15-.07-.27.13-.31c0-.37,0-.74-.08-1.11h0l3.25-.11c.48,0,1,0,1.45-.07.29,0,.58-.07.86-.1a.48.48,0,0,0,.39-.23c.22-.34.45-.67.67-1a.31.31,0,0,1,.27-.17q1.09-.12,2.19-.27a.26.26,0,0,1,.27.11.73.73,0,0,0,.54.3.76.76,0,0,0,.79-.51.71.71,0,0,0-.33-.84.78.78,0,0,0-1.09.36,2.13,2.13,0,0,0-.09.3l-.19,0-2.23.17a.4.4,0,0,0-.36.2c-.21.34-.44.66-.65,1a.47.47,0,0,1-.39.22L24,18.28l-2,0c-.24,0-.47,0-.7,0-.08,0-.14,0-.14.12v.36h0V18.4c0-.09.06-.12.14-.12,0-.68.06-1.36.06-2,0-.34-.06-.68-.07-1s0-.56,0-.84c0-.11,0-.22,0-.33h0l2.34-.15c.5,0,1-.11,1.5-.16a.5.5,0,0,0,.4-.27c.38-.69.78-1.36,1.16-2.05s.79-1.46,1.19-2.19c0-.07.11-.17.18-.19.26-.06.53-.1.78-.14.32.41.6.51.92.37a.74.74,0,0,0,.42-.73.67.67,0,0,0-.6-.61.79.79,0,0,0-.4.1.74.74,0,0,0-.36.55l-.9.12a.29.29,0,0,0-.28.18c-.25.49-.5,1-.76,1.47L25.25,13.2a.34.34,0,0,1-.31.2c-.18,0-.37,0-.56,0l-3,.08c.07-.51.14-1,.2-1.51a5.65,5.65,0,0,0,0-.58,23.1,23.1,0,0,0,2.88-.1.32.32,0,0,0,.29-.17c.38-.67.77-1.34,1.15-2,.12-.21.23-.44.35-.67h.14a.73.73,0,0,0,.73-.83.59.59,0,0,0-.86-.49A.75.75,0,0,0,26,8.1a.41.41,0,0,1,0,.39c-.45.79-.91,1.57-1.35,2.36a.27.27,0,0,1-.25.14l-2.69,0c0-.41,0-.82,0-1.23h1.48a.31.31,0,0,0,.32-.17c.5-.79,1-1.58,1.5-2.37a1.19,1.19,0,0,0,.22-.84c0-.12,0-.26,0-.39L25.3,6A.68.68,0,0,0,25.43,5a.55.55,0,0,0-.93,0,.69.69,0,0,0,.2.94c.06,0,.16.09.16.14a1.52,1.52,0,0,1-.1.84c-.5.77-1,1.54-1.48,2.31a.38.38,0,0,1-.37.2L21.6,9.42h0c0-.3-.08-.6-.11-.9.24,0,.48,0,.72,0a.3.3,0,0,0,.31-.14c.33-.6.67-1.18,1-1.78a.81.81,0,0,0,.08-.38c0-.29,0-.59,0-.89A.31.31,0,0,1,23.75,5,.57.57,0,0,0,24,4.45a.65.65,0,0,0-.46-.66.57.57,0,0,0-.63.3.7.7,0,0,0,.18.86l.2.13V6a1,1,0,0,1-.15.59c-.29.46-.57.92-.85,1.38a.28.28,0,0,1-.28.15h-.61c-.07-.76-.18-1.52-.21-2.28A17.15,17.15,0,0,1,21.3,4a10.2,10.2,0,0,1,.14-1.11,1,1,0,0,1,.06-.25.33.33,0,0,1,.33-.24,5.19,5.19,0,0,1,.56,0c.47.05.95.09,1.42.17a4.84,4.84,0,0,1,.72.2.92.92,0,0,1,.49.4,1.33,1.33,0,0,0,.51.46A6.31,6.31,0,0,0,27,4.12a4.91,4.91,0,0,1,2,1.13c.64.59,1.24,1.22,1.83,1.85s.88,1,1.28,1.48a12.85,12.85,0,0,1,1.62,2.62s0,.08,0,.13l.25,0h0l-.25,0-.19.05c-1.24.27-2.47.6-3.68,1a.57.57,0,0,0-.33.24c-.21.31-.43.61-.63.92L28,15.1c-.05.08-.13.18-.21.19-.44.08-.88.13-1.31.19-.34-.49-.69-.64-1.1-.48a.86.86,0,0,0-.52.82.81.81,0,0,0,.64.72c.48.08.76-.1,1-.7.36-.05.72-.08,1.08-.14.64-.13.45,0,.79-.54.46-.71.92-1.41,1.37-2.12a1,1,0,0,1,.58-.44c.74-.2,1.47-.44,2.2-.65.48-.13,1-.23,1.44-.34A7.56,7.56,0,0,1,34.46,15a7.72,7.72,0,0,0,.27,2.91,12.12,12.12,0,0,1,.48,2.29A6.42,6.42,0,0,1,35.1,22.4Zm-4.69,4.31a.33.33,0,0,1-.33.31.27.27,0,0,1-.24-.32.32.32,0,0,1,.33-.31A.27.27,0,0,1,30.41,26.71Zm-3.41,6a.28.28,0,0,1-.26.31.24.24,0,0,1-.2-.26.31.31,0,0,1,.27-.31C26.93,32.46,27,32.56,27,32.72Zm1.84-.63a.31.31,0,0,1-.26.31c-.11,0-.19-.11-.2-.25a.28.28,0,0,1,.26-.31C28.76,31.84,28.84,31.94,28.84,32.09Zm4.25-9.69A.35.35,0,0,1,33.4,22c.16,0,.27.12.27.32a.35.35,0,0,1-.31.36C33.19,22.72,33.09,22.6,33.09,22.4Zm-2.17-5.89a.36.36,0,0,1,.37-.31.34.34,0,0,1,.35.32.35.35,0,0,1-.37.31A.34.34,0,0,1,30.92,16.51ZM21.23,8.16Zm.06,5.42s0,0,0,.05h0S21.28,13.6,21.29,13.58Zm7.89-4.94a.33.33,0,0,1,.34-.35.29.29,0,0,1,.28.34.33.33,0,0,1-.32.34A.31.31,0,0,1,29.18,8.64Zm-2.91-.81a.38.38,0,0,1,.36-.38.25.25,0,0,1,.23.29.4.4,0,0,1-.36.39A.27.27,0,0,1,26.27,7.83Zm-1.52-2.4c0-.16.09-.31.22-.31s.23.14.23.3a.23.23,0,1,1-.45,0ZM23.47,4.7a.25.25,0,0,1-.24-.28.24.24,0,0,1,.21-.28c.14,0,.24.12.24.28A.24.24,0,0,1,23.47,4.7Zm2.51,11a.34.34,0,0,1-.34.36.36.36,0,0,1-.38-.33.36.36,0,0,1,.35-.36A.34.34,0,0,1,26,15.74Z"/><path class="cls-16" d="M16.35,20.66l.24,0,0-.24h.24v.79h-.51Z"/><path class="cls-3" d="M16.87,20.07l-.29,0a2.34,2.34,0,0,1,0,.26h-.2v-.52h.52C16.86,19.91,16.87,20,16.87,20.07Z"/><path class="cls-16" d="M14.37,20.35l.26,0v.78h-.52v-.5l.25-.06a2.46,2.46,0,0,1,0-.26Z"/><path class="cls-3" d="M14.38,20.35h-.27v-.51h.52v.22l-.26,0v.25Z"/><path class="cls-2" d="M14.43,17.33h.22v.75h-.5v-.47l.24-.05c0-.08,0-.16,0-.24Z"/><path class="cls-5" d="M14.43,17.32l-.27,0v-.51h.52V17l-.25.05v.26Z"/><path class="cls-16" d="M12.52,17.33c0,.26,0,.5,0,.75H12v-.47l.24-.08a1.43,1.43,0,0,0,0-.2Z"/><path class="cls-16" d="M12.28,17.06c-.06.22-.06.22-.26.19v-.46h.49V17Z"/><path class="cls-16" d="M12,23.7l.25,0a2.07,2.07,0,0,1,0-.22h.22c0,.25,0,.48.05.74h-.5Q12.05,24,12,23.7Z"/><path class="cls-4" d="M12.24,23.41H12c0-.16,0-.31,0-.5l.52,0,0,.23-.25.06C12.26,23.25,12.25,23.32,12.24,23.41Z"/><path class="cls-3" d="M14.42,23.44h.28v.75h-.49a3.64,3.64,0,0,0,0-.45l.25-.07v-.24Z"/><path class="cls-5" d="M14.43,23.43h-.27V22.9h.35c.17,0,.17,0,.17.24l-.24,0c0,.09,0,.18,0,.26Z"/><path class="cls-3" d="M10.16,17.27l.22.05v.73H9.89v-.46l.26-.07c0-.08,0-.17,0-.25Z"/><path class="cls-16" d="M10.17,17.26H10v-.47h.48V17l-.24,0,0,.22Z"/><path class="cls-16" d="M10.17,23.38l.26.05c0,.24,0,.47.06.73H10l-.06-.45.25-.08c0-.09,0-.17,0-.25Z"/><path class="cls-16" d="M10.17,23.38H9.93c0-.16,0-.31,0-.48h.5v.22l-.21.06v.2Z"/><path class="cls-16" d="M6.13,20.3l.2,0v.77H5.9v-.48l.2-.06,0-.26Z"/><path class="cls-16" d="M6.13,20.29H5.92v-.51h.41V20l-.22.07a2,2,0,0,0,0,.25Z"/><path class="cls-3" d="M14.37,26.61l.22-.06c0-.07,0-.13.05-.2h.18s0,0,0,0c0,.2,0,.4.05.62h-.49C14.4,26.88,14.38,26.75,14.37,26.61Z"/><path class="cls-3" d="M14.54,26.3h-.2c0-.14,0-.28,0-.43h.49c0,.1.06.21-.11.21S14.63,26.24,14.54,26.3Z"/><path class="cls-3" d="M14.54,14.41h.27c0,.24,0,.47-.05.71h-.48v-.44l.26-.07v-.2Z"/><path class="cls-16" d="M14.54,14.41l-.21,0v-.46h.49a1.15,1.15,0,0,0,0,.18l-.24.06c0,.09,0,.17-.05.25Z"/><path class="cls-16" d="M12.73,14.43c0,.23,0,.45-.06.69h-.49c0-.16,0-.3,0-.45l.25-.06C12.47,14.48,12.5,14.33,12.73,14.43Z"/><path class="cls-3" d="M12.24,14.33l.06-.41h.45l0,0,0,.16C12.49,14,12.54,14.47,12.24,14.33Z"/><path class="cls-3" d="M8,24.14c0-.14,0-.29,0-.45l.21-.06c0-.06,0-.14,0-.21a.12.12,0,0,1,.21.08c0,.21,0,.41.06.64Z"/><path class="cls-3" d="M7.9,22.88h.44c0,.05,0,.11,0,.19l-.21.08,0,.19c-.08.06-.2,0-.21,0S7.91,23,7.9,22.88Z"/><path class="cls-16" d="M12.52,26.3l.25,0c0,.22.05.43.08.68h-.48c0-.12,0-.26-.07-.4l.22-.07v-.25Z"/><path class="cls-16" d="M12.52,26.29h-.26l0-.43a.59.59,0,0,1,.47,0s0,.09,0,.16l-.23.06c0,.07,0,.13,0,.2Z"/><path class="cls-3" d="M8.14,17.27H8.4c0,.26,0,.5-.05.77H7.87l0-.47.25-.06v-.24Z"/><path class="cls-16" d="M8.15,17.27l-.22,0L8,16.77h.43V17L8.2,17l-.06.25Z"/><path class="cls-16" d="M10.15,15.11c0-.13,0-.21,0-.29l0-.15c.11-.05.28,0,.29-.23,0,0,.11,0,.22-.07,0,.28-.06.51-.09.74Z"/><path class="cls-5" d="M10.77,13.89c0,.21,0,.21-.23.26-.08.21-.08.21-.27.18C10.28,13.83,10.28,13.82,10.77,13.89Z"/><path class="cls-16" d="M6.43,18H6c0-.17,0-.32,0-.48s.25,0,.25-.21c0,0,.11-.06.22-.12C6.46,17.53,6.45,17.77,6.43,18Z"/><path class="cls-4" d="M6.1,16.73h.42c0,.12.05.24-.13.26s-.07.08-.1.13,0,.08-.22.09Z"/><path class="cls-3" d="M16.78,11.66H17v.66h-.47v-.4l.24-.06c0-.06,0-.13,0-.2Z"/><path class="cls-3" d="M16.78,11.66l-.21,0v-.42H17c.08.24-.16.14-.23.25l0,.19Z"/><path class="cls-16" d="M10.5,26.3h.23c0,.22.08.45.12.7h-.48c0-.13,0-.25-.06-.39l.21-.11c0-.07,0-.15,0-.22Z"/><path class="cls-5" d="M10.5,26.29h-.25c0-.17,0-.31-.07-.48h.45c.06.2.06.2-.14.3,0,.06,0,.12,0,.19Z"/><path class="cls-3" d="M14.82,11.66H15c0,.23,0,.44-.07.66h-.48c0-.14,0-.27,0-.4l.23-.06c0-.06,0-.13.05-.2Z"/><path class="cls-4" d="M14.82,11.66l-.24,0,0-.42h.46c.07.24-.16.14-.24.24a1.27,1.27,0,0,0,0,.2Z"/><path class="cls-2" d="M17.11,29.05l0,.6h-.46c0-.11,0-.23,0-.37.14,0,.28,0,.24-.23Z"/><path class="cls-4" d="M17.1,28.75c-.12,0-.26,0-.27.21l-.21,0v-.41C17,28.51,17.06,28.53,17.1,28.75Z"/><path class="cls-3" d="M8.57,14.36h.21c0,.25-.08.48-.12.72H8.21c0-.16,0-.29.07-.44l.22-.05.08-.24Z"/><path class="cls-4" d="M8.57,14.36H8.33c0-.17.06-.32.09-.47h.42c.06.22-.09.24-.24.26Z"/><path class="cls-3" d="M15.18,29.66h-.45c0-.12,0-.23-.07-.36s.29-.06.24-.24c.16,0,.23,0,.24.15S15.16,29.49,15.18,29.66Z"/><path class="cls-5" d="M14.59,28.59c.39-.08.42-.07.49.14-.08.06-.25.05-.24.23l-.22.06C14.61,28.85,14.6,28.72,14.59,28.59Z"/><path class="cls-16" d="M8.92,27H8.49c0-.13-.07-.27-.11-.43l.2-.08c0-.06,0-.12,0-.23.09,0,.18.08.2.13S8.88,26.79,8.92,27Z"/><path class="cls-4" d="M8.5,26.27c-.2,0-.23-.08-.22-.47h.39c0,.08.13.18-.05.22S8.57,26.18,8.5,26.27Z"/><path class="cls-16" d="M6.76,26.25c.07,0,.14,0,.15,0,.07.22.13.44.2.68H6.68c0-.13-.07-.25-.11-.4A.25.25,0,0,0,6.76,26.25Z"/><path class="cls-5" d="M6.64,26.25c-.26-.05-.15-.3-.26-.49a2.4,2.4,0,0,1,.39,0s.08.07.09.11,0,.12,0,.11C6.64,26,6.73,26.17,6.64,26.25Z"/><path class="cls-3" d="M7.45,11.61h.2c-.07.23-.13.43-.19.65h-.4a2.45,2.45,0,0,1,.09-.32.23.23,0,0,1,.11-.11c.17,0,.17-.12.2-.22Z"/><path class="cls-16" d="M7.45,11.61h0l-.13,0c0-.41.08-.48.48-.39,0,.06-.07.14-.11.15S7.49,11.48,7.45,11.61Z"/><path class="cls-3" d="M15.15,9.14h.2c0,.21-.06.4-.08.6h-.45c0-.13,0-.24.07-.37a.24.24,0,0,0,.27-.23Z"/><path class="cls-5" d="M15.16,9.14l-.24,0L15,8.71h.39c.08.22-.12.18-.22.23s0,.14,0,.2Z"/><path class="cls-16" d="M7.49,29.6c0-.12-.09-.24-.13-.35l.13-.17.1-.11s.09.06.11.11.11.33.18.52Z"/><path class="cls-4" d="M7.36,28.94c-.22-.05-.17-.26-.25-.45h.3a.22.22,0,0,1,.12.09s0,.09,0,.13A2,2,0,0,1,7.36,28.94Z"/><path class="cls-3" d="M13.36,9.14h.2l-.11.6H13c0-.12.05-.24.07-.36s.3,0,.27-.24Z"/><path class="cls-5" d="M13.36,9.14l-.19-.05.09-.38h.43c-.06.09-.08.18-.12.19s-.19.12-.21.24Z"/><path class="cls-16" d="M15,31.72c.1,0,.24,0,.22-.18s.07-.06.1-.06.09.05.09.09.06.3.09.48h-.41Q15.09,31.92,15,31.72Z"/><path class="cls-16" d="M15,31.44c0-.12,0-.22-.07-.35h.45v.11C15.18,31.17,15.26,31.53,15,31.44Z"/><path class="cls-4" d="M11.65,9.08l.2.07-.18.59h-.39c0-.19,0-.41.27-.45,0,0,0-.13.07-.21Z"/><path class="cls-5" d="M11.65,9.08h-.19c0-.14.08-.25.12-.38h.36c0,.11,0,.19-.09.19S11.69,9,11.65,9.08Z"/><path class="cls-16" d="M13.37,32.05c0-.11,0-.22-.07-.28l.24-.31c.24.11.15.37.25.59Z"/><path class="cls-4" d="M13.12,31.06h.33a.21.21,0,0,1,.11.1s0,.07-.05.1l-.1.11s-.08.08-.11.08a.21.21,0,0,1-.11-.1C13.16,31.27,13.15,31.18,13.12,31.06Z"/><path class="cls-16" d="M10,9.08l.2,0c-.07.21-.14.39-.21.59H9.6c.06-.18,0-.38.3-.42,0,0,.06-.13.1-.2Z"/><path class="cls-4" d="M10,9.08H9.83L10,8.7h.41c-.07.08-.11.16-.14.16s-.19.12-.25.22Z"/><path class="cls-16" d="M11.59,31.77c.08-.13.14-.21.2-.32.24.11.18.38.31.59h-.4Z"/><path class="cls-16" d="M11.65,31.44c-.21,0-.22,0-.26-.38h.33a.12.12,0,0,1,.07.07s0,.1-.06.1S11.68,31.36,11.65,31.44Z"/><path class="cls-16" d="M10.08,32c-.05-.1-.1-.2-.13-.28l.17-.29c.24.1.2.37.34.57Z"/><path class="cls-5" d="M9.94,31.44c-.23,0-.15-.25-.28-.35A.38.38,0,0,1,10,31a.1.1,0,0,1,0,.19C9.9,31.27,10.05,31.38,9.94,31.44Z"/><path class="cls-16" d="M8.48,9.08c.09,0,.14,0,.1.11s-.15.33-.22.5H8c.05-.19.05-.37.29-.42.06,0,.1-.13.15-.19h0Z"/><path class="cls-5" d="M8.48,9.08h0l-.13,0c.06-.38.12-.43.46-.39,0,.1,0,.19-.13.19S8.48,9,8.48,9.08Z"/><path class="cls-3" d="M15.55,6.84l.17,0c0,.17-.05.34-.07.53h-.38c0-.16,0-.32.21-.36,0,0,0-.13.07-.19Z"/><path class="cls-16" d="M15.55,6.84h-.18l.08-.34h.36c0,.07-.06.15-.1.15a.18.18,0,0,0-.16.19Z"/><path class="cls-3" d="M14,6.84l.16,0c-.05.18-.09.35-.14.52h-.36c0-.15,0-.31.22-.36,0,0,.09-.12.13-.19Z"/><path class="cls-4" d="M14,6.84h0l-.2,0a2.08,2.08,0,0,0,.12-.32h.38c-.07.08-.1.15-.14.16S14,6.75,14,6.84Z"/><path class="cls-5" d="M16,34.17l-.22,0a.23.23,0,0,1-.2-.29.76.76,0,0,1,.17-.23s.14,0,.15.07A3.92,3.92,0,0,1,16,34.17Z"/><path class="cls-3" d="M15.56,33.64c-.2,0-.1-.2-.21-.31h.43Z"/><path class="cls-5" d="M14.15,33.64c.23.1.16.32.27.48-.14.08-.26.1-.35,0S14.06,33.8,14.15,33.64Z"/><path class="cls-16" d="M13.76,33.29l.43,0a2.61,2.61,0,0,1-.18.29.14.14,0,0,1-.14,0A2,2,0,0,1,13.76,33.29Z"/><path class="cls-16" d="M12.92,34.13c-.33,0-.33,0-.45-.23l.16-.26C12.81,33.75,12.83,34,12.92,34.13Z"/><path class="cls-4" d="M12.61,33.35l-.21.32-.2-.32A.4.4,0,0,1,12.61,33.35Z"/><path class="cls-4" d="M12.51,6.84h.07l.05.05-.18.49h-.37c.07-.16.05-.35.28-.38.05,0,.09-.11.13-.17Z"/><path class="cls-6" d="M12.51,6.84h0l-.13,0c.06-.36.09-.39.42-.34a.13.13,0,0,1-.11.18C12.54,6.67,12.52,6.74,12.51,6.84Z"/><path class="cls-6" d="M12.63,6.9l-.05-.05Z"/><path class="cls-5" d="M11.34,6.49c0,.1,0,.12-.12.14s-.24.08-.08.22,0,.08,0,.12l-.2.41h-.31c0-.17.05-.33.25-.37S11,7,11,6.85c-.07-.28,0-.42.32-.39C11.32,6.46,11.33,6.48,11.34,6.49Z"/><path class="cls-4" d="M11.5,34.13c-.32,0-.32,0-.47-.26l.13-.25C11.34,33.74,11.38,33.94,11.5,34.13Z"/><path class="cls-6" d="M11.1,33.39l-.15.25c-.16-.06-.17-.21-.23-.32C10.93,33.22,11,33.22,11.1,33.39Z"/><path class="cls-4" d="M17.4,4.88c.07,0,.13,0,.12.11s0,.22,0,.36h-.32c0-.16-.06-.3.15-.34,0,0,.05-.1.07-.15Z"/><path class="cls-6" d="M17.4,4.87h-.18c0-.1,0-.21.08-.27s.18,0,.27,0-.24.12-.17.29Z"/><path class="cls-4" d="M16,4.88l.16,0c0,.09,0,.17-.05.25-.07.24-.07.24-.36.18,0-.13,0-.25.17-.3s.06-.1.09-.15Z"/><path class="cls-6" d="M16,4.88h0l-.11,0c0-.32.05-.34.36-.26Z"/><path class="cls-16" d="M17.61,35.51c.15.14.12.28.13.43s-.24.07-.31-.07S17.6,35.68,17.61,35.51Z"/><path class="cls-6" d="M17.3,35.22l.37,0v.06l-.12.08c-.06,0,0,.2-.16.12S17.34,35.36,17.3,35.22Z"/><path class="cls-5" d="M16.46,35.94c-.3.05-.3.05-.4-.2l.19-.21C16.41,35.64,16.37,35.81,16.46,35.94Z"/><path class="cls-6" d="M15.94,35.21l.36.06-.27.29-.13-.29Z"/><path class="cls-6" d="M15.21,3.55l.27-.27c0-.28.06-.31.33-.27a.29.29,0,0,0-.19.29C15.61,3.52,15.46,3.61,15.21,3.55Z"/><path class="cls-6" d="M16.8,3l-.11.09a2.33,2.33,0,0,1-.11.47s-.14.05-.22.08a.27.27,0,0,1,.19-.34C16.48,3,16.53,3,16.8,3Z"/><path class="cls-6" d="M14.71,37.4c0-.1,0-.21-.05-.31l.06,0,.28.32-.29,0Z"/><path class="cls-6" d="M14.29,36.82l.29,0c0,.08,0,.13-.06.23C14.45,37,14.39,36.94,14.29,36.82Z"/><path class="cls-17" d="M33.67,22.36a.35.35,0,0,1-.31.36c-.17,0-.27-.12-.27-.32A.35.35,0,0,1,33.4,22C33.56,22,33.67,22.16,33.67,22.36Z"/><path class="cls-17" d="M28.84,32.09c0,.15-.13.31-.25.31s-.2-.11-.2-.25a.27.27,0,0,1,.25-.31C28.76,31.84,28.84,31.94,28.84,32.09Z"/><path class="cls-17" d="M32.49,20.09a.39.39,0,0,1-.25.38.24.24,0,0,1-.27-.1.37.37,0,0,1,.05-.43c.08-.1.17-.18.31-.13A.26.26,0,0,1,32.49,20.09Z"/><path class="cls-17" d="M31.27,16.83a.34.34,0,0,1-.35-.32.36.36,0,0,1,.37-.31.34.34,0,0,1,.35.32A.35.35,0,0,1,31.27,16.83Z"/><path class="cls-17" d="M29.8,8.63a.33.33,0,0,1-.32.34.31.31,0,0,1-.3-.33.33.33,0,0,1,.34-.35A.29.29,0,0,1,29.8,8.63Z"/><path class="cls-17" d="M26,15.74a.34.34,0,0,1-.34.36.36.36,0,0,1-.38-.33.36.36,0,0,1,.35-.36A.34.34,0,0,1,26,15.74Z"/><path class="cls-17" d="M27,32.72a.28.28,0,0,1-.26.31.25.25,0,0,1-.2-.26.31.31,0,0,1,.27-.31C26.93,32.46,27,32.56,27,32.72Z"/><path class="cls-17" d="M26.27,7.83a.38.38,0,0,1,.36-.38.25.25,0,0,1,.23.29.4.4,0,0,1-.36.39A.27.27,0,0,1,26.27,7.83Z"/><path class="cls-17" d="M24.68,33.86a.27.27,0,0,1-.27.29c-.12,0-.19-.09-.18-.26a.27.27,0,0,1,.26-.3A.23.23,0,0,1,24.68,33.86Z"/><path class="cls-17" d="M25.2,5.42a.23.23,0,1,1-.45,0c0-.16.09-.31.22-.31A.27.27,0,0,1,25.2,5.42Z"/><path class="cls-17" d="M23.68,4.42a.24.24,0,0,1-.21.28.25.25,0,0,1-.24-.28.24.24,0,0,1,.21-.28C23.58,4.13,23.68,4.26,23.68,4.42Z"/><path class="cls-17" d="M30.41,26.71a.33.33,0,0,1-.33.31.27.27,0,0,1-.24-.32.32.32,0,0,1,.33-.31A.27.27,0,0,1,30.41,26.71Z"/></svg>