<svg xmlns="http://www.w3.org/2000/svg" width="200" height="200" fill="none"><g fill="#44C144" clip-path="url(#a)"><path d="M.26.958v139.527c69.392 34.419 154.7 13.138 199.296-52.184V.958zm50.147 75.685c-5.551 0-9.622-4.07-9.622-9.622s4.811-10.363 10.363-10.363S61.51 61.469 61.51 67.021c-.74 5.366-4.811 9.622-11.103 9.622m99.001 0c-5.551 0-10.363-4.811-10.363-10.362s4.812-10.363 10.363-10.363 10.363 4.811 10.363 10.363c-.74 6.106-4.812 10.362-10.363 10.362"/><path d="M.26 170.093v28.867h199.296v-72.168C125.352 207.102 31.162 180.27.259 170.093"/></g><defs><clipPath id="a"><path fill="#fff" d="M0 .142h200v198.964H0z"/></clipPath></defs></svg>