<svg xmlns="http://www.w3.org/2000/svg" width="200" height="200" fill="none"><g fill="#44C144" clip-path="url(#a)"><path d="M.26 1.63v139.53c69.4 34.41 154.7 13.13 199.3-52.19V1.63zM50.4 77.3a9.33 9.33 0 0 1-9.63-9.62 10.6 10.6 0 0 1 10.37-10.36A10.6 10.6 0 0 1 61.5 67.69c-.74 5.37-4.81 9.62-11.1 9.62m99 0a10.6 10.6 0 0 1-10.37-10.36 10.6 10.6 0 0 1 10.37-10.36 10.6 10.6 0 0 1 10.36 10.36c-.74 6.1-4.81 10.36-10.36 10.36"/><path d="M.26 170.76v28.87h199.3v-72.17c-74.2 80.31-168.4 53.48-199.3 43.3"/></g><defs><clipPath id="a"><path fill="#fff" d="M0 .81h200v198.96H0z"/></clipPath></defs></svg>