<svg xmlns="http://www.w3.org/2000/svg" width="200" height="200" fill="none"><g fill="#44C144" clip-path="url(#a)"><path d="M.26 1.717v139.526c69.392 34.419 154.7 13.139 199.296-52.183V1.716zM50.406 77.4c-5.551 0-9.622-4.07-9.622-9.622s4.811-10.363 10.363-10.363S61.51 62.228 61.51 67.78c-.74 5.366-4.811 9.623-11.103 9.623m99.001 0c-5.551 0-10.363-4.81-10.363-10.362s4.812-10.363 10.363-10.363 10.363 4.811 10.363 10.363c-.74 6.106-4.812 10.362-10.363 10.362"/><path d="M.26 170.851v28.868h199.296V127.55C125.352 207.861 31.162 181.029.259 170.851"/></g><defs><clipPath id="a"><path fill="#fff" d="M0 .9h200v198.964H0z"/></clipPath></defs></svg>