<svg xmlns="http://www.w3.org/2000/svg" width="200" height="116" fill="none"><path fill="#007DC3" d="M143.269 1.571H56.731C25.502 1.571.293 26.781.293 58.01s25.21 56.438 56.438 56.438h86.538c31.229 0 56.438-25.21 56.438-56.438 0-30.853-25.209-56.438-56.438-56.438m14.297 19.19c6.02-.377 12.793 4.89 12.793 12.792 0 7.9-6.02 13.168-12.793 13.168-7.148 0-12.792-5.643-12.792-12.792-.376-7.901 4.891-13.545 12.792-13.169m-82.775 82.774c-7.901 0-15.802 0-23.704-.376-4.138 0-7.9-1.505-11.663-3.01q-9.595-3.951-16.932-12.416c-3.386-3.763-5.643-7.901-7.525-12.793-1.881-5.267-3.01-11.287-3.01-17.307 0-5.644 1.129-10.912 3.387-16.18 3.01-7.524 7.9-13.92 13.92-19.188 4.14-3.386 8.655-5.644 13.922-7.525 3.763-1.129 7.525-1.881 11.664-1.881 1.505 0 1.881 0 1.881 1.881V39.95c0 1.129-.376 1.505-1.505 1.505-3.762.376-7.149 1.505-9.782 3.762-4.515 3.387-7.15 7.902-6.773 13.545 0 4.892 2.258 8.654 5.644 11.664 3.762 3.386 7.901 4.892 12.792 4.892h18.06c1.505 0 1.505 0 1.505 1.505v25.208c-.376 1.129-.752 1.505-1.88 1.505m38.378-60.576v59.824q0 1.128-1.129 1.129H87.584c-1.882 0-1.882 0-1.882-1.882V43.711c0-1.505-.376-1.88-1.505-1.88H66.514q-1.13 0-1.13-1.13V14.364c0-1.129.377-1.505 1.506-1.505h63.963c1.505 0 1.505.376 1.505 1.505v25.961c0 .753-.377 1.129-1.129 1.505h-17.308c-.752-.376-.752 0-.752 1.129m74.121 18.06c-1.129 13.921-7.525 24.456-18.436 32.734-3.01 2.257-6.773 4.139-10.159 5.644-6.02 2.257-12.04 4.138-18.436 4.138H124.08c-1.505 0-1.505-.376-1.505-1.881V76.445c0-1.128.376-1.128 1.129-1.128h13.545c6.396 0 12.416-1.882 17.307-6.02 2.634-2.258 4.515-5.268 5.268-8.654.376-1.505.376-1.505 1.881-1.505h23.704c1.881-.377 2.257 0 1.881 1.881"/></svg>