<svg xmlns="http://www.w3.org/2000/svg" width="200" height="115" fill="none"><path fill="#007DC3" d="M143.269 1.088H56.731C25.502 1.088.293 26.297.293 57.526c0 31.228 25.21 56.437 56.438 56.437h86.538c31.229 0 56.438-25.209 56.438-56.437 0-30.853-25.209-56.438-56.438-56.438m14.297 19.189c6.02-.377 12.793 4.891 12.793 12.792s-6.02 13.169-12.793 13.169c-7.148 0-12.792-5.644-12.792-12.792-.376-7.902 4.891-13.546 12.792-13.17m-82.775 82.775c-7.901 0-15.802 0-23.704-.376-4.138 0-7.9-1.505-11.663-3.01q-9.595-3.951-16.932-12.417c-3.386-3.762-5.643-7.9-7.525-12.792-1.881-5.268-3.01-11.288-3.01-17.308 0-5.644 1.129-10.911 3.387-16.178 3.01-7.525 7.9-13.922 13.92-19.19 4.14-3.386 8.655-5.643 13.922-7.524 3.763-1.13 7.525-1.882 11.664-1.882 1.505 0 1.881 0 1.881 1.882v25.208c0 1.13-.376 1.505-1.505 1.505-3.762.377-7.149 1.505-9.782 3.763-4.515 3.386-7.15 7.901-6.773 13.545 0 4.891 2.258 8.654 5.644 11.664 3.762 3.386 7.901 4.891 12.792 4.891h18.06c1.505 0 1.505 0 1.505 1.505v25.209c-.376 1.129-.752 1.505-1.88 1.505m38.378-60.577V102.3q0 1.13-1.129 1.129H87.584c-1.882 0-1.882 0-1.882-1.881V43.228c0-1.505-.376-1.881-1.505-1.881H66.514q-1.13 0-1.13-1.129V13.88c0-1.128.377-1.505 1.506-1.505h63.963c1.505 0 1.505.377 1.505 1.505v25.962c0 .752-.377 1.129-1.129 1.505h-17.308c-.752-.377-.752 0-.752 1.128m74.121 18.06c-1.129 13.922-7.525 24.457-18.436 32.734-3.01 2.258-6.773 4.14-10.159 5.644-6.02 2.258-12.04 4.139-18.436 4.139H124.08c-1.505 0-1.505-.376-1.505-1.881V75.962c0-1.129.376-1.129 1.129-1.129h13.545c6.396 0 12.416-1.881 17.307-6.02 2.634-2.257 4.515-5.267 5.268-8.654.376-1.505.376-1.505 1.881-1.505h23.704c1.881-.376 2.257 0 1.881 1.882"/></svg>