<svg xmlns="http://www.w3.org/2000/svg" width="200" height="115" fill="none"><g clip-path="url(#a)"><path fill="#007DC3" d="M143.27 1.13H56.73A56.36 56.36 0 0 0 .3 57.57 56.36 56.36 0 0 0 56.73 114h86.54a56.36 56.36 0 0 0 56.44-56.43c0-30.86-25.21-56.44-56.44-56.44m14.3 19.19c6.02-.38 12.79 4.89 12.79 12.79s-6.02 13.17-12.8 13.17c-7.14 0-12.79-5.64-12.79-12.8-.37-7.9 4.9-13.54 12.8-13.16m-82.78 82.77c-7.9 0-15.8 0-23.7-.37-4.14 0-7.9-1.5-11.67-3.01A45 45 0 0 1 22.5 87.29c-3.38-3.76-5.64-7.9-7.52-12.8a52 52 0 0 1-3.01-17.3c0-5.64 1.13-10.91 3.38-16.18 3.01-7.52 7.9-13.92 13.92-19.19 4.14-3.38 8.66-5.64 13.93-7.52a40 40 0 0 1 11.66-1.88c1.5 0 1.88 0 1.88 1.88v25.2c0 1.14-.38 1.51-1.5 1.51-3.77.38-7.15 1.5-9.79 3.76-4.51 3.39-7.15 7.9-6.77 13.55 0 4.89 2.26 8.65 5.64 11.66a18.2 18.2 0 0 0 12.8 4.9h18.06c1.5 0 1.5 0 1.5 1.5v25.21c-.37 1.13-.75 1.5-1.88 1.5m38.38-60.57v59.82q0 1.13-1.13 1.13H87.58c-1.88 0-1.88 0-1.88-1.88V43.27c0-1.5-.37-1.88-1.5-1.88H66.5q-1.13 0-1.13-1.13V13.92c0-1.13.38-1.5 1.51-1.5h63.96c1.5 0 1.5.37 1.5 1.5v25.96c0 .76-.37 1.13-1.12 1.5h-17.31c-.75-.37-.75 0-.75 1.14m74.12 18.06c-1.13 13.92-7.53 24.45-18.44 32.73-3 2.26-6.77 4.14-10.16 5.64-6.01 2.26-12.03 4.14-18.43 4.14h-16.18c-1.5 0-1.5-.37-1.5-1.88V76c0-1.13.37-1.13 1.12-1.13h13.55c6.4 0 12.41-1.88 17.3-6.02a16 16 0 0 0 5.27-8.65c.38-1.5.38-1.5 1.89-1.5h23.7c1.88-.38 2.26 0 1.88 1.88"/></g><defs><clipPath id="a"><path fill="#fff" d="M0 .32h200v114.43H0z"/></clipPath></defs></svg>