<svg xmlns="http://www.w3.org/2000/svg" width="200" height="231" fill="none"><g clip-path="url(#a)"><path fill="#4B90C1" d="M101.344 39.153v74.821l64.742 37.41v-74.82z"/><path fill="#56C2E4" d="m195.709 168.486-29.47-16.949v1.832l-1.679.916 29.47 16.95-92.533 53.596V190.78l-1.68.916-1.68-.916v34.051L5.451 171.387l29.47-16.949-1.526-.916v-1.985l-29.47 16.949V61.6l29.47 16.949v-1.833l1.68-.916L5.603 58.698 98.137 5.255v34.051l1.68-.916 1.527.916V5.255l92.686 53.443-29.47 16.95 1.527.916v1.832L195.709 61.6zm1.68-111.62L101.344 1.438 99.817.52l-1.68.917L.717 57.782v114.674l97.573 56.192 1.527.916 1.68-.916 95.892-55.428 1.68-.764V57.782z"/><path fill="#2C4A8D" d="M101.344 113.974v-74.82l-1.527-.917-1.68.916v74.821l-64.743 37.563v1.985l1.528.916 64.895-37.563 64.895 37.411 1.527-.917v-1.832z"/><path fill="#4568A3" d="M33.395 76.717v74.821l64.742-37.411v-74.82z"/><path fill="#56C2E4" d="m99.817 116.875-64.896 37.41 64.896 37.411 64.895-37.411z"/></g><defs><clipPath id="a"><path fill="#fff" d="M0 .255h200v230H0z"/></clipPath></defs></svg>