<svg xmlns="http://www.w3.org/2000/svg" width="200" height="237" fill="none"><g clip-path="url(#a)"><path fill="#7BB43C" d="M136.36 13.35c-1.62.4-3.24.6-4.46 1.21-9.13 4.26-17.45 9.74-24.35 17.25-.4.4-1.02.81-1.62 1.22-.2.2-.41 0-1.43 0 .2-1.02 0-1.83.41-2.64 6.09-12.58 17.05-19.07 30.03-23.13 8.32-2.64 17.05-3.45 25.57-5.08 10.96-2.02 21.71-.6 32.47-1.21 1.01 0 2.23.2 4.26.6-1.42 1.02-2.03 1.83-2.84 2.03-11.16 3.66-20.3 10.96-29.43 18.06-5.68 4.47-11.36 9.14-17.04 13.8a25 25 0 0 1-15.83 5.48c-7.3.2-14.6-.2-21.1-4.26-2.64-1.62-2.84-2.43-.4-4.46 7.7-6.7 15.62-12.99 25.15-17.05.41-.2.61-.4 1.02-.6-.2-.41-.2-.82-.4-1.22M87.26 33.23c0 3.45-.61 4.06-3.66 3.25-10.14-2.84-17.65-9.13-21.91-19.08a29 29 0 0 1-2.03-5.88c-.4-1.83.4-2.84 2.43-2.23 11.16 3.65 20.9 8.92 24.35 21.3.61 1.02.82 2.03.82 2.64"/><path fill="#F5A423" d="M.4 127.18c4.47-2.23 7.51-5.68 10.15-9.74 4.26-6.9 3.65-14 .81-21.3-.6-1.42-.4-3.45.2-4.87 1.22-2.84 3.05-5.48 4.67-8.12 1.42-2.64 3.45-4.06 6.7-4.67 4.26-.8 8.32-1.82 11.77-4.66 4.87-4.06 6.9-9.74 7.91-15.63.4-2.03.81-3.45 2.64-4.46 3.45-1.83 6.7-4.06 10.15-5.89 1.21-.6 3.04-.4 4.46-.2 2.44.4 4.67 1.62 7.1 2.03 8.32 1.42 15.22-1.63 20.5-7.92 2.64-3.24 5.48-5.48 9.94-4.46.4.2 1.02 0 1.63 0 6.08-.6 10.95.81 15.21 5.88 6.5 7.51 15.02 8.73 23.95 5.28 3.45-1.42 6.5-1.42 9.54 1.01.4.41 1.01.41 1.42.61 4.87 2.44 8.72 5.08 9.53 11.57.82 6.5 4.67 11.57 10.76 14.61 2.84 1.42 6.09 2.03 9.33 2.64a6.6 6.6 0 0 1 4.87 3.45c1.63 3.04 3.86 5.68 5.08 8.72.8 1.83.8 4.47.2 6.3-3.25 9.73-2.64 18.66 5.48 25.56 4.46 3.86 6.09 8.12 5.48 13.6q-.3 2.13 0 4.26c.2 2.64-.61 4.87-2.84 6.5-1.63 1.21-2.84 2.63-4.26 4.05-6.5 6.9-6.9 14.81-4.06 23.34 1.01 3.04 1.62 5.68-.61 8.52-1.02 1.22-1.63 2.64-2.24 4.06-2.02 4.06-4.66 6.5-9.74 7.3-10.14 1.63-16.23 8.73-17.85 18.67-.61 4.06-2.84 5.89-5.48 7.71a55 55 0 0 1-7.5 4.26c-1.43.61-3.46.61-4.88 0-11.16-4.26-19.68-2.63-27.6 6.3-2.23 2.43-4.46 3.85-7.7 3.44-1.02-.2-2.04 0-3.05 0-6.7.61-11.97-.6-16.84-6.29-6.3-7.3-15.02-7.3-23.54-4.05-2.64 1.01-4.87 1.21-7.3-.61-2.65-2.03-5.9-3.25-8.73-5.28-1.22-.81-2.03-2.64-2.64-4.06-1.02-3.04-1.62-6.29-2.84-9.13-3.25-7.3-9.54-10.35-17.05-11.57-2.64-.4-4.66-1.21-6.08-3.65-1.83-3.04-4.06-5.88-5.28-9.13-.81-1.62-.6-4.26 0-5.88 4.46-11.98.81-19.69-5.89-25.98-1.62-1.62-3.65-2.84-5.27-4.06-.2-6.08-.2-12.17-.2-18.06m92.33 3.86c.82 0 2.03 0 2.64-.4 2.84-1.63 5.28-1.83 7.92.2.6.4 2.03-.2 3.04-.61 1.22-.4 2.03-1.22 3.25-1.83.2.4.4.61.6 1.02-.8.6-1.42 1.21-2.23 1.82-1.21.81-2.43 1.63-1.21 3.05.6.6 2.63.2 3.65-.41 4.26-3.25 8.32-6.5 12.58-9.94 1.42-1.22 2.84-1.63 4.46-.2 2.03 1.62 3.45 3.65 2.64 6.49-.6 2.23-2.23 2.64-4.26 2.43h-4.67c-3.65-.4-7.1.2-9.94 3.05-.6.6-1.83.8-2.64 1.42-.6.4-1.82 1.01-1.82 1.62 0 .81.6 2.03 1.21 2.64 3.05 2.23 6.3 4.26 9.34 6.5 13.4 9.73 26.78 19.47 40.18 29.42 1.82 1.21 3.04 1.01 4.46-.41 3.25-3.25 6.9-6.3 9.33-9.94 5.69-8.12 7.1-17.05 3.25-26.38-1.01-2.64-2.84-3.45-5.88-3.45-11.97.2-23.75.4-35.72.4-1.01 0-2.03-.8-3.04-1.01 0-.4.2-.61.2-1.02h38.76c3.25 0 4.67-1.21 5.68-4.06 4.87-14.2-1.22-27.8-12.98-35.91-.82-.61-2.85-.61-3.66 0-12.78 9.13-25.16 18.46-37.94 27.8-2.24 1.62-4.87 3.25-7.3 4.87-.21-.2-.41-.61-.62-.81 1.22-1.02 2.23-2.24 3.66-3.25 13.39-9.74 26.78-19.68 40.17-29.22 1.83-1.42 2.44-2.64 1.63-4.47-1.22-3.04-2.44-6.08-4.26-8.72-5.89-9.34-14.62-13.8-25.57-14.4-2.84-.21-4.47.6-5.28 3.85-1.01 4.66-2.84 9.13-4.26 13.8a252 252 0 0 1-5.88 17.45c-1.42 3.85-1.42 8.93-6.9 9.74-.2 0-.41.4-.41.6-.81 2.85-1.62 5.49-2.64 8.33-.2.8-1.01 1.62-1.42 2.43-.6-.6-1.82-1.01-2.03-1.62-1.22-3.66-2.23-7.51-3.04-11.37-.2-1.01.4-2.43 1.22-3.24 2.23-2.03 4.66-1.83 7.7.4 1.43 1.02 2.85 2.44 3.86-.4 2.23-6.9 4.47-13.6 6.7-20.5a409 409 0 0 1 5.88-16.84c.81-2.03 0-3.04-1.21-4.06a41 41 0 0 0-6.5-3.65c-11.56-6.09-23.54-4.26-33.28 3.45-.8.6-1.42 2.43-1.21 3.45.6 2.84 2.03 5.27 2.84 8.11 3.24 9.34 6.29 18.88 9.33 28.21.4 1.22.2 2.84.2 4.26-.2 0-.6 0-.8.2-.41-.6-.82-1.21-1.02-2.02-3.45-10.76-6.9-21.51-10.35-32.47-2.44-7.92-2.44-7.92-10.76-7.1h-1.62C55.6 69.55 44.44 79.29 41.6 90.25c-.4 2.03.2 3.25 1.62 4.26 15.22 11.16 30.24 22.32 45.46 33.49 1.42.4 2.84 1.82 4.05 3.04-2.02-1.02-4.05-2.03-5.88-3.25-15.02-10.96-30.03-21.71-45.05-32.67-1.42-1.01-2.43-1.01-3.65 0-.81.61-1.62 1.42-2.44 2.03-10.55 8.73-14.8 22.12-10.95 33.69 1.01 3.04 2.63 4.26 5.88 4.26 11.57-.2 22.93 0 34.5 0 1.42 0 2.64.2 4.06.2 0 .4 0 .81.2 1.22-1.42.2-3.05.81-4.47.81-11.56 0-22.93-.2-34.5-.4-2.83 0-4.46 1-4.86 3.85-.4 2.23-.81 4.26-1.22 6.5-2.03 13.38 4.26 22.92 13.8 29.82 1.42 1.02 2.84 1.02 4.26-.2 4.46-3.25 8.93-6.5 13.19-9.74 10.96-8.12 21.92-16.44 33.08-24.35 4.05-3.05 4.26-2.84 1.82-7.3 1.83-.82 3.66-1.83 2.23-4.47m-3.04 33.48c.4.2 1.02.2 1.42.4-.2 1.22-.4 2.44-.81 3.66-1.83 5.88-3.65 11.97-5.68 17.86-2.03 5.68-4.26 11.16-6.09 16.84-.4 1.01.2 2.64 1.01 3.25 10.76 8.11 23.95 11.56 37.34 2.84 4.87-3.25 4.87-3.25 2.64-8.53-.2-.4-.2-.8-.4-1.21-2.85-8.73-5.69-17.25-8.33-25.98a532 532 0 0 1-4.05-14.4c.2 0 .6-.2.8-.2 1.02 2.43 2.24 4.66 3.05 7.1a1048 1048 0 0 1 11.57 35.7c.81 2.65 2.03 3.86 4.67 3.86 13.39-.2 25.97-7.91 30.43-21.1 1.02-2.84.4-4.87-2.03-6.7a3582 3582 0 0 0-47.48-35.3c-1.62-1.22-2.64-1.22-4.06.2a6.2 6.2 0 0 1-8.32.4c-1.62-1.42-2.64-1.21-4.26.2-6.5 5.28-13.19 10.15-19.88 15.02-9.14 6.7-18.06 13.2-27.4 19.69-1.83 1.21-2.43 2.84-1.42 4.66 1.83 3.66 3.45 7.72 5.89 10.96 5.88 7.91 14 11.36 23.74 11.77 2.84.2 4.66-1.01 5.68-4.06 2.43-8.52 5.48-16.84 8.32-25.16 1.01-4.06 2.23-7.91 3.65-11.77"/><path fill="#F5A423" d="M106.74 125.97c1.42-4.27 2.63-8.53 4.06-12.79.8-2.23 1.82-4.06 4.66-3.65 2.44.4 5.48 3.45 5.48 5.48 0 .6-.2 1.42-.6 1.62-4.27 3.45-8.73 6.7-13.2 9.95-.2 0-.2-.41-.4-.61M92.73 126.78c-1.62-1.22-3.24-2.64-5.07-3.86-2.23-1.62-4.67-3.45-6.9-5.07-1.42-1.02-2.64-2.23-1.62-4.26 1.01-2.44 3.04-3.86 5.68-4.26 2.23-.4 2.84 1.42 3.45 3.04.6 1.83 1.02 3.65 1.83 5.48 1.01 2.84 2.23 5.48 3.24 8.12-.2.2-.4.6-.6.8M111.6 138.34c4.88 2.44 9.95 2.24 15.23 1.42.8-.2 2.02.61 2.63 1.43 1.63 1.82 1.22 4.66-.8 7.1-1.83 2.03-3.66 1.82-5.69.2-2.84-2.03-5.89-4.06-8.52-6.09-1.22-.8-2.03-2.03-3.05-3.04 0-.4 0-.61.2-1.02M92.33 146.66c-1.83 5.48-3.45 10.56-5.28 15.43-.4 1.01-1.82 1.82-2.84 2.03-2.23.4-5.07-1.83-6.29-4.47-1.01-2.43.81-3.45 2.44-4.67 3.24-2.43 6.49-5.07 9.74-7.7.4-.21 1.21-.21 2.23-.62M107.35 145.85c4.46 3.25 8.92 6.5 13.19 10.15 1.82 1.62.6 5.07-2.24 6.9-2.63 1.62-4.87 1.22-6.08-1.22-.82-1.62-1.02-3.45-1.83-5.07l-3.65-9.74c.2-.61.4-.81.6-1.02M100.04 149.7c1.01 3.25 2.03 6.1 3.04 8.94.4 1.21.81 2.43 1.02 3.65.81 3.25-.2 5.07-3.05 6.09-2.43.8-6.08-.81-6.9-3.05q-.3-.91 0-1.82c1.43-4.26 3.05-8.53 4.47-12.58 0-.41.4-.41 1.42-1.22M88.07 134.49c-4.06-3.45-8.52-2.23-12.99-2.03-3.85.2-5.48-.81-6.09-3.45-.4-1.83 1.63-5.48 3.66-6.3.6-.2 1.62-.4 2.02 0 4.06 2.65 8.12 5.49 12.18 8.33.81.6 1.01 1.62 1.62 2.64-.2.2-.2.6-.4.8M87.05 139.76c-.6.82-1.01 1.63-1.82 2.24-3.25 2.43-6.7 4.66-9.95 7.1-1.82 1.22-3.24 1.42-4.87 0-2.03-1.83-3.24-3.86-2.03-6.7.82-2.23 2.64-2.23 4.87-2.23 4.47.2 8.93-.2 13.8-.4"/></g><defs><clipPath id="a"><path fill="#fff" d="M0 .92h200v235.23H0z"/></clipPath></defs></svg>