<svg xmlns="http://www.w3.org/2000/svg" width="200" height="236" fill="none"><g clip-path="url(#a)"><path fill="#7BB43C" d="M136.363 12.787c-1.623.406-3.247.61-4.464 1.218-9.132 4.261-17.451 9.74-24.351 17.248-.406.406-1.014.812-1.623 1.218-.203.203-.406 0-1.421 0 .203-1.015 0-1.827.406-2.638 6.088-12.581 17.046-19.075 30.033-23.133 8.319-2.638 17.045-3.45 25.568-5.073 10.957-2.03 21.712-.61 32.467-1.218 1.014 0 2.232.203 4.261.609-1.42 1.015-2.029 1.826-2.841 2.03-11.16 3.652-20.292 10.957-29.423 18.06-5.682 4.463-11.364 9.13-17.046 13.798q-7 5.478-15.827 5.479c-7.306.203-14.611-.203-21.104-4.262-2.638-1.623-2.841-2.435-.406-4.464 7.711-6.696 15.625-12.987 25.162-17.045.406-.203.609-.406 1.015-.61-.203-.405-.203-.81-.406-1.217M87.256 32.673c0 3.45-.609 4.059-3.653 3.247-10.146-2.84-17.654-9.131-21.915-19.074-.812-1.827-1.624-3.856-2.03-5.885-.405-1.826.406-2.841 2.436-2.232 11.16 3.652 20.9 8.928 24.35 21.306.609 1.015.812 2.03.812 2.638"/><path fill="#F5A423" d="M.406 126.626c4.464-2.232 7.508-5.682 10.146-9.74 4.261-6.9 3.652-14.002.812-21.307-.61-1.42-.406-3.45.202-4.87 1.218-2.841 3.044-5.479 4.668-8.117 1.42-2.638 3.45-4.058 6.696-4.667 4.261-.812 8.32-1.826 11.77-4.667 4.87-4.059 6.899-9.74 7.913-15.625.406-2.03.812-3.45 2.638-4.465 3.45-1.826 6.697-4.058 10.146-5.884 1.218-.609 3.044-.406 4.465-.203 2.435.406 4.667 1.623 7.102 2.03 8.32 1.42 15.219-1.624 20.495-7.915 2.638-3.246 5.479-5.479 9.943-4.464.406.203 1.014 0 1.623 0 6.088-.609 10.958.812 15.219 5.885 6.494 7.508 15.016 8.725 23.945 5.276 3.45-1.42 6.493-1.42 9.537 1.014.406.406 1.015.406 1.421.609 4.87 2.435 8.725 5.073 9.537 11.566s4.667 11.567 10.755 14.61c2.841 1.421 6.087 2.03 9.334 2.639 2.232.406 3.653 1.42 4.87 3.45 1.624 3.043 3.856 5.681 5.073 8.725.812 1.826.812 4.464.203 6.29-3.247 9.741-2.638 18.669 5.479 25.569 4.464 3.855 6.088 8.116 5.479 13.595a15 15 0 0 0 0 4.262c.203 2.638-.609 4.87-2.841 6.493-1.623 1.218-2.841 2.638-4.261 4.058-6.494 6.9-6.9 14.814-4.059 23.336 1.015 3.044 1.624 5.682-.609 8.523-1.014 1.218-1.623 2.638-2.232 4.058-2.029 4.059-4.667 6.494-9.74 7.306-10.146 1.623-16.234 8.725-17.857 18.668-.609 4.059-2.841 5.885-5.479 7.711-2.435 1.624-4.87 3.044-7.508 4.262-1.42.608-3.449.608-4.87 0-11.161-4.262-19.683-2.638-27.597 6.29-2.232 2.435-4.464 3.856-7.711 3.45-1.015-.203-2.029 0-3.044 0-6.696.609-11.972-.609-16.842-6.291-6.29-7.305-15.017-7.305-23.54-4.058-2.637 1.014-4.87 1.217-7.304-.609-2.638-2.029-5.885-3.247-8.726-5.276-1.217-.812-2.03-2.638-2.638-4.058-1.014-3.044-1.623-6.291-2.84-9.132-3.248-7.305-9.538-10.349-17.046-11.566-2.638-.406-4.667-1.218-6.088-3.653-1.826-3.044-4.058-5.884-5.276-9.131-.811-1.624-.608-4.262 0-5.885 4.465-11.972.812-19.683-5.884-25.974-1.624-1.623-3.653-2.841-5.276-4.058-.203-6.088-.203-12.175-.203-18.06m92.329 3.855c.811 0 2.029 0 2.638-.405 2.84-1.624 5.276-1.827 7.914.202.608.406 2.029-.202 3.043-.608 1.218-.406 2.03-1.218 3.247-1.827.203.406.406.609.609 1.015-.812.609-1.421 1.218-2.232 1.826-1.218.812-2.435 1.624-1.218 3.044.609.609 2.638.203 3.653-.406 4.261-3.246 8.32-6.493 12.581-9.943 1.42-1.217 2.841-1.623 4.464-.203 2.029 1.624 3.45 3.653 2.638 6.494-.609 2.232-2.232 2.638-4.261 2.435h-4.667c-3.653-.406-7.103.203-9.943 3.044-.609.608-1.827.811-2.638 1.42-.609.406-1.827 1.015-1.827 1.623 0 .812.609 2.03 1.218 2.638 3.044 2.232 6.29 4.262 9.334 6.494 13.393 9.74 26.786 19.48 40.178 29.423 1.827 1.218 3.044 1.015 4.465-.406 3.246-3.246 6.899-6.29 9.334-9.943 5.682-8.116 7.102-17.045 3.247-26.379-1.015-2.638-2.841-3.45-5.885-3.45-11.972.203-23.742.406-35.714.406-1.015 0-2.029-.812-3.044-1.015 0-.406.203-.609.203-1.014h38.758c3.247 0 4.667-1.218 5.682-4.059 4.87-14.204-1.218-27.8-12.987-35.917-.812-.609-2.841-.609-3.653 0-12.784 9.132-25.162 18.466-37.946 27.8-2.232 1.624-4.87 3.247-7.305 4.87-.203-.202-.406-.608-.609-.811 1.218-1.015 2.232-2.232 3.653-3.247 13.393-9.74 26.785-19.683 40.178-29.22 1.826-1.421 2.435-2.638 1.623-4.465-1.217-3.044-2.435-6.087-4.261-8.725-5.885-9.335-14.61-13.799-25.568-14.408-2.841-.203-4.464.609-5.276 3.856-1.014 4.667-2.841 9.131-4.261 13.798-1.826 5.885-3.653 11.77-5.885 17.452-1.42 3.855-1.42 8.928-6.899 9.74-.203 0-.406.406-.406.608-.812 2.841-1.623 5.479-2.638 8.32-.203.812-1.015 1.624-1.42 2.435-.609-.608-1.827-1.014-2.03-1.623-1.217-3.653-2.232-7.508-3.044-11.364-.202-1.014.406-2.435 1.218-3.246 2.232-2.03 4.667-1.827 7.711.405 1.42 1.015 2.841 2.436 3.856-.405 2.232-6.9 4.464-13.596 6.696-20.495 1.826-5.682 3.855-11.364 5.885-16.843.811-2.029 0-3.044-1.218-4.058-2.029-1.42-4.261-2.638-6.493-3.653-11.567-6.087-23.54-4.261-33.28 3.45-.811.609-1.42 2.435-1.217 3.45.609 2.84 2.03 5.275 2.841 8.116 3.247 9.335 6.29 18.872 9.334 28.206.406 1.218.203 2.841.203 4.262-.203 0-.608 0-.811.203-.406-.609-.812-1.218-1.015-2.03-3.45-10.754-6.9-21.51-10.349-32.467-2.435-7.914-2.435-7.914-10.755-7.102h-1.623C55.6 68.996 44.44 78.737 41.599 89.694c-.406 2.03.203 3.247 1.623 4.262 15.22 11.16 30.235 22.321 45.454 33.482 1.42.405 2.841 1.826 4.059 3.043-2.03-1.014-4.059-2.029-5.885-3.246-15.016-10.958-30.032-21.713-45.048-32.67-1.42-1.015-2.435-1.015-3.653 0-.812.608-1.623 1.42-2.435 2.029-10.552 8.725-14.813 22.118-10.958 33.684 1.015 3.044 2.638 4.262 5.885 4.262 11.566-.203 22.93 0 34.497 0 1.42 0 2.637.203 4.058.203 0 .406 0 .811.203 1.217-1.42.203-3.044.812-4.464.812-11.567 0-22.93-.203-34.497-.406-2.84 0-4.464 1.015-4.87 3.856-.406 2.232-.812 4.261-1.218 6.493-2.029 13.393 4.262 22.93 13.799 29.829 1.42 1.015 2.84 1.015 4.261-.203 4.465-3.246 8.929-6.493 13.19-9.74 10.958-8.117 21.916-16.436 33.076-24.35 4.059-3.044 4.262-2.841 1.827-7.305 1.826-.812 3.652-1.827 2.232-4.465m-3.044 33.482c.406.203 1.014.203 1.42.406-.203 1.218-.406 2.435-.811 3.653-1.827 5.884-3.653 11.972-5.682 17.857-2.03 5.682-4.261 11.16-6.088 16.842-.406 1.015.203 2.638 1.015 3.247 10.755 8.117 23.945 11.566 37.337 2.841 4.87-3.247 4.87-3.247 2.638-8.523-.203-.406-.203-.812-.406-1.217-2.84-8.726-5.681-17.249-8.319-25.974-1.421-4.87-2.841-9.74-4.059-14.408.203 0 .609-.203.812-.203 1.015 2.435 2.232 4.668 3.044 7.103 4.058 11.769 7.914 23.741 11.566 35.714.812 2.638 2.029 3.855 4.667 3.855 13.393-.203 25.974-7.914 30.439-21.104 1.014-2.84.405-4.87-2.03-6.696a3582 3582 0 0 0-47.483-35.308c-1.624-1.218-2.638-1.218-4.059.203-2.232 2.232-5.884 2.435-8.32.406-1.623-1.421-2.637-1.218-4.26.203-6.494 5.275-13.19 10.146-19.887 15.016-9.131 6.696-18.06 13.19-27.394 19.683-1.827 1.218-2.435 2.841-1.42 4.667 1.826 3.653 3.449 7.711 5.884 10.958 5.885 7.914 14.002 11.363 23.742 11.769 2.84.203 4.667-1.014 5.682-4.058 2.435-8.523 5.478-16.843 8.32-25.162 1.014-4.059 2.231-7.914 3.652-11.77"/><path fill="#F5A423" d="M106.736 125.408c1.421-4.261 2.638-8.522 4.059-12.784.811-2.232 1.826-4.058 4.667-3.652 2.435.406 5.479 3.449 5.479 5.479 0 .608-.203 1.42-.609 1.623-4.261 3.45-8.726 6.696-13.19 9.943-.203 0-.203-.406-.406-.609M92.735 126.22c-1.624-1.218-3.247-2.638-5.073-3.856-2.232-1.623-4.667-3.449-6.9-5.073-1.42-1.014-2.638-2.232-1.623-4.261 1.015-2.435 3.044-3.855 5.682-4.261 2.232-.406 2.84 1.42 3.45 3.044.608 1.826 1.014 3.652 1.826 5.478 1.014 2.841 2.232 5.479 3.247 8.117-.203.203-.406.609-.61.812M111.606 137.787c4.87 2.435 9.943 2.232 15.219 1.42.812-.203 2.03.609 2.638 1.421 1.624 1.826 1.218 4.667-.811 7.102-1.827 2.029-3.653 1.826-5.682.203-2.841-2.03-5.885-4.059-8.523-6.088-1.217-.812-2.029-2.029-3.044-3.044 0-.406 0-.609.203-1.014M92.329 146.106c-1.826 5.479-3.45 10.552-5.276 15.422-.406 1.015-1.826 1.827-2.84 2.03-2.233.405-5.074-1.827-6.291-4.465-1.015-2.435.811-3.449 2.435-4.667 3.246-2.435 6.493-5.073 9.74-7.711.406-.203 1.217-.203 2.232-.609M107.345 145.294c4.464 3.247 8.929 6.494 13.19 10.146 1.826 1.624.609 5.073-2.232 6.9-2.638 1.623-4.87 1.217-6.088-1.218-.811-1.623-1.014-3.449-1.826-5.073l-3.653-9.74c.203-.609.406-.812.609-1.015M100.04 149.15c1.014 3.247 2.029 6.088 3.044 8.928.405 1.218.811 2.435 1.014 3.653.812 3.247-.203 5.073-3.044 6.088-2.435.811-6.087-.812-6.899-3.044a2.8 2.8 0 0 1 0-1.826c1.42-4.262 3.044-8.523 4.464-12.582 0-.405.406-.405 1.421-1.217M88.068 133.931c-4.059-3.45-8.523-2.232-12.987-2.029-3.856.203-5.48-.812-6.088-3.45-.406-1.826 1.624-5.479 3.653-6.29.608-.203 1.623-.406 2.029 0 4.058 2.638 8.117 5.478 12.175 8.319.812.609 1.015 1.624 1.624 2.638-.203.203-.203.609-.406.812M87.053 139.207c-.609.812-1.015 1.623-1.826 2.232-3.247 2.435-6.697 4.667-9.943 7.102-1.827 1.218-3.247 1.421-4.87 0-2.03-1.826-3.247-3.855-2.03-6.696.812-2.232 2.638-2.232 4.87-2.232 4.465.203 8.929-.203 13.799-.406"/></g><defs><clipPath id="a"><path fill="#fff" d="M0 .365h200v235.226H0z"/></clipPath></defs></svg>