<svg xmlns="http://www.w3.org/2000/svg" width="200" height="199" fill="none"><g clip-path="url(#a)"><path fill="url(#b)" fill-rule="evenodd" d="M100.351.19C45.451.19.921 44.467.921 99.11s44.53 98.918 99.43 98.918c17.964 0 34.783-4.723 49.326-13.019l5.172 13.019h40.095l-15.682-38.778c12.839-16.667 20.464-37.515 20.464-60.14 0-54.642-44.475-98.919-99.375-98.919" clip-rule="evenodd"/><path fill="url(#c)" fill-rule="evenodd" d="M164.897 60.092c0 31.306-29.48 56.684-65.845 56.684S33.208 91.398 33.208 60.092 62.688 3.408 99.052 3.408c36.365 0 65.845 25.378 65.845 56.684" clip-rule="evenodd"/><path fill="#000" fill-rule="evenodd" d="M121.141 41.012c0 6.456-5.232 11.69-11.685 11.69s-11.684-5.234-11.684-11.69 5.231-11.69 11.684-11.69 11.685 5.234 11.685 11.69" clip-rule="evenodd"/><path fill="#000" d="m154.203 56.124-66.3-9.567-1.399 9.692 66.301 9.567z"/><path fill="#000" d="M159.564 59.221h-11.685v5.17h11.685z"/><path fill="#F60" fill-rule="evenodd" d="M73.965 16.483c-.102 3.89-6.88.503-7.174 4.951-7.517-3.348.585 5.113-.167 5.897h-.055l-.556-.055c-.363-.13-.89-.355-1.669-.835-5.25 4.184-5.377 12.878-10.788 17.692-3.55 7.664-4.413 15.993-7.007 23.978-1.278 7.66-2.4 15.307-.5 22.977.57 6.234-1.227 14.703 4.448 19.083 8.413 6.913 15.403 15.659 22.467 23.979 11.067 13.625 20.873 28.24 29.529 43.506.577-3.77 1.974 7.592 4.504 8.345-.875-5.683-2.015-14.711-2.558-21.698-2.814-18.321-11.84-34.981-15.237-53.131-.105-.766-.228-1.552-.334-2.336v-2.281h-.278c-1.113-8.978-1.513-18.632 5.005-25.648 6.655-6.715 16.561-8.407 24.579-13.074 1.783-1.052 3.647-1.908 5.561-2.503.016-.006.041.005.056 0 5.547-1.715 11.475-1.662 17.239-.724.085.015.193.042.278.056.524.088 1.093.176 1.613.278 4.22.376 12.714 2.024 14.236-.89-5.823-4.96-14.21-4.615-21.299-6.565a46 46 0 0 0-3.892-.556l-6.952-1.558-1.724-.445v.055l-24.857-4.84a12 12 0 0 0-1.224-1.001l24.246 3.004v-.111c.855.19 1.701.344 2.558.445v.055l17.128 3.172c2.956 1.103 6.108 1.929 9.065 2.114 4.88.71 11.078 7.995 12.679 8.345-.785-7.668-8.439-11.102-14.793-13.352-7.422-3.61-18.511-3.48-19.685-13.464-.313-.696-.621-1.39-1.001-2.058l-2.892-3.84.111-.055c-3.945-4.659-9.503-8.05-15.404-9.346-5.857-2.023-12.435-4.036-18.63-4.84-2.101 6.192-4.453-4.906-9.508-1.614-4.431.525-3.82 1.696-7.118-1.112m31.864 18.08c1.605-.042 3.439.254 5.283.89 4.916 1.7 8.117 5.28 7.174 8.012S112.58 47 107.664 45.301s-8.117-5.223-7.174-7.956c.59-1.707 2.664-2.71 5.339-2.781" clip-rule="evenodd"/></g><defs><radialGradient id="b" cx="0" cy="0" r="1" gradientTransform="matrix(9940.26 0 0 9891.81 8670.1 7603.04)" gradientUnits="userSpaceOnUse"><stop/><stop offset="1" stop-opacity=".897"/></radialGradient><linearGradient id="c" x1="6677.01" x2="6677.01" y1="-25.364" y2="10874.2" gradientUnits="userSpaceOnUse"><stop stop-color="#fff"/><stop offset="1" stop-color="#fff" stop-opacity="0"/></linearGradient><clipPath id="a"><path fill="#fff" d="M0 .117h200V198.96H0z"/></clipPath></defs></svg>