<svg xmlns="http://www.w3.org/2000/svg" width="200" height="200" fill="none"><path fill="url(#a)" d="M99.497 1.9C44.894 1.9.604 45.92.604 100.241s44.29 98.341 98.893 98.341c17.867 0 34.595-4.695 49.06-12.943l5.144 12.943h39.878l-15.597-38.551c12.77-16.57 20.354-37.296 20.354-59.79 0-54.322-44.235-98.34-98.839-98.34"/><path fill="url(#b)" d="M163.695 61.452c.003 7.403-1.688 14.733-4.978 21.573s-8.113 13.055-14.194 18.29c-6.082 5.236-13.302 9.389-21.25 12.222-7.947 2.834-16.465 4.292-25.068 4.292-8.602 0-17.12-1.458-25.068-4.292-7.947-2.833-15.168-6.986-21.25-12.222-6.08-5.235-10.904-11.45-14.194-18.29s-4.98-14.17-4.977-21.573c-.004-7.402 1.688-14.733 4.977-21.572 3.29-6.84 8.113-13.055 14.195-18.29 6.081-5.236 13.302-9.389 21.25-12.222 7.947-2.834 16.465-4.292 25.067-4.292s17.121 1.458 25.068 4.292 15.168 6.986 21.25 12.221c6.081 5.236 10.905 11.45 14.194 18.29s4.981 14.171 4.978 21.573"/><path fill="#000" d="M120.175 42.484a11.61 11.61 0 0 1-3.402 8.222 11.61 11.61 0 0 1-8.22 3.406 11.63 11.63 0 0 1-10.738-7.179 11.6 11.6 0 0 1-.883-4.45 11.621 11.621 0 1 1 23.243 0"/><path fill="#000" d="m153.288 57.548-65.943-9.516-1.847 9.559 65.943 9.515z"/><path fill="#000" d="M158.391 60.586H146.77v5.14h11.621z"/><path fill="#F60" d="M73.253 18.098c-.1 3.868-6.842.5-7.135 4.922-7.476-3.328.582 5.083-.166 5.863h-.055l-.553-.055c-.36-.129-.884-.352-1.66-.83-5.22 4.16-5.347 12.803-10.73 17.589-3.53 7.62-4.388 15.9-6.968 23.838-1.271 7.616-2.388 15.218-.498 22.843.567 6.198-1.22 14.617 4.425 18.971 8.367 6.873 15.32 15.568 22.345 23.839 11.007 13.546 20.76 28.075 29.369 43.252.574-3.748 1.964 7.548 4.48 8.297-.87-5.651-2.003-14.626-2.544-21.571-2.799-18.214-11.775-34.777-15.155-52.821-.104-.762-.227-1.543-.332-2.323v-2.268H87.8c-1.107-8.925-1.505-18.523 4.978-25.498 6.619-6.676 16.471-8.358 24.447-12.997 1.773-1.047 3.627-1.897 5.531-2.49.016-.005.04.006.055 0 5.517-1.704 11.413-1.651 17.146-.718.085.014.192.041.276.055.522.087 1.087.175 1.604.276 4.197.375 12.646 2.013 14.16-.884-5.792-4.932-14.134-4.588-21.184-6.527a46 46 0 0 0-3.872-.553l-6.913-1.549-1.715-.442v.055L97.59 51.56a12 12 0 0 0-1.217-.995l24.115 2.986v-.11c.85.189 1.691.342 2.544.442v.055l17.035 3.153c2.94 1.096 6.075 1.918 9.016 2.102 4.854.706 11.018 7.948 12.611 8.296-.781-7.623-8.394-11.037-14.713-13.274-7.383-3.59-18.411-3.459-19.58-13.385-.31-.692-.617-1.383-.995-2.047l-2.876-3.816.11-.055c-3.924-4.632-9.451-8.004-15.32-9.292-5.826-2.011-12.368-4.013-18.53-4.812-2.09 6.156-4.43-4.877-9.457-1.604-4.407.522-3.799 1.686-7.08-1.106m31.693 17.975c1.596-.042 3.42.252 5.254.885 4.89 1.69 8.074 5.249 7.135 7.965-.938 2.716-5.675 3.514-10.564 1.825-4.89-1.69-8.074-5.193-7.135-7.91.586-1.697 2.649-2.694 5.31-2.765"/><defs><radialGradient id="a" cx="0" cy="0" r="1" gradientTransform="rotate(57.146 -27.725 118.458)scale(177.581 98.3407)" gradientUnits="userSpaceOnUse"><stop/><stop offset="1" stop-opacity=".897"/></radialGradient><linearGradient id="b" x1="98.795" x2="98.795" y1="4.813" y2="113.172" gradientUnits="userSpaceOnUse"><stop stop-color="#fff"/><stop offset="1" stop-color="#fff" stop-opacity="0"/></linearGradient></defs></svg>