<svg xmlns="http://www.w3.org/2000/svg" width="200" height="200" fill="none"><path fill="url(#a)" d="M99.5 2.07C44.9 2.07.6 46.1.6 100.41s44.3 98.34 98.9 98.34c17.86 0 34.6-4.7 49.06-12.94l5.14 12.94h39.88l-15.6-38.55a97.6 97.6 0 0 0 20.36-59.79c0-54.32-44.24-98.34-98.84-98.34"/><path fill="url(#b)" d="M163.7 61.62c0 7.4-1.7 14.74-4.98 21.58a57 57 0 0 1-14.2 18.29 67 67 0 0 1-21.25 12.22A75 75 0 0 1 98.21 118c-8.6 0-17.13-1.46-25.07-4.3a67 67 0 0 1-21.25-12.21 57 57 0 0 1-14.2-18.3 49.6 49.6 0 0 1-4.97-21.57c0-7.4 1.68-14.73 4.97-21.57a57 57 0 0 1 14.2-18.29A67 67 0 0 1 73.14 9.54a75 75 0 0 1 25.07-4.3 75 75 0 0 1 25.06 4.3 67 67 0 0 1 21.25 12.22 57 57 0 0 1 14.2 18.29 49.6 49.6 0 0 1 4.97 21.57"/><path fill="#000" d="M120.18 42.65a11.61 11.61 0 1 1-23.23.02 11.61 11.61 0 0 1 23.22-.02"/><path fill="#000" d="M153.29 57.72 87.34 48.2l-1.84 9.56 65.94 9.52z"/><path fill="#000" d="M158.4 60.76h-11.63v5.14h11.62z"/><path fill="#F60" d="M73.25 18.27c-.1 3.87-6.84.5-7.13 4.92-7.48-3.33.58 5.08-.17 5.86h-.05l-.56-.05a9 9 0 0 1-1.66-.83c-5.22 4.16-5.34 12.8-10.73 17.59-3.53 7.62-4.38 15.9-6.96 23.84-1.27 7.61-2.4 15.21-.5 22.84.57 6.2-1.22 14.62 4.42 18.97 8.37 6.87 15.32 15.57 22.35 23.84a315 315 0 0 1 29.37 43.25c.57-3.75 1.96 7.55 4.48 8.3-.87-5.65-2-14.63-2.55-21.57-2.8-18.22-11.77-34.78-15.15-52.82q-.16-1.16-.33-2.33v-2.27h-.28c-1.1-8.92-1.5-18.52 4.98-25.5 6.62-6.67 16.47-8.35 24.44-13a26 26 0 0 1 5.54-2.48h.05c5.52-1.7 11.41-1.65 17.15-.72l.27.06c.53.08 1.09.17 1.6.27 4.2.38 12.65 2.02 14.17-.88-5.8-4.93-14.14-4.59-21.19-6.53-1.11-.2-2.5-.42-3.87-.55l-6.91-1.55-1.72-.44v.05L97.6 51.73c-.4-.36-.82-.72-1.22-1l24.12 3v-.12q1.27.29 2.54.44v.06l17.04 3.15a32 32 0 0 0 9.01 2.1c4.86.7 11.02 7.95 12.61 8.3-.78-7.62-8.39-11.04-14.7-13.27-7.4-3.6-18.42-3.46-19.59-13.39q-.44-1.05-1-2.05l-2.87-3.81.11-.06a28.4 28.4 0 0 0-15.32-9.29c-5.83-2.01-12.37-4.01-18.53-4.81-2.09 6.15-4.43-4.88-9.46-1.6-4.4.52-3.8 1.68-7.08-1.11m31.7 17.97c1.6-.04 3.42.26 5.25.89 4.89 1.69 8.07 5.25 7.13 7.96-.93 2.72-5.67 3.52-10.56 1.83-4.89-1.7-8.07-5.2-7.13-7.91.58-1.7 2.64-2.7 5.3-2.77"/><defs><radialGradient id="a" cx="0" cy="0" r="1" gradientTransform="rotate(57.15 -27.88 118.54)scale(177.581 98.3407)" gradientUnits="userSpaceOnUse"><stop/><stop offset="1" stop-opacity=".9"/></radialGradient><linearGradient id="b" x1="98.8" x2="98.8" y1="4.98" y2="113.34" gradientUnits="userSpaceOnUse"><stop stop-color="#fff"/><stop offset="1" stop-color="#fff" stop-opacity="0"/></linearGradient></defs></svg>