<svg xmlns="http://www.w3.org/2000/svg" width="200" height="135" fill="none"><path fill="#77B900" d="M20.803 58.198S38.9 31.628 74.71 28.933v-9.626C34.665 22.772.395 56.272.395 56.272s19.638 56.604 74.316 61.61v-10.397C34.28 102.48 20.803 58.198 20.803 58.198"/><path fill="#77B900" d="M74.711 87.462v9.241c-30.42-5.39-38.89-36.966-38.89-36.966S50.452 43.566 74.71 40.87v10.396c-12.707-1.54-22.718 10.397-22.718 10.397s5.39 20.023 22.718 25.799"/><path fill="#77B900" d="M74.711 1.594v17.713c1.155 0 2.31 0 3.466-.386 45.437-1.54 74.701 36.966 74.701 36.966s-33.885 41.587-69.31 41.587c-3.08 0-6.161-.386-9.242-.77v11.166c2.31.385 5.006.385 7.701.385 32.73 0 56.604-16.942 79.708-36.58 3.85 3.08 19.253 10.396 22.718 13.862-21.948 18.483-72.776 33.115-101.655 33.115-2.696 0-5.391 0-8.087-.385v15.402h124.76V1.594z"/><path fill="#77B900" d="M74.711 40.87V28.933h3.466c32.73-1.155 53.908 28.11 53.908 28.11s-23.103 31.959-47.747 31.959c-3.466 0-6.931-.385-9.627-1.54V51.266c12.707 1.54 15.403 7.316 22.719 19.638l16.943-14.247s-12.322-16.172-33.116-16.172c-2.31 0-4.62.385-6.546.385"/></svg>