<svg xmlns="http://www.w3.org/2000/svg" width="200" height="34" fill="none"><g clip-path="url(#a)"><path fill="#231F20" d="M.498 33.388V1.344h29.8c2.39 0 3.653 1.19 3.653 3.437v13.053c0 1.493-1.504 3.088-3.74 3.088H13.7v12.466zm23.858-16.475c.994 0 1.507-.813 1.507-1.159V6.3c0-.869-.397-.942-.77-.942H13.7v11.556zM170.005 33.389c-2.135 0-4.434-1.236-4.434-3.95V5.005c0-2.568 1.73-3.72 3.447-3.72h26.284c1.716 0 4.2 1.49 4.2 4.18v7.03h-11.287v-5.7c0-.255-.272-.538-.387-.538h-8.294c-.495 0-.767 0-.767.883v20.104c0 .883.272.883.767.883h8.294c.115 0 .387-.28.387-.537v-5.412h11.287v7.03c0 2.69-2.484 4.18-4.2 4.18h-25.3zM138.844 33.388V1.344h13.214v.004h12.354V6.18h-12.354v8.629h12.354v5.028h-12.354v8.29h12.354v5.261zM113.897 33.388V6.18h-6.496l-9.425 12.467v14.741H84.763V17.89L72.443 1.344h13.625l5.502 8.07 5.87-8.066 13.554-.004v.004h2.903l.792-.004h12.422v.004h10.087V6.18h-10.087v27.208zM58.071 33.388V20.995h-9.354v12.393H35.504V1.344h13.213V16h9.354V1.344h13.213v32.044z"/><path fill="url(#b)" d="M1.29 32.596V2.136h29.008c2.212 0 2.861 1.085 2.861 2.645v13.053c0 .998-1.085 2.3-2.948 2.3h-17.3V32.6H1.29zm23.066-14.895c1.43 0 2.3-1.172 2.3-1.95V6.299c0-1.173-.608-1.734-1.56-1.734H12.912V17.7H24.36z"/><path fill="url(#c)" d="M177.975 27.244c0 1.385.694 1.675 1.559 1.675h8.294c.61 0 1.179-.691 1.179-1.33v-4.622h9.703v6.238c0 2.139-2.02 3.388-3.408 3.388h-25.3c-1.274 0-3.643-.614-3.643-3.158V5.005c0-2.254 1.501-2.928 2.659-2.928h26.284c1.385 0 3.408 1.253 3.408 3.388v6.239h-9.703v-4.91c0-.635-.569-1.329-1.179-1.329h-8.294c-.865 0-1.559.29-1.559 1.675z"/><path fill="url(#d)" d="M163.62 5.388V2.14h-12.355v-.004h-11.629v30.46h23.984V28.92h-12.355v-9.871h12.355v-3.447h-12.355V5.388z"/><path fill="url(#e)" d="M136.405 2.14h-10.087v-.004h-11.629v.004h-5.223v-.004l-11.622.004-6.295 8.65-5.9-8.654H74.02l11.535 15.492v14.968h11.63V18.382l9.821-12.994h7.683v27.208h11.629V5.388h10.087z"/><path fill="url(#f)" d="M58.864 2.136v14.655H47.925V2.136h-11.63v30.46h11.63V20.203h10.939v12.393h11.629V2.136z"/></g><defs><linearGradient id="b" x1="17.224" x2="17.224" y1="2.457" y2="33.357" gradientUnits="userSpaceOnUse"><stop stop-color="#fff"/><stop offset="1" stop-color="#828282"/></linearGradient><linearGradient id="c" x1="182.535" x2="182.535" y1="2.457" y2="33.357" gradientUnits="userSpaceOnUse"><stop stop-color="#fff"/><stop offset="1" stop-color="#828282"/></linearGradient><linearGradient id="d" x1="151.628" x2="151.628" y1="1.285" y2="1.285" gradientUnits="userSpaceOnUse"><stop stop-color="#fff"/><stop offset="1" stop-color="#828282"/></linearGradient><linearGradient id="e" x1="105.213" x2="105.213" y1="1.285" y2="1.285" gradientUnits="userSpaceOnUse"><stop stop-color="#fff"/><stop offset="1" stop-color="#828282"/></linearGradient><linearGradient id="f" x1="53.396" x2="53.396" y1="1.285" y2="1.285" gradientUnits="userSpaceOnUse"><stop stop-color="#fff"/><stop offset="1" stop-color="#828282"/></linearGradient><clipPath id="a"><path fill="#fff" d="M0 .56h200v32.837H0z"/></clipPath></defs></svg>