<svg xmlns="http://www.w3.org/2000/svg" width="200" height="33" fill="none"><g clip-path="url(#a)"><path fill="#231F20" d="M.498 32.904V.86h29.8c2.39 0 3.653 1.19 3.653 3.437V17.35c0 1.493-1.504 3.088-3.74 3.088H13.7v12.466zM24.356 16.43c.994 0 1.507-.813 1.507-1.159V5.815c0-.869-.397-.942-.77-.942H13.7v11.556zM170.005 32.905c-2.135 0-4.434-1.236-4.434-3.95V4.52c0-2.568 1.73-3.72 3.447-3.72h26.284c1.716 0 4.2 1.49 4.2 4.18v7.03h-11.287v-5.7c0-.255-.272-.538-.387-.538h-8.294c-.495 0-.767 0-.767.883V26.76c0 .883.272.883.767.883h8.294c.115 0 .387-.28.387-.537v-5.412h11.287v7.03c0 2.69-2.484 4.18-4.2 4.18h-25.3zM138.844 32.904V.86h13.214v.004h12.354v4.832h-12.354v8.629h12.354v5.028h-12.354v8.29h12.354v5.261zM113.897 32.904V5.696h-6.496l-9.425 12.467v14.741H84.763V17.406L72.443.86h13.625l5.502 8.07L97.44.865 110.993.86v.004h2.903l.792-.004h12.422v.004h10.087v4.832h-10.087v27.208zM58.071 32.904V20.511h-9.354v12.393H35.504V.86h13.213v14.655h9.354V.86h13.213v32.044z"/><path fill="url(#b)" d="M1.29 32.112V1.652h29.008c2.212 0 2.861 1.085 2.861 2.645V17.35c0 .998-1.085 2.3-2.948 2.3h-17.3v12.466H1.29zm23.066-14.895c1.43 0 2.3-1.172 2.3-1.95V5.815c0-1.172-.608-1.734-1.56-1.734H12.912v13.136H24.36z"/><path fill="url(#c)" d="M177.975 26.76c0 1.385.694 1.675 1.559 1.675h8.294c.61 0 1.179-.69 1.179-1.33v-4.622h9.703v6.238c0 2.139-2.02 3.388-3.408 3.388h-25.3c-1.274 0-3.643-.614-3.643-3.158V4.521c0-2.254 1.501-2.928 2.659-2.928h26.284c1.385 0 3.408 1.253 3.408 3.388v6.239h-9.703V6.31c0-.634-.569-1.329-1.179-1.329h-8.294c-.865 0-1.559.29-1.559 1.675z"/><path fill="url(#d)" d="M163.62 4.904V1.656h-12.355v-.004h-11.629v30.46h23.984v-3.677h-12.355v-9.87h12.355v-3.448h-12.355V4.904z"/><path fill="url(#e)" d="M136.405 1.656h-10.087v-.004h-11.629v.004h-5.223v-.004l-11.622.004-6.295 8.65-5.9-8.654H74.02l11.535 15.492v14.968h11.63V17.898l9.821-12.994h7.683v27.208h11.629V4.904h10.087z"/><path fill="url(#f)" d="M58.864 1.652v14.655H47.925V1.652h-11.63v30.46h11.63V19.72h10.939v12.393h11.629V1.652z"/></g><defs><linearGradient id="b" x1="17.224" x2="17.224" y1="1.973" y2="32.873" gradientUnits="userSpaceOnUse"><stop stop-color="#fff"/><stop offset="1" stop-color="#828282"/></linearGradient><linearGradient id="c" x1="182.535" x2="182.535" y1="1.974" y2="32.873" gradientUnits="userSpaceOnUse"><stop stop-color="#fff"/><stop offset="1" stop-color="#828282"/></linearGradient><linearGradient id="d" x1="151.628" x2="151.628" y1=".801" y2=".801" gradientUnits="userSpaceOnUse"><stop stop-color="#fff"/><stop offset="1" stop-color="#828282"/></linearGradient><linearGradient id="e" x1="105.213" x2="105.213" y1=".801" y2=".801" gradientUnits="userSpaceOnUse"><stop stop-color="#fff"/><stop offset="1" stop-color="#828282"/></linearGradient><linearGradient id="f" x1="53.396" x2="53.396" y1=".801" y2=".801" gradientUnits="userSpaceOnUse"><stop stop-color="#fff"/><stop offset="1" stop-color="#828282"/></linearGradient><clipPath id="a"><path fill="#fff" d="M0 .077h200v32.836H0z"/></clipPath></defs></svg>