<svg xmlns="http://www.w3.org/2000/svg" width="200" height="34" fill="none"><g clip-path="url(#a)"><path fill="#231F20" d="M.5 33.64V1.59h29.8c2.39 0 3.65 1.2 3.65 3.44v13.05c0 1.5-1.5 3.09-3.74 3.09H13.7v12.47zm23.86-16.48c1 0 1.5-.81 1.5-1.16V6.55c0-.87-.4-.95-.77-.95H13.7v11.56zM170 33.64c-2.13 0-4.43-1.24-4.43-3.95V5.25c0-2.57 1.73-3.72 3.45-3.72h26.28c1.72 0 4.2 1.5 4.2 4.18v7.03h-11.28v-5.7c0-.25-.28-.54-.4-.54h-8.29c-.5 0-.76 0-.76.89v20.1c0 .88.27.88.76.88h8.3c.11 0 .38-.28.38-.53v-5.41h11.3v7.03c0 2.69-2.5 4.18-4.2 4.18zM138.84 33.64V1.59h25.57v4.84h-12.35v8.63h12.35v5.02h-12.35v8.3h12.35v5.26zM113.9 33.64V6.43h-6.5l-9.42 12.46v14.75H84.76v-15.5L72.44 1.59h13.63l5.5 8.07 5.87-8.07h39.76v4.84H127.1v27.2zM58.07 33.64v-12.4h-9.35v12.4H35.5V1.59h13.22v14.66h9.35V1.59h13.21v32.05z"/><path fill="url(#b)" d="M1.29 32.84V2.38h29c2.22 0 2.87 1.09 2.87 2.65v13.05c0 1-1.09 2.3-2.95 2.3h-17.3v12.47zm23.07-14.9c1.43 0 2.3-1.16 2.3-1.94V6.55c0-1.18-.61-1.74-1.56-1.74H12.9v13.14z"/><path fill="url(#c)" d="M177.98 27.5c0 1.38.69 1.67 1.55 1.67h8.3c.6 0 1.18-.7 1.18-1.33V23.2h9.7v6.24c0 2.14-2.02 3.39-3.4 3.39H170c-1.28 0-3.65-.61-3.65-3.16V5.25c0-2.25 1.5-2.93 2.66-2.93h26.28c1.39 0 3.41 1.26 3.41 3.4v6.23h-9.7v-4.9c0-.64-.57-1.34-1.18-1.34h-8.3c-.86 0-1.56.3-1.56 1.68z"/><path fill="url(#d)" d="M163.62 5.64V2.39h-23.98v30.45h23.98v-3.67h-12.36V19.3h12.36v-3.45h-12.36V5.64z"/><path fill="url(#e)" d="M136.4 2.39H97.85l-6.3 8.65-5.9-8.66H74.03l11.54 15.5v14.96h11.62V18.63l9.83-13h7.68v27.21h11.63V5.64h10.09z"/><path fill="url(#f)" d="M58.86 2.38v14.66H47.93V2.38H36.3v30.46h11.63V20.45h10.93v12.4H70.5V2.37z"/></g><defs><linearGradient id="b" x1="17.22" x2="17.22" y1="2.7" y2="33.6" gradientUnits="userSpaceOnUse"><stop stop-color="#fff"/><stop offset="1" stop-color="#828282"/></linearGradient><linearGradient id="c" x1="182.53" x2="182.53" y1="2.7" y2="33.6" gradientUnits="userSpaceOnUse"><stop stop-color="#fff"/><stop offset="1" stop-color="#828282"/></linearGradient><linearGradient id="d" x1="151.63" x2="151.63" y1="1.53" y2="1.53" gradientUnits="userSpaceOnUse"><stop stop-color="#fff"/><stop offset="1" stop-color="#828282"/></linearGradient><linearGradient id="e" x1="105.21" x2="105.21" y1="1.53" y2="1.53" gradientUnits="userSpaceOnUse"><stop stop-color="#fff"/><stop offset="1" stop-color="#828282"/></linearGradient><linearGradient id="f" x1="53.4" x2="53.4" y1="1.53" y2="1.53" gradientUnits="userSpaceOnUse"><stop stop-color="#fff"/><stop offset="1" stop-color="#828282"/></linearGradient><clipPath id="a"><path fill="#fff" d="M0 .8h200v32.85H0z"/></clipPath></defs></svg>