<svg xmlns="http://www.w3.org/2000/svg" width="201" height="57" fill="none"><g clip-path="url(#a)"><path fill="#E51D39" d="M63.322 32.324v17.927h-3.678V32.324h-6.098V28.8H69.42v3.524zm18.631 11.461H71.565c.123 2.299 1.808 3.678 3.678 3.678 1.378 0 2.482-.521 3.31-1.625l2.267 2.33c-1.226 1.47-3.065 2.45-5.577 2.45-4.444 0-7.233-3.064-7.233-8.212 0-5.118 2.85-8.182 7.233-8.182 3.769 0 6.833 2.329 6.833 7.355 0 .643-.03 1.501-.123 2.206m-6.71-6.404c-1.931 0-3.463.98-3.647 3.432h6.925c-.153-2.39-1.654-3.432-3.278-3.432m15.321.275c-2.175 0-3.463 1.87-3.463 4.78 0 2.912 1.287 4.72 3.34 4.72 1.41 0 2.422-.797 2.85-2.268l3.433 1.042c-.889 3.096-3.034 4.689-6.282 4.689-4.26 0-6.987-3.034-6.987-8.182 0-5.118 2.727-8.213 6.987-8.213 3.034 0 5.27 1.318 6.22 4.321l-3.401 1.134c-.46-1.195-1.41-2.023-2.697-2.023m18.141 12.595v-9.04c0-2.543-1.133-3.585-2.911-3.585-1.838 0-3.187.95-3.187 3.524v9.101h-3.585v-20.47l3.585-1.655v7.937c1.011-1.226 2.36-1.839 4.137-1.839 2.973 0 5.547 1.624 5.547 6.405v9.622zm16.18 0v-8.979c0-2.574-1.103-3.646-2.911-3.646-1.931 0-3.187 1.011-3.187 3.585v9.04h-3.585V34.593h3.585v1.47c1.011-1.225 2.36-1.838 4.137-1.838 2.972 0 5.546 1.625 5.546 6.405v9.623zm12.901.368c-4.382 0-7.171-3.034-7.171-8.182 0-5.118 2.789-8.213 7.171-8.213 4.413 0 7.201 3.095 7.201 8.213 0 5.148-2.788 8.182-7.201 8.182m0-12.993c-2.176 0-3.585 1.838-3.585 4.81 0 2.973 1.409 4.75 3.585 4.75 2.237 0 3.616-1.777 3.616-4.75s-1.379-4.81-3.616-4.81m9.653 12.625v-20.44l3.585-1.685v22.125zm13.207.368c-4.382 0-7.171-3.034-7.171-8.182 0-5.118 2.789-8.213 7.171-8.213 4.413 0 7.202 3.095 7.202 8.213 0 5.148-2.789 8.182-7.202 8.182m0-12.993c-2.176 0-3.585 1.838-3.585 4.81 0 2.973 1.409 4.75 3.585 4.75 2.237 0 3.616-1.777 3.616-4.75s-1.379-4.81-3.616-4.81M175.6 56.38l-1.9-2.88c4.413-.307 5.7-1.288 5.7-3.402v-.889c-.92 1.011-2.145 1.41-3.555 1.41-3.677 0-6.466-2.758-6.466-8.212 0-5.118 2.666-8.183 6.497-8.183 1.624 0 2.788.583 3.524 1.318v-.95h3.585v14.096c.001 5.179-1.992 7.294-7.385 7.692m3.8-17.222a3.55 3.55 0 0 0-2.942-1.532c-2.237 0-3.493 1.685-3.493 4.78 0 2.88 1.256 4.781 3.493 4.781 1.287 0 2.299-.552 2.942-1.532zm12.288 17.038h-3.708l2.421-6.19-5.884-15.414h3.616l3.647 9.622c.214.521.337.92.46 1.41.122-.49.245-.889.429-1.41l3.677-9.622h3.616z"/><path fill="#1D3160" d="M66.664 12.579c2.543.92 3.524 3.034 3.524 4.964 0 2.973-1.87 6.344-7.17 6.344h-9.224V2.435h8.764c5.179 0 6.864 2.82 6.864 5.731 0 1.808-.858 3.493-2.758 4.413M62.65 5.837h-5.18v5.24h4.597c2.452 0 3.647-1.072 3.647-2.635 0-1.257-.521-2.605-3.064-2.605m-.307 8.642h-4.872v6.006h5.76c2.514 0 3.218-1.532 3.218-2.85 0-1.594-.766-3.156-4.106-3.156m10.45 9.407V3.446l3.585-1.685v22.125zm16.18 0v-1.501c-.981 1.256-2.36 1.87-4.107 1.87-2.972 0-5.577-1.656-5.577-6.436V8.227h3.585v8.949c0 2.574 1.104 3.646 2.942 3.646 1.9 0 3.157-.98 3.157-3.585v-9.01h3.585v15.66zm19.826-6.465H98.411c.122 2.298 1.808 3.677 3.677 3.677 1.379 0 2.482-.521 3.31-1.624l2.267 2.328c-1.225 1.471-3.064 2.452-5.577 2.452-4.443 0-7.232-3.064-7.232-8.213 0-5.117 2.85-8.182 7.232-8.182 3.769 0 6.834 2.33 6.834 7.355 0 .644-.031 1.502-.123 2.207m-6.711-6.405c-1.93 0-3.463.98-3.646 3.432h6.925c-.153-2.39-1.655-3.432-3.279-3.432m23.473-5.424c-3.953 0-5.179 4.198-5.179 7.569 0 3.555 1.563 7.539 5.179 7.539 1.931 0 3.126-1.134 4.106-2.758l3.402 1.287c-1.318 2.972-3.677 5.025-7.508 5.025-6.681 0-8.979-5.792-8.979-11.093 0-4.934 2.36-11.093 8.979-11.093 4.076 0 6.558 2.298 7.477 4.566l-3.31 1.501c-1.072-1.624-2.144-2.543-4.167-2.543m19.551 18.294v-9.04c0-2.543-1.134-3.585-2.911-3.585-1.839 0-3.187.95-3.187 3.524v9.101h-3.586V3.416l3.586-1.655v7.937c1.011-1.225 2.36-1.838 4.137-1.838 2.972 0 5.546 1.624 5.546 6.404v9.622zm8.182-17.804a2.13 2.13 0 0 1-2.146-2.145c0-1.164.95-2.114 2.146-2.114s2.114.95 2.114 2.114c0 1.195-.919 2.145-2.114 2.145m1.777 17.804h-3.586V8.227h3.586zm10.388.368c-1.685 0-2.819-.705-3.554-1.624v5.761l-3.586 1.655V8.227h3.586v1.195c.766-.919 1.9-1.562 3.585-1.562 3.892 0 6.435 2.972 6.435 8.212 0 5.148-2.666 8.182-6.466 8.182m-.521-12.993c-1.409 0-2.39.582-3.033 1.532v6.497c.551.797 1.593 1.532 3.033 1.532 2.176 0 3.402-1.685 3.402-4.75 0-2.85-1.195-4.811-3.402-4.811"/><path fill="#E51D39" fill-rule="evenodd" d="M40.813 28.11c-1.447.372-2.617 1.503-3.495 2.72-2.631 3.298-2.686 6.414-8.347 10.407-4.74 3.35-10.384 3.607-10.775 3.604-.39-.003-.848-.025-.883.074.06.038.164.125.304.245.587.326 3.007 2.056 6.757 2.182 5.106-.053 8.93-3.824 11.547-8.973 2.435-4.269 2.254-6.761 5.135-10.133z" clip-rule="evenodd"/><path fill="#1D3160" fill-rule="evenodd" d="M40.812 28.11c-2.553-1.246-6.033-1.46-9.561-1.067 2.172-1.721 5.736-1.655 5.736-1.655s.11.621.736.662c.55.02.662-.662.662-.662s.484.02 1.287.037c-3.506-2.59-7.205-1.86-9.745-.33-2.54 1.527-5.54 3.116-6.436 4.853-.895 1.738-3.2 8.16-6.803 13.974-3.031 4.601-3.76 5.293-4.412 7.06-.037.076-.155.159-.258.148-.48-.755-1.043-.446-1.067-.846.447-.389 3.089-4.353 4.855-7.65 1.766-3.296 4.343-8.361 4.596-13.164.015-3.33-1.686-5.317-4.082-9.156-2.672-3.98-3.381-3.352-7.538-6.988C4.625 9.692 2.68 5.854 2.273 2.294 4.2 6.2 9.141 10.56 13.599 11.93c1.818.492 2.792 1.426 3.273 2.611.521 1.284.486 2.872.92 4.78.21 1.08.686 2.304 1.323 3.384 1.538 2.48 3.997 4.733 5.81 4.596 1.614-.11 2.895-1.887 4.634-3.677 1.75-1.803 4.148-3.652 6.398-3.457 1.984.043 4.432 1.357 5.663 2.832 1.414 1.694 1.463 3.066 2.832 4.34 2.298 1.437 4.01 3.052 5.259 4.633-2.686.08-6.65-2.723-8.9-3.861m-7.576-10.223c-1.905 1.582-3.702 5.11-3.787 5.332-.086.222-.221.183-.221.183s.218-1.844 1.397-4.376c1.238-2.693 2.884-4.501 3.09-4.927.366-.646.633-1.89 1.433-3.861 1.387-3.263 3.486-5.779 3.714-6.105.229-.326.536-.628.552-.441-1.818 4.37-2.277 9.867-2.574 11.069-.752 2.082-1.699 1.543-3.604 3.126m.22-5.149c-.237 1.43-1.493 2.767-1.69 3.163-.198.396-.254.308-.368.257-3.452-3.866-2.885-6.988-2.06-8.163 1.36-2.625 7.497-3.978 7.65-4.009.151-.03.27-.11.367 0 .098.11-1.083 1.143-2.17 3.383s-1.49 3.94-1.728 5.37M31.14 16.82s-.177.543-.294.589-3.857-1.575-4.744-3.898c-.83-2.168.792-3.961 1.729-4.67 0 0 .133-.01.147.073s-.478 1.635.257 3.604c.89 2.419 2.905 4.302 2.905 4.302m-.662 1.287c-.009.303-.303.817-.404.846s-3.454-.157-4.891-1.949c-1.346-1.709-.294-3.888-.294-3.935 0 0 .146-.146.22 0 .065.1-.12.78.993 2.28 1.48 1.767 4.266 2.593 4.376 2.758m-4.89.405c1.459 1.026 3.89 1.227 4.044 1.213s.185.06.184.11c0 .051-.264 1.114-.33 1.288-.067.174-2.628.714-4.082-.074-1.85-.889-1.526-3.679-1.435-4.045.147-.266.287.527 1.618 1.508m.551 6.73c.74-.037 1.242-.43 1.508-.332-.264.227-1.125 1.366-2.096 1.361-.841-.071-1.026-1.138-1.067-1.214.14-.144.915.22 1.655.184m2.574-3.016c.23-.074.258.037.258.037l-.221 1.066s-1.297 1.224-2.795 1.103c-1.973.03-2.136-2.97-2.096-3.2.04-.228.676.766 2.354 1.14 1.297.214 2.27-.072 2.5-.146M8.23 14.099c3.545 3.108 5.27 2.462 8.421 8.053-.09.14-4.596.568-8.788-1.655C3.047 18.164.598 12.23 1.758 5.862c.115.055.183-.05.405.515.222.564 2.16 4.254 6.067 7.722m1.03 7.943c4.132 1.481 7.418.719 7.686.846s.404.735.404.735-4.383 2.102-8.164.993c-5.453-1.372-6.508-7.465-6.508-7.465s1.843 3.164 6.582 4.891m2.685 3.898c3.235.043 5.957-1.655 5.957-1.655s.423.74.441.956c.018.217-3.011 2.36-5.957 2.207-3.602-.005-6.37-2.823-6.288-3.052.114-.066 2.12 1.517 5.847 1.544m7.832 4.817c-.07.513-.202 2.98-1.986 3.678-1.214.35-2.574-.993-2.574-.993.053-.19 1.343.158 2.905-.883 1.26-.795 1.35-1.733 1.655-1.802m-8.2-.036c.052-.04 2.407.933 4.817-.148 2.148-1.048 2.9-2.574 3.016-2.647s.183-.037.183-.037.248 1.28.148 1.581-1.936 3.037-4.487 3.09c-2.233-.122-3.809-1.74-3.677-1.84m2.537-2.354c2.886-.433 4.413-2.169 4.633-2.17s.377.652.331.81c-.044.157-2.574 3.297-5.442 3.162-3.31-.02-5.258-2.832-5.258-2.832.086.003 2.85 1.462 5.736 1.03m3.052 18.092c.326.674.625.883.625.883s-.731.72-1.801 2.317c-1.262 1.788-1.802 3.53-1.802 3.53s-.146.032-.22-.037c-.076-.069-.5-.555-1.104-1.287-.507-2.067 3.473-6.065 3.677-6.435.268-.013.3.356.625 1.03m.956 1.361s.58.337.625.441c.046.105-.337 1.648-1.176 3.64-1.018 2.135-1.96 2.608-2.574 2.685-.423-.471-.37-1.279.33-2.794.701-1.516 2.583-3.592 2.795-3.972m2.04 1.36c.555.44.445 1.406-.127 3.09-.458 1.35-2.532 1.663-2.795 1.654-.007-.188.863-.923 2.023-5.295.003.005.242.04.898.551m-1.047-1.213c-1.185-.945-1.7-2.424-1.802-3.052.4.255 2.696 2.646 5.664 3.273.004.247-.32.528-.773 1.397-.678 1.095-.882 2.979-.882 2.979s-.612.13-.736.22c-.123.09-.22 0-.22 0s.446-1.674.588-2.72c.089-.988-.883-1.471-1.839-2.097" clip-rule="evenodd"/></g><defs><clipPath id="a"><path fill="#fff" d="M.5.904h200v55.72H.5z"/></clipPath></defs></svg>