<svg xmlns="http://www.w3.org/2000/svg" width="200" height="57" fill="none"><g clip-path="url(#a)"><path fill="#E51D39" d="M62.82 32.32v17.93h-3.68V32.32h-6.1V28.8h15.88v3.52zM81.45 43.8H71.07c.12 2.3 1.8 3.67 3.67 3.67a3.9 3.9 0 0 0 3.31-1.62l2.27 2.33a7 7 0 0 1-5.58 2.45c-4.44 0-7.23-3.07-7.23-8.21 0-5.12 2.85-8.19 7.23-8.19 3.77 0 6.84 2.33 6.84 7.36 0 .64-.03 1.5-.13 2.2m-6.7-6.4c-1.94 0-3.47.97-3.65 3.42h6.92c-.15-2.39-1.65-3.43-3.28-3.43m15.31.27c-2.17 0-3.46 1.87-3.46 4.78 0 2.9 1.29 4.72 3.34 4.72 1.41 0 2.42-.8 2.85-2.27l3.43 1.04c-.89 3.1-3.03 4.69-6.28 4.69-4.26 0-6.99-3.03-6.99-8.18 0-5.12 2.73-8.22 7-8.22 3.03 0 5.26 1.32 6.21 4.33l-3.4 1.13c-.46-1.2-1.4-2.02-2.7-2.02m18.14 12.6V41.2c0-2.54-1.13-3.58-2.9-3.58-1.84 0-3.2.95-3.2 3.52v9.1h-3.58V29.78l3.59-1.65v7.93a5 5 0 0 1 4.13-1.84c2.98 0 5.55 1.63 5.55 6.4v9.63zm16.19 0v-8.99c0-2.57-1.1-3.64-2.92-3.64-1.93 0-3.18 1-3.18 3.58v9.04h-3.59V34.6h3.59v1.47a5 5 0 0 1 4.13-1.84c2.98 0 5.55 1.63 5.55 6.4v9.63zm12.9.36c-4.39 0-7.17-3.03-7.17-8.18 0-5.12 2.78-8.22 7.17-8.22s7.2 3.1 7.2 8.22c0 5.15-2.8 8.18-7.2 8.18m0-13c-2.18 0-3.59 1.84-3.59 4.82 0 2.97 1.41 4.75 3.59 4.75 2.23 0 3.61-1.78 3.61-4.75 0-2.98-1.38-4.81-3.61-4.81m9.65 12.63V29.81l3.58-1.68v22.12zm13.2.37c-4.38 0-7.16-3.03-7.16-8.18 0-5.12 2.78-8.22 7.17-8.22s7.2 3.1 7.2 8.22c0 5.15-2.8 8.18-7.2 8.18m0-13c-2.17 0-3.58 1.84-3.58 4.82 0 2.97 1.41 4.75 3.59 4.75 2.23 0 3.61-1.78 3.61-4.75 0-2.98-1.38-4.81-3.61-4.81m14.96 18.76-1.9-2.88c4.41-.3 5.7-1.29 5.7-3.4v-.9a4.6 4.6 0 0 1-3.56 1.42c-3.67 0-6.46-2.76-6.46-8.21 0-5.12 2.66-8.19 6.5-8.19 1.62 0 2.78.59 3.52 1.32v-.95h3.59v14.1c0 5.18-2 7.3-7.39 7.69m3.8-17.22a3.6 3.6 0 0 0-2.94-1.53c-2.24 0-3.5 1.68-3.5 4.78 0 2.88 1.26 4.78 3.5 4.78 1.28 0 2.3-.55 2.94-1.54zm12.29 17.04h-3.71l2.42-6.2-5.88-15.4h3.61l3.65 9.61c.21.53.34.92.46 1.41.12-.49.25-.88.43-1.4l3.68-9.63h3.61z"/><path fill="#1D3160" d="M66.16 12.58a5.1 5.1 0 0 1 3.53 4.96c0 2.98-1.87 6.35-7.17 6.35h-9.23V2.44h8.77c5.18 0 6.86 2.81 6.86 5.73 0 1.8-.86 3.49-2.76 4.4m-4.01-6.74h-5.18v5.24h4.6c2.45 0 3.64-1.08 3.64-2.64 0-1.25-.52-2.6-3.06-2.6m-.3 8.64h-4.88v6h5.76c2.51 0 3.22-1.53 3.22-2.84 0-1.6-.77-3.16-4.1-3.16m10.44 9.4V3.46l3.59-1.69V23.9zm16.18 0v-1.5a4.9 4.9 0 0 1-4.1 1.87c-2.98 0-5.58-1.65-5.58-6.43v-9.6h3.58v8.96c0 2.57 1.1 3.64 2.95 3.64 1.9 0 3.15-.98 3.15-3.58V8.23h3.59v15.66zm19.83-6.46H97.9c.12 2.3 1.8 3.68 3.68 3.68a3.9 3.9 0 0 0 3.3-1.63l2.28 2.33a7 7 0 0 1-5.58 2.45c-4.45 0-7.23-3.06-7.23-8.2s2.85-8.2 7.23-8.2c3.77 0 6.83 2.34 6.83 7.36 0 .65-.03 1.5-.12 2.21m-6.71-6.4c-1.93 0-3.46.98-3.65 3.43h6.93c-.16-2.4-1.66-3.43-3.28-3.43m23.47-5.43c-3.95 0-5.18 4.2-5.18 7.57 0 3.56 1.56 7.54 5.18 7.54 1.93 0 3.13-1.13 4.1-2.76l3.4 1.29c-1.3 2.97-3.67 5.02-7.5 5.02-6.68 0-8.98-5.79-8.98-11.09 0-4.93 2.36-11.1 8.98-11.1 4.08 0 6.56 2.3 7.48 4.57l-3.31 1.5c-1.07-1.62-2.15-2.54-4.17-2.54m19.55 18.3v-9.04c0-2.55-1.13-3.59-2.9-3.59-1.85 0-3.2.95-3.2 3.53v9.1h-3.58V3.42l3.58-1.66V9.7a5 5 0 0 1 4.14-1.84c2.97 0 5.55 1.62 5.55 6.4v9.63zm8.18-17.8a2.13 2.13 0 1 1-.02-4.27 2.13 2.13 0 0 1 .02 4.26m1.78 17.8H151V8.23h3.58zm10.39.36c-1.69 0-2.82-.7-3.56-1.62v5.76l-3.58 1.66V8.23h3.59v1.2a4.4 4.4 0 0 1 3.58-1.57c3.9 0 6.44 2.97 6.44 8.21 0 5.15-2.67 8.18-6.47 8.18m-.52-12.99c-1.41 0-2.4.58-3.03 1.53v6.5c.55.8 1.59 1.53 3.03 1.53 2.17 0 3.4-1.68 3.4-4.75 0-2.85-1.2-4.8-3.4-4.8"/><path fill="#E51D39" fill-rule="evenodd" d="M40.31 28.11c-1.44.37-2.61 1.5-3.5 2.72-2.62 3.3-2.68 6.41-8.34 10.4a21.5 21.5 0 0 1-10.77 3.61c-.4 0-.85-.02-.89.07l.3.25c.6.33 3.01 2.06 6.76 2.18 5.11-.05 8.93-3.82 11.55-8.97 2.44-4.27 2.26-6.76 5.14-10.13z" clip-rule="evenodd"/><path fill="#1D3160" fill-rule="evenodd" d="M40.31 28.11c-2.55-1.25-6.03-1.46-9.56-1.07 2.17-1.72 5.74-1.65 5.74-1.65s.1.62.73.66c.55.02.66-.66.66-.66l1.3.04c-3.51-2.6-7.21-1.86-9.75-.34-2.54 1.53-5.54 3.12-6.44 4.86s-3.2 8.16-6.8 13.97c-3.03 4.6-3.76 5.3-4.41 7.06-.04.08-.16.16-.26.15-.48-.76-1.05-.45-1.07-.85.45-.38 3.09-4.35 4.86-7.65 1.76-3.3 4.34-8.36 4.6-13.16 0-3.33-1.7-5.32-4.09-9.16-2.67-3.98-3.38-3.35-7.54-6.98s-6.1-7.48-6.5-11.04C3.7 6.2 8.63 10.56 13.1 11.93c1.82.5 2.8 1.43 3.27 2.61.52 1.28.49 2.87.92 4.78.21 1.08.69 2.3 1.33 3.38 1.53 2.48 4 4.74 5.8 4.6 1.62-.1 2.9-1.89 4.64-3.68 1.75-1.8 4.15-3.65 6.4-3.45A8.6 8.6 0 0 1 41.12 23c1.41 1.7 1.46 3.06 2.83 4.34a21 21 0 0 1 5.26 4.63c-2.69.08-6.65-2.72-8.9-3.86m-7.57-10.22c-1.9 1.58-3.7 5.1-3.8 5.33-.08.22-.21.18-.21.18s.22-1.84 1.4-4.37c1.23-2.7 2.88-4.5 3.08-4.93.37-.65.64-1.9 1.44-3.86 1.39-3.27 3.48-5.78 3.71-6.1.23-.33.54-.63.55-.45-1.81 4.37-2.27 9.87-2.57 11.07-.75 2.08-1.7 1.54-3.6 3.13m.22-5.15c-.24 1.43-1.5 2.76-1.7 3.16s-.25.3-.36.26c-3.45-3.87-2.89-6.99-2.06-8.17 1.36-2.62 7.5-3.97 7.65-4s.27-.11.36 0c.1.1-1.08 1.14-2.16 3.38a19 19 0 0 0-1.73 5.37m-2.32 4.08s-.18.54-.3.59-3.85-1.58-4.74-3.9c-.83-2.17.8-3.96 1.73-4.67 0 0 .13 0 .15.07.01.09-.48 1.64.26 3.6.89 2.43 2.9 4.31 2.9 4.31m-.66 1.29c-.01.3-.3.81-.4.84s-3.46-.15-4.9-1.95c-1.34-1.7-.3-3.88-.3-3.93 0 0 .16-.15.23 0 .06.1-.12.78 1 2.28 1.47 1.77 4.26 2.6 4.37 2.76m-4.9.4c1.47 1.03 3.9 1.23 4.05 1.22.16-.02.19.05.19.1s-.27 1.12-.33 1.3c-.07.17-2.63.7-4.09-.08-1.85-.89-1.52-3.68-1.43-4.05.15-.26.29.53 1.62 1.51m.56 6.73c.74-.03 1.24-.43 1.5-.33-.26.23-1.12 1.37-2.09 1.36-.84-.07-1.03-1.14-1.07-1.21.14-.15.92.22 1.66.18m2.57-3.01c.23-.08.26.03.26.03l-.22 1.07s-1.3 1.22-2.8 1.1c-1.97.03-2.13-2.97-2.1-3.2.05-.23.68.77 2.36 1.14 1.3.22 2.27-.07 2.5-.14M7.73 14.1c3.55 3.1 5.27 2.46 8.42 8.05-.09.14-4.6.57-8.79-1.65C2.55 18.16.1 12.23 1.26 5.86c.11.06.18-.05.4.52.23.56 2.16 4.25 6.07 7.72m1.03 7.94c4.13 1.48 7.42.72 7.69.85.26.12.4.73.4.73s-4.38 2.1-8.16 1c-5.46-1.38-6.51-7.47-6.51-7.47s1.84 3.16 6.58 4.9m2.68 3.9c3.24.04 5.96-1.65 5.96-1.65s.42.73.44.95-3 2.36-5.95 2.2c-3.6 0-6.37-2.81-6.3-3.04.12-.07 2.13 1.51 5.85 1.54m7.84 4.82c-.07.51-.2 2.98-1.99 3.67-1.21.36-2.57-.99-2.57-.99.05-.19 1.34.16 2.9-.88 1.26-.8 1.35-1.73 1.66-1.8m-8.2-.04c.05-.04 2.4.93 4.81-.15 2.15-1.04 2.9-2.57 3.02-2.64s.18-.04.18-.04.25 1.28.15 1.58-1.93 3.04-4.49 3.09c-2.23-.12-3.8-1.74-3.67-1.84m2.53-2.35c2.89-.44 4.42-2.17 4.64-2.17s.37.65.33.8c-.05.16-2.58 3.3-5.44 3.17-3.31-.02-5.26-2.83-5.26-2.83.08 0 2.85 1.46 5.73 1.03m3.06 18.09c.32.67.62.88.62.88s-.73.72-1.8 2.32a14 14 0 0 0-1.8 3.53s-.15.03-.22-.04-.5-.55-1.1-1.28c-.51-2.07 3.47-6.07 3.67-6.44.27-.01.3.36.63 1.03m.95 1.36s.58.34.63.44c.04.1-.34 1.65-1.18 3.64-1.02 2.14-1.96 2.6-2.57 2.69-.43-.48-.37-1.28.33-2.8s2.58-3.59 2.8-3.97m2.04 1.36c.56.44.45 1.4-.13 3.09-.45 1.35-2.53 1.66-2.79 1.65 0-.18.86-.92 2.02-5.3 0 .01.25.05.9.56m-1.04-1.21a5.4 5.4 0 0 1-1.8-3.05c.4.25 2.69 2.64 5.66 3.27 0 .24-.32.53-.78 1.4-.67 1.09-.88 2.97-.88 2.97s-.61.13-.73.22c-.13.1-.22 0-.22 0s.44-1.67.58-2.72c.1-.98-.88-1.47-1.83-2.1" clip-rule="evenodd"/></g><defs><clipPath id="a"><path fill="#fff" d="M0 .9h200v55.72H0z"/></clipPath></defs></svg>