<svg xmlns="http://www.w3.org/2000/svg" width="200" height="258" fill="none"><path fill="#000" d="M54.248 1.42A7.26 7.26 0 0 0 50 3.185a9.67 9.67 0 0 0-10.98 1.046c-5.164-.72-6.536.719-8.105 2.287-1.111 0-8.497-1.176-11.83 3.857-8.497-.98-11.177 5.032-8.105 10.588a7.254 7.254 0 0 0 .523 10.392c-1.438 2.876-.588 5.948 2.81 9.673a8.104 8.104 0 0 0 3.987 9.02c-.588 5.49 5.033 8.693 6.537 9.804.653 3.202 2.026 6.536 8.43 7.843 1.047 4.771 4.903 5.556 8.628 6.536a40.2 40.2 0 0 0-22.81 39.608l-1.83 3.268a39.22 39.22 0 0 0-16.88 27.831 39.22 39.22 0 0 0 9.952 30.992 106.5 106.5 0 0 0 5.425 17.647 42.87 42.87 0 0 0 26.731 34.249 91.5 91.5 0 0 0 25.622 14.575A42.739 42.739 0 0 0 100 256.322a42.73 42.73 0 0 0 31.503-14.117 91.5 91.5 0 0 0 25.621-14.575 42.88 42.88 0 0 0 26.732-34.249 106.5 106.5 0 0 0 5.425-17.647 39.218 39.218 0 0 0-6.928-58.823l-1.83-3.268a40.2 40.2 0 0 0-22.811-39.608c3.726-1.046 7.582-1.83 8.628-6.536 6.536-1.634 7.778-4.64 8.431-7.843 1.634-1.111 7.255-4.314 6.536-9.804a8.106 8.106 0 0 0 3.987-9.02c3.399-3.725 4.248-6.536 2.81-9.673a7.253 7.253 0 0 0 .523-10.392c3.072-5.556.392-11.569-8.104-10.588-3.334-5.033-10.719-3.857-11.83-3.857-1.307-1.568-2.941-3.006-8.105-2.287A9.67 9.67 0 0 0 150 3.185c-4.248-3.595-7.582-.719-10.784.392-5.556-1.83-6.536.654-9.543 1.634-6.078-1.242-7.908 1.504-10.784 4.445h-3.399A38.56 38.56 0 0 0 100 31.55 39.22 39.22 0 0 0 84.77 9.591h-3.399c-2.875-2.942-4.705-5.687-10.784-4.445-2.745-.915-3.987-3.399-9.804-1.569a21.7 21.7 0 0 0-6.536-2.157"/><path fill="#75A928" d="M36.078 25.08C60.261 37.565 74.314 47.63 81.83 56.258c-3.922 15.817-24.51 16.536-32.026 16.079a5.75 5.75 0 0 0 3.268-2.876c-1.896-1.373-8.562 0-13.072-2.81a4.32 4.32 0 0 0 3.464-2.027 38.8 38.8 0 0 1-11.96-4.967 6.86 6.86 0 0 0 4.901-1.046 47.3 47.3 0 0 1-11.503-7.059c2.091 0 4.314 0 4.902-.784a46.3 46.3 0 0 1-9.216-7.451 7.06 7.06 0 0 0 4.771-.458 36.2 36.2 0 0 1-7.843-8.627 5.95 5.95 0 0 0 5.49 0c-.915-2.092-4.901-3.333-7.19-8.235 2.223 0 4.576.457 5.034 0a23.6 23.6 0 0 0-4.576-9.085c3.95.13 7.903-.023 11.83-.458l-3.006-3.006a23.27 23.27 0 0 1 13.072 1.242c1.569-1.242 0-2.746-1.896-4.38a43.4 43.4 0 0 1 10.785 2.746c1.764-1.57-1.111-3.138-2.484-4.706a27.5 27.5 0 0 1 11.307 4.444c1.896-1.83 0-3.333-1.11-4.902a27.3 27.3 0 0 1 9.476 6.079c.85-1.112 2.222-1.961.588-4.706a24.05 24.05 0 0 1 7.648 6.536c2.026-1.308 1.176-3.072 1.176-4.706a72 72 0 0 1 8.04 8.693c.587-.393 1.045-1.7 1.437-3.791 8.17 7.908 19.608 27.843 2.941 35.751a156.1 156.1 0 0 0-50-26.666M164.445 25.08c-24.184 12.288-38.301 22.55-45.948 31.177 3.921 15.817 24.51 16.536 32.091 16.079a5.68 5.68 0 0 1-3.333-2.876c1.895-1.373 8.627 0 13.072-2.81a4.31 4.31 0 0 1-3.464-2.027 37.5 37.5 0 0 0 11.961-4.967 6.54 6.54 0 0 1-4.837-1.046 47 47 0 0 0 11.438-7.059c-2.026 0-4.248 0-4.902-.784a46.4 46.4 0 0 0 9.216-7.451 7.2 7.2 0 0 1-4.772-.458 36.2 36.2 0 0 0 7.844-8.627 5.95 5.95 0 0 1-5.491 0c1.111-2.157 5.164-3.399 7.647-8.3-1.681.35-3.416.35-5.098 0a23.6 23.6 0 0 1 4.575-9.086 82 82 0 0 1-11.895-.392l2.941-3.006a23.27 23.27 0 0 0-13.072 1.242c-1.568-1.242 0-2.746 1.896-4.38a45 45 0 0 0-10.785 2.746c-1.764-1.57 1.112-3.138 2.484-4.706a28 28 0 0 0-11.307 4.444c-1.895-1.83 0-3.333 1.176-4.902a27.7 27.7 0 0 0-9.542 6.079c-.85-1.112-2.157-1.961-.588-4.706a24.4 24.4 0 0 0-7.582 6.536c-2.026-1.308-1.242-3.072-1.242-4.706a84 84 0 0 0-8.235 8.627 7.7 7.7 0 0 1-1.438-3.79c-8.105 7.908-19.608 27.842-2.941 35.751a156.9 156.9 0 0 1 50-26.667z"/><path fill="#BC1142" d="M129.608 186.126a27.974 27.974 0 0 1-29.02 26.732 27.904 27.904 0 0 1-28.954-26.732 27.907 27.907 0 0 1 28.954-26.666 27.91 27.91 0 0 1 29.02 26.666M83.791 109.786c12.026 7.909 14.183 25.687 4.837 39.87S62.026 168.871 50 160.963c-12.026-7.843-14.183-25.686-4.836-39.804s26.666-19.216 38.627-11.373M116.209 108.348c-11.96 7.909-14.117 25.752-4.836 39.87s26.666 19.215 38.693 11.307c12.026-7.843 14.183-25.686 4.836-39.804s-26.667-19.216-38.693-11.373M23.79 122.662c13.073-3.464 4.38 53.66-6.143 48.955a30.86 30.86 0 0 1-9.158-26.012 30.85 30.85 0 0 1 15.302-22.943M173.66 121.944c-13.072-3.465-4.379 53.66 6.144 48.954a30.842 30.842 0 0 0 4.213-39.288 30.8 30.8 0 0 0-10.357-9.666M129.608 79.395c22.353-3.726 40.98 9.542 40.261 33.79-.784 9.347-48.496-32.68-40.261-33.79M67.778 78.675c-22.418-3.725-41.046 9.543-40.261 33.791.588 9.347 48.496-32.353 40.261-33.79M100 73.055c-13.072-.327-26.144 9.934-26.144 15.882 0 7.19 10.523 14.575 26.144 14.771s26.144-5.882 26.144-13.072S111.569 73.251 100 73.381zM100.719 221.355c11.634-.523 27.255 3.726 27.32 9.346.066 5.621-14.183 17.909-28.104 17.648-13.922-.262-28.497-11.765-28.3-16.079-.262-6.274 17.515-11.242 29.084-10.915M57.712 187.695c8.301 10 12.092 27.582 5.164 32.68-6.536 3.921-22.484 2.287-33.726-13.922-7.647-13.595-6.536-27.451-1.307-31.568 7.974-4.641 20.327 1.895 29.87 12.81M142.091 184.689c-9.019 10.523-13.986 29.673-7.451 35.686 6.536 4.837 23.072 4.118 35.491-13.072 9.019-11.569 5.947-30.85.849-36.013-7.647-5.752-18.692 1.83-28.889 13.399"/></svg>