<svg xmlns="http://www.w3.org/2000/svg" width="200" height="145" fill="none"><path fill="#46ABE8" d="M101.08 109.5v26.8c0 4.46 1.67 6.32 6.14 6.87q2.79.28 5.58 0c5.58-.18 7.25-2.04 7.25-7.62v-38.5c0-2.61.75-3.36 3.35-3.17 11.53.19 23.25 0 34.78 0 7.63 0 14.7-2.23 21.02-6.5 22.51-14.89 27.72-49.12 10.6-70.88-7.62-9.86-17.48-16-30.13-16.18C142.2-.06 124.9.13 107.4.13c-3.34 0-5.4 1.49-5.76 4.84a38 38 0 0 0-.37 10.23c.55 5.58 2.23 7.07 8 7.07h47.61c1.86 0 3.9 0 5.77.37 11.72 2.6 19.34 14.32 18.04 27.53-1.3 12.27-11.16 21.39-23.06 21.58H112.8c-7.63 0-11.72 4.09-11.72 11.71zM84.34 36.79h.37V7.38c0-5.02-1.49-6.7-6.7-7.06a28 28 0 0 0-5.58 0c-5.4.37-6.88 1.86-6.88 7.44v55.06c0 2.97-.37 6.14-1.3 8.93-4.47 14.7-20.46 21.2-32.93 13.39-7.44-4.65-10.97-11.9-11.16-20.46-.18-7.63 0-15.07 0-22.7V6.83c0-4.28-1.67-6.14-5.95-6.33a47 47 0 0 0-7.25 0C2.68.88 1 2.74.82 7.01c0 19.35-.19 38.7 0 58.04a49.7 49.7 0 0 0 13.4 32.92c12.08 13.02 30.87 16.56 46.5 8.19C74.66 98.72 82.47 86.44 84.14 71c1.12-11.35.19-22.88.19-34.22"/><path fill="#46ABE8" d="M101.08 109.5V83.47c0-7.62 4.1-11.71 11.72-11.71h44.83c11.9 0 21.76-9.3 23.06-21.58 1.3-13.2-6.32-24.93-18.04-27.53-1.86-.37-3.9-.37-5.77-.37h-47.62c-5.76 0-7.62-1.5-8-7.07-.37-3.35 0-6.88.38-10.23.37-3.35 2.42-4.84 5.76-4.84 17.49 0 34.79-.19 52.27.19 12.65.18 22.51 6.5 30.14 16.18 17.11 21.76 11.9 55.8-10.6 70.87a37 37 0 0 1-21.03 6.51H123.4c-2.42 0-3.35.56-3.35 3.16.19 12.84 0 25.67 0 38.5 0 5.59-1.67 7.45-7.25 7.63-1.86 0-3.72.19-5.58 0-4.47-.37-6.14-2.23-6.14-6.88zM84.9 37.37c0 11.34.37 22.29-.75 33.63-1.49 15.44-9.48 27.72-23.44 35.16-15.62 8.37-34.4 4.83-46.5-8.19a48.6 48.6 0 0 1-13.2-32.92C.8 45.7 1 26.35 1 7 1 2.55 2.67.7 7.13.51q3.63-.3 7.26 0c4.28.37 5.95 2.04 5.95 6.32v35.15c0 7.63-.19 15.07 0 22.7.37 8.55 3.9 15.8 11.16 20.46 12.28 8 28.46 1.49 32.92-13.4.93-2.78 1.12-5.95 1.3-8.92.2-18.42 0-36.65 0-55.06 0-5.58 1.5-7.07 6.89-7.44q2.79-.29 5.58 0c5.2.37 6.7 2.04 6.7 7.07v29.98"/></svg>