<svg xmlns="http://www.w3.org/2000/svg" width="200" height="202" fill="none"><g clip-path="url(#a)"><path fill="#000" d="M141.051 52.681a6.51 6.51 0 0 1 6.51 6.51v82.45a6.51 6.51 0 0 1-6.51 6.509h-82.45a6.51 6.51 0 0 1-6.51-6.509v-82.45a6.51 6.51 0 0 1 6.51-6.51zm23.868 0c0-9.581-7.777-17.358-17.358-17.358h-95.47c-9.58 0-17.357 7.777-17.357 17.358v95.469c0 9.582 7.776 17.358 17.358 17.358h95.469c9.581 0 17.358-7.776 17.358-17.358zm-95.47 121.506v26.037h-8.678v-26.037zm34.717 0v26.037h-8.68v-26.037zm17.358 0v26.037h-8.679v-26.037zm-34.716 0v26.037h-8.68v-26.037zm52.074 0v26.037h-8.679v-26.037zM69.45.607v26.037h-8.68V.607zm34.716 0v26.037h-8.68V.607zm17.358 0v26.037h-8.679V.607zm-34.716 0v26.037h-8.68V.607zm52.074 0v26.037h-8.679V.607zm34.716 130.185h26.036v8.679h-26.036zm0-34.716h26.036v8.679h-26.036zm0-17.358h26.036v8.68h-26.036zm0 34.716h26.036v8.679h-26.036zm0-52.074h26.036v8.68h-26.036zM.018 130.792h26.037v8.679H.018zm0-34.716h26.037v8.679H.018zm0-17.358h26.037v8.68H.018zm0 34.716h26.037v8.679H.018zm0-52.074h26.037v8.68H.018z"/></g><defs><clipPath id="a"><path fill="#fff" d="M0 .177h200v201.005H0z"/></clipPath></defs></svg>