<svg xmlns="http://www.w3.org/2000/svg" width="200" height="202" fill="none"><g clip-path="url(#a)"><path fill="#000" d="M141.05 52.68c3.6 0 6.51 2.92 6.51 6.51v82.45c0 3.6-2.92 6.51-6.5 6.51H58.6c-3.6 0-6.5-2.92-6.5-6.5V59.18c0-3.6 2.9-6.5 6.5-6.5zm23.87 0c0-9.58-7.78-17.36-17.36-17.36H52.1a17.36 17.36 0 0 0-17.36 17.36v95.47c0 9.58 7.78 17.36 17.36 17.36h95.47c9.58 0 17.36-7.78 17.36-17.36zm-95.47 121.5v26.04h-8.68V174.2zm34.72 0v26.04h-8.68V174.2zm17.35 0v26.04h-8.67V174.2zm-34.71 0v26.04h-8.68V174.2zm52.07 0v26.04h-8.68V174.2zM69.45.62v26.03h-8.68V.61zm34.72 0v26.03h-8.68V.61zm17.35 0v26.03h-8.67V.61zM86.81.6v26.03h-8.68V.61zm52.07 0v26.03h-8.68V.61zm34.72 130.18h26.03v8.68H173.6zm0-34.71h26.03v8.67H173.6zm0-17.36h26.03v8.68H173.6zm0 34.71h26.03v8.68H173.6zm0-52.07h26.03v8.68H173.6zM.02 130.79h26.04v8.68H.02zm0-34.71h26.04v8.67H.02zm0-17.36h26.04v8.68H.02zm0 34.71h26.04v8.68H.02zm0-52.07h26.04v8.68H.02z"/></g><defs><clipPath id="a"><path fill="#fff" d="M0 .18h200v201H0z"/></clipPath></defs></svg>