<svg xmlns="http://www.w3.org/2000/svg" width="200" height="257" fill="none"><path fill="#000" fill-rule="evenodd" d="M54.499 1.33c-1.286.04-2.67.515-4.241 1.755-3.846-1.485-7.577-2-10.913 1.022-5.15-.669-6.825.71-8.093 2.321-1.131-.023-8.462-1.163-11.824 3.855-8.448-1-11.118 4.973-8.093 10.542-1.725 2.673-3.513 5.314.522 10.41-1.428 2.837-.543 5.916 2.82 9.642-.888 3.989.857 6.804 3.985 8.998-.585 5.459 5.004 8.633 6.672 9.764.641 3.181 1.977 6.183 8.36 7.843 1.053 4.74 4.89 5.56 8.604 6.554-12.278 7.141-22.808 16.538-22.737 39.592l-1.798 3.21c-14.08 8.568-26.746 36.105-6.939 58.487 1.294 7.006 3.464 12.038 5.396 17.608 2.89 22.441 21.748 32.95 26.722 34.192 7.288 5.556 15.051 10.827 25.556 14.519 9.903 10.22 20.631 14.115 31.418 14.109h.478c10.787.006 21.515-3.889 31.418-14.109 10.505-3.692 18.268-8.963 25.556-14.519 4.974-1.242 23.833-11.751 26.722-34.192 1.932-5.57 4.102-10.602 5.396-17.608 19.807-22.382 7.14-49.919-6.939-58.487l-1.798-3.21c.071-23.054-10.459-32.45-22.737-39.592 3.715-.995 7.551-1.813 8.604-6.554 6.383-1.66 7.719-4.662 8.36-7.843 1.669-1.13 7.257-4.305 6.672-9.764 3.128-2.194 4.873-5.01 3.985-8.998 3.363-3.726 4.248-6.805 2.82-9.643 4.035-5.095 2.247-7.736.522-10.409 3.025-5.57.355-11.542-8.093-10.542-3.362-5.018-10.693-3.878-11.824-3.855-1.268-1.61-2.944-2.99-8.093-2.321-3.336-3.023-7.067-2.507-10.913-1.022-4.568-3.608-7.593-.716-11.046.377-5.533-1.808-6.797.669-9.514 1.678-6.031-1.276-7.864 1.501-10.758 4.432l-3.364-.067c-9.098 5.366-13.618 16.29-15.221 21.907-1.603-5.617-6.112-16.542-15.209-21.907l-3.364.067C78.682 6.642 76.85 3.864 70.82 5.14 68.1 4.13 66.837 1.654 61.304 3.462c-2.266-.717-4.35-2.209-6.805-2.133" clip-rule="evenodd"/><path fill="#75A928" fill-rule="evenodd" d="M36.387 24.933c24.139 12.453 38.17 22.526 45.859 31.106-3.937 15.79-24.476 16.51-31.986 16.067 1.538-.716 2.82-1.574 3.276-2.892-1.885-1.34-8.567-.141-13.232-2.764 1.792-.371 2.63-.733 3.469-2.056-4.407-1.407-9.155-2.619-11.947-4.95 1.507.02 2.914.338 4.882-1.027-3.948-2.13-8.16-3.816-11.433-7.07 2.041-.05 4.242-.02 4.881-.771-3.613-2.24-6.661-4.73-9.184-7.455 2.856.345 4.062.048 4.753-.45-2.732-2.8-6.188-5.163-7.836-8.612 2.12.731 4.06 1.011 5.46-.064-.929-2.095-4.905-3.331-7.195-8.227 2.233.217 4.601.488 5.075 0-1.039-4.226-2.817-6.601-4.56-9.062 4.778-.07 12.017.019 11.689-.385l-2.954-3.02c4.667-1.258 9.442.201 12.91 1.284 1.556-1.229-.028-2.783-1.927-4.37 3.966.53 7.55 1.443 10.79 2.7 1.73-1.564-1.124-3.128-2.505-4.692 6.128 1.163 8.724 2.798 11.304 4.434 1.872-1.795.107-3.321-1.156-4.884 4.62 1.712 7 3.923 9.506 6.106.85-1.148 2.158-1.989.578-4.756 3.28 1.892 5.751 4.121 7.579 6.62 2.03-1.294 1.21-3.062 1.22-4.692 3.41 2.775 5.573 5.728 8.222 8.612.533-.39 1-1.707 1.413-3.792 8.133 7.896 19.626 27.783 2.954 35.669-14.181-11.712-31.126-20.222-49.905-26.607M164.469 24.933c-24.139 12.453-38.171 22.526-45.859 31.106 3.937 15.79 24.476 16.51 31.986 16.067-1.538-.716-2.821-1.574-3.276-2.892 1.884-1.34 8.566-.141 13.231-2.764-1.792-.371-2.63-.733-3.468-2.056 4.407-1.407 9.154-2.619 11.946-4.95-1.507.02-2.913.338-4.881-1.027 3.947-2.13 8.16-3.816 11.432-7.07-2.041-.05-4.241-.02-4.881-.771 3.613-2.24 6.662-4.73 9.185-7.455-2.857.345-4.063.048-4.753-.45 2.731-2.8 6.188-5.163 7.836-8.612-2.121.731-4.061 1.011-5.46-.064.928-2.095 4.905-3.331 7.194-8.227-2.233.217-4.601.488-5.074 0 1.038-4.226 2.816-6.601 4.56-9.062-4.778-.07-12.018.019-11.69-.385l2.955-3.02c-4.667-1.258-9.443.201-12.91 1.284-1.557-1.229.028-2.783 1.927-4.37-3.967.53-7.551 1.443-10.791 2.7-1.73-1.564 1.124-3.128 2.505-4.692-6.128 1.163-8.724 2.798-11.304 4.434-1.872-1.795-.107-3.321 1.156-4.884-4.62 1.712-7 3.923-9.506 6.106-.849-1.148-2.158-1.989-.578-4.756-3.28 1.892-5.751 4.121-7.579 6.62-2.029-1.294-1.209-3.062-1.22-4.692-3.409 2.775-5.573 5.728-8.221 8.612-.534-.39-1.001-1.707-1.413-3.792-8.134 7.896-19.627 27.783-2.955 35.669 14.182-11.712 31.127-20.222 49.906-26.607" clip-rule="evenodd"/><path fill="#BC1142" fill-rule="evenodd" d="M129.661 185.718c0 14.734-12.945 26.679-28.914 26.679s-28.915-11.945-28.915-26.679c0-14.735 12.946-26.679 28.915-26.679s28.914 11.944 28.914 26.679M84.013 109.52c11.957 7.901 14.098 25.735 4.781 39.834-9.316 14.098-26.562 19.122-38.519 11.22s-14.097-25.735-4.781-39.834c9.316-14.098 26.562-19.122 38.52-11.22M116.353 108.098c11.957-7.902 29.203-2.878 38.519 11.22 9.317 14.099 7.176 31.933-4.781 39.835-11.957 7.901-29.203 2.877-38.519-11.221-9.317-14.098-7.176-31.933 4.781-39.834M24.137 122.346c12.936-3.469 4.366 53.548-6.158 48.869-11.577-9.318-15.306-36.605 6.158-48.869M173.618 121.635c-12.937-3.469-4.367 53.548 6.158 48.869 11.576-9.318 15.305-36.605-6.158-48.869M129.67 79.179c22.323-3.772 40.896 9.499 40.148 33.72-.734 9.285-48.371-32.338-40.148-33.72M67.993 78.467c-22.322-3.772-40.896 9.5-40.148 33.72.734 9.286 48.372-32.337 40.148-33.72M100.058 72.816c-13.323-.347-26.11 9.895-26.14 15.835-.037 7.218 10.534 14.607 26.231 14.795 16.031.115 26.259-5.915 26.311-13.364.059-8.439-14.579-17.396-26.402-17.266M100.872 220.824c11.616-.508 27.203 3.744 27.233 9.383.193 5.476-14.136 17.849-28.004 17.61-14.362.62-28.445-11.772-28.26-16.068-.215-6.297 17.488-11.214 29.031-10.925M57.968 187.404c8.27 9.969 12.04 27.485 5.138 32.648-6.53 3.942-22.386 2.319-33.656-13.882-7.6-13.594-6.621-27.427-1.284-31.491 7.98-4.865 20.31 1.706 29.802 12.725M142.122 184.243c-8.948 10.487-13.931 29.615-7.403 35.777 6.241 4.786 22.995 4.117 35.371-13.066 8.987-11.541 5.976-30.814.843-35.93-7.626-5.902-18.572 1.651-28.811 13.219" clip-rule="evenodd"/></svg>