<svg xmlns="http://www.w3.org/2000/svg" width="200" height="257" fill="none"><path fill="#000" fill-rule="evenodd" d="M54.499 1.087c-1.286.04-2.67.515-4.241 1.755-3.846-1.484-7.577-2-10.913 1.022-5.15-.668-6.825.712-8.093 2.322-1.131-.023-8.462-1.163-11.824 3.855-8.448-1-11.118 4.972-8.093 10.542-1.725 2.673-3.513 5.314.522 10.409-1.428 2.838-.543 5.917 2.82 9.642-.888 3.99.857 6.804 3.985 8.998-.585 5.46 5.004 8.634 6.672 9.765.641 3.181 1.977 6.183 8.36 7.843 1.053 4.74 4.89 5.56 8.604 6.554-12.278 7.141-22.808 16.538-22.737 39.591l-1.798 3.211c-14.08 8.568-26.746 36.104-6.939 58.487 1.294 7.006 3.464 12.038 5.396 17.608 2.89 22.441 21.748 32.949 26.722 34.192 7.288 5.556 15.051 10.827 25.556 14.519 9.903 10.22 20.631 14.115 31.418 14.108q.239.002.478 0c10.787.007 21.515-3.888 31.418-14.108 10.505-3.692 18.268-8.963 25.556-14.519 4.974-1.243 23.833-11.751 26.722-34.192 1.932-5.57 4.102-10.602 5.396-17.608 19.807-22.383 7.14-49.919-6.939-58.487l-1.798-3.211c.071-23.053-10.459-32.45-22.737-39.591 3.715-.995 7.551-1.814 8.604-6.554 6.383-1.66 7.719-4.662 8.36-7.843 1.669-1.13 7.257-4.305 6.672-9.765 3.128-2.193 4.873-5.008 3.985-8.998 3.363-3.725 4.248-6.804 2.82-9.642 4.035-5.096 2.247-7.736.522-10.409 3.025-5.57.355-11.542-8.093-10.542-3.362-5.018-10.693-3.878-11.824-3.855-1.268-1.61-2.944-2.99-8.093-2.322-3.336-3.022-7.067-2.506-10.913-1.022-4.568-3.607-7.593-.715-11.046.378-5.533-1.808-6.797.669-9.514 1.678-6.031-1.276-7.864 1.501-10.758 4.432l-3.364-.067c-9.098 5.366-13.618 16.29-15.221 21.907-1.603-5.618-6.112-16.542-15.209-21.907l-3.364.067C78.682 6.399 76.85 3.622 70.82 4.898c-2.718-1.01-3.982-3.486-9.515-1.678-2.266-.717-4.35-2.209-6.805-2.133" clip-rule="evenodd"/><path fill="#75A928" fill-rule="evenodd" d="M36.387 24.69c24.139 12.453 38.17 22.527 45.859 31.107-3.937 15.789-24.476 16.51-31.986 16.067 1.538-.717 2.82-1.574 3.276-2.892-1.885-1.34-8.567-.142-13.232-2.764 1.792-.371 2.63-.733 3.469-2.057-4.407-1.406-9.155-2.618-11.947-4.948 1.507.018 2.914.337 4.882-1.029-3.948-2.128-8.16-3.815-11.433-7.07 2.041-.05 4.242-.02 4.881-.77-3.613-2.24-6.661-4.731-9.184-7.456 2.856.346 4.062.048 4.753-.45-2.732-2.798-6.188-5.162-7.836-8.611 2.12.731 4.06 1.011 5.46-.065-.929-2.095-4.905-3.33-7.195-8.226 2.233.217 4.601.487 5.075 0-1.039-4.226-2.817-6.601-4.56-9.062 4.778-.07 12.017.019 11.689-.386l-2.954-3.02c4.667-1.258 9.442.202 12.91 1.285 1.556-1.229-.028-2.783-1.927-4.37 3.966.53 7.55 1.442 10.79 2.7 1.73-1.565-1.124-3.128-2.505-4.692 6.128 1.163 8.724 2.797 11.304 4.434 1.872-1.795.107-3.321-1.156-4.884 4.62 1.712 7 3.923 9.506 6.105.85-1.147 2.158-1.988.578-4.756 3.28 1.893 5.751 4.122 7.579 6.62 2.03-1.293 1.21-3.062 1.22-4.691 3.41 2.775 5.573 5.728 8.222 8.612.533-.39 1-1.707 1.413-3.792 8.133 7.895 19.626 27.783 2.954 35.669C72.111 39.586 55.166 31.075 36.387 24.69M164.469 24.69c-24.139 12.453-38.171 22.527-45.859 31.107 3.937 15.789 24.476 16.51 31.986 16.067-1.538-.717-2.821-1.574-3.276-2.892 1.884-1.34 8.566-.142 13.231-2.764-1.792-.371-2.63-.733-3.468-2.057 4.407-1.406 9.154-2.618 11.946-4.948-1.507.018-2.913.337-4.881-1.029 3.947-2.128 8.16-3.815 11.432-7.07-2.041-.05-4.241-.02-4.881-.77 3.613-2.24 6.662-4.731 9.185-7.456-2.857.346-4.063.048-4.753-.45 2.731-2.798 6.188-5.162 7.836-8.611-2.121.731-4.061 1.011-5.46-.065.928-2.095 4.905-3.33 7.194-8.226-2.233.217-4.601.487-5.074 0 1.038-4.226 2.816-6.601 4.56-9.062-4.778-.07-12.018.019-11.69-.386l2.955-3.02c-4.667-1.258-9.443.202-12.91 1.285-1.557-1.229.028-2.783 1.927-4.37-3.967.53-7.551 1.442-10.791 2.7-1.73-1.565 1.124-3.128 2.505-4.692-6.128 1.163-8.724 2.797-11.304 4.434-1.872-1.795-.107-3.321 1.156-4.884-4.62 1.712-7 3.923-9.506 6.105-.849-1.147-2.158-1.988-.578-4.756-3.28 1.893-5.751 4.122-7.579 6.62-2.029-1.293-1.209-3.062-1.22-4.691-3.409 2.775-5.573 5.728-8.221 8.612-.534-.39-1.001-1.707-1.413-3.792-8.134 7.895-19.627 27.783-2.955 35.669 14.182-11.712 31.127-20.223 49.906-26.607" clip-rule="evenodd"/><path fill="#BC1142" fill-rule="evenodd" d="M129.661 185.476c0 14.734-12.945 26.679-28.914 26.679s-28.915-11.945-28.915-26.679c0-14.735 12.946-26.68 28.915-26.68s28.914 11.945 28.914 26.68M84.013 109.277c11.957 7.902 14.098 25.736 4.781 39.835s-26.562 19.122-38.519 11.22-14.097-25.736-4.781-39.834 26.562-19.122 38.52-11.221M116.353 107.856c11.957-7.902 29.203-2.878 38.519 11.22 9.317 14.099 7.176 31.933-4.781 39.834s-29.203 2.878-38.519-11.22c-9.317-14.099-7.176-31.933 4.781-39.834M24.137 122.103c12.936-3.468 4.366 53.548-6.158 48.87-11.577-9.318-15.306-36.605 6.158-48.87M173.618 121.392c-12.937-3.468-4.367 53.549 6.158 48.87 11.576-9.318 15.305-36.605-6.158-48.87M129.67 78.936c22.323-3.771 40.896 9.5 40.148 33.72-.734 9.286-48.371-32.337-40.148-33.72M67.993 78.225c-22.322-3.772-40.896 9.5-40.148 33.72.734 9.285 48.372-32.338 40.148-33.72M100.058 72.574c-13.323-.347-26.11 9.895-26.14 15.835-.037 7.217 10.534 14.607 26.231 14.795 16.031.115 26.259-5.916 26.311-13.364.059-8.44-14.579-17.396-26.402-17.266M100.872 220.582c11.616-.508 27.203 3.744 27.233 9.383.193 5.476-14.136 17.849-28.004 17.609-14.362.62-28.445-11.771-28.26-16.067-.215-6.297 17.488-11.214 29.031-10.925M57.968 187.162c8.27 9.969 12.04 27.485 5.138 32.648-6.53 3.942-22.386 2.318-33.656-13.882-7.6-13.594-6.621-27.428-1.284-31.492 7.98-4.864 20.31 1.706 29.802 12.726M142.122 184.001c-8.948 10.487-13.931 29.615-7.403 35.776 6.241 4.786 22.995 4.117 35.371-13.066 8.987-11.54 5.976-30.813.843-35.93-7.626-5.901-18.572 1.652-28.811 13.22" clip-rule="evenodd"/></svg>