<svg xmlns="http://www.w3.org/2000/svg" width="200" height="257" fill="none"><path fill="#000" fill-rule="evenodd" d="M54.5 1.24A7 7 0 0 0 50.26 3C46.4 1.5 42.68 1 39.34 4.02c-5.14-.67-6.82.71-8.09 2.32-1.13-.02-8.46-1.16-11.82 3.86-8.45-1-11.12 4.97-8.1 10.54-1.72 2.67-3.5 5.31.53 10.4-1.43 2.84-.55 5.92 2.82 9.65-.9 3.99.85 6.8 3.98 9-.58 5.46 5 8.63 6.67 9.76.65 3.18 1.98 6.18 8.36 7.84 1.06 4.74 4.9 5.56 8.6 6.56-12.27 7.14-22.8 16.54-22.73 39.59l-1.8 3.21c-14.08 8.57-26.74 36.1-6.94 58.49 1.3 7 3.47 12.03 5.4 17.6 2.89 22.45 21.75 32.95 26.72 34.2 7.3 5.55 15.05 10.82 25.56 14.52 9.9 10.22 20.63 14.11 31.42 14.1h.47c10.8.01 21.52-3.88 31.42-14.1 10.5-3.7 18.27-8.97 25.56-14.52 4.97-1.25 23.83-11.75 26.72-34.2 1.93-5.56 4.1-10.6 5.4-17.6 19.8-22.39 7.14-49.92-6.94-58.49l-1.8-3.21c.07-23.05-10.46-32.45-22.74-39.6 3.72-.99 7.55-1.8 8.6-6.55 6.39-1.66 7.72-4.66 8.37-7.84 1.67-1.13 7.25-4.3 6.67-9.76 3.13-2.2 4.87-5.01 3.98-9 3.37-3.73 4.25-6.8 2.82-9.64 4.04-5.1 2.25-7.74.53-10.41 3.02-5.57.35-11.54-8.1-10.54-3.36-5.02-10.7-3.88-11.82-3.86-1.27-1.61-2.95-2.99-8.1-2.32-3.33-3.02-7.06-2.5-10.9-1.02-4.58-3.61-7.6-.72-11.05.37-5.54-1.8-6.8.67-9.52 1.68-6.03-1.27-7.86 1.5-10.76 4.43l-3.36-.06c-9.1 5.36-13.62 16.29-15.22 21.9-1.6-5.61-6.11-16.54-15.21-21.9l-3.36.06c-2.9-2.93-4.73-5.7-10.76-4.43-2.72-1-3.98-3.48-9.52-1.68-2.26-.71-4.35-2.2-6.8-2.13" clip-rule="evenodd"/><path fill="#75A928" fill-rule="evenodd" d="M36.39 24.84C60.53 37.3 74.56 47.37 82.25 55.95 78.3 71.74 57.77 72.46 50.26 72.02c1.54-.72 2.82-1.58 3.28-2.9-1.89-1.33-8.57-.14-13.24-2.76 1.8-.37 2.63-.73 3.47-2.05-4.4-1.41-9.15-2.62-11.94-4.95 1.5.02 2.91.33 4.88-1.03-3.95-2.13-8.16-3.82-11.43-7.07 2.04-.05 4.24-.02 4.88-.77a44 44 0 0 1-9.19-7.46c2.86.35 4.06.05 4.75-.45-2.73-2.8-6.18-5.16-7.83-8.6 2.12.72 4.06 1 5.46-.07-.93-2.1-4.9-3.33-7.2-8.23 2.24.22 4.6.49 5.08 0-1.04-4.23-2.82-6.6-4.56-9.06 4.78-.07 12.02.02 11.69-.39l-2.96-3.02c4.67-1.26 9.45.2 12.91 1.29 1.56-1.23-.02-2.79-1.92-4.37q5.93.8 10.79 2.7c1.73-1.57-1.13-3.13-2.5-4.7 6.12 1.17 8.72 2.8 11.3 4.44 1.87-1.8.1-3.32-1.16-4.88 4.62 1.7 7 3.92 9.5 6.1.86-1.15 2.16-1.99.58-4.76a24 24 0 0 1 7.58 6.62c2.03-1.29 1.21-3.06 1.22-4.69 3.41 2.78 5.58 5.73 8.22 8.61.54-.38 1-1.7 1.42-3.79 8.13 7.9 19.62 27.79 2.95 35.67-14.18-11.71-31.12-20.22-49.9-26.6M164.47 24.84C140.33 37.3 126.3 47.37 118.6 55.95c3.94 15.79 24.48 16.51 31.99 16.07-1.54-.72-2.82-1.58-3.28-2.9 1.88-1.33 8.57-.14 13.23-2.76-1.8-.37-2.63-.73-3.47-2.05 4.41-1.41 9.16-2.62 11.95-4.95-1.5.02-2.91.33-4.88-1.03 3.94-2.13 8.16-3.82 11.43-7.07-2.04-.05-4.24-.02-4.88-.77a44 44 0 0 0 9.18-7.46c-2.85.35-4.06.05-4.75-.45 2.73-2.8 6.19-5.16 7.84-8.6-2.12.72-4.06 1-5.46-.07.93-2.1 4.9-3.33 7.2-8.23-2.24.22-4.61.49-5.08 0 1.03-4.23 2.81-6.6 4.56-9.06-4.78-.07-12.02.02-11.7-.39l2.96-3.02c-4.66-1.26-9.44.2-12.9 1.29-1.56-1.23.02-2.79 1.92-4.37a47 47 0 0 0-10.8 2.7c-1.72-1.57 1.13-3.13 2.51-4.7-6.12 1.17-8.72 2.8-11.3 4.44-1.87-1.8-.1-3.32 1.16-4.88-4.62 1.7-7 3.92-9.51 6.1-.85-1.15-2.16-1.99-.58-4.76a24 24 0 0 0-7.58 6.62c-2.03-1.29-1.2-3.06-1.22-4.69-3.4 2.78-5.57 5.73-8.22 8.61-.53-.38-1-1.7-1.41-3.79-8.14 7.9-19.63 27.79-2.96 35.67 14.19-11.71 31.13-20.22 49.9-26.6" clip-rule="evenodd"/><path fill="#BC1142" fill-rule="evenodd" d="M129.66 185.63c0 14.74-12.94 26.68-28.91 26.68s-28.92-11.94-28.92-26.68 12.95-26.68 28.92-26.68 28.91 11.95 28.91 26.68M84.01 109.43c11.96 7.9 14.1 25.74 4.78 39.84s-26.56 19.12-38.51 11.22c-11.96-7.9-14.1-25.74-4.79-39.84 9.32-14.1 26.57-19.12 38.52-11.22M116.35 108.01c11.96-7.9 29.2-2.88 38.52 11.22s7.18 31.93-4.78 39.83-29.2 2.88-38.52-11.22c-9.31-14.1-7.17-31.93 4.78-39.83M24.14 122.26c12.93-3.47 4.36 53.55-6.16 48.87-11.58-9.32-15.3-36.6 6.16-48.87M173.62 121.55c-12.94-3.47-4.37 53.55 6.16 48.87 11.57-9.32 15.3-36.6-6.16-48.87M129.67 79.1c22.32-3.78 40.9 9.49 40.15 33.71-.74 9.29-48.37-32.34-40.15-33.72M68 78.38c-22.33-3.77-40.9 9.5-40.15 33.72.73 9.29 48.37-32.34 40.14-33.72M100.06 72.73c-13.32-.35-26.11 9.9-26.14 15.83-.04 7.22 10.53 14.61 26.23 14.8 16.03.11 26.26-5.92 26.31-13.37.06-8.43-14.58-17.4-26.4-17.26M100.87 220.74c11.62-.51 27.2 3.74 27.23 9.38.2 5.47-14.13 17.85-28 17.6-14.36.63-28.44-11.76-28.26-16.06-.21-6.3 17.49-11.21 29.03-10.92M57.97 187.32c8.27 9.97 12.04 27.48 5.14 32.64-6.53 3.95-22.39 2.32-33.66-13.88-7.6-13.6-6.62-27.43-1.28-31.49 7.98-4.86 20.3 1.7 29.8 12.73M142.12 184.16c-8.95 10.48-13.93 29.61-7.4 35.77 6.24 4.79 23 4.12 35.37-13.06 8.99-11.55 5.98-30.82.84-35.93-7.62-5.9-18.57 1.65-28.8 13.22" clip-rule="evenodd"/></svg>