<svg xmlns="http://www.w3.org/2000/svg" width="200" height="197" fill="none"><g fill="#CE3838" clip-path="url(#a)"><path d="M199.699 90.595c-7.023-37.836-39.785-38.766-52.651-39-.037-1.439-.073-4.42-.16-5.78a2 2 0 0 0-.015.19c.007-.291.022-.582.022-.873 0-24.53-19.926-44.422-44.514-44.422S57.868 20.595 57.868 45.132c0 24.036 19.131 43.594 43.02 44.387 1.442.116 2.455.138 2.87.152 51.012 3.272 57.802 51.14 57.802 51.14 43.516-11.218 38.372-47.643 38.139-50.217"/><path d="M99.12 107.843c-1.443-.116-2.456-.138-2.871-.153-51.012-3.272-57.802-51.143-57.802-51.143C-5.076 67.76.067 104.193.3 106.76c7.023 37.837 39.785 38.768 52.651 39 .037 1.44.073 4.421.16 5.781.008-.066.015-.124.015-.189-.007.29-.022.581-.022.872 0 24.532 19.926 44.425 44.514 44.425 24.58 0 44.513-19.893 44.513-44.425.007-24.03-19.117-43.596-43.013-44.381"/></g><defs><clipPath id="a"><path fill="#fff" d="M0 .71h200v195.939H0z"/></clipPath></defs></svg>