<svg xmlns="http://www.w3.org/2000/svg" width="200" height="197" fill="none"><g fill="#CE3838" clip-path="url(#a)"><path d="M199.7 90.6c-7.02-37.84-39.79-38.77-52.65-39-.04-1.44-.08-4.42-.16-5.78l-.02.18.03-.87A44.47 44.47 0 0 0 102.38.71a44.46 44.46 0 0 0-44.51 44.42 44.46 44.46 0 0 0 43.02 44.39c1.44.11 2.45.14 2.87.15 51.01 3.27 57.8 51.14 57.8 51.14 43.52-11.22 38.37-47.64 38.14-50.22"/><path d="M99.12 107.84c-1.44-.11-2.46-.14-2.87-.15-51.01-3.27-57.8-51.14-57.8-51.14C-5.08 67.75.07 104.19.3 106.76c7.02 37.84 39.79 38.77 52.65 39 .04 1.44.07 4.42.16 5.78l.02-.19-.02.87a44.47 44.47 0 0 0 44.5 44.43 44.47 44.47 0 0 0 44.52-44.43 44.44 44.44 0 0 0-43.01-44.38"/></g><defs><clipPath id="a"><path fill="#fff" d="M0 .71h200v195.94H0z"/></clipPath></defs></svg>