<svg xmlns="http://www.w3.org/2000/svg" width="200" height="182" fill="none"><g fill="#FF660F" clip-path="url(#a)"><path d="M63.544 80.454c-1.576 0-3.941 0-7.882-.394-4.335 0-8.67-.788-9.459-1.97-.788-.789-2.365-6.306-3.547-11.824s-3.153-11.43-3.941-12.218c-1.182-1.182-5.124-2.364-9.853-2.759l-7.882-.394V36.707l9.459-.788c11.035-.788 13.794-2.759 13.794-9.853s-2.76-8.67-14.189-9.459l-9.852-.788V8.331l.394-7.094H33.59c14.977.394 20.494 2.365 25.224 9.065 2.364 3.547 3.153 6.305 3.153 12.611 0 7.883 0 8.67-4.73 13.4l-4.729 4.73 3.153 3.94c1.97 2.365 2.759 6.307 3.547 9.065.394 2.76.788 3.941 1.182 5.518 1.577 4.73 2.365 8.67 3.547 13.794.394 2.365 1.183 3.941 1.183 4.335.394 1.183.394 1.577 0 1.577zM.092 78.878V2.025l7.882-.394c4.73 0 8.276 0 9.064.788 1.577 1.577 1.971 72.517.395 75.67-.395 1.577-2.76 1.971-9.065 1.971-3.941 0-7.882-.394-8.276-1.182m78.035.394c-3.942-.788-5.124-2.76-2.76-3.941 3.154-1.183 2.76-3.153-.393-3.153-1.183 0-2.76-.789-3.547-1.577q-.592-1.182 0 1.183c.394 1.576 0 3.152-.395 3.152-.394 0-.788.789-.394 1.971.788 2.365-1.182 2.759-3.547 0-2.364-2.759-1.97-63.058 0-64.24 1.183-.395 1.183-.79 0-2.365-.788-.789-1.576-3.548-1.576-5.124 0-3.547 0-3.547 9.064-3.547h9.065l-.394 38.623c0 24.435-.788 38.624-1.576 39.018 0 .394-1.971.394-3.548 0m-3.942-54.388c-.394-.788-1.182-.394-1.97.394-1.97 2.759-1.183 3.941.788 2.365 1.182-.789 1.576-1.971 1.182-2.76m-4.335-1.577q0-.591-1.182-1.182c-.789-.394-1.183 0-1.183.394s.394 1.182 1.183 1.182c.394 0 1.182 0 1.182-.394m2.365-17.34c0-1.183-.788-1.971-1.577-1.577-2.364.788-2.759 3.547-.394 3.547 1.183 0 1.97-.788 1.97-1.97m14.976 72.91c-1.182-2.364 0-9.458 1.97-12.217 1.577-1.97 3.942-2.365 18.918-1.97h16.947l-.394 7.488-.394 7.488-14.976.394c-13.006 0-14.977 0-15.37-1.97-1.971-5.912-3.154-7.489-2.366-2.76.395 3.942.395 4.73-1.182 4.73-1.182 0-2.365-.394-3.153-1.182m57.935-29.952c-6.306-16.947-13.006-34.682-14.582-39.018l-3.153-8.276h17.341l9.065 23.253 8.67 23.253V63.9c0 15.765 0 15.765-3.153 15.765-2.364.394-3.941-2.365-14.188-30.741m20.1 16.159v-15.37l8.671-24.042 8.67-24.041h9.065c7.882 0 8.67 0 7.882 2.365-.394 1.182-4.335 11.429-8.67 23.253-19.706 53.993-18.918 52.417-22.465 52.811l-2.759.394zM86.797 39.072c0-5.518.394-7.094 2.365-7.488 3.94-1.183 28.376-.788 30.347 0 1.182.788 1.576 3.153 1.182 7.488l-.394 6.306H87.191v-6.306zm0-30.347V1.631h37.047v14.582H86.797zM58.815 177.013c-1.577-7.883-.788-28.771.788-28.771 1.182 0 1.182 0 0-1.182-1.97-1.183-1.97-43.747 0-44.929 2.759-1.971 13.794-1.183 15.765 1.182 3.153 3.153 2.759 40.594-.394 44.141-1.577 1.97-1.971 2.365 0 1.97 1.97-.394 0 2.365 1.97 15.371v15.765l-8.67.394-8.67.394zM123.844 179.377c0-.788 0-5.123-.394-9.852 0-4.73 0-9.459.788-11.036.788-1.182.788-2.364 0-2.364-.394 0-1.182-11.824-.788-26.406v-26.406l9.459-.394 9.458-.394-.394 36.259c0 20.099-.394 37.835-.394 39.017 0 2.365-.788 2.759-8.67 2.759-5.912.394-9.065-.394-9.065-1.183M80.097 152.577c-1.182-1.182-1.182-11.429.394-13.4.789-1.182 3.153-1.576 7.489-1.182 11.429.788 17.735-6.7 13.005-15.765-1.97-3.941-4.335-5.123-15.764-5.517l-5.124-.394-.788-6.7c-.394-6.306 0-7.094 3.153-7.883 5.517-1.182 20.494.394 26.8 3.547 4.335 2.365 6.306 3.942 8.67 9.459 7.094 15.371 0 33.5-14.582 37.441-5.912 1.577-21.676 1.971-23.253.394"/></g><defs><clipPath id="a"><path fill="#fff" d="M0 .552h200v181.006H0z"/></clipPath></defs></svg>