<svg xmlns="http://www.w3.org/2000/svg" width="200" height="181" fill="none"><g fill="#FF660F" clip-path="url(#a)"><path d="M63.54 79.9c-1.57 0-3.94 0-7.88-.4-4.33 0-8.67-.79-9.46-1.97-.78-.79-2.36-6.3-3.54-11.82s-3.16-11.43-3.94-12.22c-1.19-1.18-5.13-2.37-9.86-2.76l-7.88-.4V36.15l9.46-.78c11.03-.79 13.8-2.76 13.8-9.85s-2.77-8.67-14.2-9.46l-9.85-.79V7.77l.4-7.1h13c14.98.4 20.5 2.37 25.23 9.07 2.36 3.55 3.15 6.3 3.15 12.61 0 7.89 0 8.68-4.73 13.4l-4.73 4.73 3.15 3.95c1.97 2.36 2.76 6.3 3.55 9.06.4 2.76.79 3.94 1.18 5.52 1.58 4.73 2.37 8.67 3.55 13.8.4 2.36 1.18 3.93 1.18 4.33.4 1.18.4 1.57 0 1.57zM.1 78.32V1.47l7.88-.4c4.73 0 8.28 0 9.07.8 1.58 1.57 1.97 72.5.4 75.66-.4 1.58-2.77 1.97-9.07 1.97-3.94 0-7.88-.4-8.28-1.18m78.04.4c-3.94-.8-5.13-2.77-2.76-3.95 3.15-1.18 2.76-3.15-.4-3.15a6 6 0 0 1-3.54-1.58q-.6-1.19 0 1.18c.4 1.58 0 3.16-.4 3.16s-.79.79-.4 1.97c.8 2.36-1.17 2.76-3.54 0-2.36-2.76-1.97-63.06 0-64.24 1.18-.4 1.18-.8 0-2.37-.79-.79-1.58-3.54-1.58-5.12 0-3.55 0-3.55 9.07-3.55h9.06l-.39 38.63c0 24.43-.79 38.62-1.58 39.01 0 .4-1.97.4-3.54 0m-3.94-54.4c-.4-.78-1.19-.39-1.97.4-1.98 2.76-1.19 3.94.78 2.36 1.19-.78 1.58-1.97 1.19-2.75m-4.34-1.57q0-.6-1.18-1.18c-.79-.4-1.18 0-1.18.39 0 .4.39 1.18 1.18 1.18.4 0 1.18 0 1.18-.4M72.22 5.4c0-1.18-.8-1.97-1.58-1.58-2.37.79-2.76 3.55-.4 3.55 1.19 0 1.98-.79 1.98-1.97m14.97 72.9c-1.18-2.36 0-9.45 1.97-12.2 1.58-1.98 3.94-2.37 18.92-1.98h16.95l-.4 7.49-.4 7.49-14.97.4c-13 0-14.97 0-15.37-1.98-1.97-5.91-3.15-7.49-2.36-2.76.4 3.94.4 4.73-1.19 4.73-1.18 0-2.36-.4-3.15-1.18m57.94-29.94c-6.3-16.95-13-34.69-14.59-39.02l-3.15-8.28h17.34l9.07 23.26 8.67 23.25v15.76c0 15.77 0 15.77-3.16 15.77-2.36.4-3.94-2.37-14.18-30.74m20.1 16.16V49.15l8.67-24.04 8.67-24.04h9.06c7.88 0 8.67 0 7.88 2.37-.39 1.18-4.33 11.43-8.67 23.25-19.7 54-18.91 52.42-22.46 52.81l-2.76.4zM86.8 38.5c0-5.51.4-7.1 2.36-7.48 3.94-1.19 28.38-.8 30.35 0 1.18.78 1.57 3.15 1.18 7.48l-.4 6.3H87.2v-6.3zm0-30.34v-7.1h37.04v14.58H86.8zM58.81 176.45c-1.57-7.88-.78-28.77.8-28.77 1.18 0 1.18 0 0-1.18-1.98-1.18-1.98-43.75 0-44.93 2.75-1.97 13.79-1.18 15.76 1.18 3.15 3.16 2.76 40.6-.4 44.15-1.57 1.97-1.97 2.36 0 1.97 1.97-.4 0 2.36 1.97 15.37V180l-8.67.4-8.67.39zM123.84 178.82c0-.79 0-5.12-.39-9.85 0-4.73 0-9.46.79-11.04.79-1.18.79-2.36 0-2.36-.4 0-1.18-11.83-.79-26.41v-26.4l9.46-.4 9.46-.4-.4 36.27c0 20.1-.4 37.83-.4 39.01 0 2.37-.78 2.76-8.66 2.76-5.91.4-9.07-.4-9.07-1.18M80.1 152.02c-1.19-1.18-1.19-11.43.4-13.4.78-1.18 3.14-1.58 7.48-1.18 11.43.78 17.73-6.7 13-15.77-1.97-3.94-4.33-5.12-15.76-5.52l-5.12-.39-.8-6.7c-.39-6.3 0-7.1 3.16-7.88 5.52-1.18 20.5.4 26.8 3.54 4.34 2.37 6.3 3.95 8.67 9.46 7.1 15.37 0 33.5-14.58 37.44-5.91 1.58-21.68 1.97-23.25.4"/></g><defs><clipPath id="a"><path fill="#fff" d="M0 0h200v181H0z"/></clipPath></defs></svg>