<svg xmlns="http://www.w3.org/2000/svg" width="200" height="182" fill="none"><g fill="#FF660F" clip-path="url(#a)"><path d="M63.544 79.939c-1.576 0-3.941 0-7.882-.395-4.335 0-8.67-.788-9.459-1.97-.788-.788-2.365-6.306-3.547-11.824s-3.153-11.43-3.941-12.217c-1.182-1.183-5.124-2.365-9.853-2.76l-7.882-.393V36.192l9.459-.789c11.035-.788 13.794-2.758 13.794-9.852s-2.76-8.671-14.189-9.46l-9.852-.788V7.815l.394-7.094H33.59c14.977.394 20.494 2.365 25.224 9.065 2.364 3.547 3.153 6.306 3.153 12.612 0 7.882 0 8.67-4.73 13.4l-4.729 4.729 3.153 3.941c1.97 2.365 2.759 6.306 3.547 9.065.394 2.758.788 3.94 1.182 5.517 1.577 4.73 2.365 8.67 3.547 13.794.394 2.365 1.183 3.942 1.183 4.336.394 1.182.394 1.576 0 1.576zM.092 78.362V1.509l7.882-.394c4.73 0 8.276 0 9.064.789 1.577 1.576 1.971 72.517.395 75.67-.395 1.576-2.76 1.97-9.065 1.97-3.941 0-7.882-.394-8.276-1.182m78.035.394c-3.942-.788-5.124-2.759-2.76-3.941 3.154-1.182 2.76-3.153-.393-3.153-1.183 0-2.76-.788-3.547-1.576q-.592-1.183 0 1.182c.394 1.576 0 3.153-.395 3.153-.394 0-.788.788-.394 1.97.788 2.365-1.182 2.76-3.547 0-2.364-2.758-1.97-63.058 0-64.24 1.183-.395 1.183-.789 0-2.365-.788-.788-1.576-3.547-1.576-5.124 0-3.547 0-3.547 9.064-3.547h9.065L83.25 39.74c0 24.435-.788 38.623-1.576 39.017 0 .394-1.971.394-3.548 0m-3.942-54.388c-.394-.788-1.182-.394-1.97.394-1.97 2.76-1.183 3.941.788 2.365 1.182-.788 1.576-1.97 1.182-2.759m-4.335-1.576q0-.592-1.182-1.183c-.789-.394-1.183 0-1.183.394 0 .395.394 1.183 1.183 1.183.394 0 1.182 0 1.182-.394M72.215 5.45c0-1.183-.788-1.971-1.577-1.577-2.364.788-2.759 3.547-.394 3.547 1.183 0 1.97-.788 1.97-1.97M87.19 78.362c-1.182-2.365 0-9.459 1.97-12.218 1.577-1.97 3.942-2.364 18.918-1.97h16.947l-.394 7.488-.394 7.488-14.976.394c-13.006 0-14.977 0-15.37-1.97-1.971-5.912-3.154-7.488-2.366-2.759.395 3.941.395 4.73-1.182 4.73-1.182 0-2.365-.395-3.153-1.183m57.935-29.953c-6.306-16.947-13.006-34.682-14.582-39.017l-3.153-8.277h17.341l9.065 23.253 8.67 23.253v15.765c0 15.764 0 15.764-3.153 15.764-2.364.394-3.941-2.365-14.188-30.74m20.1 16.159v-15.37l8.671-24.042 8.67-24.04h9.065c7.882 0 8.67 0 7.882 2.364-.394 1.182-4.335 11.43-8.67 23.253-19.706 53.994-18.918 52.417-22.465 52.811l-2.759.395zM86.797 38.556c0-5.517.394-7.094 2.365-7.488 3.94-1.182 28.376-.788 30.347 0 1.182.788 1.576 3.153 1.182 7.488l-.394 6.306H87.191v-6.306zm0-30.347V1.115h37.047v14.583H86.797zM58.815 176.497c-1.577-7.882-.788-28.771.788-28.771 1.182 0 1.182 0 0-1.182-1.97-1.182-1.97-43.747 0-44.929 2.759-1.97 13.794-1.182 15.765 1.182 3.153 3.153 2.759 40.594-.394 44.141-1.577 1.971-1.971 2.365 0 1.971 1.97-.394 0 2.365 1.97 15.37v15.765l-8.67.394-8.67.394zM123.844 178.862c0-.788 0-5.124-.394-9.853 0-4.729 0-9.459.788-11.035.788-1.183.788-2.365 0-2.365-.394 0-1.182-11.823-.788-26.406v-26.405l9.459-.395 9.458-.394-.394 36.259c0 20.1-.394 37.835-.394 39.017 0 2.365-.788 2.759-8.67 2.759-5.912.394-9.065-.394-9.065-1.182M80.097 152.062c-1.182-1.183-1.182-11.43.394-13.4.789-1.183 3.153-1.577 7.489-1.183 11.429.789 17.735-6.7 13.005-15.764-1.97-3.941-4.335-5.124-15.764-5.518l-5.124-.394-.788-6.7c-.394-6.306 0-7.094 3.153-7.882 5.517-1.183 20.494.394 26.8 3.547 4.335 2.364 6.306 3.941 8.67 9.459 7.094 15.37 0 33.499-14.582 37.441-5.912 1.576-21.676 1.97-23.253.394"/></g><defs><clipPath id="a"><path fill="#fff" d="M0 .036h200v181.006H0z"/></clipPath></defs></svg>