<svg xmlns="http://www.w3.org/2000/svg" width="200" height="234" fill="none"><g clip-path="url(#a)"><path fill="#00C19C" d="M.644 232.71c0-77.249 0-154.497.026-231.836C.729.753.76.72.79.684c21.188 0 42.374 0 63.647.025.112.059.14.09.18.188.011.386.014.704.014 1.022 0 41.48.003 82.96-.003 124.439 0 7.578-.037 15.157-.048 22.735 0 .045.126.09.171.181-.105.343-.188.639-.323.945-.116.04-.203.052-.241.102-1.818 2.386-3.63 4.776-5.445 7.165q-1.677 2.21-3.361 4.414c-1.913 2.497-3.831 4.989-5.745 7.485-1.462 1.906-2.917 3.817-4.38 5.722-1.624 2.113-3.256 4.221-4.88 6.335-1.304 1.694-2.594 3.398-3.904 5.088-2.091 2.697-4.203 5.378-6.288 8.079-1.716 2.223-3.398 4.473-5.112 6.698-2.198 2.855-4.42 5.693-6.619 8.548-2.05 2.664-4.076 5.346-6.124 8.011-1.875 2.438-3.775 4.857-5.646 7.298-1.489 1.942-2.944 3.911-4.431 5.854-.451.589-.961 1.133-1.485 1.696z"/><path fill="#005083" d="M64.48 150.208c.083-.295.166-.591.313-.962.285-.364.505-.652.725-.94 1.467-1.926 2.925-3.86 4.403-5.778 2.232-2.897 4.487-5.776 6.717-8.675 1.83-2.38 3.63-4.783 5.455-7.166 2.253-2.94 4.522-5.868 6.779-8.806 1.962-2.554 3.916-5.115 5.877-7.67 2.389-3.111 4.784-6.217 7.172-9.329 1.96-2.555 3.907-5.121 5.871-7.674 2.379-3.09 4.778-6.164 7.152-9.257 1.975-2.573 3.92-5.17 5.891-7.746 2.691-3.52 5.397-7.03 8.089-10.549.644-.842 1.34-1.315 2.535-1.312 21.885.046 43.771.032 65.656.04.845 0 1.69.091 2.534.14 0 .066 0 .13-.051.23a755 755 0 0 0-5.955 7.386c-1.654 2.087-3.269 4.206-4.909 6.304-1.745 2.232-3.501 4.455-5.25 6.684-1.825 2.324-3.642 4.654-5.473 6.974-1.92 2.435-3.861 4.854-5.778 7.291-2.23 2.836-4.437 5.69-6.666 8.527-2.409 3.066-4.84 6.116-7.245 9.186-2.375 3.03-4.718 6.085-7.096 9.112-3.142 4-6.311 7.979-9.456 11.977-2.635 3.349-5.254 6.712-7.877 10.071-.388.496-1.042.993-1.06 1.507-.017.489.638 1.001.997 1.503.028.039.042.089.071.127q2.583 3.283 5.169 6.565 2.63 3.338 5.262 6.675c1.693 2.151 3.382 4.305 5.079 6.452 1.772 2.243 3.556 4.476 5.326 6.72 1.694 2.149 3.37 4.312 5.066 6.459 1.773 2.243 3.569 4.468 5.339 6.712 1.89 2.395 3.755 4.81 5.644 7.205 2.116 2.682 4.258 5.343 6.37 8.027 2.232 2.835 4.432 5.694 6.665 8.527 2.31 2.93 4.649 5.836 6.966 8.761 1.969 2.487 3.934 4.977 5.88 7.483.497.639.914 1.341 1.368 2.014-25.295 0-50.59 0-75.939-.053-.271-.485-.442-.948-.714-1.34-3.066-4.418-6.146-8.826-9.224-13.236q-5.261-7.537-10.528-15.07c-2.082-2.977-4.182-5.942-6.258-8.924-3.543-5.089-7.067-10.191-10.61-15.279-3.96-5.684-7.936-11.356-11.896-17.04-2.173-3.12-4.319-6.26-6.496-9.377-.594-.85-1.258-1.652-1.89-2.476"/><path fill="#00C19C" d="M.767 232.714c.035.066.03.13.024.241-.05 0-.098-.049-.147-.172.027-.072.055-.072.123-.069M.718.684C.76.72.729.753.67.808.644.782.644.733.718.684M64.595.684c.035.025.034.05.023.11-.04.006-.069-.026-.114-.085-.02-.025.054-.025.091-.025"/></g><defs><clipPath id="a"><path fill="#fff" d="M0 .206h200v232.836H0z"/></clipPath></defs></svg>