<svg xmlns="http://www.w3.org/2000/svg" width="200" height="234" fill="none"><g clip-path="url(#a)"><path fill="#00C19C" d="M.644 233.468c0-77.249 0-154.497.026-231.836.059-.121.09-.155.12-.19 21.188 0 42.374 0 63.647.026.112.058.14.09.18.188.011.386.014.704.014 1.022 0 41.479.003 82.959-.003 124.438 0 7.579-.037 15.157-.048 22.736 0 .044.126.089.171.18-.105.343-.188.639-.323.945-.116.041-.203.052-.241.102-1.818 2.386-3.63 4.777-5.445 7.165q-1.677 2.21-3.361 4.414c-1.913 2.497-3.831 4.99-5.745 7.486-1.462 1.906-2.917 3.816-4.38 5.721-1.624 2.114-3.256 4.222-4.88 6.335-1.304 1.694-2.594 3.399-3.904 5.088-2.091 2.697-4.203 5.378-6.288 8.079-1.716 2.223-3.398 4.473-5.112 6.698-2.198 2.856-4.42 5.693-6.619 8.549-2.05 2.663-4.076 5.345-6.124 8.01-1.875 2.439-3.775 4.858-5.646 7.298-1.489 1.942-2.944 3.911-4.431 5.854-.451.589-.961 1.133-1.485 1.696z"/><path fill="#005083" d="M64.48 150.967c.083-.296.166-.592.313-.963.285-.364.505-.651.725-.94 1.467-1.926 2.925-3.86 4.403-5.778 2.232-2.896 4.487-5.776 6.717-8.675 1.83-2.38 3.63-4.783 5.455-7.165 2.253-2.941 4.522-5.869 6.779-8.807 1.962-2.554 3.916-5.115 5.877-7.67 2.389-3.111 4.784-6.217 7.172-9.329 1.96-2.555 3.907-5.121 5.871-7.673 2.379-3.09 4.778-6.164 7.152-9.258 1.975-2.573 3.92-5.169 5.891-7.746 2.691-3.52 5.397-7.029 8.089-10.548.644-.842 1.34-1.315 2.535-1.313 21.885.046 43.771.032 65.656.04.845 0 1.69.092 2.534.14 0 .066 0 .131-.051.231a755 755 0 0 0-5.955 7.385c-1.654 2.088-3.269 4.206-4.909 6.305-1.745 2.231-3.501 4.455-5.25 6.683-1.825 2.325-3.642 4.655-5.473 6.975-1.92 2.434-3.861 4.853-5.778 7.291-2.23 2.835-4.437 5.689-6.666 8.526-2.409 3.067-4.84 6.116-7.245 9.186-2.375 3.03-4.718 6.085-7.096 9.113-3.142 4-6.311 7.978-9.456 11.976-2.635 3.35-5.254 6.713-7.877 10.072-.388.495-1.042.992-1.06 1.506-.017.489.638 1.001.997 1.503.028.04.042.09.071.127q2.583 3.284 5.169 6.565 2.63 3.338 5.262 6.676c1.693 2.15 3.382 4.304 5.079 6.452 1.772 2.242 3.556 4.475 5.326 6.719 1.694 2.149 3.37 4.313 5.066 6.46 1.773 2.243 3.569 4.467 5.339 6.712 1.89 2.395 3.755 4.809 5.644 7.204 2.116 2.682 4.258 5.343 6.37 8.027 2.232 2.835 4.432 5.695 6.665 8.527 2.31 2.93 4.649 5.837 6.966 8.761a1034 1034 0 0 1 5.88 7.483c.497.64.914 1.341 1.368 2.015-25.295 0-50.59 0-75.939-.054-.271-.484-.442-.948-.714-1.34-3.066-4.418-6.146-8.826-9.224-13.235q-5.261-7.538-10.528-15.07c-2.082-2.978-4.182-5.943-6.258-8.925-3.543-5.088-7.067-10.19-10.61-15.278-3.96-5.685-7.936-11.357-11.896-17.041-2.173-3.12-4.319-6.259-6.496-9.377-.594-.85-1.258-1.651-1.89-2.475"/><path fill="#00C19C" d="M.767 233.473c.035.065.03.129.024.241-.05-.001-.098-.05-.147-.172.027-.073.055-.072.123-.069M.718 1.442c.043.036.011.07-.048.125-.026-.026-.026-.075.048-.125M64.595 1.442c.035.025.034.05.023.11-.04.006-.069-.026-.114-.084-.02-.026.054-.026.091-.026"/></g><defs><clipPath id="a"><path fill="#fff" d="M0 .964h200V233.8H0z"/></clipPath></defs></svg>