<svg xmlns="http://www.w3.org/2000/svg" width="200" height="234" fill="none"><g clip-path="url(#a)"><path fill="#00C19C" d="M.64 233.38c0-77.25 0-154.5.03-231.84.06-.12.1-.15.12-.19 21.19 0 42.37 0 63.65.03.1.06.14.09.18.19l.01 1.02v124.44q-.02 11.37-.05 22.73c0 .05.13.1.17.18-.1.35-.19.64-.32.95q-.18.04-.24.1l-5.45 7.17-3.36 4.41-5.74 7.49q-2.2 2.85-4.38 5.72l-4.88 6.33-3.9 5.09q-3.16 4.04-6.3 8.08-2.56 3.34-5.1 6.7-3.31 4.27-6.63 8.55-3.06 4-6.12 8-2.83 3.65-5.65 7.3c-1.49 1.95-2.94 3.91-4.43 5.86q-.69.87-1.48 1.7z"/><path fill="#005083" d="M64.48 150.88q.11-.44.31-.96l.73-.94q2.2-2.9 4.4-5.78 3.36-4.34 6.72-8.68 2.73-3.58 5.45-7.16l6.78-8.8 5.88-7.68 7.17-9.33q2.93-3.83 5.87-7.67 3.58-4.64 7.15-9.26c1.98-2.57 3.92-5.17 5.9-7.74q4.05-5.28 8.08-10.55c.65-.85 1.34-1.32 2.54-1.32q32.82.06 65.66.04c.84 0 1.69.1 2.53.14q.01.1-.05.24-3.02 3.7-5.96 7.38-2.47 3.14-4.9 6.3l-5.26 6.69-5.47 6.97-5.78 7.3q-3.33 4.25-6.66 8.52l-7.25 9.19q-3.54 4.56-7.1 9.1l-9.45 11.99q-3.95 5.01-7.88 10.07c-.38.5-1.04.99-1.06 1.5-.01.5.64 1 1 1.5q.03.08.07.13l5.17 6.57 5.26 6.67 5.08 6.46q2.67 3.35 5.33 6.72 2.54 3.22 5.06 6.45 2.68 3.36 5.34 6.72 2.83 3.6 5.65 7.2 3.18 4 6.37 8.03c2.23 2.83 4.43 5.7 6.66 8.53q3.48 4.38 6.97 8.76 2.95 3.72 5.88 7.48c.5.64.91 1.34 1.37 2.01q-37.94.01-75.94-.05c-.27-.48-.45-.95-.72-1.34q-4.6-6.63-9.22-13.24l-10.53-15.06-6.26-8.93-10.6-15.28-11.9-17.04q-3.25-4.69-6.5-9.38c-.6-.85-1.26-1.65-1.89-2.47"/><path fill="#00C19C" d="M.77 233.39q.04.08.02.24-.07 0-.15-.18.04-.09.13-.06M.72 1.35q.04.05-.05.13-.06-.05.05-.13M64.6 1.35q.04.03.02.11-.05.01-.12-.08c-.02-.03.06-.03.1-.03"/></g><defs><clipPath id="a"><path fill="#fff" d="M0 .88h200v232.84H0z"/></clipPath></defs></svg>