<svg xmlns="http://www.w3.org/2000/svg" width="200" height="146" fill="none"><g clip-path="url(#a)"><path fill="#2B2B2B" d="M108.697 78.03 81.68 120.96h52.369l21.28-34.234zM100 .31 80.94 27.512l45.337 10.362z"/><path fill="#6E6E6E" d="m109.438 73.774 48.112 8.512-26.647-37.935-47.187-10.917z"/><path fill="#781F29" d="m161.251 87.652-21.096 33.309h44.412zM72.428 120.961l-26.832-42.93 31.273-44.597 27.387 42.56-28.683 44.967z"/><path fill="#6E6E6E" d="M15.433 120.961h49.593L42.45 82.286z"/><path fill="#781F29" d="M110.363 134.655v-5.552c0-1.295.555-2.035 1.85-2.405.74-.185 1.481-.37 2.221-.37 5.181 0 10.363-.37 15.544.74 2.961.555 5.551 2.035 7.032 4.811 1.665 3.331.555 7.402-2.591 9.438-2.961 1.85-6.292 2.22-9.622 2.59a97 97 0 0 1-10.363 0c-3.331-.185-4.071-.925-4.071-4.441zm6.662.37v4.441c0 .555.555 1.296.925 1.296 3.331.185 6.661.555 9.992-.741 2.221-.925 3.331-2.775 3.146-5.366s-1.295-4.071-3.886-4.811c-1.11-.37-2.405-.555-3.701-.741-6.476-.555-6.476-.555-6.476 5.922M155.885 143.907h-8.513c-3.331-.185-4.071-.925-4.256-4.256v-9.252c0-2.961.74-3.701 3.701-4.071h16.284000000000002c1.111 0 2.406.37 3.516.74.185 0 .555.555.555.925s-.37.74-.74.74c-.925.185-1.85.37-2.96.37h-11.844c-1.85 0-1.85.37-2.035 2.221 0 1.295.37 2.035 1.85 2.035 3.146 0 6.477-.185 9.623 0 1.48 0 4.256-.925 4.256 1.296 0 1.85-2.591 1.11-4.071 1.11-3.146.185-6.477 0-9.623 0-2.035 0-2.035.185-2.035 2.591 0 2.405 0 2.405 2.22 2.405h11.844c2.59 0 4.071.556 3.701 1.481-.741 1.665-2.221 1.665-3.701 1.665zM32.643 132.989v-3.701c0-2.59.74-3.146 2.96-3.146 2.406 0 3.146.741 3.146 2.961v6.292c0 4.071 1.295 5.366 5.182 5.551H48c3.146-.37 4.442-1.665 4.442-4.811v-7.032c0-2.405.74-2.961 2.775-2.961 2.221-.185 3.701.741 3.701 2.591 0 3.146-.185 6.477-.37 9.623-.185 1.85-1.11 2.96-2.775 3.701-1.666.74-3.516 1.665-5.182 1.85-3.886.185-7.957.185-11.843-.555-5.366-.925-6.477-2.591-6.662-8.142.555-.74.555-1.481.555-2.221M14.508 125.587c2.22.37 3.7.926 4.996 2.591 2.776 3.886 5.737 7.772 8.697 11.658.555.925 1.48 1.666.926 2.961-.555.925-2.221 1.48-3.701.925-1.11-.37-2.036-1.295-2.776-2.22-1.11-1.666-2.406-2.221-4.441-2.036q-3.33.278-6.662 0c-2.22-.185-3.7.37-4.811 2.406s-3.146 2.59-5.182 1.85c-1.295-.37-1.665-1.48-.925-2.591 3.146-4.626 6.292-9.067 9.808-13.508.925-.925 2.776-1.295 4.07-2.036m-4.071 10.733c.555.185.74.37 1.11.37h6.292c1.11 0 .925-.555.555-1.11-1.11-1.665-2.22-3.331-3.331-4.811-.185-.185-.74-.37-.74-.185-1.296 1.665-2.406 3.516-3.886 5.736M185.122 139.466c-.925 0-1.665.185-2.591 0-2.59-.37-4.626.37-5.736 2.776-.74 1.48-2.221 1.85-3.886 1.665-2.221-.185-2.961-1.295-1.666-3.146 2.961-4.071 5.737-8.327 8.883-12.213 2.775-3.516 7.402-3.331 9.992.37a284 284 0 0 1 8.698 12.028c1.11 1.666.555 2.776-1.296 3.146-1.48.37-3.146.185-3.886-1.295-1.665-2.961-4.256-3.331-7.217-2.961-.185-.185-.74-.37-1.295-.37m-.74-2.776h3.331c.37 0 .925 0 1.295-.185 0-.37 0-.925-.37-1.295-.37-.74-.925-1.48-1.481-2.221-2.22-3.145-2.22-3.145-4.256 0-.74 1.111-1.295 2.406-2.035 3.516 1.48 0 2.776.185 3.516.185M77.98 143.907c-2.221 0-3.887-.555-5.182-2.406-2.59-4.071-5.366-7.957-7.957-12.028-1.295-2.035-.555-3.145 1.665-3.33 2.036-.186 3.331.555 4.257 2.22 2.035 3.331 4.07 6.477 5.921 9.808.925 1.48 1.295 1.48 2.22 0 2.036-3.146 4.072-6.477 6.107-9.808.925-1.48 2.036-2.22 3.886-2.22s3.331 1.295 1.85 3.33c-2.96 4.071-5.736 8.328-8.511 12.584-.74 1.48-2.406 1.85-4.257 1.85M96.854 134.655v-5.922c0-1.85 1.11-2.775 3.146-2.775s3.331.74 3.331 2.59a143 143 0 0 1 0 12.583c0 2.036-1.481 2.961-3.516 2.776s-2.961-.925-2.961-2.961z"/></g><defs><clipPath id="a"><path fill="#fff" d="M0 .085h200v145.078H0z"/></clipPath></defs></svg>