<svg xmlns="http://www.w3.org/2000/svg" width="200" height="146" fill="none"><g clip-path="url(#a)"><path fill="#2B2B2B" d="m108.7 78.7-27.02 42.93h52.37l21.28-34.23zM100 .98l-19.06 27.2 45.34 10.36z"/><path fill="#6E6E6E" d="m109.44 74.44 48.11 8.52-26.65-37.94L83.72 34.1z"/><path fill="#781F29" d="m161.25 88.32-21.1 33.31h44.42zM72.43 121.63 45.6 78.7l31.27-44.6 27.39 42.56-28.69 44.97z"/><path fill="#6E6E6E" d="M15.43 121.63h49.6L42.45 82.96z"/><path fill="#781F29" d="M110.36 135.32v-5.55c0-1.3.56-2.03 1.85-2.4a9 9 0 0 1 2.22-.37c5.18 0 10.37-.37 15.55.74 2.96.55 5.55 2.03 7.03 4.8a7.34 7.34 0 0 1-2.6 9.45c-2.95 1.85-6.28 2.22-9.61 2.59-3.52.18-6.85.18-10.37 0-3.33-.19-4.07-.93-4.07-4.44zm6.67.38v4.44c0 .55.55 1.3.92 1.3 3.33.18 6.66.55 10-.75 2.21-.92 3.32-2.77 3.14-5.37-.19-2.59-1.3-4.07-3.89-4.8-1.1-.38-2.4-.56-3.7-.75-6.47-.55-6.47-.55-6.47 5.92M155.89 144.58h-8.52c-3.33-.19-4.07-.93-4.25-4.26v-9.25c0-2.96.74-3.7 3.7-4.07h16.28c1.11 0 2.4.37 3.52.74.18 0 .55.55.55.92a.8.8 0 0 1-.74.74c-.92.19-1.85.37-2.96.37h-11.84c-1.85 0-1.85.37-2.04 2.22 0 1.3.37 2.04 1.85 2.04 3.15 0 6.48-.19 9.63 0 1.48 0 4.25-.93 4.25 1.3 0 1.84-2.59 1.1-4.07 1.1-3.15.19-6.48 0-9.62 0-2.04 0-2.04.19-2.04 2.6 0 2.4 0 2.4 2.22 2.4h11.85c2.59 0 4.07.56 3.7 1.48-.74 1.67-2.22 1.67-3.7 1.67zM32.64 133.66v-3.7c0-2.6.74-3.15 2.96-3.15 2.4 0 3.15.74 3.15 2.96v6.3c0 4.07 1.3 5.36 5.18 5.55H48c3.15-.37 4.44-1.67 4.44-4.81v-7.04c0-2.4.74-2.96 2.78-2.96 2.22-.18 3.7.74 3.7 2.6 0 3.14-.19 6.47-.37 9.62-.19 1.85-1.11 2.96-2.78 3.7s-3.51 1.66-5.18 1.85c-3.88.18-7.95.18-11.84-.56-5.37-.92-6.48-2.59-6.66-8.14.55-.74.55-1.48.55-2.22M14.5 126.26c2.23.37 3.7.92 5 2.59 2.78 3.88 5.74 7.77 8.7 11.66.56.92 1.48 1.66.93 2.96-.56.92-2.22 1.48-3.7.92a6.5 6.5 0 0 1-2.78-2.22c-1.11-1.66-2.4-2.22-4.44-2.03q-3.33.27-6.66 0c-2.22-.19-3.7.37-4.81 2.4-1.11 2.04-3.15 2.6-5.19 1.85-1.3-.37-1.66-1.48-.92-2.59 3.15-4.62 6.3-9.07 9.8-13.5.93-.93 2.78-1.3 4.08-2.04m-4.06 10.73c.55.19.74.37 1.1.37h6.3c1.1 0 .92-.56.55-1.11a108 108 0 0 0-3.33-4.81c-.18-.19-.74-.37-.74-.19-1.3 1.67-2.4 3.52-3.88 5.74M185.12 140.14c-.92 0-1.66.18-2.59 0-2.59-.37-4.62.37-5.74 2.77-.73 1.48-2.22 1.85-3.88 1.67-2.22-.19-2.96-1.3-1.67-3.15 2.96-4.07 5.74-8.33 8.89-12.21 2.77-3.52 7.4-3.33 9.99.37 2.96 3.88 5.92 7.95 8.7 12.03 1.1 1.66.55 2.77-1.3 3.14-1.48.37-3.15.19-3.89-1.3-1.66-2.95-4.25-3.32-7.21-2.95-.19-.19-.74-.37-1.3-.37m-.74-2.78h3.33c.37 0 .93 0 1.3-.19 0-.36 0-.92-.37-1.29-.37-.74-.93-1.48-1.48-2.22-2.22-3.15-2.22-3.15-4.26 0-.74 1.11-1.3 2.4-2.03 3.52 1.48 0 2.77.18 3.51.18M77.98 144.58c-2.22 0-3.89-.56-5.18-2.4-2.6-4.08-5.37-7.97-7.96-12.04-1.3-2.03-.55-3.14 1.67-3.33 2.03-.18 3.33.56 4.25 2.22 2.04 3.33 4.07 6.48 5.92 9.81.93 1.48 1.3 1.48 2.22 0 2.04-3.15 4.08-6.48 6.11-9.8.93-1.49 2.04-2.23 3.89-2.23s3.33 1.3 1.85 3.33a299 299 0 0 0-8.51 12.59c-.74 1.48-2.41 1.85-4.26 1.85M96.85 135.32v-5.92c0-1.85 1.11-2.77 3.15-2.77 2.03 0 3.33.74 3.33 2.59.19 4.25.19 8.32 0 12.58 0 2.04-1.48 2.96-3.52 2.78-2.03-.19-2.96-.93-2.96-2.96z"/></g><defs><clipPath id="a"><path fill="#fff" d="M0 .75h200v145.08H0z"/></clipPath></defs></svg>