<svg xmlns="http://www.w3.org/2000/svg" width="200" height="146" fill="none"><g clip-path="url(#a)"><path fill="#2B2B2B" d="M108.697 78.788 81.68 121.719h52.369l21.28-34.234zM100 1.067 80.94 28.27l45.337 10.362z"/><path fill="#6E6E6E" d="m109.438 74.532 48.112 8.512-26.647-37.935-47.187-10.918z"/><path fill="#781F29" d="m161.251 88.41-21.096 33.309h44.412zM72.428 121.719 45.596 78.788l31.273-44.597 27.387 42.561-28.683 44.967z"/><path fill="#6E6E6E" d="M15.433 121.719h49.593L42.45 83.044z"/><path fill="#781F29" d="M110.363 135.413v-5.552c0-1.295.555-2.035 1.85-2.405.74-.185 1.481-.37 2.221-.37 5.181 0 10.363-.371 15.544.74 2.961.555 5.551 2.035 7.032 4.811 1.665 3.331.555 7.402-2.591 9.437-2.961 1.851-6.292 2.221-9.622 2.591a97 97 0 0 1-10.363 0c-3.331-.185-4.071-.925-4.071-4.441zm6.662.37v4.441c0 .555.555 1.295.925 1.295 3.331.185 6.661.555 9.992-.74 2.221-.925 3.331-2.776 3.146-5.366-.185-2.591-1.295-4.071-3.886-4.812-1.11-.37-2.405-.555-3.701-.74-6.476-.555-6.476-.555-6.476 5.922M155.885 144.665h-8.513c-3.331-.185-4.071-.925-4.256-4.256v-9.252c0-2.961.74-3.701 3.701-4.072h16.284000000000002c1.111 0 2.406.371 3.516.741.185 0 .555.555.555.925s-.37.74-.74.74c-.925.185-1.85.37-2.96.37h-11.844c-1.85 0-1.85.37-2.035 2.221 0 1.295.37 2.035 1.85 2.035 3.146 0 6.477-.185 9.623 0 1.48 0 4.256-.925 4.256 1.296 0 1.85-2.591 1.11-4.071 1.11-3.146.185-6.477 0-9.623 0-2.035 0-2.035.185-2.035 2.591 0 2.405 0 2.405 2.22 2.405h11.844c2.59 0 4.071.555 3.701 1.481-.741 1.665-2.221 1.665-3.701 1.665zM32.643 133.747v-3.701c0-2.591.74-3.146 2.96-3.146 2.406 0 3.146.74 3.146 2.961v6.292c0 4.071 1.295 5.366 5.182 5.551H48c3.146-.37 4.442-1.665 4.442-4.811v-7.032c0-2.406.74-2.961 2.775-2.961 2.221-.185 3.701.74 3.701 2.591 0 3.146-.185 6.477-.37 9.622-.185 1.851-1.11 2.961-2.775 3.701-1.666.741-3.516 1.666-5.182 1.851-3.886.185-7.957.185-11.843-.555-5.366-.926-6.477-2.591-6.662-8.142.555-.741.555-1.481.555-2.221M14.508 126.345c2.22.37 3.7.925 4.996 2.591 2.776 3.886 5.737 7.772 8.697 11.658.555.925 1.48 1.665.926 2.961-.555.925-2.221 1.48-3.701.925-1.11-.37-2.036-1.295-2.776-2.221-1.11-1.665-2.406-2.22-4.441-2.035q-3.33.278-6.662 0c-2.22-.185-3.7.37-4.811 2.405-1.11 2.036-3.146 2.591-5.182 1.851C.26 144.11-.11 143 .63 141.889c3.146-4.626 6.292-9.067 9.808-13.508.925-.925 2.776-1.296 4.07-2.036m-4.071 10.733c.555.185.74.37 1.11.37h6.292c1.11 0 .925-.555.555-1.11-1.11-1.666-2.22-3.331-3.331-4.811-.185-.185-.74-.371-.74-.185-1.296 1.665-2.406 3.515-3.886 5.736M185.122 140.224c-.925 0-1.665.185-2.591 0-2.59-.37-4.626.37-5.736 2.776-.74 1.48-2.221 1.85-3.886 1.665-2.221-.185-2.961-1.295-1.666-3.146 2.961-4.071 5.737-8.327 8.883-12.213 2.775-3.516 7.402-3.331 9.992.37a284 284 0 0 1 8.698 12.028c1.11 1.666.555 2.776-1.296 3.146-1.48.37-3.146.185-3.886-1.295-1.665-2.961-4.256-3.331-7.217-2.961-.185-.185-.74-.37-1.295-.37m-.74-2.776h3.331c.37 0 .925 0 1.295-.185 0-.37 0-.925-.37-1.295-.37-.74-.925-1.481-1.481-2.221-2.22-3.146-2.22-3.146-4.256 0-.74 1.11-1.295 2.406-2.035 3.516 1.48 0 2.776.185 3.516.185M77.98 144.665c-2.221 0-3.887-.555-5.182-2.406-2.59-4.071-5.366-7.957-7.957-12.028-1.295-2.035-.555-3.146 1.665-3.331 2.036-.185 3.331.555 4.257 2.221 2.035 3.331 4.07 6.477 5.921 9.807.925 1.481 1.295 1.481 2.22 0 2.036-3.145 4.072-6.476 6.107-9.807.925-1.48 2.036-2.221 3.886-2.221s3.331 1.296 1.85 3.331c-2.96 4.071-5.736 8.327-8.511 12.583-.74 1.481-2.406 1.851-4.257 1.851M96.854 135.413v-5.922c0-1.85 1.11-2.776 3.146-2.776s3.331.741 3.331 2.591a143 143 0 0 1 0 12.583c0 2.036-1.481 2.961-3.516 2.776s-2.961-.925-2.961-2.961z"/></g><defs><clipPath id="a"><path fill="#fff" d="M0 .843h200V145.92H0z"/></clipPath></defs></svg>