<svg xmlns="http://www.w3.org/2000/svg" width="200" height="78" fill="none"><g clip-path="url(#a)"><path fill="#00C7FD" d="M14.8 1.38H.37v14.45h14.45z"/><path fill="#0068B5" d="M14.45 76.65V24.57H.72V76.6h13.73zm90.9.51V64.41c-2 0-3.7-.1-4.94-.3a5.6 5.6 0 0 1-3.24-1.44 5.8 5.8 0 0 1-1.44-3.14q-.3-1.94-.3-5.04V36.34h9.92V24.57h-9.93V4.3H81.7v50.33q0 6.42 1.08 10.75a15 15 0 0 0 3.65 6.89 14.7 14.7 0 0 0 6.68 3.75q4.18 1.14 10.44 1.13zm78.56-.51V.3h-13.73v76.35zM68.48 29.71c-3.8-4.11-9.15-6.17-15.94-6.17-3.29 0-6.32.67-9 2a19.4 19.4 0 0 0-6.83 5.56l-.72.97v-7.5H22.47V76.6h13.62V48.89v1.9-.93q.23-7.32 3.6-10.8a11.8 11.8 0 0 1 8.69-3.7c3.96 0 7 1.24 9 3.6 1.95 2.37 2.98 5.71 2.98 9.98v27.65h13.83V47.1c.05-7.4-1.9-13.27-5.7-17.38m94.6 20.82q0-5.62-1.95-10.54a28 28 0 0 0-5.5-8.58 25 25 0 0 0-8.48-5.76 28 28 0 0 0-10.9-2.06 27 27 0 0 0-19.18 7.87 27 27 0 0 0-5.76 8.58 26 26 0 0 0-2.1 10.6q0 5.64 2 10.59a26 26 0 0 0 5.6 8.58 26 26 0 0 0 8.7 5.76 28 28 0 0 0 11.15 2.16c11.62 0 18.82-5.3 23.13-10.23l-9.87-7.5c-2.05 2.46-6.99 5.8-13.16 5.8-3.85 0-7.04-.87-9.46-2.67a13.2 13.2 0 0 1-4.94-7.25l-.15-.46h40.88zm-40.77-4.78c0-3.8 4.37-10.44 13.78-10.49 9.41 0 13.83 6.63 13.83 10.44zm77.23 24.32a5 5 0 0 0-1.08-1.6 5.12 5.12 0 0 0-3.55-1.5c-.72.01-1.34.17-1.95.43q-.92.38-1.6 1.08-.69.67-1.08 1.59a4.92 4.92 0 0 0 0 3.9q.39.92 1.08 1.6.68.69 1.6 1.08.93.4 1.95.41c.72 0 1.34-.15 1.95-.41a5 5 0 0 0 1.6-1.08q.69-.68 1.08-1.6.39-.93.4-1.95-.01-1.01-.4-1.95m-.82 3.6q-.33.78-.88 1.33t-1.34.88a4.45 4.45 0 0 1-3.3 0 4 4 0 0 1-2.5-3.86q0-.86.3-1.64a4 4 0 0 1 3.86-2.52q.86 0 1.64.3.79.33 1.34.88t.88 1.34c.2.51.3 1.03.3 1.64 0 .62-.1 1.13-.3 1.65m-2.88-1.18q.6-.08.97-.47.4-.36.41-1.13.02-.83-.51-1.28c-.3-.31-.87-.47-1.54-.47h-2.26v5.81h1.08V72.6h.77l1.44 2.36h1.13zm-.57-.88h-1.28v-1.64h1.28q.22.01.46.1.24.08.31.26c.1.1.1.25.1.46q-.01.3-.1.46-.15.16-.3.26-.24.09-.47.1"/></g><defs><clipPath id="a"><path fill="#fff" d="M0 .25h200v77.64H0z"/></clipPath></defs></svg>