<svg xmlns="http://www.w3.org/2000/svg" width="200" height="132" fill="none"><g fill="#127CC1" clip-path="url(#a)"><path d="M196.753 38.155C187.463-7.131 99.837-10 43.353 24.503v3.81C99.762-.804 179.805-.618 187.09 41.096c2.454 13.82-5.276 28.192-19.137 36.462V88.38c16.685-6.122 33.741-25.936 28.8-50.225M94.04 117.44c-38.982 3.608-79.598-2.07-85.284-32.65-2.824-15.058 4.05-31.04 13.118-40.957v-5.309C5.524 52.917-3.359 71.122 1.77 92.615c6.54 27.584 41.396 43.197 94.611 37.998 21.071-2.035 48.645-8.842 67.781-19.403V96.204c-17.39 10.416-46.154 19.02-70.122 21.237"/><path d="M161.04 31.608h-10.219v45.715c0 5.37 2.564 10.039 10.219 10.78M39.302 48.315h-10.22v29.859c0 5.37 2.565 10.04 10.22 10.78M39.302 32.997h-10.22v9.725h10.22zM100.542 88.473c-8.286 0-11.779-5.78-11.779-11.485V37.332h10.108v10.983h7.654v8.224h-7.654v19.837c0 2.334 1.115 3.613 3.529 3.613h4.125v8.484zM127.41 56.04c-3.455 0-6.131 1.797-7.246 4.223-.669 1.463-.891 2.574-1.002 4.372h15.645c-.223-4.39-2.195-8.595-7.397-8.595m-8.248 15.522c0 5.205 3.268 9.037 8.991 9.037 4.497 0 6.726-1.259 9.327-3.83l6.244 6.018c-4.014 3.963-8.213 6.371-15.645 6.371-9.699 0-18.99-5.315-18.99-20.8 0-13.244 8.101-20.727 18.766-20.727 10.814 0 17.02 8.761 17.02 20.264v3.668h-25.714M66.838 56.539c2.973 0 4.2 1.464 4.2 3.853v28.136h10.145V60.355c0-5.723-3.048-12.04-11.929-12.04H48.333v40.213H58.44v-31.99M177.614 34.714q2.704 0 5.279 1.395 2.576 1.38 4.013 3.97 1.437 2.576 1.437 5.379 0 2.775-1.423 5.336a9.96 9.96 0 0 1-3.97 3.984q-2.546 1.41-5.336 1.409-2.789 0-5.35-1.409a10.1 10.1 0 0 1-3.97-3.984q-1.423-2.561-1.423-5.336 0-2.804 1.437-5.38 1.452-2.59 4.027-3.97 2.576-1.394 5.279-1.394m0 1.779q-2.263 0-4.411 1.167-2.135 1.152-3.344 3.315-1.209 2.15-1.209 4.483 0 2.319 1.181 4.453a8.53 8.53 0 0 0 3.329 3.316q2.135 1.18 4.454 1.181 2.32 0 4.454-1.181a8.45 8.45 0 0 0 3.316-3.315q1.18-2.135 1.181-4.454 0-2.334-1.21-4.483a8.15 8.15 0 0 0-3.344-3.315q-2.148-1.167-4.397-1.167m-4.71 14.898V39.837h3.97q2.035 0 2.946.327a2.8 2.8 0 0 1 1.451 1.11q.541.797.541 1.693 0 1.267-.911 2.206-.896.939-2.39 1.053.612.256.982.612.697.683 1.707 2.29l1.409 2.263h-2.277l-1.024-1.821q-1.21-2.148-1.95-2.69-.512-.398-1.494-.398h-1.096v4.91zm1.864-6.503h2.263q1.622 0 2.205-.483.598-.485.598-1.281 0-.513-.285-.91a1.67 1.67 0 0 0-.796-.613q-.499-.2-1.864-.199h-2.121z"/></g><defs><clipPath id="a"><path fill="#fff" d="M0 .446h200v131.328H0z"/></clipPath></defs></svg>