<svg xmlns="http://www.w3.org/2000/svg" width="200" height="257" fill="none"><g clip-path="url(#a)"><path fill="#000" d="M54.248.904A7.26 7.26 0 0 0 50 2.67a9.67 9.67 0 0 0-10.98 1.046c-5.164-.72-6.536.719-8.105 2.287-1.111 0-8.497-1.176-11.83 3.857-8.497-.98-11.177 5.032-8.105 10.588a7.254 7.254 0 0 0 .523 10.392c-1.438 2.876-.588 5.948 2.81 9.673a8.104 8.104 0 0 0 3.987 9.02c-.588 5.49 5.033 8.693 6.537 9.804.653 3.202 2.026 6.536 8.43 7.843 1.047 4.771 4.903 5.555 8.628 6.536a40.2 40.2 0 0 0-22.81 39.608l-1.83 3.268A39.21 39.21 0 0 0 1.983 161a39.2 39.2 0 0 0 8.344 14.414 106.5 106.5 0 0 0 5.425 17.647 42.88 42.88 0 0 0 26.731 34.249 91.5 91.5 0 0 0 25.622 14.575A42.75 42.75 0 0 0 100 255.806a42.73 42.73 0 0 0 31.503-14.117 91.5 91.5 0 0 0 25.621-14.576 42.87 42.87 0 0 0 26.732-34.248 106.5 106.5 0 0 0 5.425-17.647 39.22 39.22 0 0 0 9.952-30.992 39.2 39.2 0 0 0-16.88-27.832l-1.83-3.267a40.2 40.2 0 0 0-22.811-39.608c3.726-1.046 7.582-1.83 8.628-6.536 6.536-1.634 7.778-4.64 8.431-7.843 1.634-1.111 7.255-4.314 6.536-9.804a8.106 8.106 0 0 0 3.987-9.02c3.399-3.725 4.248-6.536 2.81-9.673a7.253 7.253 0 0 0 .523-10.392c3.072-5.556.392-11.569-8.104-10.589-3.334-5.032-10.719-3.856-11.83-3.856-1.307-1.568-2.941-3.006-8.105-2.287A9.67 9.67 0 0 0 150 2.669c-4.248-3.595-7.582-.719-10.784.392-5.556-1.83-6.536.654-9.543 1.634-6.078-1.242-7.908 1.503-10.784 4.445h-3.399A38.56 38.56 0 0 0 100 31.035 39.22 39.22 0 0 0 84.77 9.075h-3.399c-2.875-2.942-4.705-5.687-10.784-4.445-2.745-.915-3.987-3.399-9.804-1.569A21.7 21.7 0 0 0 54.248.904"/><path fill="#75A928" d="M36.078 24.565C60.261 37.048 74.314 47.114 81.83 55.74c-3.922 15.817-24.51 16.536-32.026 16.078a5.75 5.75 0 0 0 3.268-2.875c-1.896-1.373-8.562 0-13.072-2.81a4.31 4.31 0 0 0 3.464-2.027 38.8 38.8 0 0 1-11.96-4.967 6.86 6.86 0 0 0 4.901-1.046 47.3 47.3 0 0 1-11.503-7.059c2.091 0 4.314 0 4.902-.784a46.3 46.3 0 0 1-9.216-7.451 7.06 7.06 0 0 0 4.771-.458 36.2 36.2 0 0 1-7.843-8.627 5.95 5.95 0 0 0 5.49 0c-.915-2.092-4.901-3.334-7.19-8.235 2.223 0 4.576.457 5.034 0a23.6 23.6 0 0 0-4.576-9.085c3.95.13 7.903-.023 11.83-.458l-3.006-3.006a23.27 23.27 0 0 1 13.072 1.241c1.569-1.241 0-2.745-1.896-4.379a43.4 43.4 0 0 1 10.785 2.745c1.764-1.568-1.111-3.137-2.484-4.705a27.5 27.5 0 0 1 11.307 4.444c1.896-1.83 0-3.333-1.11-4.902a27.3 27.3 0 0 1 9.476 6.078c.85-1.11 2.222-1.96.588-4.705a24.05 24.05 0 0 1 7.648 6.536c2.026-1.308 1.176-3.072 1.176-4.706a72 72 0 0 1 8.04 8.692c.587-.392 1.045-1.699 1.437-3.79 8.17 7.908 19.608 27.843 2.941 35.751a156.1 156.1 0 0 0-50-26.667M164.445 24.565c-24.183 12.287-38.301 22.549-45.948 31.176 3.921 15.817 24.51 16.536 32.091 16.078a5.68 5.68 0 0 1-3.333-2.875c1.895-1.373 8.627 0 13.072-2.81a4.31 4.31 0 0 1-3.464-2.027 37.5 37.5 0 0 0 11.961-4.967 6.54 6.54 0 0 1-4.837-1.046 47 47 0 0 0 11.438-7.059c-2.026 0-4.248 0-4.902-.784a46.4 46.4 0 0 0 9.216-7.451 7.2 7.2 0 0 1-4.772-.458 36.2 36.2 0 0 0 7.844-8.627 5.95 5.95 0 0 1-5.491 0c1.111-2.157 5.164-3.399 7.647-8.3-1.681.35-3.416.35-5.098 0a23.6 23.6 0 0 1 4.576-9.086c-3.97.157-7.945.026-11.896-.392l2.941-3.006a23.27 23.27 0 0 0-13.072 1.241c-1.568-1.241 0-2.745 1.896-4.379a45 45 0 0 0-10.785 2.745c-1.764-1.568 1.112-3.137 2.484-4.705a28 28 0 0 0-11.307 4.444c-1.895-1.83 0-3.333 1.176-4.902a27.7 27.7 0 0 0-9.542 6.078c-.85-1.11-2.157-1.96-.588-4.705a24.4 24.4 0 0 0-7.582 6.536c-2.026-1.308-1.242-3.072-1.242-4.706a84 84 0 0 0-8.235 8.627 7.7 7.7 0 0 1-1.438-3.79c-8.105 7.908-19.608 27.842-2.941 35.75a156.9 156.9 0 0 1 50-26.666z"/><path fill="#BC1142" d="M129.608 185.61a27.973 27.973 0 0 1-29.02 26.732 27.91 27.91 0 0 1-28.954-26.732 27.91 27.91 0 0 1 28.954-26.666 27.905 27.905 0 0 1 29.02 26.666M83.79 109.27c12.027 7.909 14.184 25.687 4.837 39.87S62.027 168.355 50 160.447c-12.026-7.843-14.183-25.686-4.837-39.804s26.667-19.216 38.628-11.373M116.209 107.832c-11.961 7.909-14.118 25.752-4.837 39.87s26.667 19.215 38.693 11.307c12.026-7.843 14.183-25.686 4.837-39.804s-26.667-19.216-38.693-11.373M23.79 122.146c13.073-3.464 4.38 53.66-6.143 48.954a30.85 30.85 0 0 1 6.144-48.954M173.66 121.427c-13.072-3.464-4.379 53.661 6.144 48.955a30.85 30.85 0 0 0 9.158-26.012 30.848 30.848 0 0 0-15.302-22.943M129.608 78.879c22.353-3.726 40.98 9.542 40.261 33.79-.784 9.347-48.496-32.68-40.261-33.79M67.778 78.16c-22.419-3.726-41.046 9.542-40.262 33.79.589 9.347 48.497-32.353 40.262-33.79M100 72.538c-13.072-.326-26.144 9.935-26.144 15.883 0 7.19 10.523 14.575 26.144 14.771s26.144-5.882 26.144-13.072S111.569 72.734 100 72.865zM100.719 220.839c11.634-.523 27.255 3.725 27.32 9.346s-14.183 17.909-28.104 17.647c-13.922-.261-28.497-11.764-28.301-16.078-.261-6.275 17.516-11.242 29.085-10.915M57.712 187.179c8.301 10 12.092 27.582 5.164 32.68-6.536 3.921-22.484 2.287-33.726-13.922-7.647-13.595-6.536-27.451-1.307-31.569 7.974-4.64 20.327 1.896 29.87 12.811M142.091 184.173c-9.019 10.522-13.986 29.673-7.451 35.686 6.536 4.836 23.072 4.117 35.491-13.072 9.019-11.569 5.947-30.85.849-36.013-7.647-5.752-18.692 1.83-28.889 13.399"/></g><defs><clipPath id="a"><path fill="#fff" d="M0 .434h200v256.21H0z"/></clipPath></defs></svg>