<svg xmlns="http://www.w3.org/2000/svg" width="200" height="29" fill="none"><g fill="#3071B7" clip-path="url(#a)"><path d="M8.29 13.87h2.32c1.72 0 2.76-1.04 2.76-2.76 0-1.73-.69-2.67-3-2.67H.5V2.18h11.24c5.62 0 9.52 3.06 9.52 8.48a8.5 8.5 0 0 1-3.94 7.2c.04.15.59.8 1.13 1.78l4.49 8.28h-8.49l-3.99-8.04H8.29v8.1H.49V13.91M37.49 1.73c8.28 0 13.86 5.68 13.86 13.17s-5.58 13.52-13.86 13.52S23.63 22.6 23.63 14.9 29.2 1.73 37.49 1.73m0 19.78c3.4 0 5.87-2.66 5.87-6.6 0-3.95-2.47-6.27-5.87-6.27s-5.82 2.51-5.82 6.26 2.41 6.61 5.82 6.61M67.33 1.73c6.65 0 9.9 3.46 9.9 3.46l-3 5.96a10 10 0 0 0-6.26-2.46c-4.5 0-6.66 2.9-6.66 6.26s2.22 6.41 6.66 6.41a8.8 8.8 0 0 0 6.5-3l3.46 5.91s-3.45 4.15-10.65 4.15c-8.44 0-14.01-5.58-14.01-13.32S58.99 1.73 67.33 1.73M80.25 2.18h7.79v9.47h1.92l4.54-9.47h8.34L96.42 14.6c1.58 3.25 5.77 11.2 6.81 13.36h-8.58l-4.69-9.96h-1.92v9.96h-7.8zM111.96 8.4h-7.7V2.17h23.14v6.21h-7.65v19.58h-7.79zM130.11 11.85h17.7v6.21h-9.9v3.7h9.9v6.21h-17.7m0-25.8h17.7V8.4h-17.7M163.84 1.73c6.66 0 9.87 3.46 9.87 3.46l-3.01 5.96a10 10 0 0 0-6.26-2.46c-4.5 0-6.66 2.9-6.66 6.26s2.22 6.41 6.66 6.41a8.8 8.8 0 0 0 6.5-3l3.56 5.86s-3.46 4.15-10.66 4.15c-8.38 0-14-5.58-14-13.32s5.72-13.32 14-13.32M176.42 2.18h7.8v9.71h7.44V2.18h7.8v25.8h-7.75V18.5h-7.5v9.47h-7.79z"/></g><defs><clipPath id="a"><path fill="#fff" d="M0 .8h200v28H0z"/></clipPath></defs></svg>