<svg xmlns="http://www.w3.org/2000/svg" width="200" height="56" fill="none"><path fill="#266BAD" d="M199.848 31.454H.398v23.343h199.45z"/><path fill="#fff" stroke="#fff" stroke-miterlimit="10" d="M61.26 50.195V36.09h1.578v14.105zM65.846 45.608h1.578v.247c-.023.63.043 1.262.197 1.874.095.353.325.655.642.839a2.9 2.9 0 0 0 1.035.246l2.91.099a8.6 8.6 0 0 0 1.874-.148c.371-.062.715-.234.987-.493.139-.188.224-.41.246-.642q.105-.612.099-1.233 0-1.578-.296-1.972a1.73 1.73 0 0 0-1.233-.493l-4.34-.346q-1.973-.147-2.713-.986-.74-.84-.74-2.762a6.5 6.5 0 0 1 .247-1.973c.15-.473.422-.899.79-1.233.34-.282.748-.469 1.183-.542a16 16 0 0 1 2.713-.148h.493a15.2 15.2 0 0 1 3.058.197 3.45 3.45 0 0 1 1.48.74c.288.264.493.607.591.986.143.514.21 1.045.197 1.578v.6910000000000001h-1.578v-.345a6 6 0 0 0-.099-1.184 1.23 1.23 0 0 0-.296-.592c-.299-.23-.659-.367-1.035-.395a22 22 0 0 0-2.86-.098q-2.171 0-2.763.493-.591.493-.542 1.973a2.8 2.8 0 0 0 .345 1.677 1.92 1.92 0 0 0 1.43.542l4.44.346q1.725.147 2.465.986.74.838.69 2.712a9 9 0 0 1-.197 2.072 2.61 2.61 0 0 1-1.972 1.973c-1.04.199-2.099.282-3.157.246h-.69c-.925.032-1.851-.034-2.762-.197a3.06 3.06 0 0 1-1.332-.69 2.66 2.66 0 0 1-.838-1.381 6.5 6.5 0 0 1-.247-1.973zM79.557 40.726q0-2.713 1.134-3.748 1.135-1.036 3.946-1.085h1.775q2.614 0 3.847.887a3.16 3.16 0 0 1 1.233 2.762v.592h-1.627v-.148q0-1.479-.74-2.022t-2.811-.592H85.08a9.5 9.5 0 0 0-2.072.148c-.398.095-.77.28-1.085.543a1.88 1.88 0 0 0-.592.937 9 9 0 0 0-.148 2.12v3.995a9 9 0 0 0 .148 2.121c.099.365.305.692.592.937.315.262.687.448 1.085.543.7.129 1.41.178 2.121.148h1.184a8.8 8.8 0 0 0 1.923-.148c.363-.087.7-.255.987-.494.267-.233.457-.543.542-.887a8 8 0 0 0 .148-1.924v-.838h-3.896v-1.43h5.524v2.367q0 2.712-1.135 3.748-1.134 1.035-3.945 1.085h-1.776q-2.86 0-3.945-1.085-1.086-1.085-1.135-3.748zM93.86 45.609v-1.332h5.277v1.331zM101.751 46.052h1.578v.938a1.63 1.63 0 0 0 .641 1.528q.642.395 2.91.395h.493a5.8 5.8 0 0 0 1.727-.197 2.07 2.07 0 0 0 .887-.642c.149-.186.251-.406.296-.64q.115-.661.099-1.332v-.641q.024-.791-.049-1.579a2.9 2.9 0 0 0-.247-.838 1.73 1.73 0 0 0-.986-.838 6.7 6.7 0 0 0-2.17-.247 7.6 7.6 0 0 0-2.614.296 1.135 1.135 0 0 0-.74 1.035h-1.578v-7.2h9.321v1.48h-7.694v4.044a2.22 2.22 0 0 1 1.085-.839 8.6 8.6 0 0 1 2.466-.246c.776-.03 1.553.02 2.318.148a3.012 3.012 0 0 1 2.22 2.022c.228.868.328 1.766.295 2.663.025.862-.057 1.723-.246 2.565-.133.508-.407.97-.789 1.331a3.45 3.45 0 0 1-1.431.79c-.841.188-1.702.271-2.564.246a12.8 12.8 0 0 1-3.058-.247 2.76 2.76 0 0 1-1.381-.838 3.1 3.1 0 0 1-.542-1.036 4 4 0 0 1-.198-1.282zM119.457 50.343q-2.565 0-3.601-1.085-1.035-1.085-1.035-3.748v-4.784q0-2.713 1.035-3.748 1.036-1.036 3.601-1.085h1.331q2.565 0 3.601 1.085 1.035 1.084 1.035 3.748v4.784q0 2.712-1.035 3.748-1.036 1.035-3.601 1.085zm.049-1.43h1.233a6.4 6.4 0 0 0 1.627-.148c.318-.088.608-.258.839-.493a1.9 1.9 0 0 0 .444-.888 9 9 0 0 0 .148-1.874v-4.735a9 9 0 0 0-.148-1.874 1.9 1.9 0 0 0-.444-.888 2 2 0 0 0-.888-.493 6.2 6.2 0 0 0-1.578-.148h-1.233a6.5 6.5 0 0 0-1.628.148c-.32.083-.61.254-.838.493a1.9 1.9 0 0 0-.493.888 8.7 8.7 0 0 0-.148 1.923v4.735c-.022.645.028 1.29.148 1.924.082.335.252.641.493.888.228.239.518.41.838.493a6.5 6.5 0 0 0 1.628.049ZM128.038 45.51h1.579v1.282q0 1.233.641 1.677.64.444 3.057.444c.776.034 1.553-.015 2.319-.148.373-.078.706-.288.937-.592.109-.198.176-.416.197-.641q.066-.788.049-1.578 0-1.332-.542-1.726a3.26 3.26 0 0 0-1.924-.444h-2.17v-1.48h1.973q1.382 0 1.923-.493.543-.494.494-2.022a6 6 0 0 0-.099-1.43 1.14 1.14 0 0 0-.395-.592 2 2 0 0 0-.986-.296l-2.121-.099q-2.022 0-2.614.395a1.63 1.63 0 0 0-.592 1.48v1.282h-1.578v-1.283q0-1.824 1.085-2.564t3.65-.79l2.466.1c.441.024.875.124 1.282.295.495.215.898.6 1.135 1.085.268.725.386 1.497.345 2.269q0 1.677-.444 2.367a2.32 2.32 0 0 1-1.529.888 2.66 2.66 0 0 1 1.726.937c.384.673.556 1.447.493 2.22a12 12 0 0 1-.098 1.578 4 4 0 0 1-.296 1.085 2.27 2.27 0 0 1-1.381 1.282c-1.093.29-2.225.406-3.354.345a16 16 0 0 1-3.008-.197c-.476-.1-.918-.32-1.283-.641a2.9 2.9 0 0 1-.789-1.184 5.1 5.1 0 0 1-.246-1.726z"/><path fill="#fff" d="M44.836 41.417H9.523v2.436h35.313zM190.674 41.417h-35.313v2.436h35.313z"/><path fill="#3071B7" d="M8.29 13.55h2.318c1.726 0 2.762-1.035 2.762-2.761s-.69-2.664-3.008-2.664H.497V1.862h11.244c5.623 0 9.52 3.058 9.52 8.483a8.48 8.48 0 0 1-3.946 7.2c.049.148.591.79 1.134 1.776l4.488 8.286h-8.483l-3.995-8.04H8.29v8.089H.498V13.6M37.487 1.418c8.286 0 13.86 5.672 13.86 13.168 0 7.497-5.574 13.514-13.86 13.514s-13.859-5.82-13.859-13.514 5.573-13.168 13.86-13.168m0 19.777c3.403 0 5.87-2.663 5.87-6.609 0-3.945-2.467-6.263-5.87-6.263s-5.82 2.515-5.82 6.263c0 3.749 2.417 6.61 5.82 6.61M67.326 1.418c6.658 0 9.913 3.452 9.913 3.452l-3.009 5.968a9.86 9.86 0 0 0-6.263-2.466c-4.488 0-6.658 2.91-6.658 6.264s2.219 6.411 6.658 6.411a8.83 8.83 0 0 0 6.51-3.008l3.452 5.918S74.477 28.1 67.276 28.1c-8.433 0-14.006-5.573-14.006-13.316S58.99 1.418 67.326 1.418M80.248 1.862h7.792v9.47h1.923l4.538-9.47h8.335L96.424 14.29c1.579 3.256 5.771 11.196 6.807 13.366h-8.582l-4.686-9.963H88.04v9.963h-7.792zM111.96 8.076h-7.694V1.862h23.131v6.214h-7.644v19.58h-7.793zM130.11 11.529h17.705v6.214h-9.913v3.699h9.913v6.214H130.11m0-25.794h17.705v6.214H130.11M163.844 1.418c6.659 0 9.864 3.452 9.864 3.452l-3.008 5.968a9.86 9.86 0 0 0-6.264-2.466c-4.488 0-6.658 2.91-6.658 6.264s2.22 6.411 6.658 6.411a8.83 8.83 0 0 0 6.51-3.008l3.551 5.869s-3.452 4.143-10.653 4.143c-8.384 0-14.006-5.573-14.006-13.317s5.721-13.316 14.006-13.316M176.421 1.862h7.792v9.716h7.448V1.862h7.792v25.794h-7.743v-9.47h-7.497v9.47h-7.792z"/></svg>