<svg xmlns="http://www.w3.org/2000/svg" width="200" height="114" fill="none"><g clip-path="url(#a)"><path fill="#007DC3" d="M143.047.507H56.953C25.884.507.805 25.587.805 56.656c0 31.068 25.08 56.148 56.148 56.148h86.094c31.069 0 56.148-25.08 56.148-56.148 0-30.695-25.079-56.149-56.148-56.149m14.224 19.09c5.989-.374 12.727 4.867 12.727 12.728s-5.989 13.1-12.727 13.1c-7.112 0-12.727-5.614-12.727-12.726-.374-7.86 4.866-13.476 12.727-13.101m-82.35 82.351c-7.861 0-15.722 0-23.583-.374-4.117 0-7.86-1.497-11.604-2.994Q30.19 94.65 22.89 86.227c-3.37-3.743-5.615-7.86-7.487-12.727-1.871-5.24-2.994-11.23-2.994-17.219 0-5.615 1.123-10.855 3.368-16.096 2.995-7.486 7.861-13.85 13.85-19.09 4.118-3.369 8.61-5.615 13.85-7.486 3.744-1.123 7.487-1.872 11.604-1.872 1.498 0 1.872 0 1.872 1.872v25.08c0 1.122-.374 1.496-1.497 1.496-3.744.375-7.113 1.498-9.733 3.744-4.492 3.368-7.112 7.86-6.737 13.475 0 4.866 2.245 8.61 5.614 11.604 3.743 3.37 7.861 4.866 12.727 4.866h17.968c1.497 0 1.497 0 1.497 1.498v25.079c-.374 1.123-.749 1.497-1.872 1.497m38.18-60.265V101.2q0 1.123-1.123 1.123H87.647c-1.871 0-1.871 0-1.871-1.872v-58.02c0-1.497-.375-1.871-1.498-1.871H66.685q-1.123 0-1.123-1.123V13.234c0-1.123.375-1.497 1.498-1.497h63.634c1.498 0 1.498.374 1.498 1.497v25.828c0 .75-.375 1.123-1.123 1.498H113.85c-.749-.375-.749 0-.749 1.123m73.741 17.967c-1.122 13.85-7.486 24.331-18.341 32.566-2.995 2.246-6.738 4.118-10.107 5.615-5.989 2.246-11.978 4.117-18.342 4.117h-16.096c-1.497 0-1.497-.374-1.497-1.871v-25.08c0-1.123.375-1.123 1.123-1.123h13.476c6.363 0 12.352-1.871 17.219-5.989 2.62-2.246 4.491-5.24 5.24-8.61.374-1.496.374-1.496 1.872-1.496h23.582c1.871-.375 2.246 0 1.871 1.871"/></g><defs><clipPath id="a"><path fill="#fff" d="M0 .4h200v112.82H0z"/></clipPath></defs></svg>