<svg xmlns="http://www.w3.org/2000/svg" width="200" height="113" fill="none"><g clip-path="url(#a)"><path fill="#007DC3" d="M143.05.2h-86.1A56.07 56.07 0 0 0 .8 56.33a56.07 56.07 0 0 0 56.15 56.15h86.1a56.07 56.07 0 0 0 56.14-56.15C199.2 25.64 174.13.2 143.06.2m14.22 19.08c5.99-.37 12.73 4.87 12.73 12.73s-6 13.1-12.73 13.1a12.6 12.6 0 0 1-12.73-12.72c-.37-7.87 4.87-13.48 12.73-13.1m-82.35 82.36c-7.86 0-15.72 0-23.58-.38-4.12 0-7.86-1.5-11.6-3a45 45 0 0 1-16.85-12.35c-3.37-3.74-5.62-7.86-7.49-12.72a52 52 0 0 1-3-17.22c0-5.62 1.13-10.86 3.38-16.1 3-7.48 7.86-13.85 13.85-19.09 4.11-3.37 8.6-5.61 13.85-7.48a40 40 0 0 1 11.6-1.88c1.5 0 1.87 0 1.87 1.88v25.07c0 1.13-.37 1.5-1.5 1.5-3.74.38-7.1 1.5-9.73 3.75-4.49 3.36-7.1 7.86-6.73 13.47 0 4.87 2.24 8.61 5.61 11.6a18 18 0 0 0 12.73 4.87h17.96c1.5 0 1.5 0 1.5 1.5v25.08c-.37 1.12-.75 1.5-1.87 1.5m38.18-60.27v59.52q0 1.12-1.12 1.12H87.65c-1.87 0-1.87 0-1.87-1.87V42.12c0-1.5-.38-1.87-1.5-1.87H66.69q-1.13 0-1.13-1.13v-26.2c0-1.12.38-1.5 1.5-1.5h63.63c1.5 0 1.5.38 1.5 1.5v25.83c0 .75-.37 1.12-1.12 1.5h-17.22c-.75-.38-.75 0-.75 1.12m73.74 17.97c-1.12 13.85-7.48 24.33-18.34 32.56-3 2.25-6.74 4.12-10.1 5.62-6 2.24-11.98 4.12-18.35 4.12h-16.1c-1.5 0-1.5-.38-1.5-1.88V74.68c0-1.12.38-1.12 1.13-1.12h13.48c6.36 0 12.35-1.87 17.22-5.99a16 16 0 0 0 5.24-8.6c.37-1.5.37-1.5 1.87-1.5h23.58c1.87-.38 2.25 0 1.87 1.87"/></g><defs><clipPath id="a"><path fill="#fff" d="M0 .09h200V112.9H0z"/></clipPath></defs></svg>