<svg xmlns="http://www.w3.org/2000/svg" width="200" height="154" fill="none"><path fill="#008DD2" d="M184.822 1.336H14.97C6.724 1.336.04 9.679.04 19.97v114.3c0 10.291 6.684 18.635 14.93 18.635h169.852c8.246 0 14.93-8.344 14.93-18.635v-114.3c0-10.292-6.684-18.635-14.93-18.635"/><path fill="#FEFEFE" fill-rule="evenodd" d="M22.38 76.129v.572c.002 5.832.06 9.162 1.034 15.055 1.757 10.64 5.225 18.763 12.333 26.364l5.02 4.655 8.022 4.877c4.328 1.944 7.239 2.926 12.322 3.802 2.527.434 9.399 1.129 11.79.571v-17.199h-3.493c-13.295 0-22.485-10.551-25.063-22.503-3.312-15.359-2.404-37.77 12.176-47.086 5.91-3.776 9.795-3.775 16.38-3.775V23.726c-11.71 0-21.63 2.266-30.208 8.22-3.175 2.205-4.322 3.334-6.944 5.955-2.407 2.406-3.823 4.28-5.627 7.272-5.295 8.782-7.743 19.677-7.743 30.956" clip-rule="evenodd"/><path fill="#FEFEFE" d="M83.335 23.725h84.322c.695 0 1.246.189 1.709.604.465.415.812 1.058 1.102 1.925.29.907.493 2.078.609 3.55.087 1.473.145 3.247.145 5.287 0 3.851-.29 6.683-.928 8.534-.609 1.85-1.536 2.756-2.783 2.756h-10.956c-.407 9.667-.609 17.9-.638 24.734s.087 12.537.377 17.144c.289 4.606.695 8.27 1.188 10.95.522 2.719 1.131 4.758 1.826 6.156.725 1.397 1.507 2.303 2.377 2.719s1.768.604 2.667.604c1.362 0 2.84-.303 4.464-.869 1.623-.604 2.637-.906 3.102-.906.347 0 .637.151.898.378.232.264.464.754.667 1.434.203.718.348 1.699.463 3.021.116 1.284.174 2.983.174 5.136 0 3.247-.145 5.702-.434 7.401-.261 1.7-.667 2.833-1.131 3.436a7.6 7.6 0 0 1-1.913 1.586c-.783.491-1.739.944-2.898 1.322-1.131.415-2.407.755-3.856 1.02-1.42.264-2.957.377-4.522.377-3.159 0-6.058-.377-8.667-1.17-2.58-.756-4.899-2.266-6.899-4.531-2-2.229-3.681-5.363-5.014-9.29-1.334-3.965-2.319-9.101-3.015-15.445-.667-6.344-.985-14.009-.956-23.071.028-9.026.434-19.75 1.217-32.136H83.306z"/><path fill="#FEFEFE" d="M114.468 51.198c.111 10.828-.056 20.351-.473 28.572q-.667 12.33-1.751 21.402c-.723 6.048-1.557 11.154-2.474 15.354-.917 4.165-1.613 6.952-2.057 8.365-.473 1.449-.834 2.498-1.14 3.259s-.584 1.304-.862 1.702c-.25.399-.639.725-1.14 1.014-.472.29-1.084.507-1.834.689-.723.18-1.64.289-2.752.361a61 61 0 0 1-3.947.109c-2.28 0-4.114-.073-5.448-.217-1.363-.145-2.419-.362-3.198-.616-.75-.289-1.278-.652-1.528-1.087-.278-.434-.417-.905-.417-1.484q0-1.032.5-2.824c.306-1.16.75-2.68 1.334-4.6.557-1.919 1.335-5.069 2.308-9.415s1.835-9.415 2.585-15.173c.778-5.758 1.362-12.385 1.806-19.88.417-7.46.64-15.97.64-25.53z"/></svg>