<svg xmlns="http://www.w3.org/2000/svg" width="200" height="154" fill="none"><path fill="#008DD2" d="M184.82 1.34H14.97C6.72 1.34.04 9.68.04 19.97v114.3c0 10.3 6.68 18.64 14.93 18.64h169.85c8.25 0 14.93-8.35 14.93-18.64V19.97c0-10.3-6.68-18.63-14.93-18.63"/><path fill="#FEFEFE" fill-rule="evenodd" d="M22.38 76.13v.57c0 5.83.06 9.16 1.03 15.06 1.76 10.64 5.23 18.76 12.34 26.36l5.02 4.66 8.02 4.87a45 45 0 0 0 12.32 3.8c2.53.44 9.4 1.13 11.8.58v-17.2h-3.5c-13.3 0-22.49-10.55-25.06-22.5-3.32-15.37-2.41-37.78 12.17-47.1 5.91-3.77 9.8-3.77 16.38-3.77V23.73c-11.7 0-21.63 2.26-30.2 8.22a41 41 0 0 0-6.95 5.95 34 34 0 0 0-5.63 7.27c-5.3 8.79-7.74 19.68-7.74 30.96" clip-rule="evenodd"/><path fill="#FEFEFE" d="M83.33 23.72h84.33q1.03 0 1.7.6.7.63 1.1 1.93.45 1.36.62 3.55.13 2.22.14 5.3.02 5.75-.93 8.53-.9 2.76-2.78 2.75h-10.95q-.6 14.5-.64 24.73a264 264 0 0 0 .37 17.15q.45 6.91 1.2 10.95a25 25 0 0 0 1.82 6.16q1.07 2.1 2.38 2.71 1.3.62 2.66.6 2.03-.01 4.47-.86 2.41-.9 3.1-.9.51.01.9.37.35.4.66 1.43c.2.72.35 1.7.47 3.03q.17 1.91.17 5.13 0 4.86-.43 7.4c-.26 1.7-.67 2.84-1.13 3.44a8 8 0 0 1-1.92 1.59q-1.17.74-2.9 1.32-1.69.62-3.85 1.02c-1.42.26-2.96.37-4.52.37q-4.75.01-8.67-1.17a14.7 14.7 0 0 1-6.9-4.53c-2-2.23-3.68-5.36-5.01-9.29-1.34-3.96-2.32-9.1-3.02-15.44-.67-6.35-.98-14.01-.96-23.07q.05-13.55 1.22-32.14H83.31z"/><path fill="#FEFEFE" d="M114.47 51.2q.15 16.24-.47 28.57a337 337 0 0 1-1.76 21.4 165 165 0 0 1-2.47 15.36q-1.38 6.24-2.06 8.36c-.47 1.45-.83 2.5-1.14 3.26s-.58 1.3-.86 1.7q-.38.6-1.14 1.02-.7.42-1.83.69-1.09.25-2.76.36-1.65.1-3.94.1-3.44 0-5.45-.21a16 16 0 0 1-3.2-.62q-1.14-.43-1.53-1.09-.4-.63-.41-1.48 0-1.03.5-2.82.46-1.73 1.33-4.6a175 175 0 0 0 4.9-24.6 270 270 0 0 0 1.8-19.87q.64-11.19.64-25.53z"/></svg>