<svg xmlns="http://www.w3.org/2000/svg" width="200" height="202" fill="none"><g clip-path="url(#a)"><path fill="#003A4A" d="M100 200.97c55.23 0 100-44.78 100-100H0c0 55.22 44.77 100 100 100"/><path fill="#8DC21F" d="M100 .97C44.77.97 0 45.74 0 100.97h200c0-55.23-44.77-100-100-100"/><path fill="#fff" d="M65.1 64.65a14.3 14.3 0 0 0-14.4 14.68c0 7.11 5.6 14.04 14.16 14.04 7.17 0 10.8-4.21 11.86-5.87l-5.98-2.16a8.3 8.3 0 0 1-5.44 2.22c-4.77 0-7.76-3.69-7.76-5.96h21.21s.23-.99.23-2.54c0-6.28-4.31-14.4-13.88-14.4m-7.31 11.6c0-1.8 2.93-5.72 7.5-5.72 4.1 0 7.51 3.93 7.51 5.72zM96.41 64.65a14.3 14.3 0 0 0-14.4 14.68c0 7.11 5.6 14.04 14.16 14.04 7.17 0 10.8-4.21 11.86-5.87l-5.98-2.16a8.3 8.3 0 0 1-5.44 2.22c-4.77 0-7.76-3.69-7.76-5.96h21.22s.22-.99.22-2.54c0-6.28-4.31-14.4-13.88-14.4m-7.31 11.6c0-1.8 2.93-5.72 7.5-5.72 4.1 0 7.51 3.93 7.51 5.72zM127.72 64.65a14.3 14.3 0 0 0-14.41 14.68c0 7.11 5.6 14.04 14.17 14.04 7.17 0 10.8-4.21 11.86-5.87l-5.99-2.16c-.05.07-.82.75-1.5 1.13a8 8 0 0 1-3.94 1.08c-4.77 0-7.75-3.68-7.75-5.95h21.21s.22-.99.22-2.54c0-6.28-4.3-14.4-13.87-14.4m-7.31 11.6c0-1.8 2.93-5.72 7.5-5.72 4.1 0 7.51 3.93 7.51 5.72zM31.51 72.98c0-1.75 1.47-3.18 5.28-3.18 2.46 0 5.29.8 7.87 2.27l.08-.2 1.73-4.76c-2.57-1.63-6.14-2.46-9.64-2.46-7.89 0-11.7 3.93-11.7 8.65 0 10.31 16.15 6.74 16.15 11.94 0 1.71-1.55 2.98-5.36 2.98-3.33 0-7.04-1.21-9.52-3.14l-.18.5-1.65 4.58c2.46 1.9 6.9 3.22 11.31 3.22 7.93 0 11.78-3.97 11.78-8.61 0-10.2-16.15-6.67-16.15-11.79M168.78 67.96q-1.63-1.32-3.65-2.17a15 15 0 0 0-5.78-1.13c-2.06 0-4.1.39-5.88 1.19q-2.7 1.18-4.66 3.12a14 14 0 0 0-3.09 4.51 13.5 13.5 0 0 0-1.1 5.38q0 2.6 1.01 5.19a14.9 14.9 0 0 0 7.54 8.03q2.73 1.3 6.19 1.31a14 14 0 0 0 9.42-3.4v3.4h6.12V59.65l-6.12 1.65zm-1.61 14.25a8.6 8.6 0 0 1-4.46 4.64q-1.54.69-3.36.69a8 8 0 0 1-6.1-2.65A8.8 8.8 0 0 1 150.9 79a8.86 8.86 0 0 1 2.31-5.87 8.3 8.3 0 0 1 6.13-2.62 8.1 8.1 0 0 1 6.13 2.62 8.7 8.7 0 0 1 2.31 5.83 9 9 0 0 1-.63 3.25M168.4 122.32a14 14 0 0 0-3.14-4.55 14.77 14.77 0 0 0-10.47-4.21c-2.06 0-4.1.38-5.88 1.18a15 15 0 0 0-4.66 3.12 14 14 0 0 0-3.08 4.5 13.5 13.5 0 0 0-1.1 5.38q0 2.62 1 5.2a14.8 14.8 0 0 0 7.54 8.03q2.73 1.3 6.19 1.3 3.45 0 6.2-1.33a15 15 0 0 0 4.64-3.4 15 15 0 0 0 2.88-4.62q1-2.56 1.01-5.08 0-2.91-1.13-5.52m-5.79 8.78a8.6 8.6 0 0 1-4.46 4.64q-1.54.68-3.36.69a8 8 0 0 1-6.1-2.65 8.5 8.5 0 0 1-1.74-9.04 8.3 8.3 0 0 1 7.84-5.35 8.1 8.1 0 0 1 6.13 2.63 8.7 8.7 0 0 1 2.31 5.83 9 9 0 0 1-.62 3.25M62.13 110.28l-6.07 1.6v21.6c0 5.6 3.52 8.8 9.67 8.8v-6.06c-3.6 0-3.6-1.21-3.6-2.75V123h3.6v-6.06h-3.6zM87.08 129.89c0 3.9-2.35 6.32-6.13 6.32s-6.13-2.59-6.13-6.29v-16.3l-6.07 1.61v14.69c0 7.05 5.25 12.36 12.2 12.36 6.96 0 12.2-5.1 12.2-12.39v-16.26l-6.07 1.62zM36.88 121.88c0-1.74 1.47-3.17 5.28-3.17 2.46 0 5.29.8 7.87 2.27l.07-.21 1.74-4.76c-2.58-1.62-6.15-2.46-9.64-2.46-7.9 0-11.7 3.93-11.7 8.65 0 10.32 16.14 6.75 16.14 11.95 0 1.7-1.54 2.97-5.35 2.97-3.33 0-7.04-1.2-9.52-3.13l-.18.49-1.65 4.59c2.46 1.9 6.9 3.21 11.3 3.21 7.94 0 11.8-3.97 11.8-8.61 0-10.2-16.16-6.66-16.16-11.78M137.04 116.91h-6.05v25.37h6.04zM137.04 108.52h-6.05v5.03h6.04zM120.34 116.86q-1.63-1.31-3.65-2.17a15 15 0 0 0-5.78-1.12c-2.07 0-4.1.38-5.89 1.18q-2.69 1.18-4.66 3.13a14 14 0 0 0-3.08 4.5 13.5 13.5 0 0 0-1.1 5.38q0 2.6 1 5.2a14.8 14.8 0 0 0 7.54 8.03q2.75 1.3 6.19 1.3a14 14 0 0 0 9.43-3.4v3.4h6.11v-33.72l-6.11 1.64zm-1.62 14.25a8.6 8.6 0 0 1-4.46 4.64q-1.54.69-3.35.69a8 8 0 0 1-6.11-2.65 8.5 8.5 0 0 1-1.74-9.03q.61-1.53 1.71-2.73a8.3 8.3 0 0 1 6.13-2.62 8.1 8.1 0 0 1 6.13 2.62 8.7 8.7 0 0 1 2.31 5.83q0 1.69-.62 3.25"/></g><defs><clipPath id="a"><path fill="#fff" d="M0 .04h200v201H0z"/></clipPath></defs></svg>