<svg xmlns="http://www.w3.org/2000/svg" width="200" height="202" fill="none"><g clip-path="url(#a)"><path fill="#003A4A" d="M100 201.41c55.228 0 100-44.773 100-100H0c0 55.227 44.773 100 100 100"/><path fill="#8DC21F" d="M100 1.41c-55.227 0-100 44.772-100 100h200c0-55.228-44.772-100-100-100"/><path fill="#fff" d="M65.102 65.097c-7.315 0-14.41 5.578-14.41 14.68 0 7.11 5.61 14.04 14.17 14.04 7.17 0 10.798-4.215 11.86-5.87L70.74 85.78c-.055.075-.828.755-1.513 1.137-1.125.63-2.542 1.08-3.93 1.08-4.77 0-7.752-3.685-7.752-5.957h21.21s.222-.988.222-2.533c0-6.28-4.307-14.412-13.872-14.412zM57.787 76.69c0-1.79 2.935-5.715 7.508-5.715 4.092 0 7.507 3.932 7.507 5.715H57.787M96.412 65.097c-7.315 0-14.41 5.578-14.41 14.68 0 7.11 5.61 14.04 14.17 14.04 7.17 0 10.798-4.215 11.86-5.87l-5.982-2.167c-.053.075-.828.755-1.513 1.137-1.125.63-2.542 1.08-3.93 1.08-4.77 0-7.752-3.685-7.752-5.957h21.21s.222-.988.222-2.533c0-6.28-4.307-14.412-13.872-14.412zM89.097 76.69c0-1.79 2.935-5.715 7.508-5.715 4.092 0 7.507 3.932 7.507 5.715H89.097M127.72 65.097c-7.315 0-14.412 5.578-14.412 14.68 0 7.11 5.61 14.04 14.17 14.04 7.17 0 10.797-4.215 11.86-5.87l-5.983-2.167c-.052.075-.827.755-1.512 1.137-1.123.63-2.543 1.08-3.93 1.08-4.77 0-7.753-3.685-7.753-5.957h21.21s.223-.988.223-2.533c0-6.28-4.308-14.412-13.873-14.412zm-7.315 11.593c0-1.79 2.935-5.715 7.508-5.715 4.092 0 7.507 3.932 7.507 5.715h-15.015M31.515 73.422c0-1.747 1.47-3.175 5.275-3.175 2.462 0 5.29.8 7.87 2.27l.077-.21 1.738-4.757c-2.578-1.625-6.148-2.458-9.64-2.458-7.895 0-11.705 3.93-11.705 8.65 0 10.315 16.147 6.745 16.147 11.945 0 1.705-1.547 2.975-5.357 2.975-3.33 0-7.038-1.21-9.515-3.135l-.18.493-1.653 4.587c2.458 1.903 6.905 3.213 11.308 3.213 7.935 0 11.785-3.968 11.785-8.61 0-10.198-16.15-6.665-16.15-11.783zM168.78 68.397a15.3 15.3 0 0 0-3.645-2.162q-2.685-1.13-5.782-1.13c-2.065 0-4.098.387-5.885 1.185a15.3 15.3 0 0 0-4.66 3.125 14.2 14.2 0 0 0-3.083 4.507 13.5 13.5 0 0 0-1.105 5.375c0 1.743.335 3.468 1.013 5.195a14.9 14.9 0 0 0 2.907 4.66c1.26 1.373 2.808 2.5 4.63 3.375 1.823.868 3.888 1.305 6.185 1.305q3.447 0 6.21-1.332a15.7 15.7 0 0 0 3.22-2.073v3.405h6.11V60.09l-6.11 1.65v6.657zm-1.612 14.253a8.6 8.6 0 0 1-4.46 4.637q-1.541.691-3.355.693-1.909 0-3.445-.718a8.3 8.3 0 0 1-2.66-1.927 8.8 8.8 0 0 1-1.738-2.728 8.5 8.5 0 0 1-.605-3.165c0-1.097.203-2.112.605-3.142a8.9 8.9 0 0 1 1.708-2.73 8.3 8.3 0 0 1 2.665-1.9c1.037-.483 2.195-.718 3.467-.718s2.423.235 3.465.718a8.15 8.15 0 0 1 2.66 1.9 8.7 8.7 0 0 1 1.708 2.71 8.2 8.2 0 0 1 .607 3.117c0 1.13-.207 2.21-.627 3.253zM168.393 122.76a14.3 14.3 0 0 0-3.131-4.553c-1.335-1.295-2.892-2.32-4.685-3.082q-2.685-1.13-5.782-1.13c-2.065 0-4.097.387-5.885 1.185a15.3 15.3 0 0 0-4.66 3.125 14.2 14.2 0 0 0-3.083 4.505 13.5 13.5 0 0 0-1.105 5.375c0 1.742.335 3.467 1.013 5.195a14.9 14.9 0 0 0 2.907 4.66c1.26 1.372 2.808 2.5 4.631 3.375 1.822.867 3.887 1.305 6.185 1.305q3.445 0 6.21-1.333c1.835-.89 3.374-2.02 4.629-3.397a15.2 15.2 0 0 0 2.883-4.633c.67-1.707 1.01-3.4 1.01-5.077a13.7 13.7 0 0 0-1.132-5.52zm-5.783 8.78a8.58 8.58 0 0 1-4.46 4.637q-1.541.692-3.355.693-1.909 0-3.445-.718a8.3 8.3 0 0 1-2.66-1.927 8.8 8.8 0 0 1-1.738-2.728 8.5 8.5 0 0 1-.604-3.165c0-1.1.202-2.112.604-3.142a8.8 8.8 0 0 1 1.708-2.73 8.3 8.3 0 0 1 2.665-1.9c1.037-.483 2.195-.718 3.467-.718s2.423.235 3.466.718a8.1 8.1 0 0 1 2.659 1.9 8.7 8.7 0 0 1 1.708 2.71c.41 1.01.607 2.052.607 3.117a8.6 8.6 0 0 1-.627 3.253zM62.125 110.717l-6.065 1.613v21.585c0 5.602 3.523 8.815 9.665 8.815v-6.065c-3.6 0-3.6-1.213-3.6-2.748v-10.485h3.6v-6.065h-3.6v-6.6499999999999995M87.082 130.33c0 3.9-2.35 6.325-6.132 6.325-3.783 0-6.133-2.588-6.133-6.293v-16.307l-6.065 1.622v14.685c0 7.045 5.245 12.36 12.2 12.36s12.2-5.095 12.2-12.39V114.07l-6.067 1.617v14.645zM36.882 122.325c0-1.748 1.47-3.175 5.275-3.175 2.463 0 5.29.8 7.87 2.27l.078-.21 1.737-4.758c-2.577-1.625-6.147-2.457-9.64-2.457-7.897 0-11.705 3.93-11.705 8.65 0 10.315 16.148 6.745 16.148 11.945 0 1.705-1.548 2.975-5.358 2.975-3.33 0-7.037-1.21-9.515-3.135l-.18.492-1.652 4.588c2.457 1.902 6.905 3.212 11.307 3.212 7.935 0 11.785-3.967 11.785-8.61 0-10.197-16.15-6.665-16.15-11.782zM137.035 117.352h-6.05v25.368h6.05zM137.035 108.959h-6.05v5.035h6.05zM120.335 117.3a15.3 15.3 0 0 0-3.645-2.163q-2.685-1.129-5.783-1.13c-2.065 0-4.097.388-5.885 1.185a15.3 15.3 0 0 0-4.66 3.125 14.3 14.3 0 0 0-3.082 4.508 13.5 13.5 0 0 0-1.105 5.375c0 1.742.335 3.467 1.012 5.195a14.9 14.9 0 0 0 2.908 4.66c1.26 1.372 2.807 2.5 4.63 3.375 1.822.867 3.887 1.305 6.185 1.305q3.446 0 6.21-1.333a15.8 15.8 0 0 0 3.22-2.072v3.405h6.11V109.01l-6.11 1.637v6.658zm-1.613 14.252a8.57 8.57 0 0 1-4.46 4.638q-1.54.691-3.355.692-1.908 0-3.445-.717a8.4 8.4 0 0 1-2.662-1.928 8.8 8.8 0 0 1-1.738-2.727 8.5 8.5 0 0 1-.605-3.165c0-1.098.203-2.113.605-3.143a8.9 8.9 0 0 1 1.708-2.73 8.3 8.3 0 0 1 2.665-1.9c1.037-.482 2.195-.717 3.467-.717s2.423.235 3.465.717a8.2 8.2 0 0 1 2.66 1.9 8.7 8.7 0 0 1 1.708 2.71c.41 1.01.607 2.053.607 3.118 0 1.13-.207 2.21-.627 3.252z"/></g><defs><clipPath id="a"><path fill="#fff" d="M0 .479h200v201H0z"/></clipPath></defs></svg>