<svg xmlns="http://www.w3.org/2000/svg" width="200" height="235" fill="none"><g clip-path="url(#a)"><path fill="#7BB43C" d="M135.6 12.94c-1.62.4-3.23.6-4.45 1.2-9.08 4.25-17.35 9.7-24.2 17.16-.41.4-1.02.8-1.62 1.21-.2.2-.4 0-1.41 0 .2-1 0-1.82.4-2.62 6.05-12.51 16.95-18.97 29.86-23 8.27-2.63 16.95-3.43 25.42-5.05 10.9-2.02 21.6-.6 32.29-1.21 1 0 2.22.2 4.24.6-1.42 1.01-2.02 1.82-2.83 2.02-11.1 3.64-20.18 10.9-29.26 17.96-5.65 4.44-11.3 9.08-16.94 13.72a25 25 0 0 1-15.74 5.45c-7.27.2-14.53-.2-20.99-4.24-2.62-1.61-2.82-2.42-.4-4.44 7.67-6.65 15.53-12.91 25.02-16.95.4-.2.6-.4 1-.6-.2-.4-.2-.8-.4-1.21M86.76 32.71c0 3.43-.6 4.04-3.63 3.23-10.09-2.82-17.55-9.08-21.79-18.97a29 29 0 0 1-2.02-5.85c-.4-1.81.4-2.82 2.42-2.22 11.1 3.64 20.79 8.88 24.22 21.19.6 1 .8 2.02.8 2.62"/><path fill="#F5A423" d="M.4 126.14c4.44-2.22 7.47-5.66 10.1-9.69 4.23-6.86 3.62-13.92.8-21.19-.6-1.4-.4-3.43.2-4.84 1.21-2.82 3.03-5.45 4.64-8.07 1.41-2.62 3.43-4.04 6.66-4.64 4.24-.8 8.27-1.82 11.7-4.64 4.85-4.04 6.86-9.69 7.87-15.54.4-2.02.81-3.43 2.63-4.44 3.43-1.81 6.65-4.03 10.08-5.85 1.22-.6 3.03-.4 4.44-.2 2.42.4 4.64 1.61 7.07 2.02 8.27 1.4 15.13-1.62 20.38-7.87 2.62-3.23 5.44-5.45 9.88-4.44.4.2 1.01 0 1.62 0 6.05-.6 10.9.8 15.13 5.85 6.46 7.47 14.93 8.68 23.8 5.25 3.44-1.42 6.47-1.42 9.5 1 .4.4 1 .4 1.4.61 4.85 2.42 8.68 5.04 9.49 11.5.8 6.46 4.64 11.5 10.7 14.53 2.82 1.41 6.05 2.02 9.27 2.62a6.5 6.5 0 0 1 4.85 3.43c1.61 3.03 3.83 5.65 5.04 8.68.8 1.82.8 4.44.2 6.25-3.23 9.69-2.62 18.57 5.45 25.43 4.44 3.83 6.05 8.07 5.45 13.52q-.3 2.1 0 4.23c.2 2.63-.6 4.85-2.83 6.46-1.61 1.21-2.82 2.62-4.23 4.04-6.46 6.86-6.86 14.73-4.04 23.2 1.01 3.03 1.61 5.65-.6 8.47-1.01 1.22-1.62 2.63-2.22 4.04-2.02 4.04-4.65 6.46-9.69 7.26-10.09 1.62-16.14 8.68-17.75 18.57-.61 4.03-2.83 5.85-5.45 7.67a55 55 0 0 1-7.47 4.23c-1.41.6-3.43.6-4.84 0-11.1-4.23-19.57-2.62-27.44 6.26-2.22 2.42-4.44 3.83-7.67 3.43-1-.2-2.02 0-3.03 0-6.66.6-11.9-.6-16.74-6.26-6.26-7.26-14.94-7.26-23.41-4.03-2.62 1-4.84 1.2-7.26-.6-2.63-2.03-5.86-3.24-8.68-5.25-1.21-.81-2.02-2.63-2.62-4.04-1.01-3.03-1.62-6.25-2.83-9.08-3.23-7.26-9.48-10.29-16.95-11.5-2.62-.4-4.64-1.21-6.05-3.63-1.82-3.03-4.04-5.85-5.25-9.08-.8-1.62-.6-4.24 0-5.85 4.44-11.9.81-19.58-5.85-25.83-1.61-1.62-3.63-2.83-5.24-4.04-.2-6.05-.2-12.1-.2-17.95m91.81 3.83c.8 0 2.02 0 2.62-.4 2.83-1.62 5.25-1.82 7.87.2.6.4 2.02-.2 3.03-.6 1.21-.41 2.02-1.22 3.23-1.82.2.4.4.6.6 1-.8.61-1.4 1.22-2.22 1.82-1.2.8-2.42 1.62-1.2 3.03.6.6 2.62.2 3.63-.4 4.23-3.24 8.27-6.46 12.5-9.9 1.42-1.2 2.83-1.6 4.45-.2 2.01 1.62 3.43 3.64 2.62 6.46-.6 2.22-2.22 2.63-4.24 2.42h-4.64c-3.63-.4-7.06.2-9.89 3.03-.6.6-1.81.8-2.62 1.41-.6.4-1.82 1.01-1.82 1.62 0 .8.6 2.01 1.21 2.62 3.03 2.22 6.26 4.24 9.29 6.46 13.31 9.68 26.63 19.37 39.95 29.25 1.81 1.21 3.02 1.01 4.44-.4 3.22-3.23 6.86-6.25 9.28-9.89 5.65-8.07 7.06-16.95 3.23-26.23-1.01-2.62-2.83-3.43-5.85-3.43-11.9.2-23.61.4-35.52.4-1 0-2.01-.8-3.02-1 0-.4.2-.6.2-1.01h38.53c3.23 0 4.65-1.21 5.66-4.04 4.84-14.12-1.21-27.64-12.92-35.71-.8-.6-2.82-.6-3.63 0-12.71 9.08-25.02 18.36-37.73 27.64-2.22 1.62-4.84 3.23-7.26 4.84-.2-.2-.4-.6-.61-.8 1.21-1.01 2.22-2.22 3.63-3.23 13.32-9.69 26.64-19.57 39.95-29.06 1.82-1.4 2.42-2.62 1.62-4.44-1.21-3.02-2.42-6.05-4.24-8.67-5.85-9.28-14.53-13.72-25.42-14.33-2.83-.2-4.44.6-5.25 3.84-1 4.64-2.82 9.08-4.24 13.72-1.81 5.85-3.63 11.7-5.85 17.35-1.41 3.83-1.41 8.88-6.86 9.68-.2 0-.4.4-.4.6-.8 2.83-1.62 5.46-2.62 8.28-.2.8-1.01 1.62-1.42 2.42-.6-.6-1.81-1-2.02-1.61a103 103 0 0 1-3.02-11.3c-.2-1 .4-2.42 1.2-3.23 2.23-2.02 4.65-1.81 7.68.4 1.4 1.01 2.82 2.43 3.83-.4 2.22-6.86 4.44-13.52 6.66-20.38 1.81-5.65 3.83-11.3 5.85-16.75.8-2.01 0-3.02-1.21-4.03a41 41 0 0 0-6.46-3.63C101.3 55.5 89.4 57.33 79.7 65c-.8.6-1.41 2.42-1.21 3.43.6 2.82 2.02 5.24 2.83 8.07 3.22 9.28 6.25 18.76 9.28 28.05.4 1.2.2 2.82.2 4.23-.2 0-.6 0-.8.2-.41-.6-.82-1.2-1.02-2.01-3.43-10.7-6.86-21.4-10.29-32.29-2.42-7.87-2.42-7.87-10.7-7.06h-1.6c-11.1 1.21-22.2 10.9-25.03 21.8-.4 2.01.2 3.22 1.62 4.23 15.13 11.1 30.06 22.2 45.2 33.3 1.4.4 2.82 1.8 4.03 3.02-2.02-1.01-4.03-2.02-5.85-3.23-14.93-10.9-29.86-21.59-44.8-32.49-1.4-1-2.42-1-3.63 0-.8.61-1.61 1.42-2.42 2.02-10.49 8.68-14.73 22-10.9 33.5 1.02 3.02 2.63 4.23 5.86 4.23 11.5-.2 22.8 0 34.3 0 1.41 0 2.62.2 4.04.2 0 .41 0 .81.2 1.22-1.42.2-3.03.8-4.44.8-11.5 0-22.8-.2-34.3-.4-2.83 0-4.44 1-4.85 3.83-.4 2.22-.8 4.24-1.2 6.46-2.02 13.32 4.23 22.8 13.71 29.66 1.42 1.01 2.83 1.01 4.24-.2 4.44-3.23 8.88-6.46 13.12-9.69 10.9-8.07 21.79-16.34 32.89-24.2 4.03-3.03 4.23-2.83 1.81-7.27 1.82-.8 3.63-1.82 2.22-4.44m-3.03 33.3c.4.2 1.01.2 1.42.4-.2 1.2-.4 2.42-.81 3.63-1.82 5.85-3.63 11.9-5.65 17.75-2.02 5.65-4.24 11.1-6.05 16.75-.4 1.01.2 2.62 1 3.23 10.7 8.07 23.82 11.5 37.13 2.82 4.84-3.22 4.84-3.22 2.63-8.47-.2-.4-.2-.8-.4-1.21-2.83-8.68-5.66-17.15-8.28-25.83-1.41-4.84-2.83-9.68-4.04-14.32.2 0 .6-.2.81-.2 1.01 2.42 2.22 4.64 3.03 7.06 4.03 11.7 7.87 23.6 11.5 35.5.8 2.63 2.02 3.84 4.64 3.84 13.32-.2 25.83-7.87 30.27-20.98 1-2.83.4-4.84-2.02-6.66a3560 3560 0 0 0-47.22-35.11c-1.61-1.21-2.62-1.21-4.03.2a6.2 6.2 0 0 1-8.28.4c-1.61-1.4-2.62-1.2-4.23.2a462 462 0 0 1-19.78 14.94 1335 1335 0 0 1-27.24 19.57c-1.81 1.21-2.42 2.83-1.4 4.64 1.8 3.63 3.42 7.67 5.84 10.9 5.85 7.87 13.92 11.3 23.61 11.7 2.83.2 4.64-1 5.65-4.03 2.42-8.48 5.45-16.75 8.27-25.03 1.01-4.03 2.22-7.86 3.63-11.7"/><path fill="#F5A423" d="M106.13 124.92c1.42-4.23 2.63-8.47 4.04-12.7.8-2.23 1.81-4.04 4.64-3.64 2.42.4 5.45 3.43 5.45 5.45 0 .6-.2 1.41-.6 1.61-4.24 3.43-8.68 6.66-13.12 9.89-.2 0-.2-.4-.4-.6M92.21 125.73c-1.61-1.2-3.23-2.62-5.04-3.83-2.22-1.62-4.64-3.43-6.86-5.05-1.42-1-2.63-2.22-1.62-4.23 1.01-2.43 3.03-3.84 5.65-4.24 2.22-.4 2.83 1.41 3.43 3.03.6 1.81 1.01 3.63 1.82 5.44 1 2.83 2.22 5.45 3.23 8.07-.2.2-.4.61-.6.81M110.98 137.23c4.84 2.42 9.88 2.22 15.13 1.42.8-.2 2.02.6 2.62 1.4 1.62 1.82 1.21 4.65-.8 7.07-1.82 2.02-3.64 1.82-5.65.2-2.83-2.02-5.86-4.03-8.48-6.05-1.2-.8-2.02-2.02-3.02-3.03 0-.4 0-.6.2-1M91.8 145.5c-1.8 5.45-3.42 10.5-5.24 15.34-.4 1-1.81 1.82-2.82 2.02-2.22.4-5.05-1.82-6.26-4.44-1-2.42.8-3.43 2.42-4.64 3.23-2.42 6.46-5.05 9.69-7.67.4-.2 1.2-.2 2.22-.6M106.74 144.7c4.44 3.23 8.88 6.46 13.12 10.09 1.81 1.61.6 5.04-2.22 6.86-2.63 1.61-4.85 1.2-6.06-1.21-.8-1.62-1-3.43-1.81-5.05l-3.64-9.68c.2-.6.4-.81.6-1.01M99.48 148.53c1 3.23 2.01 6.06 3.02 8.88.4 1.21.8 2.42 1.01 3.63.8 3.23-.2 5.05-3.03 6.06-2.42.8-6.05-.81-6.86-3.03a2.8 2.8 0 0 1 0-1.82c1.42-4.23 3.03-8.47 4.44-12.5 0-.41.4-.41 1.42-1.22M87.57 133.4c-4.03-3.43-8.47-2.22-12.91-2.02-3.84.2-5.45-.8-6.06-3.43-.4-1.81 1.62-5.45 3.64-6.25.6-.2 1.61-.4 2.01 0 4.04 2.62 8.07 5.44 12.11 8.27.8.6 1 1.61 1.61 2.62-.2.2-.2.6-.4.8M86.56 138.65c-.6.8-1 1.6-1.81 2.22-3.23 2.42-6.66 4.63-9.9 7.06-1.8 1.2-3.22 1.4-4.83 0-2.02-1.82-3.23-3.84-2.02-6.66.8-2.22 2.62-2.22 4.84-2.22 4.44.2 8.88-.2 13.72-.4"/></g><defs><clipPath id="a"><path fill="#fff" d="M0 .59h200v233.9H0z"/></clipPath></defs></svg>