<svg xmlns="http://www.w3.org/2000/svg" width="200" height="235" fill="none"><g clip-path="url(#a)"><path fill="#7BB43C" d="M135.593 12.897c-1.614.404-3.228.605-4.439 1.21-9.08 4.238-17.352 9.686-24.213 17.152-.403.403-1.009.807-1.614 1.21-.202.202-.404 0-1.412 0 .201-1.009 0-1.816.403-2.623 6.053-12.51 16.949-18.967 29.863-23.002 8.273-2.623 16.949-3.43 25.424-5.044 10.896-2.018 21.59-.606 32.284-1.211 1.009 0 2.219.202 4.237.605-1.412 1.01-2.018 1.816-2.825 2.018-11.098 3.632-20.177 10.896-29.257 17.958-5.65 4.439-11.3 9.08-16.949 13.72q-6.961 5.45-15.739 5.449c-7.264.201-14.528-.202-20.985-4.238-2.623-1.614-2.824-2.42-.403-4.439 7.667-6.658 15.537-12.913 25.02-16.949.404-.202.605-.403 1.009-.605-.202-.404-.202-.807-.404-1.21M86.764 32.672c0 3.43-.606 4.035-3.632 3.228-10.09-2.825-17.555-9.08-21.792-18.967-.807-1.816-1.614-3.834-2.018-5.851-.404-1.816.404-2.825 2.421-2.22 11.098 3.632 20.783 8.878 24.214 21.187.605 1.008.807 2.017.807 2.623"/><path fill="#F5A423" d="M.403 126.094c4.44-2.22 7.466-5.65 10.09-9.686 4.236-6.86 3.631-13.922.806-21.186-.605-1.412-.403-3.43.202-4.843 1.21-2.824 3.027-5.448 4.64-8.07 1.413-2.624 3.431-4.036 6.66-4.641 4.237-.808 8.272-1.816 11.702-4.641 4.843-4.036 6.86-9.685 7.87-15.537.403-2.018.807-3.43 2.623-4.44 3.43-1.815 6.658-4.035 10.088-5.85 1.211-.606 3.027-.404 4.44-.202 2.42.403 4.64 1.614 7.062 2.017 8.273 1.413 15.133-1.614 20.38-7.869 2.622-3.228 5.447-5.448 9.886-4.439.404.202 1.009 0 1.614 0 6.054-.605 10.896.807 15.133 5.852 6.457 7.465 14.932 8.676 23.81 5.246 3.43-1.413 6.457-1.413 9.483 1.009.404.403 1.009.403 1.413.605 4.842 2.421 8.676 5.044 9.483 11.501s4.641 11.501 10.694 14.528c2.825 1.413 6.054 2.018 9.282 2.623 2.22.404 3.632 1.413 4.843 3.43 1.614 3.027 3.833 5.65 5.044 8.677.807 1.816.807 4.439.202 6.255-3.229 9.685-2.623 18.563 5.448 25.423 4.439 3.834 6.053 8.071 5.448 13.519a14.9 14.9 0 0 0 0 4.238c.202 2.623-.606 4.842-2.825 6.457-1.614 1.21-2.825 2.623-4.237 4.035-6.457 6.86-6.861 14.73-4.036 23.204 1.009 3.027 1.614 5.65-.605 8.475-1.009 1.21-1.614 2.623-2.22 4.035-2.018 4.036-4.641 6.457-9.685 7.264-10.089 1.614-16.142 8.677-17.756 18.564-.606 4.035-2.825 5.851-5.448 7.667-2.421 1.614-4.843 3.027-7.466 4.237-1.412.606-3.43.606-4.843 0-11.097-4.237-19.572-2.623-27.441 6.255-2.22 2.422-4.439 3.834-7.667 3.431-1.009-.202-2.018 0-3.027 0-6.659.605-11.905-.606-16.747-6.255-6.255-7.264-14.932-7.264-23.406-4.036-2.623 1.009-4.843 1.211-7.264-.605-2.623-2.018-5.852-3.229-8.677-5.246-1.21-.808-2.017-2.624-2.623-4.036-1.009-3.027-1.614-6.255-2.825-9.08-3.228-7.264-9.483-10.29-16.949-11.501-2.623-.404-4.64-1.211-6.053-3.632-1.816-3.027-4.036-5.852-5.246-9.08-.807-1.614-.606-4.237 0-5.851 4.439-11.905.807-19.573-5.852-25.828-1.614-1.614-3.632-2.825-5.246-4.035-.202-6.054-.202-12.107-.202-17.958m91.808 3.833c.807 0 2.018 0 2.623-.403 2.825-1.614 5.246-1.816 7.87.202.605.403 2.017-.202 3.026-.606 1.211-.403 2.018-1.21 3.229-1.816.201.404.403.606.605 1.009-.807.606-1.412 1.211-2.22 1.816-1.21.807-2.421 1.614-1.21 3.027.605.605 2.623.202 3.632-.404 4.237-3.228 8.273-6.457 12.51-9.887 1.412-1.21 2.825-1.614 4.439-.201 2.018 1.614 3.43 3.631 2.623 6.456-.605 2.22-2.22 2.623-4.237 2.422h-4.641c-3.632-.404-7.062.201-9.887 3.026-.606.606-1.816.807-2.623 1.413-.606.403-1.816 1.009-1.816 1.614 0 .807.605 2.018 1.21 2.623 3.027 2.22 6.255 4.237 9.282 6.457 13.317 9.685 26.634 19.37 39.952 29.257 1.816 1.211 3.026 1.009 4.439-.403 3.228-3.229 6.86-6.255 9.281-9.887 5.65-8.071 7.063-16.949 3.229-26.231-1.009-2.623-2.825-3.43-5.852-3.43-11.904.202-23.607.403-35.512.403-1.009 0-2.018-.807-3.027-1.009 0-.403.202-.605.202-1.008h38.539c3.228 0 4.641-1.211 5.65-4.036 4.842-14.124-1.211-27.643-12.914-35.714-.807-.606-2.825-.606-3.632 0-12.712 9.08-25.02 18.361-37.732 27.643-2.219 1.614-4.842 3.228-7.264 4.843-.202-.202-.403-.606-.605-.808 1.211-1.008 2.219-2.219 3.632-3.228 13.317-9.685 26.634-19.572 39.951-29.056 1.816-1.412 2.422-2.623 1.615-4.439-1.211-3.026-2.422-6.053-4.238-8.676-5.851-9.282-14.527-13.72-25.423-14.326-2.825-.202-4.439.605-5.247 3.834-1.008 4.64-2.824 9.08-4.237 13.72-1.816 5.852-3.632 11.703-5.851 17.353-1.413 3.834-1.413 8.878-6.861 9.685-.201 0-.403.404-.403.606-.807 2.825-1.614 5.448-2.623 8.272-.202.808-1.009 1.615-1.413 2.422-.605-.606-1.816-1.009-2.017-1.614-1.211-3.632-2.22-7.466-3.027-11.3-.202-1.009.403-2.421 1.21-3.228 2.22-2.018 4.641-1.816 7.668.403 1.412 1.009 2.825 2.422 3.834-.403 2.219-6.86 4.439-13.52 6.658-20.38 1.816-5.65 3.834-11.3 5.852-16.747.807-2.018 0-3.027-1.211-4.035-2.018-1.413-4.237-2.624-6.457-3.633-11.501-6.053-23.406-4.237-33.09 3.43-.808.606-1.413 2.422-1.212 3.43.606 2.826 2.018 5.247 2.825 8.072 3.229 9.282 6.255 18.765 9.282 28.047.404 1.21.202 2.825.202 4.237-.202 0-.606 0-.807.202-.404-.606-.807-1.211-1.01-2.018-3.43-10.694-6.86-21.388-10.29-32.284-2.421-7.87-2.421-7.87-10.694-7.062h-1.614c-11.098 1.21-22.195 10.896-25.02 21.792-.404 2.017.202 3.228 1.614 4.237 15.133 11.097 30.065 22.195 45.198 33.293 1.412.403 2.825 1.816 4.035 3.026-2.017-1.008-4.035-2.017-5.851-3.228-14.932-10.896-29.863-21.59-44.794-32.486-1.413-1.009-2.422-1.009-3.632 0-.807.606-1.615 1.413-2.422 2.018-10.492 8.676-14.73 21.993-10.896 33.495 1.01 3.026 2.624 4.237 5.852 4.237 11.501-.202 22.8 0 34.302 0 1.412 0 2.623.202 4.035.202 0 .403 0 .807.202 1.21-1.412.202-3.027.807-4.439.807-11.501 0-22.8-.201-34.302-.403-2.825 0-4.439 1.009-4.842 3.834-.404 2.219-.808 4.237-1.211 6.457-2.018 13.317 4.237 22.8 13.72 29.661 1.413 1.008 2.825 1.008 4.238-.202 4.439-3.229 8.878-6.457 13.115-9.685 10.896-8.072 21.792-16.344 32.89-24.214 4.035-3.026 4.237-2.824 1.816-7.263 1.816-.808 3.632-1.816 2.22-4.44m-3.026 33.293c.403.202 1.008.202 1.412.404-.202 1.211-.403 2.421-.807 3.632-1.816 5.851-3.632 11.905-5.65 17.756-2.018 5.65-4.237 11.098-6.053 16.748-.404 1.008.202 2.623 1.009 3.228 10.694 8.071 23.809 11.501 37.127 2.825 4.842-3.229 4.842-3.229 2.623-8.475-.202-.403-.202-.807-.404-1.21-2.825-8.677-5.65-17.151-8.273-25.828-1.412-4.842-2.825-9.685-4.035-14.326.202 0 .605-.202.807-.202 1.009 2.422 2.219 4.641 3.026 7.063 4.036 11.703 7.87 23.607 11.502 35.512.807 2.623 2.017 3.834 4.641 3.834 13.317-.202 25.827-7.869 30.266-20.985 1.009-2.825.403-4.842-2.018-6.658a3560 3560 0 0 0-47.215-35.109c-1.615-1.211-2.623-1.211-4.036.201-2.219 2.22-5.851 2.422-8.273.404-1.614-1.412-2.623-1.211-4.237.202-6.457 5.246-13.115 10.089-19.774 14.931-9.08 6.659-17.958 13.116-27.24 19.572-1.816 1.211-2.421 2.825-1.412 4.641 1.816 3.632 3.43 7.668 5.851 10.896 5.852 7.869 13.923 11.3 23.608 11.703 2.825.202 4.641-1.009 5.65-4.035 2.421-8.475 5.448-16.748 8.273-25.021 1.008-4.035 2.22-7.869 3.632-11.703"/><path fill="#F5A423" d="M106.134 124.883c1.412-4.238 2.623-8.475 4.035-12.712.807-2.22 1.816-4.036 4.641-3.632 2.421.403 5.448 3.43 5.448 5.448 0 .605-.202 1.412-.605 1.614-4.238 3.43-8.677 6.659-13.116 9.887-.201 0-.201-.404-.403-.605M92.212 125.69c-1.615-1.211-3.229-2.623-5.045-3.834-2.22-1.614-4.64-3.43-6.86-5.044-1.413-1.009-2.623-2.22-1.614-4.237 1.008-2.422 3.026-3.834 5.65-4.238 2.219-.403 2.824 1.413 3.43 3.027.605 1.816 1.008 3.632 1.816 5.448 1.008 2.825 2.219 5.448 3.228 8.071-.202.202-.404.605-.605.807M110.977 137.191c4.842 2.422 9.887 2.22 15.133 1.413.807-.202 2.018.605 2.623 1.412 1.614 1.816 1.211 4.641-.807 7.062-1.816 2.018-3.632 1.816-5.65.202-2.825-2.018-5.851-4.035-8.474-6.053-1.211-.807-2.018-2.018-3.027-3.027 0-.403 0-.605.202-1.009M91.808 145.464c-1.816 5.448-3.43 10.492-5.246 15.335-.404 1.009-1.816 1.816-2.825 2.018-2.22.403-5.044-1.816-6.255-4.439-1.009-2.422.807-3.431 2.421-4.641 3.229-2.422 6.457-5.045 9.685-7.668.404-.202 1.211-.202 2.22-.605M106.739 144.657c4.439 3.228 8.878 6.457 13.116 10.089 1.816 1.614.605 5.044-2.22 6.86-2.623 1.614-4.843 1.211-6.053-1.211-.807-1.614-1.009-3.43-1.816-5.044l-3.632-9.685c.202-.606.403-.807.605-1.009M99.476 148.491c1.008 3.228 2.017 6.053 3.026 8.878.404 1.211.807 2.421 1.009 3.632.807 3.228-.202 5.044-3.027 6.053-2.42.807-6.053-.807-6.86-3.027a2.8 2.8 0 0 1 0-1.816c1.412-4.237 3.027-8.474 4.44-12.51 0-.403.403-.403 1.412-1.21M87.57 133.357c-4.035-3.43-8.474-2.219-12.913-2.017-3.834.201-5.448-.807-6.053-3.431-.404-1.816 1.614-5.448 3.632-6.255.605-.201 1.614-.403 2.017 0 4.036 2.623 8.071 5.448 12.107 8.273.807.606 1.009 1.614 1.614 2.623-.202.202-.202.606-.403.807M86.562 138.604c-.606.807-1.01 1.614-1.816 2.219-3.229 2.421-6.66 4.641-9.887 7.062-1.816 1.211-3.229 1.413-4.843 0-2.018-1.816-3.229-3.834-2.018-6.658.807-2.22 2.623-2.22 4.843-2.22 4.439.202 8.878-.202 13.72-.403"/></g><defs><clipPath id="a"><path fill="#fff" d="M0 .545h200v233.898H0z"/></clipPath></defs></svg>