<svg xmlns="http://www.w3.org/2000/svg" width="200" height="132" fill="none"><g fill="#77B900" clip-path="url(#a)"><path d="M20.899 56.266s18.09-26.01 53.889-28.646v-9.423C34.756 21.587.498 54.38.498 54.38s19.63 55.405 74.29 60.305v-10.177c-40.417-4.9-53.89-48.242-53.89-48.242"/><path d="M74.787 84.908v9.046C44.378 88.676 35.91 57.77 35.91 57.77s14.627-15.828 38.877-18.469V49.48c-12.702-1.505-22.71 10.177-22.71 10.177s5.389 19.6 22.71 25.25"/><path d="M74.788.86v17.337c1.154 0 2.31 0 3.464-.377 45.421-1.506 74.675 36.182 74.675 36.182s-33.873 40.706-69.286 40.706c-3.08 0-6.159-.377-9.238-.755v10.932c2.31.377 5.004.377 7.698.377 32.719 0 56.584-16.586 79.679-35.805 3.849 3.014 19.246 10.173 22.711 13.568-21.941 18.092-72.751 32.415-101.62 32.415-2.694 0-5.389 0-8.083-.377v15.073h124.715V.86z"/><path d="M74.788 39.303V27.62h3.464c32.718-1.132 53.889 27.514 53.889 27.514s-23.095 31.283-47.73 31.283c-3.465 0-6.929-.377-9.623-1.509V49.48c12.702 1.509 15.397 7.163 22.71 19.223l16.937-13.946S102.117 38.93 81.331 38.93c-2.31 0-4.619.373-6.543.373"/></g><defs><clipPath id="a"><path fill="#fff" d="M0 .708h200v130.348H0z"/></clipPath></defs></svg>