<svg xmlns="http://www.w3.org/2000/svg" width="200" height="131" fill="none"><g fill="#77B900" clip-path="url(#a)"><path d="M20.9 56.18s18.09-26.01 53.89-28.65v-9.42C34.76 21.5.49 54.29.49 54.29s19.64 55.4 74.3 60.3v-10.17c-40.42-4.9-53.9-48.24-53.9-48.24"/><path d="M74.79 84.82v9.05C44.38 88.59 35.9 57.68 35.9 57.68s14.63-15.82 38.88-18.47V49.4c-12.7-1.5-22.71 10.18-22.71 10.18s5.39 19.6 22.7 25.25"/><path d="M74.79.77v17.34c1.15 0 2.3 0 3.46-.38 45.42-1.5 74.68 36.18 74.68 36.18s-33.88 40.71-69.29 40.71c-3.08 0-6.16-.38-9.24-.75v10.93c2.31.38 5 .38 7.7.38 32.72 0 56.59-16.6 79.68-35.81 3.85 3.01 19.25 10.17 22.71 13.57-21.94 18.09-72.75 32.41-101.62 32.41-2.7 0-5.39 0-8.08-.37v15.07H199.5V.77z"/><path d="M74.79 39.22V27.53h3.46c32.72-1.13 53.9 27.52 53.9 27.52s-23.1 31.28-47.74 31.28c-3.46 0-6.93-.38-9.62-1.5V49.38c12.7 1.51 15.4 7.17 22.7 19.23l16.95-13.95s-12.32-15.83-33.1-15.83c-2.32 0-4.63.38-6.55.38"/></g><defs><clipPath id="a"><path fill="#fff" d="M0 .62h200v130.35H0z"/></clipPath></defs></svg>