<svg xmlns="http://www.w3.org/2000/svg" width="200" height="275" fill="none"><g clip-path="url(#a)"><mask id="b" width="200" height="276" x="0" y="0" maskUnits="userSpaceOnUse" style="mask-type:luminance"><path fill="#fff" d="M200 .51H0v274.51h200z"/></mask><g mask="url(#b)"><path fill="#231F20" d="M43.53 272.67c-5.1-3.14-7.45-6.28-7.84-12.16-23.93-2.35-17.26-26.27-1.57-36.08l-1.18-8.23c-7.45-10.2-50.98-71.38-18.43-74.51 1.18 0 1.96.78 3.14 1.56 5.49 8.63 7.84 20.79 12.94 30.2 3.92-20.78 4.7-21.57 6.27-27.06-10.98 0-23.53-9.8-29.8-18.04-3.14-4.7-4.7-12.94-4.7-15.3-.8-5.48-1.18-9.8-.8-14.9.4-2.74 3.54-10.97 3.93-11.76 10.2-23.53 8.24-23.92 19.6-47.84 6.28-12.94 9.42-15.3 22.36-20C67.85 2.08 93.73-3.8 118.04 7.96c17.25 10.2 23.92 24.7 31.37 42.35 12.94 4.7 23.92 10.6 34.51 19.61 19.6 5.5 14.51 16.08 14.51 33.33-2.35 12.16-3.53 14.52-3.53 16.87 5.88 14.5 1.18 35.3-18.04 30.59-3.53-.79-5.49-4.32-8.23-6.67-5.5 1.96-10.98 3.92-16.08 5.88.4 2.35 1.57 8.24 2.35 12.16 1.96 21.17 1.96 40-2.74 60.39 12.15 9.02 21.17 21.57 8.62 33.73-3.13 3.13-3.53 3.13-10.58 5.1-1.18 4.7-2.36 7.05-6.28 10.19-5.49 3.14-17.65 3.92-24.7.78a58 58 0 0 1-11.77-6.27c-5.1-5.49-5.49-9.41-7.06-16.47-5.1 0-10.2.4-14.9.4-1.57 9.4-5.49 15.29-14.12 20.78-9.8 5.49-20.78 4.31-27.84 1.96"/></g><mask id="c" width="200" height="276" x="0" y="0" maskUnits="userSpaceOnUse" style="mask-type:luminance"><path fill="#fff" d="M200 .51H0v274.51h200z"/></mask><g mask="url(#c)"><path fill="#fff" d="M52.94 174.63c2.35-13.73 4.32-18.83 16.47-24.7 16.47 0 35.3 2.34 35.3-19.22-6.67-20-13.34-36.08-1.18-54.9 9.41-9.42 14.12-14.52 11.37-28.24-5.88-14.12-13.72-27.84-21.17-40.79 0-.78 0-.78 4.3 0v1.57c14.91 23.92 18.83 39.61 46.68 44.7 10.98 4.32 22.35 9.42 31.76 16.48-1.18.78-1.18 0-8.23 3.92-6.28 6.28-10.6 9.41-9.02 17.26 6.66 14.9 21.17 14.9 34.11 7.45-4.7 23.92-49.4 28.23-67.06 30.59-16.47 7.84 19.22 12.94 23.93 14.11-12.55 5.1-32.55 2.35-45.89 2.35-.39 1.18-.39 2.75-.39 3.93 6.67.78 12.94 1.17 19.61 2.35 3.92 6.27 8.63 12.55 9.41 20.4-2.74 21.95-.4 46.66 2.35 68.62 2.75 5.49 12.55 18.82 5.1 23.92-12.55 2.35-26.27-.4-30.98-12.16 1.18-18.82 2.75-37.64 2.75-56.07-.4-1.18-.79-2.36-1.18-3.14-.78.78-1.18 1.96-1.96 3.14-1.18 15.29-2.35 30.98-3.14 46.27-5.1 2.35-18.04.78-24.31.78C80 220.9 80 220.9 79.22 201.7c-1.57-7.06-1.57-7.06-2.75-9.02-6.27 18.82 2.75 42.35.4 61.96-6.67 10.2-18.44 12.15-29.81 9.8-7.45-4.7 2.35-19.22 4.31-24.7 2.75-19.22 2.75-39.22 2.75-58.44-.4-1.96-.79-3.92-1.18-5.49.79-.78.4-1.17 0-1.17"/></g><mask id="d" width="200" height="276" x="0" y="0" maskUnits="userSpaceOnUse" style="mask-type:luminance"><path fill="#fff" d="M200 .51H0v274.51h200z"/></mask><g mask="url(#d)"><path fill="#B28D2F" d="M12.16 163.65c1.96-1.96 3.92-3.53 5.88-5.5 4.31 11.38 9.41 21.18 17.65 30.6a275 275 0 0 1 8.23-43.53c28.63-.4 47.45-8.63 49.02-39.61-.4-3.92-1.18-7.45-1.57-11.37-9.4-29.42-16.86-57.26-19.21-63.14-3.92-7.06-8.24-9.41-14.9-12.94C69.4 11.1 79.21 5.6 93.72 6.78c7.45 13.34 15.29 27.06 21.17 40.79 2.75 14.12-1.96 18.82-11.37 28.23-12.16 18.83-5.5 34.9 1.18 54.9 0 21.58-18.83 19.22-35.3 19.22-12.16 6.28-14.5 10.98-16.47 24.7-4.31 19.62-3.14 42.36-4.31 62.36-2.36 5.1-4.7 10.59-7.06 16.08-14.12 0-17.26-5.5-11.37-18.43 3.53-4.32 7.05-6.28 12.15-9.02 0-14.12-12.15-25.5-18.82-36.87-6.28-11.37-6.28-11.37-11.37-25.1"/></g><mask id="e" width="200" height="276" x="0" y="0" maskUnits="userSpaceOnUse" style="mask-type:luminance"><path fill="#fff" d="M200 .51H0v274.51h200z"/></mask><g mask="url(#e)"><path fill="#B28D2F" d="M133.33 171.49c-.78-7.45-5.49-14.12-9.4-20.4 7.05-.78 14.5-1.56 21.95-2.34 7.45 27.45 7.06 48.62.79 76.47 14.11 7.06 25.49 27.84.78 27.84-2.74-5.1-5.1-10.2-7.45-14.9-1.18-19.22-2.75-38.83-3.14-58.43-.39-3.14-1.17-5.5-3.53-8.24"/></g><mask id="f" width="200" height="276" x="0" y="0" maskUnits="userSpaceOnUse" style="mask-type:luminance"><path fill="#fff" d="M200 .51H0v274.51h200z"/></mask><g mask="url(#f)"><path fill="#fff" d="M12.16 163.65c-1.18-5.1-3.92-12.16-1.18-17.26 1.18-.78 1.96-1.17 2.75 0 1.96 4.32 3.92 7.06 4.3 11.77-1.95 1.96-3.91 3.53-5.87 5.49"/></g><mask id="g" width="200" height="276" x="0" y="0" maskUnits="userSpaceOnUse" style="mask-type:luminance"><path fill="#fff" d="M200 .51H0v274.51h200z"/></mask><g mask="url(#g)"><path fill="#EE7A22" d="M179.6 143.26c-4.3-2.75-11.36-9.42-12.15-14.12 7.06-2.36 12.94-5.5 19.22-9.41 8.23 6.27 7.06 17.25-.79 23.13-1.96.79-4.31.79-6.27.4"/></g><mask id="h" width="200" height="276" x="0" y="0" maskUnits="userSpaceOnUse" style="mask-type:luminance"><path fill="#fff" d="M200 .51H0v274.51h200z"/></mask><g mask="url(#h)"><path fill="#B28D2F" d="M44.7 140.9C-18.81 128.35 16.09 71.5 35.7 32.67 46.67 17.77 61.57 20.9 69.8 35.8c7.45 28.24 7.45 28.24 16.08 55.3 2.36 13.33 4.32 24.7-3.14 37.25-12.15 11.77-21.96 12.16-38.03 12.55"/></g><mask id="i" width="200" height="276" x="0" y="0" maskUnits="userSpaceOnUse" style="mask-type:luminance"><path fill="#fff" d="M200 .51H0v274.51h200z"/></mask><g mask="url(#i)"><path fill="#9C7A32" d="M47.45 135.02c-2.35-.78-4.7-1.18-7.06-1.57 16.86-9.02 30.2-17.25 41.57-33.72.4 0 .79.39 1.18.39.39 25.49-11.38 31.76-35.69 34.9"/></g><mask id="j" width="200" height="276" x="0" y="0" maskUnits="userSpaceOnUse" style="mask-type:luminance"><path fill="#fff" d="M200 .51H0v274.51h200z"/></mask><g mask="url(#j)"><path fill="#fff" d="M167.06 84.82c0-7.06 18.82-14.11 23.14-9.4-5.5 7.44-14.12 9.01-23.14 9.4"/></g><mask id="k" width="200" height="276" x="0" y="0" maskUnits="userSpaceOnUse" style="mask-type:luminance"><path fill="#fff" d="M200 .51H0v274.51h200z"/></mask><g mask="url(#k)"><path fill="#404041" d="M90.98 56.59c-4.31-1.18-10.59-5.1-6.67-11.77 1.57-1.96 5.5-2.74 7.85-3.13 10.98-1.18 19.21 9.02 5.49 14.9-1.96.39-3.92.78-6.67 0"/></g><mask id="l" width="200" height="276" x="0" y="0" maskUnits="userSpaceOnUse" style="mask-type:luminance"><path fill="#fff" d="M200 .51H0v274.51h200z"/></mask><g mask="url(#l)"><path fill="#B28D2F" d="M98.04 6.4c17.65 3.13 32.94 12.15 40.4 29.01-9.81.79-13.34 7.84-4.32 13.34 2.74.78 9.02-.4 9.8-.79.4 1.57.4 3.53.79 4.7-27.46-4.3-31.38-20-46.67-44.3z"/></g><mask id="m" width="200" height="276" x="0" y="0" maskUnits="userSpaceOnUse" style="mask-type:luminance"><path fill="#fff" d="M200 .51H0v274.51h200z"/></mask><g mask="url(#m)"><path fill="#fff" d="M89.41 47.57c-.39-1.57-1.17-1.57-1.17-2.75 1.56-.78 1.56-.78 4.3-.39.4.4-.38.79 0 1.57-.78.78-.78.78-1.17 1.57-1.57 0-1.17-.4-1.96 0"/></g><mask id="n" width="200" height="276" x="0" y="0" maskUnits="userSpaceOnUse" style="mask-type:luminance"><path fill="#fff" d="M200 .51H0v274.51h200z"/></mask><g mask="url(#n)"><path fill="#fff" d="M132.94 42.08c-.4-1.57-.78-.79.4-1.96 3.52 0 2.74-.79 2.35 2.35-1.18 0-1.97-.78-2.75-.4"/></g><mask id="o" width="200" height="276" x="0" y="0" maskUnits="userSpaceOnUse" style="mask-type:luminance"><path fill="#fff" d="M200 .51H0v274.51h200z"/></mask><g mask="url(#o)"><path fill="#AA3123" d="M178.04 124.82c4.31 3.93 7.06 8.63 9.02 15.3l.78-.79c-.78-4.7-3.53-9.4-8.62-15.3-.4 0-.79.4-1.18.8"/></g><mask id="p" width="200" height="276" x="0" y="0" maskUnits="userSpaceOnUse" style="mask-type:luminance"><path fill="#fff" d="M200 .51H0v274.51h200z"/></mask><g mask="url(#p)"><path fill="#fff" d="M134.12 38.94c1.57 0 2.35.79 2.35 1.96 0 1.18-1.18 1.96-2.35 1.96s-2.36-.78-2.36-1.96c0-1.17.79-1.96 2.36-1.96"/></g><mask id="q" width="200" height="276" x="0" y="0" maskUnits="userSpaceOnUse" style="mask-type:luminance"><path fill="#fff" d="M200 .51H0v274.51h200z"/></mask><g mask="url(#q)"><path fill="#fff" d="M90.59 43.65c1.57 0 2.74.78 2.74 2.35s-1.17 2.35-2.74 2.35-2.75-.78-2.75-2.35c0-1.18 1.18-2.35 2.75-2.35"/></g></g><defs><clipPath id="a"><path fill="#fff" d="M0 .64h200v274.24H0z"/></clipPath></defs></svg>