<svg xmlns="http://www.w3.org/2000/svg" width="200" height="259" fill="none"><path fill="#000" d="M54.6 2.07c-1.31 0-3.28.66-3.94 1.97-3.3-1.97-7.9-1.31-11.19 1.32-5.26-1.32-6.58 0-8.55 1.97-1.31 0-8.55-1.32-11.84 3.95-8.55-1.32-11.19 4.6-7.9 10.52-2.63 2.64-2.63 7.24 0 10.53-1.31 2.63 0 5.92 3.3 9.87-.66 3.29.65 7.24 3.94 8.55-.66 5.26 5.26 8.55 6.58 9.87.66 3.29 1.97 6.58 8.55 7.9 1.32 4.6 5.27 5.92 8.56 6.57a40.8 40.8 0 0 0-23.03 40.13l-1.97 3.3c-17.77 12.5-22.37 36.84-10.53 54.6 1.31 1.32 1.97 3.29 3.29 4.6 1.31 5.93 3.29 11.85 5.26 17.77 1.98 15.79 12.5 28.95 26.98 34.2a83 83 0 0 0 25.65 14.48C76.32 253.38 87.5 258 100 258a42 42 0 0 0 31.58-14.48c9.2-3.28 17.76-8.55 25.66-14.47 14.47-5.92 25-19.08 26.97-34.21 2.63-5.92 3.95-11.84 5.26-17.76a39.6 39.6 0 0 0-2.63-55.92c-1.31-1.32-2.63-2.64-4.6-3.3l-1.98-3.28c1.32-16.45-7.9-32.9-23.02-40.13 3.94-1.32 7.9-1.98 8.55-6.58 6.58-1.32 7.9-4.6 8.55-7.9 1.32-1.31 7.24-4.6 6.58-9.87 3.29-1.97 4.6-5.26 3.95-9.2 3.29-3.95 4.6-6.59 2.63-9.88 3.29-2.63 3.29-7.23.66-10.52 3.29-5.26.66-11.84-7.9-10.53-3.29-5.26-10.52-3.95-11.84-3.95-1.31-1.31-3.29-3.28-7.9-2.63A8.9 8.9 0 0 0 150 2.73c-3.29-2.64-6.58.65-9.87 1.31-5.92-1.97-6.58.66-9.87 1.32-5.92-1.32-7.9 1.31-10.52 4.6h-3.3c-7.89 5.27-13.15 13.16-15.78 22.37-2.63-9.21-7.9-16.45-15.13-22.37h-3.3c-2.62-3.29-4.6-5.92-10.52-4.6-2.63-.66-3.95-3.3-9.87-1.32-2.63-.66-5.26-1.31-7.23-1.97"/><path fill="#75A928" d="M36.18 25.75c24.35 12.5 38.16 22.37 46.06 31.58-3.95 15.79-25 16.45-32.24 16.45 1.32-.66 2.63-1.32 3.29-2.63-1.97-1.32-8.55 0-13.16-2.64 1.32 0 2.63-.65 3.3-1.97-3.96-1.97-7.9-3.29-11.85-5.92 1.97 0 3.29 0 5.26-1.32C32.24 58 28.3 55.36 25 52.73c1.97 0 4.6 0 5.26-.66a50 50 0 0 1-9.2-7.24c1.3.66 3.28 0 4.6-.66a35 35 0 0 1-7.9-9.2c1.98.65 3.95.65 5.27 0-.66-1.98-4.6-3.3-7.24-7.9 1.97 0 4.6.66 5.26 0-.66-3.3-2.63-6.58-4.6-9.21 3.94 0 7.9 0 11.84-.66L25 13.9c4.6-.65 9.21-.65 13.16 1.33 1.31-1.32 0-2.64-1.98-4.61 3.95.66 7.24 1.32 10.53 2.63 1.97-1.31-1.32-3.29-2.63-4.6 3.95.65 7.9 1.97 11.18 4.6 1.98-1.97 0-3.29-1.31-5.26a28 28 0 0 1 9.2 5.92c.67-1.32 1.98-1.97.67-4.6 3.29 1.31 5.92 3.94 7.9 6.57 3.28-.65 2.62-2.63 2.62-3.94 2.63 2.63 5.92 5.92 7.9 8.55.65-.66 1.31-1.98 1.31-3.95 7.9 7.9 19.74 28.29 3.3 36.19a163 163 0 0 0-50.67-26.98M165.79 25.75c-24.34 12.5-38.82 23.03-46.05 31.58 3.94 15.79 25 16.45 32.23 16.45-1.31-.66-2.63-1.32-3.29-2.63 1.98-1.32 8.56 0 13.16-2.64a3.6 3.6 0 0 1-3.29-1.97 27.4 27.4 0 0 0 11.85-5.26c-1.98 0-3.3 0-4.61-1.32 3.29-1.97 7.24-4.6 10.53-7.24-1.98 0-3.95 0-5.27-.65a50 50 0 0 0 9.21-7.24c-1.31.66-3.29 0-4.6-.66 3.29-2.63 5.92-5.26 7.9-8.55-1.98.66-3.96.66-5.27 0 1.31-2.63 5.26-3.95 7.9-9.21a7.3 7.3 0 0 1-5.27 0c.66-3.29 2.63-6.58 4.6-9.21-3.94 0-7.89 0-11.84-.66l3.3-3.29c-4.61-.66-9.22-.66-13.16 1.32-1.32-1.32 0-2.63 1.97-4.6-3.95.65-7.24 1.3-10.53 2.62-1.97-1.31 1.32-3.29 2.64-4.6-3.95.66-7.9 1.97-11.19 4.6-1.97-1.97 0-3.29 1.32-5.26a39 39 0 0 0-9.87 5.92c-.66-1.31-1.98-1.97-.66-4.6-3.29 1.31-5.26 3.94-7.9 6.57-2.63 0-1.97-1.97-1.97-3.28-3.29 2.63-5.92 5.92-8.55 8.55-.66-1.32-1.32-2.63-1.32-3.95-7.9 7.9-19.73 28.29-3.29 36.18 15.8-11.84 32.9-21.05 51.32-26.97"/><path fill="#BC1142" d="M130.26 188.25c-.66 15.8-13.81 27.63-28.94 26.97-15.8.66-28.3-11.18-28.95-26.97.66-15.13 13.81-27.63 28.95-26.97 15.13-.66 28.28 11.18 28.94 26.97M84.21 111.28c11.84 7.9 14.47 25.66 4.6 40.13-9.86 14.47-26.97 19.08-38.81 11.18s-14.47-25.65-4.6-40.13c9.86-14.47 26.97-19.08 38.81-11.18M117.1 109.96c-11.84 7.9-14.47 25.66-4.6 40.13s26.97 19.08 38.82 11.19c11.84-7.9 14.47-25.66 4.6-40.13s-26.97-19.08-38.81-11.19M23.68 123.78c13.16-3.3 4.6 53.94-5.92 49.34-12.5-11.84-12.5-31.58-.65-44.08 1.97-1.97 4.6-3.29 6.57-5.26M175 123.12c-13.16-3.29-4.6 53.95 5.92 49.34 12.5-11.84 12.5-31.58.66-44.08-1.98-1.97-3.95-3.29-6.58-5.26M130.26 80.36c22.37-3.95 41.45 9.87 40.8 34.2-.66 9.22-48.7-32.89-40.8-34.2M68.42 79.7c-22.37-3.95-41.45 9.87-40.79 34.2.66 9.22 48.69-32.89 40.8-34.2M100.66 74.44c-13.16-.66-26.32 9.86-26.32 15.79 0 7.23 10.53 14.47 26.32 15.13s26.31-5.92 26.31-13.16-14.47-17.76-26.31-17.76M101.32 223.78c11.84-.66 27.63 3.94 27.63 9.2s-14.48 17.77-28.3 17.77c-13.8 0-28.94-11.84-28.28-16.45-.66-5.92 17.1-11.18 28.95-10.52M57.9 189.57c8.55 9.87 12.5 27.63 5.26 32.9-6.58 3.94-22.37 1.97-34.21-13.82-7.24-13.82-5.92-27.64-.66-32.24 7.9-4.6 20.4 1.97 29.6 13.16M142.76 186.28c-9.2 10.52-13.81 29.6-7.23 36.18 6.57 4.6 23.02 3.95 35.52-13.16 9.21-11.84 5.92-30.92.66-36.18-7.24-5.92-18.42 1.97-28.95 13.16"/></svg>