<svg xmlns="http://www.w3.org/2000/svg" width="200" height="259" fill="none"><g clip-path="url(#a)"><path fill="#000" d="M54.605 2.38c-1.316 0-3.29.659-3.947 1.974-3.29-1.973-7.895-1.315-11.184 1.316-5.263-1.316-6.58 0-8.553 1.974-1.316 0-8.553-1.316-11.842 3.947-8.553-1.315-11.184 4.606-7.895 10.527-2.631 2.631-2.631 7.237 0 10.526-1.316 2.632 0 5.921 3.29 9.868-.658 3.29.658 7.237 3.947 8.553-.658 5.263 5.263 8.553 6.579 9.868.658 3.29 1.974 6.58 8.553 7.895 1.315 4.605 5.263 5.921 8.552 6.58-15.131 7.236-24.342 23.025-23.026 40.131l-1.974 3.289C-.658 131.328-5.263 155.67 6.58 173.433c1.316 1.316 1.974 3.29 3.29 4.606 1.315 5.921 3.289 11.842 5.263 17.763 1.973 15.789 12.5 28.947 26.973 34.21 7.895 6.579 16.448 11.185 25.658 14.474 8.553 9.211 19.737 13.816 32.237 13.816 11.842 0 23.684-5.263 31.579-14.474 9.21-3.289 17.763-8.552 25.658-14.474 14.473-5.921 25-19.078 26.973-34.21 2.632-5.921 3.948-11.842 5.264-17.763 14.473-15.79 13.815-40.79-2.632-55.921-1.316-1.316-2.632-2.632-4.605-3.29l-1.974-3.289c1.316-16.448-7.895-32.895-23.026-40.132 3.947-1.316 7.894-1.974 8.552-6.579 6.579-1.315 7.895-4.605 8.553-7.895 1.316-1.315 7.237-4.605 6.579-9.868 3.289-1.974 4.605-5.263 3.947-9.21 3.29-3.948 4.606-6.58 2.632-9.869 3.289-2.631 3.289-7.237.658-10.526 3.289-5.263.658-11.842-7.895-10.526-3.289-5.264-10.526-3.948-11.842-3.948-1.316-1.316-3.289-3.29-7.895-2.631-3.289-2.632-7.237-2.632-10.526-.658-3.29-2.632-6.579.658-9.869 1.315-5.921-1.973-6.578.658-9.868 1.316-5.921-1.316-7.895 1.316-10.526 4.605h-3.29c-7.894 5.264-13.158 13.158-15.789 22.369-2.632-9.21-7.895-16.447-15.132-22.368h-3.29c-2.63-3.29-4.605-5.922-10.526-4.606-2.631-.658-3.947-3.29-9.868-1.316-2.631-.657-5.263-1.315-7.237-1.973"/><path fill="#75A928" d="M36.184 26.065c24.342 12.5 38.158 22.368 46.053 31.579C78.29 73.434 57.237 74.09 50 74.09c1.316-.658 2.632-1.316 3.29-2.631-1.974-1.316-8.553 0-13.158-2.632 1.315 0 2.631-.658 3.29-1.974-3.948-1.973-7.896-3.29-11.843-5.92 1.974 0 3.29 0 5.263-1.316-4.605-1.316-8.552-3.948-11.842-6.58 1.974 0 4.605 0 5.263-.657-3.29-1.974-6.579-4.606-9.21-7.237 1.316.658 3.29 0 4.605-.658-3.29-2.632-5.921-5.921-7.895-9.21 1.974.657 3.948.657 5.263 0-.657-1.974-4.605-3.29-7.236-7.895 1.973 0 4.605.658 5.263 0-.658-3.29-2.632-6.58-4.606-9.21 3.948 0 7.895 0 11.843-.659L25 14.222c4.605-.657 9.21-.657 13.158 1.317 1.316-1.316 0-2.632-1.974-4.606 3.948.658 7.237 1.316 10.527 2.632 1.973-1.316-1.316-3.29-2.632-4.605 3.947.658 7.895 1.973 11.184 4.605 1.974-1.974 0-3.29-1.316-5.263 3.29 1.316 6.58 3.29 9.211 5.92.658-1.315 1.974-1.973.658-4.604 3.29 1.315 5.92 3.947 7.895 6.579 3.29-.658 2.631-2.632 2.631-3.948 2.632 2.632 5.921 5.921 7.895 8.553.658-.658 1.316-1.974 1.316-3.948 7.894 7.895 19.737 28.29 3.29 36.185C71.71 41.196 54.604 31.986 36.183 26.065M165.789 26.065c-24.342 12.5-38.815 23.026-46.052 31.579 3.947 15.789 25 16.447 32.237 16.447-1.316-.658-2.632-1.316-3.29-2.632 1.974-1.315 8.553 0 13.158-2.631-1.316 0-2.632-.658-3.289-1.974 3.947-.658 8.552-2.632 11.842-5.263-1.974 0-3.29 0-4.606-1.316 3.29-1.974 7.237-4.605 10.527-7.237-1.974 0-3.948 0-5.263-.658 3.289-1.973 6.579-4.605 9.21-7.236-1.316.657-3.289 0-4.605-.658 3.289-2.632 5.921-5.264 7.895-8.553-1.974.658-3.948.658-5.264 0 1.316-2.632 5.264-3.947 7.895-9.21-1.974.657-3.289.657-5.263 0 .658-3.29 2.632-6.58 4.605-9.211-3.947 0-7.894 0-11.842-.658l3.29-3.29c-4.606-.657-9.211-.657-13.158 1.316-1.316-1.315 0-2.631 1.973-4.605-3.947.658-7.236 1.316-10.526 2.632-1.974-1.316 1.316-3.29 2.632-4.606-3.948.658-7.895 1.974-11.185 4.606-1.973-1.974 0-3.29 1.316-5.263q-4.934 1.973-9.868 5.92c-.658-1.315-1.974-1.973-.658-4.605-3.29 1.316-5.263 3.948-7.895 6.58-2.631 0-1.973-1.974-1.973-3.29-3.29 2.631-5.922 5.92-8.553 8.552-.658-1.315-1.316-2.631-1.316-3.947-7.895 7.895-19.737 28.29-3.289 36.184 15.789-11.842 32.894-21.052 51.315-26.973"/><path fill="#BC1142" d="M130.263 188.565c-.658 15.789-13.816 27.631-28.947 26.973-15.79.658-28.29-11.184-28.948-26.973.658-15.132 13.816-27.632 28.948-26.974 15.131-.658 28.289 11.184 28.947 26.974M84.21 111.591c11.843 7.895 14.474 25.658 4.606 40.132S61.842 170.802 50 162.907s-14.474-25.658-4.605-40.132 26.973-19.079 38.815-11.184M117.105 110.275c-11.842 7.895-14.473 25.658-4.605 40.132s26.974 19.079 38.816 11.184 14.474-25.658 4.605-40.132-26.974-19.079-38.816-11.184M23.684 124.091c13.158-3.289 4.605 53.948-5.92 49.342-12.5-11.842-12.5-31.579-.659-44.079 1.974-1.973 4.605-3.289 6.58-5.263M175 123.433c-13.158-3.289-4.605 53.947 5.921 49.342 12.5-11.842 12.5-31.579.658-44.079-1.974-1.973-3.947-3.289-6.579-5.263M130.263 80.67c22.368-3.947 41.447 9.869 40.79 34.211-.658 9.21-48.685-32.895-40.79-34.21M68.421 80.012c-22.368-3.947-41.447 9.869-40.79 34.211.658 9.21 48.685-32.895 40.79-34.21M100.658 74.75C87.5 74.09 74.342 84.617 74.342 90.538c0 7.236 10.526 14.473 26.316 15.131s26.316-5.92 26.316-13.158S112.5 74.75 100.658 74.75M101.316 224.091c11.842-.658 27.631 3.948 27.631 9.211s-14.473 17.763-28.289 17.763-28.948-11.842-28.29-16.448c-.657-5.921 17.106-11.184 28.948-10.526M57.895 189.881c8.552 9.868 12.5 27.631 5.263 32.895-6.579 3.947-22.369 1.973-34.21-13.816-7.237-13.816-5.922-27.632-.659-32.237 7.895-4.605 20.395 1.974 29.606 13.158M142.763 186.591c-9.21 10.526-13.816 29.605-7.237 36.184 6.579 4.606 23.027 3.948 35.527-13.158 9.21-11.842 5.921-30.921.657-36.184-7.236-5.921-18.421 1.974-28.947 13.158"/></g><defs><clipPath id="a"><path fill="#fff" d="M0 .591h200v257.895H0z"/></clipPath></defs></svg>