<svg xmlns="http://www.w3.org/2000/svg" width="200" height="201" fill="none"><g clip-path="url(#a)"><path fill="#79BD28" d="M187.12 1.08H12.99A12.44 12.44 0 0 0 .49 13.57V187.7a12.44 12.44 0 0 0 12.4 12.39h174.77a12.44 12.44 0 0 0 11.84-12.5V13.48a12.44 12.44 0 0 0-12.38-12.39m-49.26 14.13a26.4 26.4 0 0 1 29.85-4.98c7.66 4.38 22.54 21.5 22.54 21.5 10.65 11.59-4.63 20.45-4.63 20.45L118.95 95 100 65.76zM8.96 33.91c4.32-7.66 21.39-22.58 21.39-22.58C41.85.63 50.7 16 50.7 16l42.63 66.96-28.85 18.86-50.35-38.06a26.8 26.8 0 0 1-5.17-29.85m53.38 153.24a26.4 26.4 0 0 1-29.85 4.97C24.88 187.76 10 170.64 10 170.64c-10.5-11.34 4.78-20.3 4.78-20.3l66.66-42.83 18.56 29zm129.35-18.66c-4.33 7.66-21.4 22.64-21.4 22.64-11.48 10.7-20.34-4.68-20.34-4.68l-42.88-66.96 28.85-18.9 50.35 38.05a26.6 26.6 0 0 1 5.17 29.85z"/></g><defs><clipPath id="a"><path fill="#fff" d="M0 .23h200v200H0z"/></clipPath></defs></svg>