<svg xmlns="http://www.w3.org/2000/svg" width="200" height="201" fill="none"><g fill="#C1433F" clip-path="url(#a)"><path d="M117.4 195.35c-.56.37-1.3.56-1.86.93-.18 0-.37.18-.37.18-.18 0-.18 0-.37.19h-.18c-.19 0-.37.18-.37.18-1.11.37-2.22.74-3.15 1.11-.37 0-.55 0-.92.19-2.96.55-5.92 1.3-9.07 1.85H96.3c-1.3-.19-2.78-.37-4.07-.55-1.67-.19-3.15-.56-4.81-.75-.56 0-1.11-.18-1.67-.18-.55-.19-1.1-.37-1.85-.74-.18 0-.18-.19-.37-.19-.55-.18-.92-.37-1.48-.37-3.33-1.48-6.66-3.14-9.8-4.62-.2 0-.38-.19-.38-.19-.74-.55-1.66-1.3-2.4-1.85s-1.48-1.3-2.04-1.85c-.18-.18-.37-.18-.55-.37-.19-.18-.37-.37-.37-.55-.56-.56-1.11-1.11-1.67-1.85-.92-1.3-1.85-2.4-2.78-3.7l-.18-.19c-.19-.19-.19-.37-.37-.56 0-.18-.19-.37-.19-.37l-.18-.18s0-.18-.19-.18l-.18-.19c-.19-.19-.19-.37-.37-.37-.19-.19-.19-.37-.37-.56 0-.18-.19-.18-.19-.37 0-.18-.18-.37-.18-.37-1.3-2.77-2.6-5.36-3.89-8.14 0-.18 0-.18-.18-.37-.19-.55-.37-1.3-.56-1.85l-.55-1.66c-.56-3.7-.93-7.4-1.48-11.1v-7.59c0-.19-.37-.74-.56-.74-2.4-.19-4.62-.19-7.03-.19h-.74c-.55 0-.92-.18-1.48-.18-.37 0-.74-.19-1.11-.19H40.6c-2.4-.37-4.63-.92-7.03-1.3-.19 0-.19 0-.37-.18-.19 0-.56-.18-.74-.18-2.78-1.12-5.55-2.04-8.33-3.15-.18 0-.18-.19-.37-.19h-.19c-.55-.18-.92-.55-1.48-.74h-.18c-.19 0-.37-.18-.37-.18l-.19-.19c-.18 0-.18-.18-.37-.18h-.18c-.19-.19-.37-.19-.56-.37-.18-.19-.37-.19-.55-.37-.19-.19-.37-.37-.74-.37-.19 0-.37-.19-.37-.19-.19 0-.19-.18-.37-.18-.19 0-.19-.19-.37-.19-1.11-.92-2.22-1.85-3.52-2.77l-2.03-2.04-.19-.18s0-.19-.18-.19c-.93-.92-1.67-1.85-2.6-2.96-.55-.74-.92-1.3-1.47-2.03-.56-1.11-1.3-2.04-1.85-3.15l-3.34-7.22c-.18-.55-.37-1.3-.55-1.85 0-.18 0-.18-.19-.37.19-.92 0-1.3 0-1.85-.18-.37-.18-.55-.37-.92-.55-3.15-1.66-6.3-1.48-9.62v-4.63c.19-.56.37-1.11.37-1.67.56-2.77 1.11-5.73 1.67-8.5.37-.93.74-2.04.92-2.97.19-.18.19-.37.37-.55 0 0 .19 0 0-.19.93-1.67 1.67-3.33 2.6-5.18 0-.19.18-.37.18-.56l.19-.18c.18-.37.37-.74.74-1.11l.18-.19c.19-.18.19-.37.37-.55 0 0 .19 0 .19-.19.18-.18.18-.37.37-.55.37-.37.74-.93 1.1-1.3 0 0 0-.18.2-.18a97 97 0 0 0 4.25-4.63l.18-.18c.19-.19.37-.19.56-.37.74-.56 1.48-1.3 2.4-1.85l.37-.37c.56-.37 1.11-.74 1.48-1.11.19 0 .19-.19.37-.19.19 0 .37-.19.56-.19 1.1-.74 2.22-1.48 3.51-2.03.19 0 .19-.19.37-.19.19-.18.38-.18.75-.37 1.85-.74 3.51-1.66 5.36-2.4 1.3-.56 2.6-.93 3.7-1.48.19 0 .19-.19.37-.19 1.48-.37 3.15-.92 4.63-1.3 0 0 .18 0 .18.2v.18c0 .18 0 .37.19.74v.55c0 .19 0 .37.18.37.56 2.22 1.11 4.26 1.67 6.48.37.93.55 1.67.92 2.6 0 .18.19.18.19.36 0 .19.18.56.18.74 0 .19.19.37.19.56.37.74.74 1.66 1.11 2.4v.37c.19.37.37.74.37.93v.18a60 60 0 0 0 6.1 10.55l2.41 2.96c.56.56.93 1.11 1.48 1.67 1.3 1.3 2.6 2.59 3.7 3.88.56.37.93.93 1.48 1.3 1.11.92 2.22 1.85 3.33 2.59a56 56 0 0 0 10 6.1c.37.19.92.38 1.3.56 1.1.55 2.4.92 3.5 1.48.2 0 .2.19.38.19s.37.18.55.18.19 0 .37.19c.19 0 .19 0 .37.18h.37c.19 0 .37.19.56.19H80c.19 0 .19.18.37.18.19 0 .37.19.56.19.18.18.55.18.74.37 6.48 1.85 12.95 2.4 19.61 2.59.38 0 .93.18 1.3.18h.93c.37 0 .55.19.92.19h.19c.37 0 .55 0 .92.18l5 1.11a34 34 0 0 0 4.62 1.48c3.15 1.67 6.48 3.33 9.63 5 .18.18.37.37.55.37s.19.18.37.18h.19c.92.93 2.03 1.67 2.96 2.6 2.03 2.22 3.88 4.44 5.92 6.66.18.18.18.37.37.55.92 1.48 1.66 2.96 2.59 4.44.56 1.3 1.11 2.78 1.66 4.07.19.37.38.93.56 1.3 0 .18.19.37.19.55 0 0 0 .19.18.19 0 .18 0 .37.19.55 0 .19.18.37.18.56.19.92.37 1.85.74 2.77.19.75.19 1.3.37 2.04.19 1.48.56 2.96.74 4.26 0 .55 0 1.1.19 1.66v6.67c0 .55 0 1.29-.19 1.84 0 .56 0 1.12-.18 1.67v1.11l-1.11 5.55a48 48 0 0 0-.56 2.4c0 .2-.19.2-.19.38v.18c-.37.74-.55 1.48-.92 2.22-.56 1.3-1.11 2.4-1.66 3.7-.93 1.67-2.04 3.15-2.97 4.81 0 0-.18 0-.18.19-1.48 1.67-2.78 3.33-4.26 5-.18.18-.37.18-.55.37-1.67 1.48-3.33 2.77-4.81 4.25h-.19c-1.48.93-3.15 2.04-4.62 2.96-.56.37-1.11.56-1.67.93-.19.18-.37.18-.56.37 0-.74-.37-.56-.74-.56M72.06 12.34c.92-.74 1.85-1.48 2.59-2.03.18 0 .18-.19.37-.19.74-.37 1.3-.92 2.03-1.3l5.56-3.33c1.3-.55 2.77-1.3 4.07-1.85 3.14-.74 6.47-1.66 9.62-2.4l5-.56c1.85.19 3.88.37 5.73.37l3.89.56c1.48.37 2.77.74 4.25 1.1 1.67.56 3.52 1.3 5.19 1.86 1.3.55 2.77 1.3 4.07 1.85.55.37 1.3.74 1.85 1.11 1.3.93 2.59 1.85 3.88 2.6.19.18.56.36.74.55.19.18.56.37.74.55.19.37.56.56.74.93.56.55.93 1.1 1.48 1.66.74.93 1.48 1.67 2.22 2.6 0 0 0 .18.19.18l.18.18c.93 1.3 1.86 2.78 2.78 4.07v.19c0 .18.19.18.19.37.18.18.37.55.55.74.37.55.56 1.1.93 1.66.18.19.18.37.37.56 0 0 0 .18.18.18.19.19.19.37.37.56 0 .18.19.18.19.37.18.18.18.37.37.55v.19c.55 1.3 1.1 2.78 1.66 4.07.19.37.19.56.37.93.37 1.48.74 3.14 1.3 4.62.18 1.67.55 3.33.74 5v9.44c.18 2.77.18 2.77 2.96 2.59.92 0 1.85 0 2.77.18 2.4.19 4.63.56 7.03.74h.75c.74.19 1.48.37 2.22.37h.74c.92.19 1.85.37 2.77.74 2.6.74 5 1.48 7.4 2.22.37.19.93.37 1.3.56.18.18.37.18.55.37l1.12.55h.18c.19 0 .19.19.37.19.92.55 2.03 1.1 2.96 1.66.19.19.37.19.56.37.18 0 .18.19.37.19.18.18.37.18.55.37.37.37.93.55 1.3.92.74.56 1.48 1.3 2.22 1.85 0 0 .18 0 .18.19 0 0 .19 0 .19.18l2.77 2.78 2.22 2.78c.19.18.37.37.37.55.37.74.93 1.3 1.3 2.04.18.37.55.74.74 1.1 0 .2.18.2.18.38s.19.18.19.37c.18.18.18.55.37.74.18.37.55.92.74 1.3 0 .18.18.36.18.55 0 .18.19.18.19.37 0 .18.19.18.19.37 0 .18 0 .18.18.37 0 .18.19.18.19.37v.18c1.1 3.7 2.4 7.22 3.51 10.92 0 .19.19.37.19.56l.55 4.44v7.59c0 .55-.18 1.1-.18 1.84v.56c-.19.92-.37 1.67-.37 2.6 0 .18 0 .36-.19.55 0 .18-.18.55-.18.74-.19.92-.56 1.85-.75 2.77-.18.37-.18.74-.37 1.11 0 .19 0 .37-.18.37-.56 1.48-1.3 2.96-1.85 4.44-.93 1.85-2.04 3.52-2.96 5.37l-.56.56c-1.66 1.84-3.14 3.88-4.8 5.73-1.12 1.11-2.41 2.22-3.52 3.33-.19.19-.37.37-.56.37-2.4 1.48-4.62 2.96-7.03 4.26-.93.55-2.04 1.1-3.15 1.66h-.18c-.19.19-.56.19-.74.37-.56.19-1.11.56-1.67.74-.18 0-.37.19-.37.19-.18 0-.37.18-.55.18s-.19.19-.37.19h-.19c-1.1.37-2.22.74-3.14 1.11-.19 0-.37.19-.56.19-.18 0-.18 0-.37.18-.37.19-.74.19-1.3.37-.36 0-.55.19-.92.19s-.74 0-1.1.18a14 14 0 0 0-.75-2.96c-.55-1.67-1.11-3.15-1.48-4.81-.19-.37-.19-.74-.37-1.3 0-.18-.19-.37-.19-.74 0-.18-.18-.37-.18-.37-1.3-3.14-2.78-6.1-4.07-9.25a1.4 1.4 0 0 1-.37-.74c-.74-1.3-1.67-2.78-2.4-4.07-.75-.93-1.3-2.04-2.04-2.96-.19-.37-.56-.56-.74-.93l-.19-.18-.55-.56c-1.3-1.3-2.4-2.77-3.7-4.07-.19-.18-.37-.37-.37-.55l-.56-.56c-1.1-1.1-2.4-2.22-3.52-3.33a3 3 0 0 0-.73-.55c-.19-.19-.37-.19-.56-.37-.19-.19-.56-.37-.74-.74-1.11-.75-2.04-1.49-3.15-2.04l-1.66-1.11c-.37-.19-.56-.37-.93-.56l-.18-.18c-.19 0-.19 0-.37-.19-.19 0-.19-.18-.37-.18-.56-.37-1.3-.74-1.85-1.11-1.48-.56-2.96-1.3-4.26-1.85l-.18-.19-4.45-1.66h-.37c-.73-.19-1.66-.56-2.4-.74h-.56c-.55-.19-1.3-.56-1.85-.56-2.22-.37-4.44-.74-6.47-1.1h-.93c-.37 0-.74-.2-1.1-.2H105c-.56 0-1.3-.18-1.85-.18h-3.89c-1.11-.18-2.22-.18-3.33-.37h-.56c-.37 0-.92-.18-1.3-.18-.18 0-.36 0-.36-.19-.19 0-.37 0-.56-.18-.18 0-.37 0-.74-.19-.18 0-.37-.18-.74-.18-1.85-.56-3.88-1.11-5.73-1.67-1.48-.37-2.78-.92-4.07-1.48-.19 0-.37-.18-.56-.18 0 0-.18 0-.18-.19-.19 0-.19-.18-.37-.18-.19 0-.19-.19-.38-.19-1.29-.55-2.4-1.3-3.7-1.85l-.37-.37c-1.1-.74-2.4-1.67-3.51-2.4l-.19-.2c-.18-.18-.37-.18-.37-.36-.74-.56-1.3-1.11-2.03-1.67-1.11-1.1-2.04-2.22-3.15-3.33-.37-.55-.92-1.1-1.3-1.66 0-.19 0-.19-.18-.37a39 39 0 0 1-5.92-11.66c-.74-2.4-1.11-4.81-1.85-7.03a21 21 0 0 1-.37-3.15v-1.3c0-1.66-.19-3.32-.19-4.99v-2.78c.19-1.3.19-2.59.37-3.88.56-2.78 1.11-5.55 1.67-8.51v-.37c0-.19.18-.19.18-.37.19-.74.56-1.48.74-2.22.93-1.86 2.04-3.7 2.97-5.56.18-.18.18-.37.37-.55l.18-.19c.19-.37.37-.55.56-.92.18-.19.37-.56.55-.74.19-.37.56-.74.74-1.11 0 0 .19 0 .19-.19.18-.18.37-.55.55-.74l.19-.18c.18-.19.18-.37.37-.56a64 64 0 0 0 5.18-4.8"/></g><defs><clipPath id="a"><path fill="#fff" d="M0 .5h200v200H0z"/></clipPath></defs></svg>