<?xml version="1.0" encoding="utf-8"?>
<!-- Generator: Adobe Illustrator 23.0.2, SVG Export Plug-In . SVG Version: 6.00 Build 0)  -->
<svg version="1.1" id="Layer_1" xmlns="http://www.w3.org/2000/svg" xmlns:xlink="http://www.w3.org/1999/xlink" x="0px" y="0px"
	 viewBox="0 0 112 150" style="enable-background:new 0 0 112 150;" xml:space="preserve">
<style type="text/css">
	.st0{fill:#5B5B5B;}
	.st1{fill:#C1433F;}
</style>
<g>
	<path class="st0" d="M26.6,128.1c0-0.5,0.2-0.9,0.5-1.2c0.3-0.3,0.7-0.5,1.3-0.5s1,0.2,1.3,0.5s0.5,0.7,0.5,1.2
		c0,0.5-0.2,0.9-0.5,1.2s-0.7,0.5-1.3,0.5s-1-0.2-1.3-0.5C26.7,128.9,26.6,128.5,26.6,128.1z M29.9,145.6h-3.1v-13.9h3.1V145.6z"/>
	<path class="st0" d="M37.8,126.9l5.4,14.3l5.4-14.3h4.2v18.7h-3.2v-6.2l0.3-8.2l-5.5,14.4H42l-5.5-14.4l0.3,8.2v6.2h-3.2v-18.7
		C33.6,126.9,37.8,126.9,37.8,126.9z"/>
	<path class="st0" d="M63.3,133.6l3.9-6.8H71l-5.7,9.3l5.8,9.4h-3.8l-4-6.9l-4,6.9h-3.8l5.8-9.4l-5.7-9.3h3.8L63.3,133.6z"/>
	<path class="st0" d="M82.7,126.8v2.6h-0.2c-1,0-1.9,0.1-2.6,0.4s-1.4,0.7-1.9,1.2s-0.9,1.1-1.2,1.7s-0.5,1.4-0.5,2.1
		c0.5-0.5,1-0.9,1.7-1.2s1.4-0.4,2.1-0.4c0.9,0,1.7,0.2,2.4,0.5s1.2,0.8,1.7,1.4c0.4,0.6,0.8,1.2,1,2s0.3,1.5,0.3,2.3
		c0,0.9-0.1,1.7-0.4,2.5s-0.7,1.4-1.2,2s-1.2,1-1.9,1.4c-0.8,0.3-1.6,0.5-2.6,0.5s-1.9-0.2-2.7-0.6c-0.8-0.4-1.4-0.9-2-1.6
		c-0.5-0.7-0.9-1.5-1.2-2.3c-0.3-0.9-0.4-1.8-0.4-2.8v-1.2c0-0.9,0.1-1.8,0.2-2.7s0.4-1.7,0.7-2.5c0.3-0.8,0.7-1.5,1.2-2.1
		s1.1-1.2,1.8-1.7c0.7-0.5,1.5-0.8,2.4-1.1c0.9-0.3,1.9-0.4,3-0.4L82.7,126.8L82.7,126.8z M79.3,135.7c-0.4,0-0.7,0.1-1,0.2
		c-0.3,0.1-0.6,0.3-0.9,0.5s-0.5,0.4-0.7,0.7s-0.4,0.5-0.5,0.8v1c0,0.7,0.1,1.4,0.3,2s0.4,1,0.7,1.4s0.6,0.7,1,0.9s0.8,0.3,1.2,0.3
		c0.5,0,0.9-0.1,1.3-0.3s0.7-0.4,1-0.8c0.3-0.3,0.5-0.7,0.6-1.2s0.2-1,0.2-1.5s-0.1-1-0.2-1.5s-0.3-0.9-0.6-1.2
		c-0.3-0.3-0.6-0.6-0.9-0.8C80.3,135.8,79.8,135.7,79.3,135.7z"/>
</g>
<g>
	<path class="st1" d="M65.4,109.6c-0.3,0.2-0.7,0.3-1,0.5c-0.1,0-0.2,0.1-0.2,0.1c-0.1,0-0.1,0-0.2,0.1c0,0-0.1,0-0.1,0
		c-0.1,0-0.2,0.1-0.2,0.1c-0.6,0.2-1.2,0.4-1.7,0.6c-0.2,0-0.3,0-0.5,0.1c-1.6,0.3-3.2,0.7-4.9,1c-0.9,0-1.7,0-2.6,0
		c-0.7-0.1-1.5-0.2-2.2-0.3c-0.9-0.1-1.7-0.3-2.6-0.4c-0.3,0-0.6-0.1-0.9-0.1c-0.3-0.1-0.6-0.2-1-0.4c-0.1,0-0.1-0.1-0.2-0.1
		c-0.3-0.1-0.5-0.2-0.8-0.2c-1.8-0.8-3.6-1.7-5.3-2.5c0,0,0,0,0,0c-0.1,0-0.2-0.1-0.2-0.1c-0.4-0.3-0.9-0.7-1.3-1
		c-0.4-0.3-0.8-0.7-1.1-1c-0.1-0.1-0.2-0.1-0.3-0.2c-0.1-0.1-0.2-0.2-0.2-0.3c-0.3-0.3-0.6-0.6-0.9-1c-0.5-0.7-1-1.3-1.5-2
		c0,0-0.1-0.1-0.1-0.1c-0.1-0.1-0.1-0.2-0.2-0.3c0-0.1-0.1-0.2-0.1-0.2c0,0-0.1-0.1-0.1-0.1l0,0c0,0,0-0.1-0.1-0.1
		c0,0-0.1-0.1-0.1-0.1c-0.1-0.1-0.1-0.2-0.2-0.2c-0.1-0.1-0.1-0.2-0.2-0.3c0-0.1-0.1-0.1-0.1-0.2c0-0.1-0.1-0.2-0.1-0.2
		c-0.7-1.5-1.4-2.9-2.1-4.4c0-0.1,0-0.1-0.1-0.2c-0.1-0.3-0.2-0.7-0.3-1c-0.1-0.3-0.2-0.6-0.3-0.9c-0.3-2-0.5-4-0.8-6
		c0-0.1,0-0.2,0-0.3c0-1.3,0-2.6,0-3.8c0-0.1-0.2-0.4-0.3-0.4c-1.3-0.1-2.5-0.1-3.8-0.1c-0.1,0-0.3,0-0.4,0c-0.3,0-0.5-0.1-0.8-0.1
		c-0.2,0-0.4-0.1-0.6-0.1c-0.2,0-0.4,0-0.6,0c-0.1,0-0.1,0-0.2,0c-1.3-0.2-2.5-0.5-3.8-0.7c0,0,0,0,0,0c-0.1,0-0.1,0-0.2-0.1
		c-0.1,0-0.3-0.1-0.4-0.1c-1.5-0.6-3-1.1-4.5-1.7c-0.1,0-0.1-0.1-0.2-0.1c0,0,0,0-0.1,0c-0.3-0.1-0.5-0.3-0.8-0.4c0,0-0.1,0-0.1,0
		c-0.1,0-0.2-0.1-0.2-0.1c0,0-0.1-0.1-0.1-0.1c-0.1,0-0.1-0.1-0.2-0.1c0,0,0,0-0.1,0c-0.1-0.1-0.2-0.1-0.3-0.2
		c-0.1-0.1-0.2-0.1-0.3-0.2c-0.1-0.1-0.2-0.2-0.4-0.2l0,0c-0.1,0-0.2-0.1-0.2-0.1c-0.1,0-0.1-0.1-0.2-0.1c-0.1,0-0.1-0.1-0.2-0.1
		l0,0c-0.6-0.5-1.2-1-1.9-1.5c-0.4-0.4-0.7-0.7-1.1-1.1c0,0-0.1-0.1-0.1-0.1c0,0,0-0.1-0.1-0.1c-0.5-0.5-0.9-1-1.4-1.6
		c-0.3-0.4-0.5-0.7-0.8-1.1c-0.3-0.6-0.7-1.1-1-1.7c-0.6-1.3-1.2-2.6-1.8-3.9c-0.1-0.3-0.2-0.7-0.3-1c0-0.1,0-0.1-0.1-0.2
		C3.1,66.3,3,66.1,3,65.8c-0.1-0.2-0.1-0.3-0.2-0.5c0,0,0,0,0,0c-0.3-1.7-0.9-3.4-0.8-5.2c0-0.8,0-1.7,0-2.5
		c0.1-0.3,0.2-0.6,0.2-0.9c0.3-1.5,0.6-3.1,0.9-4.6c0.2-0.5,0.4-1.1,0.5-1.6c0.1-0.1,0.1-0.2,0.2-0.3c0,0,0.1,0,0-0.1
		c0.5-0.9,0.9-1.8,1.4-2.8c0-0.1,0.1-0.2,0.1-0.3c0,0,0.1-0.1,0.1-0.1c0.1-0.2,0.2-0.4,0.4-0.6c0,0,0.1-0.1,0.1-0.1
		c0.1-0.1,0.1-0.2,0.2-0.3c0,0,0.1,0,0.1-0.1c0.1-0.1,0.1-0.2,0.2-0.3c0,0,0,0,0,0c0.2-0.2,0.4-0.5,0.6-0.7c0,0,0-0.1,0.1-0.1
		c0.8-0.8,1.6-1.7,2.3-2.5l0,0c0,0,0.1-0.1,0.1-0.1c0.1-0.1,0.2-0.1,0.3-0.2c0.4-0.3,0.8-0.7,1.3-1c0.1-0.1,0.1-0.1,0.2-0.2
		c0.3-0.2,0.6-0.4,0.8-0.6c0.1,0,0.1-0.1,0.2-0.1c0.1,0,0.2-0.1,0.3-0.1c0.6-0.4,1.2-0.8,1.9-1.1c0.1,0,0.1-0.1,0.2-0.1l0,0l0,0
		c0.1-0.1,0.2-0.1,0.4-0.2l0,0c0,0,0,0,0,0c1-0.4,1.9-0.9,2.9-1.3c0.7-0.3,1.4-0.5,2-0.8c0.1,0,0.1-0.1,0.2-0.1l0,0l0,0
		c0.8-0.2,1.7-0.5,2.5-0.7c0,0,0.1,0,0.1,0.1c0,0,0,0.1,0,0.1c0,0.1,0,0.2,0.1,0.4c0,0.1,0,0.2,0,0.3c0,0.1,0,0.2,0.1,0.2
		c0.3,1.2,0.6,2.3,0.9,3.5c0.2,0.5,0.3,0.9,0.5,1.4c0,0.1,0.1,0.1,0.1,0.2c0,0.1,0.1,0.3,0.1,0.4c0,0.1,0.1,0.2,0.1,0.3l0,0
		c0.2,0.4,0.4,0.9,0.6,1.3c0,0,0,0,0,0.1c0,0,0,0.1,0,0.1c0.1,0.2,0.2,0.4,0.2,0.5c0,0,0,0.1,0,0.1c0.9,2,2,3.9,3.3,5.7
		c0.4,0.5,0.9,1.1,1.3,1.6c0.3,0.3,0.5,0.6,0.8,0.9c0.7,0.7,1.4,1.4,2,2.1c0.3,0.2,0.5,0.5,0.8,0.7c0.6,0.5,1.2,1,1.8,1.4
		c1.7,1.3,3.5,2.4,5.4,3.3c0.2,0.1,0.5,0.2,0.7,0.3c0.6,0.3,1.3,0.5,1.9,0.8c0.1,0,0.1,0.1,0.2,0.1c0.1,0,0.2,0.1,0.3,0.1
		c0.1,0,0.1,0,0.2,0.1c0.1,0,0.1,0,0.2,0.1c0.1,0,0.1,0,0.2,0c0.1,0,0.2,0.1,0.3,0.1c0.1,0,0.2,0,0.3,0c0.1,0,0.1,0.1,0.2,0.1
		c0.1,0,0.2,0.1,0.3,0.1c0.1,0.1,0.3,0.1,0.4,0.2c3.5,1,7,1.3,10.6,1.4c0.2,0,0.5,0.1,0.7,0.1c0.2,0,0.3,0,0.5,0
		c0.2,0,0.3,0.1,0.5,0.1c0,0,0.1,0,0.1,0c0.2,0,0.3,0,0.5,0.1c0.9,0.2,1.8,0.4,2.7,0.6c0.8,0.3,1.6,0.6,2.5,0.8
		c1.7,0.9,3.5,1.8,5.2,2.7c0.1,0.1,0.2,0.2,0.3,0.2c0.1,0,0.1,0.1,0.2,0.1c0,0,0,0,0.1,0c0.5,0.5,1.1,0.9,1.6,1.4
		c1.1,1.2,2.1,2.4,3.2,3.6c0.1,0.1,0.1,0.2,0.2,0.3c0.5,0.8,0.9,1.6,1.4,2.4c0.3,0.7,0.6,1.5,0.9,2.2c0.1,0.2,0.2,0.5,0.3,0.7
		c0,0.1,0.1,0.2,0.1,0.3c0,0,0,0.1,0.1,0.1c0,0.1,0,0.2,0.1,0.3c0,0.1,0.1,0.2,0.1,0.3c0.1,0.5,0.2,1,0.4,1.5
		c0.1,0.4,0.1,0.7,0.2,1.1c0.1,0.8,0.3,1.6,0.4,2.3c0,0.3,0,0.6,0.1,0.9c0,0.2,0,0.3,0,0.5c0,0.1,0,0.2,0,0.4c0,0.9,0,1.8,0,2.7
		c0,0.3,0,0.7-0.1,1c0,0.3,0,0.6-0.1,0.9c0,0.2,0,0.4,0,0.6c-0.2,1-0.4,2-0.6,3c-0.1,0.4-0.2,0.8-0.3,1.3c0,0.1-0.1,0.1-0.1,0.2
		c0,0,0,0.1,0,0.1c-0.2,0.4-0.3,0.8-0.5,1.2c-0.3,0.7-0.6,1.3-0.9,2c-0.5,0.9-1.1,1.7-1.6,2.6c0,0-0.1,0-0.1,0.1
		c-0.8,0.9-1.5,1.8-2.3,2.7c-0.1,0.1-0.2,0.1-0.3,0.2c-0.9,0.8-1.8,1.5-2.6,2.3c0,0-0.1,0-0.1,0c-0.8,0.5-1.7,1.1-2.5,1.6
		c-0.3,0.2-0.6,0.3-0.9,0.5c-0.1,0.1-0.2,0.1-0.3,0.2C65.8,109.5,65.6,109.6,65.4,109.6z"/>
	<path class="st1" d="M40.9,10.7C40.9,10.7,41,10.7,40.9,10.7c0.5-0.4,1-0.8,1.4-1.1c0.1,0,0.1-0.1,0.2-0.1c0.4-0.2,0.7-0.5,1.1-0.7
		c1-0.6,2-1.2,3-1.8c0.7-0.3,1.5-0.7,2.2-1c1.7-0.4,3.5-0.9,5.2-1.3c0.9-0.1,1.8-0.2,2.7-0.3c1,0.1,2.1,0.2,3.1,0.2
		c0.7,0.1,1.4,0.2,2.1,0.3l0,0c0,0,0,0,0,0c0.8,0.2,1.5,0.4,2.3,0.6c0,0,0,0,0,0c0.9,0.3,1.9,0.7,2.8,1c0.7,0.3,1.5,0.7,2.2,1
		c0.3,0.2,0.7,0.4,1,0.6c0.7,0.5,1.4,1,2.1,1.4c0.1,0.1,0.3,0.2,0.4,0.3c0.1,0.1,0.3,0.2,0.4,0.3c0,0,0,0,0,0l0,0l0,0l0,0
		c0.1,0.2,0.3,0.3,0.4,0.5c0.3,0.3,0.5,0.6,0.8,0.9c0.4,0.5,0.8,0.9,1.2,1.4c0,0,0,0.1,0.1,0.1c0,0,0.1,0.1,0.1,0.1
		c0.5,0.7,1,1.5,1.5,2.2c0,0,0,0.1,0,0.1c0,0.1,0.1,0.1,0.1,0.2c0,0,0,0,0,0s0,0,0,0c0.1,0.1,0.2,0.3,0.3,0.4
		c0.2,0.3,0.3,0.6,0.5,0.9c0.1,0.1,0.1,0.2,0.2,0.3c0,0,0,0.1,0.1,0.1c0.1,0.1,0.1,0.2,0.2,0.3c0,0.1,0.1,0.1,0.1,0.2
		c0.1,0.1,0.1,0.2,0.2,0.3c0,0,0,0,0,0.1c0.3,0.7,0.6,1.5,0.9,2.2c0.1,0.2,0.1,0.3,0.2,0.5c0.2,0.8,0.4,1.7,0.7,2.5
		c0.1,0.9,0.3,1.8,0.4,2.7c0,0.2,0,0.3,0,0.5c0,0,0,0.1,0,0.1c0,0.1,0,0.3,0,0.4c0,0.1,0,0.2,0,0.2c0,0.1,0,0.2,0,0.3
		c0,0.4,0,0.8,0,1.2c0,0.1,0,0.2,0,0.2c0,0.7,0,1.5,0,2.2c0.1,1.5,0.1,1.5,1.6,1.4c0.5,0,1,0,1.5,0.1c1.3,0.1,2.5,0.3,3.8,0.4
		c0.1,0,0.2,0,0.4,0c0.4,0.1,0.8,0.2,1.2,0.2c0.1,0,0.2,0,0.4,0c0.5,0.1,1,0.2,1.5,0.4c1.4,0.4,2.7,0.8,4,1.2c0,0,0,0,0,0
		c0.2,0.1,0.5,0.2,0.7,0.3l0,0l0,0c0.1,0.1,0.2,0.1,0.3,0.2c0.2,0.1,0.4,0.2,0.6,0.3c0,0,0.1,0,0.1,0c0.1,0,0.1,0.1,0.2,0.1
		c0.5,0.3,1.1,0.6,1.6,0.9c0.1,0.1,0.2,0.1,0.3,0.2c0.1,0,0.1,0.1,0.2,0.1l0,0c0.1,0.1,0.2,0.1,0.3,0.2c0.2,0.2,0.5,0.3,0.7,0.5
		c0.4,0.3,0.8,0.7,1.2,1c0,0,0.1,0,0.1,0.1c0,0,0.1,0,0.1,0.1c0.5,0.5,1,1,1.5,1.5c0.4,0.5,0.8,1,1.2,1.5l0,0
		c0.1,0.1,0.2,0.2,0.2,0.3c0.2,0.4,0.5,0.7,0.7,1.1c0.1,0.2,0.3,0.4,0.4,0.6c0,0.1,0.1,0.1,0.1,0.2c0,0.1,0.1,0.1,0.1,0.2
		c0,0,0,0,0,0c0.1,0.1,0.1,0.3,0.2,0.4c0.1,0.2,0.3,0.5,0.4,0.7l0,0c0,0.1,0.1,0.2,0.1,0.3c0,0,0,0,0,0c0,0.1,0.1,0.1,0.1,0.2
		c0,0,0,0,0,0c0,0.1,0.1,0.1,0.1,0.2c0,0.1,0,0.1,0.1,0.2c0,0.1,0.1,0.1,0.1,0.2c0,0,0,0.1,0,0.1c0.6,2,1.3,3.9,1.9,5.9
		c0,0.1,0.1,0.2,0.1,0.3c0.1,0.8,0.2,1.6,0.3,2.4c0,1,0,2.1,0,3.1c0,0.2,0,0.3,0,0.5c0,0.2,0,0.4,0,0.5c0,0.3-0.1,0.6-0.1,1
		c0,0.1,0,0.2,0,0.3c-0.1,0.5-0.2,0.9-0.2,1.4c0,0.1,0,0.2-0.1,0.3c0,0.1-0.1,0.3-0.1,0.4c-0.1,0.5-0.3,1-0.4,1.5
		c-0.1,0.2-0.1,0.4-0.2,0.6c0,0.1,0,0.2-0.1,0.2c-0.3,0.8-0.7,1.6-1,2.4c-0.5,1-1.1,1.9-1.6,2.9l0,0c-0.1,0.1-0.2,0.2-0.3,0.3
		c-0.9,1-1.7,2.1-2.6,3.1c-0.6,0.6-1.3,1.2-1.9,1.8c-0.1,0.1-0.2,0.2-0.3,0.2c-1.3,0.8-2.5,1.6-3.8,2.3c-0.5,0.3-1.1,0.6-1.7,0.9
		c0,0-0.1,0-0.1,0c-0.1,0.1-0.3,0.1-0.4,0.2c-0.3,0.1-0.6,0.3-0.9,0.4c-0.1,0-0.2,0.1-0.2,0.1c-0.1,0-0.2,0.1-0.3,0.1
		c-0.1,0-0.1,0.1-0.2,0.1c0,0-0.1,0-0.1,0c-0.6,0.2-1.2,0.4-1.7,0.6c-0.1,0-0.2,0.1-0.3,0.1c-0.1,0-0.1,0-0.2,0.1
		c-0.2,0.1-0.4,0.1-0.7,0.2c-0.2,0-0.3,0.1-0.5,0.1c-0.2,0-0.4,0-0.6,0.1c-0.1-0.6-0.2-1.1-0.4-1.6c-0.3-0.9-0.6-1.7-0.8-2.6
		c-0.1-0.2-0.1-0.4-0.2-0.7c0-0.1-0.1-0.2-0.1-0.4c0-0.1-0.1-0.2-0.1-0.2c-0.7-1.7-1.5-3.3-2.2-5c-0.1-0.1-0.2-0.3-0.2-0.4
		c-0.4-0.7-0.9-1.5-1.3-2.2c-0.4-0.5-0.7-1.1-1.1-1.6c-0.1-0.2-0.3-0.3-0.4-0.5c0,0-0.1-0.1-0.1-0.1c-0.1-0.1-0.2-0.2-0.3-0.3
		c-0.7-0.7-1.3-1.5-2-2.2l0,0c-0.1-0.1-0.2-0.2-0.2-0.3c-0.1-0.1-0.2-0.2-0.3-0.3c-0.6-0.6-1.3-1.2-1.9-1.8
		c-0.1-0.1-0.2-0.2-0.4-0.3c-0.1-0.1-0.2-0.1-0.3-0.2c-0.1-0.1-0.3-0.2-0.4-0.4c-0.6-0.4-1.1-0.8-1.7-1.1c0,0,0,0,0,0
		c-0.3-0.2-0.6-0.4-0.9-0.6c-0.2-0.1-0.3-0.2-0.5-0.3c0,0-0.1-0.1-0.1-0.1c-0.1,0-0.1,0-0.2-0.1c-0.1,0-0.1-0.1-0.2-0.1c0,0,0,0,0,0
		c-0.3-0.2-0.7-0.4-1-0.6c-0.8-0.3-1.6-0.7-2.3-1l0,0c0,0-0.1-0.1-0.1-0.1c-0.8-0.3-1.6-0.6-2.4-0.9c-0.1,0-0.1,0-0.2,0
		c-0.4-0.1-0.9-0.3-1.3-0.4c-0.1,0-0.2,0-0.3,0c-0.3-0.1-0.7-0.3-1-0.3c-1.2-0.2-2.4-0.4-3.5-0.6c-0.2,0-0.3,0-0.5,0
		c-0.2,0-0.4-0.1-0.6-0.1c-0.2,0-0.3,0-0.5,0c-0.1,0-0.2,0-0.2,0c-0.3,0-0.7-0.1-1-0.1c-0.4,0-0.8,0-1.2,0c0,0-0.1,0-0.1,0
		c0,0-0.1,0-0.1,0c-0.1,0-0.2,0-0.3,0c-0.1,0-0.3,0-0.4,0c-0.6-0.1-1.2-0.1-1.8-0.2c-0.1,0-0.2,0-0.2,0c0,0-0.1,0-0.1,0
		c-0.2,0-0.5-0.1-0.7-0.1c-0.1,0-0.2,0-0.2-0.1c-0.1,0-0.2,0-0.3-0.1c-0.1,0-0.2,0-0.4-0.1c-0.1,0-0.2-0.1-0.4-0.1
		c-1-0.3-2.1-0.6-3.1-0.9c-0.8-0.2-1.5-0.5-2.2-0.8c-0.1,0-0.2-0.1-0.3-0.1c0,0-0.1,0-0.1-0.1c-0.1,0-0.1-0.1-0.2-0.1
		c-0.1,0-0.1-0.1-0.2-0.1c-0.7-0.3-1.3-0.7-2-1c-0.1-0.1-0.1-0.1-0.2-0.2c-0.6-0.4-1.3-0.9-1.9-1.3c0,0-0.1-0.1-0.1-0.1
		c-0.1-0.1-0.2-0.1-0.2-0.2c-0.4-0.3-0.7-0.6-1.1-0.9c-0.6-0.6-1.1-1.2-1.7-1.8c-0.2-0.3-0.5-0.6-0.7-0.9c0-0.1,0-0.1-0.1-0.2
		c-1.4-1.9-2.5-4-3.2-6.3c-0.4-1.3-0.6-2.6-1-3.8c-0.1-0.6-0.2-1.2-0.2-1.7c0-0.2,0-0.5,0-0.7c0-0.9-0.1-1.8-0.1-2.7
		c0-0.5,0-1,0-1.5c0.1-0.7,0.1-1.4,0.2-2.1c0.3-1.5,0.6-3,0.9-4.6c0-0.1,0-0.1,0-0.2c0-0.1,0.1-0.1,0.1-0.2c0.1-0.4,0.3-0.8,0.4-1.2
		c0.5-1,1.1-2,1.6-3c0.1-0.1,0.1-0.2,0.2-0.3c0,0,0.1-0.1,0.1-0.1c0.1-0.2,0.2-0.3,0.3-0.5c0.1-0.1,0.2-0.3,0.3-0.4
		c0.1-0.2,0.3-0.4,0.4-0.6c0,0,0.1,0,0.1-0.1c0.1-0.1,0.2-0.3,0.3-0.4c0,0,0,0,0,0c0,0,0.1-0.1,0.1-0.1c0.1-0.1,0.1-0.2,0.2-0.3
		C39.1,12.5,40,11.6,40.9,10.7z"/>
</g>
</svg>
