<svg xmlns="http://www.w3.org/2000/svg" width="200" height="201" fill="none"><g fill="#C1433F" clip-path="url(#a)"><path d="M117.394 195.183c-.555.37-1.295.555-1.85.925-.185 0-.37.185-.37.185-.185 0-.185 0-.37.186h-.185c-.185 0-.371.185-.371.185-1.11.37-2.22.74-3.145 1.11-.37 0-.555 0-.926.185-2.96.555-5.921 1.295-9.067 1.85h-4.811c-1.296-.185-2.776-.37-4.071-.555-1.666-.185-3.146-.555-4.811-.74-.556 0-1.11-.185-1.666-.185-.555-.185-1.11-.37-1.85-.74-.185 0-.185-.185-.37-.185-.556-.185-.926-.37-1.48-.37-3.332-1.481-6.663-3.146-9.808-4.627-.185 0-.37-.185-.37-.185-.74-.555-1.666-1.295-2.406-1.85s-1.48-1.295-2.036-1.851c-.185-.185-.37-.185-.555-.37s-.37-.37-.37-.555c-.555-.555-1.11-1.11-1.665-1.85-.926-1.296-1.85-2.406-2.776-3.701l-.185-.185c-.185-.185-.185-.37-.37-.555 0-.185-.185-.371-.185-.371l-.185-.185s0-.185-.185-.185l-.185-.185c-.186-.185-.186-.37-.37-.37-.186-.185-.186-.37-.37-.555 0-.185-.186-.185-.186-.37s-.185-.37-.185-.37c-1.295-2.776-2.59-5.366-3.886-8.142 0-.185 0-.185-.185-.37-.185-.555-.37-1.296-.555-1.851l-.555-1.665c-.555-3.701-.925-7.402-1.48-11.103v-7.587c0-.185-.37-.74-.556-.74-2.405-.185-4.626-.185-7.031-.185h-.74c-.556 0-.926-.185-1.481-.185-.37 0-.74-.185-1.11-.185H40.6c-2.406-.371-4.627-.926-7.032-1.296-.186 0-.186 0-.37-.185-.186 0-.556-.185-.74-.185-2.776-1.11-5.552-2.035-8.328-3.146-.185 0-.185-.185-.37-.185h-.185c-.555-.185-.925-.555-1.48-.74h-.185c-.186 0-.37-.185-.37-.185l-.186-.185c-.185 0-.185-.185-.37-.185H20.8c-.185-.185-.37-.185-.555-.37s-.37-.185-.555-.37-.37-.37-.74-.37c-.185 0-.37-.185-.37-.185-.186 0-.186-.185-.37-.185-.186 0-.186-.186-.37-.186-1.11-.925-2.221-1.85-3.516-2.775l-2.036-2.036-.185-.185s0-.185-.185-.185c-.925-.925-1.666-1.85-2.59-2.961-.556-.74-.926-1.295-1.481-2.035-.555-1.11-1.296-2.036-1.85-3.146l-3.332-7.217c-.185-.555-.37-1.295-.555-1.85 0-.185 0-.185-.185-.37.185-.926 0-1.296 0-1.851-.185-.37-.185-.555-.37-.925-.555-3.146-1.665-6.292-1.48-9.623v-4.626c.185-.555.37-1.11.37-1.665.555-2.776 1.11-5.737 1.665-8.513.37-.925.74-2.035.926-2.96.185-.185.185-.37.37-.555 0 0 .185 0 0-.186.925-1.665 1.665-3.33 2.59-5.18 0-.186.185-.37.185-.556l.185-.185c.185-.37.37-.74.74-1.11l.186-.185c.185-.185.185-.37.37-.555 0 0 .185 0 .185-.186.185-.185.185-.37.37-.555.37-.37.74-.925 1.11-1.295 0 0 0-.185.185-.185 1.48-1.48 2.961-3.146 4.256-4.626l.185-.185c.185-.185.37-.185.556-.37.74-.556 1.48-1.296 2.405-1.85l.37-.371c.555-.37 1.11-.74 1.48-1.11.186 0 .186-.185.37-.185.186 0 .37-.185.556-.185 1.11-.74 2.22-1.48 3.516-2.036.185 0 .185-.185.37-.185.185-.185.37-.185.74-.37 1.85-.74 3.516-1.665 5.366-2.406 1.296-.555 2.591-.925 3.701-1.48.186 0 .186-.185.37-.185 1.48-.37 3.146-.925 4.627-1.295 0 0 .185 0 .185.185v.185c0 .185 0 .37.185.74v.555c0 .185 0 .37.185.37.555 2.22 1.11 4.256 1.665 6.477.37.925.556 1.665.926 2.59 0 .186.185.186.185.37 0 .186.185.556.185.74 0 .186.185.37.185.556.37.74.74 1.665 1.11 2.405v.371c.185.37.37.74.37.925v.185a60 60 0 0 0 6.107 10.548c.74.925 1.665 2.035 2.405 2.96.555.556.925 1.11 1.48 1.666 1.296 1.295 2.591 2.59 3.702 3.886.555.37.925.925 1.48 1.295 1.11.925 2.22 1.85 3.33 2.59a55.6 55.6 0 0 0 9.994 6.107c.37.185.925.371 1.295.556 1.11.555 2.406.925 3.516 1.48.185 0 .185.185.37.185s.37.185.555.185.185 0 .37.185c.185 0 .185 0 .37.185h.37c.185 0 .37.185.555.185h.556c.185 0 .185.185.37.185s.37.185.555.185c.185.185.555.185.74.37 6.477 1.851 12.953 2.406 19.615 2.591.37 0 .925.185 1.295.185h.926c.37 0 .555.185.925.185h.185c.37 0 .555 0 .925.185l4.997 1.111c1.48.555 2.96 1.11 4.626 1.48 3.146 1.665 6.476 3.331 9.622 4.996.185.185.37.37.555.37s.185.185.37.185h.186c.925.926 2.035 1.666 2.96 2.591 2.036 2.221 3.886 4.441 5.922 6.662.185.185.185.37.37.555.925 1.48 1.665 2.961 2.591 4.441.555 1.295 1.11 2.776 1.665 4.071.185.37.37.925.555 1.295 0 .185.185.371.185.556 0 0 0 .185.185.185 0 .185 0 .37.185.555 0 .185.185.37.185.555.185.925.37 1.85.741 2.776.185.74.185 1.295.37 2.035.185 1.481.555 2.961.74 4.256 0 .555 0 1.111.185 1.666v6.6610000000000005c0 .556 0 1.296-.185 1.851 0 .555 0 1.11-.185 1.665v1.111l-1.11 5.551c-.186.74-.371 1.48-.556 2.406 0 .185-.185.185-.185.37v.185c-.37.74-.555 1.48-.925 2.22-.555 1.296-1.11 2.406-1.665 3.701-.926 1.666-2.036 3.146-2.961 4.812 0 0-.185 0-.185.185-1.481 1.665-2.776 3.331-4.256 4.996-.185.185-.37.185-.555.37-1.666 1.48-3.331 2.776-4.812 4.256h-.185c-1.48.925-3.146 2.036-4.626 2.961-.555.37-1.11.555-1.665.925-.185.185-.37.185-.556.37 0-.74-.37-.555-.74-.555M72.058 12.17c.925-.74 1.85-1.48 2.59-2.035.186 0 .186-.185.37-.185.74-.37 1.296-.925 2.036-1.295l5.552-3.331c1.295-.555 2.775-1.295 4.07-1.85 3.146-.74 6.477-1.666 9.623-2.406l4.996-.555c1.851.185 3.886.37 5.737.37l3.886.555c1.48.37 2.776.74 4.256 1.11 1.665.555 3.516 1.296 5.181 1.85 1.296.556 2.776 1.296 4.071 1.851.556.37 1.296.74 1.851 1.11 1.295.926 2.591 1.851 3.886 2.591.185.185.555.37.74.555s.555.37.74.555c.185.37.555.556.74.926.556.555.926 1.11 1.481 1.665.74.925 1.48 1.665 2.22 2.59 0 0 0 .186.185.186l.185.185c.926 1.295 1.851 2.776 2.776 4.07v.186c0 .185.185.185.185.37.185.185.37.555.555.74.37.555.556 1.11.926 1.666.185.185.185.37.37.555 0 0 0 .185.185.185.185.185.185.37.37.555 0 .185.185.185.185.37.185.185.185.37.37.555v.185c.555 1.296 1.11 2.776 1.665 4.071.186.37.186.555.371.926.37 1.48.74 3.145 1.295 4.626.185 1.665.555 3.33.74 4.996v9.438c.185 2.775.185 2.775 2.961 2.59.925 0 1.85 0 2.776.185 2.405.185 4.626.556 7.031.74h.741c.74.186 1.48.37 2.22.37h.74c.926.186 1.851.37 2.776.74 2.591.741 4.996 1.481 7.402 2.221.37.185.925.37 1.295.556.185.185.37.185.555.37l1.111.555h.185c.185 0 .185.185.37.185.925.555 2.035 1.11 2.961 1.665.185.185.37.185.555.37.185 0 .185.185.37.185.185.185.37.185.555.37.37.37.925.556 1.295.926.741.555 1.481 1.295 2.221 1.85 0 0 .185 0 .185.185 0 0 .185 0 .185.185l2.776 2.776 2.22 2.776c.185.185.37.37.37.555.371.74.926 1.295 1.296 2.035.185.37.555.74.74 1.11 0 .186.185.186.185.37 0 .186.185.186.185.37.185.186.185.556.37.741.185.37.555.925.74 1.295 0 .185.185.37.185.556 0 .185.186.185.186.37s.185.185.185.37 0 .185.185.37c0 .185.185.185.185.37v.185c1.11 3.701 2.405 7.217 3.516 10.918 0 .185.185.37.185.555l.555 4.441v7.587c0 .555-.185 1.11-.185 1.851v.555c-.185.925-.37 1.665-.37 2.59 0 .185 0 .371-.185.556 0 .185-.185.555-.185.74-.186.925-.556 1.85-.741 2.775-.185.371-.185.741-.37 1.111 0 .185 0 .37-.185.37-.555 1.48-1.295 2.961-1.85 4.441-.926 1.85-2.036 3.516-2.961 5.366l-.555.556c-1.666 1.85-3.146 3.886-4.811 5.736-1.111 1.11-2.406 2.221-3.516 3.331-.185.185-.37.37-.556.37-2.405 1.48-4.626 2.961-7.031 4.256-.926.555-2.036 1.11-3.146 1.666h-.185c-.185.185-.555.185-.74.37-.556.185-1.111.555-1.666.74-.185 0-.37.185-.37.185-.185 0-.37.185-.555.185s-.185.185-.37.185h-.185c-1.111.37-2.221.74-3.146 1.11-.185 0-.37.185-.555.185s-.185 0-.37.185c-.37.185-.74.185-1.296.37-.37 0-.555.186-.925.186s-.74 0-1.11.185c-.185-1.111-.37-2.036-.74-2.961-.555-1.666-1.111-3.146-1.481-4.811-.185-.371-.185-.741-.37-1.296 0-.185-.185-.37-.185-.74 0-.185-.185-.37-.185-.37-1.295-3.146-2.776-6.107-4.071-9.253-.185-.185-.37-.555-.37-.74-.74-1.295-1.666-2.775-2.406-4.071-.74-.925-1.295-2.035-2.035-2.961-.185-.37-.555-.555-.74-.925l-.185-.185-.556-.555c-1.295-1.295-2.405-2.776-3.701-4.071-.185-.185-.37-.37-.37-.555l-.555-.555c-1.11-1.111-2.405-2.221-3.516-3.331a2.6 2.6 0 0 0-.74-.555c-.185-.185-.37-.185-.555-.37s-.555-.371-.74-.741c-1.111-.74-2.036-1.48-3.146-2.035l-1.666-1.11c-.37-.186-.555-.37-.925-.556l-.185-.185c-.185 0-.185 0-.37-.185-.185 0-.185-.185-.37-.185-.555-.37-1.295-.74-1.85-1.11-1.481-.555-2.961-1.295-4.257-1.85l-.185-.186-4.441-1.665h-.37c-.74-.185-1.665-.555-2.406-.74h-.555c-.555-.185-1.295-.555-1.85-.555-2.221-.37-4.441-.74-6.477-1.11h-.925c-.37 0-.74-.186-1.11-.186h-1.296c-.555 0-1.295-.185-1.85-.185H99.26c-1.11-.185-2.22-.185-3.331-.37h-.5549999999999999c-.37 0-.925-.185-1.295-.185-.186 0-.37 0-.37-.185-.186 0-.37 0-.556-.185-.185 0-.37 0-.74-.185-.185 0-.37-.185-.74-.185-1.85-.555-3.886-1.11-5.737-1.665-1.48-.37-2.775-.926-4.07-1.48-.186 0-.37-.186-.556-.186 0 0-.185 0-.185-.185-.185 0-.185-.185-.37-.185s-.185-.185-.37-.185c-1.295-.555-2.406-1.295-3.701-1.85l-.37-.37c-1.11-.74-2.406-1.666-3.516-2.406l-.185-.185c-.185-.185-.37-.185-.37-.37-.74-.555-1.295-1.11-2.036-1.666-1.11-1.11-2.035-2.22-3.145-3.33-.37-.556-.926-1.111-1.296-1.666 0-.185 0-.185-.185-.37-2.59-3.516-4.626-7.402-5.922-11.658-.74-2.406-1.11-4.812-1.85-7.032-.185-1.11-.37-2.22-.37-3.146v-1.295c0-1.666-.185-3.331-.185-4.996v-2.776c.185-1.296.185-2.59.37-3.886.555-2.776 1.11-5.552 1.665-8.513v-.37c0-.185.185-.185.185-.37.186-.74.556-1.48.74-2.22.926-1.85 2.036-3.701 2.961-5.552.186-.185.186-.37.37-.555l.186-.185c.185-.37.37-.555.555-.925.185-.185.37-.555.555-.74.185-.37.555-.74.74-1.11 0 0 .185 0 .185-.186.185-.185.37-.555.555-.74l.185-.185c.185-.185.185-.37.37-.555 1.85-1.48 3.516-3.146 5.182-4.811"/></g><defs><clipPath id="a"><path fill="#fff" d="M0 .326h200v200H0z"/></clipPath></defs></svg>