<svg xmlns="http://www.w3.org/2000/svg" width="200" height="167" fill="none"><g clip-path="url(#a)"><path fill="#808284" d="M199.514 58.72c-1.44-.36-2.16-.72-3.239-1.08-14.397-4.32-28.793-5.4-43.189-2.16-10.797 2.52-19.795 7.918-24.473 18.715-2.52 5.399-3.24 10.797-3.6 16.556-.359 7.918.36 15.476 3.24 22.674 4.318 10.797 12.236 17.635 23.393 20.514 12.597 3.239 25.554 2.879 38.15 0 3.239-.72 6.119-1.439 9.358-2.519 0 .36.36 1.08.36 1.44v5.038c0 5.399 1.079 4.319-4.319 5.399-15.836 3.959-31.672 4.319-47.867.72-8.638-1.44-16.916-5.039-23.394-11.877-5.399-5.759-8.998-12.597-10.797-20.155-2.88-11.517-3.24-23.034-.36-34.55 3.959-16.196 14.396-25.914 30.232-30.593 10.797-3.239 21.954-3.599 33.111-3.239 7.198.36 14.396 1.44 21.594 3.6 1.44.36 2.16 1.079 2.16 2.518-.36 2.88-.36 5.759-.36 8.998"/><path fill="#00ADEF" d="m145.168 1.134 10.797 19.435c2.16 3.96 4.319 7.558 6.478 11.517.36.36.36 1.08.72 1.8-1.799.36-3.599.36-5.038.36-.36 0-1.08-.72-1.44-1.44-4.319-7.558-8.638-15.476-12.957-23.034-.719-1.44-1.799-1.8-3.599-1.8-10.077 1.08-19.794 2.16-29.872 2.88-9.717 1.08-19.435 1.8-29.152 2.879-9.717 1.08-19.795 1.8-29.512 2.88-9.718 1.079-19.435 1.799-29.153 2.878-3.239.36-6.118.72-8.997 1.08-.72 0-1.44.36-2.52.36.36.72.72 1.44.72 1.8 21.595 42.108 43.549 84.217 65.143 126.326.72 1.44 1.44 1.44 2.88 1.44l35.63-7.558c1.799-.36 2.879 0 3.959 1.079 2.879 2.88 6.118 5.399 8.998 7.918.359.36.719.72 1.439 1.08-1.439.36-2.519.72-3.599 1.08l-51.826 11.877c-1.44.36-2.16 0-2.88-1.44-8.277-15.836-16.195-31.672-24.473-47.867C31.798 87.151 16.682 57.999 1.926 28.487c-.36-.72-1.08-1.08-1.44-1.8v-.72l6.479-9.717c.36-.72 1.44-1.08 2.159-1.44 4.679-.72 9.718-1.08 14.396-1.439 11.877-1.08 23.754-2.52 35.63-3.599 11.878-1.08 23.755-2.52 35.631-3.6 13.317-1.439 26.633-2.878 40.31-3.958 2.519-.36 5.398-.72 7.918-1.08z"/><path fill="#00ADEF" d="M65.989 45.043c.36.72.36 1.08.72 1.44 9.357 18.355 19.075 36.71 28.432 55.065 1.44 2.879.72 2.519 3.96 1.799.36 0 .72 0 1.439-.359 0 .359.36 1.079.36 1.439.36 2.16 0 2.16-1.8 2.879-1.08.36-2.52.36-3.599.72-1.44.36-2.16 0-2.52-1.439-5.398-11.157-11.156-21.955-16.555-33.112-4.319-8.277-8.278-16.555-12.596-24.833-1.08-1.8.72-5.039 2.879-5.399 7.918-.72 15.476-1.44 23.394-2.519 9.717-1.08 19.434-1.8 28.792-2.88 2.159-.36 4.679-.36 6.838-.719.36 0 1.08.36 1.44.72 1.08 1.8 2.159 3.239 2.879 5.038v1.08c-.36-.36-.72-.36-1.08-.72-.719-1.08-1.439-2.519-2.159-3.599-.36-1.08-1.08-1.44-2.519-1.08-6.119.72-12.237 1.08-18.356 1.8-10.077 1.08-19.794 1.8-29.872 2.88-3.239 1.08-6.478 1.439-10.077 1.799M103.419 18.41c1.44-.36 2.52-.36 3.599-.36.36 0 .72.36.72.36 1.8 2.879 3.239 6.118 5.039 8.997-2.88 1.08-3.959.72-5.399-1.44-1.08-2.159-2.519-4.678-3.959-7.557M101.619 28.847c-3.599 1.08-3.599 1.08-5.398-1.8-1.44-2.159-2.52-4.678-3.959-6.838 2.88-1.44 3.959-1.08 5.398 1.44 1.44 2.16 2.52 4.679 3.959 7.198M58.791 22.729c1.44 0 2.52-.36 3.6-.36.359 0 1.079.36 1.079.36 1.8 2.879 3.239 6.118 5.038 8.997-3.239 1.08-3.599 1.08-5.038-1.44-1.8-2.519-3.24-5.038-4.679-7.557M69.588 21.649c1.44 0 2.52-.36 3.6-.36.36 0 .719.36 1.079.36 1.8 2.88 3.239 6.118 4.679 8.998-2.52 1.08-3.6 1.08-4.68-1.08-1.439-2.52-3.238-5.039-4.678-7.918M90.463 29.927c-3.24 1.08-3.6 1.08-5.04-1.44s-2.878-5.038-4.318-7.198c2.88-1.44 3.959-1.08 5.399 1.44s2.879 4.679 3.959 7.198"/></g><defs><clipPath id="a"><path fill="#fff" d="M0 .85h200v165.83H0z"/></clipPath></defs></svg>