<svg xmlns="http://www.w3.org/2000/svg" width="200" height="167" fill="none"><g clip-path="url(#a)"><path fill="#808284" d="M199.51 58.72c-1.44-.36-2.16-.72-3.23-1.08-14.4-4.32-28.8-5.4-43.2-2.16-10.8 2.52-19.79 7.92-24.47 18.72-2.52 5.4-3.24 10.8-3.6 16.55-.36 7.92.36 15.48 3.24 22.67 4.32 10.8 12.24 17.64 23.4 20.52 12.6 3.24 25.55 2.88 38.15 0a90 90 0 0 0 9.35-2.52c0 .36.36 1.08.36 1.44v5.04c0 5.4 1.08 4.32-4.31 5.4a102.4 102.4 0 0 1-47.87.72c-8.64-1.44-16.92-5.04-23.4-11.88-5.4-5.76-9-12.6-10.8-20.15-2.87-11.52-3.23-23.04-.35-34.56 3.96-16.2 14.4-25.9 30.23-30.59 10.8-3.24 21.95-3.6 33.11-3.24 7.2.36 14.4 1.44 21.6 3.6 1.43.36 2.15 1.08 2.15 2.52-.36 2.88-.36 5.76-.36 9"/><path fill="#00ADEF" d="m145.17 1.13 10.8 19.44c2.16 3.96 4.31 7.56 6.47 11.52.36.36.36 1.08.72 1.8-1.8.36-3.6.36-5.03.36-.37 0-1.09-.72-1.44-1.44-4.32-7.56-8.64-15.48-12.96-23.04-.72-1.44-1.8-1.8-3.6-1.8-10.08 1.08-19.8 2.16-29.87 2.88-9.72 1.08-19.44 1.8-29.15 2.88-9.72 1.08-19.8 1.8-29.52 2.88s-19.43 1.8-29.15 2.88c-3.24.36-6.12.72-9 1.08-.72 0-1.44.36-2.52.36.36.72.72 1.44.72 1.8 21.6 42.1 43.55 84.22 65.15 126.33.72 1.44 1.44 1.44 2.88 1.44q17.8-3.79 35.63-7.56c1.8-.36 2.88 0 3.95 1.08 2.88 2.88 6.12 5.4 9 7.91.36.36.72.72 1.44 1.08-1.44.36-2.52.72-3.6 1.08l-51.82 11.88c-1.44.36-2.16 0-2.88-1.44-8.28-15.84-16.2-31.67-24.48-47.87C31.8 87.16 16.68 58 1.93 28.5c-.36-.72-1.08-1.08-1.44-1.8v-.72l6.47-9.72c.36-.72 1.44-1.08 2.16-1.44 4.68-.72 9.72-1.08 14.4-1.44 11.88-1.08 23.75-2.52 35.63-3.6s23.75-2.52 35.63-3.6c13.32-1.44 26.63-2.88 40.31-3.96 2.52-.36 5.4-.72 7.92-1.08z"/><path fill="#00ADEF" d="M65.99 45.04c.36.72.36 1.08.72 1.44 9.36 18.36 19.07 36.71 28.43 55.07 1.44 2.88.72 2.52 3.96 1.8.36 0 .72 0 1.44-.36 0 .36.36 1.08.36 1.44.36 2.16 0 2.16-1.8 2.88-1.08.36-2.52.36-3.6.72-1.44.36-2.16 0-2.52-1.44-5.4-11.16-11.16-21.96-16.55-33.11-4.32-8.28-8.28-16.56-12.6-24.84-1.08-1.8.72-5.04 2.88-5.4 7.92-.72 15.47-1.44 23.4-2.52 9.71-1.08 19.43-1.8 28.78-2.88 2.16-.36 4.68-.36 6.84-.72.36 0 1.08.36 1.44.72 1.08 1.8 2.16 3.24 2.88 5.04v1.08c-.36-.36-.72-.36-1.08-.72-.72-1.08-1.44-2.52-2.16-3.6-.36-1.08-1.08-1.44-2.52-1.08-6.12.72-12.23 1.08-18.35 1.8-10.08 1.08-19.8 1.8-29.87 2.88-3.24 1.08-6.48 1.44-10.08 1.8M103.42 18.41c1.44-.36 2.52-.36 3.6-.36.36 0 .72.36.72.36 1.8 2.88 3.24 6.12 5.04 9-2.88 1.08-3.96.72-5.4-1.44-1.08-2.16-2.52-4.68-3.96-7.56M101.62 28.85c-3.6 1.08-3.6 1.08-5.4-1.8-1.44-2.16-2.52-4.68-3.96-6.84 2.88-1.44 3.96-1.08 5.4 1.44 1.44 2.16 2.52 4.68 3.96 7.2M58.8 22.73c1.43 0 2.51-.36 3.59-.36.36 0 1.08.36 1.08.36 1.8 2.88 3.24 6.12 5.04 9-3.24 1.08-3.6 1.08-5.04-1.44a86 86 0 0 1-4.68-7.56M69.59 21.65c1.44 0 2.52-.36 3.6-.36.36 0 .72.36 1.08.36 1.8 2.88 3.24 6.12 4.68 9-2.52 1.08-3.6 1.08-4.68-1.08-1.44-2.52-3.24-5.04-4.68-7.92M90.46 29.93c-3.24 1.08-3.6 1.08-5.04-1.44a127 127 0 0 0-4.31-7.2c2.87-1.44 3.95-1.08 5.4 1.44 1.43 2.52 2.87 4.68 3.95 7.2"/></g><defs><clipPath id="a"><path fill="#fff" d="M0 .85h200v165.83H0z"/></clipPath></defs></svg>