<svg xmlns="http://www.w3.org/2000/svg" width="200" height="134" fill="none"><g clip-path="url(#a)"><path fill="#77B900" d="M21.3 57.16s18.1-26.57 53.91-29.27v-9.63C35.16 21.73.9 55.23.9 55.23s19.64 56.6 74.32 61.61v-10.4c-40.43-5-53.9-49.28-53.9-49.28m53.91 29.26v9.24C44.8 90.27 36.32 58.7 36.32 58.7s14.63-16.18 38.9-18.87v10.4c-12.72-1.55-22.73 10.4-22.73 10.4s5.4 20.01 22.72 25.79m0-85.87v17.71c1.16 0 2.31 0 3.47-.38 45.43-1.54 74.7 36.97 74.7 36.97s-33.89 41.58-69.31 41.58c-3.08 0-6.16-.38-9.24-.77v11.17c2.3.38 5 .38 7.7.38 32.73 0 56.6-16.94 79.7-36.58 3.86 3.08 19.26 10.4 22.72 13.86-21.94 18.49-72.77 33.12-101.65 33.12-2.7 0-5.4 0-8.09-.39v15.4h124.76V.56zm0 39.28V27.89h3.47C111.4 26.74 132.58 56 132.58 56s-23.1 31.96-47.74 31.96c-3.47 0-6.93-.38-9.63-1.54v-36.2c12.7 1.54 15.4 7.32 22.72 19.64l16.94-14.24s-12.32-16.18-33.11-16.18c-2.31 0-4.62.39-6.55.39"/></g><defs><clipPath id="a"><path fill="#fff" d="M0 .26h200v133H0z"/></clipPath></defs></svg>