<svg xmlns="http://www.w3.org/2000/svg" width="201" height="134" fill="none"><g clip-path="url(#a)"><path fill="#77B900" d="M21.803 57.156S39.9 30.586 75.71 27.89v-9.626C35.665 21.73 1.395 55.23 1.395 55.23s19.638 56.604 74.316 61.61v-10.397c-40.431-5.006-53.908-49.287-53.908-49.287M75.71 86.42v9.242C45.291 90.27 36.82 58.696 36.82 58.696s14.632-16.173 38.891-18.868v10.396c-12.707-1.54-22.718 10.397-22.718 10.397s5.39 20.023 22.718 25.8m0-85.868v17.713c1.155 0 2.31 0 3.466-.386 45.437-1.54 74.701 36.966 74.701 36.966s-33.885 41.587-69.31 41.587c-3.081 0-6.162-.386-9.242-.77v11.166c2.31.385 5.006.385 7.701.385 32.73 0 56.604-16.942 79.708-36.58 3.85 3.08 19.253 10.396 22.718 13.862-21.948 18.483-72.776 33.115-101.656 33.115-2.695 0-5.39 0-8.086-.385v15.402H200.47V.552zm0 39.276V27.89h3.466c32.73-1.155 53.908 28.11 53.908 28.11s-23.104 31.96-47.747 31.96c-3.466 0-6.931-.386-9.627-1.54V50.223c12.707 1.54 15.402 7.317 22.719 19.639l16.942-14.248S103.05 39.443 82.257 39.443c-2.31 0-4.62.385-6.546.385"/></g><defs><clipPath id="a"><path fill="#fff" d="M.5.265h200v133H.5z"/></clipPath></defs></svg>