<svg xmlns="http://www.w3.org/2000/svg" width="200" height="232" fill="none"><g clip-path="url(#a)"><path fill="#4B90C1" d="M101.849 39.717v75.264l65.133 37.632V77.349z"/><path fill="#56C2E4" d="m196.797 169.982-29.526-17.08v2.027l-1.737.868 29.527 17.079-93.212 53.554v-34.159l-1.737.869-1.737-.869v34.159L5.453 172.587l29.527-17.079-1.737-.869v-2.026L3.716 169.982V62.296l29.527 17.08v-1.738l1.737-.868L5.453 59.4 98.665 5.848v34.158l1.736-.868 1.448.868V5.558l93.212 53.843-29.527 17.08 1.447.868v2.026l29.527-17.079zm1.448-112.318L101.849 1.795l-1.737-.868-1.737.868L.532 58.533v115.212l98.133 56.448 1.736.868 1.737-.868 96.107-55.58 1.737-.868V58.533z"/><path fill="#2C4A8D" d="M101.849 114.981V39.717l-1.447-.868-1.737.868v75.264l-65.133 37.632v2.027l1.737.868 65.133-37.632 65.132 37.632 1.447-.868v-2.027z"/><path fill="#4568A3" d="M33.532 77.638v75.264l65.133-37.632V40.006z"/><path fill="#56C2E4" d="M100.112 117.876 34.98 155.508l65.132 37.632 65.132-37.632z"/></g><defs><clipPath id="a"><path fill="#fff" d="M0 .755h200v231H0z"/></clipPath></defs></svg>