<svg xmlns="http://www.w3.org/2000/svg" width="200" height="109" fill="none"><g clip-path="url(#a)"><path fill="#E95223" d="M142.578 8.412c-2.592 4.257-4.721 7.96-4.906 8.33-.185.463 4.258.74 9.904.74s10.274-.185 10.274-.37c0-.925-9.533-16.29-10.089-16.29-.278 0-2.684 3.424-5.183 7.59"/><path fill="#000" d="M58.163 28.034c-5.554 1.759-9.164 4.72-12.033 9.627-2.407 3.98-2.592 5.09-2.592 14.069 0 8.978.185 10.089 2.592 14.161 1.388 2.407 4.165 5.462 6.016 6.665 4.813 3.24 12.866 4.535 19.068 3.24 11.662-2.407 18.142-10.46 18.42-22.863.277-11.477-3.703-19.53-11.663-23.603-4.814-2.406-14.44-3.054-19.808-1.296m16.568 9.72c3.332 3.702 4.813 9.44 4.165 16.475-.648 7.034-2.591 10.922-6.48 13.236-6.016 3.702-13.143 1.666-16.567-4.906-2.592-4.905-2.87-17.123-.556-21.474 4.35-8.053 13.7-9.719 19.438-3.332"/><path fill="#0058A3" d="M180.25 28.127c-13.143 3.702-20.548 15.642-17.957 28.786 1.852 8.978 6.572 14.532 14.903 17.494 4.072 1.388 14.254 1.851 19.437.833 2.592-.555 2.87-.926 2.87-4.165v-3.517l-2.962.925c-7.868 2.221-17.216-.185-20.919-5.368-2.869-4.073-4.073-10.46-2.962-15.643 1.296-5.646 3.888-9.256 8.608-11.663 3.24-1.573 4.906-1.851 11.015-1.388l7.22.463v-3.055c0-1.851-.556-3.24-1.389-3.61-3.517-1.296-13.236-1.388-17.864-.092"/><path fill="#000" d="M.498 31.83v4.165h14.809000000000001l.185 19.622.278 20.301 4.927-.09 4.792.06v-39.8l7.943-.018 7.807-.061.017-4.457.06-3.888H.499zM98.612 51.73v24.065h10.181000000000001V57.283h6.757c5.184 0 7.683-.462 10.83-2.129 6.109-3.054 7.868-6.109 7.868-13.328 0-5.739-.186-6.11-3.425-9.071-4.443-4.165-8.423-5.091-21.289-5.091H98.612zM122.4 37.29c2.962 3.518 2.777 7.405-.556 10.83-2.406 2.314-3.424 2.684-7.867 2.684h-5.184V33.958l5.739.37c4.721.37 6.017.833 7.868 2.962"/><path fill="#0058A3" d="M143.041 51.73v24.065h9.256V27.664h-9.256z"/><path fill="#000" d="M8.365 106.341c-.37.647 31.563.925 94.874.925 61.646 0 95.245-.278 94.875-.925-.741-1.204-189.009-1.296-189.749 0"/><path fill="red" stroke="#000" stroke-width="2.732" d="M197.338 106.335H4.56v.052h192.778z"/></g><defs><clipPath id="a"><path fill="#fff" d="M0 .097h200v108.458H0z"/></clipPath></defs></svg>