<svg xmlns="http://www.w3.org/2000/svg" width="200" height="109" fill="none"><g clip-path="url(#a)"><path fill="#E95223" d="M142.58 8.58c-2.6 4.26-4.72 7.96-4.9 8.33-.2.47 4.25.74 9.9.74 5.64 0 10.27-.18 10.27-.37 0-.92-9.53-16.29-10.09-16.29-.28 0-2.68 3.43-5.18 7.6"/><path fill="#000" d="M58.16 28.2a20 20 0 0 0-12.03 9.63c-2.4 3.98-2.6 5.1-2.6 14.07s.2 10.09 2.6 14.16c1.39 2.4 4.16 5.46 6.02 6.67 4.8 3.24 12.86 4.53 19.06 3.24C82.88 73.56 89.36 65.5 89.63 53.1c.28-11.47-3.7-19.53-11.66-23.6-4.81-2.4-14.44-3.05-19.8-1.3m16.57 9.72c3.33 3.7 4.81 9.44 4.17 16.48-.65 7.03-2.6 10.92-6.48 13.24-6.02 3.7-13.15 1.66-16.57-4.91-2.6-4.9-2.87-17.12-.56-21.47 4.35-8.06 13.7-9.72 19.44-3.34"/><path fill="#0058A3" d="M180.25 28.3c-13.14 3.7-20.55 15.64-17.96 28.78 1.85 8.98 6.58 14.54 14.9 17.5 4.08 1.39 14.26 1.85 19.44.83 2.6-.55 2.87-.93 2.87-4.16v-3.52l-2.96.92c-7.87 2.22-17.22-.18-20.92-5.37-2.87-4.07-4.07-10.45-2.96-15.64 1.3-5.64 3.89-9.25 8.6-11.66 3.25-1.57 4.91-1.85 11.02-1.39l7.22.46V32c0-1.85-.55-3.24-1.39-3.61-3.51-1.3-13.23-1.39-17.86-.1"/><path fill="#000" d="M.5 32v4.16h14.8l.2 19.63.27 20.3 4.93-.1 4.79.07v-39.8l7.94-.02 7.8-.06.03-4.46.06-3.89H.5zM98.61 51.9v24.07h10.18V57.45h6.76c5.18 0 7.68-.46 10.83-2.13 6.1-3.05 7.87-6.1 7.87-13.32 0-5.74-.19-6.11-3.43-9.07-4.44-4.17-8.42-5.1-21.29-5.1H98.61zm23.79-14.44c2.96 3.52 2.78 7.4-.56 10.83-2.4 2.31-3.42 2.68-7.86 2.68h-5.19V34.13l5.74.37c4.72.37 6.02.83 7.87 2.96"/><path fill="#0058A3" d="M143.04 51.9v24.07h9.26V27.83h-9.26z"/><path fill="#000" d="M8.37 106.51c-.37.65 31.56.93 94.87.93 61.65 0 95.24-.28 94.87-.93-.74-1.2-189-1.3-189.74 0"/><path fill="red" stroke="#000" stroke-width="2.73" d="M197.34 106.5H4.56v.06h192.78z"/></g><defs><clipPath id="a"><path fill="#fff" d="M0 .27h200v108.46H0z"/></clipPath></defs></svg>