<svg xmlns="http://www.w3.org/2000/svg" width="200" height="110" fill="none"><path fill="#E95223" d="M142.578 8.895c-2.592 4.258-4.721 7.96-4.906 8.33-.185.464 4.258.741 9.904.741s10.274-.185 10.274-.37c0-.925-9.533-16.29-10.089-16.29-.278 0-2.684 3.424-5.183 7.59"/><path fill="#000" d="M58.163 28.518c-5.554 1.759-9.164 4.72-12.033 9.626-2.407 3.98-2.592 5.091-2.592 14.07s.185 10.089 2.592 14.161c1.388 2.407 4.165 5.461 6.016 6.665 4.813 3.24 12.866 4.535 19.068 3.24 11.662-2.407 18.142-10.46 18.42-22.863.277-11.478-3.703-19.53-11.663-23.603-4.814-2.407-14.44-3.055-19.808-1.296m16.568 9.719c3.332 3.702 4.813 9.441 4.165 16.476s-2.591 10.922-6.48 13.236C66.4 71.65 59.274 69.615 55.85 63.043c-2.592-4.905-2.87-17.123-.556-21.474 4.35-8.053 13.7-9.719 19.438-3.332"/><path fill="#0058A3" d="M180.25 28.61c-13.144 3.703-20.549 15.643-17.957 28.787 1.851 8.978 6.572 14.532 14.902 17.494 4.073 1.388 14.255 1.851 19.438.833 2.592-.556 2.869-.926 2.869-4.165V68.04l-2.961.926c-7.868 2.221-17.217-.185-20.919-5.369-2.87-4.072-4.073-10.459-2.962-15.642 1.296-5.647 3.887-9.256 8.608-11.663 3.24-1.573 4.906-1.851 11.015-1.388l7.219.462v-3.054c0-1.851-.555-3.24-1.388-3.61-3.517-1.296-13.236-1.388-17.864-.092"/><path fill="#000" d="M.498 32.313v4.165h14.809000000000001l.185 19.623.278 20.301 4.927-.09 4.792.06V36.571l7.943-.017 7.807-.061.017-4.458.06-3.887H.499zM98.612 52.214v24.065h10.181000000000001V57.767h6.757c5.184 0 7.683-.463 10.83-2.129 6.109-3.054 7.868-6.109 7.868-13.328 0-5.74-.186-6.11-3.425-9.071-4.443-4.165-8.423-5.091-21.289-5.091H98.612zm23.788-14.44c2.962 3.517 2.777 7.405-.556 10.83-2.406 2.314-3.424 2.684-7.867 2.684h-5.184V34.442l5.739.37c4.721.37 6.017.833 7.868 2.962"/><path fill="#0058A3" d="M143.041 52.214v24.065h9.256V28.148h-9.256z"/><path fill="#000" d="M8.365 106.824c-.37.648 31.563.926 94.874.926 61.646 0 95.245-.278 94.875-.926-.741-1.203-189.009-1.295-189.749 0"/><path fill="red" stroke="#000" stroke-width="2.732" d="M197.338 106.819H4.56v.052h192.778z"/></svg>