<svg xmlns="http://www.w3.org/2000/svg" width="200" height="183" fill="none"><path fill="#FE660E" fill-rule="evenodd" d="M.718 1.621a83.5 83.5 0 0 1 17.418.942 751 751 0 0 1 .941 71.553q-.095 3.597-2.354 6.12-7.885 1.137-15.534-.471Q.483 40.696.718 1.62" clip-rule="evenodd" opacity=".966"/><path fill="#FE660E" fill-rule="evenodd" d="M66.622 77.882q.12 1.406-.941 2.353a52.3 52.3 0 0 1-18.83-.941 1330 1330 0 0 1-8.003-24.008q-1.654-1.968-4.236-2.354A188 188 0 0 0 21.43 51.52V36.456a91.4 91.4 0 0 0 18.83-2.353q4.47-2.354 3.765-7.532.858-5.825-4.707-7.532a163 163 0 0 0-18.83-2.354V1.621Q35.162 1.1 49.675 3.033q9.746 3.629 12.71 13.652a53.2 53.2 0 0 1 0 14.122 66.6 66.6 0 0 1-8.002 10.827 26.6 26.6 0 0 1 4.236 7.062 968 968 0 0 0 8.003 29.186" clip-rule="evenodd" opacity=".955"/><path fill="#FE660E" fill-rule="evenodd" d="M66.622 77.882a682 682 0 0 1-.471-60.255 30.5 30.5 0 0 1 1.412-5.649q-2.775-4.305-1.412-9.415a92.5 92.5 0 0 1 18.359-.941 6760 6760 0 0 1-1.412 74.377q-.638 7.497-7.061 3.295-3.62-3.214.941-5.649a14.4 14.4 0 0 1-4.237-1.412 32 32 0 0 0-1.412 7.532q-2.844.153-4.707-1.883m3.766-72.494q3.192 1.042.47 2.824-2.44-1.203-.47-2.824m2.824 19.77q1.713 1.41-.47 2.825-.664-1.52.47-2.824" clip-rule="evenodd" opacity=".942"/><path fill="#FE660E" fill-rule="evenodd" d="M86.393 1.622h37.66v16.005h-37.66z" clip-rule="evenodd" opacity=".909"/><path fill="#FE660E" fill-rule="evenodd" d="M126.877 1.622q8.956-.235 17.888.47a916 916 0 0 1 17.418 44.72q.942 16.006 0 32.011-2.151 2.995-5.178.942a44 44 0 0 1-4.237-7.532 9600 9600 0 0 1-25.891-70.611" clip-rule="evenodd" opacity=".933"/><path fill="#FE660E" fill-rule="evenodd" d="M181.483 1.622h17.889a1175 1175 0 0 1-25.891 73.436q-1.746 7.16-8.944 5.648-.236-16.482.47-32.952a4070 4070 0 0 0 16.476-46.132" clip-rule="evenodd" opacity=".938"/><path fill="#FE660E" fill-rule="evenodd" d="M90.159 30.807q14.13-.235 28.245.471a8.9 8.9 0 0 1 2.353 1.412q.705 6.574.471 13.181H87.335a62 62 0 0 1-.471-12.24q1.39-1.854 3.295-2.824" clip-rule="evenodd" opacity=".95"/><path fill="#FE660E" fill-rule="evenodd" d="M90.16 64.701h34.834v16.005q-15.071.235-30.127-.47-1.968-1.654-2.354-4.237a12.2 12.2 0 0 0-.471 4.707q-5.667.944-5.649-4.707.161-6.32 3.766-11.298" clip-rule="evenodd" opacity=".936"/><path fill="#FE660E" fill-rule="evenodd" d="M61.915 100.478q7.76-.686 14.593 2.824a200 200 0 0 1 .941 37.659q-.615 3.316-1.412 6.591a250 250 0 0 1 1.883 32.952 126 126 0 0 1-18.83.941 1582 1582 0 0 1 0-80.026q1.824.335 2.825-.941" clip-rule="evenodd" opacity=".952"/><path fill="#FE660E" fill-rule="evenodd" d="M80.744 101.419q16.798-1.812 32.011 5.178 14.224 16.629 4.236 36.247-7.342 10.383-20.242 10.827a53.2 53.2 0 0 1-14.122 0q-4.815-1.775-3.766-7.061-.412-5.116 2.825-8.944l13.18-.941q12.354-6.103 3.766-16.947a86.3 86.3 0 0 0-18.359-3.295q-2.808-7.84.471-15.064" clip-rule="evenodd" opacity=".944"/><path fill="#FE660E" fill-rule="evenodd" d="M125.936 102.36h16.947q-.715 38.6-1.413 77.202a43 43 0 0 1-17.888 0 30772 30772 0 0 1-.471-76.26q1.823.335 2.825-.942" clip-rule="evenodd" opacity=".963"/></svg>