<svg xmlns="http://www.w3.org/2000/svg" width="200" height="183" fill="none"><path fill="#FE660E" fill-rule="evenodd" d="M.72 1.8q8.84-.45 17.42.93a751 751 0 0 1 .94 71.56 9.2 9.2 0 0 1-2.36 6.12q-7.88 1.13-15.53-.47Q.49 40.87.72 1.79" clip-rule="evenodd" opacity=".97"/><path fill="#FE660E" fill-rule="evenodd" d="M66.62 78.05q.12 1.4-.94 2.36-9.53 1.23-18.83-.95-4.1-11.92-8-24a6.6 6.6 0 0 0-4.24-2.36q-6.58-.94-13.18-1.41V36.63a91 91 0 0 0 18.83-2.36q4.47-2.36 3.77-7.53.85-5.83-4.71-7.53a163 163 0 0 0-18.83-2.35V1.79q14.66-.53 29.19 1.41 9.75 3.63 12.7 13.66.95 7.05 0 14.12a67 67 0 0 1-8 10.82 27 27 0 0 1 4.24 7.07 968 968 0 0 0 8 29.18" clip-rule="evenodd" opacity=".95"/><path fill="#FE660E" fill-rule="evenodd" d="M66.62 78.05a682 682 0 0 1-.47-60.25q.44-2.9 1.41-5.65-2.78-4.3-1.4-9.42A93 93 0 0 1 84.5 1.8q-.5 37.2-1.41 74.38-.64 7.5-7.06 3.3-3.62-3.22.94-5.65-2.25-.39-4.24-1.42a32 32 0 0 0-1.41 7.54q-2.85.15-4.7-1.89m3.77-72.5q3.19 1.05.47 2.83-2.45-1.2-.47-2.82m2.82 19.78q1.72 1.41-.47 2.82a2.5 2.5 0 0 1 .47-2.82" clip-rule="evenodd" opacity=".94"/><path fill="#FE660E" fill-rule="evenodd" d="M86.4 1.8h37.65v16H86.4z" clip-rule="evenodd" opacity=".91"/><path fill="#FE660E" fill-rule="evenodd" d="M126.88 1.8q8.95-.23 17.88.46a916 916 0 0 1 17.42 44.72q.94 16 0 32.01-2.15 3-5.18.95a44 44 0 0 1-4.23-7.54 9598 9598 0 0 1-25.9-70.6" clip-rule="evenodd" opacity=".93"/><path fill="#FE660E" fill-rule="evenodd" d="M181.48 1.8h17.9q-11.71 37.07-25.9 73.43-1.74 7.15-8.94 5.65-.24-16.5.47-32.96 8.39-23.04 16.47-46.13" clip-rule="evenodd" opacity=".94"/><path fill="#FE660E" fill-rule="evenodd" d="M90.16 30.98q14.13-.24 28.24.47 1.3.53 2.36 1.41.7 6.57.47 13.18h-33.9a62 62 0 0 1-.47-12.24 9.5 9.5 0 0 1 3.3-2.82" clip-rule="evenodd" opacity=".95"/><path fill="#FE660E" fill-rule="evenodd" d="M90.16 64.87h34.83v16q-15.07.23-30.12-.46a6.6 6.6 0 0 1-2.36-4.24q-.7 2.3-.47 4.7-5.67.96-5.65-4.7.17-6.32 3.77-11.3" clip-rule="evenodd" opacity=".94"/><path fill="#FE660E" fill-rule="evenodd" d="M61.91 100.65q7.76-.69 14.6 2.82 2.24 18.75.94 37.66-.61 3.3-1.41 6.6a250 250 0 0 1 1.88 32.94q-9.36 1.18-18.83.95-1-39.98 0-80.03 1.83.33 2.82-.94" clip-rule="evenodd" opacity=".95"/><path fill="#FE660E" fill-rule="evenodd" d="M80.74 101.59q16.8-1.8 32.02 5.18 14.22 16.63 4.23 36.24-7.35 10.39-20.24 10.83-7.06.95-14.12 0-4.82-1.77-3.77-7.06-.4-5.12 2.83-8.94l13.18-.94q12.35-6.1 3.76-16.95a86 86 0 0 0-18.36-3.3q-2.8-7.84.47-15.06" clip-rule="evenodd" opacity=".94"/><path fill="#FE660E" fill-rule="evenodd" d="M125.94 102.53h16.94l-1.41 77.2a43 43 0 0 1-17.89 0q-.28-38.01-.47-76.26 1.83.33 2.83-.94" clip-rule="evenodd" opacity=".96"/></svg>